M48
; DRILL file {KiCad (6.0.0-0)} date Saturday, January 08, 2022 at 10:40:46 PM
; FORMAT={-:-/ absolute / metric / decimal}
; #@! TF.CreationDate,2022-01-08T22:40:46+00:00
; #@! TF.GenerationSoftware,Kicad,Pcbnew,(6.0.0-0)
; #@! TF.FileFunction,Plated,1,2,PTH
FMAT,2
METRIC
; #@! TA.AperFunction,Plated,PTH,ViaDrill
T1C0.400
; #@! TA.AperFunction,Plated,PTH,ComponentDrill
T2C0.800
%
G90
G05
T1
X43.561Y-40.608
X43.561Y-59.658
X43.561Y-78.708
X43.561Y-97.758
X43.561Y-116.808
X47.244Y-36.163
X47.244Y-55.213
X47.244Y-74.263
X47.244Y-93.313
X47.244Y-112.363
X48.26Y-32.099
X48.26Y-33.623
X48.26Y-51.149
X48.26Y-52.673
X48.26Y-70.199
X48.26Y-71.723
X48.26Y-89.249
X48.26Y-90.773
X48.26Y-108.299
X48.26Y-109.823
X53.594Y-32.099
X53.594Y-33.623
X53.594Y-51.149
X53.594Y-52.673
X53.594Y-70.199
X53.594Y-71.723
X53.594Y-89.249
X53.594Y-90.773
X53.594Y-108.299
X53.594Y-109.823
X53.848Y-43.148
X53.848Y-62.198
X53.848Y-81.248
X53.848Y-100.298
X53.848Y-119.348
X54.483Y-36.163
X54.483Y-55.213
X54.483Y-74.263
X54.483Y-93.313
X54.483Y-112.363
X56.007Y-32.48
X56.007Y-51.53
X56.007Y-70.58
X56.007Y-89.63
X56.007Y-108.68
X58.039Y-31.718
X58.039Y-50.768
X58.039Y-69.818
X58.039Y-88.868
X58.039Y-107.918
X62.611Y-40.608
X62.611Y-59.658
X62.611Y-78.708
X62.611Y-97.758
X62.611Y-116.808
X66.294Y-36.163
X66.294Y-55.213
X66.294Y-74.263
X66.294Y-93.313
X66.294Y-112.363
X67.31Y-32.099
X67.31Y-33.623
X67.31Y-51.149
X67.31Y-52.673
X67.31Y-70.199
X67.31Y-71.723
X67.31Y-89.249
X67.31Y-90.773
X67.31Y-108.299
X67.31Y-109.823
X72.644Y-32.099
X72.644Y-33.623
X72.644Y-51.149
X72.644Y-52.673
X72.644Y-70.199
X72.644Y-71.723
X72.644Y-89.249
X72.644Y-90.773
X72.644Y-108.299
X72.644Y-109.823
X72.898Y-43.148
X72.898Y-62.198
X72.898Y-81.248
X72.898Y-100.298
X72.898Y-119.348
X73.533Y-36.163
X73.533Y-55.213
X73.533Y-74.263
X73.533Y-93.313
X73.533Y-112.363
X75.057Y-32.48
X75.057Y-51.53
X75.057Y-70.58
X75.057Y-89.63
X75.057Y-108.68
X77.089Y-31.718
X77.089Y-50.768
X77.089Y-69.818
X77.089Y-88.868
X77.089Y-107.918
X81.661Y-40.608
X81.661Y-59.658
X81.661Y-78.708
X81.661Y-97.758
X81.661Y-116.808
X85.344Y-36.163
X85.344Y-55.213
X85.344Y-74.263
X85.344Y-93.313
X85.344Y-112.363
X86.36Y-32.099
X86.36Y-33.623
X86.36Y-51.149
X86.36Y-52.673
X86.36Y-70.199
X86.36Y-71.723
X86.36Y-89.249
X86.36Y-90.773
X86.36Y-108.299
X86.36Y-109.823
X91.694Y-32.099
X91.694Y-33.623
X91.694Y-51.149
X91.694Y-52.673
X91.694Y-70.199
X91.694Y-71.723
X91.694Y-89.249
X91.694Y-90.773
X91.694Y-108.299
X91.694Y-109.823
X91.948Y-43.148
X91.948Y-62.198
X91.948Y-81.248
X91.948Y-100.298
X91.948Y-119.348
X92.583Y-36.163
X92.583Y-55.213
X92.583Y-74.263
X92.583Y-93.313
X92.583Y-112.363
X94.107Y-32.48
X94.107Y-51.53
X94.107Y-70.58
X94.107Y-89.63
X94.107Y-108.68
X96.139Y-31.718
X96.139Y-50.768
X96.139Y-69.818
X96.139Y-88.868
X96.139Y-107.918
X100.711Y-40.608
X100.711Y-59.658
X100.711Y-78.708
X100.711Y-97.758
X100.711Y-116.808
X104.394Y-36.163
X104.394Y-55.213
X104.394Y-74.263
X104.394Y-93.313
X104.394Y-112.363
X105.41Y-32.099
X105.41Y-33.623
X105.41Y-51.149
X105.41Y-52.673
X105.41Y-70.199
X105.41Y-71.723
X105.41Y-89.249
X105.41Y-90.773
X105.41Y-108.299
X105.41Y-109.823
X110.744Y-32.099
X110.744Y-33.623
X110.744Y-51.149
X110.744Y-52.673
X110.744Y-70.199
X110.744Y-71.723
X110.744Y-89.249
X110.744Y-90.773
X110.744Y-108.299
X110.744Y-109.823
X110.998Y-43.148
X110.998Y-62.198
X110.998Y-81.248
X110.998Y-100.298
X110.998Y-119.348
X111.633Y-36.163
X111.633Y-55.213
X111.633Y-74.263
X111.633Y-93.313
X111.633Y-112.363
X113.157Y-32.48
X113.157Y-51.53
X113.157Y-70.58
X113.157Y-89.63
X113.157Y-108.68
X115.189Y-31.718
X115.189Y-50.768
X115.189Y-69.818
X115.189Y-88.868
X115.189Y-107.918
X119.761Y-40.608
X119.761Y-59.658
X119.761Y-78.708
X119.761Y-97.758
X119.761Y-116.808
X123.444Y-36.163
X123.444Y-55.213
X123.444Y-74.263
X123.444Y-93.313
X123.444Y-112.363
X124.46Y-32.099
X124.46Y-33.623
X124.46Y-51.149
X124.46Y-52.673
X124.46Y-70.199
X124.46Y-71.723
X124.46Y-89.249
X124.46Y-90.773
X124.46Y-108.299
X124.46Y-109.823
X129.794Y-32.099
X129.794Y-33.623
X129.794Y-51.149
X129.794Y-52.673
X129.794Y-70.199
X129.794Y-71.723
X129.794Y-89.249
X129.794Y-90.773
X129.794Y-108.299
X129.794Y-109.823
X130.048Y-43.148
X130.048Y-62.198
X130.048Y-81.248
X130.048Y-100.298
X130.048Y-119.348
X130.683Y-36.163
X130.683Y-55.213
X130.683Y-74.263
X130.683Y-93.313
X130.683Y-112.363
T2
X43.307Y-29.813
X43.307Y-33.623
X43.307Y-36.163
X43.307Y-38.703
X43.307Y-45.053
X43.307Y-48.863
X43.307Y-52.673
X43.307Y-55.213
X43.307Y-57.753
X43.307Y-64.103
X43.307Y-67.913
X43.307Y-71.723
X43.307Y-74.263
X43.307Y-76.803
X43.307Y-83.153
X43.307Y-86.963
X43.307Y-90.773
X43.307Y-93.313
X43.307Y-95.853
X43.307Y-102.203
X43.307Y-106.013
X43.307Y-109.823
X43.307Y-112.363
X43.307Y-114.903
X43.307Y-121.253
X46.465Y-45.18
X46.465Y-64.23
X46.465Y-83.28
X46.465Y-102.33
X46.465Y-121.38
X52.815Y-45.18
X52.815Y-64.23
X52.815Y-83.28
X52.815Y-102.33
X52.815Y-121.38
X54.737Y-29.813
X54.737Y-48.863
X54.737Y-67.913
X54.737Y-86.963
X54.737Y-106.013
X54.864Y-45.053
X54.864Y-64.103
X54.864Y-83.153
X54.864Y-102.203
X54.864Y-121.253
X58.547Y-29.813
X58.547Y-33.623
X58.547Y-36.163
X58.547Y-42.386
X58.547Y-45.053
X58.547Y-48.863
X58.547Y-52.673
X58.547Y-55.213
X58.547Y-61.436
X58.547Y-64.103
X58.547Y-67.913
X58.547Y-71.723
X58.547Y-74.263
X58.547Y-80.486
X58.547Y-83.153
X58.547Y-86.963
X58.547Y-90.773
X58.547Y-93.313
X58.547Y-99.536
X58.547Y-102.203
X58.547Y-106.013
X58.547Y-109.823
X58.547Y-112.363
X58.547Y-118.586
X58.547Y-121.253
X62.357Y-29.813
X62.357Y-33.623
X62.357Y-36.163
X62.357Y-38.703
X62.357Y-45.053
X62.357Y-48.863
X62.357Y-52.673
X62.357Y-55.213
X62.357Y-57.753
X62.357Y-64.103
X62.357Y-67.913
X62.357Y-71.723
X62.357Y-74.263
X62.357Y-76.803
X62.357Y-83.153
X62.357Y-86.963
X62.357Y-90.773
X62.357Y-93.313
X62.357Y-95.853
X62.357Y-102.203
X62.357Y-106.013
X62.357Y-109.823
X62.357Y-112.363
X62.357Y-114.903
X62.357Y-121.253
X65.515Y-45.18
X65.515Y-64.23
X65.515Y-83.28
X65.515Y-102.33
X65.515Y-121.38
X71.865Y-45.18
X71.865Y-64.23
X71.865Y-83.28
X71.865Y-102.33
X71.865Y-121.38
X73.787Y-29.813
X73.787Y-48.863
X73.787Y-67.913
X73.787Y-86.963
X73.787Y-106.013
X73.914Y-45.053
X73.914Y-64.103
X73.914Y-83.153
X73.914Y-102.203
X73.914Y-121.253
X77.597Y-29.813
X77.597Y-33.623
X77.597Y-36.163
X77.597Y-42.386
X77.597Y-45.053
X77.597Y-48.863
X77.597Y-52.673
X77.597Y-55.213
X77.597Y-61.436
X77.597Y-64.103
X77.597Y-67.913
X77.597Y-71.723
X77.597Y-74.263
X77.597Y-80.486
X77.597Y-83.153
X77.597Y-86.963
X77.597Y-90.773
X77.597Y-93.313
X77.597Y-99.536
X77.597Y-102.203
X77.597Y-106.013
X77.597Y-109.823
X77.597Y-112.363
X77.597Y-118.586
X77.597Y-121.253
X81.407Y-29.813
X81.407Y-33.623
X81.407Y-36.163
X81.407Y-38.703
X81.407Y-45.053
X81.407Y-48.863
X81.407Y-52.673
X81.407Y-55.213
X81.407Y-57.753
X81.407Y-64.103
X81.407Y-67.913
X81.407Y-71.723
X81.407Y-74.263
X81.407Y-76.803
X81.407Y-83.153
X81.407Y-86.963
X81.407Y-90.773
X81.407Y-93.313
X81.407Y-95.853
X81.407Y-102.203
X81.407Y-106.013
X81.407Y-109.823
X81.407Y-112.363
X81.407Y-114.903
X81.407Y-121.253
X84.565Y-45.18
X84.565Y-64.23
X84.565Y-83.28
X84.565Y-102.33
X84.565Y-121.38
X90.915Y-45.18
X90.915Y-64.23
X90.915Y-83.28
X90.915Y-102.33
X90.915Y-121.38
X92.837Y-29.813
X92.837Y-48.863
X92.837Y-67.913
X92.837Y-86.963
X92.837Y-106.013
X92.964Y-45.053
X92.964Y-64.103
X92.964Y-83.153
X92.964Y-102.203
X92.964Y-121.253
X96.647Y-29.813
X96.647Y-33.623
X96.647Y-36.163
X96.647Y-42.386
X96.647Y-45.053
X96.647Y-48.863
X96.647Y-52.673
X96.647Y-55.213
X96.647Y-61.436
X96.647Y-64.103
X96.647Y-67.913
X96.647Y-71.723
X96.647Y-74.263
X96.647Y-80.486
X96.647Y-83.153
X96.647Y-86.963
X96.647Y-90.773
X96.647Y-93.313
X96.647Y-99.536
X96.647Y-102.203
X96.647Y-106.013
X96.647Y-109.823
X96.647Y-112.363
X96.647Y-118.586
X96.647Y-121.253
X100.457Y-29.813
X100.457Y-33.623
X100.457Y-36.163
X100.457Y-38.703
X100.457Y-45.053
X100.457Y-48.863
X100.457Y-52.673
X100.457Y-55.213
X100.457Y-57.753
X100.457Y-64.103
X100.457Y-67.913
X100.457Y-71.723
X100.457Y-74.263
X100.457Y-76.803
X100.457Y-83.153
X100.457Y-86.963
X100.457Y-90.773
X100.457Y-93.313
X100.457Y-95.853
X100.457Y-102.203
X100.457Y-106.013
X100.457Y-109.823
X100.457Y-112.363
X100.457Y-114.903
X100.457Y-121.253
X103.615Y-45.18
X103.615Y-64.23
X103.615Y-83.28
X103.615Y-102.33
X103.615Y-121.38
X109.965Y-45.18
X109.965Y-64.23
X109.965Y-83.28
X109.965Y-102.33
X109.965Y-121.38
X111.887Y-29.813
X111.887Y-48.863
X111.887Y-67.913
X111.887Y-86.963
X111.887Y-106.013
X112.014Y-45.053
X112.014Y-64.103
X112.014Y-83.153
X112.014Y-102.203
X112.014Y-121.253
X115.697Y-29.813
X115.697Y-33.623
X115.697Y-36.163
X115.697Y-42.386
X115.697Y-45.053
X115.697Y-48.863
X115.697Y-52.673
X115.697Y-55.213
X115.697Y-61.436
X115.697Y-64.103
X115.697Y-67.913
X115.697Y-71.723
X115.697Y-74.263
X115.697Y-80.486
X115.697Y-83.153
X115.697Y-86.963
X115.697Y-90.773
X115.697Y-93.313
X115.697Y-99.536
X115.697Y-102.203
X115.697Y-106.013
X115.697Y-109.823
X115.697Y-112.363
X115.697Y-118.586
X115.697Y-121.253
X119.507Y-29.813
X119.507Y-33.623
X119.507Y-36.163
X119.507Y-38.703
X119.507Y-45.053
X119.507Y-48.863
X119.507Y-52.673
X119.507Y-55.213
X119.507Y-57.753
X119.507Y-64.103
X119.507Y-67.913
X119.507Y-71.723
X119.507Y-74.263
X119.507Y-76.803
X119.507Y-83.153
X119.507Y-86.963
X119.507Y-90.773
X119.507Y-93.313
X119.507Y-95.853
X119.507Y-102.203
X119.507Y-106.013
X119.507Y-109.823
X119.507Y-112.363
X119.507Y-114.903
X119.507Y-121.253
X122.665Y-45.18
X122.665Y-64.23
X122.665Y-83.28
X122.665Y-102.33
X122.665Y-121.38
X129.015Y-45.18
X129.015Y-64.23
X129.015Y-83.28
X129.015Y-102.33
X129.015Y-121.38
X130.937Y-29.813
X130.937Y-48.863
X130.937Y-67.913
X130.937Y-86.963
X130.937Y-106.013
X131.064Y-45.053
X131.064Y-64.103
X131.064Y-83.153
X131.064Y-102.203
X131.064Y-121.253
X134.747Y-29.813
X134.747Y-33.623
X134.747Y-36.163
X134.747Y-42.386
X134.747Y-45.053
X134.747Y-48.863
X134.747Y-52.673
X134.747Y-55.213
X134.747Y-61.436
X134.747Y-64.103
X134.747Y-67.913
X134.747Y-71.723
X134.747Y-74.263
X134.747Y-80.486
X134.747Y-83.153
X134.747Y-86.963
X134.747Y-90.773
X134.747Y-93.313
X134.747Y-99.536
X134.747Y-102.203
X134.747Y-106.013
X134.747Y-109.823
X134.747Y-112.363
X134.747Y-118.586
X134.747Y-121.253
T0
M30
