%FSLAX45Y45*%
G04 Gerber Fmt 4.5, Leading zero omitted, Abs format (unit mm)*
G04 Created by KiCad (PCBNEW (6.0.0-0)) date 2022-01-01 10:49:53*
%MOMM*%
%LPD*%
G01*
G04 APERTURE LIST*
%TA.AperFunction,Profile*%
%ADD10C,0.100000*%
%TD*%
%ADD11C,0.200000*%
%ADD12C,0.040000*%
%ADD13C,0.080000*%
%ADD14C,0.081280*%
G04 APERTURE END LIST*
D10*
X5156200Y-11963400D02*
G75*
G03*
X5207000Y-12014200I50800J0D01*
G01*
X10553700Y-10109200D02*
X10693400Y-10109200D01*
X12331700Y-10236200D02*
X11188700Y-10236200D01*
X14236700Y-6426200D02*
X13093700Y-6426200D01*
X7112000Y-8331200D02*
G75*
G03*
X7061200Y-8382000I0J-50800D01*
G01*
X14503400Y-4521200D02*
X14363700Y-4521200D01*
X14554200Y-4572000D02*
G75*
G03*
X14503400Y-4521200I-50800J0D01*
G01*
X6934200Y-4572000D02*
G75*
G03*
X6883400Y-4521200I-50800J0D01*
G01*
X5473700Y-6426200D02*
X5473700Y-6299200D01*
X10744200Y-6604000D02*
X10871200Y-6604000D01*
X12649200Y-4826000D02*
X12776200Y-4826000D01*
X12776200Y-11823700D02*
X12776200Y-11963400D01*
X5473700Y-10236200D02*
X5473700Y-10109200D01*
X9017000Y-8204200D02*
X9156700Y-8204200D01*
X12649200Y-10541000D02*
X12776200Y-10541000D01*
X6934200Y-4076700D02*
X6934200Y-2921000D01*
X10426700Y-10236200D02*
X9283700Y-10236200D01*
X12598400Y-8331200D02*
X12458700Y-8331200D01*
X10693400Y-12014200D02*
G75*
G03*
X10744200Y-11963400I0J50800D01*
G01*
X12649200Y-10414000D02*
X12649200Y-10287000D01*
X10922000Y-8204200D02*
X11061700Y-8204200D01*
X14363700Y-8204200D02*
X14363700Y-8331200D01*
X7061200Y-8382000D02*
X7061200Y-8509000D01*
X11061700Y-6299200D02*
X11061700Y-6426200D01*
X12649200Y-4343400D02*
X12649200Y-4203700D01*
X8966200Y-9918700D02*
X8966200Y-10058400D01*
X14554200Y-6248400D02*
X14554200Y-4572000D01*
X6934200Y-4699000D02*
X6934200Y-4572000D01*
X10744200Y-6248400D02*
X10744200Y-6108700D01*
X10744200Y-2794000D02*
X10744200Y-2667000D01*
X12458700Y-4394200D02*
X12458700Y-4521200D01*
X8839200Y-6108700D02*
X8966200Y-6108700D01*
X12649200Y-10287000D02*
G75*
G03*
X12598400Y-10236200I-50800J0D01*
G01*
X5156200Y-2667000D02*
X5156200Y-4343400D01*
X7061200Y-6108700D02*
X7061200Y-6248400D01*
X12827000Y-4521200D02*
G75*
G03*
X12776200Y-4572000I0J-50800D01*
G01*
X8966200Y-2667000D02*
X8966200Y-2794000D01*
X8839200Y-8153400D02*
X8839200Y-8013700D01*
X10744200Y-7886700D02*
X10744200Y-6731000D01*
X6616700Y-8331200D02*
X5473700Y-8331200D01*
X8521700Y-6426200D02*
X7378700Y-6426200D01*
X9017000Y-4394200D02*
X9156700Y-4394200D01*
X12776200Y-4572000D02*
X12776200Y-4699000D01*
X12649200Y-8013700D02*
X12776200Y-8013700D01*
X9156700Y-6299200D02*
X9156700Y-6426200D01*
X12598400Y-6426200D02*
X12458700Y-6426200D01*
X10744200Y-4826000D02*
X10871200Y-4826000D01*
X10744200Y-4699000D02*
X10744200Y-4572000D01*
X11188700Y-8204200D02*
X12331700Y-8204200D01*
X9283700Y-10109200D02*
X10426700Y-10109200D01*
X14503400Y-8331200D02*
X14363700Y-8331200D01*
X8648700Y-8204200D02*
X8648700Y-8331200D01*
X8966200Y-6248400D02*
G75*
G03*
X9017000Y-6299200I50800J0D01*
G01*
X10871200Y-8153400D02*
G75*
G03*
X10922000Y-8204200I50800J0D01*
G01*
X10744200Y-4343400D02*
X10744200Y-4203700D01*
X12649200Y-2921000D02*
X12776200Y-2921000D01*
X10744200Y-9918700D02*
X10871200Y-9918700D01*
X5473700Y-4521200D02*
X5473700Y-4394200D01*
X5207000Y-10236200D02*
G75*
G03*
X5156200Y-10287000I0J-50800D01*
G01*
X11188700Y-4521200D02*
X11188700Y-4394200D01*
X8648700Y-6299200D02*
X8788400Y-6299200D01*
X12649200Y-2667000D02*
G75*
G03*
X12598400Y-2616200I-50800J0D01*
G01*
X6743700Y-8204200D02*
X6883400Y-8204200D01*
X12649200Y-8636000D02*
X12776200Y-8636000D01*
X10744200Y-10414000D02*
X10744200Y-10287000D01*
X11188700Y-6299200D02*
X12331700Y-6299200D01*
X7112000Y-12014200D02*
X8788400Y-12014200D01*
X6883400Y-10236200D02*
X6743700Y-10236200D01*
X5156200Y-6477000D02*
X5156200Y-8153400D01*
X10871200Y-2921000D02*
X10871200Y-4076700D01*
X10744200Y-2667000D02*
G75*
G03*
X10693400Y-2616200I-50800J0D01*
G01*
X12649200Y-4572000D02*
G75*
G03*
X12598400Y-4521200I-50800J0D01*
G01*
X10871200Y-11823700D02*
X10871200Y-11963400D01*
X6934200Y-6604000D02*
X7061200Y-6604000D01*
X5473700Y-6299200D02*
X6616700Y-6299200D01*
X9017000Y-8331200D02*
G75*
G03*
X8966200Y-8382000I0J-50800D01*
G01*
X10922000Y-4394200D02*
X11061700Y-4394200D01*
X6934200Y-6604000D02*
X6934200Y-6477000D01*
X14503400Y-10109200D02*
G75*
G03*
X14554200Y-10058400I0J50800D01*
G01*
X7061200Y-4203700D02*
X7061200Y-4343400D01*
X8839200Y-11823700D02*
X8966200Y-11823700D01*
X6934200Y-5981700D02*
X7061200Y-5981700D01*
X8648700Y-6299200D02*
X8648700Y-6426200D01*
X8788400Y-4394200D02*
G75*
G03*
X8839200Y-4343400I0J50800D01*
G01*
X10871200Y-10287000D02*
X10871200Y-10414000D01*
X12649200Y-9791700D02*
X12649200Y-8636000D01*
X8788400Y-12014200D02*
G75*
G03*
X8839200Y-11963400I0J50800D01*
G01*
X12458700Y-8204200D02*
X12598400Y-8204200D01*
X8839200Y-4076700D02*
X8966200Y-4076700D01*
X10871200Y-2667000D02*
X10871200Y-2794000D01*
X8839200Y-4699000D02*
X8839200Y-4572000D01*
X12966700Y-8331200D02*
X12827000Y-8331200D01*
X6743700Y-10109200D02*
X6883400Y-10109200D01*
X8839200Y-2667000D02*
G75*
G03*
X8788400Y-2616200I-50800J0D01*
G01*
X6616700Y-6426200D02*
X5473700Y-6426200D01*
X8839200Y-8509000D02*
X8966200Y-8509000D01*
X7378700Y-8204200D02*
X8521700Y-8204200D01*
X8966200Y-2921000D02*
X8966200Y-4076700D01*
X9283700Y-4394200D02*
X10426700Y-4394200D01*
X12827000Y-2616200D02*
G75*
G03*
X12776200Y-2667000I0J-50800D01*
G01*
X9283700Y-6426200D02*
X9283700Y-6299200D01*
X12827000Y-6426200D02*
G75*
G03*
X12776200Y-6477000I0J-50800D01*
G01*
X13093700Y-6426200D02*
X13093700Y-6299200D01*
X10871200Y-9918700D02*
X10871200Y-10058400D01*
X5473700Y-8204200D02*
X6616700Y-8204200D01*
X8839200Y-5981700D02*
X8839200Y-4826000D01*
X12649200Y-11696700D02*
X12649200Y-10541000D01*
X12776200Y-10058400D02*
G75*
G03*
X12827000Y-10109200I50800J0D01*
G01*
X14503400Y-10236200D02*
X14363700Y-10236200D01*
X7061200Y-4572000D02*
X7061200Y-4699000D01*
X13093700Y-4521200D02*
X13093700Y-4394200D01*
X12649200Y-2794000D02*
X12776200Y-2794000D01*
X6934200Y-4826000D02*
X7061200Y-4826000D01*
X8839200Y-4203700D02*
X8966200Y-4203700D01*
X6883400Y-6299200D02*
G75*
G03*
X6934200Y-6248400I0J50800D01*
G01*
X9017000Y-10236200D02*
G75*
G03*
X8966200Y-10287000I0J-50800D01*
G01*
X7061200Y-4343400D02*
G75*
G03*
X7112000Y-4394200I50800J0D01*
G01*
X8839200Y-10287000D02*
G75*
G03*
X8788400Y-10236200I-50800J0D01*
G01*
X8966200Y-6731000D02*
X8966200Y-7886700D01*
X8966200Y-8382000D02*
X8966200Y-8509000D01*
X6934200Y-10414000D02*
X7061200Y-10414000D01*
X12776200Y-8153400D02*
G75*
G03*
X12827000Y-8204200I50800J0D01*
G01*
X12598400Y-4394200D02*
G75*
G03*
X12649200Y-4343400I0J50800D01*
G01*
X10871200Y-6731000D02*
X10871200Y-7886700D01*
X11061700Y-10109200D02*
X11061700Y-10236200D01*
X6616700Y-4521200D02*
X5473700Y-4521200D01*
X12649200Y-6731000D02*
X12776200Y-6731000D01*
X13093700Y-8204200D02*
X14236700Y-8204200D01*
X8839200Y-8382000D02*
G75*
G03*
X8788400Y-8331200I-50800J0D01*
G01*
X12649200Y-10414000D02*
X12776200Y-10414000D01*
X6934200Y-4343400D02*
X6934200Y-4203700D01*
X7061200Y-6731000D02*
X7061200Y-7886700D01*
X10744200Y-11963400D02*
X10744200Y-11823700D01*
X10871200Y-4826000D02*
X10871200Y-5981700D01*
X7061200Y-11963400D02*
G75*
G03*
X7112000Y-12014200I50800J0D01*
G01*
X10553700Y-8204200D02*
X10693400Y-8204200D01*
X7251700Y-8331200D02*
X7112000Y-8331200D01*
X10744200Y-2921000D02*
X10871200Y-2921000D01*
X10426700Y-8331200D02*
X9283700Y-8331200D01*
X8966200Y-10541000D02*
X8966200Y-11696700D01*
X6883400Y-10109200D02*
G75*
G03*
X6934200Y-10058400I0J50800D01*
G01*
X9156700Y-8204200D02*
X9156700Y-8331200D01*
X8839200Y-6604000D02*
X8966200Y-6604000D01*
X6934200Y-8636000D02*
X7061200Y-8636000D01*
X14554200Y-10287000D02*
G75*
G03*
X14503400Y-10236200I-50800J0D01*
G01*
X10871200Y-8013700D02*
X10871200Y-8153400D01*
X14503400Y-8204200D02*
G75*
G03*
X14554200Y-8153400I0J50800D01*
G01*
X10871200Y-10541000D02*
X10871200Y-11696700D01*
X14236700Y-6426200D02*
X14236700Y-6299200D01*
X6934200Y-6731000D02*
X7061200Y-6731000D01*
X6934200Y-7886700D02*
X7061200Y-7886700D01*
X12649200Y-8509000D02*
X12776200Y-8509000D01*
X14236700Y-10236200D02*
X14236700Y-10109200D01*
X6883400Y-8204200D02*
G75*
G03*
X6934200Y-8153400I0J50800D01*
G01*
X10744200Y-10287000D02*
G75*
G03*
X10693400Y-10236200I-50800J0D01*
G01*
X12649200Y-11823700D02*
X12776200Y-11823700D01*
X8839200Y-11696700D02*
X8839200Y-10541000D01*
X10744200Y-10414000D02*
X10871200Y-10414000D01*
X12649200Y-6604000D02*
X12776200Y-6604000D01*
X9156700Y-10109200D02*
X9156700Y-10236200D01*
X14554200Y-8382000D02*
G75*
G03*
X14503400Y-8331200I-50800J0D01*
G01*
X10871200Y-10058400D02*
G75*
G03*
X10922000Y-10109200I50800J0D01*
G01*
X9283700Y-10236200D02*
X9283700Y-10109200D01*
X6883400Y-8331200D02*
X6743700Y-8331200D01*
X5156200Y-4572000D02*
X5156200Y-6248400D01*
X10744200Y-7886700D02*
X10871200Y-7886700D01*
X7251700Y-10109200D02*
X7251700Y-10236200D01*
X5473700Y-8331200D02*
X5473700Y-8204200D01*
X6883400Y-4521200D02*
X6743700Y-4521200D01*
X8648700Y-10109200D02*
X8648700Y-10236200D01*
X5156200Y-6248400D02*
G75*
G03*
X5207000Y-6299200I50800J0D01*
G01*
X6883400Y-2616200D02*
X5207000Y-2616200D01*
X5346700Y-4394200D02*
X5346700Y-4521200D01*
X12598400Y-6299200D02*
G75*
G03*
X12649200Y-6248400I0J50800D01*
G01*
X12649200Y-9791700D02*
X12776200Y-9791700D01*
X10744200Y-6604000D02*
X10744200Y-6477000D01*
X14363700Y-4394200D02*
X14363700Y-4521200D01*
X7112000Y-10236200D02*
G75*
G03*
X7061200Y-10287000I0J-50800D01*
G01*
X12966700Y-6299200D02*
X12966700Y-6426200D01*
X12649200Y-4203700D02*
X12776200Y-4203700D01*
X7112000Y-2616200D02*
G75*
G03*
X7061200Y-2667000I0J-50800D01*
G01*
X7061200Y-6477000D02*
X7061200Y-6604000D01*
X10744200Y-6477000D02*
G75*
G03*
X10693400Y-6426200I-50800J0D01*
G01*
X6934200Y-8509000D02*
X7061200Y-8509000D01*
X10744200Y-10541000D02*
X10871200Y-10541000D01*
X12598400Y-8204200D02*
G75*
G03*
X12649200Y-8153400I0J50800D01*
G01*
X8966200Y-11963400D02*
G75*
G03*
X9017000Y-12014200I50800J0D01*
G01*
X10693400Y-8331200D02*
X10553700Y-8331200D01*
X11061700Y-6426200D02*
X10922000Y-6426200D01*
X14363700Y-6299200D02*
X14363700Y-6426200D01*
X12458700Y-6299200D02*
X12458700Y-6426200D01*
X12458700Y-4394200D02*
X12598400Y-4394200D01*
X10744200Y-8509000D02*
X10871200Y-8509000D01*
X10922000Y-4521200D02*
G75*
G03*
X10871200Y-4572000I0J-50800D01*
G01*
X6934200Y-11963400D02*
X6934200Y-11823700D01*
X6934200Y-5981700D02*
X6934200Y-4826000D01*
X11061700Y-4394200D02*
X11061700Y-4521200D01*
X12649200Y-11963400D02*
X12649200Y-11823700D01*
X7061200Y-2667000D02*
X7061200Y-2794000D01*
X5346700Y-8204200D02*
X5346700Y-8331200D01*
X7251700Y-10236200D02*
X7112000Y-10236200D01*
X10553700Y-4394200D02*
X10693400Y-4394200D01*
X7061200Y-4826000D02*
X7061200Y-5981700D01*
X8966200Y-8013700D02*
X8966200Y-8153400D01*
X7251700Y-4521200D02*
X7112000Y-4521200D01*
X12458700Y-6299200D02*
X12598400Y-6299200D01*
X12649200Y-8382000D02*
G75*
G03*
X12598400Y-8331200I-50800J0D01*
G01*
X10744200Y-8636000D02*
X10871200Y-8636000D01*
X6883400Y-4394200D02*
G75*
G03*
X6934200Y-4343400I0J50800D01*
G01*
X5346700Y-4521200D02*
X5207000Y-4521200D01*
X10744200Y-6731000D02*
X10871200Y-6731000D01*
X8839200Y-9918700D02*
X8966200Y-9918700D01*
X8839200Y-4572000D02*
G75*
G03*
X8788400Y-4521200I-50800J0D01*
G01*
X10922000Y-2616200D02*
G75*
G03*
X10871200Y-2667000I0J-50800D01*
G01*
X7378700Y-6426200D02*
X7378700Y-6299200D01*
X12776200Y-8013700D02*
X12776200Y-8153400D01*
X6934200Y-10058400D02*
X6934200Y-9918700D01*
X7378700Y-4394200D02*
X8521700Y-4394200D01*
X8966200Y-10287000D02*
X8966200Y-10414000D01*
X8839200Y-4343400D02*
X8839200Y-4203700D01*
X12649200Y-8153400D02*
X12649200Y-8013700D01*
X9283700Y-8331200D02*
X9283700Y-8204200D01*
X7061200Y-10058400D02*
G75*
G03*
X7112000Y-10109200I50800J0D01*
G01*
X10744200Y-4203700D02*
X10871200Y-4203700D01*
X10693400Y-2616200D02*
X9017000Y-2616200D01*
X8788400Y-8331200D02*
X8648700Y-8331200D01*
X5207000Y-10109200D02*
X5346700Y-10109200D01*
X7112000Y-6299200D02*
X7251700Y-6299200D01*
X9017000Y-4521200D02*
G75*
G03*
X8966200Y-4572000I0J-50800D01*
G01*
X10553700Y-4394200D02*
X10553700Y-4521200D01*
X6934200Y-2794000D02*
X6934200Y-2667000D01*
X12649200Y-7886700D02*
X12776200Y-7886700D01*
X8839200Y-6477000D02*
G75*
G03*
X8788400Y-6426200I-50800J0D01*
G01*
X6934200Y-4203700D02*
X7061200Y-4203700D01*
X13093700Y-8331200D02*
X13093700Y-8204200D01*
X8648700Y-4394200D02*
X8788400Y-4394200D01*
X6743700Y-6299200D02*
X6883400Y-6299200D01*
X14503400Y-12014200D02*
G75*
G03*
X14554200Y-11963400I0J50800D01*
G01*
X12776200Y-6731000D02*
X12776200Y-7886700D01*
X14363700Y-10109200D02*
X14363700Y-10236200D01*
X7061200Y-6248400D02*
G75*
G03*
X7112000Y-6299200I50800J0D01*
G01*
X12776200Y-10287000D02*
X12776200Y-10414000D01*
X7061200Y-8636000D02*
X7061200Y-9791700D01*
X10744200Y-11823700D02*
X10871200Y-11823700D01*
X12827000Y-6299200D02*
X12966700Y-6299200D01*
X12331700Y-8331200D02*
X11188700Y-8331200D01*
X14503400Y-6426200D02*
X14363700Y-6426200D01*
X8788400Y-4521200D02*
X8648700Y-4521200D01*
X14554200Y-8153400D02*
X14554200Y-6477000D01*
X12966700Y-10236200D02*
X12827000Y-10236200D01*
X10871200Y-8636000D02*
X10871200Y-9791700D01*
X6743700Y-4394200D02*
X6883400Y-4394200D01*
X12598400Y-2616200D02*
X10922000Y-2616200D01*
X12649200Y-7886700D02*
X12649200Y-6731000D01*
X10693400Y-4521200D02*
X10553700Y-4521200D01*
X14503400Y-6299200D02*
G75*
G03*
X14554200Y-6248400I0J50800D01*
G01*
X12649200Y-11696700D02*
X12776200Y-11696700D01*
X12649200Y-4076700D02*
X12649200Y-2921000D01*
X7378700Y-4521200D02*
X7378700Y-4394200D01*
X11188700Y-8331200D02*
X11188700Y-8204200D01*
X5207000Y-6426200D02*
G75*
G03*
X5156200Y-6477000I0J-50800D01*
G01*
X5346700Y-10236200D02*
X5207000Y-10236200D01*
X12598400Y-4521200D02*
X12458700Y-4521200D01*
X10744200Y-11696700D02*
X10871200Y-11696700D01*
X10744200Y-9791700D02*
X10871200Y-9791700D01*
X6934200Y-6108700D02*
X7061200Y-6108700D01*
X8648700Y-4394200D02*
X8648700Y-4521200D01*
X10744200Y-4572000D02*
G75*
G03*
X10693400Y-4521200I-50800J0D01*
G01*
X10693400Y-8204200D02*
G75*
G03*
X10744200Y-8153400I0J50800D01*
G01*
X6883400Y-6426200D02*
X6743700Y-6426200D01*
X8788400Y-6299200D02*
G75*
G03*
X8839200Y-6248400I0J50800D01*
G01*
X6934200Y-8013700D02*
X7061200Y-8013700D01*
X6934200Y-4076700D02*
X7061200Y-4076700D01*
X8966200Y-4572000D02*
X8966200Y-4699000D01*
X14236700Y-10236200D02*
X13093700Y-10236200D01*
X8839200Y-11696700D02*
X8966200Y-11696700D01*
X5346700Y-10109200D02*
X5346700Y-10236200D01*
X12649200Y-4076700D02*
X12776200Y-4076700D01*
X8839200Y-10414000D02*
X8966200Y-10414000D01*
X6934200Y-7886700D02*
X6934200Y-6731000D01*
X7061200Y-10287000D02*
X7061200Y-10414000D01*
X7378700Y-6299200D02*
X8521700Y-6299200D01*
X5156200Y-4343400D02*
G75*
G03*
X5207000Y-4394200I50800J0D01*
G01*
X8839200Y-7886700D02*
X8839200Y-6731000D01*
X8966200Y-6108700D02*
X8966200Y-6248400D01*
X6934200Y-2794000D02*
X7061200Y-2794000D01*
X5346700Y-6426200D02*
X5207000Y-6426200D01*
X6934200Y-9791700D02*
X7061200Y-9791700D01*
X14236700Y-4521200D02*
X13093700Y-4521200D01*
X5156200Y-8153400D02*
G75*
G03*
X5207000Y-8204200I50800J0D01*
G01*
X9156700Y-4394200D02*
X9156700Y-4521200D01*
X12966700Y-6426200D02*
X12827000Y-6426200D01*
X8839200Y-2921000D02*
X8966200Y-2921000D01*
X12966700Y-4394200D02*
X12966700Y-4521200D01*
X10426700Y-8331200D02*
X10426700Y-8204200D01*
X10693400Y-10236200D02*
X10553700Y-10236200D01*
X7378700Y-10236200D02*
X7378700Y-10109200D01*
X12649200Y-6248400D02*
X12649200Y-6108700D01*
X8788400Y-6426200D02*
X8648700Y-6426200D01*
X10922000Y-10236200D02*
G75*
G03*
X10871200Y-10287000I0J-50800D01*
G01*
X12331700Y-4521200D02*
X11188700Y-4521200D01*
X9283700Y-6299200D02*
X10426700Y-6299200D01*
X7061200Y-2921000D02*
X7061200Y-4076700D01*
X12776200Y-9918700D02*
X12776200Y-10058400D01*
X6616700Y-8331200D02*
X6616700Y-8204200D01*
X9017000Y-6299200D02*
X9156700Y-6299200D01*
X13093700Y-10236200D02*
X13093700Y-10109200D01*
X7061200Y-8153400D02*
G75*
G03*
X7112000Y-8204200I50800J0D01*
G01*
X8839200Y-10058400D02*
X8839200Y-9918700D01*
X10871200Y-6108700D02*
X10871200Y-6248400D01*
X12776200Y-11963400D02*
G75*
G03*
X12827000Y-12014200I50800J0D01*
G01*
X12827000Y-8331200D02*
G75*
G03*
X12776200Y-8382000I0J-50800D01*
G01*
X8839200Y-2794000D02*
X8839200Y-2667000D01*
X9017000Y-10109200D02*
X9156700Y-10109200D01*
X8839200Y-6604000D02*
X8839200Y-6477000D01*
X12966700Y-10109200D02*
X12966700Y-10236200D01*
X10693400Y-6426200D02*
X10553700Y-6426200D01*
X12776200Y-4826000D02*
X12776200Y-5981700D01*
X11188700Y-10109200D02*
X12331700Y-10109200D01*
X10744200Y-8153400D02*
X10744200Y-8013700D01*
X8966200Y-6477000D02*
X8966200Y-6604000D01*
X14503400Y-2616200D02*
X12827000Y-2616200D01*
X7112000Y-10109200D02*
X7251700Y-10109200D01*
X6616700Y-4521200D02*
X6616700Y-4394200D01*
X5207000Y-8204200D02*
X5346700Y-8204200D01*
X6934200Y-8153400D02*
X6934200Y-8013700D01*
X8839200Y-9791700D02*
X8839200Y-8636000D01*
X8521700Y-8331200D02*
X8521700Y-8204200D01*
X5207000Y-8331200D02*
G75*
G03*
X5156200Y-8382000I0J-50800D01*
G01*
X12649200Y-6477000D02*
G75*
G03*
X12598400Y-6426200I-50800J0D01*
G01*
X11061700Y-8331200D02*
X10922000Y-8331200D01*
X6934200Y-10287000D02*
G75*
G03*
X6883400Y-10236200I-50800J0D01*
G01*
X14554200Y-6477000D02*
G75*
G03*
X14503400Y-6426200I-50800J0D01*
G01*
X12331700Y-8331200D02*
X12331700Y-8204200D01*
X10871200Y-4572000D02*
X10871200Y-4699000D01*
X8788400Y-8204200D02*
G75*
G03*
X8839200Y-8153400I0J50800D01*
G01*
X7061200Y-10541000D02*
X7061200Y-11696700D01*
X10744200Y-8382000D02*
G75*
G03*
X10693400Y-8331200I-50800J0D01*
G01*
X12827000Y-12014200D02*
X14503400Y-12014200D01*
X11061700Y-8204200D02*
X11061700Y-8331200D01*
X7251700Y-8204200D02*
X7251700Y-8331200D01*
X7112000Y-4394200D02*
X7251700Y-4394200D01*
X10871200Y-4343400D02*
G75*
G03*
X10922000Y-4394200I50800J0D01*
G01*
X8966200Y-4826000D02*
X8966200Y-5981700D01*
X12827000Y-8204200D02*
X12966700Y-8204200D01*
X10744200Y-11696700D02*
X10744200Y-10541000D01*
X10744200Y-10058400D02*
X10744200Y-9918700D01*
X7251700Y-4394200D02*
X7251700Y-4521200D01*
X12776200Y-2667000D02*
X12776200Y-2794000D01*
X6616700Y-10236200D02*
X6616700Y-10109200D01*
X9283700Y-8204200D02*
X10426700Y-8204200D01*
X8966200Y-10058400D02*
G75*
G03*
X9017000Y-10109200I50800J0D01*
G01*
X10922000Y-6426200D02*
G75*
G03*
X10871200Y-6477000I0J-50800D01*
G01*
X11061700Y-4521200D02*
X10922000Y-4521200D01*
X8839200Y-4699000D02*
X8966200Y-4699000D01*
X8839200Y-5981700D02*
X8966200Y-5981700D01*
X12649200Y-4699000D02*
X12776200Y-4699000D01*
X8521700Y-4521200D02*
X8521700Y-4394200D01*
X8839200Y-4076700D02*
X8839200Y-2921000D01*
X12649200Y-4699000D02*
X12649200Y-4572000D01*
X10871200Y-6248400D02*
G75*
G03*
X10922000Y-6299200I50800J0D01*
G01*
X9156700Y-8331200D02*
X9017000Y-8331200D01*
X10426700Y-10236200D02*
X10426700Y-10109200D01*
X5207000Y-4521200D02*
G75*
G03*
X5156200Y-4572000I0J-50800D01*
G01*
X5473700Y-10109200D02*
X6616700Y-10109200D01*
X8839200Y-8013700D02*
X8966200Y-8013700D01*
X10744200Y-4076700D02*
X10744200Y-2921000D01*
X10426700Y-6426200D02*
X10426700Y-6299200D01*
X10744200Y-9791700D02*
X10744200Y-8636000D01*
X12649200Y-8509000D02*
X12649200Y-8382000D01*
X14363700Y-10109200D02*
X14503400Y-10109200D01*
X12776200Y-10541000D02*
X12776200Y-11696700D01*
X10426700Y-4521200D02*
X10426700Y-4394200D01*
X5207000Y-4394200D02*
X5346700Y-4394200D01*
X12649200Y-5981700D02*
X12649200Y-4826000D01*
X6743700Y-10109200D02*
X6743700Y-10236200D01*
X6934200Y-6248400D02*
X6934200Y-6108700D01*
X6934200Y-2667000D02*
G75*
G03*
X6883400Y-2616200I-50800J0D01*
G01*
X8839200Y-7886700D02*
X8966200Y-7886700D01*
X5156200Y-10287000D02*
X5156200Y-11963400D01*
X12649200Y-6604000D02*
X12649200Y-6477000D01*
X8839200Y-10541000D02*
X8966200Y-10541000D01*
X12331700Y-10236200D02*
X12331700Y-10109200D01*
X7061200Y-11823700D02*
X7061200Y-11963400D01*
X9156700Y-6426200D02*
X9017000Y-6426200D01*
X11188700Y-10236200D02*
X11188700Y-10109200D01*
X10871200Y-8382000D02*
X10871200Y-8509000D01*
X10693400Y-10109200D02*
G75*
G03*
X10744200Y-10058400I0J50800D01*
G01*
X12776200Y-4343400D02*
G75*
G03*
X12827000Y-4394200I50800J0D01*
G01*
X8839200Y-11963400D02*
X8839200Y-11823700D01*
X9017000Y-2616200D02*
G75*
G03*
X8966200Y-2667000I0J-50800D01*
G01*
X12649200Y-2794000D02*
X12649200Y-2667000D01*
X5156200Y-8382000D02*
X5156200Y-10058400D01*
X10553700Y-6299200D02*
X10553700Y-6426200D01*
X10553700Y-8204200D02*
X10553700Y-8331200D01*
X12776200Y-8382000D02*
X12776200Y-8509000D01*
X14554200Y-2667000D02*
G75*
G03*
X14503400Y-2616200I-50800J0D01*
G01*
X12827000Y-4394200D02*
X12966700Y-4394200D01*
X12331700Y-6426200D02*
X12331700Y-6299200D01*
X10744200Y-6108700D02*
X10871200Y-6108700D01*
X8839200Y-6731000D02*
X8966200Y-6731000D01*
X12649200Y-9918700D02*
X12776200Y-9918700D01*
X12776200Y-8636000D02*
X12776200Y-9791700D01*
X12966700Y-4521200D02*
X12827000Y-4521200D01*
X7112000Y-4521200D02*
G75*
G03*
X7061200Y-4572000I0J-50800D01*
G01*
X8521700Y-10236200D02*
X8521700Y-10109200D01*
X10922000Y-12014200D02*
X12598400Y-12014200D01*
X12598400Y-10236200D02*
X12458700Y-10236200D01*
X11188700Y-6426200D02*
X11188700Y-6299200D01*
X5346700Y-8331200D02*
X5207000Y-8331200D01*
X8839200Y-8636000D02*
X8966200Y-8636000D01*
X12776200Y-4203700D02*
X12776200Y-4343400D01*
X8521700Y-10236200D02*
X7378700Y-10236200D01*
X12966700Y-8204200D02*
X12966700Y-8331200D01*
X12598400Y-12014200D02*
G75*
G03*
X12649200Y-11963400I0J50800D01*
G01*
X8788400Y-10236200D02*
X8648700Y-10236200D01*
X8966200Y-4203700D02*
X8966200Y-4343400D01*
X7061200Y-8013700D02*
X7061200Y-8153400D01*
X6934200Y-10541000D02*
X7061200Y-10541000D01*
X8648700Y-10109200D02*
X8788400Y-10109200D01*
X6934200Y-8509000D02*
X6934200Y-8382000D01*
X10922000Y-8331200D02*
G75*
G03*
X10871200Y-8382000I0J-50800D01*
G01*
X10744200Y-5981700D02*
X10871200Y-5981700D01*
X8966200Y-8636000D02*
X8966200Y-9791700D01*
X13093700Y-4394200D02*
X14236700Y-4394200D01*
X10693400Y-4394200D02*
G75*
G03*
X10744200Y-4343400I0J50800D01*
G01*
X11061700Y-10236200D02*
X10922000Y-10236200D01*
X10426700Y-4521200D02*
X9283700Y-4521200D01*
X7112000Y-8204200D02*
X7251700Y-8204200D01*
X8966200Y-11823700D02*
X8966200Y-11963400D01*
X7112000Y-6426200D02*
G75*
G03*
X7061200Y-6477000I0J-50800D01*
G01*
X6743700Y-8204200D02*
X6743700Y-8331200D01*
X8521700Y-6426200D02*
X8521700Y-6299200D01*
X5346700Y-6299200D02*
X5346700Y-6426200D01*
X12776200Y-6477000D02*
X12776200Y-6604000D01*
X7378700Y-10109200D02*
X8521700Y-10109200D01*
X8839200Y-4826000D02*
X8966200Y-4826000D01*
X8788400Y-2616200D02*
X7112000Y-2616200D01*
X12649200Y-10058400D02*
X12649200Y-9918700D01*
X12776200Y-6248400D02*
G75*
G03*
X12827000Y-6299200I50800J0D01*
G01*
X12649200Y-6108700D02*
X12776200Y-6108700D01*
X14554200Y-11963400D02*
X14554200Y-10287000D01*
X12458700Y-10109200D02*
X12458700Y-10236200D01*
X14554200Y-10058400D02*
X14554200Y-8382000D01*
X5156200Y-10058400D02*
G75*
G03*
X5207000Y-10109200I50800J0D01*
G01*
X14363700Y-4394200D02*
X14503400Y-4394200D01*
X7061200Y-9918700D02*
X7061200Y-10058400D01*
X6743700Y-4394200D02*
X6743700Y-4521200D01*
X10744200Y-8013700D02*
X10871200Y-8013700D01*
X8966200Y-4343400D02*
G75*
G03*
X9017000Y-4394200I50800J0D01*
G01*
X6934200Y-8382000D02*
G75*
G03*
X6883400Y-8331200I-50800J0D01*
G01*
X9283700Y-4521200D02*
X9283700Y-4394200D01*
X14236700Y-8331200D02*
X13093700Y-8331200D01*
X10426700Y-6426200D02*
X9283700Y-6426200D01*
X10744200Y-4076700D02*
X10871200Y-4076700D01*
X6934200Y-10414000D02*
X6934200Y-10287000D01*
X14503400Y-4394200D02*
G75*
G03*
X14554200Y-4343400I0J50800D01*
G01*
X12458700Y-10109200D02*
X12598400Y-10109200D01*
X5207000Y-2616200D02*
G75*
G03*
X5156200Y-2667000I0J-50800D01*
G01*
X12649200Y-5981700D02*
X12776200Y-5981700D01*
X5207000Y-6299200D02*
X5346700Y-6299200D01*
X8839200Y-10414000D02*
X8839200Y-10287000D01*
X14236700Y-8331200D02*
X14236700Y-8204200D01*
X13093700Y-10109200D02*
X14236700Y-10109200D01*
X9017000Y-12014200D02*
X10693400Y-12014200D01*
X10744200Y-4699000D02*
X10871200Y-4699000D01*
X6934200Y-11823700D02*
X7061200Y-11823700D01*
X8648700Y-8204200D02*
X8788400Y-8204200D01*
X13093700Y-6299200D02*
X14236700Y-6299200D01*
X10693400Y-6299200D02*
G75*
G03*
X10744200Y-6248400I0J50800D01*
G01*
X6934200Y-9918700D02*
X7061200Y-9918700D01*
X8839200Y-2794000D02*
X8966200Y-2794000D01*
X5207000Y-12014200D02*
X6883400Y-12014200D01*
X9017000Y-6426200D02*
G75*
G03*
X8966200Y-6477000I0J-50800D01*
G01*
X12331700Y-6426200D02*
X11188700Y-6426200D01*
X6743700Y-6299200D02*
X6743700Y-6426200D01*
X7251700Y-6299200D02*
X7251700Y-6426200D01*
X10871200Y-11963400D02*
G75*
G03*
X10922000Y-12014200I50800J0D01*
G01*
X14236700Y-4521200D02*
X14236700Y-4394200D01*
X6616700Y-6426200D02*
X6616700Y-6299200D01*
X9156700Y-4521200D02*
X9017000Y-4521200D01*
X10922000Y-10109200D02*
X11061700Y-10109200D01*
X12331700Y-4521200D02*
X12331700Y-4394200D01*
X9156700Y-10236200D02*
X9017000Y-10236200D01*
X11188700Y-4394200D02*
X12331700Y-4394200D01*
X6934200Y-11696700D02*
X6934200Y-10541000D01*
X8839200Y-8509000D02*
X8839200Y-8382000D01*
X7378700Y-8331200D02*
X7378700Y-8204200D01*
X5473700Y-4394200D02*
X6616700Y-4394200D01*
X10744200Y-2794000D02*
X10871200Y-2794000D01*
X7251700Y-6426200D02*
X7112000Y-6426200D01*
X10871200Y-4203700D02*
X10871200Y-4343400D01*
X10553700Y-10109200D02*
X10553700Y-10236200D01*
X12598400Y-10109200D02*
G75*
G03*
X12649200Y-10058400I0J50800D01*
G01*
X10553700Y-6299200D02*
X10693400Y-6299200D01*
X14554200Y-4343400D02*
X14554200Y-2667000D01*
X8839200Y-6248400D02*
X8839200Y-6108700D01*
X6934200Y-4699000D02*
X7061200Y-4699000D01*
X6883400Y-12014200D02*
G75*
G03*
X6934200Y-11963400I0J50800D01*
G01*
X10744200Y-5981700D02*
X10744200Y-4826000D01*
X10744200Y-8509000D02*
X10744200Y-8382000D01*
X8521700Y-8331200D02*
X7378700Y-8331200D01*
X10922000Y-6299200D02*
X11061700Y-6299200D01*
X14363700Y-8204200D02*
X14503400Y-8204200D01*
X14363700Y-6299200D02*
X14503400Y-6299200D01*
X6934200Y-2921000D02*
X7061200Y-2921000D01*
X8788400Y-10109200D02*
G75*
G03*
X8839200Y-10058400I0J50800D01*
G01*
X10871200Y-6477000D02*
X10871200Y-6604000D01*
X12827000Y-10236200D02*
G75*
G03*
X12776200Y-10287000I0J-50800D01*
G01*
X8839200Y-9791700D02*
X8966200Y-9791700D01*
X12776200Y-6108700D02*
X12776200Y-6248400D01*
X6934200Y-9791700D02*
X6934200Y-8636000D01*
X12827000Y-10109200D02*
X12966700Y-10109200D01*
X6934200Y-6477000D02*
G75*
G03*
X6883400Y-6426200I-50800J0D01*
G01*
X8521700Y-4521200D02*
X7378700Y-4521200D01*
X12458700Y-8204200D02*
X12458700Y-8331200D01*
X6934200Y-11696700D02*
X7061200Y-11696700D01*
X8966200Y-8153400D02*
G75*
G03*
X9017000Y-8204200I50800J0D01*
G01*
X12776200Y-2921000D02*
X12776200Y-4076700D01*
X6616700Y-10236200D02*
X5473700Y-10236200D01*
D11*
D12*
X5250500Y-4031300D02*
X5290500Y-4071300D01*
X5290500Y-4031300D02*
X5250500Y-4071300D01*
X5250500Y-5936300D02*
X5290500Y-5976300D01*
X5290500Y-5936300D02*
X5250500Y-5976300D01*
X5250500Y-7841300D02*
X5290500Y-7881300D01*
X5290500Y-7841300D02*
X5250500Y-7881300D01*
X5250500Y-9746300D02*
X5290500Y-9786300D01*
X5290500Y-9746300D02*
X5250500Y-9786300D01*
X5250500Y-11651300D02*
X5290500Y-11691300D01*
X5290500Y-11651300D02*
X5250500Y-11691300D01*
X5656900Y-3345500D02*
X5696900Y-3385500D01*
X5696900Y-3345500D02*
X5656900Y-3385500D01*
X5656900Y-5250500D02*
X5696900Y-5290500D01*
X5696900Y-5250500D02*
X5656900Y-5290500D01*
X5656900Y-7155500D02*
X5696900Y-7195500D01*
X5696900Y-7155500D02*
X5656900Y-7195500D01*
X5656900Y-9060500D02*
X5696900Y-9100500D01*
X5696900Y-9060500D02*
X5656900Y-9100500D01*
X5656900Y-10965500D02*
X5696900Y-11005500D01*
X5696900Y-10965500D02*
X5656900Y-11005500D01*
X5775200Y-2940648D02*
X5815200Y-2980648D01*
X5815200Y-2940648D02*
X5775200Y-2980648D01*
X5775200Y-3091500D02*
X5815200Y-3131500D01*
X5815200Y-3091500D02*
X5775200Y-3131500D01*
X5775200Y-4845648D02*
X5815200Y-4885648D01*
X5815200Y-4845648D02*
X5775200Y-4885648D01*
X5775200Y-4996500D02*
X5815200Y-5036500D01*
X5815200Y-4996500D02*
X5775200Y-5036500D01*
X5775200Y-6750648D02*
X5815200Y-6790648D01*
X5815200Y-6750648D02*
X5775200Y-6790648D01*
X5775200Y-6901500D02*
X5815200Y-6941500D01*
X5815200Y-6901500D02*
X5775200Y-6941500D01*
X5775200Y-8655648D02*
X5815200Y-8695648D01*
X5815200Y-8655648D02*
X5775200Y-8695648D01*
X5775200Y-8806500D02*
X5815200Y-8846500D01*
X5815200Y-8806500D02*
X5775200Y-8846500D01*
X5775200Y-10560648D02*
X5815200Y-10600648D01*
X5815200Y-10560648D02*
X5775200Y-10600648D01*
X5775200Y-10711500D02*
X5815200Y-10751500D01*
X5815200Y-10711500D02*
X5775200Y-10751500D01*
X6275200Y-2939100D02*
X6315200Y-2979100D01*
X6315200Y-2939100D02*
X6275200Y-2979100D01*
X6275200Y-3091500D02*
X6315200Y-3131500D01*
X6315200Y-3091500D02*
X6275200Y-3131500D01*
X6275200Y-4844100D02*
X6315200Y-4884100D01*
X6315200Y-4844100D02*
X6275200Y-4884100D01*
X6275200Y-4996500D02*
X6315200Y-5036500D01*
X6315200Y-4996500D02*
X6275200Y-5036500D01*
X6275200Y-6749100D02*
X6315200Y-6789100D01*
X6315200Y-6749100D02*
X6275200Y-6789100D01*
X6275200Y-6901500D02*
X6315200Y-6941500D01*
X6315200Y-6901500D02*
X6275200Y-6941500D01*
X6275200Y-8654100D02*
X6315200Y-8694100D01*
X6315200Y-8654100D02*
X6275200Y-8694100D01*
X6275200Y-8806500D02*
X6315200Y-8846500D01*
X6315200Y-8806500D02*
X6275200Y-8846500D01*
X6275200Y-10559100D02*
X6315200Y-10599100D01*
X6315200Y-10559100D02*
X6275200Y-10599100D01*
X6275200Y-10711500D02*
X6315200Y-10751500D01*
X6315200Y-10711500D02*
X6275200Y-10751500D01*
X6342700Y-3320100D02*
X6382700Y-3360100D01*
X6382700Y-3320100D02*
X6342700Y-3360100D01*
X6342700Y-5225100D02*
X6382700Y-5265100D01*
X6382700Y-5225100D02*
X6342700Y-5265100D01*
X6342700Y-7130100D02*
X6382700Y-7170100D01*
X6382700Y-7130100D02*
X6342700Y-7170100D01*
X6342700Y-9035100D02*
X6382700Y-9075100D01*
X6382700Y-9035100D02*
X6342700Y-9075100D01*
X6342700Y-10940100D02*
X6382700Y-10980100D01*
X6382700Y-10940100D02*
X6342700Y-10980100D01*
X6444300Y-4069400D02*
X6484300Y-4109400D01*
X6484300Y-4069400D02*
X6444300Y-4109400D01*
X6444300Y-5974400D02*
X6484300Y-6014400D01*
X6484300Y-5974400D02*
X6444300Y-6014400D01*
X6444300Y-7879400D02*
X6484300Y-7919400D01*
X6484300Y-7879400D02*
X6444300Y-7919400D01*
X6444300Y-9784400D02*
X6484300Y-9824400D01*
X6484300Y-9784400D02*
X6444300Y-9824400D01*
X6444300Y-11689400D02*
X6484300Y-11729400D01*
X6484300Y-11689400D02*
X6444300Y-11729400D01*
X6584000Y-3015300D02*
X6624000Y-3055300D01*
X6624000Y-3015300D02*
X6584000Y-3055300D01*
X6584000Y-4920300D02*
X6624000Y-4960300D01*
X6624000Y-4920300D02*
X6584000Y-4960300D01*
X6584000Y-6825300D02*
X6624000Y-6865300D01*
X6624000Y-6825300D02*
X6584000Y-6865300D01*
X6584000Y-8730300D02*
X6624000Y-8770300D01*
X6624000Y-8730300D02*
X6584000Y-8770300D01*
X6584000Y-10635300D02*
X6624000Y-10675300D01*
X6624000Y-10635300D02*
X6584000Y-10675300D01*
X6685600Y-3904300D02*
X6725600Y-3944300D01*
X6725600Y-3904300D02*
X6685600Y-3944300D01*
X6685600Y-5809300D02*
X6725600Y-5849300D01*
X6725600Y-5809300D02*
X6685600Y-5849300D01*
X6685600Y-7714300D02*
X6725600Y-7754300D01*
X6725600Y-7714300D02*
X6685600Y-7754300D01*
X6685600Y-9619300D02*
X6725600Y-9659300D01*
X6725600Y-9619300D02*
X6685600Y-9659300D01*
X6685600Y-11524300D02*
X6725600Y-11564300D01*
X6725600Y-11524300D02*
X6685600Y-11564300D01*
X6812600Y-2837500D02*
X6852600Y-2877500D01*
X6852600Y-2837500D02*
X6812600Y-2877500D01*
X6812600Y-4742500D02*
X6852600Y-4782500D01*
X6852600Y-4742500D02*
X6812600Y-4782500D01*
X6812600Y-6647500D02*
X6852600Y-6687500D01*
X6852600Y-6647500D02*
X6812600Y-6687500D01*
X6812600Y-8552500D02*
X6852600Y-8592500D01*
X6852600Y-8552500D02*
X6812600Y-8592500D01*
X6812600Y-10457500D02*
X6852600Y-10497500D01*
X6852600Y-10457500D02*
X6812600Y-10497500D01*
X7155500Y-4031300D02*
X7195500Y-4071300D01*
X7195500Y-4031300D02*
X7155500Y-4071300D01*
X7155500Y-5936300D02*
X7195500Y-5976300D01*
X7195500Y-5936300D02*
X7155500Y-5976300D01*
X7155500Y-7841300D02*
X7195500Y-7881300D01*
X7195500Y-7841300D02*
X7155500Y-7881300D01*
X7155500Y-9746300D02*
X7195500Y-9786300D01*
X7195500Y-9746300D02*
X7155500Y-9786300D01*
X7155500Y-11651300D02*
X7195500Y-11691300D01*
X7195500Y-11651300D02*
X7155500Y-11691300D01*
X7561900Y-3345500D02*
X7601900Y-3385500D01*
X7601900Y-3345500D02*
X7561900Y-3385500D01*
X7561900Y-5250500D02*
X7601900Y-5290500D01*
X7601900Y-5250500D02*
X7561900Y-5290500D01*
X7561900Y-7155500D02*
X7601900Y-7195500D01*
X7601900Y-7155500D02*
X7561900Y-7195500D01*
X7561900Y-9060500D02*
X7601900Y-9100500D01*
X7601900Y-9060500D02*
X7561900Y-9100500D01*
X7561900Y-10965500D02*
X7601900Y-11005500D01*
X7601900Y-10965500D02*
X7561900Y-11005500D01*
X7680200Y-2940648D02*
X7720200Y-2980648D01*
X7720200Y-2940648D02*
X7680200Y-2980648D01*
X7680200Y-3091500D02*
X7720200Y-3131500D01*
X7720200Y-3091500D02*
X7680200Y-3131500D01*
X7680200Y-4845648D02*
X7720200Y-4885648D01*
X7720200Y-4845648D02*
X7680200Y-4885648D01*
X7680200Y-4996500D02*
X7720200Y-5036500D01*
X7720200Y-4996500D02*
X7680200Y-5036500D01*
X7680200Y-6750648D02*
X7720200Y-6790648D01*
X7720200Y-6750648D02*
X7680200Y-6790648D01*
X7680200Y-6901500D02*
X7720200Y-6941500D01*
X7720200Y-6901500D02*
X7680200Y-6941500D01*
X7680200Y-8655648D02*
X7720200Y-8695648D01*
X7720200Y-8655648D02*
X7680200Y-8695648D01*
X7680200Y-8806500D02*
X7720200Y-8846500D01*
X7720200Y-8806500D02*
X7680200Y-8846500D01*
X7680200Y-10560648D02*
X7720200Y-10600648D01*
X7720200Y-10560648D02*
X7680200Y-10600648D01*
X7680200Y-10711500D02*
X7720200Y-10751500D01*
X7720200Y-10711500D02*
X7680200Y-10751500D01*
X8180200Y-2939100D02*
X8220200Y-2979100D01*
X8220200Y-2939100D02*
X8180200Y-2979100D01*
X8180200Y-3091500D02*
X8220200Y-3131500D01*
X8220200Y-3091500D02*
X8180200Y-3131500D01*
X8180200Y-4844100D02*
X8220200Y-4884100D01*
X8220200Y-4844100D02*
X8180200Y-4884100D01*
X8180200Y-4996500D02*
X8220200Y-5036500D01*
X8220200Y-4996500D02*
X8180200Y-5036500D01*
X8180200Y-6749100D02*
X8220200Y-6789100D01*
X8220200Y-6749100D02*
X8180200Y-6789100D01*
X8180200Y-6901500D02*
X8220200Y-6941500D01*
X8220200Y-6901500D02*
X8180200Y-6941500D01*
X8180200Y-8654100D02*
X8220200Y-8694100D01*
X8220200Y-8654100D02*
X8180200Y-8694100D01*
X8180200Y-8806500D02*
X8220200Y-8846500D01*
X8220200Y-8806500D02*
X8180200Y-8846500D01*
X8180200Y-10559100D02*
X8220200Y-10599100D01*
X8220200Y-10559100D02*
X8180200Y-10599100D01*
X8180200Y-10711500D02*
X8220200Y-10751500D01*
X8220200Y-10711500D02*
X8180200Y-10751500D01*
X8247700Y-3320100D02*
X8287700Y-3360100D01*
X8287700Y-3320100D02*
X8247700Y-3360100D01*
X8247700Y-5225100D02*
X8287700Y-5265100D01*
X8287700Y-5225100D02*
X8247700Y-5265100D01*
X8247700Y-7130100D02*
X8287700Y-7170100D01*
X8287700Y-7130100D02*
X8247700Y-7170100D01*
X8247700Y-9035100D02*
X8287700Y-9075100D01*
X8287700Y-9035100D02*
X8247700Y-9075100D01*
X8247700Y-10940100D02*
X8287700Y-10980100D01*
X8287700Y-10940100D02*
X8247700Y-10980100D01*
X8349300Y-4069400D02*
X8389300Y-4109400D01*
X8389300Y-4069400D02*
X8349300Y-4109400D01*
X8349300Y-5974400D02*
X8389300Y-6014400D01*
X8389300Y-5974400D02*
X8349300Y-6014400D01*
X8349300Y-7879400D02*
X8389300Y-7919400D01*
X8389300Y-7879400D02*
X8349300Y-7919400D01*
X8349300Y-9784400D02*
X8389300Y-9824400D01*
X8389300Y-9784400D02*
X8349300Y-9824400D01*
X8349300Y-11689400D02*
X8389300Y-11729400D01*
X8389300Y-11689400D02*
X8349300Y-11729400D01*
X8489000Y-3015300D02*
X8529000Y-3055300D01*
X8529000Y-3015300D02*
X8489000Y-3055300D01*
X8489000Y-4920300D02*
X8529000Y-4960300D01*
X8529000Y-4920300D02*
X8489000Y-4960300D01*
X8489000Y-6825300D02*
X8529000Y-6865300D01*
X8529000Y-6825300D02*
X8489000Y-6865300D01*
X8489000Y-8730300D02*
X8529000Y-8770300D01*
X8529000Y-8730300D02*
X8489000Y-8770300D01*
X8489000Y-10635300D02*
X8529000Y-10675300D01*
X8529000Y-10635300D02*
X8489000Y-10675300D01*
X8590600Y-3904300D02*
X8630600Y-3944300D01*
X8630600Y-3904300D02*
X8590600Y-3944300D01*
X8590600Y-5809300D02*
X8630600Y-5849300D01*
X8630600Y-5809300D02*
X8590600Y-5849300D01*
X8590600Y-7714300D02*
X8630600Y-7754300D01*
X8630600Y-7714300D02*
X8590600Y-7754300D01*
X8590600Y-9619300D02*
X8630600Y-9659300D01*
X8630600Y-9619300D02*
X8590600Y-9659300D01*
X8590600Y-11524300D02*
X8630600Y-11564300D01*
X8630600Y-11524300D02*
X8590600Y-11564300D01*
X8717600Y-2837500D02*
X8757600Y-2877500D01*
X8757600Y-2837500D02*
X8717600Y-2877500D01*
X8717600Y-4742500D02*
X8757600Y-4782500D01*
X8757600Y-4742500D02*
X8717600Y-4782500D01*
X8717600Y-6647500D02*
X8757600Y-6687500D01*
X8757600Y-6647500D02*
X8717600Y-6687500D01*
X8717600Y-8552500D02*
X8757600Y-8592500D01*
X8757600Y-8552500D02*
X8717600Y-8592500D01*
X8717600Y-10457500D02*
X8757600Y-10497500D01*
X8757600Y-10457500D02*
X8717600Y-10497500D01*
X9060500Y-4031300D02*
X9100500Y-4071300D01*
X9100500Y-4031300D02*
X9060500Y-4071300D01*
X9060500Y-5936300D02*
X9100500Y-5976300D01*
X9100500Y-5936300D02*
X9060500Y-5976300D01*
X9060500Y-7841300D02*
X9100500Y-7881300D01*
X9100500Y-7841300D02*
X9060500Y-7881300D01*
X9060500Y-9746300D02*
X9100500Y-9786300D01*
X9100500Y-9746300D02*
X9060500Y-9786300D01*
X9060500Y-11651300D02*
X9100500Y-11691300D01*
X9100500Y-11651300D02*
X9060500Y-11691300D01*
X9466900Y-3345500D02*
X9506900Y-3385500D01*
X9506900Y-3345500D02*
X9466900Y-3385500D01*
X9466900Y-5250500D02*
X9506900Y-5290500D01*
X9506900Y-5250500D02*
X9466900Y-5290500D01*
X9466900Y-7155500D02*
X9506900Y-7195500D01*
X9506900Y-7155500D02*
X9466900Y-7195500D01*
X9466900Y-9060500D02*
X9506900Y-9100500D01*
X9506900Y-9060500D02*
X9466900Y-9100500D01*
X9466900Y-10965500D02*
X9506900Y-11005500D01*
X9506900Y-10965500D02*
X9466900Y-11005500D01*
X9585200Y-2940648D02*
X9625200Y-2980648D01*
X9625200Y-2940648D02*
X9585200Y-2980648D01*
X9585200Y-3091500D02*
X9625200Y-3131500D01*
X9625200Y-3091500D02*
X9585200Y-3131500D01*
X9585200Y-4845648D02*
X9625200Y-4885648D01*
X9625200Y-4845648D02*
X9585200Y-4885648D01*
X9585200Y-4996500D02*
X9625200Y-5036500D01*
X9625200Y-4996500D02*
X9585200Y-5036500D01*
X9585200Y-6750648D02*
X9625200Y-6790648D01*
X9625200Y-6750648D02*
X9585200Y-6790648D01*
X9585200Y-6901500D02*
X9625200Y-6941500D01*
X9625200Y-6901500D02*
X9585200Y-6941500D01*
X9585200Y-8655648D02*
X9625200Y-8695648D01*
X9625200Y-8655648D02*
X9585200Y-8695648D01*
X9585200Y-8806500D02*
X9625200Y-8846500D01*
X9625200Y-8806500D02*
X9585200Y-8846500D01*
X9585200Y-10560648D02*
X9625200Y-10600648D01*
X9625200Y-10560648D02*
X9585200Y-10600648D01*
X9585200Y-10711500D02*
X9625200Y-10751500D01*
X9625200Y-10711500D02*
X9585200Y-10751500D01*
X10085200Y-2939100D02*
X10125200Y-2979100D01*
X10125200Y-2939100D02*
X10085200Y-2979100D01*
X10085200Y-3091500D02*
X10125200Y-3131500D01*
X10125200Y-3091500D02*
X10085200Y-3131500D01*
X10085200Y-4844100D02*
X10125200Y-4884100D01*
X10125200Y-4844100D02*
X10085200Y-4884100D01*
X10085200Y-4996500D02*
X10125200Y-5036500D01*
X10125200Y-4996500D02*
X10085200Y-5036500D01*
X10085200Y-6749100D02*
X10125200Y-6789100D01*
X10125200Y-6749100D02*
X10085200Y-6789100D01*
X10085200Y-6901500D02*
X10125200Y-6941500D01*
X10125200Y-6901500D02*
X10085200Y-6941500D01*
X10085200Y-8654100D02*
X10125200Y-8694100D01*
X10125200Y-8654100D02*
X10085200Y-8694100D01*
X10085200Y-8806500D02*
X10125200Y-8846500D01*
X10125200Y-8806500D02*
X10085200Y-8846500D01*
X10085200Y-10559100D02*
X10125200Y-10599100D01*
X10125200Y-10559100D02*
X10085200Y-10599100D01*
X10085200Y-10711500D02*
X10125200Y-10751500D01*
X10125200Y-10711500D02*
X10085200Y-10751500D01*
X10152700Y-3320100D02*
X10192700Y-3360100D01*
X10192700Y-3320100D02*
X10152700Y-3360100D01*
X10152700Y-5225100D02*
X10192700Y-5265100D01*
X10192700Y-5225100D02*
X10152700Y-5265100D01*
X10152700Y-7130100D02*
X10192700Y-7170100D01*
X10192700Y-7130100D02*
X10152700Y-7170100D01*
X10152700Y-9035100D02*
X10192700Y-9075100D01*
X10192700Y-9035100D02*
X10152700Y-9075100D01*
X10152700Y-10940100D02*
X10192700Y-10980100D01*
X10192700Y-10940100D02*
X10152700Y-10980100D01*
X10254300Y-4069400D02*
X10294300Y-4109400D01*
X10294300Y-4069400D02*
X10254300Y-4109400D01*
X10254300Y-5974400D02*
X10294300Y-6014400D01*
X10294300Y-5974400D02*
X10254300Y-6014400D01*
X10254300Y-7879400D02*
X10294300Y-7919400D01*
X10294300Y-7879400D02*
X10254300Y-7919400D01*
X10254300Y-9784400D02*
X10294300Y-9824400D01*
X10294300Y-9784400D02*
X10254300Y-9824400D01*
X10254300Y-11689400D02*
X10294300Y-11729400D01*
X10294300Y-11689400D02*
X10254300Y-11729400D01*
X10394000Y-3015300D02*
X10434000Y-3055300D01*
X10434000Y-3015300D02*
X10394000Y-3055300D01*
X10394000Y-4920300D02*
X10434000Y-4960300D01*
X10434000Y-4920300D02*
X10394000Y-4960300D01*
X10394000Y-6825300D02*
X10434000Y-6865300D01*
X10434000Y-6825300D02*
X10394000Y-6865300D01*
X10394000Y-8730300D02*
X10434000Y-8770300D01*
X10434000Y-8730300D02*
X10394000Y-8770300D01*
X10394000Y-10635300D02*
X10434000Y-10675300D01*
X10434000Y-10635300D02*
X10394000Y-10675300D01*
X10495600Y-3904300D02*
X10535600Y-3944300D01*
X10535600Y-3904300D02*
X10495600Y-3944300D01*
X10495600Y-5809300D02*
X10535600Y-5849300D01*
X10535600Y-5809300D02*
X10495600Y-5849300D01*
X10495600Y-7714300D02*
X10535600Y-7754300D01*
X10535600Y-7714300D02*
X10495600Y-7754300D01*
X10495600Y-9619300D02*
X10535600Y-9659300D01*
X10535600Y-9619300D02*
X10495600Y-9659300D01*
X10495600Y-11524300D02*
X10535600Y-11564300D01*
X10535600Y-11524300D02*
X10495600Y-11564300D01*
X10622600Y-2837500D02*
X10662600Y-2877500D01*
X10662600Y-2837500D02*
X10622600Y-2877500D01*
X10622600Y-4742500D02*
X10662600Y-4782500D01*
X10662600Y-4742500D02*
X10622600Y-4782500D01*
X10622600Y-6647500D02*
X10662600Y-6687500D01*
X10662600Y-6647500D02*
X10622600Y-6687500D01*
X10622600Y-8552500D02*
X10662600Y-8592500D01*
X10662600Y-8552500D02*
X10622600Y-8592500D01*
X10622600Y-10457500D02*
X10662600Y-10497500D01*
X10662600Y-10457500D02*
X10622600Y-10497500D01*
X10965500Y-4031300D02*
X11005500Y-4071300D01*
X11005500Y-4031300D02*
X10965500Y-4071300D01*
X10965500Y-5936300D02*
X11005500Y-5976300D01*
X11005500Y-5936300D02*
X10965500Y-5976300D01*
X10965500Y-7841300D02*
X11005500Y-7881300D01*
X11005500Y-7841300D02*
X10965500Y-7881300D01*
X10965500Y-9746300D02*
X11005500Y-9786300D01*
X11005500Y-9746300D02*
X10965500Y-9786300D01*
X10965500Y-11651300D02*
X11005500Y-11691300D01*
X11005500Y-11651300D02*
X10965500Y-11691300D01*
X11371900Y-3345500D02*
X11411900Y-3385500D01*
X11411900Y-3345500D02*
X11371900Y-3385500D01*
X11371900Y-5250500D02*
X11411900Y-5290500D01*
X11411900Y-5250500D02*
X11371900Y-5290500D01*
X11371900Y-7155500D02*
X11411900Y-7195500D01*
X11411900Y-7155500D02*
X11371900Y-7195500D01*
X11371900Y-9060500D02*
X11411900Y-9100500D01*
X11411900Y-9060500D02*
X11371900Y-9100500D01*
X11371900Y-10965500D02*
X11411900Y-11005500D01*
X11411900Y-10965500D02*
X11371900Y-11005500D01*
X11490200Y-2940648D02*
X11530200Y-2980648D01*
X11530200Y-2940648D02*
X11490200Y-2980648D01*
X11490200Y-3091500D02*
X11530200Y-3131500D01*
X11530200Y-3091500D02*
X11490200Y-3131500D01*
X11490200Y-4845648D02*
X11530200Y-4885648D01*
X11530200Y-4845648D02*
X11490200Y-4885648D01*
X11490200Y-4996500D02*
X11530200Y-5036500D01*
X11530200Y-4996500D02*
X11490200Y-5036500D01*
X11490200Y-6750648D02*
X11530200Y-6790648D01*
X11530200Y-6750648D02*
X11490200Y-6790648D01*
X11490200Y-6901500D02*
X11530200Y-6941500D01*
X11530200Y-6901500D02*
X11490200Y-6941500D01*
X11490200Y-8655648D02*
X11530200Y-8695648D01*
X11530200Y-8655648D02*
X11490200Y-8695648D01*
X11490200Y-8806500D02*
X11530200Y-8846500D01*
X11530200Y-8806500D02*
X11490200Y-8846500D01*
X11490200Y-10560648D02*
X11530200Y-10600648D01*
X11530200Y-10560648D02*
X11490200Y-10600648D01*
X11490200Y-10711500D02*
X11530200Y-10751500D01*
X11530200Y-10711500D02*
X11490200Y-10751500D01*
X11990200Y-2939100D02*
X12030200Y-2979100D01*
X12030200Y-2939100D02*
X11990200Y-2979100D01*
X11990200Y-3091500D02*
X12030200Y-3131500D01*
X12030200Y-3091500D02*
X11990200Y-3131500D01*
X11990200Y-4844100D02*
X12030200Y-4884100D01*
X12030200Y-4844100D02*
X11990200Y-4884100D01*
X11990200Y-4996500D02*
X12030200Y-5036500D01*
X12030200Y-4996500D02*
X11990200Y-5036500D01*
X11990200Y-6749100D02*
X12030200Y-6789100D01*
X12030200Y-6749100D02*
X11990200Y-6789100D01*
X11990200Y-6901500D02*
X12030200Y-6941500D01*
X12030200Y-6901500D02*
X11990200Y-6941500D01*
X11990200Y-8654100D02*
X12030200Y-8694100D01*
X12030200Y-8654100D02*
X11990200Y-8694100D01*
X11990200Y-8806500D02*
X12030200Y-8846500D01*
X12030200Y-8806500D02*
X11990200Y-8846500D01*
X11990200Y-10559100D02*
X12030200Y-10599100D01*
X12030200Y-10559100D02*
X11990200Y-10599100D01*
X11990200Y-10711500D02*
X12030200Y-10751500D01*
X12030200Y-10711500D02*
X11990200Y-10751500D01*
X12057700Y-3320100D02*
X12097700Y-3360100D01*
X12097700Y-3320100D02*
X12057700Y-3360100D01*
X12057700Y-5225100D02*
X12097700Y-5265100D01*
X12097700Y-5225100D02*
X12057700Y-5265100D01*
X12057700Y-7130100D02*
X12097700Y-7170100D01*
X12097700Y-7130100D02*
X12057700Y-7170100D01*
X12057700Y-9035100D02*
X12097700Y-9075100D01*
X12097700Y-9035100D02*
X12057700Y-9075100D01*
X12057700Y-10940100D02*
X12097700Y-10980100D01*
X12097700Y-10940100D02*
X12057700Y-10980100D01*
X12159300Y-4069400D02*
X12199300Y-4109400D01*
X12199300Y-4069400D02*
X12159300Y-4109400D01*
X12159300Y-5974400D02*
X12199300Y-6014400D01*
X12199300Y-5974400D02*
X12159300Y-6014400D01*
X12159300Y-7879400D02*
X12199300Y-7919400D01*
X12199300Y-7879400D02*
X12159300Y-7919400D01*
X12159300Y-9784400D02*
X12199300Y-9824400D01*
X12199300Y-9784400D02*
X12159300Y-9824400D01*
X12159300Y-11689400D02*
X12199300Y-11729400D01*
X12199300Y-11689400D02*
X12159300Y-11729400D01*
X12299000Y-3015300D02*
X12339000Y-3055300D01*
X12339000Y-3015300D02*
X12299000Y-3055300D01*
X12299000Y-4920300D02*
X12339000Y-4960300D01*
X12339000Y-4920300D02*
X12299000Y-4960300D01*
X12299000Y-6825300D02*
X12339000Y-6865300D01*
X12339000Y-6825300D02*
X12299000Y-6865300D01*
X12299000Y-8730300D02*
X12339000Y-8770300D01*
X12339000Y-8730300D02*
X12299000Y-8770300D01*
X12299000Y-10635300D02*
X12339000Y-10675300D01*
X12339000Y-10635300D02*
X12299000Y-10675300D01*
X12400600Y-3904300D02*
X12440600Y-3944300D01*
X12440600Y-3904300D02*
X12400600Y-3944300D01*
X12400600Y-5809300D02*
X12440600Y-5849300D01*
X12440600Y-5809300D02*
X12400600Y-5849300D01*
X12400600Y-7714300D02*
X12440600Y-7754300D01*
X12440600Y-7714300D02*
X12400600Y-7754300D01*
X12400600Y-9619300D02*
X12440600Y-9659300D01*
X12440600Y-9619300D02*
X12400600Y-9659300D01*
X12400600Y-11524300D02*
X12440600Y-11564300D01*
X12440600Y-11524300D02*
X12400600Y-11564300D01*
X12527600Y-2837500D02*
X12567600Y-2877500D01*
X12567600Y-2837500D02*
X12527600Y-2877500D01*
X12527600Y-4742500D02*
X12567600Y-4782500D01*
X12567600Y-4742500D02*
X12527600Y-4782500D01*
X12527600Y-6647500D02*
X12567600Y-6687500D01*
X12567600Y-6647500D02*
X12527600Y-6687500D01*
X12527600Y-8552500D02*
X12567600Y-8592500D01*
X12567600Y-8552500D02*
X12527600Y-8592500D01*
X12527600Y-10457500D02*
X12567600Y-10497500D01*
X12567600Y-10457500D02*
X12527600Y-10497500D01*
X12870500Y-4031300D02*
X12910500Y-4071300D01*
X12910500Y-4031300D02*
X12870500Y-4071300D01*
X12870500Y-5936300D02*
X12910500Y-5976300D01*
X12910500Y-5936300D02*
X12870500Y-5976300D01*
X12870500Y-7841300D02*
X12910500Y-7881300D01*
X12910500Y-7841300D02*
X12870500Y-7881300D01*
X12870500Y-9746300D02*
X12910500Y-9786300D01*
X12910500Y-9746300D02*
X12870500Y-9786300D01*
X12870500Y-11651300D02*
X12910500Y-11691300D01*
X12910500Y-11651300D02*
X12870500Y-11691300D01*
X13276900Y-3345500D02*
X13316900Y-3385500D01*
X13316900Y-3345500D02*
X13276900Y-3385500D01*
X13276900Y-5250500D02*
X13316900Y-5290500D01*
X13316900Y-5250500D02*
X13276900Y-5290500D01*
X13276900Y-7155500D02*
X13316900Y-7195500D01*
X13316900Y-7155500D02*
X13276900Y-7195500D01*
X13276900Y-9060500D02*
X13316900Y-9100500D01*
X13316900Y-9060500D02*
X13276900Y-9100500D01*
X13276900Y-10965500D02*
X13316900Y-11005500D01*
X13316900Y-10965500D02*
X13276900Y-11005500D01*
X13395200Y-2940648D02*
X13435200Y-2980648D01*
X13435200Y-2940648D02*
X13395200Y-2980648D01*
X13395200Y-3091500D02*
X13435200Y-3131500D01*
X13435200Y-3091500D02*
X13395200Y-3131500D01*
X13395200Y-4845648D02*
X13435200Y-4885648D01*
X13435200Y-4845648D02*
X13395200Y-4885648D01*
X13395200Y-4996500D02*
X13435200Y-5036500D01*
X13435200Y-4996500D02*
X13395200Y-5036500D01*
X13395200Y-6750648D02*
X13435200Y-6790648D01*
X13435200Y-6750648D02*
X13395200Y-6790648D01*
X13395200Y-6901500D02*
X13435200Y-6941500D01*
X13435200Y-6901500D02*
X13395200Y-6941500D01*
X13395200Y-8655648D02*
X13435200Y-8695648D01*
X13435200Y-8655648D02*
X13395200Y-8695648D01*
X13395200Y-8806500D02*
X13435200Y-8846500D01*
X13435200Y-8806500D02*
X13395200Y-8846500D01*
X13395200Y-10560648D02*
X13435200Y-10600648D01*
X13435200Y-10560648D02*
X13395200Y-10600648D01*
X13395200Y-10711500D02*
X13435200Y-10751500D01*
X13435200Y-10711500D02*
X13395200Y-10751500D01*
X13895200Y-2939100D02*
X13935200Y-2979100D01*
X13935200Y-2939100D02*
X13895200Y-2979100D01*
X13895200Y-3091500D02*
X13935200Y-3131500D01*
X13935200Y-3091500D02*
X13895200Y-3131500D01*
X13895200Y-4844100D02*
X13935200Y-4884100D01*
X13935200Y-4844100D02*
X13895200Y-4884100D01*
X13895200Y-4996500D02*
X13935200Y-5036500D01*
X13935200Y-4996500D02*
X13895200Y-5036500D01*
X13895200Y-6749100D02*
X13935200Y-6789100D01*
X13935200Y-6749100D02*
X13895200Y-6789100D01*
X13895200Y-6901500D02*
X13935200Y-6941500D01*
X13935200Y-6901500D02*
X13895200Y-6941500D01*
X13895200Y-8654100D02*
X13935200Y-8694100D01*
X13935200Y-8654100D02*
X13895200Y-8694100D01*
X13895200Y-8806500D02*
X13935200Y-8846500D01*
X13935200Y-8806500D02*
X13895200Y-8846500D01*
X13895200Y-10559100D02*
X13935200Y-10599100D01*
X13935200Y-10559100D02*
X13895200Y-10599100D01*
X13895200Y-10711500D02*
X13935200Y-10751500D01*
X13935200Y-10711500D02*
X13895200Y-10751500D01*
X13962700Y-3320100D02*
X14002700Y-3360100D01*
X14002700Y-3320100D02*
X13962700Y-3360100D01*
X13962700Y-5225100D02*
X14002700Y-5265100D01*
X14002700Y-5225100D02*
X13962700Y-5265100D01*
X13962700Y-7130100D02*
X14002700Y-7170100D01*
X14002700Y-7130100D02*
X13962700Y-7170100D01*
X13962700Y-9035100D02*
X14002700Y-9075100D01*
X14002700Y-9035100D02*
X13962700Y-9075100D01*
X13962700Y-10940100D02*
X14002700Y-10980100D01*
X14002700Y-10940100D02*
X13962700Y-10980100D01*
X14064300Y-4069400D02*
X14104300Y-4109400D01*
X14104300Y-4069400D02*
X14064300Y-4109400D01*
X14064300Y-5974400D02*
X14104300Y-6014400D01*
X14104300Y-5974400D02*
X14064300Y-6014400D01*
X14064300Y-7879400D02*
X14104300Y-7919400D01*
X14104300Y-7879400D02*
X14064300Y-7919400D01*
X14064300Y-9784400D02*
X14104300Y-9824400D01*
X14104300Y-9784400D02*
X14064300Y-9824400D01*
X14064300Y-11689400D02*
X14104300Y-11729400D01*
X14104300Y-11689400D02*
X14064300Y-11729400D01*
D13*
X5602600Y-4279900D02*
G75*
G03*
X5602600Y-4279900I-40000J0D01*
G01*
X5602600Y-6184900D02*
G75*
G03*
X5602600Y-6184900I-40000J0D01*
G01*
X5602600Y-8089900D02*
G75*
G03*
X5602600Y-8089900I-40000J0D01*
G01*
X5602600Y-9994900D02*
G75*
G03*
X5602600Y-9994900I-40000J0D01*
G01*
X5602600Y-11899900D02*
G75*
G03*
X5602600Y-11899900I-40000J0D01*
G01*
X6237600Y-4279900D02*
G75*
G03*
X6237600Y-4279900I-40000J0D01*
G01*
X6237600Y-6184900D02*
G75*
G03*
X6237600Y-6184900I-40000J0D01*
G01*
X6237600Y-8089900D02*
G75*
G03*
X6237600Y-8089900I-40000J0D01*
G01*
X6237600Y-9994900D02*
G75*
G03*
X6237600Y-9994900I-40000J0D01*
G01*
X6237600Y-11899900D02*
G75*
G03*
X6237600Y-11899900I-40000J0D01*
G01*
X7507600Y-4279900D02*
G75*
G03*
X7507600Y-4279900I-40000J0D01*
G01*
X7507600Y-6184900D02*
G75*
G03*
X7507600Y-6184900I-40000J0D01*
G01*
X7507600Y-8089900D02*
G75*
G03*
X7507600Y-8089900I-40000J0D01*
G01*
X7507600Y-9994900D02*
G75*
G03*
X7507600Y-9994900I-40000J0D01*
G01*
X7507600Y-11899900D02*
G75*
G03*
X7507600Y-11899900I-40000J0D01*
G01*
X8142600Y-4279900D02*
G75*
G03*
X8142600Y-4279900I-40000J0D01*
G01*
X8142600Y-6184900D02*
G75*
G03*
X8142600Y-6184900I-40000J0D01*
G01*
X8142600Y-8089900D02*
G75*
G03*
X8142600Y-8089900I-40000J0D01*
G01*
X8142600Y-9994900D02*
G75*
G03*
X8142600Y-9994900I-40000J0D01*
G01*
X8142600Y-11899900D02*
G75*
G03*
X8142600Y-11899900I-40000J0D01*
G01*
X9412600Y-4279900D02*
G75*
G03*
X9412600Y-4279900I-40000J0D01*
G01*
X9412600Y-6184900D02*
G75*
G03*
X9412600Y-6184900I-40000J0D01*
G01*
X9412600Y-8089900D02*
G75*
G03*
X9412600Y-8089900I-40000J0D01*
G01*
X9412600Y-9994900D02*
G75*
G03*
X9412600Y-9994900I-40000J0D01*
G01*
X9412600Y-11899900D02*
G75*
G03*
X9412600Y-11899900I-40000J0D01*
G01*
X10047600Y-4279900D02*
G75*
G03*
X10047600Y-4279900I-40000J0D01*
G01*
X10047600Y-6184900D02*
G75*
G03*
X10047600Y-6184900I-40000J0D01*
G01*
X10047600Y-8089900D02*
G75*
G03*
X10047600Y-8089900I-40000J0D01*
G01*
X10047600Y-9994900D02*
G75*
G03*
X10047600Y-9994900I-40000J0D01*
G01*
X10047600Y-11899900D02*
G75*
G03*
X10047600Y-11899900I-40000J0D01*
G01*
X11317600Y-4279900D02*
G75*
G03*
X11317600Y-4279900I-40000J0D01*
G01*
X11317600Y-6184900D02*
G75*
G03*
X11317600Y-6184900I-40000J0D01*
G01*
X11317600Y-8089900D02*
G75*
G03*
X11317600Y-8089900I-40000J0D01*
G01*
X11317600Y-9994900D02*
G75*
G03*
X11317600Y-9994900I-40000J0D01*
G01*
X11317600Y-11899900D02*
G75*
G03*
X11317600Y-11899900I-40000J0D01*
G01*
X11952600Y-4279900D02*
G75*
G03*
X11952600Y-4279900I-40000J0D01*
G01*
X11952600Y-6184900D02*
G75*
G03*
X11952600Y-6184900I-40000J0D01*
G01*
X11952600Y-8089900D02*
G75*
G03*
X11952600Y-8089900I-40000J0D01*
G01*
X11952600Y-9994900D02*
G75*
G03*
X11952600Y-9994900I-40000J0D01*
G01*
X11952600Y-11899900D02*
G75*
G03*
X11952600Y-11899900I-40000J0D01*
G01*
X13222600Y-4279900D02*
G75*
G03*
X13222600Y-4279900I-40000J0D01*
G01*
X13222600Y-6184900D02*
G75*
G03*
X13222600Y-6184900I-40000J0D01*
G01*
X13222600Y-8089900D02*
G75*
G03*
X13222600Y-8089900I-40000J0D01*
G01*
X13222600Y-9994900D02*
G75*
G03*
X13222600Y-9994900I-40000J0D01*
G01*
X13222600Y-11899900D02*
G75*
G03*
X13222600Y-11899900I-40000J0D01*
G01*
X13857600Y-4279900D02*
G75*
G03*
X13857600Y-4279900I-40000J0D01*
G01*
X13857600Y-6184900D02*
G75*
G03*
X13857600Y-6184900I-40000J0D01*
G01*
X13857600Y-8089900D02*
G75*
G03*
X13857600Y-8089900I-40000J0D01*
G01*
X13857600Y-9994900D02*
G75*
G03*
X13857600Y-9994900I-40000J0D01*
G01*
X13857600Y-11899900D02*
G75*
G03*
X13857600Y-11899900I-40000J0D01*
G01*
D14*
X5257800Y-2677160D02*
X5257800Y-2758440D01*
X5217160Y-2717800D02*
X5298440Y-2717800D01*
X5257800Y-2981960D02*
X5257800Y-3063240D01*
X5217160Y-3022600D02*
X5298440Y-3022600D01*
X5257800Y-3502660D02*
X5257800Y-3583940D01*
X5217160Y-3543300D02*
X5298440Y-3543300D01*
X5257800Y-3794760D02*
X5257800Y-3876040D01*
X5217160Y-3835400D02*
X5298440Y-3835400D01*
X5257800Y-4251960D02*
X5257800Y-4333240D01*
X5217160Y-4292600D02*
X5298440Y-4292600D01*
X5257800Y-4582160D02*
X5257800Y-4663440D01*
X5217160Y-4622800D02*
X5298440Y-4622800D01*
X5257800Y-4886960D02*
X5257800Y-4968240D01*
X5217160Y-4927600D02*
X5298440Y-4927600D01*
X5257800Y-5407660D02*
X5257800Y-5488940D01*
X5217160Y-5448300D02*
X5298440Y-5448300D01*
X5257800Y-5699760D02*
X5257800Y-5781040D01*
X5217160Y-5740400D02*
X5298440Y-5740400D01*
X5257800Y-6156960D02*
X5257800Y-6238240D01*
X5217160Y-6197600D02*
X5298440Y-6197600D01*
X5257800Y-6487160D02*
X5257800Y-6568440D01*
X5217160Y-6527800D02*
X5298440Y-6527800D01*
X5257800Y-6791960D02*
X5257800Y-6873240D01*
X5217160Y-6832600D02*
X5298440Y-6832600D01*
X5257800Y-7312660D02*
X5257800Y-7393940D01*
X5217160Y-7353300D02*
X5298440Y-7353300D01*
X5257800Y-7604760D02*
X5257800Y-7686040D01*
X5217160Y-7645400D02*
X5298440Y-7645400D01*
X5257800Y-8061960D02*
X5257800Y-8143240D01*
X5217160Y-8102600D02*
X5298440Y-8102600D01*
X5257800Y-8392160D02*
X5257800Y-8473440D01*
X5217160Y-8432800D02*
X5298440Y-8432800D01*
X5257800Y-8696960D02*
X5257800Y-8778240D01*
X5217160Y-8737600D02*
X5298440Y-8737600D01*
X5257800Y-9217660D02*
X5257800Y-9298940D01*
X5217160Y-9258300D02*
X5298440Y-9258300D01*
X5257800Y-9509760D02*
X5257800Y-9591040D01*
X5217160Y-9550400D02*
X5298440Y-9550400D01*
X5257800Y-9966960D02*
X5257800Y-10048240D01*
X5217160Y-10007600D02*
X5298440Y-10007600D01*
X5257800Y-10297160D02*
X5257800Y-10378440D01*
X5217160Y-10337800D02*
X5298440Y-10337800D01*
X5257800Y-10601960D02*
X5257800Y-10683240D01*
X5217160Y-10642600D02*
X5298440Y-10642600D01*
X5257800Y-11122660D02*
X5257800Y-11203940D01*
X5217160Y-11163300D02*
X5298440Y-11163300D01*
X5257800Y-11414760D02*
X5257800Y-11496040D01*
X5217160Y-11455400D02*
X5298440Y-11455400D01*
X5257800Y-11871960D02*
X5257800Y-11953240D01*
X5217160Y-11912600D02*
X5298440Y-11912600D01*
X6527800Y-2677160D02*
X6527800Y-2758440D01*
X6487160Y-2717800D02*
X6568440Y-2717800D01*
X6527800Y-4251960D02*
X6527800Y-4333240D01*
X6487160Y-4292600D02*
X6568440Y-4292600D01*
X6527800Y-4582160D02*
X6527800Y-4663440D01*
X6487160Y-4622800D02*
X6568440Y-4622800D01*
X6527800Y-6156960D02*
X6527800Y-6238240D01*
X6487160Y-6197600D02*
X6568440Y-6197600D01*
X6527800Y-6487160D02*
X6527800Y-6568440D01*
X6487160Y-6527800D02*
X6568440Y-6527800D01*
X6527800Y-8061960D02*
X6527800Y-8143240D01*
X6487160Y-8102600D02*
X6568440Y-8102600D01*
X6527800Y-8392160D02*
X6527800Y-8473440D01*
X6487160Y-8432800D02*
X6568440Y-8432800D01*
X6527800Y-9966960D02*
X6527800Y-10048240D01*
X6487160Y-10007600D02*
X6568440Y-10007600D01*
X6527800Y-10297160D02*
X6527800Y-10378440D01*
X6487160Y-10337800D02*
X6568440Y-10337800D01*
X6527800Y-11871960D02*
X6527800Y-11953240D01*
X6487160Y-11912600D02*
X6568440Y-11912600D01*
X6832600Y-2677160D02*
X6832600Y-2758440D01*
X6791960Y-2717800D02*
X6873240Y-2717800D01*
X6832600Y-2981960D02*
X6832600Y-3063240D01*
X6791960Y-3022600D02*
X6873240Y-3022600D01*
X6832600Y-3502660D02*
X6832600Y-3583940D01*
X6791960Y-3543300D02*
X6873240Y-3543300D01*
X6832600Y-3947160D02*
X6832600Y-4028440D01*
X6791960Y-3987800D02*
X6873240Y-3987800D01*
X6832600Y-4251960D02*
X6832600Y-4333240D01*
X6791960Y-4292600D02*
X6873240Y-4292600D01*
X6832600Y-4582160D02*
X6832600Y-4663440D01*
X6791960Y-4622800D02*
X6873240Y-4622800D01*
X6832600Y-4886960D02*
X6832600Y-4968240D01*
X6791960Y-4927600D02*
X6873240Y-4927600D01*
X6832600Y-5407660D02*
X6832600Y-5488940D01*
X6791960Y-5448300D02*
X6873240Y-5448300D01*
X6832600Y-5852160D02*
X6832600Y-5933440D01*
X6791960Y-5892800D02*
X6873240Y-5892800D01*
X6832600Y-6156960D02*
X6832600Y-6238240D01*
X6791960Y-6197600D02*
X6873240Y-6197600D01*
X6832600Y-6487160D02*
X6832600Y-6568440D01*
X6791960Y-6527800D02*
X6873240Y-6527800D01*
X6832600Y-6791960D02*
X6832600Y-6873240D01*
X6791960Y-6832600D02*
X6873240Y-6832600D01*
X6832600Y-7312660D02*
X6832600Y-7393940D01*
X6791960Y-7353300D02*
X6873240Y-7353300D01*
X6832600Y-7757160D02*
X6832600Y-7838440D01*
X6791960Y-7797800D02*
X6873240Y-7797800D01*
X6832600Y-8061960D02*
X6832600Y-8143240D01*
X6791960Y-8102600D02*
X6873240Y-8102600D01*
X6832600Y-8392160D02*
X6832600Y-8473440D01*
X6791960Y-8432800D02*
X6873240Y-8432800D01*
X6832600Y-8696960D02*
X6832600Y-8778240D01*
X6791960Y-8737600D02*
X6873240Y-8737600D01*
X6832600Y-9217660D02*
X6832600Y-9298940D01*
X6791960Y-9258300D02*
X6873240Y-9258300D01*
X6832600Y-9662160D02*
X6832600Y-9743440D01*
X6791960Y-9702800D02*
X6873240Y-9702800D01*
X6832600Y-9966960D02*
X6832600Y-10048240D01*
X6791960Y-10007600D02*
X6873240Y-10007600D01*
X6832600Y-10297160D02*
X6832600Y-10378440D01*
X6791960Y-10337800D02*
X6873240Y-10337800D01*
X6832600Y-10601960D02*
X6832600Y-10683240D01*
X6791960Y-10642600D02*
X6873240Y-10642600D01*
X6832600Y-11122660D02*
X6832600Y-11203940D01*
X6791960Y-11163300D02*
X6873240Y-11163300D01*
X6832600Y-11567160D02*
X6832600Y-11648440D01*
X6791960Y-11607800D02*
X6873240Y-11607800D01*
X6832600Y-11871960D02*
X6832600Y-11953240D01*
X6791960Y-11912600D02*
X6873240Y-11912600D01*
X7162800Y-2677160D02*
X7162800Y-2758440D01*
X7122160Y-2717800D02*
X7203440Y-2717800D01*
X7162800Y-2981960D02*
X7162800Y-3063240D01*
X7122160Y-3022600D02*
X7203440Y-3022600D01*
X7162800Y-3502660D02*
X7162800Y-3583940D01*
X7122160Y-3543300D02*
X7203440Y-3543300D01*
X7162800Y-3794760D02*
X7162800Y-3876040D01*
X7122160Y-3835400D02*
X7203440Y-3835400D01*
X7162800Y-4251960D02*
X7162800Y-4333240D01*
X7122160Y-4292600D02*
X7203440Y-4292600D01*
X7162800Y-4582160D02*
X7162800Y-4663440D01*
X7122160Y-4622800D02*
X7203440Y-4622800D01*
X7162800Y-4886960D02*
X7162800Y-4968240D01*
X7122160Y-4927600D02*
X7203440Y-4927600D01*
X7162800Y-5407660D02*
X7162800Y-5488940D01*
X7122160Y-5448300D02*
X7203440Y-5448300D01*
X7162800Y-5699760D02*
X7162800Y-5781040D01*
X7122160Y-5740400D02*
X7203440Y-5740400D01*
X7162800Y-6156960D02*
X7162800Y-6238240D01*
X7122160Y-6197600D02*
X7203440Y-6197600D01*
X7162800Y-6487160D02*
X7162800Y-6568440D01*
X7122160Y-6527800D02*
X7203440Y-6527800D01*
X7162800Y-6791960D02*
X7162800Y-6873240D01*
X7122160Y-6832600D02*
X7203440Y-6832600D01*
X7162800Y-7312660D02*
X7162800Y-7393940D01*
X7122160Y-7353300D02*
X7203440Y-7353300D01*
X7162800Y-7604760D02*
X7162800Y-7686040D01*
X7122160Y-7645400D02*
X7203440Y-7645400D01*
X7162800Y-8061960D02*
X7162800Y-8143240D01*
X7122160Y-8102600D02*
X7203440Y-8102600D01*
X7162800Y-8392160D02*
X7162800Y-8473440D01*
X7122160Y-8432800D02*
X7203440Y-8432800D01*
X7162800Y-8696960D02*
X7162800Y-8778240D01*
X7122160Y-8737600D02*
X7203440Y-8737600D01*
X7162800Y-9217660D02*
X7162800Y-9298940D01*
X7122160Y-9258300D02*
X7203440Y-9258300D01*
X7162800Y-9509760D02*
X7162800Y-9591040D01*
X7122160Y-9550400D02*
X7203440Y-9550400D01*
X7162800Y-9966960D02*
X7162800Y-10048240D01*
X7122160Y-10007600D02*
X7203440Y-10007600D01*
X7162800Y-10297160D02*
X7162800Y-10378440D01*
X7122160Y-10337800D02*
X7203440Y-10337800D01*
X7162800Y-10601960D02*
X7162800Y-10683240D01*
X7122160Y-10642600D02*
X7203440Y-10642600D01*
X7162800Y-11122660D02*
X7162800Y-11203940D01*
X7122160Y-11163300D02*
X7203440Y-11163300D01*
X7162800Y-11414760D02*
X7162800Y-11496040D01*
X7122160Y-11455400D02*
X7203440Y-11455400D01*
X7162800Y-11871960D02*
X7162800Y-11953240D01*
X7122160Y-11912600D02*
X7203440Y-11912600D01*
X8432800Y-2677160D02*
X8432800Y-2758440D01*
X8392160Y-2717800D02*
X8473440Y-2717800D01*
X8432800Y-4251960D02*
X8432800Y-4333240D01*
X8392160Y-4292600D02*
X8473440Y-4292600D01*
X8432800Y-4582160D02*
X8432800Y-4663440D01*
X8392160Y-4622800D02*
X8473440Y-4622800D01*
X8432800Y-6156960D02*
X8432800Y-6238240D01*
X8392160Y-6197600D02*
X8473440Y-6197600D01*
X8432800Y-6487160D02*
X8432800Y-6568440D01*
X8392160Y-6527800D02*
X8473440Y-6527800D01*
X8432800Y-8061960D02*
X8432800Y-8143240D01*
X8392160Y-8102600D02*
X8473440Y-8102600D01*
X8432800Y-8392160D02*
X8432800Y-8473440D01*
X8392160Y-8432800D02*
X8473440Y-8432800D01*
X8432800Y-9966960D02*
X8432800Y-10048240D01*
X8392160Y-10007600D02*
X8473440Y-10007600D01*
X8432800Y-10297160D02*
X8432800Y-10378440D01*
X8392160Y-10337800D02*
X8473440Y-10337800D01*
X8432800Y-11871960D02*
X8432800Y-11953240D01*
X8392160Y-11912600D02*
X8473440Y-11912600D01*
X8737600Y-2677160D02*
X8737600Y-2758440D01*
X8696960Y-2717800D02*
X8778240Y-2717800D01*
X8737600Y-2981960D02*
X8737600Y-3063240D01*
X8696960Y-3022600D02*
X8778240Y-3022600D01*
X8737600Y-3502660D02*
X8737600Y-3583940D01*
X8696960Y-3543300D02*
X8778240Y-3543300D01*
X8737600Y-3947160D02*
X8737600Y-4028440D01*
X8696960Y-3987800D02*
X8778240Y-3987800D01*
X8737600Y-4251960D02*
X8737600Y-4333240D01*
X8696960Y-4292600D02*
X8778240Y-4292600D01*
X8737600Y-4582160D02*
X8737600Y-4663440D01*
X8696960Y-4622800D02*
X8778240Y-4622800D01*
X8737600Y-4886960D02*
X8737600Y-4968240D01*
X8696960Y-4927600D02*
X8778240Y-4927600D01*
X8737600Y-5407660D02*
X8737600Y-5488940D01*
X8696960Y-5448300D02*
X8778240Y-5448300D01*
X8737600Y-5852160D02*
X8737600Y-5933440D01*
X8696960Y-5892800D02*
X8778240Y-5892800D01*
X8737600Y-6156960D02*
X8737600Y-6238240D01*
X8696960Y-6197600D02*
X8778240Y-6197600D01*
X8737600Y-6487160D02*
X8737600Y-6568440D01*
X8696960Y-6527800D02*
X8778240Y-6527800D01*
X8737600Y-6791960D02*
X8737600Y-6873240D01*
X8696960Y-6832600D02*
X8778240Y-6832600D01*
X8737600Y-7312660D02*
X8737600Y-7393940D01*
X8696960Y-7353300D02*
X8778240Y-7353300D01*
X8737600Y-7757160D02*
X8737600Y-7838440D01*
X8696960Y-7797800D02*
X8778240Y-7797800D01*
X8737600Y-8061960D02*
X8737600Y-8143240D01*
X8696960Y-8102600D02*
X8778240Y-8102600D01*
X8737600Y-8392160D02*
X8737600Y-8473440D01*
X8696960Y-8432800D02*
X8778240Y-8432800D01*
X8737600Y-8696960D02*
X8737600Y-8778240D01*
X8696960Y-8737600D02*
X8778240Y-8737600D01*
X8737600Y-9217660D02*
X8737600Y-9298940D01*
X8696960Y-9258300D02*
X8778240Y-9258300D01*
X8737600Y-9662160D02*
X8737600Y-9743440D01*
X8696960Y-9702800D02*
X8778240Y-9702800D01*
X8737600Y-9966960D02*
X8737600Y-10048240D01*
X8696960Y-10007600D02*
X8778240Y-10007600D01*
X8737600Y-10297160D02*
X8737600Y-10378440D01*
X8696960Y-10337800D02*
X8778240Y-10337800D01*
X8737600Y-10601960D02*
X8737600Y-10683240D01*
X8696960Y-10642600D02*
X8778240Y-10642600D01*
X8737600Y-11122660D02*
X8737600Y-11203940D01*
X8696960Y-11163300D02*
X8778240Y-11163300D01*
X8737600Y-11567160D02*
X8737600Y-11648440D01*
X8696960Y-11607800D02*
X8778240Y-11607800D01*
X8737600Y-11871960D02*
X8737600Y-11953240D01*
X8696960Y-11912600D02*
X8778240Y-11912600D01*
X9067800Y-2677160D02*
X9067800Y-2758440D01*
X9027160Y-2717800D02*
X9108440Y-2717800D01*
X9067800Y-2981960D02*
X9067800Y-3063240D01*
X9027160Y-3022600D02*
X9108440Y-3022600D01*
X9067800Y-3502660D02*
X9067800Y-3583940D01*
X9027160Y-3543300D02*
X9108440Y-3543300D01*
X9067800Y-3794760D02*
X9067800Y-3876040D01*
X9027160Y-3835400D02*
X9108440Y-3835400D01*
X9067800Y-4251960D02*
X9067800Y-4333240D01*
X9027160Y-4292600D02*
X9108440Y-4292600D01*
X9067800Y-4582160D02*
X9067800Y-4663440D01*
X9027160Y-4622800D02*
X9108440Y-4622800D01*
X9067800Y-4886960D02*
X9067800Y-4968240D01*
X9027160Y-4927600D02*
X9108440Y-4927600D01*
X9067800Y-5407660D02*
X9067800Y-5488940D01*
X9027160Y-5448300D02*
X9108440Y-5448300D01*
X9067800Y-5699760D02*
X9067800Y-5781040D01*
X9027160Y-5740400D02*
X9108440Y-5740400D01*
X9067800Y-6156960D02*
X9067800Y-6238240D01*
X9027160Y-6197600D02*
X9108440Y-6197600D01*
X9067800Y-6487160D02*
X9067800Y-6568440D01*
X9027160Y-6527800D02*
X9108440Y-6527800D01*
X9067800Y-6791960D02*
X9067800Y-6873240D01*
X9027160Y-6832600D02*
X9108440Y-6832600D01*
X9067800Y-7312660D02*
X9067800Y-7393940D01*
X9027160Y-7353300D02*
X9108440Y-7353300D01*
X9067800Y-7604760D02*
X9067800Y-7686040D01*
X9027160Y-7645400D02*
X9108440Y-7645400D01*
X9067800Y-8061960D02*
X9067800Y-8143240D01*
X9027160Y-8102600D02*
X9108440Y-8102600D01*
X9067800Y-8392160D02*
X9067800Y-8473440D01*
X9027160Y-8432800D02*
X9108440Y-8432800D01*
X9067800Y-8696960D02*
X9067800Y-8778240D01*
X9027160Y-8737600D02*
X9108440Y-8737600D01*
X9067800Y-9217660D02*
X9067800Y-9298940D01*
X9027160Y-9258300D02*
X9108440Y-9258300D01*
X9067800Y-9509760D02*
X9067800Y-9591040D01*
X9027160Y-9550400D02*
X9108440Y-9550400D01*
X9067800Y-9966960D02*
X9067800Y-10048240D01*
X9027160Y-10007600D02*
X9108440Y-10007600D01*
X9067800Y-10297160D02*
X9067800Y-10378440D01*
X9027160Y-10337800D02*
X9108440Y-10337800D01*
X9067800Y-10601960D02*
X9067800Y-10683240D01*
X9027160Y-10642600D02*
X9108440Y-10642600D01*
X9067800Y-11122660D02*
X9067800Y-11203940D01*
X9027160Y-11163300D02*
X9108440Y-11163300D01*
X9067800Y-11414760D02*
X9067800Y-11496040D01*
X9027160Y-11455400D02*
X9108440Y-11455400D01*
X9067800Y-11871960D02*
X9067800Y-11953240D01*
X9027160Y-11912600D02*
X9108440Y-11912600D01*
X10337800Y-2677160D02*
X10337800Y-2758440D01*
X10297160Y-2717800D02*
X10378440Y-2717800D01*
X10337800Y-4251960D02*
X10337800Y-4333240D01*
X10297160Y-4292600D02*
X10378440Y-4292600D01*
X10337800Y-4582160D02*
X10337800Y-4663440D01*
X10297160Y-4622800D02*
X10378440Y-4622800D01*
X10337800Y-6156960D02*
X10337800Y-6238240D01*
X10297160Y-6197600D02*
X10378440Y-6197600D01*
X10337800Y-6487160D02*
X10337800Y-6568440D01*
X10297160Y-6527800D02*
X10378440Y-6527800D01*
X10337800Y-8061960D02*
X10337800Y-8143240D01*
X10297160Y-8102600D02*
X10378440Y-8102600D01*
X10337800Y-8392160D02*
X10337800Y-8473440D01*
X10297160Y-8432800D02*
X10378440Y-8432800D01*
X10337800Y-9966960D02*
X10337800Y-10048240D01*
X10297160Y-10007600D02*
X10378440Y-10007600D01*
X10337800Y-10297160D02*
X10337800Y-10378440D01*
X10297160Y-10337800D02*
X10378440Y-10337800D01*
X10337800Y-11871960D02*
X10337800Y-11953240D01*
X10297160Y-11912600D02*
X10378440Y-11912600D01*
X10642600Y-2677160D02*
X10642600Y-2758440D01*
X10601960Y-2717800D02*
X10683240Y-2717800D01*
X10642600Y-2981960D02*
X10642600Y-3063240D01*
X10601960Y-3022600D02*
X10683240Y-3022600D01*
X10642600Y-3502660D02*
X10642600Y-3583940D01*
X10601960Y-3543300D02*
X10683240Y-3543300D01*
X10642600Y-3947160D02*
X10642600Y-4028440D01*
X10601960Y-3987800D02*
X10683240Y-3987800D01*
X10642600Y-4251960D02*
X10642600Y-4333240D01*
X10601960Y-4292600D02*
X10683240Y-4292600D01*
X10642600Y-4582160D02*
X10642600Y-4663440D01*
X10601960Y-4622800D02*
X10683240Y-4622800D01*
X10642600Y-4886960D02*
X10642600Y-4968240D01*
X10601960Y-4927600D02*
X10683240Y-4927600D01*
X10642600Y-5407660D02*
X10642600Y-5488940D01*
X10601960Y-5448300D02*
X10683240Y-5448300D01*
X10642600Y-5852160D02*
X10642600Y-5933440D01*
X10601960Y-5892800D02*
X10683240Y-5892800D01*
X10642600Y-6156960D02*
X10642600Y-6238240D01*
X10601960Y-6197600D02*
X10683240Y-6197600D01*
X10642600Y-6487160D02*
X10642600Y-6568440D01*
X10601960Y-6527800D02*
X10683240Y-6527800D01*
X10642600Y-6791960D02*
X10642600Y-6873240D01*
X10601960Y-6832600D02*
X10683240Y-6832600D01*
X10642600Y-7312660D02*
X10642600Y-7393940D01*
X10601960Y-7353300D02*
X10683240Y-7353300D01*
X10642600Y-7757160D02*
X10642600Y-7838440D01*
X10601960Y-7797800D02*
X10683240Y-7797800D01*
X10642600Y-8061960D02*
X10642600Y-8143240D01*
X10601960Y-8102600D02*
X10683240Y-8102600D01*
X10642600Y-8392160D02*
X10642600Y-8473440D01*
X10601960Y-8432800D02*
X10683240Y-8432800D01*
X10642600Y-8696960D02*
X10642600Y-8778240D01*
X10601960Y-8737600D02*
X10683240Y-8737600D01*
X10642600Y-9217660D02*
X10642600Y-9298940D01*
X10601960Y-9258300D02*
X10683240Y-9258300D01*
X10642600Y-9662160D02*
X10642600Y-9743440D01*
X10601960Y-9702800D02*
X10683240Y-9702800D01*
X10642600Y-9966960D02*
X10642600Y-10048240D01*
X10601960Y-10007600D02*
X10683240Y-10007600D01*
X10642600Y-10297160D02*
X10642600Y-10378440D01*
X10601960Y-10337800D02*
X10683240Y-10337800D01*
X10642600Y-10601960D02*
X10642600Y-10683240D01*
X10601960Y-10642600D02*
X10683240Y-10642600D01*
X10642600Y-11122660D02*
X10642600Y-11203940D01*
X10601960Y-11163300D02*
X10683240Y-11163300D01*
X10642600Y-11567160D02*
X10642600Y-11648440D01*
X10601960Y-11607800D02*
X10683240Y-11607800D01*
X10642600Y-11871960D02*
X10642600Y-11953240D01*
X10601960Y-11912600D02*
X10683240Y-11912600D01*
X10972800Y-2677160D02*
X10972800Y-2758440D01*
X10932160Y-2717800D02*
X11013440Y-2717800D01*
X10972800Y-2981960D02*
X10972800Y-3063240D01*
X10932160Y-3022600D02*
X11013440Y-3022600D01*
X10972800Y-3502660D02*
X10972800Y-3583940D01*
X10932160Y-3543300D02*
X11013440Y-3543300D01*
X10972800Y-3794760D02*
X10972800Y-3876040D01*
X10932160Y-3835400D02*
X11013440Y-3835400D01*
X10972800Y-4251960D02*
X10972800Y-4333240D01*
X10932160Y-4292600D02*
X11013440Y-4292600D01*
X10972800Y-4582160D02*
X10972800Y-4663440D01*
X10932160Y-4622800D02*
X11013440Y-4622800D01*
X10972800Y-4886960D02*
X10972800Y-4968240D01*
X10932160Y-4927600D02*
X11013440Y-4927600D01*
X10972800Y-5407660D02*
X10972800Y-5488940D01*
X10932160Y-5448300D02*
X11013440Y-5448300D01*
X10972800Y-5699760D02*
X10972800Y-5781040D01*
X10932160Y-5740400D02*
X11013440Y-5740400D01*
X10972800Y-6156960D02*
X10972800Y-6238240D01*
X10932160Y-6197600D02*
X11013440Y-6197600D01*
X10972800Y-6487160D02*
X10972800Y-6568440D01*
X10932160Y-6527800D02*
X11013440Y-6527800D01*
X10972800Y-6791960D02*
X10972800Y-6873240D01*
X10932160Y-6832600D02*
X11013440Y-6832600D01*
X10972800Y-7312660D02*
X10972800Y-7393940D01*
X10932160Y-7353300D02*
X11013440Y-7353300D01*
X10972800Y-7604760D02*
X10972800Y-7686040D01*
X10932160Y-7645400D02*
X11013440Y-7645400D01*
X10972800Y-8061960D02*
X10972800Y-8143240D01*
X10932160Y-8102600D02*
X11013440Y-8102600D01*
X10972800Y-8392160D02*
X10972800Y-8473440D01*
X10932160Y-8432800D02*
X11013440Y-8432800D01*
X10972800Y-8696960D02*
X10972800Y-8778240D01*
X10932160Y-8737600D02*
X11013440Y-8737600D01*
X10972800Y-9217660D02*
X10972800Y-9298940D01*
X10932160Y-9258300D02*
X11013440Y-9258300D01*
X10972800Y-9509760D02*
X10972800Y-9591040D01*
X10932160Y-9550400D02*
X11013440Y-9550400D01*
X10972800Y-9966960D02*
X10972800Y-10048240D01*
X10932160Y-10007600D02*
X11013440Y-10007600D01*
X10972800Y-10297160D02*
X10972800Y-10378440D01*
X10932160Y-10337800D02*
X11013440Y-10337800D01*
X10972800Y-10601960D02*
X10972800Y-10683240D01*
X10932160Y-10642600D02*
X11013440Y-10642600D01*
X10972800Y-11122660D02*
X10972800Y-11203940D01*
X10932160Y-11163300D02*
X11013440Y-11163300D01*
X10972800Y-11414760D02*
X10972800Y-11496040D01*
X10932160Y-11455400D02*
X11013440Y-11455400D01*
X10972800Y-11871960D02*
X10972800Y-11953240D01*
X10932160Y-11912600D02*
X11013440Y-11912600D01*
X12242800Y-2677160D02*
X12242800Y-2758440D01*
X12202160Y-2717800D02*
X12283440Y-2717800D01*
X12242800Y-4251960D02*
X12242800Y-4333240D01*
X12202160Y-4292600D02*
X12283440Y-4292600D01*
X12242800Y-4582160D02*
X12242800Y-4663440D01*
X12202160Y-4622800D02*
X12283440Y-4622800D01*
X12242800Y-6156960D02*
X12242800Y-6238240D01*
X12202160Y-6197600D02*
X12283440Y-6197600D01*
X12242800Y-6487160D02*
X12242800Y-6568440D01*
X12202160Y-6527800D02*
X12283440Y-6527800D01*
X12242800Y-8061960D02*
X12242800Y-8143240D01*
X12202160Y-8102600D02*
X12283440Y-8102600D01*
X12242800Y-8392160D02*
X12242800Y-8473440D01*
X12202160Y-8432800D02*
X12283440Y-8432800D01*
X12242800Y-9966960D02*
X12242800Y-10048240D01*
X12202160Y-10007600D02*
X12283440Y-10007600D01*
X12242800Y-10297160D02*
X12242800Y-10378440D01*
X12202160Y-10337800D02*
X12283440Y-10337800D01*
X12242800Y-11871960D02*
X12242800Y-11953240D01*
X12202160Y-11912600D02*
X12283440Y-11912600D01*
X12547600Y-2677160D02*
X12547600Y-2758440D01*
X12506960Y-2717800D02*
X12588240Y-2717800D01*
X12547600Y-2981960D02*
X12547600Y-3063240D01*
X12506960Y-3022600D02*
X12588240Y-3022600D01*
X12547600Y-3502660D02*
X12547600Y-3583940D01*
X12506960Y-3543300D02*
X12588240Y-3543300D01*
X12547600Y-3947160D02*
X12547600Y-4028440D01*
X12506960Y-3987800D02*
X12588240Y-3987800D01*
X12547600Y-4251960D02*
X12547600Y-4333240D01*
X12506960Y-4292600D02*
X12588240Y-4292600D01*
X12547600Y-4582160D02*
X12547600Y-4663440D01*
X12506960Y-4622800D02*
X12588240Y-4622800D01*
X12547600Y-4886960D02*
X12547600Y-4968240D01*
X12506960Y-4927600D02*
X12588240Y-4927600D01*
X12547600Y-5407660D02*
X12547600Y-5488940D01*
X12506960Y-5448300D02*
X12588240Y-5448300D01*
X12547600Y-5852160D02*
X12547600Y-5933440D01*
X12506960Y-5892800D02*
X12588240Y-5892800D01*
X12547600Y-6156960D02*
X12547600Y-6238240D01*
X12506960Y-6197600D02*
X12588240Y-6197600D01*
X12547600Y-6487160D02*
X12547600Y-6568440D01*
X12506960Y-6527800D02*
X12588240Y-6527800D01*
X12547600Y-6791960D02*
X12547600Y-6873240D01*
X12506960Y-6832600D02*
X12588240Y-6832600D01*
X12547600Y-7312660D02*
X12547600Y-7393940D01*
X12506960Y-7353300D02*
X12588240Y-7353300D01*
X12547600Y-7757160D02*
X12547600Y-7838440D01*
X12506960Y-7797800D02*
X12588240Y-7797800D01*
X12547600Y-8061960D02*
X12547600Y-8143240D01*
X12506960Y-8102600D02*
X12588240Y-8102600D01*
X12547600Y-8392160D02*
X12547600Y-8473440D01*
X12506960Y-8432800D02*
X12588240Y-8432800D01*
X12547600Y-8696960D02*
X12547600Y-8778240D01*
X12506960Y-8737600D02*
X12588240Y-8737600D01*
X12547600Y-9217660D02*
X12547600Y-9298940D01*
X12506960Y-9258300D02*
X12588240Y-9258300D01*
X12547600Y-9662160D02*
X12547600Y-9743440D01*
X12506960Y-9702800D02*
X12588240Y-9702800D01*
X12547600Y-9966960D02*
X12547600Y-10048240D01*
X12506960Y-10007600D02*
X12588240Y-10007600D01*
X12547600Y-10297160D02*
X12547600Y-10378440D01*
X12506960Y-10337800D02*
X12588240Y-10337800D01*
X12547600Y-10601960D02*
X12547600Y-10683240D01*
X12506960Y-10642600D02*
X12588240Y-10642600D01*
X12547600Y-11122660D02*
X12547600Y-11203940D01*
X12506960Y-11163300D02*
X12588240Y-11163300D01*
X12547600Y-11567160D02*
X12547600Y-11648440D01*
X12506960Y-11607800D02*
X12588240Y-11607800D01*
X12547600Y-11871960D02*
X12547600Y-11953240D01*
X12506960Y-11912600D02*
X12588240Y-11912600D01*
X12877800Y-2677160D02*
X12877800Y-2758440D01*
X12837160Y-2717800D02*
X12918440Y-2717800D01*
X12877800Y-2981960D02*
X12877800Y-3063240D01*
X12837160Y-3022600D02*
X12918440Y-3022600D01*
X12877800Y-3502660D02*
X12877800Y-3583940D01*
X12837160Y-3543300D02*
X12918440Y-3543300D01*
X12877800Y-3794760D02*
X12877800Y-3876040D01*
X12837160Y-3835400D02*
X12918440Y-3835400D01*
X12877800Y-4251960D02*
X12877800Y-4333240D01*
X12837160Y-4292600D02*
X12918440Y-4292600D01*
X12877800Y-4582160D02*
X12877800Y-4663440D01*
X12837160Y-4622800D02*
X12918440Y-4622800D01*
X12877800Y-4886960D02*
X12877800Y-4968240D01*
X12837160Y-4927600D02*
X12918440Y-4927600D01*
X12877800Y-5407660D02*
X12877800Y-5488940D01*
X12837160Y-5448300D02*
X12918440Y-5448300D01*
X12877800Y-5699760D02*
X12877800Y-5781040D01*
X12837160Y-5740400D02*
X12918440Y-5740400D01*
X12877800Y-6156960D02*
X12877800Y-6238240D01*
X12837160Y-6197600D02*
X12918440Y-6197600D01*
X12877800Y-6487160D02*
X12877800Y-6568440D01*
X12837160Y-6527800D02*
X12918440Y-6527800D01*
X12877800Y-6791960D02*
X12877800Y-6873240D01*
X12837160Y-6832600D02*
X12918440Y-6832600D01*
X12877800Y-7312660D02*
X12877800Y-7393940D01*
X12837160Y-7353300D02*
X12918440Y-7353300D01*
X12877800Y-7604760D02*
X12877800Y-7686040D01*
X12837160Y-7645400D02*
X12918440Y-7645400D01*
X12877800Y-8061960D02*
X12877800Y-8143240D01*
X12837160Y-8102600D02*
X12918440Y-8102600D01*
X12877800Y-8392160D02*
X12877800Y-8473440D01*
X12837160Y-8432800D02*
X12918440Y-8432800D01*
X12877800Y-8696960D02*
X12877800Y-8778240D01*
X12837160Y-8737600D02*
X12918440Y-8737600D01*
X12877800Y-9217660D02*
X12877800Y-9298940D01*
X12837160Y-9258300D02*
X12918440Y-9258300D01*
X12877800Y-9509760D02*
X12877800Y-9591040D01*
X12837160Y-9550400D02*
X12918440Y-9550400D01*
X12877800Y-9966960D02*
X12877800Y-10048240D01*
X12837160Y-10007600D02*
X12918440Y-10007600D01*
X12877800Y-10297160D02*
X12877800Y-10378440D01*
X12837160Y-10337800D02*
X12918440Y-10337800D01*
X12877800Y-10601960D02*
X12877800Y-10683240D01*
X12837160Y-10642600D02*
X12918440Y-10642600D01*
X12877800Y-11122660D02*
X12877800Y-11203940D01*
X12837160Y-11163300D02*
X12918440Y-11163300D01*
X12877800Y-11414760D02*
X12877800Y-11496040D01*
X12837160Y-11455400D02*
X12918440Y-11455400D01*
X12877800Y-11871960D02*
X12877800Y-11953240D01*
X12837160Y-11912600D02*
X12918440Y-11912600D01*
X14147800Y-2677160D02*
X14147800Y-2758440D01*
X14107160Y-2717800D02*
X14188440Y-2717800D01*
X14147800Y-4251960D02*
X14147800Y-4333240D01*
X14107160Y-4292600D02*
X14188440Y-4292600D01*
X14147800Y-4582160D02*
X14147800Y-4663440D01*
X14107160Y-4622800D02*
X14188440Y-4622800D01*
X14147800Y-6156960D02*
X14147800Y-6238240D01*
X14107160Y-6197600D02*
X14188440Y-6197600D01*
X14147800Y-6487160D02*
X14147800Y-6568440D01*
X14107160Y-6527800D02*
X14188440Y-6527800D01*
X14147800Y-8061960D02*
X14147800Y-8143240D01*
X14107160Y-8102600D02*
X14188440Y-8102600D01*
X14147800Y-8392160D02*
X14147800Y-8473440D01*
X14107160Y-8432800D02*
X14188440Y-8432800D01*
X14147800Y-9966960D02*
X14147800Y-10048240D01*
X14107160Y-10007600D02*
X14188440Y-10007600D01*
X14147800Y-10297160D02*
X14147800Y-10378440D01*
X14107160Y-10337800D02*
X14188440Y-10337800D01*
X14147800Y-11871960D02*
X14147800Y-11953240D01*
X14107160Y-11912600D02*
X14188440Y-11912600D01*
X14452600Y-2677160D02*
X14452600Y-2758440D01*
X14411960Y-2717800D02*
X14493240Y-2717800D01*
X14452600Y-2981960D02*
X14452600Y-3063240D01*
X14411960Y-3022600D02*
X14493240Y-3022600D01*
X14452600Y-3502660D02*
X14452600Y-3583940D01*
X14411960Y-3543300D02*
X14493240Y-3543300D01*
X14452600Y-3947160D02*
X14452600Y-4028440D01*
X14411960Y-3987800D02*
X14493240Y-3987800D01*
X14452600Y-4251960D02*
X14452600Y-4333240D01*
X14411960Y-4292600D02*
X14493240Y-4292600D01*
X14452600Y-4582160D02*
X14452600Y-4663440D01*
X14411960Y-4622800D02*
X14493240Y-4622800D01*
X14452600Y-4886960D02*
X14452600Y-4968240D01*
X14411960Y-4927600D02*
X14493240Y-4927600D01*
X14452600Y-5407660D02*
X14452600Y-5488940D01*
X14411960Y-5448300D02*
X14493240Y-5448300D01*
X14452600Y-5852160D02*
X14452600Y-5933440D01*
X14411960Y-5892800D02*
X14493240Y-5892800D01*
X14452600Y-6156960D02*
X14452600Y-6238240D01*
X14411960Y-6197600D02*
X14493240Y-6197600D01*
X14452600Y-6487160D02*
X14452600Y-6568440D01*
X14411960Y-6527800D02*
X14493240Y-6527800D01*
X14452600Y-6791960D02*
X14452600Y-6873240D01*
X14411960Y-6832600D02*
X14493240Y-6832600D01*
X14452600Y-7312660D02*
X14452600Y-7393940D01*
X14411960Y-7353300D02*
X14493240Y-7353300D01*
X14452600Y-7757160D02*
X14452600Y-7838440D01*
X14411960Y-7797800D02*
X14493240Y-7797800D01*
X14452600Y-8061960D02*
X14452600Y-8143240D01*
X14411960Y-8102600D02*
X14493240Y-8102600D01*
X14452600Y-8392160D02*
X14452600Y-8473440D01*
X14411960Y-8432800D02*
X14493240Y-8432800D01*
X14452600Y-8696960D02*
X14452600Y-8778240D01*
X14411960Y-8737600D02*
X14493240Y-8737600D01*
X14452600Y-9217660D02*
X14452600Y-9298940D01*
X14411960Y-9258300D02*
X14493240Y-9258300D01*
X14452600Y-9662160D02*
X14452600Y-9743440D01*
X14411960Y-9702800D02*
X14493240Y-9702800D01*
X14452600Y-9966960D02*
X14452600Y-10048240D01*
X14411960Y-10007600D02*
X14493240Y-10007600D01*
X14452600Y-10297160D02*
X14452600Y-10378440D01*
X14411960Y-10337800D02*
X14493240Y-10337800D01*
X14452600Y-10601960D02*
X14452600Y-10683240D01*
X14411960Y-10642600D02*
X14493240Y-10642600D01*
X14452600Y-11122660D02*
X14452600Y-11203940D01*
X14411960Y-11163300D02*
X14493240Y-11163300D01*
X14452600Y-11567160D02*
X14452600Y-11648440D01*
X14411960Y-11607800D02*
X14493240Y-11607800D01*
X14452600Y-11871960D02*
X14452600Y-11953240D01*
X14411960Y-11912600D02*
X14493240Y-11912600D01*
D11*
X5408819Y-12329676D02*
X5408819Y-12129676D01*
X5456438Y-12129676D01*
X5485010Y-12139200D01*
X5504057Y-12158248D01*
X5513581Y-12177295D01*
X5523105Y-12215390D01*
X5523105Y-12243962D01*
X5513581Y-12282057D01*
X5504057Y-12301105D01*
X5485010Y-12320152D01*
X5456438Y-12329676D01*
X5408819Y-12329676D01*
X5608819Y-12329676D02*
X5608819Y-12196343D01*
X5608819Y-12234438D02*
X5618343Y-12215390D01*
X5627867Y-12205867D01*
X5646914Y-12196343D01*
X5665962Y-12196343D01*
X5732628Y-12329676D02*
X5732628Y-12196343D01*
X5732628Y-12129676D02*
X5723105Y-12139200D01*
X5732628Y-12148724D01*
X5742152Y-12139200D01*
X5732628Y-12129676D01*
X5732628Y-12148724D01*
X5856438Y-12329676D02*
X5837390Y-12320152D01*
X5827867Y-12301105D01*
X5827867Y-12129676D01*
X5961200Y-12329676D02*
X5942152Y-12320152D01*
X5932628Y-12301105D01*
X5932628Y-12129676D01*
X6189771Y-12329676D02*
X6189771Y-12129676D01*
X6256438Y-12272533D01*
X6323105Y-12129676D01*
X6323105Y-12329676D01*
X6504057Y-12329676D02*
X6504057Y-12224914D01*
X6494533Y-12205867D01*
X6475486Y-12196343D01*
X6437390Y-12196343D01*
X6418343Y-12205867D01*
X6504057Y-12320152D02*
X6485009Y-12329676D01*
X6437390Y-12329676D01*
X6418343Y-12320152D01*
X6408819Y-12301105D01*
X6408819Y-12282057D01*
X6418343Y-12263009D01*
X6437390Y-12253486D01*
X6485009Y-12253486D01*
X6504057Y-12243962D01*
X6599295Y-12196343D02*
X6599295Y-12396343D01*
X6599295Y-12205867D02*
X6618343Y-12196343D01*
X6656438Y-12196343D01*
X6675486Y-12205867D01*
X6685009Y-12215390D01*
X6694533Y-12234438D01*
X6694533Y-12291581D01*
X6685009Y-12310628D01*
X6675486Y-12320152D01*
X6656438Y-12329676D01*
X6618343Y-12329676D01*
X6599295Y-12320152D01*
X6780248Y-12310628D02*
X6789771Y-12320152D01*
X6780248Y-12329676D01*
X6770724Y-12320152D01*
X6780248Y-12310628D01*
X6780248Y-12329676D01*
X6780248Y-12205867D02*
X6789771Y-12215390D01*
X6780248Y-12224914D01*
X6770724Y-12215390D01*
X6780248Y-12205867D01*
X6780248Y-12224914D01*
D12*
X5111200Y-12639200D02*
X5151200Y-12679200D01*
X5151200Y-12639200D02*
X5111200Y-12679200D01*
D11*
X5446914Y-12549676D02*
X5465962Y-12549676D01*
X5485010Y-12559200D01*
X5494533Y-12568724D01*
X5504057Y-12587771D01*
X5513581Y-12625867D01*
X5513581Y-12673486D01*
X5504057Y-12711581D01*
X5494533Y-12730628D01*
X5485010Y-12740152D01*
X5465962Y-12749676D01*
X5446914Y-12749676D01*
X5427867Y-12740152D01*
X5418343Y-12730628D01*
X5408819Y-12711581D01*
X5399295Y-12673486D01*
X5399295Y-12625867D01*
X5408819Y-12587771D01*
X5418343Y-12568724D01*
X5427867Y-12559200D01*
X5446914Y-12549676D01*
X5599295Y-12730628D02*
X5608819Y-12740152D01*
X5599295Y-12749676D01*
X5589771Y-12740152D01*
X5599295Y-12730628D01*
X5599295Y-12749676D01*
X5780248Y-12616343D02*
X5780248Y-12749676D01*
X5732628Y-12540152D02*
X5685009Y-12683009D01*
X5808819Y-12683009D01*
X5923105Y-12549676D02*
X5942152Y-12549676D01*
X5961200Y-12559200D01*
X5970724Y-12568724D01*
X5980248Y-12587771D01*
X5989771Y-12625867D01*
X5989771Y-12673486D01*
X5980248Y-12711581D01*
X5970724Y-12730628D01*
X5961200Y-12740152D01*
X5942152Y-12749676D01*
X5923105Y-12749676D01*
X5904057Y-12740152D01*
X5894533Y-12730628D01*
X5885009Y-12711581D01*
X5875486Y-12673486D01*
X5875486Y-12625867D01*
X5885009Y-12587771D01*
X5894533Y-12568724D01*
X5904057Y-12559200D01*
X5923105Y-12549676D01*
X6113581Y-12549676D02*
X6132628Y-12549676D01*
X6151676Y-12559200D01*
X6161200Y-12568724D01*
X6170724Y-12587771D01*
X6180248Y-12625867D01*
X6180248Y-12673486D01*
X6170724Y-12711581D01*
X6161200Y-12730628D01*
X6151676Y-12740152D01*
X6132628Y-12749676D01*
X6113581Y-12749676D01*
X6094533Y-12740152D01*
X6085009Y-12730628D01*
X6075486Y-12711581D01*
X6065962Y-12673486D01*
X6065962Y-12625867D01*
X6075486Y-12587771D01*
X6085009Y-12568724D01*
X6094533Y-12559200D01*
X6113581Y-12549676D01*
X6265962Y-12749676D02*
X6265962Y-12616343D01*
X6265962Y-12635390D02*
X6275486Y-12625867D01*
X6294533Y-12616343D01*
X6323105Y-12616343D01*
X6342152Y-12625867D01*
X6351676Y-12644914D01*
X6351676Y-12749676D01*
X6351676Y-12644914D02*
X6361200Y-12625867D01*
X6380248Y-12616343D01*
X6408819Y-12616343D01*
X6427867Y-12625867D01*
X6437390Y-12644914D01*
X6437390Y-12749676D01*
X6532628Y-12749676D02*
X6532628Y-12616343D01*
X6532628Y-12635390D02*
X6542152Y-12625867D01*
X6561200Y-12616343D01*
X6589771Y-12616343D01*
X6608819Y-12625867D01*
X6618343Y-12644914D01*
X6618343Y-12749676D01*
X6618343Y-12644914D02*
X6627867Y-12625867D01*
X6646914Y-12616343D01*
X6675486Y-12616343D01*
X6694533Y-12625867D01*
X6704057Y-12644914D01*
X6704057Y-12749676D01*
X7094533Y-12540152D02*
X6923105Y-12797295D01*
X7351676Y-12549676D02*
X7370724Y-12549676D01*
X7389771Y-12559200D01*
X7399295Y-12568724D01*
X7408819Y-12587771D01*
X7418343Y-12625867D01*
X7418343Y-12673486D01*
X7408819Y-12711581D01*
X7399295Y-12730628D01*
X7389771Y-12740152D01*
X7370724Y-12749676D01*
X7351676Y-12749676D01*
X7332628Y-12740152D01*
X7323105Y-12730628D01*
X7313581Y-12711581D01*
X7304057Y-12673486D01*
X7304057Y-12625867D01*
X7313581Y-12587771D01*
X7323105Y-12568724D01*
X7332628Y-12559200D01*
X7351676Y-12549676D01*
X7504057Y-12730628D02*
X7513581Y-12740152D01*
X7504057Y-12749676D01*
X7494533Y-12740152D01*
X7504057Y-12730628D01*
X7504057Y-12749676D01*
X7637390Y-12549676D02*
X7656438Y-12549676D01*
X7675486Y-12559200D01*
X7685009Y-12568724D01*
X7694533Y-12587771D01*
X7704057Y-12625867D01*
X7704057Y-12673486D01*
X7694533Y-12711581D01*
X7685009Y-12730628D01*
X7675486Y-12740152D01*
X7656438Y-12749676D01*
X7637390Y-12749676D01*
X7618343Y-12740152D01*
X7608819Y-12730628D01*
X7599295Y-12711581D01*
X7589771Y-12673486D01*
X7589771Y-12625867D01*
X7599295Y-12587771D01*
X7608819Y-12568724D01*
X7618343Y-12559200D01*
X7637390Y-12549676D01*
X7894533Y-12749676D02*
X7780248Y-12749676D01*
X7837390Y-12749676D02*
X7837390Y-12549676D01*
X7818343Y-12578248D01*
X7799295Y-12597295D01*
X7780248Y-12606819D01*
X8075486Y-12549676D02*
X7980248Y-12549676D01*
X7970724Y-12644914D01*
X7980248Y-12635390D01*
X7999295Y-12625867D01*
X8046914Y-12625867D01*
X8065962Y-12635390D01*
X8075486Y-12644914D01*
X8085009Y-12663962D01*
X8085009Y-12711581D01*
X8075486Y-12730628D01*
X8065962Y-12740152D01*
X8046914Y-12749676D01*
X7999295Y-12749676D01*
X7980248Y-12740152D01*
X7970724Y-12730628D01*
X8151676Y-12549676D02*
X8285009Y-12549676D01*
X8199295Y-12749676D01*
X8351676Y-12549676D02*
X8351676Y-12587771D01*
X8427867Y-12549676D02*
X8427867Y-12587771D01*
X8723105Y-12825867D02*
X8713581Y-12816343D01*
X8694533Y-12787771D01*
X8685010Y-12768724D01*
X8675486Y-12740152D01*
X8665962Y-12692533D01*
X8665962Y-12654438D01*
X8675486Y-12606819D01*
X8685010Y-12578248D01*
X8694533Y-12559200D01*
X8713581Y-12530628D01*
X8723105Y-12521105D01*
X8789771Y-12568724D02*
X8799295Y-12559200D01*
X8818343Y-12549676D01*
X8865962Y-12549676D01*
X8885010Y-12559200D01*
X8894533Y-12568724D01*
X8904057Y-12587771D01*
X8904057Y-12606819D01*
X8894533Y-12635390D01*
X8780248Y-12749676D01*
X8904057Y-12749676D01*
X9075486Y-12549676D02*
X9037390Y-12549676D01*
X9018343Y-12559200D01*
X9008819Y-12568724D01*
X8989771Y-12597295D01*
X8980248Y-12635390D01*
X8980248Y-12711581D01*
X8989771Y-12730628D01*
X8999295Y-12740152D01*
X9018343Y-12749676D01*
X9056438Y-12749676D01*
X9075486Y-12740152D01*
X9085010Y-12730628D01*
X9094533Y-12711581D01*
X9094533Y-12663962D01*
X9085010Y-12644914D01*
X9075486Y-12635390D01*
X9056438Y-12625867D01*
X9018343Y-12625867D01*
X8999295Y-12635390D01*
X8989771Y-12644914D01*
X8980248Y-12663962D01*
X9218343Y-12549676D02*
X9237390Y-12549676D01*
X9256438Y-12559200D01*
X9265962Y-12568724D01*
X9275486Y-12587771D01*
X9285010Y-12625867D01*
X9285010Y-12673486D01*
X9275486Y-12711581D01*
X9265962Y-12730628D01*
X9256438Y-12740152D01*
X9237390Y-12749676D01*
X9218343Y-12749676D01*
X9199295Y-12740152D01*
X9189771Y-12730628D01*
X9180248Y-12711581D01*
X9170724Y-12673486D01*
X9170724Y-12625867D01*
X9180248Y-12587771D01*
X9189771Y-12568724D01*
X9199295Y-12559200D01*
X9218343Y-12549676D01*
X9523105Y-12749676D02*
X9523105Y-12549676D01*
X9608819Y-12749676D02*
X9608819Y-12644914D01*
X9599295Y-12625867D01*
X9580248Y-12616343D01*
X9551676Y-12616343D01*
X9532629Y-12625867D01*
X9523105Y-12635390D01*
X9732629Y-12749676D02*
X9713581Y-12740152D01*
X9704057Y-12730628D01*
X9694533Y-12711581D01*
X9694533Y-12654438D01*
X9704057Y-12635390D01*
X9713581Y-12625867D01*
X9732629Y-12616343D01*
X9761200Y-12616343D01*
X9780248Y-12625867D01*
X9789771Y-12635390D01*
X9799295Y-12654438D01*
X9799295Y-12711581D01*
X9789771Y-12730628D01*
X9780248Y-12740152D01*
X9761200Y-12749676D01*
X9732629Y-12749676D01*
X9913581Y-12749676D02*
X9894533Y-12740152D01*
X9885010Y-12721105D01*
X9885010Y-12549676D01*
X10065962Y-12740152D02*
X10046914Y-12749676D01*
X10008819Y-12749676D01*
X9989771Y-12740152D01*
X9980248Y-12721105D01*
X9980248Y-12644914D01*
X9989771Y-12625867D01*
X10008819Y-12616343D01*
X10046914Y-12616343D01*
X10065962Y-12625867D01*
X10075486Y-12644914D01*
X10075486Y-12663962D01*
X9980248Y-12683009D01*
X10151676Y-12740152D02*
X10170724Y-12749676D01*
X10208819Y-12749676D01*
X10227867Y-12740152D01*
X10237390Y-12721105D01*
X10237390Y-12711581D01*
X10227867Y-12692533D01*
X10208819Y-12683009D01*
X10180248Y-12683009D01*
X10161200Y-12673486D01*
X10151676Y-12654438D01*
X10151676Y-12644914D01*
X10161200Y-12625867D01*
X10180248Y-12616343D01*
X10208819Y-12616343D01*
X10227867Y-12625867D01*
X10304057Y-12825867D02*
X10313581Y-12816343D01*
X10332629Y-12787771D01*
X10342152Y-12768724D01*
X10351676Y-12740152D01*
X10361200Y-12692533D01*
X10361200Y-12654438D01*
X10351676Y-12606819D01*
X10342152Y-12578248D01*
X10332629Y-12559200D01*
X10313581Y-12530628D01*
X10304057Y-12521105D01*
D13*
X5151200Y-12923200D02*
G75*
G03*
X5151200Y-12923200I-40000J0D01*
G01*
D11*
X5446914Y-12813676D02*
X5465962Y-12813676D01*
X5485010Y-12823200D01*
X5494533Y-12832724D01*
X5504057Y-12851771D01*
X5513581Y-12889867D01*
X5513581Y-12937486D01*
X5504057Y-12975581D01*
X5494533Y-12994628D01*
X5485010Y-13004152D01*
X5465962Y-13013676D01*
X5446914Y-13013676D01*
X5427867Y-13004152D01*
X5418343Y-12994628D01*
X5408819Y-12975581D01*
X5399295Y-12937486D01*
X5399295Y-12889867D01*
X5408819Y-12851771D01*
X5418343Y-12832724D01*
X5427867Y-12823200D01*
X5446914Y-12813676D01*
X5599295Y-12994628D02*
X5608819Y-13004152D01*
X5599295Y-13013676D01*
X5589771Y-13004152D01*
X5599295Y-12994628D01*
X5599295Y-13013676D01*
X5723105Y-12899390D02*
X5704057Y-12889867D01*
X5694533Y-12880343D01*
X5685009Y-12861295D01*
X5685009Y-12851771D01*
X5694533Y-12832724D01*
X5704057Y-12823200D01*
X5723105Y-12813676D01*
X5761200Y-12813676D01*
X5780248Y-12823200D01*
X5789771Y-12832724D01*
X5799295Y-12851771D01*
X5799295Y-12861295D01*
X5789771Y-12880343D01*
X5780248Y-12889867D01*
X5761200Y-12899390D01*
X5723105Y-12899390D01*
X5704057Y-12908914D01*
X5694533Y-12918438D01*
X5685009Y-12937486D01*
X5685009Y-12975581D01*
X5694533Y-12994628D01*
X5704057Y-13004152D01*
X5723105Y-13013676D01*
X5761200Y-13013676D01*
X5780248Y-13004152D01*
X5789771Y-12994628D01*
X5799295Y-12975581D01*
X5799295Y-12937486D01*
X5789771Y-12918438D01*
X5780248Y-12908914D01*
X5761200Y-12899390D01*
X5923105Y-12813676D02*
X5942152Y-12813676D01*
X5961200Y-12823200D01*
X5970724Y-12832724D01*
X5980248Y-12851771D01*
X5989771Y-12889867D01*
X5989771Y-12937486D01*
X5980248Y-12975581D01*
X5970724Y-12994628D01*
X5961200Y-13004152D01*
X5942152Y-13013676D01*
X5923105Y-13013676D01*
X5904057Y-13004152D01*
X5894533Y-12994628D01*
X5885009Y-12975581D01*
X5875486Y-12937486D01*
X5875486Y-12889867D01*
X5885009Y-12851771D01*
X5894533Y-12832724D01*
X5904057Y-12823200D01*
X5923105Y-12813676D01*
X6113581Y-12813676D02*
X6132628Y-12813676D01*
X6151676Y-12823200D01*
X6161200Y-12832724D01*
X6170724Y-12851771D01*
X6180248Y-12889867D01*
X6180248Y-12937486D01*
X6170724Y-12975581D01*
X6161200Y-12994628D01*
X6151676Y-13004152D01*
X6132628Y-13013676D01*
X6113581Y-13013676D01*
X6094533Y-13004152D01*
X6085009Y-12994628D01*
X6075486Y-12975581D01*
X6065962Y-12937486D01*
X6065962Y-12889867D01*
X6075486Y-12851771D01*
X6085009Y-12832724D01*
X6094533Y-12823200D01*
X6113581Y-12813676D01*
X6265962Y-13013676D02*
X6265962Y-12880343D01*
X6265962Y-12899390D02*
X6275486Y-12889867D01*
X6294533Y-12880343D01*
X6323105Y-12880343D01*
X6342152Y-12889867D01*
X6351676Y-12908914D01*
X6351676Y-13013676D01*
X6351676Y-12908914D02*
X6361200Y-12889867D01*
X6380248Y-12880343D01*
X6408819Y-12880343D01*
X6427867Y-12889867D01*
X6437390Y-12908914D01*
X6437390Y-13013676D01*
X6532628Y-13013676D02*
X6532628Y-12880343D01*
X6532628Y-12899390D02*
X6542152Y-12889867D01*
X6561200Y-12880343D01*
X6589771Y-12880343D01*
X6608819Y-12889867D01*
X6618343Y-12908914D01*
X6618343Y-13013676D01*
X6618343Y-12908914D02*
X6627867Y-12889867D01*
X6646914Y-12880343D01*
X6675486Y-12880343D01*
X6694533Y-12889867D01*
X6704057Y-12908914D01*
X6704057Y-13013676D01*
X7094533Y-12804152D02*
X6923105Y-13061295D01*
X7351676Y-12813676D02*
X7370724Y-12813676D01*
X7389771Y-12823200D01*
X7399295Y-12832724D01*
X7408819Y-12851771D01*
X7418343Y-12889867D01*
X7418343Y-12937486D01*
X7408819Y-12975581D01*
X7399295Y-12994628D01*
X7389771Y-13004152D01*
X7370724Y-13013676D01*
X7351676Y-13013676D01*
X7332628Y-13004152D01*
X7323105Y-12994628D01*
X7313581Y-12975581D01*
X7304057Y-12937486D01*
X7304057Y-12889867D01*
X7313581Y-12851771D01*
X7323105Y-12832724D01*
X7332628Y-12823200D01*
X7351676Y-12813676D01*
X7504057Y-12994628D02*
X7513581Y-13004152D01*
X7504057Y-13013676D01*
X7494533Y-13004152D01*
X7504057Y-12994628D01*
X7504057Y-13013676D01*
X7637390Y-12813676D02*
X7656438Y-12813676D01*
X7675486Y-12823200D01*
X7685009Y-12832724D01*
X7694533Y-12851771D01*
X7704057Y-12889867D01*
X7704057Y-12937486D01*
X7694533Y-12975581D01*
X7685009Y-12994628D01*
X7675486Y-13004152D01*
X7656438Y-13013676D01*
X7637390Y-13013676D01*
X7618343Y-13004152D01*
X7608819Y-12994628D01*
X7599295Y-12975581D01*
X7589771Y-12937486D01*
X7589771Y-12889867D01*
X7599295Y-12851771D01*
X7608819Y-12832724D01*
X7618343Y-12823200D01*
X7637390Y-12813676D01*
X7770724Y-12813676D02*
X7894533Y-12813676D01*
X7827867Y-12889867D01*
X7856438Y-12889867D01*
X7875486Y-12899390D01*
X7885009Y-12908914D01*
X7894533Y-12927962D01*
X7894533Y-12975581D01*
X7885009Y-12994628D01*
X7875486Y-13004152D01*
X7856438Y-13013676D01*
X7799295Y-13013676D01*
X7780248Y-13004152D01*
X7770724Y-12994628D01*
X8085009Y-13013676D02*
X7970724Y-13013676D01*
X8027867Y-13013676D02*
X8027867Y-12813676D01*
X8008819Y-12842248D01*
X7989771Y-12861295D01*
X7970724Y-12870819D01*
X8265962Y-12813676D02*
X8170724Y-12813676D01*
X8161200Y-12908914D01*
X8170724Y-12899390D01*
X8189771Y-12889867D01*
X8237390Y-12889867D01*
X8256438Y-12899390D01*
X8265962Y-12908914D01*
X8275486Y-12927962D01*
X8275486Y-12975581D01*
X8265962Y-12994628D01*
X8256438Y-13004152D01*
X8237390Y-13013676D01*
X8189771Y-13013676D01*
X8170724Y-13004152D01*
X8161200Y-12994628D01*
X8351676Y-12813676D02*
X8351676Y-12851771D01*
X8427867Y-12813676D02*
X8427867Y-12851771D01*
X8723105Y-13089867D02*
X8713581Y-13080343D01*
X8694533Y-13051771D01*
X8685010Y-13032724D01*
X8675486Y-13004152D01*
X8665962Y-12956533D01*
X8665962Y-12918438D01*
X8675486Y-12870819D01*
X8685010Y-12842248D01*
X8694533Y-12823200D01*
X8713581Y-12794628D01*
X8723105Y-12785105D01*
X8894533Y-12813676D02*
X8799295Y-12813676D01*
X8789771Y-12908914D01*
X8799295Y-12899390D01*
X8818343Y-12889867D01*
X8865962Y-12889867D01*
X8885010Y-12899390D01*
X8894533Y-12908914D01*
X8904057Y-12927962D01*
X8904057Y-12975581D01*
X8894533Y-12994628D01*
X8885010Y-13004152D01*
X8865962Y-13013676D01*
X8818343Y-13013676D01*
X8799295Y-13004152D01*
X8789771Y-12994628D01*
X9027867Y-12813676D02*
X9046914Y-12813676D01*
X9065962Y-12823200D01*
X9075486Y-12832724D01*
X9085010Y-12851771D01*
X9094533Y-12889867D01*
X9094533Y-12937486D01*
X9085010Y-12975581D01*
X9075486Y-12994628D01*
X9065962Y-13004152D01*
X9046914Y-13013676D01*
X9027867Y-13013676D01*
X9008819Y-13004152D01*
X8999295Y-12994628D01*
X8989771Y-12975581D01*
X8980248Y-12937486D01*
X8980248Y-12889867D01*
X8989771Y-12851771D01*
X8999295Y-12832724D01*
X9008819Y-12823200D01*
X9027867Y-12813676D01*
X9332629Y-13013676D02*
X9332629Y-12813676D01*
X9418343Y-13013676D02*
X9418343Y-12908914D01*
X9408819Y-12889867D01*
X9389771Y-12880343D01*
X9361200Y-12880343D01*
X9342152Y-12889867D01*
X9332629Y-12899390D01*
X9542152Y-13013676D02*
X9523105Y-13004152D01*
X9513581Y-12994628D01*
X9504057Y-12975581D01*
X9504057Y-12918438D01*
X9513581Y-12899390D01*
X9523105Y-12889867D01*
X9542152Y-12880343D01*
X9570724Y-12880343D01*
X9589771Y-12889867D01*
X9599295Y-12899390D01*
X9608819Y-12918438D01*
X9608819Y-12975581D01*
X9599295Y-12994628D01*
X9589771Y-13004152D01*
X9570724Y-13013676D01*
X9542152Y-13013676D01*
X9723105Y-13013676D02*
X9704057Y-13004152D01*
X9694533Y-12985105D01*
X9694533Y-12813676D01*
X9875486Y-13004152D02*
X9856438Y-13013676D01*
X9818343Y-13013676D01*
X9799295Y-13004152D01*
X9789771Y-12985105D01*
X9789771Y-12908914D01*
X9799295Y-12889867D01*
X9818343Y-12880343D01*
X9856438Y-12880343D01*
X9875486Y-12889867D01*
X9885010Y-12908914D01*
X9885010Y-12927962D01*
X9789771Y-12947009D01*
X9961200Y-13004152D02*
X9980248Y-13013676D01*
X10018343Y-13013676D01*
X10037390Y-13004152D01*
X10046914Y-12985105D01*
X10046914Y-12975581D01*
X10037390Y-12956533D01*
X10018343Y-12947009D01*
X9989771Y-12947009D01*
X9970724Y-12937486D01*
X9961200Y-12918438D01*
X9961200Y-12908914D01*
X9970724Y-12889867D01*
X9989771Y-12880343D01*
X10018343Y-12880343D01*
X10037390Y-12889867D01*
X10113581Y-13089867D02*
X10123105Y-13080343D01*
X10142152Y-13051771D01*
X10151676Y-13032724D01*
X10161200Y-13004152D01*
X10170724Y-12956533D01*
X10170724Y-12918438D01*
X10161200Y-12870819D01*
X10151676Y-12842248D01*
X10142152Y-12823200D01*
X10123105Y-12794628D01*
X10113581Y-12785105D01*
D14*
X5110560Y-13146560D02*
X5110560Y-13227840D01*
X5069920Y-13187200D02*
X5151200Y-13187200D01*
D11*
X5446914Y-13077676D02*
X5465962Y-13077676D01*
X5485010Y-13087200D01*
X5494533Y-13096724D01*
X5504057Y-13115771D01*
X5513581Y-13153867D01*
X5513581Y-13201486D01*
X5504057Y-13239581D01*
X5494533Y-13258628D01*
X5485010Y-13268152D01*
X5465962Y-13277676D01*
X5446914Y-13277676D01*
X5427867Y-13268152D01*
X5418343Y-13258628D01*
X5408819Y-13239581D01*
X5399295Y-13201486D01*
X5399295Y-13153867D01*
X5408819Y-13115771D01*
X5418343Y-13096724D01*
X5427867Y-13087200D01*
X5446914Y-13077676D01*
X5599295Y-13258628D02*
X5608819Y-13268152D01*
X5599295Y-13277676D01*
X5589771Y-13268152D01*
X5599295Y-13258628D01*
X5599295Y-13277676D01*
X5723105Y-13163390D02*
X5704057Y-13153867D01*
X5694533Y-13144343D01*
X5685009Y-13125295D01*
X5685009Y-13115771D01*
X5694533Y-13096724D01*
X5704057Y-13087200D01*
X5723105Y-13077676D01*
X5761200Y-13077676D01*
X5780248Y-13087200D01*
X5789771Y-13096724D01*
X5799295Y-13115771D01*
X5799295Y-13125295D01*
X5789771Y-13144343D01*
X5780248Y-13153867D01*
X5761200Y-13163390D01*
X5723105Y-13163390D01*
X5704057Y-13172914D01*
X5694533Y-13182438D01*
X5685009Y-13201486D01*
X5685009Y-13239581D01*
X5694533Y-13258628D01*
X5704057Y-13268152D01*
X5723105Y-13277676D01*
X5761200Y-13277676D01*
X5780248Y-13268152D01*
X5789771Y-13258628D01*
X5799295Y-13239581D01*
X5799295Y-13201486D01*
X5789771Y-13182438D01*
X5780248Y-13172914D01*
X5761200Y-13163390D01*
X5989771Y-13277676D02*
X5875486Y-13277676D01*
X5932628Y-13277676D02*
X5932628Y-13077676D01*
X5913581Y-13106248D01*
X5894533Y-13125295D01*
X5875486Y-13134819D01*
X6056438Y-13077676D02*
X6180248Y-13077676D01*
X6113581Y-13153867D01*
X6142152Y-13153867D01*
X6161200Y-13163390D01*
X6170724Y-13172914D01*
X6180248Y-13191962D01*
X6180248Y-13239581D01*
X6170724Y-13258628D01*
X6161200Y-13268152D01*
X6142152Y-13277676D01*
X6085009Y-13277676D01*
X6065962Y-13268152D01*
X6056438Y-13258628D01*
X6265962Y-13277676D02*
X6265962Y-13144343D01*
X6265962Y-13163390D02*
X6275486Y-13153867D01*
X6294533Y-13144343D01*
X6323105Y-13144343D01*
X6342152Y-13153867D01*
X6351676Y-13172914D01*
X6351676Y-13277676D01*
X6351676Y-13172914D02*
X6361200Y-13153867D01*
X6380248Y-13144343D01*
X6408819Y-13144343D01*
X6427867Y-13153867D01*
X6437390Y-13172914D01*
X6437390Y-13277676D01*
X6532628Y-13277676D02*
X6532628Y-13144343D01*
X6532628Y-13163390D02*
X6542152Y-13153867D01*
X6561200Y-13144343D01*
X6589771Y-13144343D01*
X6608819Y-13153867D01*
X6618343Y-13172914D01*
X6618343Y-13277676D01*
X6618343Y-13172914D02*
X6627867Y-13153867D01*
X6646914Y-13144343D01*
X6675486Y-13144343D01*
X6694533Y-13153867D01*
X6704057Y-13172914D01*
X6704057Y-13277676D01*
X7094533Y-13068152D02*
X6923105Y-13325295D01*
X7351676Y-13077676D02*
X7370724Y-13077676D01*
X7389771Y-13087200D01*
X7399295Y-13096724D01*
X7408819Y-13115771D01*
X7418343Y-13153867D01*
X7418343Y-13201486D01*
X7408819Y-13239581D01*
X7399295Y-13258628D01*
X7389771Y-13268152D01*
X7370724Y-13277676D01*
X7351676Y-13277676D01*
X7332628Y-13268152D01*
X7323105Y-13258628D01*
X7313581Y-13239581D01*
X7304057Y-13201486D01*
X7304057Y-13153867D01*
X7313581Y-13115771D01*
X7323105Y-13096724D01*
X7332628Y-13087200D01*
X7351676Y-13077676D01*
X7504057Y-13258628D02*
X7513581Y-13268152D01*
X7504057Y-13277676D01*
X7494533Y-13268152D01*
X7504057Y-13258628D01*
X7504057Y-13277676D01*
X7637390Y-13077676D02*
X7656438Y-13077676D01*
X7675486Y-13087200D01*
X7685009Y-13096724D01*
X7694533Y-13115771D01*
X7704057Y-13153867D01*
X7704057Y-13201486D01*
X7694533Y-13239581D01*
X7685009Y-13258628D01*
X7675486Y-13268152D01*
X7656438Y-13277676D01*
X7637390Y-13277676D01*
X7618343Y-13268152D01*
X7608819Y-13258628D01*
X7599295Y-13239581D01*
X7589771Y-13201486D01*
X7589771Y-13153867D01*
X7599295Y-13115771D01*
X7608819Y-13096724D01*
X7618343Y-13087200D01*
X7637390Y-13077676D01*
X7770724Y-13077676D02*
X7894533Y-13077676D01*
X7827867Y-13153867D01*
X7856438Y-13153867D01*
X7875486Y-13163390D01*
X7885009Y-13172914D01*
X7894533Y-13191962D01*
X7894533Y-13239581D01*
X7885009Y-13258628D01*
X7875486Y-13268152D01*
X7856438Y-13277676D01*
X7799295Y-13277676D01*
X7780248Y-13268152D01*
X7770724Y-13258628D01*
X7970724Y-13096724D02*
X7980248Y-13087200D01*
X7999295Y-13077676D01*
X8046914Y-13077676D01*
X8065962Y-13087200D01*
X8075486Y-13096724D01*
X8085009Y-13115771D01*
X8085009Y-13134819D01*
X8075486Y-13163390D01*
X7961200Y-13277676D01*
X8085009Y-13277676D01*
X8208819Y-13077676D02*
X8227867Y-13077676D01*
X8246914Y-13087200D01*
X8256438Y-13096724D01*
X8265962Y-13115771D01*
X8275486Y-13153867D01*
X8275486Y-13201486D01*
X8265962Y-13239581D01*
X8256438Y-13258628D01*
X8246914Y-13268152D01*
X8227867Y-13277676D01*
X8208819Y-13277676D01*
X8189771Y-13268152D01*
X8180248Y-13258628D01*
X8170724Y-13239581D01*
X8161200Y-13201486D01*
X8161200Y-13153867D01*
X8170724Y-13115771D01*
X8180248Y-13096724D01*
X8189771Y-13087200D01*
X8208819Y-13077676D01*
X8351676Y-13077676D02*
X8351676Y-13115771D01*
X8427867Y-13077676D02*
X8427867Y-13115771D01*
X8723105Y-13353867D02*
X8713581Y-13344343D01*
X8694533Y-13315771D01*
X8685010Y-13296724D01*
X8675486Y-13268152D01*
X8665962Y-13220533D01*
X8665962Y-13182438D01*
X8675486Y-13134819D01*
X8685010Y-13106248D01*
X8694533Y-13087200D01*
X8713581Y-13058628D01*
X8723105Y-13049105D01*
X8780248Y-13077676D02*
X8904057Y-13077676D01*
X8837390Y-13153867D01*
X8865962Y-13153867D01*
X8885010Y-13163390D01*
X8894533Y-13172914D01*
X8904057Y-13191962D01*
X8904057Y-13239581D01*
X8894533Y-13258628D01*
X8885010Y-13268152D01*
X8865962Y-13277676D01*
X8808819Y-13277676D01*
X8789771Y-13268152D01*
X8780248Y-13258628D01*
X9027867Y-13077676D02*
X9046914Y-13077676D01*
X9065962Y-13087200D01*
X9075486Y-13096724D01*
X9085010Y-13115771D01*
X9094533Y-13153867D01*
X9094533Y-13201486D01*
X9085010Y-13239581D01*
X9075486Y-13258628D01*
X9065962Y-13268152D01*
X9046914Y-13277676D01*
X9027867Y-13277676D01*
X9008819Y-13268152D01*
X8999295Y-13258628D01*
X8989771Y-13239581D01*
X8980248Y-13201486D01*
X8980248Y-13153867D01*
X8989771Y-13115771D01*
X8999295Y-13096724D01*
X9008819Y-13087200D01*
X9027867Y-13077676D01*
X9218343Y-13077676D02*
X9237390Y-13077676D01*
X9256438Y-13087200D01*
X9265962Y-13096724D01*
X9275486Y-13115771D01*
X9285010Y-13153867D01*
X9285010Y-13201486D01*
X9275486Y-13239581D01*
X9265962Y-13258628D01*
X9256438Y-13268152D01*
X9237390Y-13277676D01*
X9218343Y-13277676D01*
X9199295Y-13268152D01*
X9189771Y-13258628D01*
X9180248Y-13239581D01*
X9170724Y-13201486D01*
X9170724Y-13153867D01*
X9180248Y-13115771D01*
X9189771Y-13096724D01*
X9199295Y-13087200D01*
X9218343Y-13077676D01*
X9523105Y-13277676D02*
X9523105Y-13077676D01*
X9608819Y-13277676D02*
X9608819Y-13172914D01*
X9599295Y-13153867D01*
X9580248Y-13144343D01*
X9551676Y-13144343D01*
X9532629Y-13153867D01*
X9523105Y-13163390D01*
X9732629Y-13277676D02*
X9713581Y-13268152D01*
X9704057Y-13258628D01*
X9694533Y-13239581D01*
X9694533Y-13182438D01*
X9704057Y-13163390D01*
X9713581Y-13153867D01*
X9732629Y-13144343D01*
X9761200Y-13144343D01*
X9780248Y-13153867D01*
X9789771Y-13163390D01*
X9799295Y-13182438D01*
X9799295Y-13239581D01*
X9789771Y-13258628D01*
X9780248Y-13268152D01*
X9761200Y-13277676D01*
X9732629Y-13277676D01*
X9913581Y-13277676D02*
X9894533Y-13268152D01*
X9885010Y-13249105D01*
X9885010Y-13077676D01*
X10065962Y-13268152D02*
X10046914Y-13277676D01*
X10008819Y-13277676D01*
X9989771Y-13268152D01*
X9980248Y-13249105D01*
X9980248Y-13172914D01*
X9989771Y-13153867D01*
X10008819Y-13144343D01*
X10046914Y-13144343D01*
X10065962Y-13153867D01*
X10075486Y-13172914D01*
X10075486Y-13191962D01*
X9980248Y-13211009D01*
X10151676Y-13268152D02*
X10170724Y-13277676D01*
X10208819Y-13277676D01*
X10227867Y-13268152D01*
X10237390Y-13249105D01*
X10237390Y-13239581D01*
X10227867Y-13220533D01*
X10208819Y-13211009D01*
X10180248Y-13211009D01*
X10161200Y-13201486D01*
X10151676Y-13182438D01*
X10151676Y-13172914D01*
X10161200Y-13153867D01*
X10180248Y-13144343D01*
X10208819Y-13144343D01*
X10227867Y-13153867D01*
X10304057Y-13353867D02*
X10313581Y-13344343D01*
X10332629Y-13315771D01*
X10342152Y-13296724D01*
X10351676Y-13268152D01*
X10361200Y-13220533D01*
X10361200Y-13182438D01*
X10351676Y-13134819D01*
X10342152Y-13106248D01*
X10332629Y-13087200D01*
X10313581Y-13058628D01*
X10304057Y-13049105D01*
M02*
