%FSLAX45Y45*%
G04 Gerber Fmt 4.5, Leading zero omitted, Abs format (unit mm)*
G04 Created by KiCad (PCBNEW (6.0.0-0)) date 2022-01-08 22:40:48*
%MOMM*%
%LPD*%
G01*
G04 APERTURE LIST*
%TA.AperFunction,Profile*%
%ADD10C,0.100000*%
%TD*%
%ADD11C,0.200000*%
%ADD12C,0.190000*%
%ADD13C,0.300000*%
%ADD14C,0.410000*%
G04 APERTURE END LIST*
D10*
X4203700Y-8810625D02*
X4203700Y-10271125D01*
X5905500Y-12252325D02*
G75*
G03*
X5981700Y-12176125I3336J72864D01*
G01*
X10160000Y-6537325D02*
X9994900Y-6537325D01*
X6502400Y-8569325D02*
X7493000Y-8569325D01*
X4203700Y-4137025D02*
X4203700Y-3984625D01*
X11303000Y-8442325D02*
X10312400Y-8442325D01*
X8013700Y-4137025D02*
X8013700Y-4556125D01*
X12217400Y-6664325D02*
X13208000Y-6664325D01*
X5981700Y-8645525D02*
X5981700Y-8810625D01*
X4203700Y-4137025D02*
X4203700Y-4556125D01*
X4597400Y-4759325D02*
X5588000Y-4759325D01*
X8013700Y-7058025D02*
X7886700Y-7058025D01*
X9715500Y-10347325D02*
X9550400Y-10347325D01*
X6108700Y-11757025D02*
X6108700Y-12176125D01*
X4203700Y-6905625D02*
X4203700Y-8366125D01*
X6108700Y-6042025D02*
X6108700Y-6461125D01*
X4445000Y-8442325D02*
X4279900Y-8442325D01*
X9398000Y-8442325D02*
X8407400Y-8442325D01*
X13525500Y-6537325D02*
G75*
G03*
X13601700Y-6461125I3336J72864D01*
G01*
X11823700Y-5153025D02*
X11823700Y-5889625D01*
X13601700Y-2930525D02*
X13601700Y-4556125D01*
X11620500Y-4632325D02*
X11455400Y-4632325D01*
X7493000Y-6537325D02*
X6502400Y-6537325D01*
X9715500Y-10347325D02*
G75*
G03*
X9791700Y-10271125I3336J72864D01*
G01*
X9791700Y-11757025D02*
X9791700Y-12176125D01*
X8089900Y-8569325D02*
X8255000Y-8569325D01*
X11620500Y-4632325D02*
G75*
G03*
X11696700Y-4556125I3336J72864D01*
G01*
X11823700Y-4835525D02*
X11823700Y-5000625D01*
X9918700Y-6461125D02*
G75*
G03*
X9994900Y-6537325I72864J-3336D01*
G01*
X6108700Y-11757025D02*
X5981700Y-11757025D01*
X11823700Y-12176125D02*
G75*
G03*
X11899900Y-12252325I72864J-3336D01*
G01*
X6108700Y-8366125D02*
G75*
G03*
X6184900Y-8442325I72864J-3336D01*
G01*
X11823700Y-11757025D02*
X11823700Y-12176125D01*
X9918700Y-3248025D02*
X9918700Y-3984625D01*
X7886700Y-6740525D02*
X7886700Y-6905625D01*
X13525500Y-8442325D02*
X13360400Y-8442325D01*
X5981700Y-2930525D02*
G75*
G03*
X5905500Y-2854325I-72864J3336D01*
G01*
X11899900Y-4759325D02*
G75*
G03*
X11823700Y-4835525I-3336J-72864D01*
G01*
X9791700Y-5153025D02*
X9791700Y-5889625D01*
X11823700Y-8963025D02*
X11823700Y-9699625D01*
X13525500Y-10347325D02*
X13360400Y-10347325D01*
X9791700Y-7947025D02*
X9791700Y-8366125D01*
X9550400Y-4759325D02*
X9715500Y-4759325D01*
X9791700Y-2930525D02*
X9791700Y-3095625D01*
X11620500Y-12252325D02*
X9994900Y-12252325D01*
X6184900Y-8569325D02*
G75*
G03*
X6108700Y-8645525I-3336J-72864D01*
G01*
X11696700Y-7947025D02*
X11696700Y-8366125D01*
X5981700Y-9852025D02*
X5981700Y-10271125D01*
X10160000Y-4632325D02*
X9994900Y-4632325D01*
X6350000Y-4759325D02*
X6350000Y-4632325D01*
X4597400Y-6664325D02*
X5588000Y-6664325D01*
X8255000Y-6537325D02*
X8089900Y-6537325D01*
X9398000Y-6537325D02*
X8407400Y-6537325D01*
X5981700Y-8645525D02*
G75*
G03*
X5905500Y-8569325I-72864J3336D01*
G01*
X8013700Y-9699625D02*
X7886700Y-9699625D01*
X11620500Y-8442325D02*
X11455400Y-8442325D01*
X5740400Y-10474325D02*
X5905500Y-10474325D01*
X12065000Y-4632325D02*
X11899900Y-4632325D01*
X11823700Y-7058025D02*
X11823700Y-7794625D01*
X6108700Y-4556125D02*
G75*
G03*
X6184900Y-4632325I72864J-3336D01*
G01*
X12217400Y-8569325D02*
X13208000Y-8569325D01*
X6108700Y-12176125D02*
G75*
G03*
X6184900Y-12252325I72864J-3336D01*
G01*
X8255000Y-4632325D02*
X8089900Y-4632325D01*
X6108700Y-4137025D02*
X6108700Y-4556125D01*
X7493000Y-10347325D02*
X6502400Y-10347325D01*
X9791700Y-4835525D02*
G75*
G03*
X9715500Y-4759325I-72864J3336D01*
G01*
X11696700Y-8963025D02*
X11696700Y-9699625D01*
X9918700Y-5153025D02*
X9791700Y-5153025D01*
X6108700Y-2930525D02*
X6108700Y-3095625D01*
X4597400Y-10474325D02*
X5588000Y-10474325D01*
X11696700Y-10868025D02*
X11696700Y-11604625D01*
X6184900Y-10474325D02*
X6350000Y-10474325D01*
X8255000Y-10347325D02*
X8089900Y-10347325D01*
X4279900Y-8569325D02*
X4445000Y-8569325D01*
X9791700Y-2930525D02*
G75*
G03*
X9715500Y-2854325I-72864J3336D01*
G01*
X7886700Y-4137025D02*
X7886700Y-4556125D01*
X12065000Y-6537325D02*
X11899900Y-6537325D01*
X5740400Y-10474325D02*
X5740400Y-10347325D01*
X13601700Y-2930525D02*
G75*
G03*
X13525500Y-2854325I-72864J3336D01*
G01*
X9994900Y-6664325D02*
G75*
G03*
X9918700Y-6740525I-3336J-72864D01*
G01*
X8255000Y-10474325D02*
X8255000Y-10347325D01*
X5905500Y-10347325D02*
G75*
G03*
X5981700Y-10271125I3336J72864D01*
G01*
X9918700Y-9852025D02*
X9791700Y-9852025D01*
X5740400Y-6664325D02*
X5740400Y-6537325D01*
X6350000Y-8569325D02*
X6350000Y-8442325D01*
X13360400Y-6664325D02*
X13360400Y-6537325D01*
X6350000Y-10347325D02*
X6184900Y-10347325D01*
X9715500Y-8442325D02*
G75*
G03*
X9791700Y-8366125I3336J72864D01*
G01*
X7886700Y-10550525D02*
G75*
G03*
X7810500Y-10474325I-72864J3336D01*
G01*
X6108700Y-10868025D02*
X6108700Y-11604625D01*
X6184900Y-4759325D02*
G75*
G03*
X6108700Y-4835525I-3336J-72864D01*
G01*
X7493000Y-8442325D02*
X6502400Y-8442325D01*
X11899900Y-2854325D02*
X13525500Y-2854325D01*
X4203700Y-10715625D02*
X4203700Y-12176125D01*
X6350000Y-10474325D02*
X6350000Y-10347325D01*
X9918700Y-10550525D02*
X9918700Y-10715625D01*
X9550400Y-6664325D02*
X9715500Y-6664325D01*
X6108700Y-3248025D02*
X5981700Y-3248025D01*
X4203700Y-3095625D02*
X4203700Y-3248025D01*
X5905500Y-10347325D02*
X5740400Y-10347325D01*
X11899900Y-10474325D02*
G75*
G03*
X11823700Y-10550525I-3336J-72864D01*
G01*
X5981700Y-7058025D02*
X5981700Y-7794625D01*
X6108700Y-3095625D02*
X5981700Y-3095625D01*
X4203700Y-5000625D02*
X4203700Y-6461125D01*
X11620500Y-10347325D02*
G75*
G03*
X11696700Y-10271125I3336J72864D01*
G01*
X5588000Y-8442325D02*
X4597400Y-8442325D01*
X11620500Y-12252325D02*
G75*
G03*
X11696700Y-12176125I3336J72864D01*
G01*
X9918700Y-8963025D02*
X9918700Y-9699625D01*
X6108700Y-11604625D02*
X5981700Y-11604625D01*
X9791700Y-9852025D02*
X9791700Y-10271125D01*
X12217400Y-4759325D02*
X13208000Y-4759325D01*
X13360400Y-6664325D02*
X13525500Y-6664325D01*
X4279900Y-4759325D02*
X4445000Y-4759325D01*
X11696700Y-11757025D02*
X11696700Y-12176125D01*
X8013700Y-12176125D02*
G75*
G03*
X8089900Y-12252325I72864J-3336D01*
G01*
X5981700Y-7947025D02*
X5981700Y-8366125D01*
X4279900Y-6664325D02*
X4445000Y-6664325D01*
X10312400Y-8569325D02*
X11303000Y-8569325D01*
X7886700Y-2930525D02*
G75*
G03*
X7810500Y-2854325I-72864J3336D01*
G01*
X7886700Y-10868025D02*
X7886700Y-11604625D01*
X11455400Y-10474325D02*
X11455400Y-10347325D01*
X5905500Y-6537325D02*
X5740400Y-6537325D01*
X4279900Y-2854325D02*
G75*
G03*
X4203700Y-2930525I-3336J-72864D01*
G01*
X9994900Y-2854325D02*
X11620500Y-2854325D01*
X11696700Y-6740525D02*
X11696700Y-6905625D01*
X9398000Y-4759325D02*
X9398000Y-4632325D01*
X11823700Y-5000625D02*
X11696700Y-5000625D01*
X11823700Y-8366125D02*
G75*
G03*
X11899900Y-8442325I72864J-3336D01*
G01*
X7886700Y-11757025D02*
X7886700Y-12176125D01*
X9398000Y-8569325D02*
X9398000Y-8442325D01*
X11303000Y-4632325D02*
X10312400Y-4632325D01*
X11696700Y-4137025D02*
X11696700Y-4556125D01*
X8407400Y-4759325D02*
X9398000Y-4759325D01*
X5740400Y-8569325D02*
X5905500Y-8569325D01*
X8013700Y-8366125D02*
G75*
G03*
X8089900Y-8442325I72864J-3336D01*
G01*
X13601700Y-6740525D02*
G75*
G03*
X13525500Y-6664325I-72864J3336D01*
G01*
X10312400Y-6664325D02*
X11303000Y-6664325D01*
X4203700Y-10271125D02*
G75*
G03*
X4279900Y-10347325I72864J-3336D01*
G01*
X4445000Y-4632325D02*
X4279900Y-4632325D01*
X13208000Y-4632325D02*
X12217400Y-4632325D01*
X5981700Y-6740525D02*
G75*
G03*
X5905500Y-6664325I-72864J3336D01*
G01*
X13525500Y-10347325D02*
G75*
G03*
X13601700Y-10271125I3336J72864D01*
G01*
X8255000Y-8569325D02*
X8255000Y-8442325D01*
X13360400Y-4759325D02*
X13360400Y-4632325D01*
X5905500Y-4632325D02*
X5740400Y-4632325D01*
X6184900Y-2854325D02*
X7810500Y-2854325D01*
X9918700Y-7947025D02*
X9791700Y-7947025D01*
X8089900Y-4759325D02*
X8255000Y-4759325D01*
X10160000Y-10347325D02*
X9994900Y-10347325D01*
X9398000Y-4632325D02*
X8407400Y-4632325D01*
X11696700Y-2930525D02*
G75*
G03*
X11620500Y-2854325I-72864J3336D01*
G01*
X6350000Y-4632325D02*
X6184900Y-4632325D01*
X13601700Y-10550525D02*
G75*
G03*
X13525500Y-10474325I-72864J3336D01*
G01*
X9791700Y-4137025D02*
X9791700Y-4556125D01*
X10312400Y-10474325D02*
X11303000Y-10474325D01*
X13601700Y-4835525D02*
G75*
G03*
X13525500Y-4759325I-72864J3336D01*
G01*
X12065000Y-4759325D02*
X12065000Y-4632325D01*
X11696700Y-5153025D02*
X11696700Y-5889625D01*
X4203700Y-6461125D02*
G75*
G03*
X4279900Y-6537325I72864J-3336D01*
G01*
X8089900Y-6664325D02*
X8255000Y-6664325D01*
X11823700Y-10550525D02*
X11823700Y-10715625D01*
X6108700Y-5000625D02*
X5981700Y-5000625D01*
X11696700Y-9852025D02*
X11696700Y-10271125D01*
X8013700Y-8645525D02*
X8013700Y-8810625D01*
X11823700Y-9699625D02*
X11696700Y-9699625D01*
X9791700Y-6042025D02*
X9791700Y-6461125D01*
X11899900Y-10474325D02*
X12065000Y-10474325D01*
X9918700Y-10715625D02*
X9791700Y-10715625D01*
X11696700Y-4835525D02*
G75*
G03*
X11620500Y-4759325I-72864J3336D01*
G01*
X9791700Y-10550525D02*
G75*
G03*
X9715500Y-10474325I-72864J3336D01*
G01*
X4203700Y-2930525D02*
X4203700Y-3095625D01*
X10160000Y-10474325D02*
X10160000Y-10347325D01*
X11303000Y-10347325D02*
X10312400Y-10347325D01*
X9994900Y-8569325D02*
X10160000Y-8569325D01*
X8255000Y-8442325D02*
X8089900Y-8442325D01*
X13525500Y-4632325D02*
X13360400Y-4632325D01*
X9918700Y-5000625D02*
X9791700Y-5000625D01*
X4203700Y-8366125D02*
G75*
G03*
X4279900Y-8442325I72864J-3336D01*
G01*
X7886700Y-9852025D02*
X7886700Y-10271125D01*
X5981700Y-2930525D02*
X5981700Y-3095625D01*
X13525500Y-6537325D02*
X13360400Y-6537325D01*
X6108700Y-9699625D02*
X5981700Y-9699625D01*
X5905500Y-12252325D02*
X4279900Y-12252325D01*
X9791700Y-8645525D02*
X9791700Y-8810625D01*
X6108700Y-8810625D02*
X5981700Y-8810625D01*
X7810500Y-8442325D02*
G75*
G03*
X7886700Y-8366125I3336J72864D01*
G01*
X8089900Y-2854325D02*
G75*
G03*
X8013700Y-2930525I-3336J-72864D01*
G01*
X4597400Y-6664325D02*
X4597400Y-6537325D01*
X11823700Y-6042025D02*
X11823700Y-6461125D01*
X4445000Y-6537325D02*
X4279900Y-6537325D01*
X7645400Y-6664325D02*
X7810500Y-6664325D01*
X8013700Y-10868025D02*
X8013700Y-11604625D01*
X5740400Y-4759325D02*
X5740400Y-4632325D01*
X11303000Y-6664325D02*
X11303000Y-6537325D01*
X6502400Y-10474325D02*
X7493000Y-10474325D01*
X8013700Y-11604625D02*
X7886700Y-11604625D01*
X9715500Y-6537325D02*
X9550400Y-6537325D01*
X6184900Y-2854325D02*
G75*
G03*
X6108700Y-2930525I-3336J-72864D01*
G01*
X4445000Y-10474325D02*
X4445000Y-10347325D01*
X8089900Y-10474325D02*
G75*
G03*
X8013700Y-10550525I-3336J-72864D01*
G01*
X6350000Y-6537325D02*
X6184900Y-6537325D01*
X8013700Y-5153025D02*
X8013700Y-5889625D01*
X6108700Y-10715625D02*
X5981700Y-10715625D01*
X4203700Y-4556125D02*
G75*
G03*
X4279900Y-4632325I72864J-3336D01*
G01*
X11620500Y-6537325D02*
X11455400Y-6537325D01*
X6108700Y-4137025D02*
X5981700Y-4137025D01*
X9918700Y-6740525D02*
X9918700Y-6905625D01*
X11823700Y-10271125D02*
G75*
G03*
X11899900Y-10347325I72864J-3336D01*
G01*
X13208000Y-8442325D02*
X12217400Y-8442325D01*
X13360400Y-8569325D02*
X13360400Y-8442325D01*
X4203700Y-8645525D02*
X4203700Y-8810625D01*
X8089900Y-2854325D02*
X9715500Y-2854325D01*
X7810500Y-6537325D02*
G75*
G03*
X7886700Y-6461125I3336J72864D01*
G01*
X6108700Y-5889625D02*
X5981700Y-5889625D01*
X5981700Y-10550525D02*
G75*
G03*
X5905500Y-10474325I-72864J3336D01*
G01*
X11696700Y-10550525D02*
G75*
G03*
X11620500Y-10474325I-72864J3336D01*
G01*
X6108700Y-6740525D02*
X6108700Y-6905625D01*
X8255000Y-6664325D02*
X8255000Y-6537325D01*
X7886700Y-4835525D02*
X7886700Y-5000625D01*
X6108700Y-6461125D02*
G75*
G03*
X6184900Y-6537325I72864J-3336D01*
G01*
X4597400Y-8569325D02*
X4597400Y-8442325D01*
X11455400Y-6664325D02*
X11620500Y-6664325D01*
X4445000Y-10347325D02*
X4279900Y-10347325D01*
X6502400Y-4759325D02*
X6502400Y-4632325D01*
X13208000Y-10474325D02*
X13208000Y-10347325D01*
X11823700Y-2930525D02*
X11823700Y-3095625D01*
X8013700Y-6042025D02*
X8013700Y-6461125D01*
X8013700Y-11757025D02*
X8013700Y-12176125D01*
X5588000Y-4632325D02*
X4597400Y-4632325D01*
X11823700Y-9852025D02*
X11823700Y-10271125D01*
X8013700Y-4556125D02*
G75*
G03*
X8089900Y-4632325I72864J-3336D01*
G01*
X8407400Y-10474325D02*
X8407400Y-10347325D01*
X7886700Y-2930525D02*
X7886700Y-3095625D01*
X6108700Y-7794625D02*
X5981700Y-7794625D01*
X13208000Y-8569325D02*
X13208000Y-8442325D01*
X13360400Y-4759325D02*
X13525500Y-4759325D01*
X5981700Y-4137025D02*
X5981700Y-4556125D01*
X6108700Y-6905625D02*
X5981700Y-6905625D01*
X4203700Y-6740525D02*
X4203700Y-6905625D01*
X5588000Y-6537325D02*
X4597400Y-6537325D01*
X5740400Y-4759325D02*
X5905500Y-4759325D01*
X11823700Y-11604625D02*
X11696700Y-11604625D01*
X9715500Y-12252325D02*
X8089900Y-12252325D01*
X8089900Y-10474325D02*
X8255000Y-10474325D01*
X11823700Y-7058025D02*
X11696700Y-7058025D01*
X9715500Y-4632325D02*
G75*
G03*
X9791700Y-4556125I3336J72864D01*
G01*
X8407400Y-8569325D02*
X8407400Y-8442325D01*
X4597400Y-4759325D02*
X4597400Y-4632325D01*
X6184900Y-10474325D02*
G75*
G03*
X6108700Y-10550525I-3336J-72864D01*
G01*
X8013700Y-7947025D02*
X8013700Y-8366125D01*
X9715500Y-6537325D02*
G75*
G03*
X9791700Y-6461125I3336J72864D01*
G01*
X6502400Y-8569325D02*
X6502400Y-8442325D01*
X9918700Y-11604625D02*
X9791700Y-11604625D01*
X7810500Y-10347325D02*
X7645400Y-10347325D01*
X6350000Y-6664325D02*
X6350000Y-6537325D01*
X8013700Y-6905625D02*
X7886700Y-6905625D01*
X6502400Y-4759325D02*
X7493000Y-4759325D01*
X11455400Y-10474325D02*
X11620500Y-10474325D01*
X8013700Y-10271125D02*
G75*
G03*
X8089900Y-10347325I72864J-3336D01*
G01*
X9918700Y-4137025D02*
X9918700Y-4556125D01*
X5588000Y-8569325D02*
X5588000Y-8442325D01*
X8407400Y-10474325D02*
X9398000Y-10474325D01*
X4203700Y-10550525D02*
X4203700Y-10715625D01*
X9715500Y-12252325D02*
G75*
G03*
X9791700Y-12176125I3336J72864D01*
G01*
X6502400Y-6664325D02*
X7493000Y-6664325D01*
X9918700Y-4137025D02*
X9791700Y-4137025D01*
X9918700Y-11757025D02*
X9918700Y-12176125D01*
X8407400Y-6664325D02*
X9398000Y-6664325D01*
X7886700Y-8645525D02*
X7886700Y-8810625D01*
X9791700Y-6740525D02*
X9791700Y-6905625D01*
X9994900Y-4759325D02*
G75*
G03*
X9918700Y-4835525I-3336J-72864D01*
G01*
X5588000Y-4759325D02*
X5588000Y-4632325D01*
X6108700Y-9852025D02*
X6108700Y-10271125D01*
X8013700Y-10868025D02*
X7886700Y-10868025D01*
X5981700Y-6042025D02*
X5981700Y-6461125D01*
X13208000Y-4759325D02*
X13208000Y-4632325D01*
X8407400Y-8569325D02*
X9398000Y-8569325D01*
X11696700Y-6042025D02*
X11696700Y-6461125D01*
X7810500Y-12252325D02*
X6184900Y-12252325D01*
X7886700Y-6740525D02*
G75*
G03*
X7810500Y-6664325I-72864J3336D01*
G01*
X5981700Y-4835525D02*
G75*
G03*
X5905500Y-4759325I-72864J3336D01*
G01*
X9918700Y-10271125D02*
G75*
G03*
X9994900Y-10347325I72864J-3336D01*
G01*
X7886700Y-8645525D02*
G75*
G03*
X7810500Y-8569325I-72864J3336D01*
G01*
X4597400Y-10474325D02*
X4597400Y-10347325D01*
X9791700Y-6740525D02*
G75*
G03*
X9715500Y-6664325I-72864J3336D01*
G01*
X13208000Y-6537325D02*
X12217400Y-6537325D01*
X9791700Y-8645525D02*
G75*
G03*
X9715500Y-8569325I-72864J3336D01*
G01*
X8089900Y-6664325D02*
G75*
G03*
X8013700Y-6740525I-3336J-72864D01*
G01*
X11303000Y-6537325D02*
X10312400Y-6537325D01*
X11696700Y-8645525D02*
X11696700Y-8810625D01*
X9918700Y-7058025D02*
X9918700Y-7794625D01*
X11823700Y-10868025D02*
X11823700Y-11604625D01*
X8089900Y-4759325D02*
G75*
G03*
X8013700Y-4835525I-3336J-72864D01*
G01*
X11823700Y-10715625D02*
X11696700Y-10715625D01*
X11823700Y-8963025D02*
X11696700Y-8963025D01*
X9918700Y-3248025D02*
X9791700Y-3248025D01*
X12065000Y-6664325D02*
X12065000Y-6537325D01*
X4279900Y-8569325D02*
G75*
G03*
X4203700Y-8645525I-3336J-72864D01*
G01*
X11823700Y-3984625D02*
X11696700Y-3984625D01*
X11823700Y-6740525D02*
X11823700Y-6905625D01*
X4279900Y-4759325D02*
G75*
G03*
X4203700Y-4835525I-3336J-72864D01*
G01*
X6184900Y-6664325D02*
G75*
G03*
X6108700Y-6740525I-3336J-72864D01*
G01*
X8013700Y-4835525D02*
X8013700Y-5000625D01*
X6108700Y-7947025D02*
X5981700Y-7947025D01*
X9994900Y-8569325D02*
G75*
G03*
X9918700Y-8645525I-3336J-72864D01*
G01*
X6184900Y-6664325D02*
X6350000Y-6664325D01*
X5740400Y-6664325D02*
X5905500Y-6664325D01*
X9550400Y-8569325D02*
X9550400Y-8442325D01*
X6108700Y-3984625D02*
X5981700Y-3984625D01*
X6184900Y-4759325D02*
X6350000Y-4759325D01*
X9550400Y-8569325D02*
X9715500Y-8569325D01*
X7886700Y-7058025D02*
X7886700Y-7794625D01*
X9918700Y-9699625D02*
X9791700Y-9699625D01*
X9918700Y-3984625D02*
X9791700Y-3984625D01*
X13601700Y-6740525D02*
X13601700Y-8366125D01*
X6108700Y-8645525D02*
X6108700Y-8810625D01*
X7810500Y-4632325D02*
X7645400Y-4632325D01*
X11696700Y-7058025D02*
X11696700Y-7794625D01*
X9994900Y-10474325D02*
G75*
G03*
X9918700Y-10550525I-3336J-72864D01*
G01*
X8013700Y-6042025D02*
X7886700Y-6042025D01*
X5740400Y-8569325D02*
X5740400Y-8442325D01*
X5905500Y-8442325D02*
X5740400Y-8442325D01*
X4279900Y-10474325D02*
G75*
G03*
X4203700Y-10550525I-3336J-72864D01*
G01*
X13525500Y-4632325D02*
G75*
G03*
X13601700Y-4556125I3336J72864D01*
G01*
X9994900Y-10474325D02*
X10160000Y-10474325D01*
X9918700Y-2930525D02*
X9918700Y-3095625D01*
X13601700Y-10550525D02*
X13601700Y-12176125D01*
X11823700Y-7794625D02*
X11696700Y-7794625D01*
X9918700Y-4556125D02*
G75*
G03*
X9994900Y-4632325I72864J-3336D01*
G01*
X7493000Y-8569325D02*
X7493000Y-8442325D01*
X11696700Y-2930525D02*
X11696700Y-3095625D01*
X8407400Y-6664325D02*
X8407400Y-6537325D01*
X5905500Y-8442325D02*
G75*
G03*
X5981700Y-8366125I3336J72864D01*
G01*
X9791700Y-7058025D02*
X9791700Y-7794625D01*
X11823700Y-6461125D02*
G75*
G03*
X11899900Y-6537325I72864J-3336D01*
G01*
X8013700Y-5153025D02*
X7886700Y-5153025D01*
X13525500Y-12252325D02*
G75*
G03*
X13601700Y-12176125I3336J72864D01*
G01*
X8013700Y-5000625D02*
X7886700Y-5000625D01*
X4203700Y-4835525D02*
X4203700Y-5000625D01*
X7810500Y-10347325D02*
G75*
G03*
X7886700Y-10271125I3336J72864D01*
G01*
X10160000Y-4759325D02*
X10160000Y-4632325D01*
X9994900Y-4759325D02*
X10160000Y-4759325D01*
X11455400Y-6664325D02*
X11455400Y-6537325D01*
X7886700Y-7947025D02*
X7886700Y-8366125D01*
X9918700Y-8810625D02*
X9791700Y-8810625D01*
X11823700Y-8810625D02*
X11696700Y-8810625D01*
X11823700Y-7947025D02*
X11696700Y-7947025D01*
X7810500Y-6537325D02*
X7645400Y-6537325D01*
X12065000Y-8442325D02*
X11899900Y-8442325D01*
X9791700Y-10868025D02*
X9791700Y-11604625D01*
X5981700Y-11757025D02*
X5981700Y-12176125D01*
X8407400Y-4759325D02*
X8407400Y-4632325D01*
X7810500Y-12252325D02*
G75*
G03*
X7886700Y-12176125I3336J72864D01*
G01*
X11823700Y-6042025D02*
X11696700Y-6042025D01*
X11899900Y-8569325D02*
G75*
G03*
X11823700Y-8645525I-3336J-72864D01*
G01*
X7493000Y-4632325D02*
X6502400Y-4632325D01*
X7645400Y-8569325D02*
X7810500Y-8569325D01*
X11823700Y-10868025D02*
X11696700Y-10868025D01*
X4597400Y-8569325D02*
X5588000Y-8569325D01*
X7645400Y-4759325D02*
X7810500Y-4759325D01*
X10160000Y-8569325D02*
X10160000Y-8442325D01*
X8013700Y-10550525D02*
X8013700Y-10715625D01*
X4445000Y-8569325D02*
X4445000Y-8442325D01*
X9550400Y-4759325D02*
X9550400Y-4632325D01*
X11823700Y-4137025D02*
X11823700Y-4556125D01*
X5981700Y-8963025D02*
X5981700Y-9699625D01*
X6108700Y-4835525D02*
X6108700Y-5000625D01*
X6502400Y-6664325D02*
X6502400Y-6537325D01*
X8089900Y-8569325D02*
G75*
G03*
X8013700Y-8645525I-3336J-72864D01*
G01*
X9550400Y-10474325D02*
X9550400Y-10347325D01*
X8013700Y-8810625D02*
X7886700Y-8810625D01*
X10312400Y-10474325D02*
X10312400Y-10347325D01*
X5981700Y-5153025D02*
X5981700Y-5889625D01*
X11303000Y-8569325D02*
X11303000Y-8442325D01*
X9918700Y-7058025D02*
X9791700Y-7058025D01*
X4279900Y-2854325D02*
X5905500Y-2854325D01*
X4445000Y-6664325D02*
X4445000Y-6537325D01*
X11620500Y-8442325D02*
G75*
G03*
X11696700Y-8366125I3336J72864D01*
G01*
X9715500Y-4632325D02*
X9550400Y-4632325D01*
X6502400Y-10474325D02*
X6502400Y-10347325D01*
X11823700Y-4137025D02*
X11696700Y-4137025D01*
X8013700Y-8963025D02*
X7886700Y-8963025D01*
X5588000Y-6664325D02*
X5588000Y-6537325D01*
X6184900Y-8569325D02*
X6350000Y-8569325D01*
X11899900Y-8569325D02*
X12065000Y-8569325D01*
X13525500Y-8442325D02*
G75*
G03*
X13601700Y-8366125I3336J72864D01*
G01*
X11823700Y-8645525D02*
X11823700Y-8810625D01*
X8013700Y-7058025D02*
X8013700Y-7794625D01*
X13360400Y-8569325D02*
X13525500Y-8569325D01*
X8013700Y-8963025D02*
X8013700Y-9699625D01*
X5588000Y-10347325D02*
X4597400Y-10347325D01*
X11455400Y-8569325D02*
X11620500Y-8569325D01*
X9791700Y-10550525D02*
X9791700Y-10715625D01*
X12065000Y-10474325D02*
X12065000Y-10347325D01*
X9918700Y-6905625D02*
X9791700Y-6905625D01*
X9918700Y-10868025D02*
X9791700Y-10868025D01*
X9918700Y-8963025D02*
X9791700Y-8963025D01*
X11823700Y-5153025D02*
X11696700Y-5153025D01*
X9398000Y-10347325D02*
X8407400Y-10347325D01*
X10312400Y-4759325D02*
X10312400Y-4632325D01*
X10312400Y-6664325D02*
X10312400Y-6537325D01*
X5905500Y-6537325D02*
G75*
G03*
X5981700Y-6461125I3336J72864D01*
G01*
X11823700Y-9852025D02*
X11696700Y-9852025D01*
X9398000Y-10474325D02*
X9398000Y-10347325D01*
X11696700Y-8645525D02*
G75*
G03*
X11620500Y-8569325I-72864J3336D01*
G01*
X9918700Y-12176125D02*
G75*
G03*
X9994900Y-12252325I72864J-3336D01*
G01*
X11823700Y-4556125D02*
G75*
G03*
X11899900Y-4632325I72864J-3336D01*
G01*
X12217400Y-10474325D02*
X13208000Y-10474325D01*
X9918700Y-8645525D02*
X9918700Y-8810625D01*
X4445000Y-4759325D02*
X4445000Y-4632325D01*
X6108700Y-3248025D02*
X6108700Y-3984625D01*
X11455400Y-4759325D02*
X11455400Y-4632325D01*
X8013700Y-3248025D02*
X7886700Y-3248025D01*
X11696700Y-3248025D02*
X11696700Y-3984625D01*
X12217400Y-8569325D02*
X12217400Y-8442325D01*
X13601700Y-8645525D02*
X13601700Y-10271125D01*
X8013700Y-6740525D02*
X8013700Y-6905625D01*
X13601700Y-4835525D02*
X13601700Y-6461125D01*
X13208000Y-6664325D02*
X13208000Y-6537325D01*
X9918700Y-6042025D02*
X9918700Y-6461125D01*
X6350000Y-8442325D02*
X6184900Y-8442325D01*
X11823700Y-3248025D02*
X11823700Y-3984625D01*
X7493000Y-6664325D02*
X7493000Y-6537325D01*
X11899900Y-6664325D02*
X12065000Y-6664325D01*
X9918700Y-7794625D02*
X9791700Y-7794625D01*
X7886700Y-4835525D02*
G75*
G03*
X7810500Y-4759325I-72864J3336D01*
G01*
X9994900Y-6664325D02*
X10160000Y-6664325D01*
X7645400Y-8569325D02*
X7645400Y-8442325D01*
X9994900Y-2854325D02*
G75*
G03*
X9918700Y-2930525I-3336J-72864D01*
G01*
X8013700Y-5889625D02*
X7886700Y-5889625D01*
X11455400Y-8569325D02*
X11455400Y-8442325D01*
X12065000Y-10347325D02*
X11899900Y-10347325D01*
X7810500Y-4632325D02*
G75*
G03*
X7886700Y-4556125I3336J72864D01*
G01*
X13208000Y-10347325D02*
X12217400Y-10347325D01*
X6108700Y-10868025D02*
X5981700Y-10868025D01*
X8013700Y-3095625D02*
X7886700Y-3095625D01*
X7886700Y-5153025D02*
X7886700Y-5889625D01*
X8013700Y-6461125D02*
G75*
G03*
X8089900Y-6537325I72864J-3336D01*
G01*
X8255000Y-4759325D02*
X8255000Y-4632325D01*
X8013700Y-3248025D02*
X8013700Y-3984625D01*
X11620500Y-6537325D02*
G75*
G03*
X11696700Y-6461125I3336J72864D01*
G01*
X5981700Y-3248025D02*
X5981700Y-3984625D01*
X7886700Y-3248025D02*
X7886700Y-3984625D01*
X12217400Y-10474325D02*
X12217400Y-10347325D01*
X13525500Y-12252325D02*
X11899900Y-12252325D01*
X7645400Y-6664325D02*
X7645400Y-6537325D01*
X4279900Y-6664325D02*
G75*
G03*
X4203700Y-6740525I-3336J-72864D01*
G01*
X9918700Y-7947025D02*
X9918700Y-8366125D01*
X9918700Y-5153025D02*
X9918700Y-5889625D01*
X13360400Y-10474325D02*
X13525500Y-10474325D01*
X8013700Y-10715625D02*
X7886700Y-10715625D01*
X11823700Y-6905625D02*
X11696700Y-6905625D01*
X6108700Y-8963025D02*
X5981700Y-8963025D01*
X6108700Y-7058025D02*
X5981700Y-7058025D01*
X8013700Y-7947025D02*
X7886700Y-7947025D01*
X10312400Y-8569325D02*
X10312400Y-8442325D01*
X12217400Y-4759325D02*
X12217400Y-4632325D01*
X11823700Y-11757025D02*
X11696700Y-11757025D01*
X10160000Y-8442325D02*
X9994900Y-8442325D01*
X8013700Y-9852025D02*
X8013700Y-10271125D01*
X7886700Y-8963025D02*
X7886700Y-9699625D01*
X11696700Y-4835525D02*
X11696700Y-5000625D01*
X8013700Y-9852025D02*
X7886700Y-9852025D01*
X7645400Y-4759325D02*
X7645400Y-4632325D01*
X7886700Y-6042025D02*
X7886700Y-6461125D01*
X6108700Y-6042025D02*
X5981700Y-6042025D01*
X5981700Y-6740525D02*
X5981700Y-6905625D01*
X7886700Y-10550525D02*
X7886700Y-10715625D01*
X12065000Y-8569325D02*
X12065000Y-8442325D01*
X11696700Y-10550525D02*
X11696700Y-10715625D01*
X6108700Y-10550525D02*
X6108700Y-10715625D01*
X11620500Y-10347325D02*
X11455400Y-10347325D01*
X7493000Y-10474325D02*
X7493000Y-10347325D01*
X11899900Y-6664325D02*
G75*
G03*
X11823700Y-6740525I-3336J-72864D01*
G01*
X9918700Y-8366125D02*
G75*
G03*
X9994900Y-8442325I72864J-3336D01*
G01*
X9715500Y-8442325D02*
X9550400Y-8442325D01*
X6108700Y-8963025D02*
X6108700Y-9699625D01*
X9550400Y-6664325D02*
X9550400Y-6537325D01*
X9918700Y-5889625D02*
X9791700Y-5889625D01*
X9918700Y-9852025D02*
X9918700Y-10271125D01*
X13360400Y-10474325D02*
X13360400Y-10347325D01*
X6108700Y-7947025D02*
X6108700Y-8366125D01*
X9550400Y-10474325D02*
X9715500Y-10474325D01*
X7645400Y-10474325D02*
X7645400Y-10347325D01*
X11303000Y-10474325D02*
X11303000Y-10347325D01*
X5981700Y-4835525D02*
X5981700Y-5000625D01*
X7645400Y-10474325D02*
X7810500Y-10474325D01*
X9791700Y-3248025D02*
X9791700Y-3984625D01*
X9918700Y-3095625D02*
X9791700Y-3095625D01*
X9791700Y-8963025D02*
X9791700Y-9699625D01*
X6108700Y-5153025D02*
X5981700Y-5153025D01*
X8013700Y-3984625D02*
X7886700Y-3984625D01*
X11899900Y-2854325D02*
G75*
G03*
X11823700Y-2930525I-3336J-72864D01*
G01*
X7493000Y-4759325D02*
X7493000Y-4632325D01*
X5588000Y-10474325D02*
X5588000Y-10347325D01*
X8013700Y-4137025D02*
X7886700Y-4137025D01*
X11696700Y-6740525D02*
G75*
G03*
X11620500Y-6664325I-72864J3336D01*
G01*
X5905500Y-4632325D02*
G75*
G03*
X5981700Y-4556125I3336J72864D01*
G01*
X11899900Y-4759325D02*
X12065000Y-4759325D01*
X9918700Y-10868025D02*
X9918700Y-11604625D01*
X6108700Y-5153025D02*
X6108700Y-5889625D01*
X11823700Y-3248025D02*
X11696700Y-3248025D01*
X8013700Y-2930525D02*
X8013700Y-3095625D01*
X11823700Y-3095625D02*
X11696700Y-3095625D01*
X8013700Y-7794625D02*
X7886700Y-7794625D01*
X11823700Y-7947025D02*
X11823700Y-8366125D01*
X9918700Y-6042025D02*
X9791700Y-6042025D01*
X4279900Y-10474325D02*
X4445000Y-10474325D01*
X10312400Y-4759325D02*
X11303000Y-4759325D01*
X9398000Y-6664325D02*
X9398000Y-6537325D01*
X12217400Y-6664325D02*
X12217400Y-6537325D01*
X4203700Y-3248025D02*
X4203700Y-3984625D01*
X10160000Y-6664325D02*
X10160000Y-6537325D01*
X13601700Y-8645525D02*
G75*
G03*
X13525500Y-8569325I-72864J3336D01*
G01*
X9918700Y-4835525D02*
X9918700Y-5000625D01*
X11823700Y-5889625D02*
X11696700Y-5889625D01*
X8013700Y-11757025D02*
X7886700Y-11757025D01*
X6108700Y-7058025D02*
X6108700Y-7794625D01*
X11455400Y-4759325D02*
X11620500Y-4759325D01*
X7810500Y-8442325D02*
X7645400Y-8442325D01*
X5981700Y-10868025D02*
X5981700Y-11604625D01*
X9918700Y-11757025D02*
X9791700Y-11757025D01*
X4203700Y-12176125D02*
G75*
G03*
X4279900Y-12252325I72864J-3336D01*
G01*
X6108700Y-10271125D02*
G75*
G03*
X6184900Y-10347325I72864J-3336D01*
G01*
X6108700Y-9852025D02*
X5981700Y-9852025D01*
X5981700Y-10550525D02*
X5981700Y-10715625D01*
X9791700Y-4835525D02*
X9791700Y-5000625D01*
X11303000Y-4759325D02*
X11303000Y-4632325D01*
D11*
D12*
X4489700Y-3648325D02*
X4679700Y-3838325D01*
X4679700Y-3648325D02*
X4489700Y-3838325D01*
X4489700Y-5553325D02*
X4679700Y-5743325D01*
X4679700Y-5553325D02*
X4489700Y-5743325D01*
X4489700Y-7458325D02*
X4679700Y-7648325D01*
X4679700Y-7458325D02*
X4489700Y-7648325D01*
X4489700Y-9363325D02*
X4679700Y-9553325D01*
X4679700Y-9363325D02*
X4489700Y-9553325D01*
X4489700Y-11268325D02*
X4679700Y-11458325D01*
X4679700Y-11268325D02*
X4489700Y-11458325D01*
X5505700Y-3648325D02*
X5695700Y-3838325D01*
X5695700Y-3648325D02*
X5505700Y-3838325D01*
X5505700Y-5553325D02*
X5695700Y-5743325D01*
X5695700Y-5553325D02*
X5505700Y-5743325D01*
X5505700Y-7458325D02*
X5695700Y-7648325D01*
X5695700Y-7458325D02*
X5505700Y-7648325D01*
X5505700Y-9363325D02*
X5695700Y-9553325D01*
X5695700Y-9363325D02*
X5505700Y-9553325D01*
X5505700Y-11268325D02*
X5695700Y-11458325D01*
X5695700Y-11268325D02*
X5505700Y-11458325D01*
X6394700Y-3648325D02*
X6584700Y-3838325D01*
X6584700Y-3648325D02*
X6394700Y-3838325D01*
X6394700Y-5553325D02*
X6584700Y-5743325D01*
X6584700Y-5553325D02*
X6394700Y-5743325D01*
X6394700Y-7458325D02*
X6584700Y-7648325D01*
X6584700Y-7458325D02*
X6394700Y-7648325D01*
X6394700Y-9363325D02*
X6584700Y-9553325D01*
X6584700Y-9363325D02*
X6394700Y-9553325D01*
X6394700Y-11268325D02*
X6584700Y-11458325D01*
X6584700Y-11268325D02*
X6394700Y-11458325D01*
X7410700Y-3648325D02*
X7600700Y-3838325D01*
X7600700Y-3648325D02*
X7410700Y-3838325D01*
X7410700Y-5553325D02*
X7600700Y-5743325D01*
X7600700Y-5553325D02*
X7410700Y-5743325D01*
X7410700Y-7458325D02*
X7600700Y-7648325D01*
X7600700Y-7458325D02*
X7410700Y-7648325D01*
X7410700Y-9363325D02*
X7600700Y-9553325D01*
X7600700Y-9363325D02*
X7410700Y-9553325D01*
X7410700Y-11268325D02*
X7600700Y-11458325D01*
X7600700Y-11268325D02*
X7410700Y-11458325D01*
X8299700Y-3648325D02*
X8489700Y-3838325D01*
X8489700Y-3648325D02*
X8299700Y-3838325D01*
X8299700Y-5553325D02*
X8489700Y-5743325D01*
X8489700Y-5553325D02*
X8299700Y-5743325D01*
X8299700Y-7458325D02*
X8489700Y-7648325D01*
X8489700Y-7458325D02*
X8299700Y-7648325D01*
X8299700Y-9363325D02*
X8489700Y-9553325D01*
X8489700Y-9363325D02*
X8299700Y-9553325D01*
X8299700Y-11268325D02*
X8489700Y-11458325D01*
X8489700Y-11268325D02*
X8299700Y-11458325D01*
X9315700Y-3648325D02*
X9505700Y-3838325D01*
X9505700Y-3648325D02*
X9315700Y-3838325D01*
X9315700Y-5553325D02*
X9505700Y-5743325D01*
X9505700Y-5553325D02*
X9315700Y-5743325D01*
X9315700Y-7458325D02*
X9505700Y-7648325D01*
X9505700Y-7458325D02*
X9315700Y-7648325D01*
X9315700Y-9363325D02*
X9505700Y-9553325D01*
X9505700Y-9363325D02*
X9315700Y-9553325D01*
X9315700Y-11268325D02*
X9505700Y-11458325D01*
X9505700Y-11268325D02*
X9315700Y-11458325D01*
X10204700Y-3648325D02*
X10394700Y-3838325D01*
X10394700Y-3648325D02*
X10204700Y-3838325D01*
X10204700Y-5553325D02*
X10394700Y-5743325D01*
X10394700Y-5553325D02*
X10204700Y-5743325D01*
X10204700Y-7458325D02*
X10394700Y-7648325D01*
X10394700Y-7458325D02*
X10204700Y-7648325D01*
X10204700Y-9363325D02*
X10394700Y-9553325D01*
X10394700Y-9363325D02*
X10204700Y-9553325D01*
X10204700Y-11268325D02*
X10394700Y-11458325D01*
X10394700Y-11268325D02*
X10204700Y-11458325D01*
X11220700Y-3648325D02*
X11410700Y-3838325D01*
X11410700Y-3648325D02*
X11220700Y-3838325D01*
X11220700Y-5553325D02*
X11410700Y-5743325D01*
X11410700Y-5553325D02*
X11220700Y-5743325D01*
X11220700Y-7458325D02*
X11410700Y-7648325D01*
X11410700Y-7458325D02*
X11220700Y-7648325D01*
X11220700Y-9363325D02*
X11410700Y-9553325D01*
X11410700Y-9363325D02*
X11220700Y-9553325D01*
X11220700Y-11268325D02*
X11410700Y-11458325D01*
X11410700Y-11268325D02*
X11220700Y-11458325D01*
X12109700Y-3648325D02*
X12299700Y-3838325D01*
X12299700Y-3648325D02*
X12109700Y-3838325D01*
X12109700Y-5553325D02*
X12299700Y-5743325D01*
X12299700Y-5553325D02*
X12109700Y-5743325D01*
X12109700Y-7458325D02*
X12299700Y-7648325D01*
X12299700Y-7458325D02*
X12109700Y-7648325D01*
X12109700Y-9363325D02*
X12299700Y-9553325D01*
X12299700Y-9363325D02*
X12109700Y-9553325D01*
X12109700Y-11268325D02*
X12299700Y-11458325D01*
X12299700Y-11268325D02*
X12109700Y-11458325D01*
X13125700Y-3648325D02*
X13315700Y-3838325D01*
X13315700Y-3648325D02*
X13125700Y-3838325D01*
X13125700Y-5553325D02*
X13315700Y-5743325D01*
X13315700Y-5553325D02*
X13125700Y-5743325D01*
X13125700Y-7458325D02*
X13315700Y-7648325D01*
X13315700Y-7458325D02*
X13125700Y-7648325D01*
X13125700Y-9363325D02*
X13315700Y-9553325D01*
X13315700Y-9363325D02*
X13125700Y-9553325D01*
X13125700Y-11268325D02*
X13315700Y-11458325D01*
X13315700Y-11268325D02*
X13125700Y-11458325D01*
D13*
X4988700Y-4251325D02*
G75*
G03*
X4988700Y-4251325I-150000J0D01*
G01*
X4988700Y-6156325D02*
G75*
G03*
X4988700Y-6156325I-150000J0D01*
G01*
X4988700Y-8061325D02*
G75*
G03*
X4988700Y-8061325I-150000J0D01*
G01*
X4988700Y-9966325D02*
G75*
G03*
X4988700Y-9966325I-150000J0D01*
G01*
X4988700Y-11871325D02*
G75*
G03*
X4988700Y-11871325I-150000J0D01*
G01*
X5623700Y-3997325D02*
G75*
G03*
X5623700Y-3997325I-150000J0D01*
G01*
X5623700Y-5902325D02*
G75*
G03*
X5623700Y-5902325I-150000J0D01*
G01*
X5623700Y-7807325D02*
G75*
G03*
X5623700Y-7807325I-150000J0D01*
G01*
X5623700Y-9712325D02*
G75*
G03*
X5623700Y-9712325I-150000J0D01*
G01*
X5623700Y-11617325D02*
G75*
G03*
X5623700Y-11617325I-150000J0D01*
G01*
X6893700Y-4251325D02*
G75*
G03*
X6893700Y-4251325I-150000J0D01*
G01*
X6893700Y-6156325D02*
G75*
G03*
X6893700Y-6156325I-150000J0D01*
G01*
X6893700Y-8061325D02*
G75*
G03*
X6893700Y-8061325I-150000J0D01*
G01*
X6893700Y-9966325D02*
G75*
G03*
X6893700Y-9966325I-150000J0D01*
G01*
X6893700Y-11871325D02*
G75*
G03*
X6893700Y-11871325I-150000J0D01*
G01*
X7528700Y-3997325D02*
G75*
G03*
X7528700Y-3997325I-150000J0D01*
G01*
X7528700Y-5902325D02*
G75*
G03*
X7528700Y-5902325I-150000J0D01*
G01*
X7528700Y-7807325D02*
G75*
G03*
X7528700Y-7807325I-150000J0D01*
G01*
X7528700Y-9712325D02*
G75*
G03*
X7528700Y-9712325I-150000J0D01*
G01*
X7528700Y-11617325D02*
G75*
G03*
X7528700Y-11617325I-150000J0D01*
G01*
X8798700Y-4251325D02*
G75*
G03*
X8798700Y-4251325I-150000J0D01*
G01*
X8798700Y-6156325D02*
G75*
G03*
X8798700Y-6156325I-150000J0D01*
G01*
X8798700Y-8061325D02*
G75*
G03*
X8798700Y-8061325I-150000J0D01*
G01*
X8798700Y-9966325D02*
G75*
G03*
X8798700Y-9966325I-150000J0D01*
G01*
X8798700Y-11871325D02*
G75*
G03*
X8798700Y-11871325I-150000J0D01*
G01*
X9433700Y-3997325D02*
G75*
G03*
X9433700Y-3997325I-150000J0D01*
G01*
X9433700Y-5902325D02*
G75*
G03*
X9433700Y-5902325I-150000J0D01*
G01*
X9433700Y-7807325D02*
G75*
G03*
X9433700Y-7807325I-150000J0D01*
G01*
X9433700Y-9712325D02*
G75*
G03*
X9433700Y-9712325I-150000J0D01*
G01*
X9433700Y-11617325D02*
G75*
G03*
X9433700Y-11617325I-150000J0D01*
G01*
X10703700Y-4251325D02*
G75*
G03*
X10703700Y-4251325I-150000J0D01*
G01*
X10703700Y-6156325D02*
G75*
G03*
X10703700Y-6156325I-150000J0D01*
G01*
X10703700Y-8061325D02*
G75*
G03*
X10703700Y-8061325I-150000J0D01*
G01*
X10703700Y-9966325D02*
G75*
G03*
X10703700Y-9966325I-150000J0D01*
G01*
X10703700Y-11871325D02*
G75*
G03*
X10703700Y-11871325I-150000J0D01*
G01*
X11338700Y-3997325D02*
G75*
G03*
X11338700Y-3997325I-150000J0D01*
G01*
X11338700Y-5902325D02*
G75*
G03*
X11338700Y-5902325I-150000J0D01*
G01*
X11338700Y-7807325D02*
G75*
G03*
X11338700Y-7807325I-150000J0D01*
G01*
X11338700Y-9712325D02*
G75*
G03*
X11338700Y-9712325I-150000J0D01*
G01*
X11338700Y-11617325D02*
G75*
G03*
X11338700Y-11617325I-150000J0D01*
G01*
X12608700Y-4251325D02*
G75*
G03*
X12608700Y-4251325I-150000J0D01*
G01*
X12608700Y-6156325D02*
G75*
G03*
X12608700Y-6156325I-150000J0D01*
G01*
X12608700Y-8061325D02*
G75*
G03*
X12608700Y-8061325I-150000J0D01*
G01*
X12608700Y-9966325D02*
G75*
G03*
X12608700Y-9966325I-150000J0D01*
G01*
X12608700Y-11871325D02*
G75*
G03*
X12608700Y-11871325I-150000J0D01*
G01*
X13243700Y-3997325D02*
G75*
G03*
X13243700Y-3997325I-150000J0D01*
G01*
X13243700Y-5902325D02*
G75*
G03*
X13243700Y-5902325I-150000J0D01*
G01*
X13243700Y-7807325D02*
G75*
G03*
X13243700Y-7807325I-150000J0D01*
G01*
X13243700Y-9712325D02*
G75*
G03*
X13243700Y-9712325I-150000J0D01*
G01*
X13243700Y-11617325D02*
G75*
G03*
X13243700Y-11617325I-150000J0D01*
G01*
D14*
X5092700Y-3538325D02*
X5092700Y-3948325D01*
X4887700Y-3743325D02*
X5297700Y-3743325D01*
X5092700Y-5443325D02*
X5092700Y-5853325D01*
X4887700Y-5648325D02*
X5297700Y-5648325D01*
X5092700Y-7348325D02*
X5092700Y-7758325D01*
X4887700Y-7553325D02*
X5297700Y-7553325D01*
X5092700Y-9253325D02*
X5092700Y-9663325D01*
X4887700Y-9458325D02*
X5297700Y-9458325D01*
X5092700Y-11158325D02*
X5092700Y-11568325D01*
X4887700Y-11363325D02*
X5297700Y-11363325D01*
X6997700Y-3538325D02*
X6997700Y-3948325D01*
X6792700Y-3743325D02*
X7202700Y-3743325D01*
X6997700Y-5443325D02*
X6997700Y-5853325D01*
X6792700Y-5648325D02*
X7202700Y-5648325D01*
X6997700Y-7348325D02*
X6997700Y-7758325D01*
X6792700Y-7553325D02*
X7202700Y-7553325D01*
X6997700Y-9253325D02*
X6997700Y-9663325D01*
X6792700Y-9458325D02*
X7202700Y-9458325D01*
X6997700Y-11158325D02*
X6997700Y-11568325D01*
X6792700Y-11363325D02*
X7202700Y-11363325D01*
X8902700Y-3538325D02*
X8902700Y-3948325D01*
X8697700Y-3743325D02*
X9107700Y-3743325D01*
X8902700Y-5443325D02*
X8902700Y-5853325D01*
X8697700Y-5648325D02*
X9107700Y-5648325D01*
X8902700Y-7348325D02*
X8902700Y-7758325D01*
X8697700Y-7553325D02*
X9107700Y-7553325D01*
X8902700Y-9253325D02*
X8902700Y-9663325D01*
X8697700Y-9458325D02*
X9107700Y-9458325D01*
X8902700Y-11158325D02*
X8902700Y-11568325D01*
X8697700Y-11363325D02*
X9107700Y-11363325D01*
X10807700Y-3538325D02*
X10807700Y-3948325D01*
X10602700Y-3743325D02*
X11012700Y-3743325D01*
X10807700Y-5443325D02*
X10807700Y-5853325D01*
X10602700Y-5648325D02*
X11012700Y-5648325D01*
X10807700Y-7348325D02*
X10807700Y-7758325D01*
X10602700Y-7553325D02*
X11012700Y-7553325D01*
X10807700Y-9253325D02*
X10807700Y-9663325D01*
X10602700Y-9458325D02*
X11012700Y-9458325D01*
X10807700Y-11158325D02*
X10807700Y-11568325D01*
X10602700Y-11363325D02*
X11012700Y-11363325D01*
X12712700Y-3538325D02*
X12712700Y-3948325D01*
X12507700Y-3743325D02*
X12917700Y-3743325D01*
X12712700Y-5443325D02*
X12712700Y-5853325D01*
X12507700Y-5648325D02*
X12917700Y-5648325D01*
X12712700Y-7348325D02*
X12712700Y-7758325D01*
X12507700Y-7553325D02*
X12917700Y-7553325D01*
X12712700Y-9253325D02*
X12712700Y-9663325D01*
X12507700Y-9458325D02*
X12917700Y-9458325D01*
X12712700Y-11158325D02*
X12712700Y-11568325D01*
X12507700Y-11363325D02*
X12917700Y-11363325D01*
D11*
X4456243Y-12567877D02*
X4456243Y-12367877D01*
X4503862Y-12367877D01*
X4532433Y-12377401D01*
X4551481Y-12396449D01*
X4561005Y-12415496D01*
X4570528Y-12453592D01*
X4570528Y-12482163D01*
X4561005Y-12520258D01*
X4551481Y-12539306D01*
X4532433Y-12558354D01*
X4503862Y-12567877D01*
X4456243Y-12567877D01*
X4656243Y-12567877D02*
X4656243Y-12434544D01*
X4656243Y-12472639D02*
X4665767Y-12453592D01*
X4675290Y-12444068D01*
X4694338Y-12434544D01*
X4713386Y-12434544D01*
X4780052Y-12567877D02*
X4780052Y-12434544D01*
X4780052Y-12367877D02*
X4770528Y-12377401D01*
X4780052Y-12386925D01*
X4789576Y-12377401D01*
X4780052Y-12367877D01*
X4780052Y-12386925D01*
X4903862Y-12567877D02*
X4884814Y-12558354D01*
X4875290Y-12539306D01*
X4875290Y-12367877D01*
X5008624Y-12567877D02*
X4989576Y-12558354D01*
X4980052Y-12539306D01*
X4980052Y-12367877D01*
X5237195Y-12567877D02*
X5237195Y-12367877D01*
X5303862Y-12510735D01*
X5370528Y-12367877D01*
X5370528Y-12567877D01*
X5551481Y-12567877D02*
X5551481Y-12463115D01*
X5541957Y-12444068D01*
X5522909Y-12434544D01*
X5484814Y-12434544D01*
X5465767Y-12444068D01*
X5551481Y-12558354D02*
X5532433Y-12567877D01*
X5484814Y-12567877D01*
X5465767Y-12558354D01*
X5456243Y-12539306D01*
X5456243Y-12520258D01*
X5465767Y-12501211D01*
X5484814Y-12491687D01*
X5532433Y-12491687D01*
X5551481Y-12482163D01*
X5646719Y-12434544D02*
X5646719Y-12634544D01*
X5646719Y-12444068D02*
X5665766Y-12434544D01*
X5703862Y-12434544D01*
X5722909Y-12444068D01*
X5732433Y-12453592D01*
X5741957Y-12472639D01*
X5741957Y-12529782D01*
X5732433Y-12548830D01*
X5722909Y-12558354D01*
X5703862Y-12567877D01*
X5665766Y-12567877D01*
X5646719Y-12558354D01*
X5827671Y-12548830D02*
X5837195Y-12558354D01*
X5827671Y-12567877D01*
X5818147Y-12558354D01*
X5827671Y-12548830D01*
X5827671Y-12567877D01*
X5827671Y-12444068D02*
X5837195Y-12453592D01*
X5827671Y-12463115D01*
X5818147Y-12453592D01*
X5827671Y-12444068D01*
X5827671Y-12463115D01*
D12*
X4008624Y-12802401D02*
X4198624Y-12992401D01*
X4198624Y-12802401D02*
X4008624Y-12992401D01*
D11*
X4561005Y-12987877D02*
X4446719Y-12987877D01*
X4503862Y-12987877D02*
X4503862Y-12787877D01*
X4484814Y-12816449D01*
X4465767Y-12835496D01*
X4446719Y-12845020D01*
X4646719Y-12968830D02*
X4656243Y-12978354D01*
X4646719Y-12987877D01*
X4637195Y-12978354D01*
X4646719Y-12968830D01*
X4646719Y-12987877D01*
X4751481Y-12987877D02*
X4789576Y-12987877D01*
X4808624Y-12978354D01*
X4818148Y-12968830D01*
X4837195Y-12940258D01*
X4846719Y-12902163D01*
X4846719Y-12825973D01*
X4837195Y-12806925D01*
X4827671Y-12797401D01*
X4808624Y-12787877D01*
X4770528Y-12787877D01*
X4751481Y-12797401D01*
X4741957Y-12806925D01*
X4732433Y-12825973D01*
X4732433Y-12873592D01*
X4741957Y-12892639D01*
X4751481Y-12902163D01*
X4770528Y-12911687D01*
X4808624Y-12911687D01*
X4827671Y-12902163D01*
X4837195Y-12892639D01*
X4846719Y-12873592D01*
X4970528Y-12787877D02*
X4989576Y-12787877D01*
X5008624Y-12797401D01*
X5018148Y-12806925D01*
X5027671Y-12825973D01*
X5037195Y-12864068D01*
X5037195Y-12911687D01*
X5027671Y-12949782D01*
X5018148Y-12968830D01*
X5008624Y-12978354D01*
X4989576Y-12987877D01*
X4970528Y-12987877D01*
X4951481Y-12978354D01*
X4941957Y-12968830D01*
X4932433Y-12949782D01*
X4922909Y-12911687D01*
X4922909Y-12864068D01*
X4932433Y-12825973D01*
X4941957Y-12806925D01*
X4951481Y-12797401D01*
X4970528Y-12787877D01*
X5161005Y-12787877D02*
X5180052Y-12787877D01*
X5199100Y-12797401D01*
X5208624Y-12806925D01*
X5218148Y-12825973D01*
X5227671Y-12864068D01*
X5227671Y-12911687D01*
X5218148Y-12949782D01*
X5208624Y-12968830D01*
X5199100Y-12978354D01*
X5180052Y-12987877D01*
X5161005Y-12987877D01*
X5141957Y-12978354D01*
X5132433Y-12968830D01*
X5122909Y-12949782D01*
X5113386Y-12911687D01*
X5113386Y-12864068D01*
X5122909Y-12825973D01*
X5132433Y-12806925D01*
X5141957Y-12797401D01*
X5161005Y-12787877D01*
X5313386Y-12987877D02*
X5313386Y-12854544D01*
X5313386Y-12873592D02*
X5322909Y-12864068D01*
X5341957Y-12854544D01*
X5370528Y-12854544D01*
X5389576Y-12864068D01*
X5399100Y-12883115D01*
X5399100Y-12987877D01*
X5399100Y-12883115D02*
X5408624Y-12864068D01*
X5427671Y-12854544D01*
X5456243Y-12854544D01*
X5475290Y-12864068D01*
X5484814Y-12883115D01*
X5484814Y-12987877D01*
X5580052Y-12987877D02*
X5580052Y-12854544D01*
X5580052Y-12873592D02*
X5589576Y-12864068D01*
X5608624Y-12854544D01*
X5637195Y-12854544D01*
X5656243Y-12864068D01*
X5665766Y-12883115D01*
X5665766Y-12987877D01*
X5665766Y-12883115D02*
X5675290Y-12864068D01*
X5694338Y-12854544D01*
X5722909Y-12854544D01*
X5741957Y-12864068D01*
X5751481Y-12883115D01*
X5751481Y-12987877D01*
X6141957Y-12778354D02*
X5970528Y-13035496D01*
X6399100Y-12787877D02*
X6418147Y-12787877D01*
X6437195Y-12797401D01*
X6446719Y-12806925D01*
X6456243Y-12825973D01*
X6465766Y-12864068D01*
X6465766Y-12911687D01*
X6456243Y-12949782D01*
X6446719Y-12968830D01*
X6437195Y-12978354D01*
X6418147Y-12987877D01*
X6399100Y-12987877D01*
X6380052Y-12978354D01*
X6370528Y-12968830D01*
X6361005Y-12949782D01*
X6351481Y-12911687D01*
X6351481Y-12864068D01*
X6361005Y-12825973D01*
X6370528Y-12806925D01*
X6380052Y-12797401D01*
X6399100Y-12787877D01*
X6551481Y-12968830D02*
X6561005Y-12978354D01*
X6551481Y-12987877D01*
X6541957Y-12978354D01*
X6551481Y-12968830D01*
X6551481Y-12987877D01*
X6684814Y-12787877D02*
X6703862Y-12787877D01*
X6722909Y-12797401D01*
X6732433Y-12806925D01*
X6741957Y-12825973D01*
X6751481Y-12864068D01*
X6751481Y-12911687D01*
X6741957Y-12949782D01*
X6732433Y-12968830D01*
X6722909Y-12978354D01*
X6703862Y-12987877D01*
X6684814Y-12987877D01*
X6665766Y-12978354D01*
X6656243Y-12968830D01*
X6646719Y-12949782D01*
X6637195Y-12911687D01*
X6637195Y-12864068D01*
X6646719Y-12825973D01*
X6656243Y-12806925D01*
X6665766Y-12797401D01*
X6684814Y-12787877D01*
X6818147Y-12787877D02*
X6951481Y-12787877D01*
X6865766Y-12987877D01*
X7113386Y-12854544D02*
X7113386Y-12987877D01*
X7065766Y-12778354D02*
X7018147Y-12921211D01*
X7141957Y-12921211D01*
X7246719Y-12873592D02*
X7227671Y-12864068D01*
X7218147Y-12854544D01*
X7208624Y-12835496D01*
X7208624Y-12825973D01*
X7218147Y-12806925D01*
X7227671Y-12797401D01*
X7246719Y-12787877D01*
X7284814Y-12787877D01*
X7303862Y-12797401D01*
X7313386Y-12806925D01*
X7322909Y-12825973D01*
X7322909Y-12835496D01*
X7313386Y-12854544D01*
X7303862Y-12864068D01*
X7284814Y-12873592D01*
X7246719Y-12873592D01*
X7227671Y-12883115D01*
X7218147Y-12892639D01*
X7208624Y-12911687D01*
X7208624Y-12949782D01*
X7218147Y-12968830D01*
X7227671Y-12978354D01*
X7246719Y-12987877D01*
X7284814Y-12987877D01*
X7303862Y-12978354D01*
X7313386Y-12968830D01*
X7322909Y-12949782D01*
X7322909Y-12911687D01*
X7313386Y-12892639D01*
X7303862Y-12883115D01*
X7284814Y-12873592D01*
X7399100Y-12787877D02*
X7399100Y-12825973D01*
X7475290Y-12787877D02*
X7475290Y-12825973D01*
X7770528Y-13064068D02*
X7761005Y-13054544D01*
X7741957Y-13025973D01*
X7732433Y-13006925D01*
X7722909Y-12978354D01*
X7713386Y-12930735D01*
X7713386Y-12892639D01*
X7722909Y-12845020D01*
X7732433Y-12816449D01*
X7741957Y-12797401D01*
X7761005Y-12768830D01*
X7770528Y-12759306D01*
X7941957Y-12787877D02*
X7846719Y-12787877D01*
X7837195Y-12883115D01*
X7846719Y-12873592D01*
X7865766Y-12864068D01*
X7913386Y-12864068D01*
X7932433Y-12873592D01*
X7941957Y-12883115D01*
X7951481Y-12902163D01*
X7951481Y-12949782D01*
X7941957Y-12968830D01*
X7932433Y-12978354D01*
X7913386Y-12987877D01*
X7865766Y-12987877D01*
X7846719Y-12978354D01*
X7837195Y-12968830D01*
X8075290Y-12787877D02*
X8094338Y-12787877D01*
X8113386Y-12797401D01*
X8122909Y-12806925D01*
X8132433Y-12825973D01*
X8141957Y-12864068D01*
X8141957Y-12911687D01*
X8132433Y-12949782D01*
X8122909Y-12968830D01*
X8113386Y-12978354D01*
X8094338Y-12987877D01*
X8075290Y-12987877D01*
X8056243Y-12978354D01*
X8046719Y-12968830D01*
X8037195Y-12949782D01*
X8027671Y-12911687D01*
X8027671Y-12864068D01*
X8037195Y-12825973D01*
X8046719Y-12806925D01*
X8056243Y-12797401D01*
X8075290Y-12787877D01*
X8380052Y-12987877D02*
X8380052Y-12787877D01*
X8465767Y-12987877D02*
X8465767Y-12883115D01*
X8456243Y-12864068D01*
X8437195Y-12854544D01*
X8408624Y-12854544D01*
X8389576Y-12864068D01*
X8380052Y-12873592D01*
X8589576Y-12987877D02*
X8570528Y-12978354D01*
X8561005Y-12968830D01*
X8551481Y-12949782D01*
X8551481Y-12892639D01*
X8561005Y-12873592D01*
X8570528Y-12864068D01*
X8589576Y-12854544D01*
X8618148Y-12854544D01*
X8637195Y-12864068D01*
X8646719Y-12873592D01*
X8656243Y-12892639D01*
X8656243Y-12949782D01*
X8646719Y-12968830D01*
X8637195Y-12978354D01*
X8618148Y-12987877D01*
X8589576Y-12987877D01*
X8770528Y-12987877D02*
X8751481Y-12978354D01*
X8741957Y-12959306D01*
X8741957Y-12787877D01*
X8922909Y-12978354D02*
X8903862Y-12987877D01*
X8865767Y-12987877D01*
X8846719Y-12978354D01*
X8837195Y-12959306D01*
X8837195Y-12883115D01*
X8846719Y-12864068D01*
X8865767Y-12854544D01*
X8903862Y-12854544D01*
X8922909Y-12864068D01*
X8932433Y-12883115D01*
X8932433Y-12902163D01*
X8837195Y-12921211D01*
X9008624Y-12978354D02*
X9027671Y-12987877D01*
X9065767Y-12987877D01*
X9084814Y-12978354D01*
X9094338Y-12959306D01*
X9094338Y-12949782D01*
X9084814Y-12930735D01*
X9065767Y-12921211D01*
X9037195Y-12921211D01*
X9018148Y-12911687D01*
X9008624Y-12892639D01*
X9008624Y-12883115D01*
X9018148Y-12864068D01*
X9037195Y-12854544D01*
X9065767Y-12854544D01*
X9084814Y-12864068D01*
X9161005Y-13064068D02*
X9170528Y-13054544D01*
X9189576Y-13025973D01*
X9199100Y-13006925D01*
X9208624Y-12978354D01*
X9218148Y-12930735D01*
X9218148Y-12892639D01*
X9208624Y-12845020D01*
X9199100Y-12816449D01*
X9189576Y-12797401D01*
X9170528Y-12768830D01*
X9161005Y-12759306D01*
X9522909Y-13064068D02*
X9513386Y-13054544D01*
X9494338Y-13025973D01*
X9484814Y-13006925D01*
X9475290Y-12978354D01*
X9465767Y-12930735D01*
X9465767Y-12892639D01*
X9475290Y-12845020D01*
X9484814Y-12816449D01*
X9494338Y-12797401D01*
X9513386Y-12768830D01*
X9522909Y-12759306D01*
X9599100Y-12854544D02*
X9599100Y-12987877D01*
X9599100Y-12873592D02*
X9608624Y-12864068D01*
X9627671Y-12854544D01*
X9656243Y-12854544D01*
X9675290Y-12864068D01*
X9684814Y-12883115D01*
X9684814Y-12987877D01*
X9808624Y-12987877D02*
X9789576Y-12978354D01*
X9780052Y-12968830D01*
X9770528Y-12949782D01*
X9770528Y-12892639D01*
X9780052Y-12873592D01*
X9789576Y-12864068D01*
X9808624Y-12854544D01*
X9837195Y-12854544D01*
X9856243Y-12864068D01*
X9865767Y-12873592D01*
X9875290Y-12892639D01*
X9875290Y-12949782D01*
X9865767Y-12968830D01*
X9856243Y-12978354D01*
X9837195Y-12987877D01*
X9808624Y-12987877D01*
X9932433Y-12854544D02*
X10008624Y-12854544D01*
X9961005Y-12787877D02*
X9961005Y-12959306D01*
X9970528Y-12978354D01*
X9989576Y-12987877D01*
X10008624Y-12987877D01*
X10227671Y-12854544D02*
X10227671Y-13054544D01*
X10227671Y-12864068D02*
X10246719Y-12854544D01*
X10284814Y-12854544D01*
X10303862Y-12864068D01*
X10313386Y-12873592D01*
X10322909Y-12892639D01*
X10322909Y-12949782D01*
X10313386Y-12968830D01*
X10303862Y-12978354D01*
X10284814Y-12987877D01*
X10246719Y-12987877D01*
X10227671Y-12978354D01*
X10437195Y-12987877D02*
X10418148Y-12978354D01*
X10408624Y-12959306D01*
X10408624Y-12787877D01*
X10599100Y-12987877D02*
X10599100Y-12883115D01*
X10589576Y-12864068D01*
X10570528Y-12854544D01*
X10532433Y-12854544D01*
X10513386Y-12864068D01*
X10599100Y-12978354D02*
X10580052Y-12987877D01*
X10532433Y-12987877D01*
X10513386Y-12978354D01*
X10503862Y-12959306D01*
X10503862Y-12940258D01*
X10513386Y-12921211D01*
X10532433Y-12911687D01*
X10580052Y-12911687D01*
X10599100Y-12902163D01*
X10665767Y-12854544D02*
X10741957Y-12854544D01*
X10694338Y-12787877D02*
X10694338Y-12959306D01*
X10703862Y-12978354D01*
X10722909Y-12987877D01*
X10741957Y-12987877D01*
X10884814Y-12978354D02*
X10865767Y-12987877D01*
X10827671Y-12987877D01*
X10808624Y-12978354D01*
X10799100Y-12959306D01*
X10799100Y-12883115D01*
X10808624Y-12864068D01*
X10827671Y-12854544D01*
X10865767Y-12854544D01*
X10884814Y-12864068D01*
X10894338Y-12883115D01*
X10894338Y-12902163D01*
X10799100Y-12921211D01*
X11065767Y-12987877D02*
X11065767Y-12787877D01*
X11065767Y-12978354D02*
X11046719Y-12987877D01*
X11008624Y-12987877D01*
X10989576Y-12978354D01*
X10980052Y-12968830D01*
X10970528Y-12949782D01*
X10970528Y-12892639D01*
X10980052Y-12873592D01*
X10989576Y-12864068D01*
X11008624Y-12854544D01*
X11046719Y-12854544D01*
X11065767Y-12864068D01*
X11141957Y-13064068D02*
X11151481Y-13054544D01*
X11170528Y-13025973D01*
X11180052Y-13006925D01*
X11189576Y-12978354D01*
X11199100Y-12930735D01*
X11199100Y-12892639D01*
X11189576Y-12845020D01*
X11180052Y-12816449D01*
X11170528Y-12797401D01*
X11151481Y-12768830D01*
X11141957Y-12759306D01*
X4198624Y-13207401D02*
G75*
G03*
X4198624Y-13207401I-100000J0D01*
G01*
X4437195Y-13097877D02*
X4561005Y-13097877D01*
X4494338Y-13174068D01*
X4522909Y-13174068D01*
X4541957Y-13183592D01*
X4551481Y-13193115D01*
X4561005Y-13212163D01*
X4561005Y-13259782D01*
X4551481Y-13278830D01*
X4541957Y-13288354D01*
X4522909Y-13297877D01*
X4465767Y-13297877D01*
X4446719Y-13288354D01*
X4437195Y-13278830D01*
X4646719Y-13278830D02*
X4656243Y-13288354D01*
X4646719Y-13297877D01*
X4637195Y-13288354D01*
X4646719Y-13278830D01*
X4646719Y-13297877D01*
X4780052Y-13097877D02*
X4799100Y-13097877D01*
X4818148Y-13107401D01*
X4827671Y-13116925D01*
X4837195Y-13135973D01*
X4846719Y-13174068D01*
X4846719Y-13221687D01*
X4837195Y-13259782D01*
X4827671Y-13278830D01*
X4818148Y-13288354D01*
X4799100Y-13297877D01*
X4780052Y-13297877D01*
X4761005Y-13288354D01*
X4751481Y-13278830D01*
X4741957Y-13259782D01*
X4732433Y-13221687D01*
X4732433Y-13174068D01*
X4741957Y-13135973D01*
X4751481Y-13116925D01*
X4761005Y-13107401D01*
X4780052Y-13097877D01*
X4970528Y-13097877D02*
X4989576Y-13097877D01*
X5008624Y-13107401D01*
X5018148Y-13116925D01*
X5027671Y-13135973D01*
X5037195Y-13174068D01*
X5037195Y-13221687D01*
X5027671Y-13259782D01*
X5018148Y-13278830D01*
X5008624Y-13288354D01*
X4989576Y-13297877D01*
X4970528Y-13297877D01*
X4951481Y-13288354D01*
X4941957Y-13278830D01*
X4932433Y-13259782D01*
X4922909Y-13221687D01*
X4922909Y-13174068D01*
X4932433Y-13135973D01*
X4941957Y-13116925D01*
X4951481Y-13107401D01*
X4970528Y-13097877D01*
X5161005Y-13097877D02*
X5180052Y-13097877D01*
X5199100Y-13107401D01*
X5208624Y-13116925D01*
X5218148Y-13135973D01*
X5227671Y-13174068D01*
X5227671Y-13221687D01*
X5218148Y-13259782D01*
X5208624Y-13278830D01*
X5199100Y-13288354D01*
X5180052Y-13297877D01*
X5161005Y-13297877D01*
X5141957Y-13288354D01*
X5132433Y-13278830D01*
X5122909Y-13259782D01*
X5113386Y-13221687D01*
X5113386Y-13174068D01*
X5122909Y-13135973D01*
X5132433Y-13116925D01*
X5141957Y-13107401D01*
X5161005Y-13097877D01*
X5313386Y-13297877D02*
X5313386Y-13164544D01*
X5313386Y-13183592D02*
X5322909Y-13174068D01*
X5341957Y-13164544D01*
X5370528Y-13164544D01*
X5389576Y-13174068D01*
X5399100Y-13193115D01*
X5399100Y-13297877D01*
X5399100Y-13193115D02*
X5408624Y-13174068D01*
X5427671Y-13164544D01*
X5456243Y-13164544D01*
X5475290Y-13174068D01*
X5484814Y-13193115D01*
X5484814Y-13297877D01*
X5580052Y-13297877D02*
X5580052Y-13164544D01*
X5580052Y-13183592D02*
X5589576Y-13174068D01*
X5608624Y-13164544D01*
X5637195Y-13164544D01*
X5656243Y-13174068D01*
X5665766Y-13193115D01*
X5665766Y-13297877D01*
X5665766Y-13193115D02*
X5675290Y-13174068D01*
X5694338Y-13164544D01*
X5722909Y-13164544D01*
X5741957Y-13174068D01*
X5751481Y-13193115D01*
X5751481Y-13297877D01*
X6141957Y-13088354D02*
X5970528Y-13345496D01*
X6399100Y-13097877D02*
X6418147Y-13097877D01*
X6437195Y-13107401D01*
X6446719Y-13116925D01*
X6456243Y-13135973D01*
X6465766Y-13174068D01*
X6465766Y-13221687D01*
X6456243Y-13259782D01*
X6446719Y-13278830D01*
X6437195Y-13288354D01*
X6418147Y-13297877D01*
X6399100Y-13297877D01*
X6380052Y-13288354D01*
X6370528Y-13278830D01*
X6361005Y-13259782D01*
X6351481Y-13221687D01*
X6351481Y-13174068D01*
X6361005Y-13135973D01*
X6370528Y-13116925D01*
X6380052Y-13107401D01*
X6399100Y-13097877D01*
X6551481Y-13278830D02*
X6561005Y-13288354D01*
X6551481Y-13297877D01*
X6541957Y-13288354D01*
X6551481Y-13278830D01*
X6551481Y-13297877D01*
X6751481Y-13297877D02*
X6637195Y-13297877D01*
X6694338Y-13297877D02*
X6694338Y-13097877D01*
X6675290Y-13126449D01*
X6656243Y-13145496D01*
X6637195Y-13155020D01*
X6941957Y-13297877D02*
X6827671Y-13297877D01*
X6884814Y-13297877D02*
X6884814Y-13097877D01*
X6865766Y-13126449D01*
X6846719Y-13145496D01*
X6827671Y-13155020D01*
X7056243Y-13183592D02*
X7037195Y-13174068D01*
X7027671Y-13164544D01*
X7018147Y-13145496D01*
X7018147Y-13135973D01*
X7027671Y-13116925D01*
X7037195Y-13107401D01*
X7056243Y-13097877D01*
X7094338Y-13097877D01*
X7113386Y-13107401D01*
X7122909Y-13116925D01*
X7132433Y-13135973D01*
X7132433Y-13145496D01*
X7122909Y-13164544D01*
X7113386Y-13174068D01*
X7094338Y-13183592D01*
X7056243Y-13183592D01*
X7037195Y-13193115D01*
X7027671Y-13202639D01*
X7018147Y-13221687D01*
X7018147Y-13259782D01*
X7027671Y-13278830D01*
X7037195Y-13288354D01*
X7056243Y-13297877D01*
X7094338Y-13297877D01*
X7113386Y-13288354D01*
X7122909Y-13278830D01*
X7132433Y-13259782D01*
X7132433Y-13221687D01*
X7122909Y-13202639D01*
X7113386Y-13193115D01*
X7094338Y-13183592D01*
X7322909Y-13297877D02*
X7208624Y-13297877D01*
X7265766Y-13297877D02*
X7265766Y-13097877D01*
X7246719Y-13126449D01*
X7227671Y-13145496D01*
X7208624Y-13155020D01*
X7399100Y-13097877D02*
X7399100Y-13135973D01*
X7475290Y-13097877D02*
X7475290Y-13135973D01*
X7770528Y-13374068D02*
X7761005Y-13364544D01*
X7741957Y-13335973D01*
X7732433Y-13316925D01*
X7722909Y-13288354D01*
X7713386Y-13240735D01*
X7713386Y-13202639D01*
X7722909Y-13155020D01*
X7732433Y-13126449D01*
X7741957Y-13107401D01*
X7761005Y-13078830D01*
X7770528Y-13069306D01*
X7941957Y-13097877D02*
X7846719Y-13097877D01*
X7837195Y-13193115D01*
X7846719Y-13183592D01*
X7865766Y-13174068D01*
X7913386Y-13174068D01*
X7932433Y-13183592D01*
X7941957Y-13193115D01*
X7951481Y-13212163D01*
X7951481Y-13259782D01*
X7941957Y-13278830D01*
X7932433Y-13288354D01*
X7913386Y-13297877D01*
X7865766Y-13297877D01*
X7846719Y-13288354D01*
X7837195Y-13278830D01*
X8075290Y-13097877D02*
X8094338Y-13097877D01*
X8113386Y-13107401D01*
X8122909Y-13116925D01*
X8132433Y-13135973D01*
X8141957Y-13174068D01*
X8141957Y-13221687D01*
X8132433Y-13259782D01*
X8122909Y-13278830D01*
X8113386Y-13288354D01*
X8094338Y-13297877D01*
X8075290Y-13297877D01*
X8056243Y-13288354D01*
X8046719Y-13278830D01*
X8037195Y-13259782D01*
X8027671Y-13221687D01*
X8027671Y-13174068D01*
X8037195Y-13135973D01*
X8046719Y-13116925D01*
X8056243Y-13107401D01*
X8075290Y-13097877D01*
X8380052Y-13297877D02*
X8380052Y-13097877D01*
X8465767Y-13297877D02*
X8465767Y-13193115D01*
X8456243Y-13174068D01*
X8437195Y-13164544D01*
X8408624Y-13164544D01*
X8389576Y-13174068D01*
X8380052Y-13183592D01*
X8589576Y-13297877D02*
X8570528Y-13288354D01*
X8561005Y-13278830D01*
X8551481Y-13259782D01*
X8551481Y-13202639D01*
X8561005Y-13183592D01*
X8570528Y-13174068D01*
X8589576Y-13164544D01*
X8618148Y-13164544D01*
X8637195Y-13174068D01*
X8646719Y-13183592D01*
X8656243Y-13202639D01*
X8656243Y-13259782D01*
X8646719Y-13278830D01*
X8637195Y-13288354D01*
X8618148Y-13297877D01*
X8589576Y-13297877D01*
X8770528Y-13297877D02*
X8751481Y-13288354D01*
X8741957Y-13269306D01*
X8741957Y-13097877D01*
X8922909Y-13288354D02*
X8903862Y-13297877D01*
X8865767Y-13297877D01*
X8846719Y-13288354D01*
X8837195Y-13269306D01*
X8837195Y-13193115D01*
X8846719Y-13174068D01*
X8865767Y-13164544D01*
X8903862Y-13164544D01*
X8922909Y-13174068D01*
X8932433Y-13193115D01*
X8932433Y-13212163D01*
X8837195Y-13231211D01*
X9008624Y-13288354D02*
X9027671Y-13297877D01*
X9065767Y-13297877D01*
X9084814Y-13288354D01*
X9094338Y-13269306D01*
X9094338Y-13259782D01*
X9084814Y-13240735D01*
X9065767Y-13231211D01*
X9037195Y-13231211D01*
X9018148Y-13221687D01*
X9008624Y-13202639D01*
X9008624Y-13193115D01*
X9018148Y-13174068D01*
X9037195Y-13164544D01*
X9065767Y-13164544D01*
X9084814Y-13174068D01*
X9161005Y-13374068D02*
X9170528Y-13364544D01*
X9189576Y-13335973D01*
X9199100Y-13316925D01*
X9208624Y-13288354D01*
X9218148Y-13240735D01*
X9218148Y-13202639D01*
X9208624Y-13155020D01*
X9199100Y-13126449D01*
X9189576Y-13107401D01*
X9170528Y-13078830D01*
X9161005Y-13069306D01*
X9522909Y-13374068D02*
X9513386Y-13364544D01*
X9494338Y-13335973D01*
X9484814Y-13316925D01*
X9475290Y-13288354D01*
X9465767Y-13240735D01*
X9465767Y-13202639D01*
X9475290Y-13155020D01*
X9484814Y-13126449D01*
X9494338Y-13107401D01*
X9513386Y-13078830D01*
X9522909Y-13069306D01*
X9599100Y-13164544D02*
X9599100Y-13297877D01*
X9599100Y-13183592D02*
X9608624Y-13174068D01*
X9627671Y-13164544D01*
X9656243Y-13164544D01*
X9675290Y-13174068D01*
X9684814Y-13193115D01*
X9684814Y-13297877D01*
X9808624Y-13297877D02*
X9789576Y-13288354D01*
X9780052Y-13278830D01*
X9770528Y-13259782D01*
X9770528Y-13202639D01*
X9780052Y-13183592D01*
X9789576Y-13174068D01*
X9808624Y-13164544D01*
X9837195Y-13164544D01*
X9856243Y-13174068D01*
X9865767Y-13183592D01*
X9875290Y-13202639D01*
X9875290Y-13259782D01*
X9865767Y-13278830D01*
X9856243Y-13288354D01*
X9837195Y-13297877D01*
X9808624Y-13297877D01*
X9932433Y-13164544D02*
X10008624Y-13164544D01*
X9961005Y-13097877D02*
X9961005Y-13269306D01*
X9970528Y-13288354D01*
X9989576Y-13297877D01*
X10008624Y-13297877D01*
X10227671Y-13164544D02*
X10227671Y-13364544D01*
X10227671Y-13174068D02*
X10246719Y-13164544D01*
X10284814Y-13164544D01*
X10303862Y-13174068D01*
X10313386Y-13183592D01*
X10322909Y-13202639D01*
X10322909Y-13259782D01*
X10313386Y-13278830D01*
X10303862Y-13288354D01*
X10284814Y-13297877D01*
X10246719Y-13297877D01*
X10227671Y-13288354D01*
X10437195Y-13297877D02*
X10418148Y-13288354D01*
X10408624Y-13269306D01*
X10408624Y-13097877D01*
X10599100Y-13297877D02*
X10599100Y-13193115D01*
X10589576Y-13174068D01*
X10570528Y-13164544D01*
X10532433Y-13164544D01*
X10513386Y-13174068D01*
X10599100Y-13288354D02*
X10580052Y-13297877D01*
X10532433Y-13297877D01*
X10513386Y-13288354D01*
X10503862Y-13269306D01*
X10503862Y-13250258D01*
X10513386Y-13231211D01*
X10532433Y-13221687D01*
X10580052Y-13221687D01*
X10599100Y-13212163D01*
X10665767Y-13164544D02*
X10741957Y-13164544D01*
X10694338Y-13097877D02*
X10694338Y-13269306D01*
X10703862Y-13288354D01*
X10722909Y-13297877D01*
X10741957Y-13297877D01*
X10884814Y-13288354D02*
X10865767Y-13297877D01*
X10827671Y-13297877D01*
X10808624Y-13288354D01*
X10799100Y-13269306D01*
X10799100Y-13193115D01*
X10808624Y-13174068D01*
X10827671Y-13164544D01*
X10865767Y-13164544D01*
X10884814Y-13174068D01*
X10894338Y-13193115D01*
X10894338Y-13212163D01*
X10799100Y-13231211D01*
X11065767Y-13297877D02*
X11065767Y-13097877D01*
X11065767Y-13288354D02*
X11046719Y-13297877D01*
X11008624Y-13297877D01*
X10989576Y-13288354D01*
X10980052Y-13278830D01*
X10970528Y-13259782D01*
X10970528Y-13202639D01*
X10980052Y-13183592D01*
X10989576Y-13174068D01*
X11008624Y-13164544D01*
X11046719Y-13164544D01*
X11065767Y-13174068D01*
X11141957Y-13374068D02*
X11151481Y-13364544D01*
X11170528Y-13335973D01*
X11180052Y-13316925D01*
X11189576Y-13288354D01*
X11199100Y-13240735D01*
X11199100Y-13202639D01*
X11189576Y-13155020D01*
X11180052Y-13126449D01*
X11170528Y-13107401D01*
X11151481Y-13078830D01*
X11141957Y-13069306D01*
X4098624Y-13427401D02*
X4098624Y-13627401D01*
X3998624Y-13527401D02*
X4198624Y-13527401D01*
X4541957Y-13484544D02*
X4541957Y-13617877D01*
X4494338Y-13408354D02*
X4446719Y-13551211D01*
X4570528Y-13551211D01*
X4646719Y-13598830D02*
X4656243Y-13608354D01*
X4646719Y-13617877D01*
X4637195Y-13608354D01*
X4646719Y-13598830D01*
X4646719Y-13617877D01*
X4846719Y-13617877D02*
X4732433Y-13617877D01*
X4789576Y-13617877D02*
X4789576Y-13417877D01*
X4770528Y-13446449D01*
X4751481Y-13465496D01*
X4732433Y-13475020D01*
X4970528Y-13417877D02*
X4989576Y-13417877D01*
X5008624Y-13427401D01*
X5018148Y-13436925D01*
X5027671Y-13455973D01*
X5037195Y-13494068D01*
X5037195Y-13541687D01*
X5027671Y-13579782D01*
X5018148Y-13598830D01*
X5008624Y-13608354D01*
X4989576Y-13617877D01*
X4970528Y-13617877D01*
X4951481Y-13608354D01*
X4941957Y-13598830D01*
X4932433Y-13579782D01*
X4922909Y-13541687D01*
X4922909Y-13494068D01*
X4932433Y-13455973D01*
X4941957Y-13436925D01*
X4951481Y-13427401D01*
X4970528Y-13417877D01*
X5161005Y-13417877D02*
X5180052Y-13417877D01*
X5199100Y-13427401D01*
X5208624Y-13436925D01*
X5218148Y-13455973D01*
X5227671Y-13494068D01*
X5227671Y-13541687D01*
X5218148Y-13579782D01*
X5208624Y-13598830D01*
X5199100Y-13608354D01*
X5180052Y-13617877D01*
X5161005Y-13617877D01*
X5141957Y-13608354D01*
X5132433Y-13598830D01*
X5122909Y-13579782D01*
X5113386Y-13541687D01*
X5113386Y-13494068D01*
X5122909Y-13455973D01*
X5132433Y-13436925D01*
X5141957Y-13427401D01*
X5161005Y-13417877D01*
X5313386Y-13617877D02*
X5313386Y-13484544D01*
X5313386Y-13503592D02*
X5322909Y-13494068D01*
X5341957Y-13484544D01*
X5370528Y-13484544D01*
X5389576Y-13494068D01*
X5399100Y-13513115D01*
X5399100Y-13617877D01*
X5399100Y-13513115D02*
X5408624Y-13494068D01*
X5427671Y-13484544D01*
X5456243Y-13484544D01*
X5475290Y-13494068D01*
X5484814Y-13513115D01*
X5484814Y-13617877D01*
X5580052Y-13617877D02*
X5580052Y-13484544D01*
X5580052Y-13503592D02*
X5589576Y-13494068D01*
X5608624Y-13484544D01*
X5637195Y-13484544D01*
X5656243Y-13494068D01*
X5665766Y-13513115D01*
X5665766Y-13617877D01*
X5665766Y-13513115D02*
X5675290Y-13494068D01*
X5694338Y-13484544D01*
X5722909Y-13484544D01*
X5741957Y-13494068D01*
X5751481Y-13513115D01*
X5751481Y-13617877D01*
X6141957Y-13408354D02*
X5970528Y-13665496D01*
X6399100Y-13417877D02*
X6418147Y-13417877D01*
X6437195Y-13427401D01*
X6446719Y-13436925D01*
X6456243Y-13455973D01*
X6465766Y-13494068D01*
X6465766Y-13541687D01*
X6456243Y-13579782D01*
X6446719Y-13598830D01*
X6437195Y-13608354D01*
X6418147Y-13617877D01*
X6399100Y-13617877D01*
X6380052Y-13608354D01*
X6370528Y-13598830D01*
X6361005Y-13579782D01*
X6351481Y-13541687D01*
X6351481Y-13494068D01*
X6361005Y-13455973D01*
X6370528Y-13436925D01*
X6380052Y-13427401D01*
X6399100Y-13417877D01*
X6551481Y-13598830D02*
X6561005Y-13608354D01*
X6551481Y-13617877D01*
X6541957Y-13608354D01*
X6551481Y-13598830D01*
X6551481Y-13617877D01*
X6751481Y-13617877D02*
X6637195Y-13617877D01*
X6694338Y-13617877D02*
X6694338Y-13417877D01*
X6675290Y-13446449D01*
X6656243Y-13465496D01*
X6637195Y-13475020D01*
X6922909Y-13417877D02*
X6884814Y-13417877D01*
X6865766Y-13427401D01*
X6856243Y-13436925D01*
X6837195Y-13465496D01*
X6827671Y-13503592D01*
X6827671Y-13579782D01*
X6837195Y-13598830D01*
X6846719Y-13608354D01*
X6865766Y-13617877D01*
X6903862Y-13617877D01*
X6922909Y-13608354D01*
X6932433Y-13598830D01*
X6941957Y-13579782D01*
X6941957Y-13532163D01*
X6932433Y-13513115D01*
X6922909Y-13503592D01*
X6903862Y-13494068D01*
X6865766Y-13494068D01*
X6846719Y-13503592D01*
X6837195Y-13513115D01*
X6827671Y-13532163D01*
X7132433Y-13617877D02*
X7018147Y-13617877D01*
X7075290Y-13617877D02*
X7075290Y-13417877D01*
X7056243Y-13446449D01*
X7037195Y-13465496D01*
X7018147Y-13475020D01*
X7303862Y-13484544D02*
X7303862Y-13617877D01*
X7256243Y-13408354D02*
X7208624Y-13551211D01*
X7332433Y-13551211D01*
X7399100Y-13417877D02*
X7399100Y-13455973D01*
X7475290Y-13417877D02*
X7475290Y-13455973D01*
X7770528Y-13694068D02*
X7761005Y-13684544D01*
X7741957Y-13655973D01*
X7732433Y-13636925D01*
X7722909Y-13608354D01*
X7713386Y-13560735D01*
X7713386Y-13522639D01*
X7722909Y-13475020D01*
X7732433Y-13446449D01*
X7741957Y-13427401D01*
X7761005Y-13398830D01*
X7770528Y-13389306D01*
X7837195Y-13436925D02*
X7846719Y-13427401D01*
X7865766Y-13417877D01*
X7913386Y-13417877D01*
X7932433Y-13427401D01*
X7941957Y-13436925D01*
X7951481Y-13455973D01*
X7951481Y-13475020D01*
X7941957Y-13503592D01*
X7827671Y-13617877D01*
X7951481Y-13617877D01*
X8132433Y-13417877D02*
X8037195Y-13417877D01*
X8027671Y-13513115D01*
X8037195Y-13503592D01*
X8056243Y-13494068D01*
X8103862Y-13494068D01*
X8122909Y-13503592D01*
X8132433Y-13513115D01*
X8141957Y-13532163D01*
X8141957Y-13579782D01*
X8132433Y-13598830D01*
X8122909Y-13608354D01*
X8103862Y-13617877D01*
X8056243Y-13617877D01*
X8037195Y-13608354D01*
X8027671Y-13598830D01*
X8380052Y-13617877D02*
X8380052Y-13417877D01*
X8465767Y-13617877D02*
X8465767Y-13513115D01*
X8456243Y-13494068D01*
X8437195Y-13484544D01*
X8408624Y-13484544D01*
X8389576Y-13494068D01*
X8380052Y-13503592D01*
X8589576Y-13617877D02*
X8570528Y-13608354D01*
X8561005Y-13598830D01*
X8551481Y-13579782D01*
X8551481Y-13522639D01*
X8561005Y-13503592D01*
X8570528Y-13494068D01*
X8589576Y-13484544D01*
X8618148Y-13484544D01*
X8637195Y-13494068D01*
X8646719Y-13503592D01*
X8656243Y-13522639D01*
X8656243Y-13579782D01*
X8646719Y-13598830D01*
X8637195Y-13608354D01*
X8618148Y-13617877D01*
X8589576Y-13617877D01*
X8770528Y-13617877D02*
X8751481Y-13608354D01*
X8741957Y-13589306D01*
X8741957Y-13417877D01*
X8922909Y-13608354D02*
X8903862Y-13617877D01*
X8865767Y-13617877D01*
X8846719Y-13608354D01*
X8837195Y-13589306D01*
X8837195Y-13513115D01*
X8846719Y-13494068D01*
X8865767Y-13484544D01*
X8903862Y-13484544D01*
X8922909Y-13494068D01*
X8932433Y-13513115D01*
X8932433Y-13532163D01*
X8837195Y-13551211D01*
X9008624Y-13608354D02*
X9027671Y-13617877D01*
X9065767Y-13617877D01*
X9084814Y-13608354D01*
X9094338Y-13589306D01*
X9094338Y-13579782D01*
X9084814Y-13560735D01*
X9065767Y-13551211D01*
X9037195Y-13551211D01*
X9018148Y-13541687D01*
X9008624Y-13522639D01*
X9008624Y-13513115D01*
X9018148Y-13494068D01*
X9037195Y-13484544D01*
X9065767Y-13484544D01*
X9084814Y-13494068D01*
X9161005Y-13694068D02*
X9170528Y-13684544D01*
X9189576Y-13655973D01*
X9199100Y-13636925D01*
X9208624Y-13608354D01*
X9218148Y-13560735D01*
X9218148Y-13522639D01*
X9208624Y-13475020D01*
X9199100Y-13446449D01*
X9189576Y-13427401D01*
X9170528Y-13398830D01*
X9161005Y-13389306D01*
X9522909Y-13694068D02*
X9513386Y-13684544D01*
X9494338Y-13655973D01*
X9484814Y-13636925D01*
X9475290Y-13608354D01*
X9465767Y-13560735D01*
X9465767Y-13522639D01*
X9475290Y-13475020D01*
X9484814Y-13446449D01*
X9494338Y-13427401D01*
X9513386Y-13398830D01*
X9522909Y-13389306D01*
X9599100Y-13484544D02*
X9599100Y-13617877D01*
X9599100Y-13503592D02*
X9608624Y-13494068D01*
X9627671Y-13484544D01*
X9656243Y-13484544D01*
X9675290Y-13494068D01*
X9684814Y-13513115D01*
X9684814Y-13617877D01*
X9808624Y-13617877D02*
X9789576Y-13608354D01*
X9780052Y-13598830D01*
X9770528Y-13579782D01*
X9770528Y-13522639D01*
X9780052Y-13503592D01*
X9789576Y-13494068D01*
X9808624Y-13484544D01*
X9837195Y-13484544D01*
X9856243Y-13494068D01*
X9865767Y-13503592D01*
X9875290Y-13522639D01*
X9875290Y-13579782D01*
X9865767Y-13598830D01*
X9856243Y-13608354D01*
X9837195Y-13617877D01*
X9808624Y-13617877D01*
X9932433Y-13484544D02*
X10008624Y-13484544D01*
X9961005Y-13417877D02*
X9961005Y-13589306D01*
X9970528Y-13608354D01*
X9989576Y-13617877D01*
X10008624Y-13617877D01*
X10227671Y-13484544D02*
X10227671Y-13684544D01*
X10227671Y-13494068D02*
X10246719Y-13484544D01*
X10284814Y-13484544D01*
X10303862Y-13494068D01*
X10313386Y-13503592D01*
X10322909Y-13522639D01*
X10322909Y-13579782D01*
X10313386Y-13598830D01*
X10303862Y-13608354D01*
X10284814Y-13617877D01*
X10246719Y-13617877D01*
X10227671Y-13608354D01*
X10437195Y-13617877D02*
X10418148Y-13608354D01*
X10408624Y-13589306D01*
X10408624Y-13417877D01*
X10599100Y-13617877D02*
X10599100Y-13513115D01*
X10589576Y-13494068D01*
X10570528Y-13484544D01*
X10532433Y-13484544D01*
X10513386Y-13494068D01*
X10599100Y-13608354D02*
X10580052Y-13617877D01*
X10532433Y-13617877D01*
X10513386Y-13608354D01*
X10503862Y-13589306D01*
X10503862Y-13570258D01*
X10513386Y-13551211D01*
X10532433Y-13541687D01*
X10580052Y-13541687D01*
X10599100Y-13532163D01*
X10665767Y-13484544D02*
X10741957Y-13484544D01*
X10694338Y-13417877D02*
X10694338Y-13589306D01*
X10703862Y-13608354D01*
X10722909Y-13617877D01*
X10741957Y-13617877D01*
X10884814Y-13608354D02*
X10865767Y-13617877D01*
X10827671Y-13617877D01*
X10808624Y-13608354D01*
X10799100Y-13589306D01*
X10799100Y-13513115D01*
X10808624Y-13494068D01*
X10827671Y-13484544D01*
X10865767Y-13484544D01*
X10884814Y-13494068D01*
X10894338Y-13513115D01*
X10894338Y-13532163D01*
X10799100Y-13551211D01*
X11065767Y-13617877D02*
X11065767Y-13417877D01*
X11065767Y-13608354D02*
X11046719Y-13617877D01*
X11008624Y-13617877D01*
X10989576Y-13608354D01*
X10980052Y-13598830D01*
X10970528Y-13579782D01*
X10970528Y-13522639D01*
X10980052Y-13503592D01*
X10989576Y-13494068D01*
X11008624Y-13484544D01*
X11046719Y-13484544D01*
X11065767Y-13494068D01*
X11141957Y-13694068D02*
X11151481Y-13684544D01*
X11170528Y-13655973D01*
X11180052Y-13636925D01*
X11189576Y-13608354D01*
X11199100Y-13560735D01*
X11199100Y-13522639D01*
X11189576Y-13475020D01*
X11180052Y-13446449D01*
X11170528Y-13427401D01*
X11151481Y-13398830D01*
X11141957Y-13389306D01*
M02*
