%TF.GenerationSoftware,KiCad,Pcbnew,(6.0.0-0)*%
%TF.CreationDate,2022-01-01T10:49:50+00:00*%
%TF.ProjectId,Sarcodina,53617263-6f64-4696-9e61-2e6b69636164,rev?*%
%TF.SameCoordinates,Original*%
%TF.FileFunction,Copper,L2,Bot*%
%TF.FilePolarity,Positive*%
%FSLAX46Y46*%
G04 Gerber Fmt 4.6, Leading zero omitted, Abs format (unit mm)*
G04 Created by KiCad (PCBNEW (6.0.0-0)) date 2022-01-01 10:49:50*
%MOMM*%
%LPD*%
G01*
G04 APERTURE LIST*
%TA.AperFunction,ComponentPad*%
%ADD10C,1.397000*%
%TD*%
%TA.AperFunction,SMDPad,CuDef*%
%ADD11R,2.300000X2.000000*%
%TD*%
%TA.AperFunction,ComponentPad*%
%ADD12R,1.400000X1.400000*%
%TD*%
%TA.AperFunction,ComponentPad*%
%ADD13C,1.400000*%
%TD*%
%TA.AperFunction,SMDPad,CuDef*%
%ADD14R,1.600000X1.200000*%
%TD*%
%TA.AperFunction,SMDPad,CuDef*%
%ADD15R,1.800000X0.820000*%
%TD*%
%TA.AperFunction,ViaPad*%
%ADD16C,0.600000*%
%TD*%
%TA.AperFunction,Conductor*%
%ADD17C,0.250000*%
%TD*%
G04 APERTURE END LIST*
D10*
%TO.P,65,1*%
%TO.N,unconnected-(L1-Pad2)*%
X90678000Y-95504000D03*
%TD*%
%TO.P,,1*%
%TO.N,unconnected-(L1-Pad4)*%
X109728000Y-49276000D03*
%TD*%
%TO.P,\u002A\u002A81,1*%
%TO.N,unconnected-(L1-Pad4)*%
X106426000Y-77978000D03*
%TD*%
%TO.P,\u002A\u002A48,1*%
%TO.N,VCC*%
X90678000Y-46228000D03*
%TD*%
%TO.P,\u002A\u002A11,1*%
%TO.N,unconnected-(L1-Pad4)*%
X106426000Y-39878000D03*
%TD*%
%TO.P,\u002A\u002A37,1*%
%TO.N,col1*%
X84328000Y-61976000D03*
%TD*%
%TO.P,\u002A\u002A23,1*%
%TO.N,col4*%
X141478000Y-42926000D03*
%TD*%
%TO.P,\u002A\u002A50,1*%
%TO.N,VCC*%
X109728000Y-61976000D03*
%TD*%
%TO.P,\u002A\u002A114,1*%
%TO.N,col2*%
X103378000Y-100076000D03*
%TD*%
%TO.P,\u002A\u002A156,1*%
%TO.N,col3*%
X122428000Y-119126000D03*
%TD*%
%TO.P,62,1*%
%TO.N,row3*%
X71628000Y-92583000D03*
%TD*%
%TO.P,\u002A\u002A62,1*%
%TO.N,VCC*%
X128778000Y-46228000D03*
%TD*%
%TO.P,\u002A\u002A5,1*%
%TO.N,unconnected-(L1-Pad2)*%
X87376000Y-30226000D03*
%TD*%
%TO.P,\u002A\u002A140,1*%
%TO.N,GND*%
X68326000Y-103378000D03*
%TD*%
%TO.P,\u002A\u002A153,1*%
%TO.N,VCC*%
X90678000Y-103378000D03*
%TD*%
%TO.P,\u002A\u002A,1*%
%TO.N,unconnected-(L1-Pad2)*%
X68326000Y-30226000D03*
%TD*%
%TO.P,\u002A\u002A167,1*%
%TO.N,VCC*%
X128778000Y-103378000D03*
%TD*%
%TO.P,\u002A\u002A88,1*%
%TO.N,unconnected-(L1-Pad4)*%
X125476000Y-77978000D03*
%TD*%
%TO.P,,1*%
%TO.N,unconnected-(L1-Pad4)*%
X52578000Y-49276000D03*
%TD*%
%TO.P,\u002A\u002A109,1*%
%TO.N,unconnected-(L1-Pad4)*%
X87376000Y-97028000D03*
%TD*%
%TO.P,\u002A\u002A19,1*%
%TO.N,unconnected-(L1-Pad2)*%
X125476000Y-30226000D03*
%TD*%
%TO.P,\u002A\u002A123,1*%
%TO.N,unconnected-(L1-Pad4)*%
X125476000Y-97028000D03*
%TD*%
%TO.P,96,1*%
%TO.N,col4*%
X141478000Y-103378000D03*
%TD*%
%TO.P,\u002A\u002A166,1*%
%TO.N,unconnected-(L1-Pad2)*%
X144526000Y-106426000D03*
%TD*%
%TO.P,\u002A\u002A69,1*%
%TO.N,VCC*%
X52578000Y-65278000D03*
%TD*%
D11*
%TO.P,SW22,1,1*%
%TO.N,col1*%
X86502000Y-113832000D03*
%TO.P,SW22,2,2*%
%TO.N,Net-(D22-Pad2)*%
X73802000Y-116372000D03*
%TD*%
%TO.P,SW15,1,1*%
%TO.N,col4*%
X143652000Y-75732000D03*
%TO.P,SW15,2,2*%
%TO.N,Net-(D15-Pad2)*%
X130952000Y-78272000D03*
%TD*%
D10*
%TO.P,\u002A\u002A38,1*%
%TO.N,GND*%
X87376000Y-61976000D03*
%TD*%
%TO.P,\u002A\u002A47,1*%
%TO.N,unconnected-(L1-Pad2)*%
X106426000Y-49276000D03*
%TD*%
%TO.P,33,1*%
%TO.N,unconnected-(L1-Pad2)*%
X128778000Y-57404000D03*
%TD*%
%TO.P,91,1*%
%TO.N,row4*%
X125476000Y-111633000D03*
%TD*%
%TO.P,\u002A\u002A157,1*%
%TO.N,GND*%
X125476000Y-119126000D03*
%TD*%
%TO.P,\u002A\u002A144,1*%
%TO.N,unconnected-(L1-Pad4)*%
X87376000Y-116078000D03*
%TD*%
%TO.P,\u002A\u002A129,1*%
%TO.N,GND*%
X144526000Y-100076000D03*
%TD*%
%TO.P,\u002A\u002A82,1*%
%TO.N,unconnected-(L1-Pad2)*%
X106426000Y-68326000D03*
%TD*%
%TO.P,,1*%
%TO.N,unconnected-(L1-Pad4)*%
X128778000Y-106426000D03*
%TD*%
%TO.P,,1*%
%TO.N,unconnected-(L1-Pad2)*%
X52578000Y-38354000D03*
%TD*%
%TO.P,\u002A\u002A2,1*%
%TO.N,col1*%
X84328000Y-42926000D03*
%TD*%
%TO.P,\u002A\u002A91,1*%
%TO.N,GND*%
X125476000Y-65278000D03*
%TD*%
%TO.P,\u002A\u002A147,1*%
%TO.N,GND*%
X87376000Y-103378000D03*
%TD*%
%TO.P,\u002A\u002A52,1*%
%TO.N,GND*%
X125476000Y-61976000D03*
%TD*%
%TO.P,63,1*%
%TO.N,row3*%
X87376000Y-92583000D03*
%TD*%
%TO.P,\u002A\u002A71,1*%
%TO.N,VCC*%
X71628000Y-81026000D03*
%TD*%
%TO.P,,1*%
%TO.N,unconnected-(L1-Pad4)*%
X90678000Y-49276000D03*
%TD*%
%TO.P,87,1*%
%TO.N,row4*%
X106426000Y-111633000D03*
%TD*%
%TO.P,\u002A\u002A143,1*%
%TO.N,GND*%
X87376000Y-119126000D03*
%TD*%
D12*
%TO.P,D,1*%
%TO.N,row4*%
X131826000Y-118999000D03*
D13*
%TO.P,D,2*%
%TO.N,Net-(D1-Pad2)*%
X138176000Y-118999000D03*
D14*
X135526000Y-118999000D03*
%TD*%
D11*
%TO.P,SW24,1,1*%
%TO.N,col3*%
X124602000Y-113832000D03*
%TO.P,SW24,2,2*%
%TO.N,Net-(D24-Pad2)*%
X111902000Y-116372000D03*
%TD*%
D10*
%TO.P,49,1*%
%TO.N,unconnected-(L1-Pad2)*%
X109728000Y-76454000D03*
%TD*%
%TO.P,\u002A\u002A,1*%
%TO.N,GND*%
X68326000Y-27178000D03*
%TD*%
%TO.P,71,1*%
%TO.N,row3*%
X125476000Y-92583000D03*
%TD*%
%TO.P,54,1*%
%TO.N,row2*%
X128778000Y-73533000D03*
%TD*%
D12*
%TO.P,D,1*%
%TO.N,row4*%
X93726000Y-118999000D03*
D13*
%TO.P,D,2*%
%TO.N,Net-(D1-Pad2)*%
X100076000Y-118999000D03*
D14*
X97426000Y-118999000D03*
%TD*%
D12*
%TO.P,D,1*%
%TO.N,row4*%
X55626000Y-118999000D03*
D14*
%TO.P,D,2*%
%TO.N,Net-(D1-Pad2)*%
X59326000Y-118999000D03*
D13*
X61976000Y-118999000D03*
%TD*%
D10*
%TO.P,43,1*%
%TO.N,row2*%
X87376000Y-73533000D03*
%TD*%
%TO.P,\u002A\u002A148,1*%
%TO.N,VCC*%
X90678000Y-119126000D03*
%TD*%
%TO.P,\u002A\u002A89,1*%
%TO.N,unconnected-(L1-Pad2)*%
X125476000Y-68326000D03*
%TD*%
%TO.P,,1*%
%TO.N,col0*%
X65278000Y-27178000D03*
%TD*%
%TO.P,\u002A\u002A43,1*%
%TO.N,VCC*%
X90678000Y-61976000D03*
%TD*%
%TO.P,\u002A\u002A139,1*%
%TO.N,VCC*%
X52578000Y-103378000D03*
%TD*%
%TO.P,\u002A\u002A54,1*%
%TO.N,unconnected-(L1-Pad2)*%
X125476000Y-49276000D03*
%TD*%
%TO.P,\u002A\u002A90,1*%
%TO.N,VCC*%
X109728000Y-65278000D03*
%TD*%
%TO.P,47,1*%
%TO.N,row2*%
X106426000Y-73533000D03*
%TD*%
%TO.P,79,1*%
%TO.N,row4*%
X68326000Y-111633000D03*
%TD*%
%TO.P,\u002A\u002A146,1*%
%TO.N,VCC*%
X71628000Y-103378000D03*
%TD*%
D12*
%TO.P,D,1*%
%TO.N,row0*%
X74676000Y-42799000D03*
D13*
%TO.P,D,2*%
%TO.N,Net-(D1-Pad2)*%
X81026000Y-42799000D03*
D14*
X78376000Y-42799000D03*
%TD*%
D10*
%TO.P,10,1*%
%TO.N,row0*%
X109728000Y-35433000D03*
%TD*%
%TO.P,\u002A\u002A68,1*%
%TO.N,unconnected-(L1-Pad2)*%
X68326000Y-68326000D03*
%TD*%
D11*
%TO.P,SW19,1,1*%
%TO.N,col3*%
X124602000Y-94782000D03*
%TO.P,SW19,2,2*%
%TO.N,Net-(D19-Pad2)*%
X111902000Y-97322000D03*
%TD*%
D10*
%TO.P,\u002A\u002A67,1*%
%TO.N,unconnected-(L1-Pad4)*%
X68326000Y-77978000D03*
%TD*%
D11*
%TO.P,SW10,1,1*%
%TO.N,col4*%
X143652000Y-56682000D03*
%TO.P,SW10,2,2*%
%TO.N,Net-(D10-Pad2)*%
X130952000Y-59222000D03*
%TD*%
D10*
%TO.P,80,1*%
%TO.N,col0*%
X65278000Y-103378000D03*
%TD*%
%TO.P,\u002A\u002A29,1*%
%TO.N,VCC*%
X52578000Y-61976000D03*
%TD*%
%TO.P,\u002A\u002A,1*%
%TO.N,GND*%
X68326000Y-42926000D03*
%TD*%
D11*
%TO.P,SW25,1,1*%
%TO.N,col4*%
X143652000Y-113832000D03*
%TO.P,SW25,2,2*%
%TO.N,Net-(D25-Pad2)*%
X130952000Y-116372000D03*
%TD*%
D10*
%TO.P,\u002A\u002A15,1*%
%TO.N,VCC*%
X109728000Y-42926000D03*
%TD*%
%TO.P,\u002A\u002A25,1*%
%TO.N,unconnected-(L1-Pad4)*%
X144526000Y-39878000D03*
%TD*%
%TO.P,\u002A\u002A45,1*%
%TO.N,GND*%
X106426000Y-61976000D03*
%TD*%
D12*
%TO.P,D,1*%
%TO.N,row1*%
X131826000Y-61849000D03*
D14*
%TO.P,D,2*%
%TO.N,Net-(D1-Pad2)*%
X135526000Y-61849000D03*
D13*
X138176000Y-61849000D03*
%TD*%
D10*
%TO.P,74,1*%
%TO.N,row3*%
X128778000Y-92583000D03*
%TD*%
%TO.P,8,1*%
%TO.N,col2*%
X103378000Y-27178000D03*
%TD*%
%TO.P,\u002A\u002A,1*%
%TO.N,VCC*%
X52578000Y-27178000D03*
%TD*%
%TO.P,\u002A\u002A53,1*%
%TO.N,unconnected-(L1-Pad4)*%
X125476000Y-58928000D03*
%TD*%
%TO.P,\u002A\u002A159,1*%
%TO.N,unconnected-(L1-Pad2)*%
X125476000Y-106426000D03*
%TD*%
%TO.P,,1*%
%TO.N,unconnected-(L1-Pad4)*%
X52578000Y-106426000D03*
%TD*%
%TO.P,77,1*%
%TO.N,unconnected-(L1-Pad2)*%
X52578000Y-114554000D03*
%TD*%
%TO.P,22,1*%
%TO.N,row1*%
X71628000Y-54483000D03*
%TD*%
%TO.P,11,1*%
%TO.N,row0*%
X125476000Y-35433000D03*
%TD*%
%TO.P,\u002A\u002A165,1*%
%TO.N,unconnected-(L1-Pad4)*%
X144526000Y-116078000D03*
%TD*%
%TO.P,\u002A\u002A39,1*%
%TO.N,unconnected-(L1-Pad4)*%
X87376000Y-58928000D03*
%TD*%
%TO.P,\u002A\u002A17,1*%
%TO.N,GND*%
X125476000Y-42926000D03*
%TD*%
%TO.P,\u002A\u002A127,1*%
%TO.N,VCC*%
X128778000Y-100076000D03*
%TD*%
%TO.P,18,1*%
%TO.N,row1*%
X52578000Y-54483000D03*
%TD*%
%TO.P,\u002A\u002A57,1*%
%TO.N,VCC*%
X128778000Y-61976000D03*
%TD*%
D11*
%TO.P,SW12,1,1*%
%TO.N,col1*%
X86502000Y-75732000D03*
%TO.P,SW12,2,2*%
%TO.N,Net-(D12-Pad2)*%
X73802000Y-78272000D03*
%TD*%
D10*
%TO.P,\u002A\u002A130,1*%
%TO.N,unconnected-(L1-Pad4)*%
X144526000Y-97028000D03*
%TD*%
%TO.P,\u002A\u002A162,1*%
%TO.N,VCC*%
X128778000Y-119126000D03*
%TD*%
%TO.P,\u002A\u002A138,1*%
%TO.N,unconnected-(L1-Pad2)*%
X68326000Y-106426000D03*
%TD*%
%TO.P,72,1*%
%TO.N,col3*%
X122428000Y-84328000D03*
%TD*%
%TO.P,81,1*%
%TO.N,unconnected-(L1-Pad2)*%
X71628000Y-114554000D03*
%TD*%
D11*
%TO.P,SW4,1,1*%
%TO.N,col3*%
X124602000Y-37632000D03*
%TO.P,SW4,2,2*%
%TO.N,Net-(D4-Pad2)*%
X111902000Y-40172000D03*
%TD*%
D10*
%TO.P,\u002A\u002A160,1*%
%TO.N,VCC*%
X109728000Y-103378000D03*
%TD*%
%TO.P,\u002A\u002A59,1*%
%TO.N,GND*%
X144526000Y-61976000D03*
%TD*%
%TO.P,\u002A\u002A101,1*%
%TO.N,GND*%
X68326000Y-100076000D03*
%TD*%
%TO.P,\u002A\u002A33,1*%
%TO.N,unconnected-(L1-Pad2)*%
X68326000Y-49276000D03*
%TD*%
%TO.P,\u002A\u002A97,1*%
%TO.N,VCC*%
X128778000Y-65278000D03*
%TD*%
%TO.P,\u002A\u002A60,1*%
%TO.N,unconnected-(L1-Pad4)*%
X144526000Y-58928000D03*
%TD*%
D12*
%TO.P,D,1*%
%TO.N,row2*%
X112776000Y-80899000D03*
D13*
%TO.P,D,2*%
%TO.N,Net-(D1-Pad2)*%
X119126000Y-80899000D03*
D14*
X116476000Y-80899000D03*
%TD*%
D10*
%TO.P,68,1*%
%TO.N,col2*%
X103378000Y-84328000D03*
%TD*%
%TO.P,94,1*%
%TO.N,row4*%
X128778000Y-111633000D03*
%TD*%
%TO.P,,1*%
%TO.N,unconnected-(L1-Pad4)*%
X52578000Y-30226000D03*
%TD*%
%TO.P,46,1*%
%TO.N,row2*%
X90678000Y-73533000D03*
%TD*%
%TO.P,60,1*%
%TO.N,col0*%
X65278000Y-84328000D03*
%TD*%
%TO.P,9,1*%
%TO.N,unconnected-(L1-Pad2)*%
X109728000Y-38354000D03*
%TD*%
%TO.P,89,1*%
%TO.N,unconnected-(L1-Pad2)*%
X109728000Y-114554000D03*
%TD*%
%TO.P,14,1*%
%TO.N,row0*%
X128778000Y-35433000D03*
%TD*%
%TO.P,,1*%
%TO.N,unconnected-(L1-Pad4)*%
X71628000Y-106426000D03*
%TD*%
%TO.P,\u002A\u002A149,1*%
%TO.N,col2*%
X103378000Y-119126000D03*
%TD*%
%TO.P,\u002A\u002A56,1*%
%TO.N,GND*%
X125476000Y-46228000D03*
%TD*%
%TO.P,\u002A\u002A63,1*%
%TO.N,GND*%
X144526000Y-46228000D03*
%TD*%
%TO.P,\u002A\u002A76,1*%
%TO.N,VCC*%
X71628000Y-65278000D03*
%TD*%
%TO.P,\u002A\u002A151,1*%
%TO.N,unconnected-(L1-Pad4)*%
X106426000Y-116078000D03*
%TD*%
D12*
%TO.P,D,1*%
%TO.N,row0*%
X55626000Y-42799000D03*
D13*
%TO.P,D,2*%
%TO.N,Net-(D1-Pad2)*%
X61976000Y-42799000D03*
D14*
X59326000Y-42799000D03*
%TD*%
D10*
%TO.P,\u002A\u002A95,1*%
%TO.N,unconnected-(L1-Pad4)*%
X144526000Y-77978000D03*
%TD*%
%TO.P,\u002A\u002A8,1*%
%TO.N,VCC*%
X90678000Y-42926000D03*
%TD*%
%TO.P,32,1*%
%TO.N,col3*%
X122428000Y-46228000D03*
%TD*%
%TO.P,\u002A\u002A112,1*%
%TO.N,GND*%
X87376000Y-84328000D03*
%TD*%
%TO.P,\u002A\u002A84,1*%
%TO.N,GND*%
X106426000Y-65278000D03*
%TD*%
%TO.P,\u002A\u002A6,1*%
%TO.N,VCC*%
X71628000Y-27178000D03*
%TD*%
%TO.P,\u002A\u002A110,1*%
%TO.N,unconnected-(L1-Pad2)*%
X87376000Y-87376000D03*
%TD*%
%TO.P,26,1*%
%TO.N,row1*%
X90678000Y-54483000D03*
%TD*%
%TO.P,\u002A\u002A152,1*%
%TO.N,unconnected-(L1-Pad2)*%
X106426000Y-106426000D03*
%TD*%
%TO.P,,1*%
%TO.N,unconnected-(L1-Pad4)*%
X109728000Y-30226000D03*
%TD*%
%TO.P,\u002A\u002A94,1*%
%TO.N,GND*%
X144526000Y-81026000D03*
%TD*%
%TO.P,,1*%
%TO.N,unconnected-(L1-Pad4)*%
X71628000Y-30226000D03*
%TD*%
%TO.P,,1*%
%TO.N,unconnected-(L1-Pad4)*%
X71628000Y-49276000D03*
%TD*%
%TO.P,\u002A\u002A161,1*%
%TO.N,GND*%
X125476000Y-103378000D03*
%TD*%
%TO.P,\u002A\u002A77,1*%
%TO.N,GND*%
X87376000Y-65278000D03*
%TD*%
%TO.P,12,1*%
%TO.N,col3*%
X122428000Y-27178000D03*
%TD*%
%TO.P,\u002A\u002A74,1*%
%TO.N,unconnected-(L1-Pad4)*%
X87376000Y-77978000D03*
%TD*%
%TO.P,\u002A\u002A4,1*%
%TO.N,unconnected-(L1-Pad4)*%
X87376000Y-39878000D03*
%TD*%
D11*
%TO.P,SW20,1,1*%
%TO.N,col4*%
X143652000Y-94782000D03*
%TO.P,SW20,2,2*%
%TO.N,Net-(D20-Pad2)*%
X130952000Y-97322000D03*
%TD*%
D10*
%TO.P,64,1*%
%TO.N,col1*%
X84328000Y-84328000D03*
%TD*%
%TO.P,20,1*%
%TO.N,col0*%
X65278000Y-46228000D03*
%TD*%
%TO.P,,1*%
%TO.N,unconnected-(L1-Pad4)*%
X109728000Y-106426000D03*
%TD*%
%TO.P,\u002A\u002A28,1*%
%TO.N,GND*%
X144526000Y-27178000D03*
%TD*%
D11*
%TO.P,SW2,1,1*%
%TO.N,col1*%
X86502000Y-37632000D03*
%TO.P,SW2,2,2*%
%TO.N,Net-(D2-Pad2)*%
X73802000Y-40172000D03*
%TD*%
D12*
%TO.P,D,1*%
%TO.N,row3*%
X93726000Y-99949000D03*
D14*
%TO.P,D,2*%
%TO.N,Net-(D1-Pad2)*%
X97426000Y-99949000D03*
D13*
X100076000Y-99949000D03*
%TD*%
D10*
%TO.P,\u002A\u002A121,1*%
%TO.N,col3*%
X122428000Y-100076000D03*
%TD*%
D11*
%TO.P,SW11,1,1*%
%TO.N,col0*%
X67452000Y-75732000D03*
%TO.P,SW11,2,2*%
%TO.N,Net-(D11-Pad2)*%
X54752000Y-78272000D03*
%TD*%
D10*
%TO.P,\u002A\u002A16,1*%
%TO.N,col3*%
X122428000Y-42926000D03*
%TD*%
%TO.P,\u002A\u002A92,1*%
%TO.N,VCC*%
X128778000Y-81026000D03*
%TD*%
%TO.P,57,1*%
%TO.N,unconnected-(L1-Pad2)*%
X52578000Y-95504000D03*
%TD*%
%TO.P,59,1*%
%TO.N,row3*%
X68326000Y-92583000D03*
%TD*%
%TO.P,\u002A\u002A136,1*%
%TO.N,GND*%
X68326000Y-119126000D03*
%TD*%
%TO.P,\u002A\u002A119,1*%
%TO.N,GND*%
X106426000Y-84328000D03*
%TD*%
%TO.P,82,1*%
%TO.N,row4*%
X71628000Y-111633000D03*
%TD*%
%TO.P,\u002A\u002A132,1*%
%TO.N,VCC*%
X128778000Y-84328000D03*
%TD*%
%TO.P,78,1*%
%TO.N,row4*%
X52578000Y-111633000D03*
%TD*%
%TO.P,,1*%
%TO.N,unconnected-(L1-Pad4)*%
X128778000Y-49276000D03*
%TD*%
%TO.P,\u002A\u002A49,1*%
%TO.N,GND*%
X106426000Y-46228000D03*
%TD*%
%TO.P,\u002A\u002A34,1*%
%TO.N,VCC*%
X52578000Y-46228000D03*
%TD*%
%TO.P,67,1*%
%TO.N,row3*%
X106426000Y-92583000D03*
%TD*%
%TO.P,75,1*%
%TO.N,row3*%
X144526000Y-92583000D03*
%TD*%
D11*
%TO.P,SW9,1,1*%
%TO.N,col3*%
X124602000Y-56682000D03*
%TO.P,SW9,2,2*%
%TO.N,Net-(D9-Pad2)*%
X111902000Y-59222000D03*
%TD*%
D10*
%TO.P,\u002A\u002A154,1*%
%TO.N,GND*%
X106426000Y-103378000D03*
%TD*%
D12*
%TO.P,D,1*%
%TO.N,row3*%
X131826000Y-99949000D03*
D14*
%TO.P,D,2*%
%TO.N,Net-(D1-Pad2)*%
X135526000Y-99949000D03*
D13*
X138176000Y-99949000D03*
%TD*%
D10*
%TO.P,\u002A\u002A65,1*%
%TO.N,col0*%
X65278000Y-81026000D03*
%TD*%
%TO.P,\u002A\u002A85,1*%
%TO.N,VCC*%
X109728000Y-81026000D03*
%TD*%
D12*
%TO.P,D,1*%
%TO.N,row1*%
X55626000Y-61849000D03*
D14*
%TO.P,D,2*%
%TO.N,Net-(D1-Pad2)*%
X59326000Y-61849000D03*
D13*
X61976000Y-61849000D03*
%TD*%
D10*
%TO.P,1,1*%
%TO.N,unconnected-(L1-Pad2)*%
X71628000Y-38354000D03*
%TD*%
D12*
%TO.P,D,1*%
%TO.N,row4*%
X74676000Y-118999000D03*
D13*
%TO.P,D,2*%
%TO.N,Net-(D1-Pad2)*%
X81026000Y-118999000D03*
D14*
X78376000Y-118999000D03*
%TD*%
D10*
%TO.P,\u002A\u002A51,1*%
%TO.N,col3*%
X122428000Y-61976000D03*
%TD*%
%TO.P,,1*%
%TO.N,unconnected-(L1-Pad4)*%
X71628000Y-68326000D03*
%TD*%
%TO.P,\u002A\u002A58,1*%
%TO.N,col4*%
X141478000Y-61976000D03*
%TD*%
%TO.P,23,1*%
%TO.N,row1*%
X87376000Y-54483000D03*
%TD*%
%TO.P,\u002A\u002A61,1*%
%TO.N,unconnected-(L1-Pad2)*%
X144526000Y-49276000D03*
%TD*%
%TO.P,\u002A\u002A128,1*%
%TO.N,col4*%
X141478000Y-100076000D03*
%TD*%
%TO.P,85,1*%
%TO.N,unconnected-(L1-Pad2)*%
X90678000Y-114554000D03*
%TD*%
%TO.P,\u002A\u002A72,1*%
%TO.N,col1*%
X84328000Y-81026000D03*
%TD*%
%TO.P,\u002A\u002A46,1*%
%TO.N,unconnected-(L1-Pad4)*%
X106426000Y-58928000D03*
%TD*%
%TO.P,\u002A\u002A,1*%
%TO.N,VCC*%
X52578000Y-42926000D03*
%TD*%
%TO.P,19,1*%
%TO.N,row1*%
X68326000Y-54483000D03*
%TD*%
%TO.P,44,1*%
%TO.N,col1*%
X84328000Y-65278000D03*
%TD*%
%TO.P,\u002A\u002A118,1*%
%TO.N,VCC*%
X90678000Y-84328000D03*
%TD*%
%TO.P,\u002A\u002A10,1*%
%TO.N,GND*%
X106426000Y-42926000D03*
%TD*%
%TO.P,\u002A\u002A78,1*%
%TO.N,VCC*%
X90678000Y-81026000D03*
%TD*%
%TO.P,\u002A\u002A80,1*%
%TO.N,GND*%
X106426000Y-81026000D03*
%TD*%
D12*
%TO.P,D,1*%
%TO.N,row2*%
X93726000Y-80899000D03*
D13*
%TO.P,D,2*%
%TO.N,Net-(D1-Pad2)*%
X100076000Y-80899000D03*
D14*
X97426000Y-80899000D03*
%TD*%
D10*
%TO.P,\u002A\u002A168,1*%
%TO.N,GND*%
X144526000Y-103378000D03*
%TD*%
%TO.P,16,1*%
%TO.N,col4*%
X141478000Y-27178000D03*
%TD*%
%TO.P,\u002A\u002A93,1*%
%TO.N,col4*%
X141478000Y-81026000D03*
%TD*%
%TO.P,,1*%
%TO.N,unconnected-(L1-Pad4)*%
X109728000Y-87376000D03*
%TD*%
%TO.P,\u002A\u002A131,1*%
%TO.N,unconnected-(L1-Pad2)*%
X144526000Y-87376000D03*
%TD*%
%TO.P,13,1*%
%TO.N,unconnected-(L1-Pad2)*%
X128778000Y-38354000D03*
%TD*%
%TO.P,\u002A\u002A30,1*%
%TO.N,col0*%
X65278000Y-61976000D03*
%TD*%
%TO.P,,1*%
%TO.N,unconnected-(L1-Pad4)*%
X128778000Y-30226000D03*
%TD*%
%TO.P,52,1*%
%TO.N,col3*%
X122428000Y-65278000D03*
%TD*%
%TO.P,\u002A\u002A26,1*%
%TO.N,unconnected-(L1-Pad2)*%
X144526000Y-30226000D03*
%TD*%
%TO.P,41,1*%
%TO.N,unconnected-(L1-Pad2)*%
X71628000Y-76454000D03*
%TD*%
%TO.P,\u002A\u002A20,1*%
%TO.N,VCC*%
X109728000Y-27178000D03*
%TD*%
%TO.P,48,1*%
%TO.N,col2*%
X103378000Y-65278000D03*
%TD*%
%TO.P,\u002A\u002A100,1*%
%TO.N,col0*%
X65278000Y-100076000D03*
%TD*%
%TO.P,30,1*%
%TO.N,row1*%
X109728000Y-54483000D03*
%TD*%
%TO.P,55,1*%
%TO.N,row2*%
X144526000Y-73533000D03*
%TD*%
%TO.P,\u002A\u002A18,1*%
%TO.N,unconnected-(L1-Pad4)*%
X125476000Y-39878000D03*
%TD*%
D12*
%TO.P,D,1*%
%TO.N,row0*%
X112776000Y-42799000D03*
D14*
%TO.P,D,2*%
%TO.N,Net-(D1-Pad2)*%
X116476000Y-42799000D03*
D13*
X119126000Y-42799000D03*
%TD*%
D10*
%TO.P,\u002A\u002A99,1*%
%TO.N,VCC*%
X52578000Y-100076000D03*
%TD*%
%TO.P,\u002A\u002A1,1*%
%TO.N,VCC*%
X71628000Y-42926000D03*
%TD*%
%TO.P,\u002A\u002A96,1*%
%TO.N,unconnected-(L1-Pad2)*%
X144526000Y-68326000D03*
%TD*%
%TO.P,\u002A\u002A135,1*%
%TO.N,col0*%
X65278000Y-119126000D03*
%TD*%
%TO.P,,1*%
%TO.N,unconnected-(L1-Pad4)*%
X90678000Y-106426000D03*
%TD*%
%TO.P,34,1*%
%TO.N,row1*%
X128778000Y-54483000D03*
%TD*%
%TO.P,\u002A\u002A31,1*%
%TO.N,GND*%
X68326000Y-61976000D03*
%TD*%
D12*
%TO.P,D,1*%
%TO.N,row2*%
X74676000Y-80899000D03*
D13*
%TO.P,D,2*%
%TO.N,Net-(D1-Pad2)*%
X81026000Y-80899000D03*
D14*
X78376000Y-80899000D03*
%TD*%
D10*
%TO.P,29,1*%
%TO.N,unconnected-(L1-Pad2)*%
X109728000Y-57404000D03*
%TD*%
%TO.P,,1*%
%TO.N,unconnected-(L1-Pad4)*%
X90678000Y-30226000D03*
%TD*%
%TO.P,21,1*%
%TO.N,unconnected-(L1-Pad2)*%
X71628000Y-57404000D03*
%TD*%
%TO.P,\u002A\u002A7,1*%
%TO.N,GND*%
X87376000Y-27178000D03*
%TD*%
%TO.P,\u002A\u002A142,1*%
%TO.N,col1*%
X84328000Y-119126000D03*
%TD*%
%TO.P,\u002A\u002A141,1*%
%TO.N,VCC*%
X71628000Y-119126000D03*
%TD*%
%TO.P,\u002A\u002A70,1*%
%TO.N,GND*%
X68326000Y-65278000D03*
%TD*%
D12*
%TO.P,D,1*%
%TO.N,row3*%
X74676000Y-99949000D03*
D14*
%TO.P,D,2*%
%TO.N,Net-(D1-Pad2)*%
X78376000Y-99949000D03*
D13*
X81026000Y-99949000D03*
%TD*%
D10*
%TO.P,2,1*%
%TO.N,row0*%
X71628000Y-35433000D03*
%TD*%
%TO.P,,1*%
%TO.N,unconnected-(L1-Pad4)*%
X71628000Y-87376000D03*
%TD*%
%TO.P,28,1*%
%TO.N,col2*%
X103378000Y-46228000D03*
%TD*%
D11*
%TO.P,SW1,1,1*%
%TO.N,col0*%
X67452000Y-37632000D03*
%TO.P,SW1,2,2*%
%TO.N,Net-(D1-Pad2)*%
X54752000Y-40172000D03*
%TD*%
D12*
%TO.P,D,1*%
%TO.N,row1*%
X93726000Y-61849000D03*
D13*
%TO.P,D,2*%
%TO.N,Net-(D1-Pad2)*%
X100076000Y-61849000D03*
D14*
X97426000Y-61849000D03*
%TD*%
D10*
%TO.P,88,1*%
%TO.N,col2*%
X103378000Y-103378000D03*
%TD*%
%TO.P,\u002A\u002A32,1*%
%TO.N,unconnected-(L1-Pad4)*%
X68326000Y-58928000D03*
%TD*%
%TO.P,90,1*%
%TO.N,row4*%
X109728000Y-111633000D03*
%TD*%
%TO.P,\u002A\u002A133,1*%
%TO.N,GND*%
X144526000Y-84328000D03*
%TD*%
%TO.P,\u002A\u002A36,1*%
%TO.N,VCC*%
X71628000Y-61976000D03*
%TD*%
%TO.P,6,1*%
%TO.N,row0*%
X90678000Y-35433000D03*
%TD*%
%TO.P,25,1*%
%TO.N,unconnected-(L1-Pad2)*%
X90678000Y-57404000D03*
%TD*%
D12*
%TO.P,D,1*%
%TO.N,row0*%
X131826000Y-42799000D03*
D13*
%TO.P,D,2*%
%TO.N,Net-(D1-Pad2)*%
X138176000Y-42799000D03*
D14*
X135526000Y-42799000D03*
%TD*%
D10*
%TO.P,37,1*%
%TO.N,unconnected-(L1-Pad2)*%
X52578000Y-76454000D03*
%TD*%
%TO.P,,1*%
%TO.N,unconnected-(L1-Pad4)*%
X128778000Y-87376000D03*
%TD*%
%TO.P,\u002A\u002A64,1*%
%TO.N,VCC*%
X52578000Y-81026000D03*
%TD*%
%TO.P,\u002A\u002A86,1*%
%TO.N,col3*%
X122428000Y-81026000D03*
%TD*%
%TO.P,27,1*%
%TO.N,row1*%
X106426000Y-54483000D03*
%TD*%
%TO.P,\u002A\u002A,1*%
%TO.N,col0*%
X65278000Y-42926000D03*
%TD*%
%TO.P,38,1*%
%TO.N,row2*%
X52578000Y-73533000D03*
%TD*%
%TO.P,5,1*%
%TO.N,unconnected-(L1-Pad2)*%
X90678000Y-38354000D03*
%TD*%
%TO.P,\u002A\u002A134,1*%
%TO.N,VCC*%
X52578000Y-119126000D03*
%TD*%
%TO.P,15,1*%
%TO.N,row0*%
X144526000Y-35433000D03*
%TD*%
%TO.P,36,1*%
%TO.N,col4*%
X141478000Y-46228000D03*
%TD*%
%TO.P,40,1*%
%TO.N,col0*%
X65278000Y-65278000D03*
%TD*%
%TO.P,\u002A\u002A41,1*%
%TO.N,VCC*%
X71628000Y-46228000D03*
%TD*%
%TO.P,,1*%
%TO.N,unconnected-(L1-Pad4)*%
X52578000Y-87376000D03*
%TD*%
%TO.P,\u002A\u002A105,1*%
%TO.N,GND*%
X68326000Y-84328000D03*
%TD*%
D11*
%TO.P,SW18,1,1*%
%TO.N,col2*%
X105552000Y-94782000D03*
%TO.P,SW18,2,2*%
%TO.N,Net-(D18-Pad2)*%
X92852000Y-97322000D03*
%TD*%
D10*
%TO.P,\u002A\u002A107,1*%
%TO.N,col1*%
X84328000Y-100076000D03*
%TD*%
%TO.P,\u002A\u002A155,1*%
%TO.N,VCC*%
X109728000Y-119126000D03*
%TD*%
D11*
%TO.P,SW14,1,1*%
%TO.N,col3*%
X124602000Y-75732000D03*
%TO.P,SW14,2,2*%
%TO.N,Net-(D14-Pad2)*%
X111902000Y-78272000D03*
%TD*%
D10*
%TO.P,7,1*%
%TO.N,row0*%
X106426000Y-35433000D03*
%TD*%
D11*
%TO.P,SW5,1,1*%
%TO.N,col4*%
X143652000Y-37632000D03*
%TO.P,SW5,2,2*%
%TO.N,Net-(D5-Pad2)*%
X130952000Y-40172000D03*
%TD*%
D10*
%TO.P,,1*%
%TO.N,row0*%
X52578000Y-35433000D03*
%TD*%
%TO.P,92,1*%
%TO.N,col3*%
X122428000Y-103378000D03*
%TD*%
%TO.P,\u002A\u002A137,1*%
%TO.N,unconnected-(L1-Pad4)*%
X68326000Y-116078000D03*
%TD*%
%TO.P,17,1*%
%TO.N,unconnected-(L1-Pad2)*%
X52578000Y-57404000D03*
%TD*%
%TO.P,\u002A\u002A111,1*%
%TO.N,VCC*%
X71628000Y-84328000D03*
%TD*%
%TO.P,45,1*%
%TO.N,unconnected-(L1-Pad2)*%
X90678000Y-76454000D03*
%TD*%
%TO.P,42,1*%
%TO.N,row2*%
X71628000Y-73533000D03*
%TD*%
%TO.P,\u002A\u002A75,1*%
%TO.N,unconnected-(L1-Pad2)*%
X87376000Y-68326000D03*
%TD*%
%TO.P,\u002A\u002A55,1*%
%TO.N,VCC*%
X109728000Y-46228000D03*
%TD*%
%TO.P,\u002A\u002A163,1*%
%TO.N,col4*%
X141478000Y-119126000D03*
%TD*%
%TO.P,\u002A\u002A120,1*%
%TO.N,VCC*%
X109728000Y-100076000D03*
%TD*%
%TO.P,\u002A\u002A,1*%
%TO.N,unconnected-(L1-Pad4)*%
X68326000Y-39878000D03*
%TD*%
%TO.P,,1*%
%TO.N,unconnected-(L1-Pad4)*%
X52578000Y-68326000D03*
%TD*%
%TO.P,84,1*%
%TO.N,col1*%
X84328000Y-103378000D03*
%TD*%
%TO.P,\u002A\u002A42,1*%
%TO.N,GND*%
X87376000Y-46228000D03*
%TD*%
%TO.P,\u002A\u002A122,1*%
%TO.N,GND*%
X125476000Y-100076000D03*
%TD*%
%TO.P,86,1*%
%TO.N,row4*%
X90678000Y-111633000D03*
%TD*%
%TO.P,24,1*%
%TO.N,col1*%
X84328000Y-46228000D03*
%TD*%
%TO.P,61,1*%
%TO.N,unconnected-(L1-Pad2)*%
X71628000Y-95504000D03*
%TD*%
%TO.P,\u002A\u002A145,1*%
%TO.N,unconnected-(L1-Pad2)*%
X87376000Y-106426000D03*
%TD*%
%TO.P,\u002A\u002A158,1*%
%TO.N,unconnected-(L1-Pad4)*%
X125476000Y-116078000D03*
%TD*%
%TO.P,83,1*%
%TO.N,row4*%
X87376000Y-111633000D03*
%TD*%
%TO.P,35,1*%
%TO.N,row1*%
X144526000Y-54483000D03*
%TD*%
%TO.P,\u002A\u002A116,1*%
%TO.N,unconnected-(L1-Pad4)*%
X106426000Y-97028000D03*
%TD*%
D11*
%TO.P,SW21,1,1*%
%TO.N,col0*%
X67452000Y-113832000D03*
%TO.P,SW21,2,2*%
%TO.N,Net-(D21-Pad2)*%
X54752000Y-116372000D03*
%TD*%
D10*
%TO.P,\u002A\u002A115,1*%
%TO.N,GND*%
X106426000Y-100076000D03*
%TD*%
%TO.P,\u002A\u002A150,1*%
%TO.N,GND*%
X106426000Y-119126000D03*
%TD*%
%TO.P,56,1*%
%TO.N,col4*%
X141478000Y-65278000D03*
%TD*%
%TO.P,\u002A\u002A108,1*%
%TO.N,GND*%
X87376000Y-100076000D03*
%TD*%
%TO.P,53,1*%
%TO.N,unconnected-(L1-Pad2)*%
X128778000Y-76454000D03*
%TD*%
%TO.P,66,1*%
%TO.N,row3*%
X90678000Y-92583000D03*
%TD*%
%TO.P,,1*%
%TO.N,unconnected-(L1-Pad4)*%
X90678000Y-68326000D03*
%TD*%
%TO.P,\u002A\u002A113,1*%
%TO.N,VCC*%
X90678000Y-100076000D03*
%TD*%
%TO.P,\u002A\u002A117,1*%
%TO.N,unconnected-(L1-Pad2)*%
X106426000Y-87376000D03*
%TD*%
%TO.P,\u002A\u002A21,1*%
%TO.N,GND*%
X125476000Y-27178000D03*
%TD*%
%TO.P,31,1*%
%TO.N,row1*%
X125476000Y-54483000D03*
%TD*%
D11*
%TO.P,SW3,1,1*%
%TO.N,col2*%
X105552000Y-37632000D03*
%TO.P,SW3,2,2*%
%TO.N,Net-(D3-Pad2)*%
X92852000Y-40172000D03*
%TD*%
%TO.P,SW13,1,1*%
%TO.N,col2*%
X105552000Y-75732000D03*
%TO.P,SW13,2,2*%
%TO.N,Net-(D13-Pad2)*%
X92852000Y-78272000D03*
%TD*%
D12*
%TO.P,D,1*%
%TO.N,row3*%
X112776000Y-99949000D03*
D14*
%TO.P,D,2*%
%TO.N,Net-(D1-Pad2)*%
X116476000Y-99949000D03*
D13*
X119126000Y-99949000D03*
%TD*%
D12*
%TO.P,D,1*%
%TO.N,row1*%
X112776000Y-61849000D03*
D14*
%TO.P,D,2*%
%TO.N,Net-(D1-Pad2)*%
X116476000Y-61849000D03*
D13*
X119126000Y-61849000D03*
%TD*%
D10*
%TO.P,51,1*%
%TO.N,row2*%
X125476000Y-73533000D03*
%TD*%
%TO.P,\u002A\u002A106,1*%
%TO.N,VCC*%
X71628000Y-100076000D03*
%TD*%
D11*
%TO.P,SW6,1,1*%
%TO.N,col0*%
X67452000Y-56682000D03*
%TO.P,SW6,2,2*%
%TO.N,Net-(D6-Pad2)*%
X54752000Y-59222000D03*
%TD*%
D10*
%TO.P,73,1*%
%TO.N,unconnected-(L1-Pad2)*%
X128778000Y-95504000D03*
%TD*%
%TO.P,\u002A\u002A98,1*%
%TO.N,GND*%
X144526000Y-65278000D03*
%TD*%
D12*
%TO.P,D,1*%
%TO.N,row2*%
X55626000Y-80899000D03*
D14*
%TO.P,D,2*%
%TO.N,Net-(D1-Pad2)*%
X59326000Y-80899000D03*
D13*
X61976000Y-80899000D03*
%TD*%
D10*
%TO.P,\u002A\u002A24,1*%
%TO.N,GND*%
X144526000Y-42926000D03*
%TD*%
%TO.P,\u002A\u002A12,1*%
%TO.N,unconnected-(L1-Pad2)*%
X106426000Y-30226000D03*
%TD*%
%TO.P,\u002A\u002A102,1*%
%TO.N,unconnected-(L1-Pad4)*%
X68326000Y-97028000D03*
%TD*%
%TO.P,50,1*%
%TO.N,row2*%
X109728000Y-73533000D03*
%TD*%
%TO.P,\u002A\u002A14,1*%
%TO.N,GND*%
X106426000Y-27178000D03*
%TD*%
%TO.P,\u002A\u002A3,1*%
%TO.N,GND*%
X87376000Y-42926000D03*
%TD*%
%TO.P,\u002A\u002A66,1*%
%TO.N,GND*%
X68326000Y-81026000D03*
%TD*%
%TO.P,\u002A\u002A104,1*%
%TO.N,VCC*%
X52578000Y-84328000D03*
%TD*%
%TO.P,\u002A\u002A164,1*%
%TO.N,GND*%
X144526000Y-119126000D03*
%TD*%
D11*
%TO.P,SW16,1,1*%
%TO.N,col0*%
X67452000Y-94782000D03*
%TO.P,SW16,2,2*%
%TO.N,Net-(D16-Pad2)*%
X54752000Y-97322000D03*
%TD*%
D10*
%TO.P,58,1*%
%TO.N,row3*%
X52578000Y-92583000D03*
%TD*%
D12*
%TO.P,D,1*%
%TO.N,row3*%
X55626000Y-99949000D03*
D14*
%TO.P,D,2*%
%TO.N,Net-(D1-Pad2)*%
X59326000Y-99949000D03*
D13*
X61976000Y-99949000D03*
%TD*%
D10*
%TO.P,\u002A\u002A73,1*%
%TO.N,GND*%
X87376000Y-81026000D03*
%TD*%
%TO.P,\u002A\u002A44,1*%
%TO.N,col2*%
X103378000Y-61976000D03*
%TD*%
%TO.P,\u002A\u002A40,1*%
%TO.N,unconnected-(L1-Pad2)*%
X87376000Y-49276000D03*
%TD*%
%TO.P,,1*%
%TO.N,row0*%
X68326000Y-35433000D03*
%TD*%
%TO.P,\u002A\u002A83,1*%
%TO.N,VCC*%
X90678000Y-65278000D03*
%TD*%
D11*
%TO.P,SW23,1,1*%
%TO.N,col2*%
X105552000Y-113832000D03*
%TO.P,SW23,2,2*%
%TO.N,Net-(D23-Pad2)*%
X92852000Y-116372000D03*
%TD*%
D10*
%TO.P,39,1*%
%TO.N,row2*%
X68326000Y-73533000D03*
%TD*%
%TO.P,\u002A\u002A126,1*%
%TO.N,GND*%
X125476000Y-84328000D03*
%TD*%
%TO.P,\u002A\u002A79,1*%
%TO.N,col2*%
X103378000Y-81026000D03*
%TD*%
%TO.P,\u002A\u002A9,1*%
%TO.N,col2*%
X103378000Y-42926000D03*
%TD*%
%TO.P,\u002A\u002A13,1*%
%TO.N,VCC*%
X90678000Y-27178000D03*
%TD*%
%TO.P,,1*%
%TO.N,unconnected-(L1-Pad4)*%
X109728000Y-68326000D03*
%TD*%
D12*
%TO.P,D,1*%
%TO.N,row4*%
X112776000Y-118999000D03*
D14*
%TO.P,D,2*%
%TO.N,Net-(D1-Pad2)*%
X116476000Y-118999000D03*
D13*
X119126000Y-118999000D03*
%TD*%
D10*
%TO.P,3,1*%
%TO.N,row0*%
X87376000Y-35433000D03*
%TD*%
%TO.P,70,1*%
%TO.N,row3*%
X109728000Y-92583000D03*
%TD*%
%TO.P,95,1*%
%TO.N,row4*%
X144526000Y-111633000D03*
%TD*%
%TO.P,93,1*%
%TO.N,unconnected-(L1-Pad2)*%
X128778000Y-114554000D03*
%TD*%
%TO.P,,1*%
%TO.N,unconnected-(L1-Pad4)*%
X128778000Y-68326000D03*
%TD*%
%TO.P,76,1*%
%TO.N,col4*%
X141478000Y-84328000D03*
%TD*%
%TO.P,\u002A\u002A22,1*%
%TO.N,VCC*%
X128778000Y-42926000D03*
%TD*%
%TO.P,69,1*%
%TO.N,unconnected-(L1-Pad2)*%
X109728000Y-95504000D03*
%TD*%
%TO.P,\u002A\u002A87,1*%
%TO.N,GND*%
X125476000Y-81026000D03*
%TD*%
%TO.P,\u002A\u002A27,1*%
%TO.N,VCC*%
X128778000Y-27178000D03*
%TD*%
D12*
%TO.P,D,1*%
%TO.N,row0*%
X93726000Y-42799000D03*
D14*
%TO.P,D,2*%
%TO.N,Net-(D1-Pad2)*%
X97426000Y-42799000D03*
D13*
X100076000Y-42799000D03*
%TD*%
D10*
%TO.P,4,1*%
%TO.N,col1*%
X84328000Y-27178000D03*
%TD*%
D11*
%TO.P,SW17,1,1*%
%TO.N,col1*%
X86502000Y-94782000D03*
%TO.P,SW17,2,2*%
%TO.N,Net-(D17-Pad2)*%
X73802000Y-97322000D03*
%TD*%
D10*
%TO.P,\u002A\u002A35,1*%
%TO.N,GND*%
X68326000Y-46228000D03*
%TD*%
%TO.P,\u002A\u002A103,1*%
%TO.N,unconnected-(L1-Pad2)*%
X68326000Y-87376000D03*
%TD*%
D11*
%TO.P,SW7,1,1*%
%TO.N,col1*%
X86502000Y-56682000D03*
%TO.P,SW7,2,2*%
%TO.N,Net-(D7-Pad2)*%
X73802000Y-59222000D03*
%TD*%
D12*
%TO.P,D,1*%
%TO.N,row1*%
X74676000Y-61849000D03*
D13*
%TO.P,D,2*%
%TO.N,Net-(D1-Pad2)*%
X81026000Y-61849000D03*
D14*
X78376000Y-61849000D03*
%TD*%
D12*
%TO.P,D,1*%
%TO.N,row2*%
X131826000Y-80899000D03*
D14*
%TO.P,D,2*%
%TO.N,Net-(D1-Pad2)*%
X135526000Y-80899000D03*
D13*
X138176000Y-80899000D03*
%TD*%
D10*
%TO.P,\u002A\u002A124,1*%
%TO.N,unconnected-(L1-Pad2)*%
X125476000Y-87376000D03*
%TD*%
%TO.P,\u002A\u002A125,1*%
%TO.N,VCC*%
X109728000Y-84328000D03*
%TD*%
%TO.P,,1*%
%TO.N,unconnected-(L1-Pad4)*%
X90678000Y-87376000D03*
%TD*%
D11*
%TO.P,SW8,1,1*%
%TO.N,col2*%
X105552000Y-56682000D03*
%TO.P,SW8,2,2*%
%TO.N,Net-(D8-Pad2)*%
X92852000Y-59222000D03*
%TD*%
D15*
%TO.P,L1,1,VCC*%
%TO.N,VCC*%
X77002000Y-29603000D03*
%TO.P,L1,2,DOUT*%
%TO.N,unconnected-(L1-Pad2)*%
X77002000Y-31103000D03*
%TO.P,L1,3,GND*%
%TO.N,GND*%
X82002000Y-31103000D03*
%TO.P,L1,4,DIN*%
%TO.N,unconnected-(L1-Pad4)*%
X82002000Y-29603000D03*
%TD*%
%TO.P,L1,1,VCC*%
%TO.N,VCC*%
X96052000Y-105803000D03*
%TO.P,L1,2,DOUT*%
%TO.N,unconnected-(L1-Pad2)*%
X96052000Y-107303000D03*
%TO.P,L1,3,GND*%
%TO.N,GND*%
X101052000Y-107303000D03*
%TO.P,L1,4,DIN*%
%TO.N,unconnected-(L1-Pad4)*%
X101052000Y-105803000D03*
%TD*%
%TO.P,L1,1,VCC*%
%TO.N,VCC*%
X57952000Y-67703000D03*
%TO.P,L1,2,DOUT*%
%TO.N,unconnected-(L1-Pad2)*%
X57952000Y-69203000D03*
%TO.P,L1,3,GND*%
%TO.N,GND*%
X62952000Y-69203000D03*
%TO.P,L1,4,DIN*%
%TO.N,unconnected-(L1-Pad4)*%
X62952000Y-67703000D03*
%TD*%
%TO.P,L1,1,VCC*%
%TO.N,VCC*%
X115102000Y-48653000D03*
%TO.P,L1,2,DOUT*%
%TO.N,unconnected-(L1-Pad2)*%
X115102000Y-50153000D03*
%TO.P,L1,3,GND*%
%TO.N,GND*%
X120102000Y-50153000D03*
%TO.P,L1,4,DIN*%
%TO.N,unconnected-(L1-Pad4)*%
X120102000Y-48653000D03*
%TD*%
%TO.P,L1,1,VCC*%
%TO.N,VCC*%
X115102000Y-29603000D03*
%TO.P,L1,2,DOUT*%
%TO.N,unconnected-(L1-Pad2)*%
X115102000Y-31103000D03*
%TO.P,L1,3,GND*%
%TO.N,GND*%
X120102000Y-31103000D03*
%TO.P,L1,4,DIN*%
%TO.N,unconnected-(L1-Pad4)*%
X120102000Y-29603000D03*
%TD*%
%TO.P,L1,1,VCC*%
%TO.N,VCC*%
X96052000Y-29603000D03*
%TO.P,L1,2,DOUT*%
%TO.N,unconnected-(L1-Pad2)*%
X96052000Y-31103000D03*
%TO.P,L1,3,GND*%
%TO.N,GND*%
X101052000Y-31103000D03*
%TO.P,L1,4,DIN*%
%TO.N,unconnected-(L1-Pad4)*%
X101052000Y-29603000D03*
%TD*%
%TO.P,L1,1,VCC*%
%TO.N,VCC*%
X57952000Y-105803000D03*
%TO.P,L1,2,DOUT*%
%TO.N,unconnected-(L1-Pad2)*%
X57952000Y-107303000D03*
%TO.P,L1,3,GND*%
%TO.N,GND*%
X62952000Y-107303000D03*
%TO.P,L1,4,DIN*%
%TO.N,unconnected-(L1-Pad4)*%
X62952000Y-105803000D03*
%TD*%
%TO.P,L1,1,VCC*%
%TO.N,VCC*%
X57952000Y-48653000D03*
%TO.P,L1,2,DOUT*%
%TO.N,unconnected-(L1-Pad2)*%
X57952000Y-50153000D03*
%TO.P,L1,3,GND*%
%TO.N,GND*%
X62952000Y-50153000D03*
%TO.P,L1,4,DIN*%
%TO.N,unconnected-(L1-Pad4)*%
X62952000Y-48653000D03*
%TD*%
%TO.P,L1,1,VCC*%
%TO.N,VCC*%
X115102000Y-86753000D03*
%TO.P,L1,2,DOUT*%
%TO.N,unconnected-(L1-Pad2)*%
X115102000Y-88253000D03*
%TO.P,L1,3,GND*%
%TO.N,GND*%
X120102000Y-88253000D03*
%TO.P,L1,4,DIN*%
%TO.N,unconnected-(L1-Pad4)*%
X120102000Y-86753000D03*
%TD*%
%TO.P,L1,1,VCC*%
%TO.N,VCC*%
X134152000Y-67703000D03*
%TO.P,L1,2,DOUT*%
%TO.N,unconnected-(L1-Pad2)*%
X134152000Y-69203000D03*
%TO.P,L1,3,GND*%
%TO.N,GND*%
X139152000Y-69203000D03*
%TO.P,L1,4,DIN*%
%TO.N,unconnected-(L1-Pad4)*%
X139152000Y-67703000D03*
%TD*%
%TO.P,L1,1,VCC*%
%TO.N,VCC*%
X77002000Y-86753000D03*
%TO.P,L1,2,DOUT*%
%TO.N,unconnected-(L1-Pad2)*%
X77002000Y-88253000D03*
%TO.P,L1,3,GND*%
%TO.N,GND*%
X82002000Y-88253000D03*
%TO.P,L1,4,DIN*%
%TO.N,unconnected-(L1-Pad4)*%
X82002000Y-86753000D03*
%TD*%
%TO.P,L1,1,VCC*%
%TO.N,VCC*%
X134152000Y-48653000D03*
%TO.P,L1,2,DOUT*%
%TO.N,unconnected-(L1-Pad2)*%
X134152000Y-50153000D03*
%TO.P,L1,3,GND*%
%TO.N,GND*%
X139152000Y-50153000D03*
%TO.P,L1,4,DIN*%
%TO.N,unconnected-(L1-Pad4)*%
X139152000Y-48653000D03*
%TD*%
%TO.P,L1,1,VCC*%
%TO.N,VCC*%
X77002000Y-105803000D03*
%TO.P,L1,2,DOUT*%
%TO.N,unconnected-(L1-Pad2)*%
X77002000Y-107303000D03*
%TO.P,L1,3,GND*%
%TO.N,GND*%
X82002000Y-107303000D03*
%TO.P,L1,4,DIN*%
%TO.N,unconnected-(L1-Pad4)*%
X82002000Y-105803000D03*
%TD*%
%TO.P,L1,1,VCC*%
%TO.N,VCC*%
X96052000Y-86753000D03*
%TO.P,L1,2,DOUT*%
%TO.N,unconnected-(L1-Pad2)*%
X96052000Y-88253000D03*
%TO.P,L1,3,GND*%
%TO.N,GND*%
X101052000Y-88253000D03*
%TO.P,L1,4,DIN*%
%TO.N,unconnected-(L1-Pad4)*%
X101052000Y-86753000D03*
%TD*%
%TO.P,L1,1,VCC*%
%TO.N,VCC*%
X77002000Y-48653000D03*
%TO.P,L1,2,DOUT*%
%TO.N,unconnected-(L1-Pad2)*%
X77002000Y-50153000D03*
%TO.P,L1,3,GND*%
%TO.N,GND*%
X82002000Y-50153000D03*
%TO.P,L1,4,DIN*%
%TO.N,unconnected-(L1-Pad4)*%
X82002000Y-48653000D03*
%TD*%
%TO.P,L1,1,VCC*%
%TO.N,VCC*%
X57952000Y-86753000D03*
%TO.P,L1,2,DOUT*%
%TO.N,unconnected-(L1-Pad2)*%
X57952000Y-88253000D03*
%TO.P,L1,3,GND*%
%TO.N,GND*%
X62952000Y-88253000D03*
%TO.P,L1,4,DIN*%
%TO.N,unconnected-(L1-Pad4)*%
X62952000Y-86753000D03*
%TD*%
%TO.P,L1,1,VCC*%
%TO.N,VCC*%
X77002000Y-67703000D03*
%TO.P,L1,2,DOUT*%
%TO.N,unconnected-(L1-Pad2)*%
X77002000Y-69203000D03*
%TO.P,L1,3,GND*%
%TO.N,GND*%
X82002000Y-69203000D03*
%TO.P,L1,4,DIN*%
%TO.N,unconnected-(L1-Pad4)*%
X82002000Y-67703000D03*
%TD*%
%TO.P,L1,1,VCC*%
%TO.N,VCC*%
X96052000Y-48653000D03*
%TO.P,L1,2,DOUT*%
%TO.N,unconnected-(L1-Pad2)*%
X96052000Y-50153000D03*
%TO.P,L1,3,GND*%
%TO.N,GND*%
X101052000Y-50153000D03*
%TO.P,L1,4,DIN*%
%TO.N,unconnected-(L1-Pad4)*%
X101052000Y-48653000D03*
%TD*%
%TO.P,L1,1,VCC*%
%TO.N,VCC*%
X134152000Y-86753000D03*
%TO.P,L1,2,DOUT*%
%TO.N,unconnected-(L1-Pad2)*%
X134152000Y-88253000D03*
%TO.P,L1,3,GND*%
%TO.N,GND*%
X139152000Y-88253000D03*
%TO.P,L1,4,DIN*%
%TO.N,unconnected-(L1-Pad4)*%
X139152000Y-86753000D03*
%TD*%
%TO.P,L1,1,VCC*%
%TO.N,VCC*%
X115102000Y-67703000D03*
%TO.P,L1,2,DOUT*%
%TO.N,unconnected-(L1-Pad2)*%
X115102000Y-69203000D03*
%TO.P,L1,3,GND*%
%TO.N,GND*%
X120102000Y-69203000D03*
%TO.P,L1,4,DIN*%
%TO.N,unconnected-(L1-Pad4)*%
X120102000Y-67703000D03*
%TD*%
%TO.P,L1,1,VCC*%
%TO.N,VCC*%
X96052000Y-67703000D03*
%TO.P,L1,2,DOUT*%
%TO.N,unconnected-(L1-Pad2)*%
X96052000Y-69203000D03*
%TO.P,L1,3,GND*%
%TO.N,GND*%
X101052000Y-69203000D03*
%TO.P,L1,4,DIN*%
%TO.N,unconnected-(L1-Pad4)*%
X101052000Y-67703000D03*
%TD*%
%TO.P,L1,1,VCC*%
%TO.N,VCC*%
X134152000Y-105803000D03*
%TO.P,L1,2,DOUT*%
%TO.N,unconnected-(L1-Pad2)*%
X134152000Y-107303000D03*
%TO.P,L1,3,GND*%
%TO.N,GND*%
X139152000Y-107303000D03*
%TO.P,L1,4,DIN*%
%TO.N,unconnected-(L1-Pad4)*%
X139152000Y-105803000D03*
%TD*%
%TO.P,L1,1,VCC*%
%TO.N,VCC*%
X115102000Y-105803000D03*
%TO.P,L1,2,DOUT*%
%TO.N,unconnected-(L1-Pad2)*%
X115102000Y-107303000D03*
%TO.P,L1,3,GND*%
%TO.N,GND*%
X120102000Y-107303000D03*
%TO.P,L1,4,DIN*%
%TO.N,unconnected-(L1-Pad4)*%
X120102000Y-105803000D03*
%TD*%
%TO.P,L1,1,VCC*%
%TO.N,VCC*%
X134152000Y-29603000D03*
%TO.P,L1,2,DOUT*%
%TO.N,unconnected-(L1-Pad2)*%
X134152000Y-31103000D03*
%TO.P,L1,3,GND*%
%TO.N,GND*%
X139152000Y-31103000D03*
%TO.P,L1,4,DIN*%
%TO.N,unconnected-(L1-Pad4)*%
X139152000Y-29603000D03*
%TD*%
%TO.P,L1,1,VCC*%
%TO.N,VCC*%
X57952000Y-29603000D03*
%TO.P,L1,2,DOUT*%
%TO.N,unconnected-(L1-Pad2)*%
X57952000Y-31103000D03*
%TO.P,L1,3,GND*%
%TO.N,GND*%
X62952000Y-31103000D03*
%TO.P,L1,4,DIN*%
%TO.N,unconnected-(L1-Pad4)*%
X62952000Y-29603000D03*
%TD*%
D16*
%TO.N,row0*%
X109855000Y-40513000D03*
X52705000Y-40513000D03*
X90805000Y-40513000D03*
X67056000Y-39243000D03*
X128905000Y-40513000D03*
X86106000Y-39243000D03*
X124206000Y-39243000D03*
X105156000Y-39243000D03*
X71755000Y-40513000D03*
%TO.N,row1*%
X71755000Y-59563000D03*
X86106000Y-58293000D03*
X124206000Y-58293000D03*
X105156000Y-58293000D03*
X67056000Y-58293000D03*
X52705000Y-59563000D03*
X109855000Y-59563000D03*
X90805000Y-59563000D03*
X128905000Y-59563000D03*
%TO.N,row2*%
X52705000Y-78613000D03*
X71755000Y-78613000D03*
X128905000Y-78613000D03*
X124206000Y-77343000D03*
X109855000Y-78613000D03*
X67056000Y-77343000D03*
X105156000Y-77343000D03*
X90805000Y-78613000D03*
X86106000Y-77343000D03*
%TO.N,row3*%
X124206000Y-96393000D03*
X109855000Y-97663000D03*
X86106000Y-96393000D03*
X52705000Y-97663000D03*
X128905000Y-97663000D03*
X105156000Y-96393000D03*
X67056000Y-96393000D03*
X90805000Y-97663000D03*
X71755000Y-97663000D03*
%TO.N,row4*%
X67056000Y-115443000D03*
X105156000Y-115443000D03*
X128905000Y-116713000D03*
X86106000Y-115443000D03*
X71755000Y-116713000D03*
X124206000Y-115443000D03*
X90805000Y-116713000D03*
X52705000Y-116713000D03*
X109855000Y-116713000D03*
%TO.N,GND*%
X121793000Y-117094000D03*
X120102000Y-31115000D03*
X102743000Y-117094000D03*
X139152000Y-69215000D03*
X62952000Y-88265000D03*
X64643000Y-98044000D03*
X120102000Y-69215000D03*
X101052000Y-50165000D03*
X120102000Y-50165000D03*
X120102000Y-88265000D03*
X83693000Y-40894000D03*
X64643000Y-59944000D03*
X101052000Y-88265000D03*
X83693000Y-78994000D03*
X82002000Y-69215000D03*
X139152000Y-88265000D03*
X101052000Y-69215000D03*
X64643000Y-40894000D03*
X62952000Y-50165000D03*
X82002000Y-88265000D03*
X64643000Y-117094000D03*
X140843000Y-40894000D03*
X140843000Y-78994000D03*
X102743000Y-59944000D03*
X121793000Y-78994000D03*
X82002000Y-50165000D03*
X140843000Y-98044000D03*
X62952000Y-107315000D03*
X64643000Y-78994000D03*
X101052000Y-31115000D03*
X140843000Y-59944000D03*
X102743000Y-40894000D03*
X82002000Y-31115000D03*
X121793000Y-98044000D03*
X62952000Y-69215000D03*
X83693000Y-98044000D03*
X139152000Y-50165000D03*
X121793000Y-40894000D03*
X102743000Y-78994000D03*
X139152000Y-31115000D03*
X62952000Y-31115000D03*
X83693000Y-117094000D03*
X102743000Y-98044000D03*
X101052000Y-107315000D03*
X139152000Y-107315000D03*
X120102000Y-107315000D03*
X140843000Y-117094000D03*
X83693000Y-59944000D03*
X82002000Y-107315000D03*
X121793000Y-59944000D03*
%TO.N,VCC*%
X96052000Y-86756480D03*
X57952000Y-48656480D03*
X125476000Y-66675000D03*
X123190000Y-87503000D03*
X77002000Y-29606480D03*
X66040000Y-87503000D03*
X132969000Y-52705000D03*
X94869000Y-90805000D03*
X66040000Y-68453000D03*
X87376000Y-66675000D03*
X56769000Y-33655000D03*
X94869000Y-52705000D03*
X96052000Y-67706480D03*
X123190000Y-106553000D03*
X75819000Y-71755000D03*
X115102000Y-48656480D03*
X106426000Y-85725000D03*
X85090000Y-30353000D03*
X94869000Y-71755000D03*
X113919000Y-90805000D03*
X77002000Y-86756480D03*
X134152000Y-48656480D03*
X77002000Y-67706480D03*
X125476000Y-85725000D03*
X106426000Y-66675000D03*
X106426000Y-104775000D03*
X132969000Y-109855000D03*
X115102000Y-67706480D03*
X115102000Y-29606480D03*
X104140000Y-106553000D03*
X125476000Y-104775000D03*
X113919000Y-52705000D03*
X56769000Y-52705000D03*
X56769000Y-71755000D03*
X85090000Y-49403000D03*
X85090000Y-68453000D03*
X57952000Y-29606480D03*
X94869000Y-109855000D03*
X87376000Y-104775000D03*
X115102000Y-86756480D03*
X57952000Y-105806480D03*
X68326000Y-104775000D03*
X68326000Y-47625000D03*
X106426000Y-47625000D03*
X66040000Y-106553000D03*
X87376000Y-28575000D03*
X132969000Y-90805000D03*
X123190000Y-49403000D03*
X134152000Y-67706480D03*
X66040000Y-49403000D03*
X57952000Y-67706480D03*
X104140000Y-49403000D03*
X75819000Y-52705000D03*
X75819000Y-33655000D03*
X85090000Y-87503000D03*
X132969000Y-71755000D03*
X96052000Y-48656480D03*
X113919000Y-71755000D03*
X134152000Y-105806480D03*
X115102000Y-105806480D03*
X134152000Y-86756480D03*
X104140000Y-87503000D03*
X77002000Y-48656480D03*
X56769000Y-90805000D03*
X123190000Y-30353000D03*
X68326000Y-66675000D03*
X68326000Y-28575000D03*
X106426000Y-28575000D03*
X125476000Y-28575000D03*
X75819000Y-109855000D03*
X96052000Y-105806480D03*
X77002000Y-105806480D03*
X85090000Y-106553000D03*
X56769000Y-109855000D03*
X125476000Y-47625000D03*
X104140000Y-30353000D03*
X68326000Y-85725000D03*
X75819000Y-90805000D03*
X87376000Y-47625000D03*
X57952000Y-86756480D03*
X123190000Y-68453000D03*
X134152000Y-29606480D03*
X96052000Y-29606480D03*
X113919000Y-33655000D03*
X66040000Y-30353000D03*
X132969000Y-33655000D03*
X104140000Y-68453000D03*
X113919000Y-109855000D03*
X94869000Y-33655000D03*
X87376000Y-85725000D03*
%TO.N,unconnected-(L1-Pad4)*%
X120777000Y-33401000D03*
X62952000Y-67691000D03*
X120777000Y-90551000D03*
X101052000Y-29591000D03*
X82002000Y-86741000D03*
X139152000Y-105791000D03*
X120102000Y-86741000D03*
X62952000Y-105791000D03*
X139152000Y-29591000D03*
X101727000Y-90551000D03*
X139827000Y-90551000D03*
X82677000Y-90551000D03*
X82677000Y-33401000D03*
X62952000Y-86741000D03*
X120777000Y-52451000D03*
X63627000Y-52451000D03*
X101727000Y-33401000D03*
X62952000Y-29591000D03*
X82002000Y-48641000D03*
X101727000Y-71501000D03*
X139152000Y-86741000D03*
X82677000Y-52451000D03*
X101727000Y-109601000D03*
X63627000Y-90551000D03*
X63627000Y-33401000D03*
X139152000Y-48641000D03*
X139827000Y-52451000D03*
X120102000Y-67691000D03*
X101052000Y-86741000D03*
X62952000Y-48641000D03*
X120777000Y-71501000D03*
X101052000Y-105791000D03*
X101727000Y-52451000D03*
X101052000Y-67691000D03*
X63627000Y-71501000D03*
X139827000Y-33401000D03*
X82677000Y-71501000D03*
X101052000Y-48641000D03*
X82002000Y-67691000D03*
X82677000Y-109601000D03*
X139152000Y-67691000D03*
X82002000Y-105791000D03*
X63627000Y-109601000D03*
X120102000Y-48641000D03*
X82002000Y-29591000D03*
X120102000Y-29591000D03*
X120777000Y-109601000D03*
X139827000Y-71501000D03*
X120102000Y-105791000D03*
X139827000Y-109601000D03*
%TO.N,unconnected-(L1-Pad2)*%
X77002000Y-31115000D03*
X134152000Y-31115000D03*
X115102000Y-88265000D03*
X115102000Y-50165000D03*
X57952000Y-50165000D03*
X96052000Y-107315000D03*
X96052000Y-69215000D03*
X77002000Y-69215000D03*
X134152000Y-107315000D03*
X57952000Y-31115000D03*
X57952000Y-88265000D03*
X77002000Y-88265000D03*
X77002000Y-50165000D03*
X77002000Y-107315000D03*
X115102000Y-69215000D03*
X96052000Y-31115000D03*
X134152000Y-69215000D03*
X115102000Y-107315000D03*
X134152000Y-50165000D03*
X134152000Y-88265000D03*
X96052000Y-50165000D03*
X115102000Y-31115000D03*
X57952000Y-69215000D03*
X96052000Y-88265000D03*
X57952000Y-107315000D03*
%TD*%
D17*
%TO.N,row0*%
X70866000Y-41402000D02*
X71755000Y-40513000D01*
X68326000Y-41402000D02*
X70866000Y-41402000D01*
X67056000Y-40132000D02*
X68326000Y-41402000D01*
X67056000Y-39243000D02*
X67056000Y-40132000D01*
X86106000Y-39243000D02*
X86106000Y-40132000D01*
X125476000Y-41402000D02*
X128016000Y-41402000D01*
X73629978Y-42799000D02*
X71755000Y-40924022D01*
X89916000Y-41402000D02*
X90805000Y-40513000D01*
X92679978Y-42799000D02*
X90805000Y-40924022D01*
X108966000Y-41402000D02*
X109855000Y-40513000D01*
X106426000Y-41402000D02*
X108966000Y-41402000D01*
X90805000Y-40924022D02*
X90805000Y-40513000D01*
X111729978Y-42799000D02*
X109855000Y-40924022D01*
X93726000Y-42799000D02*
X92679978Y-42799000D01*
X109855000Y-40924022D02*
X109855000Y-40513000D01*
X130779978Y-42799000D02*
X128905000Y-40924022D01*
X87376000Y-41402000D02*
X89916000Y-41402000D01*
X52705000Y-40924022D02*
X52705000Y-40513000D01*
X124206000Y-39243000D02*
X124206000Y-40132000D01*
X55626000Y-42799000D02*
X54579978Y-42799000D01*
X105156000Y-40132000D02*
X106426000Y-41402000D01*
X124206000Y-40132000D02*
X125476000Y-41402000D01*
X105156000Y-39243000D02*
X105156000Y-40132000D01*
X74676000Y-42799000D02*
X73629978Y-42799000D01*
X112776000Y-42799000D02*
X111729978Y-42799000D01*
X54579978Y-42799000D02*
X52705000Y-40924022D01*
X71755000Y-40924022D02*
X71755000Y-40513000D01*
X131826000Y-42799000D02*
X130779978Y-42799000D01*
X128016000Y-41402000D02*
X128905000Y-40513000D01*
X128905000Y-40924022D02*
X128905000Y-40513000D01*
X86106000Y-40132000D02*
X87376000Y-41402000D01*
%TO.N,Net-(D1-Pad2)*%
X78376000Y-61849000D02*
X76978026Y-61849000D01*
X78376000Y-42799000D02*
X76978026Y-42799000D01*
X55301026Y-40172000D02*
X54752000Y-40172000D01*
X57928026Y-99949000D02*
X55301026Y-97322000D01*
X97426000Y-80899000D02*
X100076000Y-80899000D01*
X57928026Y-118999000D02*
X55301026Y-116372000D01*
X135526000Y-80899000D02*
X134128026Y-80899000D01*
X135526000Y-80899000D02*
X138176000Y-80899000D01*
X135526000Y-99949000D02*
X134128026Y-99949000D01*
X96028026Y-61849000D02*
X93401026Y-59222000D01*
X57928026Y-42799000D02*
X55301026Y-40172000D01*
X59326000Y-118999000D02*
X57928026Y-118999000D01*
X134128026Y-118999000D02*
X131501026Y-116372000D01*
X135526000Y-42799000D02*
X138176000Y-42799000D01*
X78376000Y-80899000D02*
X81026000Y-80899000D01*
X135526000Y-99949000D02*
X138176000Y-99949000D01*
X59326000Y-99949000D02*
X57928026Y-99949000D01*
X116476000Y-80899000D02*
X119126000Y-80899000D01*
X97426000Y-61849000D02*
X100076000Y-61849000D01*
X78376000Y-99949000D02*
X76978026Y-99949000D01*
X59326000Y-80899000D02*
X61976000Y-80899000D01*
X78376000Y-42799000D02*
X81026000Y-42799000D01*
X78376000Y-118999000D02*
X76978026Y-118999000D01*
X116476000Y-80899000D02*
X115078026Y-80899000D01*
X76978026Y-42799000D02*
X74351026Y-40172000D01*
X78376000Y-61849000D02*
X81026000Y-61849000D01*
X135526000Y-61849000D02*
X138176000Y-61849000D01*
X76978026Y-61849000D02*
X74351026Y-59222000D01*
X97426000Y-99949000D02*
X96028026Y-99949000D01*
X97426000Y-99949000D02*
X100076000Y-99949000D01*
X115078026Y-61849000D02*
X112451026Y-59222000D01*
X57928026Y-80899000D02*
X55301026Y-78272000D01*
X78376000Y-80899000D02*
X76978026Y-80899000D01*
X59326000Y-118999000D02*
X61976000Y-118999000D01*
X97426000Y-42799000D02*
X96028026Y-42799000D01*
X59326000Y-61849000D02*
X57928026Y-61849000D01*
X116476000Y-118999000D02*
X119126000Y-118999000D01*
X97426000Y-118999000D02*
X96028026Y-118999000D01*
X76978026Y-99949000D02*
X74351026Y-97322000D01*
X76978026Y-80899000D02*
X74351026Y-78272000D01*
X96028026Y-42799000D02*
X93401026Y-40172000D01*
X134128026Y-61849000D02*
X131501026Y-59222000D01*
X78376000Y-118999000D02*
X81026000Y-118999000D01*
X116476000Y-42799000D02*
X115078026Y-42799000D01*
X116476000Y-118999000D02*
X115078026Y-118999000D01*
X135526000Y-118999000D02*
X138176000Y-118999000D01*
X135526000Y-42799000D02*
X134128026Y-42799000D01*
X96028026Y-118999000D02*
X93401026Y-116372000D01*
X59326000Y-42799000D02*
X61976000Y-42799000D01*
X116476000Y-61849000D02*
X119126000Y-61849000D01*
X135526000Y-118999000D02*
X134128026Y-118999000D01*
X57928026Y-61849000D02*
X55301026Y-59222000D01*
X135526000Y-61849000D02*
X134128026Y-61849000D01*
X115078026Y-99949000D02*
X112451026Y-97322000D01*
X97426000Y-80899000D02*
X96028026Y-80899000D01*
X115078026Y-42799000D02*
X112451026Y-40172000D01*
X76978026Y-118999000D02*
X74351026Y-116372000D01*
X59326000Y-61849000D02*
X61976000Y-61849000D01*
X116476000Y-99949000D02*
X115078026Y-99949000D01*
X134128026Y-99949000D02*
X131501026Y-97322000D01*
X134128026Y-42799000D02*
X131501026Y-40172000D01*
X115078026Y-118999000D02*
X112451026Y-116372000D01*
X116476000Y-61849000D02*
X115078026Y-61849000D01*
X116476000Y-99949000D02*
X119126000Y-99949000D01*
X134128026Y-80899000D02*
X131501026Y-78272000D01*
X59326000Y-80899000D02*
X57928026Y-80899000D01*
X78376000Y-99949000D02*
X81026000Y-99949000D01*
X97426000Y-42799000D02*
X100076000Y-42799000D01*
X96028026Y-99949000D02*
X93401026Y-97322000D01*
X97426000Y-118999000D02*
X100076000Y-118999000D01*
X116476000Y-42799000D02*
X119126000Y-42799000D01*
X97426000Y-61849000D02*
X96028026Y-61849000D01*
X96028026Y-80899000D02*
X93401026Y-78272000D01*
X115078026Y-80899000D02*
X112451026Y-78272000D01*
X59326000Y-42799000D02*
X57928026Y-42799000D01*
X59326000Y-99949000D02*
X61976000Y-99949000D01*
%TO.N,row1*%
X112776000Y-61849000D02*
X111729978Y-61849000D01*
X89916000Y-60452000D02*
X90805000Y-59563000D01*
X105156000Y-58293000D02*
X105156000Y-59182000D01*
X105156000Y-59182000D02*
X106426000Y-60452000D01*
X111729978Y-61849000D02*
X109855000Y-59974022D01*
X68326000Y-60452000D02*
X70866000Y-60452000D01*
X67056000Y-59182000D02*
X68326000Y-60452000D01*
X106426000Y-60452000D02*
X108966000Y-60452000D01*
X74676000Y-61849000D02*
X73629978Y-61849000D01*
X73629978Y-61849000D02*
X71755000Y-59974022D01*
X70866000Y-60452000D02*
X71755000Y-59563000D01*
X124206000Y-59182000D02*
X125476000Y-60452000D01*
X128905000Y-59974022D02*
X128905000Y-59563000D01*
X124206000Y-58293000D02*
X124206000Y-59182000D01*
X54579978Y-61849000D02*
X52705000Y-59974022D01*
X108966000Y-60452000D02*
X109855000Y-59563000D01*
X92679978Y-61849000D02*
X90805000Y-59974022D01*
X130779978Y-61849000D02*
X128905000Y-59974022D01*
X86106000Y-58293000D02*
X86106000Y-59182000D01*
X67056000Y-58293000D02*
X67056000Y-59182000D01*
X93726000Y-61849000D02*
X92679978Y-61849000D01*
X71755000Y-59974022D02*
X71755000Y-59563000D01*
X55626000Y-61849000D02*
X54579978Y-61849000D01*
X128016000Y-60452000D02*
X128905000Y-59563000D01*
X52705000Y-59974022D02*
X52705000Y-59563000D01*
X90805000Y-59974022D02*
X90805000Y-59563000D01*
X86106000Y-59182000D02*
X87376000Y-60452000D01*
X125476000Y-60452000D02*
X128016000Y-60452000D01*
X109855000Y-59974022D02*
X109855000Y-59563000D01*
X87376000Y-60452000D02*
X89916000Y-60452000D01*
X131826000Y-61849000D02*
X130779978Y-61849000D01*
%TO.N,row2*%
X86106000Y-78232000D02*
X87376000Y-79502000D01*
X108966000Y-79502000D02*
X109855000Y-78613000D01*
X86106000Y-77343000D02*
X86106000Y-78232000D01*
X89916000Y-79502000D02*
X90805000Y-78613000D01*
X112776000Y-80899000D02*
X111729978Y-80899000D01*
X125476000Y-79502000D02*
X128016000Y-79502000D01*
X130779978Y-80899000D02*
X128905000Y-79024022D01*
X67056000Y-77343000D02*
X67056000Y-78232000D01*
X73629978Y-80899000D02*
X71755000Y-79024022D01*
X124206000Y-77343000D02*
X124206000Y-78232000D01*
X67056000Y-78232000D02*
X68326000Y-79502000D01*
X124206000Y-78232000D02*
X125476000Y-79502000D01*
X128016000Y-79502000D02*
X128905000Y-78613000D01*
X52705000Y-79024022D02*
X52705000Y-78613000D01*
X93726000Y-80899000D02*
X92679978Y-80899000D01*
X92679978Y-80899000D02*
X90805000Y-79024022D01*
X105156000Y-77343000D02*
X105156000Y-78232000D01*
X128905000Y-79024022D02*
X128905000Y-78613000D01*
X55626000Y-80899000D02*
X54579978Y-80899000D01*
X74676000Y-80899000D02*
X73629978Y-80899000D01*
X109855000Y-79024022D02*
X109855000Y-78613000D01*
X105156000Y-78232000D02*
X106426000Y-79502000D01*
X90805000Y-79024022D02*
X90805000Y-78613000D01*
X111729978Y-80899000D02*
X109855000Y-79024022D01*
X54579978Y-80899000D02*
X52705000Y-79024022D01*
X68326000Y-79502000D02*
X70866000Y-79502000D01*
X106426000Y-79502000D02*
X108966000Y-79502000D01*
X70866000Y-79502000D02*
X71755000Y-78613000D01*
X71755000Y-79024022D02*
X71755000Y-78613000D01*
X131826000Y-80899000D02*
X130779978Y-80899000D01*
X87376000Y-79502000D02*
X89916000Y-79502000D01*
%TO.N,row3*%
X68326000Y-98552000D02*
X70866000Y-98552000D01*
X71755000Y-98074022D02*
X71755000Y-97663000D01*
X86106000Y-96393000D02*
X86106000Y-97282000D01*
X67056000Y-96393000D02*
X67056000Y-97282000D01*
X124206000Y-96393000D02*
X124206000Y-97282000D01*
X125476000Y-98552000D02*
X128016000Y-98552000D01*
X52705000Y-98074022D02*
X52705000Y-97663000D01*
X93726000Y-99949000D02*
X92679978Y-99949000D01*
X92679978Y-99949000D02*
X90805000Y-98074022D01*
X124206000Y-97282000D02*
X125476000Y-98552000D01*
X87376000Y-98552000D02*
X89916000Y-98552000D01*
X105156000Y-97282000D02*
X106426000Y-98552000D01*
X130779978Y-99949000D02*
X128905000Y-98074022D01*
X70866000Y-98552000D02*
X71755000Y-97663000D01*
X90805000Y-98074022D02*
X90805000Y-97663000D01*
X86106000Y-97282000D02*
X87376000Y-98552000D01*
X108966000Y-98552000D02*
X109855000Y-97663000D01*
X55626000Y-99949000D02*
X54579978Y-99949000D01*
X112776000Y-99949000D02*
X111729978Y-99949000D01*
X73629978Y-99949000D02*
X71755000Y-98074022D01*
X109855000Y-98074022D02*
X109855000Y-97663000D01*
X74676000Y-99949000D02*
X73629978Y-99949000D01*
X54579978Y-99949000D02*
X52705000Y-98074022D01*
X105156000Y-96393000D02*
X105156000Y-97282000D01*
X67056000Y-97282000D02*
X68326000Y-98552000D01*
X131826000Y-99949000D02*
X130779978Y-99949000D01*
X128905000Y-98074022D02*
X128905000Y-97663000D01*
X128016000Y-98552000D02*
X128905000Y-97663000D01*
X89916000Y-98552000D02*
X90805000Y-97663000D01*
X111729978Y-99949000D02*
X109855000Y-98074022D01*
X106426000Y-98552000D02*
X108966000Y-98552000D01*
%TO.N,row4*%
X67056000Y-115443000D02*
X67056000Y-116332000D01*
X109855000Y-117124022D02*
X109855000Y-116713000D01*
X108966000Y-117602000D02*
X109855000Y-116713000D01*
X131826000Y-118999000D02*
X130779978Y-118999000D01*
X128905000Y-117124022D02*
X128905000Y-116713000D01*
X106426000Y-117602000D02*
X108966000Y-117602000D01*
X130779978Y-118999000D02*
X128905000Y-117124022D01*
X112776000Y-118999000D02*
X111729978Y-118999000D01*
X89916000Y-117602000D02*
X90805000Y-116713000D01*
X87376000Y-117602000D02*
X89916000Y-117602000D01*
X92679978Y-118999000D02*
X90805000Y-117124022D01*
X55626000Y-118999000D02*
X54579978Y-118999000D01*
X70866000Y-117602000D02*
X71755000Y-116713000D01*
X90805000Y-117124022D02*
X90805000Y-116713000D01*
X105156000Y-115443000D02*
X105156000Y-116332000D01*
X74676000Y-118999000D02*
X73629978Y-118999000D01*
X125476000Y-117602000D02*
X128016000Y-117602000D01*
X111729978Y-118999000D02*
X109855000Y-117124022D01*
X54579978Y-118999000D02*
X52705000Y-117124022D01*
X128016000Y-117602000D02*
X128905000Y-116713000D01*
X73629978Y-118999000D02*
X71755000Y-117124022D01*
X86106000Y-115443000D02*
X86106000Y-116332000D01*
X105156000Y-116332000D02*
X106426000Y-117602000D01*
X67056000Y-116332000D02*
X68326000Y-117602000D01*
X71755000Y-117124022D02*
X71755000Y-116713000D01*
X86106000Y-116332000D02*
X87376000Y-117602000D01*
X52705000Y-117124022D02*
X52705000Y-116713000D01*
X93726000Y-118999000D02*
X92679978Y-118999000D01*
X68326000Y-117602000D02*
X70866000Y-117602000D01*
X124206000Y-116332000D02*
X125476000Y-117602000D01*
X124206000Y-115443000D02*
X124206000Y-116332000D01*
%TO.N,col0*%
X66294000Y-42926000D02*
X66802000Y-43434000D01*
X67452000Y-94782000D02*
X65278000Y-96956000D01*
X65278000Y-61976000D02*
X66294000Y-61976000D01*
X66929000Y-47879000D02*
X65278000Y-46228000D01*
X66167000Y-84328000D02*
X66802000Y-83693000D01*
X65278000Y-77906000D02*
X65278000Y-81026000D01*
X67452000Y-56682000D02*
X65278000Y-58856000D01*
X65278000Y-103378000D02*
X66167000Y-103378000D01*
X66294000Y-81026000D02*
X66802000Y-81534000D01*
X66294000Y-100076000D02*
X66802000Y-100584000D01*
X66802000Y-81534000D02*
X66802000Y-83693000D01*
X66929000Y-75209000D02*
X67452000Y-75732000D01*
X66929000Y-105029000D02*
X65278000Y-103378000D01*
X65278000Y-42926000D02*
X66294000Y-42926000D01*
X66929000Y-66929000D02*
X66929000Y-75209000D01*
X66929000Y-47879000D02*
X66929000Y-56159000D01*
X65278000Y-27178000D02*
X66929000Y-28829000D01*
X66167000Y-65278000D02*
X66802000Y-64643000D01*
X65278000Y-46228000D02*
X66167000Y-46228000D01*
X66802000Y-62484000D02*
X66802000Y-64643000D01*
X66929000Y-94259000D02*
X67452000Y-94782000D01*
X65278000Y-39806000D02*
X65278000Y-42926000D01*
X65278000Y-116006000D02*
X65278000Y-119126000D01*
X67452000Y-113832000D02*
X65278000Y-116006000D01*
X65278000Y-58856000D02*
X65278000Y-61976000D01*
X66929000Y-66929000D02*
X65278000Y-65278000D01*
X65278000Y-65278000D02*
X66167000Y-65278000D01*
X66802000Y-43434000D02*
X66802000Y-45593000D01*
X66929000Y-113309000D02*
X67452000Y-113832000D01*
X66929000Y-105029000D02*
X66929000Y-113309000D01*
X67452000Y-75732000D02*
X65278000Y-77906000D01*
X66929000Y-37109000D02*
X67452000Y-37632000D01*
X65278000Y-96956000D02*
X65278000Y-100076000D01*
X65278000Y-84328000D02*
X66167000Y-84328000D01*
X66856521Y-37036521D02*
X67452000Y-37632000D01*
X65278000Y-100076000D02*
X66294000Y-100076000D01*
X66929000Y-85979000D02*
X66929000Y-94259000D01*
X65278000Y-81026000D02*
X66294000Y-81026000D01*
X66929000Y-85979000D02*
X65278000Y-84328000D01*
X66929000Y-56159000D02*
X67452000Y-56682000D01*
X66167000Y-103378000D02*
X66802000Y-102743000D01*
X66294000Y-61976000D02*
X66802000Y-62484000D01*
X66167000Y-46228000D02*
X66802000Y-45593000D01*
X66802000Y-100584000D02*
X66802000Y-102743000D01*
X67452000Y-37632000D02*
X65278000Y-39806000D01*
X66929000Y-28829000D02*
X66929000Y-37109000D01*
%TO.N,col1*%
X85852000Y-62484000D02*
X85852000Y-64643000D01*
X85979000Y-85979000D02*
X85979000Y-94259000D01*
X85979000Y-66929000D02*
X84328000Y-65278000D01*
X85344000Y-61976000D02*
X85852000Y-62484000D01*
X85979000Y-37109000D02*
X86502000Y-37632000D01*
X85217000Y-46228000D02*
X85852000Y-45593000D01*
X85979000Y-75209000D02*
X86502000Y-75732000D01*
X85344000Y-42926000D02*
X85852000Y-43434000D01*
X85217000Y-65278000D02*
X85852000Y-64643000D01*
X85852000Y-43434000D02*
X85852000Y-45593000D01*
X85979000Y-28829000D02*
X85979000Y-37109000D01*
X84328000Y-116006000D02*
X84328000Y-119126000D01*
X85979000Y-47879000D02*
X85979000Y-56159000D01*
X84328000Y-84328000D02*
X85217000Y-84328000D01*
X85344000Y-81026000D02*
X85852000Y-81534000D01*
X86502000Y-75732000D02*
X84328000Y-77906000D01*
X84328000Y-39806000D02*
X84328000Y-42926000D01*
X84328000Y-65278000D02*
X85217000Y-65278000D01*
X84328000Y-100076000D02*
X85344000Y-100076000D01*
X84328000Y-46228000D02*
X85217000Y-46228000D01*
X84328000Y-61976000D02*
X85344000Y-61976000D01*
X84328000Y-81026000D02*
X85344000Y-81026000D01*
X84328000Y-77906000D02*
X84328000Y-81026000D01*
X86502000Y-37632000D02*
X84328000Y-39806000D01*
X85979000Y-113309000D02*
X86502000Y-113832000D01*
X85979000Y-66929000D02*
X85979000Y-75209000D01*
X85852000Y-81534000D02*
X85852000Y-83693000D01*
X85979000Y-85979000D02*
X84328000Y-84328000D01*
X85979000Y-105029000D02*
X85979000Y-113309000D01*
X86502000Y-113832000D02*
X84328000Y-116006000D01*
X85217000Y-84328000D02*
X85852000Y-83693000D01*
X84328000Y-58856000D02*
X84328000Y-61976000D01*
X85979000Y-105029000D02*
X84328000Y-103378000D01*
X85979000Y-47879000D02*
X84328000Y-46228000D01*
X86502000Y-94782000D02*
X84328000Y-96956000D01*
X86502000Y-56682000D02*
X84328000Y-58856000D01*
X85979000Y-94259000D02*
X86502000Y-94782000D01*
X84328000Y-42926000D02*
X85344000Y-42926000D01*
X85852000Y-100584000D02*
X85852000Y-102743000D01*
X84328000Y-103378000D02*
X85217000Y-103378000D01*
X84328000Y-96956000D02*
X84328000Y-100076000D01*
X85979000Y-28829000D02*
X84328000Y-27178000D01*
X85217000Y-103378000D02*
X85852000Y-102743000D01*
X85979000Y-56159000D02*
X86502000Y-56682000D01*
X85344000Y-100076000D02*
X85852000Y-100584000D01*
%TO.N,col2*%
X105029000Y-28829000D02*
X103378000Y-27178000D01*
X105029000Y-28829000D02*
X105029000Y-37109000D01*
X104394000Y-100076000D02*
X104902000Y-100584000D01*
X104267000Y-103378000D02*
X104902000Y-102743000D01*
X103378000Y-42926000D02*
X104394000Y-42926000D01*
X104902000Y-81534000D02*
X104902000Y-83693000D01*
X105029000Y-47879000D02*
X103378000Y-46228000D01*
X105029000Y-94259000D02*
X105552000Y-94782000D01*
X104267000Y-46228000D02*
X104902000Y-45593000D01*
X104394000Y-42926000D02*
X104902000Y-43434000D01*
X103378000Y-116006000D02*
X103378000Y-119126000D01*
X105029000Y-105029000D02*
X103378000Y-103378000D01*
X104267000Y-84328000D02*
X104902000Y-83693000D01*
X105552000Y-37632000D02*
X103378000Y-39806000D01*
X104902000Y-43434000D02*
X104902000Y-45593000D01*
X104394000Y-61976000D02*
X104902000Y-62484000D01*
X105029000Y-85979000D02*
X103378000Y-84328000D01*
X105029000Y-105029000D02*
X105029000Y-113309000D01*
X105029000Y-85979000D02*
X105029000Y-94259000D01*
X104267000Y-65278000D02*
X104902000Y-64643000D01*
X103378000Y-65278000D02*
X104267000Y-65278000D01*
X103378000Y-77906000D02*
X103378000Y-81026000D01*
X103378000Y-96956000D02*
X103378000Y-100076000D01*
X103378000Y-81026000D02*
X104394000Y-81026000D01*
X105029000Y-66929000D02*
X103378000Y-65278000D01*
X105552000Y-94782000D02*
X103378000Y-96956000D01*
X103378000Y-103378000D02*
X104267000Y-103378000D01*
X105029000Y-113309000D02*
X105552000Y-113832000D01*
X105029000Y-66929000D02*
X105029000Y-75209000D01*
X103378000Y-39806000D02*
X103378000Y-42926000D01*
X105552000Y-75732000D02*
X103378000Y-77906000D01*
X105029000Y-56159000D02*
X105552000Y-56682000D01*
X105552000Y-56682000D02*
X103378000Y-58856000D01*
X104902000Y-100584000D02*
X104902000Y-102743000D01*
X103378000Y-46228000D02*
X104267000Y-46228000D01*
X105552000Y-113832000D02*
X103378000Y-116006000D01*
X103378000Y-100076000D02*
X104394000Y-100076000D01*
X103378000Y-61976000D02*
X104394000Y-61976000D01*
X103378000Y-84328000D02*
X104267000Y-84328000D01*
X104394000Y-81026000D02*
X104902000Y-81534000D01*
X103378000Y-58856000D02*
X103378000Y-61976000D01*
X105029000Y-75209000D02*
X105552000Y-75732000D01*
X104902000Y-62484000D02*
X104902000Y-64643000D01*
X105029000Y-47879000D02*
X105029000Y-56159000D01*
X105029000Y-37109000D02*
X105552000Y-37632000D01*
%TO.N,col3*%
X123444000Y-61976000D02*
X123952000Y-62484000D01*
X124079000Y-113309000D02*
X124602000Y-113832000D01*
X123952000Y-43434000D02*
X123952000Y-45593000D01*
X124602000Y-56682000D02*
X122428000Y-58856000D01*
X124079000Y-105029000D02*
X122428000Y-103378000D01*
X124079000Y-47879000D02*
X124079000Y-56159000D01*
X124079000Y-66929000D02*
X122428000Y-65278000D01*
X122428000Y-103378000D02*
X123317000Y-103378000D01*
X123952000Y-100584000D02*
X123952000Y-102743000D01*
X123444000Y-42926000D02*
X123952000Y-43434000D01*
X123952000Y-62484000D02*
X123952000Y-64643000D01*
X124079000Y-56159000D02*
X124602000Y-56682000D01*
X122428000Y-46228000D02*
X123317000Y-46228000D01*
X124079000Y-47879000D02*
X122428000Y-46228000D01*
X124079000Y-85979000D02*
X124079000Y-94259000D01*
X123317000Y-65278000D02*
X123952000Y-64643000D01*
X124602000Y-37632000D02*
X122428000Y-39806000D01*
X123317000Y-84328000D02*
X123952000Y-83693000D01*
X122428000Y-84328000D02*
X123317000Y-84328000D01*
X124079000Y-75209000D02*
X124602000Y-75732000D01*
X122428000Y-116006000D02*
X122428000Y-119126000D01*
X123952000Y-81534000D02*
X123952000Y-83693000D01*
X123444000Y-81026000D02*
X123952000Y-81534000D01*
X122428000Y-65278000D02*
X123317000Y-65278000D01*
X124602000Y-75732000D02*
X122428000Y-77906000D01*
X123444000Y-100076000D02*
X123952000Y-100584000D01*
X124079000Y-28829000D02*
X124079000Y-37109000D01*
X123317000Y-46228000D02*
X123952000Y-45593000D01*
X122428000Y-58856000D02*
X122428000Y-61976000D01*
X122428000Y-77906000D02*
X122428000Y-81026000D01*
X124079000Y-105029000D02*
X124079000Y-113309000D01*
X122428000Y-61976000D02*
X123444000Y-61976000D01*
X123317000Y-103378000D02*
X123952000Y-102743000D01*
X124079000Y-66929000D02*
X124079000Y-75209000D01*
X124079000Y-94259000D02*
X124602000Y-94782000D01*
X124602000Y-113832000D02*
X122428000Y-116006000D01*
X122428000Y-100076000D02*
X123444000Y-100076000D01*
X124602000Y-94782000D02*
X122428000Y-96956000D01*
X124079000Y-37109000D02*
X124602000Y-37632000D01*
X122428000Y-42926000D02*
X123444000Y-42926000D01*
X122428000Y-39806000D02*
X122428000Y-42926000D01*
X124079000Y-85979000D02*
X122428000Y-84328000D01*
X122428000Y-96956000D02*
X122428000Y-100076000D01*
X122428000Y-81026000D02*
X123444000Y-81026000D01*
X124079000Y-28829000D02*
X122428000Y-27178000D01*
%TO.N,col4*%
X143129000Y-105029000D02*
X141478000Y-103378000D01*
X142367000Y-65278000D02*
X143002000Y-64643000D01*
X143129000Y-28829000D02*
X143129000Y-37109000D01*
X143002000Y-43434000D02*
X143002000Y-45593000D01*
X143129000Y-66929000D02*
X143129000Y-75209000D01*
X141478000Y-81026000D02*
X142494000Y-81026000D01*
X143652000Y-37632000D02*
X141478000Y-39806000D01*
X141478000Y-42926000D02*
X142494000Y-42926000D01*
X141478000Y-103378000D02*
X142367000Y-103378000D01*
X143002000Y-81534000D02*
X143002000Y-83693000D01*
X143652000Y-113832000D02*
X141478000Y-116006000D01*
X142367000Y-84328000D02*
X143002000Y-83693000D01*
X143129000Y-66929000D02*
X141478000Y-65278000D01*
X143129000Y-105029000D02*
X143129000Y-113309000D01*
X143129000Y-85979000D02*
X141478000Y-84328000D01*
X143129000Y-47879000D02*
X143129000Y-56159000D01*
X143002000Y-62484000D02*
X143002000Y-64643000D01*
X143129000Y-85979000D02*
X143129000Y-94259000D01*
X143002000Y-100584000D02*
X143002000Y-102743000D01*
X143129000Y-37109000D02*
X143652000Y-37632000D01*
X143129000Y-56159000D02*
X143652000Y-56682000D01*
X141478000Y-46228000D02*
X142367000Y-46228000D01*
X141478000Y-96956000D02*
X141478000Y-100076000D01*
X142494000Y-61976000D02*
X143002000Y-62484000D01*
X141478000Y-100076000D02*
X142494000Y-100076000D01*
X141478000Y-39806000D02*
X141478000Y-42926000D01*
X141478000Y-84328000D02*
X142367000Y-84328000D01*
X143129000Y-28829000D02*
X141478000Y-27178000D01*
X143652000Y-75732000D02*
X141478000Y-77906000D01*
X141478000Y-61976000D02*
X142494000Y-61976000D01*
X143129000Y-75209000D02*
X143652000Y-75732000D01*
X143129000Y-94259000D02*
X143652000Y-94782000D01*
X142494000Y-81026000D02*
X143002000Y-81534000D01*
X143129000Y-113309000D02*
X143652000Y-113832000D01*
X143652000Y-94782000D02*
X141478000Y-96956000D01*
X141478000Y-116006000D02*
X141478000Y-119126000D01*
X141478000Y-65278000D02*
X142367000Y-65278000D01*
X142367000Y-46228000D02*
X143002000Y-45593000D01*
X142367000Y-103378000D02*
X143002000Y-102743000D01*
X143129000Y-47879000D02*
X141478000Y-46228000D01*
X141478000Y-77906000D02*
X141478000Y-81026000D01*
X143652000Y-56682000D02*
X141478000Y-58856000D01*
X141478000Y-58856000D02*
X141478000Y-61976000D01*
X142494000Y-42926000D02*
X143002000Y-43434000D01*
X142494000Y-100076000D02*
X143002000Y-100584000D01*
%TO.N,GND*%
X62952000Y-88265000D02*
X62952000Y-93401026D01*
X81437479Y-74915547D02*
X81437479Y-76738479D01*
X139152000Y-69215000D02*
X139152000Y-74351026D01*
X62387479Y-95788479D02*
X64643000Y-98044000D01*
X62952000Y-55301026D02*
X62387479Y-55865547D01*
X100487479Y-57688479D02*
X102743000Y-59944000D01*
X119537479Y-57688479D02*
X121793000Y-59944000D01*
X62387479Y-93965547D02*
X62387479Y-95788479D01*
X138587479Y-57688479D02*
X140843000Y-59944000D01*
X62952000Y-69215000D02*
X62952000Y-74351026D01*
X62952000Y-93401026D02*
X62387479Y-93965547D01*
X81437479Y-57688479D02*
X83693000Y-59944000D01*
X120102000Y-88265000D02*
X120102000Y-93401026D01*
X138587479Y-114838479D02*
X140843000Y-117094000D01*
X62387479Y-76738479D02*
X64643000Y-78994000D01*
X62387479Y-38638479D02*
X64643000Y-40894000D01*
X119537479Y-114838479D02*
X121793000Y-117094000D01*
X139152000Y-74351026D02*
X138587479Y-74915547D01*
X82002000Y-50165000D02*
X82002000Y-55301026D01*
X138587479Y-36815547D02*
X138587479Y-38638479D01*
X82002000Y-69215000D02*
X82002000Y-74351026D01*
X82002000Y-112451026D02*
X81437479Y-113015547D01*
X82002000Y-88265000D02*
X82002000Y-93401026D01*
X100487479Y-55865547D02*
X100487479Y-57688479D01*
X100487479Y-74915547D02*
X100487479Y-76738479D01*
X100487479Y-95788479D02*
X102743000Y-98044000D01*
X139152000Y-88265000D02*
X139152000Y-93401026D01*
X81437479Y-55865547D02*
X81437479Y-57688479D01*
X139152000Y-107315000D02*
X139152000Y-112451026D01*
X138587479Y-74915547D02*
X138587479Y-76738479D01*
X62387479Y-57688479D02*
X64643000Y-59944000D01*
X101052000Y-107315000D02*
X101052000Y-112451026D01*
X119537479Y-55865547D02*
X119537479Y-57688479D01*
X101052000Y-36251026D02*
X100487479Y-36815547D01*
X139152000Y-36251026D02*
X138587479Y-36815547D01*
X81437479Y-113015547D02*
X81437479Y-114838479D01*
X139152000Y-50165000D02*
X139152000Y-55301026D01*
X119537479Y-113015547D02*
X119537479Y-114838479D01*
X120102000Y-107315000D02*
X120102000Y-112451026D01*
X138587479Y-93965547D02*
X138587479Y-95788479D01*
X119537479Y-93965547D02*
X119537479Y-95788479D01*
X101052000Y-88265000D02*
X101052000Y-93401026D01*
X120102000Y-93401026D02*
X119537479Y-93965547D01*
X62952000Y-107315000D02*
X62952000Y-112451026D01*
X101052000Y-74351026D02*
X100487479Y-74915547D01*
X81437479Y-36815547D02*
X81437479Y-38638479D01*
X62952000Y-31115000D02*
X62952000Y-36251026D01*
X101052000Y-31115000D02*
X101052000Y-36251026D01*
X101052000Y-112451026D02*
X100487479Y-113015547D01*
X120102000Y-50165000D02*
X120102000Y-55301026D01*
X138587479Y-38638479D02*
X140843000Y-40894000D01*
X120102000Y-74351026D02*
X119537479Y-74915547D01*
X81437479Y-38638479D02*
X83693000Y-40894000D01*
X100487479Y-36815547D02*
X100487479Y-38638479D01*
X100487479Y-76738479D02*
X102743000Y-78994000D01*
X101052000Y-50165000D02*
X101052000Y-55301026D01*
X82002000Y-55301026D02*
X81437479Y-55865547D01*
X62387479Y-74915547D02*
X62387479Y-76738479D01*
X62952000Y-112451026D02*
X62387479Y-113015547D01*
X101052000Y-69215000D02*
X101052000Y-74351026D01*
X81437479Y-114838479D02*
X83693000Y-117094000D01*
X119537479Y-95788479D02*
X121793000Y-98044000D01*
X119537479Y-36815547D02*
X119537479Y-38638479D01*
X120102000Y-69215000D02*
X120102000Y-74351026D01*
X81437479Y-93965547D02*
X81437479Y-95788479D01*
X82002000Y-74351026D02*
X81437479Y-74915547D01*
X119537479Y-38638479D02*
X121793000Y-40894000D01*
X138587479Y-55865547D02*
X138587479Y-57688479D01*
X82002000Y-93401026D02*
X81437479Y-93965547D01*
X62387479Y-36815547D02*
X62387479Y-38638479D01*
X120102000Y-112451026D02*
X119537479Y-113015547D01*
X120102000Y-55301026D02*
X119537479Y-55865547D01*
X100487479Y-93965547D02*
X100487479Y-95788479D01*
X138587479Y-95788479D02*
X140843000Y-98044000D01*
X120102000Y-36251026D02*
X119537479Y-36815547D01*
X139152000Y-55301026D02*
X138587479Y-55865547D01*
X120102000Y-31115000D02*
X120102000Y-36251026D01*
X81437479Y-76738479D02*
X83693000Y-78994000D01*
X139152000Y-93401026D02*
X138587479Y-93965547D01*
X62387479Y-55865547D02*
X62387479Y-57688479D01*
X62952000Y-74351026D02*
X62387479Y-74915547D01*
X82002000Y-107315000D02*
X82002000Y-112451026D01*
X100487479Y-114838479D02*
X102743000Y-117094000D01*
X138587479Y-76738479D02*
X140843000Y-78994000D01*
X62387479Y-114838479D02*
X64643000Y-117094000D01*
X62952000Y-50165000D02*
X62952000Y-55301026D01*
X101052000Y-93401026D02*
X100487479Y-93965547D01*
X62387479Y-113015547D02*
X62387479Y-114838479D01*
X100487479Y-38638479D02*
X102743000Y-40894000D01*
X100487479Y-113015547D02*
X100487479Y-114838479D01*
X101052000Y-55301026D02*
X100487479Y-55865547D01*
X82002000Y-31115000D02*
X82002000Y-36251026D01*
X119537479Y-74915547D02*
X119537479Y-76738479D01*
X139152000Y-112451026D02*
X138587479Y-113015547D01*
X82002000Y-36251026D02*
X81437479Y-36815547D01*
X81437479Y-95788479D02*
X83693000Y-98044000D01*
X138587479Y-113015547D02*
X138587479Y-114838479D01*
X62952000Y-36251026D02*
X62387479Y-36815547D01*
X139152000Y-31115000D02*
X139152000Y-36251026D01*
X119537479Y-76738479D02*
X121793000Y-78994000D01*
%TO.N,VCC*%
X109728000Y-65659000D02*
X109728000Y-65278000D01*
X115102000Y-86626196D02*
X116130196Y-85598000D01*
X102235000Y-47498000D02*
X104140000Y-49403000D01*
X58980196Y-47498000D02*
X64135000Y-47498000D01*
X94869000Y-33655000D02*
X94361000Y-33147000D01*
X74577000Y-103378000D02*
X77002000Y-105803000D01*
X125476000Y-66675000D02*
X127762000Y-66675000D01*
X106426000Y-104775000D02*
X108712000Y-104775000D01*
X132461000Y-52197000D02*
X132461000Y-49530000D01*
X109728000Y-46228000D02*
X112677000Y-46228000D01*
X56769000Y-33655000D02*
X56261000Y-33147000D01*
X128778000Y-103378000D02*
X131727000Y-103378000D01*
X56261000Y-49530000D02*
X57138000Y-48653000D01*
X94361000Y-52197000D02*
X94361000Y-49530000D01*
X78030196Y-28448000D02*
X83185000Y-28448000D01*
X125476000Y-104775000D02*
X127762000Y-104775000D01*
X71628000Y-27178000D02*
X74577000Y-27178000D01*
X75819000Y-33655000D02*
X75311000Y-33147000D01*
X75311000Y-68580000D02*
X76188000Y-67703000D01*
X97080196Y-28448000D02*
X102235000Y-28448000D01*
X75311000Y-49530000D02*
X76188000Y-48653000D01*
X75819000Y-52705000D02*
X75311000Y-52197000D01*
X127762000Y-28575000D02*
X128778000Y-27559000D01*
X56261000Y-106680000D02*
X57138000Y-105803000D01*
X113411000Y-87630000D02*
X114288000Y-86753000D01*
X75311000Y-106680000D02*
X76188000Y-105803000D01*
X109728000Y-84328000D02*
X112677000Y-84328000D01*
X75311000Y-52197000D02*
X75311000Y-49530000D01*
X94869000Y-71755000D02*
X94361000Y-71247000D01*
X52578000Y-84328000D02*
X55527000Y-84328000D01*
X94361000Y-49530000D02*
X95238000Y-48653000D01*
X121285000Y-85598000D02*
X123190000Y-87503000D01*
X132461000Y-109347000D02*
X132461000Y-106680000D01*
X57952000Y-29603000D02*
X57952000Y-29476196D01*
X70612000Y-85725000D02*
X71628000Y-84709000D01*
X112677000Y-27178000D02*
X115102000Y-29603000D01*
X64135000Y-104648000D02*
X66040000Y-106553000D01*
X57952000Y-105676196D02*
X58980196Y-104648000D01*
X56769000Y-71755000D02*
X56261000Y-71247000D01*
X113411000Y-90297000D02*
X113411000Y-87630000D01*
X109728000Y-27178000D02*
X112677000Y-27178000D01*
X113411000Y-49530000D02*
X114288000Y-48653000D01*
X132969000Y-33655000D02*
X132461000Y-33147000D01*
X106426000Y-47625000D02*
X108712000Y-47625000D01*
X52578000Y-27178000D02*
X55523520Y-27178000D01*
X83185000Y-85598000D02*
X85090000Y-87503000D01*
X75311000Y-30480000D02*
X76188000Y-29603000D01*
X71628000Y-65659000D02*
X71628000Y-65278000D01*
X75311000Y-109347000D02*
X75311000Y-106680000D01*
X127762000Y-85725000D02*
X128778000Y-84709000D01*
X56261000Y-90297000D02*
X56261000Y-87630000D01*
X108712000Y-28575000D02*
X109728000Y-27559000D01*
X78030196Y-104648000D02*
X83185000Y-104648000D01*
X128778000Y-65659000D02*
X128778000Y-65278000D01*
X64135000Y-28448000D02*
X66040000Y-30353000D01*
X64135000Y-47498000D02*
X66040000Y-49403000D01*
X75311000Y-71247000D02*
X75311000Y-68580000D01*
X78030196Y-66548000D02*
X83185000Y-66548000D01*
X115102000Y-29476196D02*
X116130196Y-28448000D01*
X109728000Y-84709000D02*
X109728000Y-84328000D01*
X89662000Y-104775000D02*
X90678000Y-103759000D01*
X115102000Y-67576196D02*
X116130196Y-66548000D01*
X113411000Y-33147000D02*
X113411000Y-30480000D01*
X74577000Y-65278000D02*
X77002000Y-67703000D01*
X125476000Y-85725000D02*
X127762000Y-85725000D01*
X71628000Y-103759000D02*
X71628000Y-103378000D01*
X57952000Y-86626196D02*
X58980196Y-85598000D01*
X132461000Y-33147000D02*
X132461000Y-30480000D01*
X97080196Y-104648000D02*
X102235000Y-104648000D01*
X113919000Y-90805000D02*
X113411000Y-90297000D01*
X71628000Y-46228000D02*
X74577000Y-46228000D01*
X55527000Y-103378000D02*
X57952000Y-105803000D01*
X106426000Y-85725000D02*
X108712000Y-85725000D01*
X132461000Y-68580000D02*
X133338000Y-67703000D01*
X75819000Y-90805000D02*
X75311000Y-90297000D01*
X56261000Y-52197000D02*
X56261000Y-49530000D01*
X132461000Y-49530000D02*
X133338000Y-48653000D01*
X102235000Y-85598000D02*
X104140000Y-87503000D01*
X75819000Y-109855000D02*
X75311000Y-109347000D01*
X90678000Y-27178000D02*
X93627000Y-27178000D01*
X70612000Y-28575000D02*
X71628000Y-27559000D01*
X77002000Y-48526196D02*
X78030196Y-47498000D01*
X128778000Y-65278000D02*
X131727000Y-65278000D01*
X127762000Y-66675000D02*
X128778000Y-65659000D01*
X58980196Y-28448000D02*
X64135000Y-28448000D01*
X56261000Y-68580000D02*
X57138000Y-67703000D01*
X132461000Y-106680000D02*
X133338000Y-105803000D01*
X87376000Y-104775000D02*
X89662000Y-104775000D01*
X90678000Y-65659000D02*
X90678000Y-65278000D01*
X70612000Y-66675000D02*
X71628000Y-65659000D01*
X89662000Y-28575000D02*
X90678000Y-27559000D01*
X83185000Y-28448000D02*
X85090000Y-30353000D01*
X90678000Y-46228000D02*
X93627000Y-46228000D01*
X90678000Y-46609000D02*
X90678000Y-46228000D01*
X89662000Y-85725000D02*
X90678000Y-84709000D01*
X128778000Y-84709000D02*
X128778000Y-84328000D01*
X78030196Y-47498000D02*
X83185000Y-47498000D01*
X96052000Y-29476196D02*
X97080196Y-28448000D01*
X113919000Y-33655000D02*
X113411000Y-33147000D01*
X55527000Y-84328000D02*
X57952000Y-86753000D01*
X68326000Y-28575000D02*
X70612000Y-28575000D01*
X112677000Y-46228000D02*
X115102000Y-48653000D01*
X74577000Y-46228000D02*
X77002000Y-48653000D01*
X64135000Y-85598000D02*
X66040000Y-87503000D01*
X94869000Y-52705000D02*
X94361000Y-52197000D01*
X64135000Y-66548000D02*
X66040000Y-68453000D01*
X113411000Y-106680000D02*
X114288000Y-105803000D01*
X55527000Y-65278000D02*
X57952000Y-67703000D01*
X89662000Y-47625000D02*
X90678000Y-46609000D01*
X113411000Y-52197000D02*
X113411000Y-49530000D01*
X57138000Y-29603000D02*
X57952000Y-29603000D01*
X132461000Y-30480000D02*
X133338000Y-29603000D01*
X109728000Y-103759000D02*
X109728000Y-103378000D01*
X56769000Y-52705000D02*
X56261000Y-52197000D01*
X106426000Y-28575000D02*
X108712000Y-28575000D01*
X106426000Y-66675000D02*
X108712000Y-66675000D01*
X71628000Y-46609000D02*
X71628000Y-46228000D01*
X58980196Y-104648000D02*
X64135000Y-104648000D01*
X55527000Y-46228000D02*
X57952000Y-48653000D01*
X57952000Y-67576196D02*
X58980196Y-66548000D01*
X90678000Y-27559000D02*
X90678000Y-27178000D01*
X75819000Y-71755000D02*
X75311000Y-71247000D01*
X97080196Y-66548000D02*
X102235000Y-66548000D01*
X113919000Y-52705000D02*
X113411000Y-52197000D01*
X102235000Y-104648000D02*
X104140000Y-106553000D01*
X58980196Y-66548000D02*
X64135000Y-66548000D01*
X128778000Y-27559000D02*
X128778000Y-27178000D01*
X87376000Y-28575000D02*
X89662000Y-28575000D01*
X113411000Y-109347000D02*
X113411000Y-106680000D01*
X131727000Y-84328000D02*
X134152000Y-86753000D01*
X94361000Y-106680000D02*
X95238000Y-105803000D01*
X57952000Y-29476196D02*
X58980196Y-28448000D01*
X75311000Y-33147000D02*
X75311000Y-30480000D01*
X93627000Y-103378000D02*
X96052000Y-105803000D01*
X56769000Y-90805000D02*
X56261000Y-90297000D01*
X113411000Y-68580000D02*
X114288000Y-67703000D01*
X121285000Y-28448000D02*
X123190000Y-30353000D01*
X131727000Y-65278000D02*
X134152000Y-67703000D01*
X68326000Y-66675000D02*
X70612000Y-66675000D01*
X94361000Y-90297000D02*
X94361000Y-87630000D01*
X71628000Y-84709000D02*
X71628000Y-84328000D01*
X77002000Y-105676196D02*
X78030196Y-104648000D01*
X93627000Y-84328000D02*
X96052000Y-86753000D01*
X132969000Y-109855000D02*
X132461000Y-109347000D01*
X52578000Y-103378000D02*
X55527000Y-103378000D01*
X52578000Y-65278000D02*
X55527000Y-65278000D01*
X125476000Y-28575000D02*
X127762000Y-28575000D01*
X77002000Y-86626196D02*
X78030196Y-85598000D01*
X68326000Y-104775000D02*
X70612000Y-104775000D01*
X108712000Y-104775000D02*
X109728000Y-103759000D01*
X109728000Y-65278000D02*
X112677000Y-65278000D01*
X78030196Y-85598000D02*
X83185000Y-85598000D01*
X109728000Y-103378000D02*
X112677000Y-103378000D01*
X52578000Y-46228000D02*
X55527000Y-46228000D01*
X127762000Y-104775000D02*
X128778000Y-103759000D01*
X132461000Y-87630000D02*
X133338000Y-86753000D01*
X113411000Y-71247000D02*
X113411000Y-68580000D01*
X93627000Y-65278000D02*
X96052000Y-67703000D01*
X75311000Y-87630000D02*
X76188000Y-86753000D01*
X132461000Y-90297000D02*
X132461000Y-87630000D01*
X77002000Y-67576196D02*
X78030196Y-66548000D01*
X56261000Y-71247000D02*
X56261000Y-68580000D01*
X56261000Y-30480000D02*
X57138000Y-29603000D01*
X109728000Y-46609000D02*
X109728000Y-46228000D01*
X94869000Y-109855000D02*
X94361000Y-109347000D01*
X87376000Y-85725000D02*
X89662000Y-85725000D01*
X115102000Y-105676196D02*
X116130196Y-104648000D01*
X77002000Y-29476196D02*
X78030196Y-28448000D01*
X131727000Y-46228000D02*
X134152000Y-48653000D01*
X116130196Y-104648000D02*
X121285000Y-104648000D01*
X87376000Y-66675000D02*
X89662000Y-66675000D01*
X89662000Y-66675000D02*
X90678000Y-65659000D01*
X56261000Y-87630000D02*
X57138000Y-86753000D01*
X96052000Y-48526196D02*
X97080196Y-47498000D01*
X74577000Y-84328000D02*
X77002000Y-86753000D01*
X108712000Y-85725000D02*
X109728000Y-84709000D01*
X94361000Y-68580000D02*
X95238000Y-67703000D01*
X94361000Y-33147000D02*
X94361000Y-30480000D01*
X116130196Y-47498000D02*
X121285000Y-47498000D01*
X94361000Y-87630000D02*
X95238000Y-86753000D01*
X131727000Y-27178000D02*
X134152000Y-29603000D01*
X128778000Y-46609000D02*
X128778000Y-46228000D01*
X90678000Y-84709000D02*
X90678000Y-84328000D01*
X112677000Y-84328000D02*
X115102000Y-86753000D01*
X55523520Y-27178000D02*
X57952000Y-29606480D01*
X93627000Y-46228000D02*
X96052000Y-48653000D01*
X102235000Y-28448000D02*
X104140000Y-30353000D01*
X75311000Y-90297000D02*
X75311000Y-87630000D01*
X112677000Y-65278000D02*
X115102000Y-67703000D01*
X71628000Y-103378000D02*
X74577000Y-103378000D01*
X56261000Y-109347000D02*
X56261000Y-106680000D01*
X132461000Y-71247000D02*
X132461000Y-68580000D01*
X83185000Y-104648000D02*
X85090000Y-106553000D01*
X96052000Y-105676196D02*
X97080196Y-104648000D01*
X90678000Y-103759000D02*
X90678000Y-103378000D01*
X94361000Y-30480000D02*
X95238000Y-29603000D01*
X128778000Y-46228000D02*
X131727000Y-46228000D01*
X83185000Y-47498000D02*
X85090000Y-49403000D01*
X132969000Y-90805000D02*
X132461000Y-90297000D01*
X90678000Y-103378000D02*
X93627000Y-103378000D01*
X57952000Y-48526196D02*
X58980196Y-47498000D01*
X115102000Y-48526196D02*
X116130196Y-47498000D01*
X71628000Y-27559000D02*
X71628000Y-27178000D01*
X113411000Y-30480000D02*
X114288000Y-29603000D01*
X90678000Y-65278000D02*
X93627000Y-65278000D01*
X94361000Y-71247000D02*
X94361000Y-68580000D01*
X131727000Y-103378000D02*
X134152000Y-105803000D01*
X113919000Y-71755000D02*
X113411000Y-71247000D01*
X96052000Y-67576196D02*
X97080196Y-66548000D01*
X94869000Y-90805000D02*
X94361000Y-90297000D01*
X128778000Y-103759000D02*
X128778000Y-103378000D01*
X128778000Y-84328000D02*
X131727000Y-84328000D01*
X108712000Y-47625000D02*
X109728000Y-46609000D01*
X97080196Y-47498000D02*
X102235000Y-47498000D01*
X128778000Y-27178000D02*
X131727000Y-27178000D01*
X58980196Y-85598000D02*
X64135000Y-85598000D01*
X121285000Y-66548000D02*
X123190000Y-68453000D01*
X93627000Y-27178000D02*
X96052000Y-29603000D01*
X68326000Y-85725000D02*
X70612000Y-85725000D01*
X132969000Y-71755000D02*
X132461000Y-71247000D01*
X70612000Y-47625000D02*
X71628000Y-46609000D01*
X132969000Y-52705000D02*
X132461000Y-52197000D01*
X70612000Y-104775000D02*
X71628000Y-103759000D01*
X97080196Y-85598000D02*
X102235000Y-85598000D01*
X112677000Y-103378000D02*
X115102000Y-105803000D01*
X90678000Y-84328000D02*
X93627000Y-84328000D01*
X83185000Y-66548000D02*
X85090000Y-68453000D01*
X102235000Y-66548000D02*
X104140000Y-68453000D01*
X109728000Y-27559000D02*
X109728000Y-27178000D01*
X121285000Y-104648000D02*
X123190000Y-106553000D01*
X68326000Y-47625000D02*
X70612000Y-47625000D01*
X96052000Y-86626196D02*
X97080196Y-85598000D01*
X116130196Y-66548000D02*
X121285000Y-66548000D01*
X116130196Y-28448000D02*
X121285000Y-28448000D01*
X113919000Y-109855000D02*
X113411000Y-109347000D01*
X121285000Y-47498000D02*
X123190000Y-49403000D01*
X87376000Y-47625000D02*
X89662000Y-47625000D01*
X71628000Y-65278000D02*
X74577000Y-65278000D01*
X52578000Y-27178000D02*
X55527000Y-27178000D01*
X127762000Y-47625000D02*
X128778000Y-46609000D01*
X56261000Y-33147000D02*
X56261000Y-30480000D01*
X56769000Y-109855000D02*
X56261000Y-109347000D01*
X116130196Y-85598000D02*
X121285000Y-85598000D01*
X74577000Y-27178000D02*
X77002000Y-29603000D01*
X125476000Y-47625000D02*
X127762000Y-47625000D01*
X108712000Y-66675000D02*
X109728000Y-65659000D01*
X94361000Y-109347000D02*
X94361000Y-106680000D01*
X71628000Y-84328000D02*
X74577000Y-84328000D01*
X55527000Y-27178000D02*
X57952000Y-29603000D01*
%TO.N,unconnected-(L1-Pad4)*%
X101499022Y-48641000D02*
X102276511Y-49418489D01*
X120549022Y-48641000D02*
X121326511Y-49418489D01*
X139599022Y-105791000D02*
X140376511Y-106568489D01*
X64176511Y-32851489D02*
X63627000Y-33401000D01*
X101499022Y-67691000D02*
X102276511Y-68468489D01*
X64176511Y-90001489D02*
X63627000Y-90551000D01*
X63399022Y-48641000D02*
X64176511Y-49418489D01*
X82449022Y-48641000D02*
X83226511Y-49418489D01*
X121326511Y-68468489D02*
X121326511Y-70951489D01*
X83226511Y-49418489D02*
X83226511Y-51901489D01*
X120549022Y-105791000D02*
X121326511Y-106568489D01*
X102276511Y-87518489D02*
X102276511Y-90001489D01*
X83226511Y-32851489D02*
X82677000Y-33401000D01*
X140376511Y-32851489D02*
X139827000Y-33401000D01*
X140376511Y-106568489D02*
X140376511Y-109051489D01*
X82449022Y-105791000D02*
X83226511Y-106568489D01*
X121326511Y-90001489D02*
X120777000Y-90551000D01*
X102276511Y-51901489D02*
X101727000Y-52451000D01*
X121326511Y-49418489D02*
X121326511Y-51901489D01*
X83226511Y-68468489D02*
X83226511Y-70951489D01*
X140376511Y-90001489D02*
X139827000Y-90551000D01*
X63399022Y-29591000D02*
X64176511Y-30368489D01*
X64176511Y-106568489D02*
X64176511Y-109051489D01*
X139599022Y-29591000D02*
X140376511Y-30368489D01*
X140376511Y-68468489D02*
X140376511Y-70951489D01*
X82449022Y-29591000D02*
X83226511Y-30368489D01*
X82449022Y-67691000D02*
X83226511Y-68468489D01*
X83226511Y-106568489D02*
X83226511Y-109051489D01*
X102276511Y-30368489D02*
X102276511Y-32851489D01*
X63399022Y-67691000D02*
X64176511Y-68468489D01*
X64176511Y-49418489D02*
X64176511Y-51901489D01*
X102276511Y-70951489D02*
X101727000Y-71501000D01*
X121326511Y-70951489D02*
X120777000Y-71501000D01*
X121326511Y-51901489D02*
X120777000Y-52451000D01*
X121326511Y-109051489D02*
X120777000Y-109601000D01*
X82449022Y-86741000D02*
X83226511Y-87518489D01*
X64176511Y-87518489D02*
X64176511Y-90001489D01*
X140376511Y-109051489D02*
X139827000Y-109601000D01*
X121326511Y-106568489D02*
X121326511Y-109051489D01*
X83226511Y-87518489D02*
X83226511Y-90001489D01*
X102276511Y-32851489D02*
X101727000Y-33401000D01*
X120549022Y-67691000D02*
X121326511Y-68468489D01*
X102276511Y-90001489D02*
X101727000Y-90551000D01*
X83226511Y-30368489D02*
X83226511Y-32851489D01*
X121326511Y-87518489D02*
X121326511Y-90001489D01*
X140376511Y-30368489D02*
X140376511Y-32851489D01*
X63399022Y-105791000D02*
X64176511Y-106568489D01*
X64176511Y-70951489D02*
X63627000Y-71501000D01*
X83226511Y-109051489D02*
X82677000Y-109601000D01*
X63399022Y-86741000D02*
X64176511Y-87518489D01*
X64176511Y-30368489D02*
X64176511Y-32851489D01*
X140376511Y-49418489D02*
X140376511Y-51901489D01*
X139599022Y-48641000D02*
X140376511Y-49418489D01*
X62952000Y-29591000D02*
X63399022Y-29591000D01*
X140376511Y-87518489D02*
X140376511Y-90001489D01*
X121326511Y-32851489D02*
X120777000Y-33401000D01*
X83226511Y-90001489D02*
X82677000Y-90551000D01*
X102276511Y-68468489D02*
X102276511Y-70951489D01*
X102276511Y-106568489D02*
X102276511Y-109051489D01*
X83226511Y-70951489D02*
X82677000Y-71501000D01*
X140376511Y-70951489D02*
X139827000Y-71501000D01*
X139599022Y-86741000D02*
X140376511Y-87518489D01*
X83226511Y-51901489D02*
X82677000Y-52451000D01*
X120549022Y-86741000D02*
X121326511Y-87518489D01*
X101499022Y-29591000D02*
X102276511Y-30368489D01*
X64176511Y-68468489D02*
X64176511Y-70951489D01*
X64176511Y-109051489D02*
X63627000Y-109601000D01*
X64176511Y-51901489D02*
X63627000Y-52451000D01*
X139599022Y-67691000D02*
X140376511Y-68468489D01*
X140376511Y-51901489D02*
X139827000Y-52451000D01*
X102276511Y-49418489D02*
X102276511Y-51901489D01*
X121326511Y-30368489D02*
X121326511Y-32851489D01*
X101499022Y-105791000D02*
X102276511Y-106568489D01*
X120549022Y-29591000D02*
X121326511Y-30368489D01*
X102276511Y-109051489D02*
X101727000Y-109601000D01*
X101499022Y-86741000D02*
X102276511Y-87518489D01*
%TO.N,unconnected-(L1-Pad2)*%
X77002000Y-110545157D02*
X72993157Y-114554000D01*
X53943157Y-76454000D02*
X52578000Y-76454000D01*
X134152000Y-110545157D02*
X130143157Y-114554000D01*
X134152000Y-53395157D02*
X130143157Y-57404000D01*
X53943157Y-114554000D02*
X52578000Y-114554000D01*
X134152000Y-91495157D02*
X130143157Y-95504000D01*
X96052000Y-53395157D02*
X92043157Y-57404000D01*
X96052000Y-34345157D02*
X92043157Y-38354000D01*
X57952000Y-72445157D02*
X53943157Y-76454000D01*
X57952000Y-107315000D02*
X57952000Y-110545157D01*
X134152000Y-31115000D02*
X134152000Y-34345157D01*
X134152000Y-72445157D02*
X130143157Y-76454000D01*
X77002000Y-91495157D02*
X72993157Y-95504000D01*
X92043157Y-57404000D02*
X90678000Y-57404000D01*
X115102000Y-31115000D02*
X115102000Y-34345157D01*
X134152000Y-34345157D02*
X130143157Y-38354000D01*
X115102000Y-34345157D02*
X111093157Y-38354000D01*
X115102000Y-53395157D02*
X111093157Y-57404000D01*
X115102000Y-107315000D02*
X115102000Y-110545157D01*
X92043157Y-95504000D02*
X90678000Y-95504000D01*
X57952000Y-31115000D02*
X57952000Y-34345157D01*
X77002000Y-31115000D02*
X77002000Y-34345157D01*
X57952000Y-69215000D02*
X57952000Y-72445157D01*
X96052000Y-88265000D02*
X96052000Y-91495157D01*
X77002000Y-34345157D02*
X72993157Y-38354000D01*
X111093157Y-57404000D02*
X109728000Y-57404000D01*
X130143157Y-57404000D02*
X128778000Y-57404000D01*
X57952000Y-53395157D02*
X53943157Y-57404000D01*
X111093157Y-114554000D02*
X109728000Y-114554000D01*
X57952000Y-88265000D02*
X57952000Y-91495157D01*
X53943157Y-57404000D02*
X52578000Y-57404000D01*
X130143157Y-38354000D02*
X128778000Y-38354000D01*
X115102000Y-72445157D02*
X111093157Y-76454000D01*
X77002000Y-88265000D02*
X77002000Y-91495157D01*
X134152000Y-107315000D02*
X134152000Y-110545157D01*
X96052000Y-107315000D02*
X96052000Y-110545157D01*
X115102000Y-88265000D02*
X115102000Y-91495157D01*
X96052000Y-31115000D02*
X96052000Y-34345157D01*
X77002000Y-107315000D02*
X77002000Y-110545157D01*
X96052000Y-69215000D02*
X96052000Y-72445157D01*
X72993157Y-38354000D02*
X71628000Y-38354000D01*
X111093157Y-38354000D02*
X109728000Y-38354000D01*
X96052000Y-110545157D02*
X92043157Y-114554000D01*
X130143157Y-114554000D02*
X128778000Y-114554000D01*
X130143157Y-95504000D02*
X128778000Y-95504000D01*
X57952000Y-110545157D02*
X53943157Y-114554000D01*
X134152000Y-69215000D02*
X134152000Y-72445157D01*
X111093157Y-95504000D02*
X109728000Y-95504000D01*
X77002000Y-72445157D02*
X72993157Y-76454000D01*
X92043157Y-114554000D02*
X90678000Y-114554000D01*
X72993157Y-95504000D02*
X71628000Y-95504000D01*
X77002000Y-50165000D02*
X77002000Y-53395157D01*
X77002000Y-53395157D02*
X72993157Y-57404000D01*
X57952000Y-91495157D02*
X53943157Y-95504000D01*
X96052000Y-91495157D02*
X92043157Y-95504000D01*
X96052000Y-72445157D02*
X92043157Y-76454000D01*
X72993157Y-114554000D02*
X71628000Y-114554000D01*
X115102000Y-91495157D02*
X111093157Y-95504000D01*
X77002000Y-69215000D02*
X77002000Y-72445157D01*
X57952000Y-50165000D02*
X57952000Y-53395157D01*
X72993157Y-57404000D02*
X71628000Y-57404000D01*
X111093157Y-76454000D02*
X109728000Y-76454000D01*
X115102000Y-50165000D02*
X115102000Y-53395157D01*
X92043157Y-76454000D02*
X90678000Y-76454000D01*
X115102000Y-69215000D02*
X115102000Y-72445157D01*
X130143157Y-76454000D02*
X128778000Y-76454000D01*
X115102000Y-110545157D02*
X111093157Y-114554000D01*
X53943157Y-95504000D02*
X52578000Y-95504000D01*
X53943157Y-38354000D02*
X52578000Y-38354000D01*
X92043157Y-38354000D02*
X90678000Y-38354000D01*
X134152000Y-88265000D02*
X134152000Y-91495157D01*
X57952000Y-34345157D02*
X53943157Y-38354000D01*
X96052000Y-50165000D02*
X96052000Y-53395157D01*
X72993157Y-76454000D02*
X71628000Y-76454000D01*
X134152000Y-50165000D02*
X134152000Y-53395157D01*
%TD*%
M02*
