%TF.GenerationSoftware,KiCad,Pcbnew,(6.0.0-0)*%
%TF.CreationDate,2022-01-01T10:49:50+00:00*%
%TF.ProjectId,Sarcodina,53617263-6f64-4696-9e61-2e6b69636164,rev?*%
%TF.SameCoordinates,Original*%
%TF.FileFunction,Profile,NP*%
%FSLAX46Y46*%
G04 Gerber Fmt 4.6, Leading zero omitted, Abs format (unit mm)*
G04 Created by KiCad (PCBNEW (6.0.0-0)) date 2022-01-01 10:49:50*
%MOMM*%
%LPD*%
G01*
G04 APERTURE LIST*
%TA.AperFunction,Profile*%
%ADD10C,0.100000*%
%TD*%
%TA.AperFunction,Profile*%
%ADD11C,0.120000*%
%TD*%
G04 APERTURE END LIST*
D10*
X52593666Y-25527000D02*
G75*
G03*
X52593666Y-25527000I-1666666J0D01*
G01*
X48427000Y-25527000D02*
X53427000Y-25527000D01*
X50927000Y-23027000D02*
X50927000Y-28027000D01*
X51562000Y-119634000D02*
G75*
G03*
X52070000Y-120142000I508001J1D01*
G01*
X105537000Y-101092000D02*
X106934000Y-101092000D01*
X123317000Y-102362000D02*
X111887000Y-102362000D01*
X142367000Y-64262000D02*
X130937000Y-64262000D01*
X71120000Y-83312000D02*
G75*
G03*
X70612000Y-83820000I1J-508001D01*
G01*
X145034000Y-45212000D02*
X143637000Y-45212000D01*
X145542000Y-45720000D02*
G75*
G03*
X145034000Y-45212000I-508001J-1D01*
G01*
X69342000Y-45720000D02*
G75*
G03*
X68834000Y-45212000I-508001J-1D01*
G01*
X54737000Y-64262000D02*
X54737000Y-62992000D01*
X107442000Y-66040000D02*
X108712000Y-66040000D01*
X126492000Y-48260000D02*
X127762000Y-48260000D01*
X127762000Y-118237000D02*
X127762000Y-119634000D01*
X54737000Y-102362000D02*
X54737000Y-101092000D01*
X90170000Y-82042000D02*
X91567000Y-82042000D01*
X126492000Y-105410000D02*
X127762000Y-105410000D01*
X69342000Y-40767000D02*
X69342000Y-29210000D01*
X104267000Y-102362000D02*
X92837000Y-102362000D01*
X125984000Y-83312000D02*
X124587000Y-83312000D01*
X106934000Y-120142000D02*
G75*
G03*
X107442000Y-119634000I-1J508001D01*
G01*
X126492000Y-104140000D02*
X126492000Y-102870000D01*
X109220000Y-82042000D02*
X110617000Y-82042000D01*
X143637000Y-82042000D02*
X143637000Y-83312000D01*
X70612000Y-83820000D02*
X70612000Y-85090000D01*
X110617000Y-62992000D02*
X110617000Y-64262000D01*
X126492000Y-43434000D02*
X126492000Y-42037000D01*
X89662000Y-99187000D02*
X89662000Y-100584000D01*
X145542000Y-62484000D02*
X145542000Y-45720000D01*
X69342000Y-46990000D02*
X69342000Y-45720000D01*
X107442000Y-62484000D02*
X107442000Y-61087000D01*
X107442000Y-27940000D02*
X107442000Y-26670000D01*
X124587000Y-43942000D02*
X124587000Y-45212000D01*
X88392000Y-61087000D02*
X89662000Y-61087000D01*
X126492000Y-102870000D02*
G75*
G03*
X125984000Y-102362000I-508001J-1D01*
G01*
X51562000Y-26670000D02*
X51562000Y-43434000D01*
X70612000Y-61087000D02*
X70612000Y-62484000D01*
X128270000Y-45212000D02*
G75*
G03*
X127762000Y-45720000I1J-508001D01*
G01*
X89662000Y-26670000D02*
X89662000Y-27940000D01*
X88392000Y-81534000D02*
X88392000Y-80137000D01*
X107442000Y-78867000D02*
X107442000Y-67310000D01*
X66167000Y-83312000D02*
X54737000Y-83312000D01*
X85217000Y-64262000D02*
X73787000Y-64262000D01*
X90170000Y-43942000D02*
X91567000Y-43942000D01*
X127762000Y-45720000D02*
X127762000Y-46990000D01*
X126492000Y-80137000D02*
X127762000Y-80137000D01*
X91567000Y-62992000D02*
X91567000Y-64262000D01*
X125984000Y-64262000D02*
X124587000Y-64262000D01*
X107442000Y-48260000D02*
X108712000Y-48260000D01*
X107442000Y-46990000D02*
X107442000Y-45720000D01*
X111887000Y-82042000D02*
X123317000Y-82042000D01*
X92837000Y-101092000D02*
X104267000Y-101092000D01*
X145034000Y-83312000D02*
X143637000Y-83312000D01*
X86487000Y-82042000D02*
X86487000Y-83312000D01*
X89662000Y-62484000D02*
G75*
G03*
X90170000Y-62992000I508001J1D01*
G01*
X108712000Y-81534000D02*
G75*
G03*
X109220000Y-82042000I508001J1D01*
G01*
X107442000Y-43434000D02*
X107442000Y-42037000D01*
X126492000Y-29210000D02*
X127762000Y-29210000D01*
X107442000Y-99187000D02*
X108712000Y-99187000D01*
X54737000Y-45212000D02*
X54737000Y-43942000D01*
X52070000Y-102362000D02*
G75*
G03*
X51562000Y-102870000I1J-508001D01*
G01*
X111887000Y-45212000D02*
X111887000Y-43942000D01*
X86487000Y-62992000D02*
X87884000Y-62992000D01*
X126492000Y-26670000D02*
G75*
G03*
X125984000Y-26162000I-508001J-1D01*
G01*
X67437000Y-82042000D02*
X68834000Y-82042000D01*
X126492000Y-86360000D02*
X127762000Y-86360000D01*
X107442000Y-104140000D02*
X107442000Y-102870000D01*
X111887000Y-62992000D02*
X123317000Y-62992000D01*
X71120000Y-120142000D02*
X87884000Y-120142000D01*
X68834000Y-102362000D02*
X67437000Y-102362000D01*
X51562000Y-64770000D02*
X51562000Y-81534000D01*
X108712000Y-29210000D02*
X108712000Y-40767000D01*
X107442000Y-26670000D02*
G75*
G03*
X106934000Y-26162000I-508001J-1D01*
G01*
X126492000Y-45720000D02*
G75*
G03*
X125984000Y-45212000I-508001J-1D01*
G01*
X108712000Y-118237000D02*
X108712000Y-119634000D01*
X69342000Y-66040000D02*
X70612000Y-66040000D01*
X54737000Y-62992000D02*
X66167000Y-62992000D01*
X90170000Y-83312000D02*
G75*
G03*
X89662000Y-83820000I1J-508001D01*
G01*
X109220000Y-43942000D02*
X110617000Y-43942000D01*
X69342000Y-66040000D02*
X69342000Y-64770000D01*
X145034000Y-101092000D02*
G75*
G03*
X145542000Y-100584000I-1J508001D01*
G01*
X70612000Y-42037000D02*
X70612000Y-43434000D01*
X88392000Y-118237000D02*
X89662000Y-118237000D01*
X69342000Y-59817000D02*
X70612000Y-59817000D01*
X86487000Y-62992000D02*
X86487000Y-64262000D01*
X87884000Y-43942000D02*
G75*
G03*
X88392000Y-43434000I-1J508001D01*
G01*
X108712000Y-102870000D02*
X108712000Y-104140000D01*
X126492000Y-97917000D02*
X126492000Y-86360000D01*
X87884000Y-120142000D02*
G75*
G03*
X88392000Y-119634000I-1J508001D01*
G01*
X124587000Y-82042000D02*
X125984000Y-82042000D01*
X88392000Y-40767000D02*
X89662000Y-40767000D01*
X108712000Y-26670000D02*
X108712000Y-27940000D01*
X88392000Y-46990000D02*
X88392000Y-45720000D01*
X129667000Y-83312000D02*
X128270000Y-83312000D01*
X67437000Y-101092000D02*
X68834000Y-101092000D01*
X88392000Y-26670000D02*
G75*
G03*
X87884000Y-26162000I-508001J-1D01*
G01*
X66167000Y-64262000D02*
X54737000Y-64262000D01*
X88392000Y-85090000D02*
X89662000Y-85090000D01*
X73787000Y-82042000D02*
X85217000Y-82042000D01*
X89662000Y-29210000D02*
X89662000Y-40767000D01*
X92837000Y-43942000D02*
X104267000Y-43942000D01*
X128270000Y-26162000D02*
G75*
G03*
X127762000Y-26670000I1J-508001D01*
G01*
X92837000Y-64262000D02*
X92837000Y-62992000D01*
X128270000Y-64262000D02*
G75*
G03*
X127762000Y-64770000I1J-508001D01*
G01*
X130937000Y-64262000D02*
X130937000Y-62992000D01*
X108712000Y-99187000D02*
X108712000Y-100584000D01*
X54737000Y-82042000D02*
X66167000Y-82042000D01*
X88392000Y-59817000D02*
X88392000Y-48260000D01*
X126492000Y-116967000D02*
X126492000Y-105410000D01*
X127762000Y-100584000D02*
G75*
G03*
X128270000Y-101092000I508001J1D01*
G01*
X145034000Y-102362000D02*
X143637000Y-102362000D01*
X70612000Y-45720000D02*
X70612000Y-46990000D01*
X130937000Y-45212000D02*
X130937000Y-43942000D01*
X126492000Y-27940000D02*
X127762000Y-27940000D01*
X69342000Y-48260000D02*
X70612000Y-48260000D01*
X88392000Y-42037000D02*
X89662000Y-42037000D01*
X68834000Y-62992000D02*
G75*
G03*
X69342000Y-62484000I-1J508001D01*
G01*
X90170000Y-102362000D02*
G75*
G03*
X89662000Y-102870000I1J-508001D01*
G01*
X70612000Y-43434000D02*
G75*
G03*
X71120000Y-43942000I508001J1D01*
G01*
X88392000Y-102870000D02*
G75*
G03*
X87884000Y-102362000I-508001J-1D01*
G01*
X89662000Y-67310000D02*
X89662000Y-78867000D01*
X89662000Y-83820000D02*
X89662000Y-85090000D01*
X69342000Y-104140000D02*
X70612000Y-104140000D01*
X127762000Y-81534000D02*
G75*
G03*
X128270000Y-82042000I508001J1D01*
G01*
X125984000Y-43942000D02*
G75*
G03*
X126492000Y-43434000I-1J508001D01*
G01*
X108712000Y-67310000D02*
X108712000Y-78867000D01*
X110617000Y-101092000D02*
X110617000Y-102362000D01*
X66167000Y-45212000D02*
X54737000Y-45212000D01*
X126492000Y-67310000D02*
X127762000Y-67310000D01*
X130937000Y-82042000D02*
X142367000Y-82042000D01*
X88392000Y-83820000D02*
G75*
G03*
X87884000Y-83312000I-508001J-1D01*
G01*
X126492000Y-104140000D02*
X127762000Y-104140000D01*
X69342000Y-43434000D02*
X69342000Y-42037000D01*
X70612000Y-67310000D02*
X70612000Y-78867000D01*
X107442000Y-119634000D02*
X107442000Y-118237000D01*
X108712000Y-48260000D02*
X108712000Y-59817000D01*
X70612000Y-119634000D02*
G75*
G03*
X71120000Y-120142000I508001J1D01*
G01*
X105537000Y-82042000D02*
X106934000Y-82042000D01*
X72517000Y-83312000D02*
X71120000Y-83312000D01*
X107442000Y-29210000D02*
X108712000Y-29210000D01*
X104267000Y-83312000D02*
X92837000Y-83312000D01*
X89662000Y-105410000D02*
X89662000Y-116967000D01*
X68834000Y-101092000D02*
G75*
G03*
X69342000Y-100584000I-1J508001D01*
G01*
X91567000Y-82042000D02*
X91567000Y-83312000D01*
X88392000Y-66040000D02*
X89662000Y-66040000D01*
X69342000Y-86360000D02*
X70612000Y-86360000D01*
X145542000Y-102870000D02*
G75*
G03*
X145034000Y-102362000I-508001J-1D01*
G01*
X108712000Y-80137000D02*
X108712000Y-81534000D01*
X145034000Y-82042000D02*
G75*
G03*
X145542000Y-81534000I-1J508001D01*
G01*
X108712000Y-105410000D02*
X108712000Y-116967000D01*
X142367000Y-64262000D02*
X142367000Y-62992000D01*
X69342000Y-67310000D02*
X70612000Y-67310000D01*
X69342000Y-78867000D02*
X70612000Y-78867000D01*
X126492000Y-85090000D02*
X127762000Y-85090000D01*
X142367000Y-102362000D02*
X142367000Y-101092000D01*
X68834000Y-82042000D02*
G75*
G03*
X69342000Y-81534000I-1J508001D01*
G01*
X107442000Y-102870000D02*
G75*
G03*
X106934000Y-102362000I-508001J-1D01*
G01*
X126492000Y-118237000D02*
X127762000Y-118237000D01*
X88392000Y-116967000D02*
X88392000Y-105410000D01*
X107442000Y-104140000D02*
X108712000Y-104140000D01*
X126492000Y-66040000D02*
X127762000Y-66040000D01*
X91567000Y-101092000D02*
X91567000Y-102362000D01*
X145542000Y-83820000D02*
G75*
G03*
X145034000Y-83312000I-508001J-1D01*
G01*
X108712000Y-100584000D02*
G75*
G03*
X109220000Y-101092000I508001J1D01*
G01*
X92837000Y-102362000D02*
X92837000Y-101092000D01*
X68834000Y-83312000D02*
X67437000Y-83312000D01*
X51562000Y-45720000D02*
X51562000Y-62484000D01*
X107442000Y-78867000D02*
X108712000Y-78867000D01*
X72517000Y-101092000D02*
X72517000Y-102362000D01*
X54737000Y-83312000D02*
X54737000Y-82042000D01*
X68834000Y-45212000D02*
X67437000Y-45212000D01*
X86487000Y-101092000D02*
X86487000Y-102362000D01*
X51562000Y-62484000D02*
G75*
G03*
X52070000Y-62992000I508001J1D01*
G01*
X68834000Y-26162000D02*
X52070000Y-26162000D01*
X53467000Y-43942000D02*
X53467000Y-45212000D01*
X125984000Y-62992000D02*
G75*
G03*
X126492000Y-62484000I-1J508001D01*
G01*
X126492000Y-97917000D02*
X127762000Y-97917000D01*
X107442000Y-66040000D02*
X107442000Y-64770000D01*
X143637000Y-43942000D02*
X143637000Y-45212000D01*
X71120000Y-102362000D02*
G75*
G03*
X70612000Y-102870000I1J-508001D01*
G01*
X129667000Y-62992000D02*
X129667000Y-64262000D01*
X126492000Y-42037000D02*
X127762000Y-42037000D01*
X71120000Y-26162000D02*
G75*
G03*
X70612000Y-26670000I1J-508001D01*
G01*
X70612000Y-64770000D02*
X70612000Y-66040000D01*
X107442000Y-64770000D02*
G75*
G03*
X106934000Y-64262000I-508001J-1D01*
G01*
X69342000Y-85090000D02*
X70612000Y-85090000D01*
X107442000Y-105410000D02*
X108712000Y-105410000D01*
X125984000Y-82042000D02*
G75*
G03*
X126492000Y-81534000I-1J508001D01*
G01*
X89662000Y-119634000D02*
G75*
G03*
X90170000Y-120142000I508001J1D01*
G01*
X106934000Y-83312000D02*
X105537000Y-83312000D01*
X110617000Y-64262000D02*
X109220000Y-64262000D01*
X143637000Y-62992000D02*
X143637000Y-64262000D01*
X124587000Y-62992000D02*
X124587000Y-64262000D01*
X124587000Y-43942000D02*
X125984000Y-43942000D01*
X107442000Y-85090000D02*
X108712000Y-85090000D01*
X109220000Y-45212000D02*
G75*
G03*
X108712000Y-45720000I1J-508001D01*
G01*
X69342000Y-119634000D02*
X69342000Y-118237000D01*
X69342000Y-59817000D02*
X69342000Y-48260000D01*
X110617000Y-43942000D02*
X110617000Y-45212000D01*
X126492000Y-119634000D02*
X126492000Y-118237000D01*
X70612000Y-26670000D02*
X70612000Y-27940000D01*
X53467000Y-82042000D02*
X53467000Y-83312000D01*
X72517000Y-102362000D02*
X71120000Y-102362000D01*
X105537000Y-43942000D02*
X106934000Y-43942000D01*
X70612000Y-48260000D02*
X70612000Y-59817000D01*
X89662000Y-80137000D02*
X89662000Y-81534000D01*
X72517000Y-45212000D02*
X71120000Y-45212000D01*
X124587000Y-62992000D02*
X125984000Y-62992000D01*
X126492000Y-83820000D02*
G75*
G03*
X125984000Y-83312000I-508001J-1D01*
G01*
X107442000Y-86360000D02*
X108712000Y-86360000D01*
X68834000Y-43942000D02*
G75*
G03*
X69342000Y-43434000I-1J508001D01*
G01*
X53467000Y-45212000D02*
X52070000Y-45212000D01*
X107442000Y-67310000D02*
X108712000Y-67310000D01*
X88392000Y-99187000D02*
X89662000Y-99187000D01*
X88392000Y-45720000D02*
G75*
G03*
X87884000Y-45212000I-508001J-1D01*
G01*
X109220000Y-26162000D02*
G75*
G03*
X108712000Y-26670000I1J-508001D01*
G01*
X73787000Y-64262000D02*
X73787000Y-62992000D01*
X127762000Y-80137000D02*
X127762000Y-81534000D01*
X69342000Y-100584000D02*
X69342000Y-99187000D01*
X73787000Y-43942000D02*
X85217000Y-43942000D01*
X89662000Y-102870000D02*
X89662000Y-104140000D01*
X88392000Y-43434000D02*
X88392000Y-42037000D01*
X126492000Y-81534000D02*
X126492000Y-80137000D01*
X92837000Y-83312000D02*
X92837000Y-82042000D01*
X70612000Y-100584000D02*
G75*
G03*
X71120000Y-101092000I508001J1D01*
G01*
X107442000Y-42037000D02*
X108712000Y-42037000D01*
X106934000Y-26162000D02*
X90170000Y-26162000D01*
X87884000Y-83312000D02*
X86487000Y-83312000D01*
X52070000Y-101092000D02*
X53467000Y-101092000D01*
X71120000Y-62992000D02*
X72517000Y-62992000D01*
X90170000Y-45212000D02*
G75*
G03*
X89662000Y-45720000I1J-508001D01*
G01*
X105537000Y-43942000D02*
X105537000Y-45212000D01*
X69342000Y-27940000D02*
X69342000Y-26670000D01*
X126492000Y-78867000D02*
X127762000Y-78867000D01*
X88392000Y-64770000D02*
G75*
G03*
X87884000Y-64262000I-508001J-1D01*
G01*
X69342000Y-42037000D02*
X70612000Y-42037000D01*
X130937000Y-83312000D02*
X130937000Y-82042000D01*
X86487000Y-43942000D02*
X87884000Y-43942000D01*
X67437000Y-62992000D02*
X68834000Y-62992000D01*
X145034000Y-120142000D02*
G75*
G03*
X145542000Y-119634000I-1J508001D01*
G01*
X127762000Y-67310000D02*
X127762000Y-78867000D01*
X143637000Y-101092000D02*
X143637000Y-102362000D01*
X70612000Y-62484000D02*
G75*
G03*
X71120000Y-62992000I508001J1D01*
G01*
X127762000Y-102870000D02*
X127762000Y-104140000D01*
X70612000Y-86360000D02*
X70612000Y-97917000D01*
X107442000Y-118237000D02*
X108712000Y-118237000D01*
X128270000Y-62992000D02*
X129667000Y-62992000D01*
X123317000Y-83312000D02*
X111887000Y-83312000D01*
X145034000Y-64262000D02*
X143637000Y-64262000D01*
X87884000Y-45212000D02*
X86487000Y-45212000D01*
X145542000Y-81534000D02*
X145542000Y-64770000D01*
X129667000Y-102362000D02*
X128270000Y-102362000D01*
X108712000Y-86360000D02*
X108712000Y-97917000D01*
X67437000Y-43942000D02*
X68834000Y-43942000D01*
X125984000Y-26162000D02*
X109220000Y-26162000D01*
X126492000Y-78867000D02*
X126492000Y-67310000D01*
X106934000Y-45212000D02*
X105537000Y-45212000D01*
X145034000Y-62992000D02*
G75*
G03*
X145542000Y-62484000I-1J508001D01*
G01*
X126492000Y-116967000D02*
X127762000Y-116967000D01*
X126492000Y-40767000D02*
X126492000Y-29210000D01*
X73787000Y-45212000D02*
X73787000Y-43942000D01*
X111887000Y-83312000D02*
X111887000Y-82042000D01*
X52070000Y-64262000D02*
G75*
G03*
X51562000Y-64770000I1J-508001D01*
G01*
X53467000Y-102362000D02*
X52070000Y-102362000D01*
X125984000Y-45212000D02*
X124587000Y-45212000D01*
X107442000Y-116967000D02*
X108712000Y-116967000D01*
X107442000Y-97917000D02*
X108712000Y-97917000D01*
X69342000Y-61087000D02*
X70612000Y-61087000D01*
X86487000Y-43942000D02*
X86487000Y-45212000D01*
X107442000Y-45720000D02*
G75*
G03*
X106934000Y-45212000I-508001J-1D01*
G01*
X106934000Y-82042000D02*
G75*
G03*
X107442000Y-81534000I-1J508001D01*
G01*
X68834000Y-64262000D02*
X67437000Y-64262000D01*
X87884000Y-62992000D02*
G75*
G03*
X88392000Y-62484000I-1J508001D01*
G01*
X69342000Y-80137000D02*
X70612000Y-80137000D01*
X69342000Y-40767000D02*
X70612000Y-40767000D01*
X89662000Y-45720000D02*
X89662000Y-46990000D01*
X142367000Y-102362000D02*
X130937000Y-102362000D01*
X88392000Y-116967000D02*
X89662000Y-116967000D01*
X53467000Y-101092000D02*
X53467000Y-102362000D01*
X126492000Y-40767000D02*
X127762000Y-40767000D01*
X88392000Y-104140000D02*
X89662000Y-104140000D01*
X69342000Y-78867000D02*
X69342000Y-67310000D01*
X70612000Y-102870000D02*
X70612000Y-104140000D01*
X73787000Y-62992000D02*
X85217000Y-62992000D01*
X51562000Y-43434000D02*
G75*
G03*
X52070000Y-43942000I508001J1D01*
G01*
X88392000Y-78867000D02*
X88392000Y-67310000D01*
X89662000Y-61087000D02*
X89662000Y-62484000D01*
X69342000Y-27940000D02*
X70612000Y-27940000D01*
X53467000Y-64262000D02*
X52070000Y-64262000D01*
X69342000Y-97917000D02*
X70612000Y-97917000D01*
X142367000Y-45212000D02*
X130937000Y-45212000D01*
X51562000Y-81534000D02*
G75*
G03*
X52070000Y-82042000I508001J1D01*
G01*
X91567000Y-43942000D02*
X91567000Y-45212000D01*
X129667000Y-64262000D02*
X128270000Y-64262000D01*
X88392000Y-29210000D02*
X89662000Y-29210000D01*
X129667000Y-43942000D02*
X129667000Y-45212000D01*
X104267000Y-83312000D02*
X104267000Y-82042000D01*
X106934000Y-102362000D02*
X105537000Y-102362000D01*
X73787000Y-102362000D02*
X73787000Y-101092000D01*
X126492000Y-62484000D02*
X126492000Y-61087000D01*
X87884000Y-64262000D02*
X86487000Y-64262000D01*
X109220000Y-102362000D02*
G75*
G03*
X108712000Y-102870000I1J-508001D01*
G01*
X123317000Y-45212000D02*
X111887000Y-45212000D01*
X92837000Y-62992000D02*
X104267000Y-62992000D01*
X70612000Y-29210000D02*
X70612000Y-40767000D01*
X127762000Y-99187000D02*
X127762000Y-100584000D01*
X66167000Y-83312000D02*
X66167000Y-82042000D01*
X90170000Y-62992000D02*
X91567000Y-62992000D01*
X130937000Y-102362000D02*
X130937000Y-101092000D01*
X70612000Y-81534000D02*
G75*
G03*
X71120000Y-82042000I508001J1D01*
G01*
X88392000Y-100584000D02*
X88392000Y-99187000D01*
X108712000Y-61087000D02*
X108712000Y-62484000D01*
X127762000Y-119634000D02*
G75*
G03*
X128270000Y-120142000I508001J1D01*
G01*
X128270000Y-83312000D02*
G75*
G03*
X127762000Y-83820000I1J-508001D01*
G01*
X88392000Y-27940000D02*
X88392000Y-26670000D01*
X90170000Y-101092000D02*
X91567000Y-101092000D01*
X88392000Y-66040000D02*
X88392000Y-64770000D01*
X129667000Y-101092000D02*
X129667000Y-102362000D01*
X106934000Y-64262000D02*
X105537000Y-64262000D01*
X127762000Y-48260000D02*
X127762000Y-59817000D01*
X111887000Y-101092000D02*
X123317000Y-101092000D01*
X107442000Y-81534000D02*
X107442000Y-80137000D01*
X89662000Y-64770000D02*
X89662000Y-66040000D01*
X145034000Y-26162000D02*
X128270000Y-26162000D01*
X71120000Y-101092000D02*
X72517000Y-101092000D01*
X66167000Y-45212000D02*
X66167000Y-43942000D01*
X52070000Y-82042000D02*
X53467000Y-82042000D01*
X69342000Y-81534000D02*
X69342000Y-80137000D01*
X88392000Y-97917000D02*
X88392000Y-86360000D01*
X85217000Y-83312000D02*
X85217000Y-82042000D01*
X52070000Y-83312000D02*
G75*
G03*
X51562000Y-83820000I1J-508001D01*
G01*
X126492000Y-64770000D02*
G75*
G03*
X125984000Y-64262000I-508001J-1D01*
G01*
X110617000Y-83312000D02*
X109220000Y-83312000D01*
X69342000Y-102870000D02*
G75*
G03*
X68834000Y-102362000I-508001J-1D01*
G01*
X145542000Y-64770000D02*
G75*
G03*
X145034000Y-64262000I-508001J-1D01*
G01*
X123317000Y-83312000D02*
X123317000Y-82042000D01*
X108712000Y-45720000D02*
X108712000Y-46990000D01*
X87884000Y-82042000D02*
G75*
G03*
X88392000Y-81534000I-1J508001D01*
G01*
X70612000Y-105410000D02*
X70612000Y-116967000D01*
X107442000Y-83820000D02*
G75*
G03*
X106934000Y-83312000I-508001J-1D01*
G01*
X128270000Y-120142000D02*
X145034000Y-120142000D01*
X110617000Y-82042000D02*
X110617000Y-83312000D01*
X72517000Y-82042000D02*
X72517000Y-83312000D01*
X71120000Y-43942000D02*
X72517000Y-43942000D01*
X108712000Y-43434000D02*
G75*
G03*
X109220000Y-43942000I508001J1D01*
G01*
X89662000Y-48260000D02*
X89662000Y-59817000D01*
X128270000Y-82042000D02*
X129667000Y-82042000D01*
X107442000Y-116967000D02*
X107442000Y-105410000D01*
X107442000Y-100584000D02*
X107442000Y-99187000D01*
X72517000Y-43942000D02*
X72517000Y-45212000D01*
X127762000Y-26670000D02*
X127762000Y-27940000D01*
X66167000Y-102362000D02*
X66167000Y-101092000D01*
X92837000Y-82042000D02*
X104267000Y-82042000D01*
X89662000Y-100584000D02*
G75*
G03*
X90170000Y-101092000I508001J1D01*
G01*
X109220000Y-64262000D02*
G75*
G03*
X108712000Y-64770000I1J-508001D01*
G01*
X110617000Y-45212000D02*
X109220000Y-45212000D01*
X88392000Y-46990000D02*
X89662000Y-46990000D01*
X88392000Y-59817000D02*
X89662000Y-59817000D01*
X126492000Y-46990000D02*
X127762000Y-46990000D01*
X85217000Y-45212000D02*
X85217000Y-43942000D01*
X88392000Y-40767000D02*
X88392000Y-29210000D01*
X126492000Y-46990000D02*
X126492000Y-45720000D01*
X108712000Y-62484000D02*
G75*
G03*
X109220000Y-62992000I508001J1D01*
G01*
X91567000Y-83312000D02*
X90170000Y-83312000D01*
X104267000Y-102362000D02*
X104267000Y-101092000D01*
X52070000Y-45212000D02*
G75*
G03*
X51562000Y-45720000I1J-508001D01*
G01*
X54737000Y-101092000D02*
X66167000Y-101092000D01*
X88392000Y-80137000D02*
X89662000Y-80137000D01*
X107442000Y-40767000D02*
X107442000Y-29210000D01*
X104267000Y-64262000D02*
X104267000Y-62992000D01*
X107442000Y-97917000D02*
X107442000Y-86360000D01*
X126492000Y-85090000D02*
X126492000Y-83820000D01*
X143637000Y-101092000D02*
X145034000Y-101092000D01*
X127762000Y-105410000D02*
X127762000Y-116967000D01*
X104267000Y-45212000D02*
X104267000Y-43942000D01*
X52070000Y-43942000D02*
X53467000Y-43942000D01*
X126492000Y-59817000D02*
X126492000Y-48260000D01*
X67437000Y-101092000D02*
X67437000Y-102362000D01*
X69342000Y-62484000D02*
X69342000Y-61087000D01*
X69342000Y-26670000D02*
G75*
G03*
X68834000Y-26162000I-508001J-1D01*
G01*
X88392000Y-78867000D02*
X89662000Y-78867000D01*
X51562000Y-102870000D02*
X51562000Y-119634000D01*
X126492000Y-66040000D02*
X126492000Y-64770000D01*
X88392000Y-105410000D02*
X89662000Y-105410000D01*
X123317000Y-102362000D02*
X123317000Y-101092000D01*
X70612000Y-118237000D02*
X70612000Y-119634000D01*
X91567000Y-64262000D02*
X90170000Y-64262000D01*
X111887000Y-102362000D02*
X111887000Y-101092000D01*
X108712000Y-83820000D02*
X108712000Y-85090000D01*
X106934000Y-101092000D02*
G75*
G03*
X107442000Y-100584000I-1J508001D01*
G01*
X127762000Y-43434000D02*
G75*
G03*
X128270000Y-43942000I508001J1D01*
G01*
X88392000Y-119634000D02*
X88392000Y-118237000D01*
X90170000Y-26162000D02*
G75*
G03*
X89662000Y-26670000I1J-508001D01*
G01*
X126492000Y-27940000D02*
X126492000Y-26670000D01*
X51562000Y-83820000D02*
X51562000Y-100584000D01*
X105537000Y-62992000D02*
X105537000Y-64262000D01*
X105537000Y-82042000D02*
X105537000Y-83312000D01*
X127762000Y-83820000D02*
X127762000Y-85090000D01*
X145542000Y-26670000D02*
G75*
G03*
X145034000Y-26162000I-508001J-1D01*
G01*
X128270000Y-43942000D02*
X129667000Y-43942000D01*
X123317000Y-64262000D02*
X123317000Y-62992000D01*
X107442000Y-61087000D02*
X108712000Y-61087000D01*
X88392000Y-67310000D02*
X89662000Y-67310000D01*
X126492000Y-99187000D02*
X127762000Y-99187000D01*
X127762000Y-86360000D02*
X127762000Y-97917000D01*
X129667000Y-45212000D02*
X128270000Y-45212000D01*
X71120000Y-45212000D02*
G75*
G03*
X70612000Y-45720000I1J-508001D01*
G01*
X85217000Y-102362000D02*
X85217000Y-101092000D01*
X109220000Y-120142000D02*
X125984000Y-120142000D01*
X125984000Y-102362000D02*
X124587000Y-102362000D01*
X111887000Y-64262000D02*
X111887000Y-62992000D01*
X53467000Y-83312000D02*
X52070000Y-83312000D01*
X88392000Y-86360000D02*
X89662000Y-86360000D01*
X127762000Y-42037000D02*
X127762000Y-43434000D01*
X85217000Y-102362000D02*
X73787000Y-102362000D01*
X129667000Y-82042000D02*
X129667000Y-83312000D01*
X125984000Y-120142000D02*
G75*
G03*
X126492000Y-119634000I-1J508001D01*
G01*
X87884000Y-102362000D02*
X86487000Y-102362000D01*
X89662000Y-42037000D02*
X89662000Y-43434000D01*
X70612000Y-80137000D02*
X70612000Y-81534000D01*
X69342000Y-105410000D02*
X70612000Y-105410000D01*
X86487000Y-101092000D02*
X87884000Y-101092000D01*
X69342000Y-85090000D02*
X69342000Y-83820000D01*
X109220000Y-83312000D02*
G75*
G03*
X108712000Y-83820000I1J-508001D01*
G01*
X107442000Y-59817000D02*
X108712000Y-59817000D01*
X89662000Y-86360000D02*
X89662000Y-97917000D01*
X130937000Y-43942000D02*
X142367000Y-43942000D01*
X106934000Y-43942000D02*
G75*
G03*
X107442000Y-43434000I-1J508001D01*
G01*
X110617000Y-102362000D02*
X109220000Y-102362000D01*
X104267000Y-45212000D02*
X92837000Y-45212000D01*
X71120000Y-82042000D02*
X72517000Y-82042000D01*
X89662000Y-118237000D02*
X89662000Y-119634000D01*
X71120000Y-64262000D02*
G75*
G03*
X70612000Y-64770000I1J-508001D01*
G01*
X67437000Y-82042000D02*
X67437000Y-83312000D01*
X85217000Y-64262000D02*
X85217000Y-62992000D01*
X53467000Y-62992000D02*
X53467000Y-64262000D01*
X127762000Y-64770000D02*
X127762000Y-66040000D01*
X73787000Y-101092000D02*
X85217000Y-101092000D01*
X88392000Y-48260000D02*
X89662000Y-48260000D01*
X87884000Y-26162000D02*
X71120000Y-26162000D01*
X126492000Y-100584000D02*
X126492000Y-99187000D01*
X127762000Y-62484000D02*
G75*
G03*
X128270000Y-62992000I508001J1D01*
G01*
X126492000Y-61087000D02*
X127762000Y-61087000D01*
X145542000Y-119634000D02*
X145542000Y-102870000D01*
X124587000Y-101092000D02*
X124587000Y-102362000D01*
X145542000Y-100584000D02*
X145542000Y-83820000D01*
X51562000Y-100584000D02*
G75*
G03*
X52070000Y-101092000I508001J1D01*
G01*
X143637000Y-43942000D02*
X145034000Y-43942000D01*
X70612000Y-99187000D02*
X70612000Y-100584000D01*
X67437000Y-43942000D02*
X67437000Y-45212000D01*
X107442000Y-80137000D02*
X108712000Y-80137000D01*
X89662000Y-43434000D02*
G75*
G03*
X90170000Y-43942000I508001J1D01*
G01*
X69342000Y-83820000D02*
G75*
G03*
X68834000Y-83312000I-508001J-1D01*
G01*
X92837000Y-45212000D02*
X92837000Y-43942000D01*
X142367000Y-83312000D02*
X130937000Y-83312000D01*
X104267000Y-64262000D02*
X92837000Y-64262000D01*
X107442000Y-40767000D02*
X108712000Y-40767000D01*
X69342000Y-104140000D02*
X69342000Y-102870000D01*
X145034000Y-43942000D02*
G75*
G03*
X145542000Y-43434000I-1J508001D01*
G01*
X124587000Y-101092000D02*
X125984000Y-101092000D01*
X52070000Y-26162000D02*
G75*
G03*
X51562000Y-26670000I1J-508001D01*
G01*
X126492000Y-59817000D02*
X127762000Y-59817000D01*
X52070000Y-62992000D02*
X53467000Y-62992000D01*
X88392000Y-104140000D02*
X88392000Y-102870000D01*
X142367000Y-83312000D02*
X142367000Y-82042000D01*
X130937000Y-101092000D02*
X142367000Y-101092000D01*
X90170000Y-120142000D02*
X106934000Y-120142000D01*
X107442000Y-46990000D02*
X108712000Y-46990000D01*
X69342000Y-118237000D02*
X70612000Y-118237000D01*
X86487000Y-82042000D02*
X87884000Y-82042000D01*
X130937000Y-62992000D02*
X142367000Y-62992000D01*
X106934000Y-62992000D02*
G75*
G03*
X107442000Y-62484000I-1J508001D01*
G01*
X69342000Y-99187000D02*
X70612000Y-99187000D01*
X88392000Y-27940000D02*
X89662000Y-27940000D01*
X52070000Y-120142000D02*
X68834000Y-120142000D01*
X90170000Y-64262000D02*
G75*
G03*
X89662000Y-64770000I1J-508001D01*
G01*
X123317000Y-64262000D02*
X111887000Y-64262000D01*
X67437000Y-62992000D02*
X67437000Y-64262000D01*
X72517000Y-62992000D02*
X72517000Y-64262000D01*
X108712000Y-119634000D02*
G75*
G03*
X109220000Y-120142000I508001J1D01*
G01*
X142367000Y-45212000D02*
X142367000Y-43942000D01*
X66167000Y-64262000D02*
X66167000Y-62992000D01*
X91567000Y-45212000D02*
X90170000Y-45212000D01*
X109220000Y-101092000D02*
X110617000Y-101092000D01*
X123317000Y-45212000D02*
X123317000Y-43942000D01*
X91567000Y-102362000D02*
X90170000Y-102362000D01*
X111887000Y-43942000D02*
X123317000Y-43942000D01*
X69342000Y-116967000D02*
X69342000Y-105410000D01*
X88392000Y-85090000D02*
X88392000Y-83820000D01*
X73787000Y-83312000D02*
X73787000Y-82042000D01*
X54737000Y-43942000D02*
X66167000Y-43942000D01*
X107442000Y-27940000D02*
X108712000Y-27940000D01*
X72517000Y-64262000D02*
X71120000Y-64262000D01*
X108712000Y-42037000D02*
X108712000Y-43434000D01*
X105537000Y-101092000D02*
X105537000Y-102362000D01*
X125984000Y-101092000D02*
G75*
G03*
X126492000Y-100584000I-1J508001D01*
G01*
X105537000Y-62992000D02*
X106934000Y-62992000D01*
X145542000Y-43434000D02*
X145542000Y-26670000D01*
X88392000Y-62484000D02*
X88392000Y-61087000D01*
X69342000Y-46990000D02*
X70612000Y-46990000D01*
X68834000Y-120142000D02*
G75*
G03*
X69342000Y-119634000I-1J508001D01*
G01*
X107442000Y-59817000D02*
X107442000Y-48260000D01*
X107442000Y-85090000D02*
X107442000Y-83820000D01*
X85217000Y-83312000D02*
X73787000Y-83312000D01*
X109220000Y-62992000D02*
X110617000Y-62992000D01*
X143637000Y-82042000D02*
X145034000Y-82042000D01*
X143637000Y-62992000D02*
X145034000Y-62992000D01*
X69342000Y-29210000D02*
X70612000Y-29210000D01*
X87884000Y-101092000D02*
G75*
G03*
X88392000Y-100584000I-1J508001D01*
G01*
X108712000Y-64770000D02*
X108712000Y-66040000D01*
X128270000Y-102362000D02*
G75*
G03*
X127762000Y-102870000I1J-508001D01*
G01*
X88392000Y-97917000D02*
X89662000Y-97917000D01*
X127762000Y-61087000D02*
X127762000Y-62484000D01*
X69342000Y-97917000D02*
X69342000Y-86360000D01*
X128270000Y-101092000D02*
X129667000Y-101092000D01*
X69342000Y-64770000D02*
G75*
G03*
X68834000Y-64262000I-508001J-1D01*
G01*
X85217000Y-45212000D02*
X73787000Y-45212000D01*
X124587000Y-82042000D02*
X124587000Y-83312000D01*
X69342000Y-116967000D02*
X70612000Y-116967000D01*
X89662000Y-81534000D02*
G75*
G03*
X90170000Y-82042000I508001J1D01*
G01*
X127762000Y-29210000D02*
X127762000Y-40767000D01*
X66167000Y-102362000D02*
X54737000Y-102362000D01*
D11*
%TO.C,L1*%
X81202000Y-28853000D02*
X81202000Y-31853000D01*
X77802000Y-28853000D02*
X81202000Y-28853000D01*
X81202000Y-31853000D02*
X77802000Y-31853000D01*
X77802000Y-31853000D02*
X77802000Y-28853000D01*
X100252000Y-108053000D02*
X96852000Y-108053000D01*
X96852000Y-105053000D02*
X100252000Y-105053000D01*
X96852000Y-108053000D02*
X96852000Y-105053000D01*
X100252000Y-105053000D02*
X100252000Y-108053000D01*
X62152000Y-69953000D02*
X58752000Y-69953000D01*
X58752000Y-66953000D02*
X62152000Y-66953000D01*
X58752000Y-69953000D02*
X58752000Y-66953000D01*
X62152000Y-66953000D02*
X62152000Y-69953000D01*
X115902000Y-50903000D02*
X115902000Y-47903000D01*
X119302000Y-50903000D02*
X115902000Y-50903000D01*
X115902000Y-47903000D02*
X119302000Y-47903000D01*
X119302000Y-47903000D02*
X119302000Y-50903000D01*
X115902000Y-31853000D02*
X115902000Y-28853000D01*
X115902000Y-28853000D02*
X119302000Y-28853000D01*
X119302000Y-31853000D02*
X115902000Y-31853000D01*
X119302000Y-28853000D02*
X119302000Y-31853000D01*
X100252000Y-31853000D02*
X96852000Y-31853000D01*
X96852000Y-31853000D02*
X96852000Y-28853000D01*
X96852000Y-28853000D02*
X100252000Y-28853000D01*
X100252000Y-28853000D02*
X100252000Y-31853000D01*
X58752000Y-108053000D02*
X58752000Y-105053000D01*
X62152000Y-108053000D02*
X58752000Y-108053000D01*
X62152000Y-105053000D02*
X62152000Y-108053000D01*
X58752000Y-105053000D02*
X62152000Y-105053000D01*
X58752000Y-50903000D02*
X58752000Y-47903000D01*
X62152000Y-50903000D02*
X58752000Y-50903000D01*
X58752000Y-47903000D02*
X62152000Y-47903000D01*
X62152000Y-47903000D02*
X62152000Y-50903000D01*
X119302000Y-89003000D02*
X115902000Y-89003000D01*
X119302000Y-86003000D02*
X119302000Y-89003000D01*
X115902000Y-86003000D02*
X119302000Y-86003000D01*
X115902000Y-89003000D02*
X115902000Y-86003000D01*
X138352000Y-66953000D02*
X138352000Y-69953000D01*
X134952000Y-69953000D02*
X134952000Y-66953000D01*
X134952000Y-66953000D02*
X138352000Y-66953000D01*
X138352000Y-69953000D02*
X134952000Y-69953000D01*
X77802000Y-89003000D02*
X77802000Y-86003000D01*
X77802000Y-86003000D02*
X81202000Y-86003000D01*
X81202000Y-86003000D02*
X81202000Y-89003000D01*
X81202000Y-89003000D02*
X77802000Y-89003000D01*
X138352000Y-50903000D02*
X134952000Y-50903000D01*
X138352000Y-47903000D02*
X138352000Y-50903000D01*
X134952000Y-47903000D02*
X138352000Y-47903000D01*
X134952000Y-50903000D02*
X134952000Y-47903000D01*
X77802000Y-108053000D02*
X77802000Y-105053000D01*
X81202000Y-108053000D02*
X77802000Y-108053000D01*
X77802000Y-105053000D02*
X81202000Y-105053000D01*
X81202000Y-105053000D02*
X81202000Y-108053000D01*
X96852000Y-89003000D02*
X96852000Y-86003000D01*
X100252000Y-89003000D02*
X96852000Y-89003000D01*
X100252000Y-86003000D02*
X100252000Y-89003000D01*
X96852000Y-86003000D02*
X100252000Y-86003000D01*
X77802000Y-50903000D02*
X77802000Y-47903000D01*
X81202000Y-50903000D02*
X77802000Y-50903000D01*
X81202000Y-47903000D02*
X81202000Y-50903000D01*
X77802000Y-47903000D02*
X81202000Y-47903000D01*
X62152000Y-86003000D02*
X62152000Y-89003000D01*
X62152000Y-89003000D02*
X58752000Y-89003000D01*
X58752000Y-89003000D02*
X58752000Y-86003000D01*
X58752000Y-86003000D02*
X62152000Y-86003000D01*
X77802000Y-66953000D02*
X81202000Y-66953000D01*
X81202000Y-69953000D02*
X77802000Y-69953000D01*
X81202000Y-66953000D02*
X81202000Y-69953000D01*
X77802000Y-69953000D02*
X77802000Y-66953000D01*
X96852000Y-47903000D02*
X100252000Y-47903000D01*
X96852000Y-50903000D02*
X96852000Y-47903000D01*
X100252000Y-47903000D02*
X100252000Y-50903000D01*
X100252000Y-50903000D02*
X96852000Y-50903000D01*
X134952000Y-89003000D02*
X134952000Y-86003000D01*
X138352000Y-86003000D02*
X138352000Y-89003000D01*
X134952000Y-86003000D02*
X138352000Y-86003000D01*
X138352000Y-89003000D02*
X134952000Y-89003000D01*
X119302000Y-66953000D02*
X119302000Y-69953000D01*
X115902000Y-69953000D02*
X115902000Y-66953000D01*
X115902000Y-66953000D02*
X119302000Y-66953000D01*
X119302000Y-69953000D02*
X115902000Y-69953000D01*
X96852000Y-69953000D02*
X96852000Y-66953000D01*
X100252000Y-69953000D02*
X96852000Y-69953000D01*
X100252000Y-66953000D02*
X100252000Y-69953000D01*
X96852000Y-66953000D02*
X100252000Y-66953000D01*
X138352000Y-108053000D02*
X134952000Y-108053000D01*
X138352000Y-105053000D02*
X138352000Y-108053000D01*
X134952000Y-108053000D02*
X134952000Y-105053000D01*
X134952000Y-105053000D02*
X138352000Y-105053000D01*
X115902000Y-108053000D02*
X115902000Y-105053000D01*
X115902000Y-105053000D02*
X119302000Y-105053000D01*
X119302000Y-108053000D02*
X115902000Y-108053000D01*
X119302000Y-105053000D02*
X119302000Y-108053000D01*
X134952000Y-31853000D02*
X134952000Y-28853000D01*
X138352000Y-28853000D02*
X138352000Y-31853000D01*
X134952000Y-28853000D02*
X138352000Y-28853000D01*
X138352000Y-31853000D02*
X134952000Y-31853000D01*
X62152000Y-28853000D02*
X62152000Y-31853000D01*
X62152000Y-31853000D02*
X58752000Y-31853000D01*
X58752000Y-31853000D02*
X58752000Y-28853000D01*
X58752000Y-28853000D02*
X62152000Y-28853000D01*
%TD*%
M02*
