%FSLAX45Y45*%
G04 Gerber Fmt 4.5, Leading zero omitted, Abs format (unit mm)*
G04 Created by KiCad (PCBNEW (6.0.0-0)) date 2022-01-08 22:40:47*
%MOMM*%
%LPD*%
G01*
G04 APERTURE LIST*
%TA.AperFunction,Profile*%
%ADD10C,0.100000*%
%TD*%
%ADD11C,0.200000*%
%ADD12C,0.040000*%
%ADD13C,0.080000*%
G04 APERTURE END LIST*
D10*
X4203700Y-8810625D02*
X4203700Y-10271125D01*
X5905500Y-12252325D02*
G75*
G03*
X5981700Y-12176125I3336J72864D01*
G01*
X10160000Y-6537325D02*
X9994900Y-6537325D01*
X6502400Y-8569325D02*
X7493000Y-8569325D01*
X4203700Y-4137025D02*
X4203700Y-3984625D01*
X11303000Y-8442325D02*
X10312400Y-8442325D01*
X8013700Y-4137025D02*
X8013700Y-4556125D01*
X12217400Y-6664325D02*
X13208000Y-6664325D01*
X5981700Y-8645525D02*
X5981700Y-8810625D01*
X4203700Y-4137025D02*
X4203700Y-4556125D01*
X4597400Y-4759325D02*
X5588000Y-4759325D01*
X8013700Y-7058025D02*
X7886700Y-7058025D01*
X9715500Y-10347325D02*
X9550400Y-10347325D01*
X6108700Y-11757025D02*
X6108700Y-12176125D01*
X4203700Y-6905625D02*
X4203700Y-8366125D01*
X6108700Y-6042025D02*
X6108700Y-6461125D01*
X4445000Y-8442325D02*
X4279900Y-8442325D01*
X9398000Y-8442325D02*
X8407400Y-8442325D01*
X13525500Y-6537325D02*
G75*
G03*
X13601700Y-6461125I3336J72864D01*
G01*
X11823700Y-5153025D02*
X11823700Y-5889625D01*
X13601700Y-2930525D02*
X13601700Y-4556125D01*
X11620500Y-4632325D02*
X11455400Y-4632325D01*
X7493000Y-6537325D02*
X6502400Y-6537325D01*
X9715500Y-10347325D02*
G75*
G03*
X9791700Y-10271125I3336J72864D01*
G01*
X9791700Y-11757025D02*
X9791700Y-12176125D01*
X8089900Y-8569325D02*
X8255000Y-8569325D01*
X11620500Y-4632325D02*
G75*
G03*
X11696700Y-4556125I3336J72864D01*
G01*
X11823700Y-4835525D02*
X11823700Y-5000625D01*
X9918700Y-6461125D02*
G75*
G03*
X9994900Y-6537325I72864J-3336D01*
G01*
X6108700Y-11757025D02*
X5981700Y-11757025D01*
X11823700Y-12176125D02*
G75*
G03*
X11899900Y-12252325I72864J-3336D01*
G01*
X6108700Y-8366125D02*
G75*
G03*
X6184900Y-8442325I72864J-3336D01*
G01*
X11823700Y-11757025D02*
X11823700Y-12176125D01*
X9918700Y-3248025D02*
X9918700Y-3984625D01*
X7886700Y-6740525D02*
X7886700Y-6905625D01*
X13525500Y-8442325D02*
X13360400Y-8442325D01*
X5981700Y-2930525D02*
G75*
G03*
X5905500Y-2854325I-72864J3336D01*
G01*
X11899900Y-4759325D02*
G75*
G03*
X11823700Y-4835525I-3336J-72864D01*
G01*
X9791700Y-5153025D02*
X9791700Y-5889625D01*
X11823700Y-8963025D02*
X11823700Y-9699625D01*
X13525500Y-10347325D02*
X13360400Y-10347325D01*
X9791700Y-7947025D02*
X9791700Y-8366125D01*
X9550400Y-4759325D02*
X9715500Y-4759325D01*
X9791700Y-2930525D02*
X9791700Y-3095625D01*
X11620500Y-12252325D02*
X9994900Y-12252325D01*
X6184900Y-8569325D02*
G75*
G03*
X6108700Y-8645525I-3336J-72864D01*
G01*
X11696700Y-7947025D02*
X11696700Y-8366125D01*
X5981700Y-9852025D02*
X5981700Y-10271125D01*
X10160000Y-4632325D02*
X9994900Y-4632325D01*
X6350000Y-4759325D02*
X6350000Y-4632325D01*
X4597400Y-6664325D02*
X5588000Y-6664325D01*
X8255000Y-6537325D02*
X8089900Y-6537325D01*
X9398000Y-6537325D02*
X8407400Y-6537325D01*
X5981700Y-8645525D02*
G75*
G03*
X5905500Y-8569325I-72864J3336D01*
G01*
X8013700Y-9699625D02*
X7886700Y-9699625D01*
X11620500Y-8442325D02*
X11455400Y-8442325D01*
X5740400Y-10474325D02*
X5905500Y-10474325D01*
X12065000Y-4632325D02*
X11899900Y-4632325D01*
X11823700Y-7058025D02*
X11823700Y-7794625D01*
X6108700Y-4556125D02*
G75*
G03*
X6184900Y-4632325I72864J-3336D01*
G01*
X12217400Y-8569325D02*
X13208000Y-8569325D01*
X6108700Y-12176125D02*
G75*
G03*
X6184900Y-12252325I72864J-3336D01*
G01*
X8255000Y-4632325D02*
X8089900Y-4632325D01*
X6108700Y-4137025D02*
X6108700Y-4556125D01*
X7493000Y-10347325D02*
X6502400Y-10347325D01*
X9791700Y-4835525D02*
G75*
G03*
X9715500Y-4759325I-72864J3336D01*
G01*
X11696700Y-8963025D02*
X11696700Y-9699625D01*
X9918700Y-5153025D02*
X9791700Y-5153025D01*
X6108700Y-2930525D02*
X6108700Y-3095625D01*
X4597400Y-10474325D02*
X5588000Y-10474325D01*
X11696700Y-10868025D02*
X11696700Y-11604625D01*
X6184900Y-10474325D02*
X6350000Y-10474325D01*
X8255000Y-10347325D02*
X8089900Y-10347325D01*
X4279900Y-8569325D02*
X4445000Y-8569325D01*
X9791700Y-2930525D02*
G75*
G03*
X9715500Y-2854325I-72864J3336D01*
G01*
X7886700Y-4137025D02*
X7886700Y-4556125D01*
X12065000Y-6537325D02*
X11899900Y-6537325D01*
X5740400Y-10474325D02*
X5740400Y-10347325D01*
X13601700Y-2930525D02*
G75*
G03*
X13525500Y-2854325I-72864J3336D01*
G01*
X9994900Y-6664325D02*
G75*
G03*
X9918700Y-6740525I-3336J-72864D01*
G01*
X8255000Y-10474325D02*
X8255000Y-10347325D01*
X5905500Y-10347325D02*
G75*
G03*
X5981700Y-10271125I3336J72864D01*
G01*
X9918700Y-9852025D02*
X9791700Y-9852025D01*
X5740400Y-6664325D02*
X5740400Y-6537325D01*
X6350000Y-8569325D02*
X6350000Y-8442325D01*
X13360400Y-6664325D02*
X13360400Y-6537325D01*
X6350000Y-10347325D02*
X6184900Y-10347325D01*
X9715500Y-8442325D02*
G75*
G03*
X9791700Y-8366125I3336J72864D01*
G01*
X7886700Y-10550525D02*
G75*
G03*
X7810500Y-10474325I-72864J3336D01*
G01*
X6108700Y-10868025D02*
X6108700Y-11604625D01*
X6184900Y-4759325D02*
G75*
G03*
X6108700Y-4835525I-3336J-72864D01*
G01*
X7493000Y-8442325D02*
X6502400Y-8442325D01*
X11899900Y-2854325D02*
X13525500Y-2854325D01*
X4203700Y-10715625D02*
X4203700Y-12176125D01*
X6350000Y-10474325D02*
X6350000Y-10347325D01*
X9918700Y-10550525D02*
X9918700Y-10715625D01*
X9550400Y-6664325D02*
X9715500Y-6664325D01*
X6108700Y-3248025D02*
X5981700Y-3248025D01*
X4203700Y-3095625D02*
X4203700Y-3248025D01*
X5905500Y-10347325D02*
X5740400Y-10347325D01*
X11899900Y-10474325D02*
G75*
G03*
X11823700Y-10550525I-3336J-72864D01*
G01*
X5981700Y-7058025D02*
X5981700Y-7794625D01*
X6108700Y-3095625D02*
X5981700Y-3095625D01*
X4203700Y-5000625D02*
X4203700Y-6461125D01*
X11620500Y-10347325D02*
G75*
G03*
X11696700Y-10271125I3336J72864D01*
G01*
X5588000Y-8442325D02*
X4597400Y-8442325D01*
X11620500Y-12252325D02*
G75*
G03*
X11696700Y-12176125I3336J72864D01*
G01*
X9918700Y-8963025D02*
X9918700Y-9699625D01*
X6108700Y-11604625D02*
X5981700Y-11604625D01*
X9791700Y-9852025D02*
X9791700Y-10271125D01*
X12217400Y-4759325D02*
X13208000Y-4759325D01*
X13360400Y-6664325D02*
X13525500Y-6664325D01*
X4279900Y-4759325D02*
X4445000Y-4759325D01*
X11696700Y-11757025D02*
X11696700Y-12176125D01*
X8013700Y-12176125D02*
G75*
G03*
X8089900Y-12252325I72864J-3336D01*
G01*
X5981700Y-7947025D02*
X5981700Y-8366125D01*
X4279900Y-6664325D02*
X4445000Y-6664325D01*
X10312400Y-8569325D02*
X11303000Y-8569325D01*
X7886700Y-2930525D02*
G75*
G03*
X7810500Y-2854325I-72864J3336D01*
G01*
X7886700Y-10868025D02*
X7886700Y-11604625D01*
X11455400Y-10474325D02*
X11455400Y-10347325D01*
X5905500Y-6537325D02*
X5740400Y-6537325D01*
X4279900Y-2854325D02*
G75*
G03*
X4203700Y-2930525I-3336J-72864D01*
G01*
X9994900Y-2854325D02*
X11620500Y-2854325D01*
X11696700Y-6740525D02*
X11696700Y-6905625D01*
X9398000Y-4759325D02*
X9398000Y-4632325D01*
X11823700Y-5000625D02*
X11696700Y-5000625D01*
X11823700Y-8366125D02*
G75*
G03*
X11899900Y-8442325I72864J-3336D01*
G01*
X7886700Y-11757025D02*
X7886700Y-12176125D01*
X9398000Y-8569325D02*
X9398000Y-8442325D01*
X11303000Y-4632325D02*
X10312400Y-4632325D01*
X11696700Y-4137025D02*
X11696700Y-4556125D01*
X8407400Y-4759325D02*
X9398000Y-4759325D01*
X5740400Y-8569325D02*
X5905500Y-8569325D01*
X8013700Y-8366125D02*
G75*
G03*
X8089900Y-8442325I72864J-3336D01*
G01*
X13601700Y-6740525D02*
G75*
G03*
X13525500Y-6664325I-72864J3336D01*
G01*
X10312400Y-6664325D02*
X11303000Y-6664325D01*
X4203700Y-10271125D02*
G75*
G03*
X4279900Y-10347325I72864J-3336D01*
G01*
X4445000Y-4632325D02*
X4279900Y-4632325D01*
X13208000Y-4632325D02*
X12217400Y-4632325D01*
X5981700Y-6740525D02*
G75*
G03*
X5905500Y-6664325I-72864J3336D01*
G01*
X13525500Y-10347325D02*
G75*
G03*
X13601700Y-10271125I3336J72864D01*
G01*
X8255000Y-8569325D02*
X8255000Y-8442325D01*
X13360400Y-4759325D02*
X13360400Y-4632325D01*
X5905500Y-4632325D02*
X5740400Y-4632325D01*
X6184900Y-2854325D02*
X7810500Y-2854325D01*
X9918700Y-7947025D02*
X9791700Y-7947025D01*
X8089900Y-4759325D02*
X8255000Y-4759325D01*
X10160000Y-10347325D02*
X9994900Y-10347325D01*
X9398000Y-4632325D02*
X8407400Y-4632325D01*
X11696700Y-2930525D02*
G75*
G03*
X11620500Y-2854325I-72864J3336D01*
G01*
X6350000Y-4632325D02*
X6184900Y-4632325D01*
X13601700Y-10550525D02*
G75*
G03*
X13525500Y-10474325I-72864J3336D01*
G01*
X9791700Y-4137025D02*
X9791700Y-4556125D01*
X10312400Y-10474325D02*
X11303000Y-10474325D01*
X13601700Y-4835525D02*
G75*
G03*
X13525500Y-4759325I-72864J3336D01*
G01*
X12065000Y-4759325D02*
X12065000Y-4632325D01*
X11696700Y-5153025D02*
X11696700Y-5889625D01*
X4203700Y-6461125D02*
G75*
G03*
X4279900Y-6537325I72864J-3336D01*
G01*
X8089900Y-6664325D02*
X8255000Y-6664325D01*
X11823700Y-10550525D02*
X11823700Y-10715625D01*
X6108700Y-5000625D02*
X5981700Y-5000625D01*
X11696700Y-9852025D02*
X11696700Y-10271125D01*
X8013700Y-8645525D02*
X8013700Y-8810625D01*
X11823700Y-9699625D02*
X11696700Y-9699625D01*
X9791700Y-6042025D02*
X9791700Y-6461125D01*
X11899900Y-10474325D02*
X12065000Y-10474325D01*
X9918700Y-10715625D02*
X9791700Y-10715625D01*
X11696700Y-4835525D02*
G75*
G03*
X11620500Y-4759325I-72864J3336D01*
G01*
X9791700Y-10550525D02*
G75*
G03*
X9715500Y-10474325I-72864J3336D01*
G01*
X4203700Y-2930525D02*
X4203700Y-3095625D01*
X10160000Y-10474325D02*
X10160000Y-10347325D01*
X11303000Y-10347325D02*
X10312400Y-10347325D01*
X9994900Y-8569325D02*
X10160000Y-8569325D01*
X8255000Y-8442325D02*
X8089900Y-8442325D01*
X13525500Y-4632325D02*
X13360400Y-4632325D01*
X9918700Y-5000625D02*
X9791700Y-5000625D01*
X4203700Y-8366125D02*
G75*
G03*
X4279900Y-8442325I72864J-3336D01*
G01*
X7886700Y-9852025D02*
X7886700Y-10271125D01*
X5981700Y-2930525D02*
X5981700Y-3095625D01*
X13525500Y-6537325D02*
X13360400Y-6537325D01*
X6108700Y-9699625D02*
X5981700Y-9699625D01*
X5905500Y-12252325D02*
X4279900Y-12252325D01*
X9791700Y-8645525D02*
X9791700Y-8810625D01*
X6108700Y-8810625D02*
X5981700Y-8810625D01*
X7810500Y-8442325D02*
G75*
G03*
X7886700Y-8366125I3336J72864D01*
G01*
X8089900Y-2854325D02*
G75*
G03*
X8013700Y-2930525I-3336J-72864D01*
G01*
X4597400Y-6664325D02*
X4597400Y-6537325D01*
X11823700Y-6042025D02*
X11823700Y-6461125D01*
X4445000Y-6537325D02*
X4279900Y-6537325D01*
X7645400Y-6664325D02*
X7810500Y-6664325D01*
X8013700Y-10868025D02*
X8013700Y-11604625D01*
X5740400Y-4759325D02*
X5740400Y-4632325D01*
X11303000Y-6664325D02*
X11303000Y-6537325D01*
X6502400Y-10474325D02*
X7493000Y-10474325D01*
X8013700Y-11604625D02*
X7886700Y-11604625D01*
X9715500Y-6537325D02*
X9550400Y-6537325D01*
X6184900Y-2854325D02*
G75*
G03*
X6108700Y-2930525I-3336J-72864D01*
G01*
X4445000Y-10474325D02*
X4445000Y-10347325D01*
X8089900Y-10474325D02*
G75*
G03*
X8013700Y-10550525I-3336J-72864D01*
G01*
X6350000Y-6537325D02*
X6184900Y-6537325D01*
X8013700Y-5153025D02*
X8013700Y-5889625D01*
X6108700Y-10715625D02*
X5981700Y-10715625D01*
X4203700Y-4556125D02*
G75*
G03*
X4279900Y-4632325I72864J-3336D01*
G01*
X11620500Y-6537325D02*
X11455400Y-6537325D01*
X6108700Y-4137025D02*
X5981700Y-4137025D01*
X9918700Y-6740525D02*
X9918700Y-6905625D01*
X11823700Y-10271125D02*
G75*
G03*
X11899900Y-10347325I72864J-3336D01*
G01*
X13208000Y-8442325D02*
X12217400Y-8442325D01*
X13360400Y-8569325D02*
X13360400Y-8442325D01*
X4203700Y-8645525D02*
X4203700Y-8810625D01*
X8089900Y-2854325D02*
X9715500Y-2854325D01*
X7810500Y-6537325D02*
G75*
G03*
X7886700Y-6461125I3336J72864D01*
G01*
X6108700Y-5889625D02*
X5981700Y-5889625D01*
X5981700Y-10550525D02*
G75*
G03*
X5905500Y-10474325I-72864J3336D01*
G01*
X11696700Y-10550525D02*
G75*
G03*
X11620500Y-10474325I-72864J3336D01*
G01*
X6108700Y-6740525D02*
X6108700Y-6905625D01*
X8255000Y-6664325D02*
X8255000Y-6537325D01*
X7886700Y-4835525D02*
X7886700Y-5000625D01*
X6108700Y-6461125D02*
G75*
G03*
X6184900Y-6537325I72864J-3336D01*
G01*
X4597400Y-8569325D02*
X4597400Y-8442325D01*
X11455400Y-6664325D02*
X11620500Y-6664325D01*
X4445000Y-10347325D02*
X4279900Y-10347325D01*
X6502400Y-4759325D02*
X6502400Y-4632325D01*
X13208000Y-10474325D02*
X13208000Y-10347325D01*
X11823700Y-2930525D02*
X11823700Y-3095625D01*
X8013700Y-6042025D02*
X8013700Y-6461125D01*
X8013700Y-11757025D02*
X8013700Y-12176125D01*
X5588000Y-4632325D02*
X4597400Y-4632325D01*
X11823700Y-9852025D02*
X11823700Y-10271125D01*
X8013700Y-4556125D02*
G75*
G03*
X8089900Y-4632325I72864J-3336D01*
G01*
X8407400Y-10474325D02*
X8407400Y-10347325D01*
X7886700Y-2930525D02*
X7886700Y-3095625D01*
X6108700Y-7794625D02*
X5981700Y-7794625D01*
X13208000Y-8569325D02*
X13208000Y-8442325D01*
X13360400Y-4759325D02*
X13525500Y-4759325D01*
X5981700Y-4137025D02*
X5981700Y-4556125D01*
X6108700Y-6905625D02*
X5981700Y-6905625D01*
X4203700Y-6740525D02*
X4203700Y-6905625D01*
X5588000Y-6537325D02*
X4597400Y-6537325D01*
X5740400Y-4759325D02*
X5905500Y-4759325D01*
X11823700Y-11604625D02*
X11696700Y-11604625D01*
X9715500Y-12252325D02*
X8089900Y-12252325D01*
X8089900Y-10474325D02*
X8255000Y-10474325D01*
X11823700Y-7058025D02*
X11696700Y-7058025D01*
X9715500Y-4632325D02*
G75*
G03*
X9791700Y-4556125I3336J72864D01*
G01*
X8407400Y-8569325D02*
X8407400Y-8442325D01*
X4597400Y-4759325D02*
X4597400Y-4632325D01*
X6184900Y-10474325D02*
G75*
G03*
X6108700Y-10550525I-3336J-72864D01*
G01*
X8013700Y-7947025D02*
X8013700Y-8366125D01*
X9715500Y-6537325D02*
G75*
G03*
X9791700Y-6461125I3336J72864D01*
G01*
X6502400Y-8569325D02*
X6502400Y-8442325D01*
X9918700Y-11604625D02*
X9791700Y-11604625D01*
X7810500Y-10347325D02*
X7645400Y-10347325D01*
X6350000Y-6664325D02*
X6350000Y-6537325D01*
X8013700Y-6905625D02*
X7886700Y-6905625D01*
X6502400Y-4759325D02*
X7493000Y-4759325D01*
X11455400Y-10474325D02*
X11620500Y-10474325D01*
X8013700Y-10271125D02*
G75*
G03*
X8089900Y-10347325I72864J-3336D01*
G01*
X9918700Y-4137025D02*
X9918700Y-4556125D01*
X5588000Y-8569325D02*
X5588000Y-8442325D01*
X8407400Y-10474325D02*
X9398000Y-10474325D01*
X4203700Y-10550525D02*
X4203700Y-10715625D01*
X9715500Y-12252325D02*
G75*
G03*
X9791700Y-12176125I3336J72864D01*
G01*
X6502400Y-6664325D02*
X7493000Y-6664325D01*
X9918700Y-4137025D02*
X9791700Y-4137025D01*
X9918700Y-11757025D02*
X9918700Y-12176125D01*
X8407400Y-6664325D02*
X9398000Y-6664325D01*
X7886700Y-8645525D02*
X7886700Y-8810625D01*
X9791700Y-6740525D02*
X9791700Y-6905625D01*
X9994900Y-4759325D02*
G75*
G03*
X9918700Y-4835525I-3336J-72864D01*
G01*
X5588000Y-4759325D02*
X5588000Y-4632325D01*
X6108700Y-9852025D02*
X6108700Y-10271125D01*
X8013700Y-10868025D02*
X7886700Y-10868025D01*
X5981700Y-6042025D02*
X5981700Y-6461125D01*
X13208000Y-4759325D02*
X13208000Y-4632325D01*
X8407400Y-8569325D02*
X9398000Y-8569325D01*
X11696700Y-6042025D02*
X11696700Y-6461125D01*
X7810500Y-12252325D02*
X6184900Y-12252325D01*
X7886700Y-6740525D02*
G75*
G03*
X7810500Y-6664325I-72864J3336D01*
G01*
X5981700Y-4835525D02*
G75*
G03*
X5905500Y-4759325I-72864J3336D01*
G01*
X9918700Y-10271125D02*
G75*
G03*
X9994900Y-10347325I72864J-3336D01*
G01*
X7886700Y-8645525D02*
G75*
G03*
X7810500Y-8569325I-72864J3336D01*
G01*
X4597400Y-10474325D02*
X4597400Y-10347325D01*
X9791700Y-6740525D02*
G75*
G03*
X9715500Y-6664325I-72864J3336D01*
G01*
X13208000Y-6537325D02*
X12217400Y-6537325D01*
X9791700Y-8645525D02*
G75*
G03*
X9715500Y-8569325I-72864J3336D01*
G01*
X8089900Y-6664325D02*
G75*
G03*
X8013700Y-6740525I-3336J-72864D01*
G01*
X11303000Y-6537325D02*
X10312400Y-6537325D01*
X11696700Y-8645525D02*
X11696700Y-8810625D01*
X9918700Y-7058025D02*
X9918700Y-7794625D01*
X11823700Y-10868025D02*
X11823700Y-11604625D01*
X8089900Y-4759325D02*
G75*
G03*
X8013700Y-4835525I-3336J-72864D01*
G01*
X11823700Y-10715625D02*
X11696700Y-10715625D01*
X11823700Y-8963025D02*
X11696700Y-8963025D01*
X9918700Y-3248025D02*
X9791700Y-3248025D01*
X12065000Y-6664325D02*
X12065000Y-6537325D01*
X4279900Y-8569325D02*
G75*
G03*
X4203700Y-8645525I-3336J-72864D01*
G01*
X11823700Y-3984625D02*
X11696700Y-3984625D01*
X11823700Y-6740525D02*
X11823700Y-6905625D01*
X4279900Y-4759325D02*
G75*
G03*
X4203700Y-4835525I-3336J-72864D01*
G01*
X6184900Y-6664325D02*
G75*
G03*
X6108700Y-6740525I-3336J-72864D01*
G01*
X8013700Y-4835525D02*
X8013700Y-5000625D01*
X6108700Y-7947025D02*
X5981700Y-7947025D01*
X9994900Y-8569325D02*
G75*
G03*
X9918700Y-8645525I-3336J-72864D01*
G01*
X6184900Y-6664325D02*
X6350000Y-6664325D01*
X5740400Y-6664325D02*
X5905500Y-6664325D01*
X9550400Y-8569325D02*
X9550400Y-8442325D01*
X6108700Y-3984625D02*
X5981700Y-3984625D01*
X6184900Y-4759325D02*
X6350000Y-4759325D01*
X9550400Y-8569325D02*
X9715500Y-8569325D01*
X7886700Y-7058025D02*
X7886700Y-7794625D01*
X9918700Y-9699625D02*
X9791700Y-9699625D01*
X9918700Y-3984625D02*
X9791700Y-3984625D01*
X13601700Y-6740525D02*
X13601700Y-8366125D01*
X6108700Y-8645525D02*
X6108700Y-8810625D01*
X7810500Y-4632325D02*
X7645400Y-4632325D01*
X11696700Y-7058025D02*
X11696700Y-7794625D01*
X9994900Y-10474325D02*
G75*
G03*
X9918700Y-10550525I-3336J-72864D01*
G01*
X8013700Y-6042025D02*
X7886700Y-6042025D01*
X5740400Y-8569325D02*
X5740400Y-8442325D01*
X5905500Y-8442325D02*
X5740400Y-8442325D01*
X4279900Y-10474325D02*
G75*
G03*
X4203700Y-10550525I-3336J-72864D01*
G01*
X13525500Y-4632325D02*
G75*
G03*
X13601700Y-4556125I3336J72864D01*
G01*
X9994900Y-10474325D02*
X10160000Y-10474325D01*
X9918700Y-2930525D02*
X9918700Y-3095625D01*
X13601700Y-10550525D02*
X13601700Y-12176125D01*
X11823700Y-7794625D02*
X11696700Y-7794625D01*
X9918700Y-4556125D02*
G75*
G03*
X9994900Y-4632325I72864J-3336D01*
G01*
X7493000Y-8569325D02*
X7493000Y-8442325D01*
X11696700Y-2930525D02*
X11696700Y-3095625D01*
X8407400Y-6664325D02*
X8407400Y-6537325D01*
X5905500Y-8442325D02*
G75*
G03*
X5981700Y-8366125I3336J72864D01*
G01*
X9791700Y-7058025D02*
X9791700Y-7794625D01*
X11823700Y-6461125D02*
G75*
G03*
X11899900Y-6537325I72864J-3336D01*
G01*
X8013700Y-5153025D02*
X7886700Y-5153025D01*
X13525500Y-12252325D02*
G75*
G03*
X13601700Y-12176125I3336J72864D01*
G01*
X8013700Y-5000625D02*
X7886700Y-5000625D01*
X4203700Y-4835525D02*
X4203700Y-5000625D01*
X7810500Y-10347325D02*
G75*
G03*
X7886700Y-10271125I3336J72864D01*
G01*
X10160000Y-4759325D02*
X10160000Y-4632325D01*
X9994900Y-4759325D02*
X10160000Y-4759325D01*
X11455400Y-6664325D02*
X11455400Y-6537325D01*
X7886700Y-7947025D02*
X7886700Y-8366125D01*
X9918700Y-8810625D02*
X9791700Y-8810625D01*
X11823700Y-8810625D02*
X11696700Y-8810625D01*
X11823700Y-7947025D02*
X11696700Y-7947025D01*
X7810500Y-6537325D02*
X7645400Y-6537325D01*
X12065000Y-8442325D02*
X11899900Y-8442325D01*
X9791700Y-10868025D02*
X9791700Y-11604625D01*
X5981700Y-11757025D02*
X5981700Y-12176125D01*
X8407400Y-4759325D02*
X8407400Y-4632325D01*
X7810500Y-12252325D02*
G75*
G03*
X7886700Y-12176125I3336J72864D01*
G01*
X11823700Y-6042025D02*
X11696700Y-6042025D01*
X11899900Y-8569325D02*
G75*
G03*
X11823700Y-8645525I-3336J-72864D01*
G01*
X7493000Y-4632325D02*
X6502400Y-4632325D01*
X7645400Y-8569325D02*
X7810500Y-8569325D01*
X11823700Y-10868025D02*
X11696700Y-10868025D01*
X4597400Y-8569325D02*
X5588000Y-8569325D01*
X7645400Y-4759325D02*
X7810500Y-4759325D01*
X10160000Y-8569325D02*
X10160000Y-8442325D01*
X8013700Y-10550525D02*
X8013700Y-10715625D01*
X4445000Y-8569325D02*
X4445000Y-8442325D01*
X9550400Y-4759325D02*
X9550400Y-4632325D01*
X11823700Y-4137025D02*
X11823700Y-4556125D01*
X5981700Y-8963025D02*
X5981700Y-9699625D01*
X6108700Y-4835525D02*
X6108700Y-5000625D01*
X6502400Y-6664325D02*
X6502400Y-6537325D01*
X8089900Y-8569325D02*
G75*
G03*
X8013700Y-8645525I-3336J-72864D01*
G01*
X9550400Y-10474325D02*
X9550400Y-10347325D01*
X8013700Y-8810625D02*
X7886700Y-8810625D01*
X10312400Y-10474325D02*
X10312400Y-10347325D01*
X5981700Y-5153025D02*
X5981700Y-5889625D01*
X11303000Y-8569325D02*
X11303000Y-8442325D01*
X9918700Y-7058025D02*
X9791700Y-7058025D01*
X4279900Y-2854325D02*
X5905500Y-2854325D01*
X4445000Y-6664325D02*
X4445000Y-6537325D01*
X11620500Y-8442325D02*
G75*
G03*
X11696700Y-8366125I3336J72864D01*
G01*
X9715500Y-4632325D02*
X9550400Y-4632325D01*
X6502400Y-10474325D02*
X6502400Y-10347325D01*
X11823700Y-4137025D02*
X11696700Y-4137025D01*
X8013700Y-8963025D02*
X7886700Y-8963025D01*
X5588000Y-6664325D02*
X5588000Y-6537325D01*
X6184900Y-8569325D02*
X6350000Y-8569325D01*
X11899900Y-8569325D02*
X12065000Y-8569325D01*
X13525500Y-8442325D02*
G75*
G03*
X13601700Y-8366125I3336J72864D01*
G01*
X11823700Y-8645525D02*
X11823700Y-8810625D01*
X8013700Y-7058025D02*
X8013700Y-7794625D01*
X13360400Y-8569325D02*
X13525500Y-8569325D01*
X8013700Y-8963025D02*
X8013700Y-9699625D01*
X5588000Y-10347325D02*
X4597400Y-10347325D01*
X11455400Y-8569325D02*
X11620500Y-8569325D01*
X9791700Y-10550525D02*
X9791700Y-10715625D01*
X12065000Y-10474325D02*
X12065000Y-10347325D01*
X9918700Y-6905625D02*
X9791700Y-6905625D01*
X9918700Y-10868025D02*
X9791700Y-10868025D01*
X9918700Y-8963025D02*
X9791700Y-8963025D01*
X11823700Y-5153025D02*
X11696700Y-5153025D01*
X9398000Y-10347325D02*
X8407400Y-10347325D01*
X10312400Y-4759325D02*
X10312400Y-4632325D01*
X10312400Y-6664325D02*
X10312400Y-6537325D01*
X5905500Y-6537325D02*
G75*
G03*
X5981700Y-6461125I3336J72864D01*
G01*
X11823700Y-9852025D02*
X11696700Y-9852025D01*
X9398000Y-10474325D02*
X9398000Y-10347325D01*
X11696700Y-8645525D02*
G75*
G03*
X11620500Y-8569325I-72864J3336D01*
G01*
X9918700Y-12176125D02*
G75*
G03*
X9994900Y-12252325I72864J-3336D01*
G01*
X11823700Y-4556125D02*
G75*
G03*
X11899900Y-4632325I72864J-3336D01*
G01*
X12217400Y-10474325D02*
X13208000Y-10474325D01*
X9918700Y-8645525D02*
X9918700Y-8810625D01*
X4445000Y-4759325D02*
X4445000Y-4632325D01*
X6108700Y-3248025D02*
X6108700Y-3984625D01*
X11455400Y-4759325D02*
X11455400Y-4632325D01*
X8013700Y-3248025D02*
X7886700Y-3248025D01*
X11696700Y-3248025D02*
X11696700Y-3984625D01*
X12217400Y-8569325D02*
X12217400Y-8442325D01*
X13601700Y-8645525D02*
X13601700Y-10271125D01*
X8013700Y-6740525D02*
X8013700Y-6905625D01*
X13601700Y-4835525D02*
X13601700Y-6461125D01*
X13208000Y-6664325D02*
X13208000Y-6537325D01*
X9918700Y-6042025D02*
X9918700Y-6461125D01*
X6350000Y-8442325D02*
X6184900Y-8442325D01*
X11823700Y-3248025D02*
X11823700Y-3984625D01*
X7493000Y-6664325D02*
X7493000Y-6537325D01*
X11899900Y-6664325D02*
X12065000Y-6664325D01*
X9918700Y-7794625D02*
X9791700Y-7794625D01*
X7886700Y-4835525D02*
G75*
G03*
X7810500Y-4759325I-72864J3336D01*
G01*
X9994900Y-6664325D02*
X10160000Y-6664325D01*
X7645400Y-8569325D02*
X7645400Y-8442325D01*
X9994900Y-2854325D02*
G75*
G03*
X9918700Y-2930525I-3336J-72864D01*
G01*
X8013700Y-5889625D02*
X7886700Y-5889625D01*
X11455400Y-8569325D02*
X11455400Y-8442325D01*
X12065000Y-10347325D02*
X11899900Y-10347325D01*
X7810500Y-4632325D02*
G75*
G03*
X7886700Y-4556125I3336J72864D01*
G01*
X13208000Y-10347325D02*
X12217400Y-10347325D01*
X6108700Y-10868025D02*
X5981700Y-10868025D01*
X8013700Y-3095625D02*
X7886700Y-3095625D01*
X7886700Y-5153025D02*
X7886700Y-5889625D01*
X8013700Y-6461125D02*
G75*
G03*
X8089900Y-6537325I72864J-3336D01*
G01*
X8255000Y-4759325D02*
X8255000Y-4632325D01*
X8013700Y-3248025D02*
X8013700Y-3984625D01*
X11620500Y-6537325D02*
G75*
G03*
X11696700Y-6461125I3336J72864D01*
G01*
X5981700Y-3248025D02*
X5981700Y-3984625D01*
X7886700Y-3248025D02*
X7886700Y-3984625D01*
X12217400Y-10474325D02*
X12217400Y-10347325D01*
X13525500Y-12252325D02*
X11899900Y-12252325D01*
X7645400Y-6664325D02*
X7645400Y-6537325D01*
X4279900Y-6664325D02*
G75*
G03*
X4203700Y-6740525I-3336J-72864D01*
G01*
X9918700Y-7947025D02*
X9918700Y-8366125D01*
X9918700Y-5153025D02*
X9918700Y-5889625D01*
X13360400Y-10474325D02*
X13525500Y-10474325D01*
X8013700Y-10715625D02*
X7886700Y-10715625D01*
X11823700Y-6905625D02*
X11696700Y-6905625D01*
X6108700Y-8963025D02*
X5981700Y-8963025D01*
X6108700Y-7058025D02*
X5981700Y-7058025D01*
X8013700Y-7947025D02*
X7886700Y-7947025D01*
X10312400Y-8569325D02*
X10312400Y-8442325D01*
X12217400Y-4759325D02*
X12217400Y-4632325D01*
X11823700Y-11757025D02*
X11696700Y-11757025D01*
X10160000Y-8442325D02*
X9994900Y-8442325D01*
X8013700Y-9852025D02*
X8013700Y-10271125D01*
X7886700Y-8963025D02*
X7886700Y-9699625D01*
X11696700Y-4835525D02*
X11696700Y-5000625D01*
X8013700Y-9852025D02*
X7886700Y-9852025D01*
X7645400Y-4759325D02*
X7645400Y-4632325D01*
X7886700Y-6042025D02*
X7886700Y-6461125D01*
X6108700Y-6042025D02*
X5981700Y-6042025D01*
X5981700Y-6740525D02*
X5981700Y-6905625D01*
X7886700Y-10550525D02*
X7886700Y-10715625D01*
X12065000Y-8569325D02*
X12065000Y-8442325D01*
X11696700Y-10550525D02*
X11696700Y-10715625D01*
X6108700Y-10550525D02*
X6108700Y-10715625D01*
X11620500Y-10347325D02*
X11455400Y-10347325D01*
X7493000Y-10474325D02*
X7493000Y-10347325D01*
X11899900Y-6664325D02*
G75*
G03*
X11823700Y-6740525I-3336J-72864D01*
G01*
X9918700Y-8366125D02*
G75*
G03*
X9994900Y-8442325I72864J-3336D01*
G01*
X9715500Y-8442325D02*
X9550400Y-8442325D01*
X6108700Y-8963025D02*
X6108700Y-9699625D01*
X9550400Y-6664325D02*
X9550400Y-6537325D01*
X9918700Y-5889625D02*
X9791700Y-5889625D01*
X9918700Y-9852025D02*
X9918700Y-10271125D01*
X13360400Y-10474325D02*
X13360400Y-10347325D01*
X6108700Y-7947025D02*
X6108700Y-8366125D01*
X9550400Y-10474325D02*
X9715500Y-10474325D01*
X7645400Y-10474325D02*
X7645400Y-10347325D01*
X11303000Y-10474325D02*
X11303000Y-10347325D01*
X5981700Y-4835525D02*
X5981700Y-5000625D01*
X7645400Y-10474325D02*
X7810500Y-10474325D01*
X9791700Y-3248025D02*
X9791700Y-3984625D01*
X9918700Y-3095625D02*
X9791700Y-3095625D01*
X9791700Y-8963025D02*
X9791700Y-9699625D01*
X6108700Y-5153025D02*
X5981700Y-5153025D01*
X8013700Y-3984625D02*
X7886700Y-3984625D01*
X11899900Y-2854325D02*
G75*
G03*
X11823700Y-2930525I-3336J-72864D01*
G01*
X7493000Y-4759325D02*
X7493000Y-4632325D01*
X5588000Y-10474325D02*
X5588000Y-10347325D01*
X8013700Y-4137025D02*
X7886700Y-4137025D01*
X11696700Y-6740525D02*
G75*
G03*
X11620500Y-6664325I-72864J3336D01*
G01*
X5905500Y-4632325D02*
G75*
G03*
X5981700Y-4556125I3336J72864D01*
G01*
X11899900Y-4759325D02*
X12065000Y-4759325D01*
X9918700Y-10868025D02*
X9918700Y-11604625D01*
X6108700Y-5153025D02*
X6108700Y-5889625D01*
X11823700Y-3248025D02*
X11696700Y-3248025D01*
X8013700Y-2930525D02*
X8013700Y-3095625D01*
X11823700Y-3095625D02*
X11696700Y-3095625D01*
X8013700Y-7794625D02*
X7886700Y-7794625D01*
X11823700Y-7947025D02*
X11823700Y-8366125D01*
X9918700Y-6042025D02*
X9791700Y-6042025D01*
X4279900Y-10474325D02*
X4445000Y-10474325D01*
X10312400Y-4759325D02*
X11303000Y-4759325D01*
X9398000Y-6664325D02*
X9398000Y-6537325D01*
X12217400Y-6664325D02*
X12217400Y-6537325D01*
X4203700Y-3248025D02*
X4203700Y-3984625D01*
X10160000Y-6664325D02*
X10160000Y-6537325D01*
X13601700Y-8645525D02*
G75*
G03*
X13525500Y-8569325I-72864J3336D01*
G01*
X9918700Y-4835525D02*
X9918700Y-5000625D01*
X11823700Y-5889625D02*
X11696700Y-5889625D01*
X8013700Y-11757025D02*
X7886700Y-11757025D01*
X6108700Y-7058025D02*
X6108700Y-7794625D01*
X11455400Y-4759325D02*
X11620500Y-4759325D01*
X7810500Y-8442325D02*
X7645400Y-8442325D01*
X5981700Y-10868025D02*
X5981700Y-11604625D01*
X9918700Y-11757025D02*
X9791700Y-11757025D01*
X4203700Y-12176125D02*
G75*
G03*
X4279900Y-12252325I72864J-3336D01*
G01*
X6108700Y-10271125D02*
G75*
G03*
X6184900Y-10347325I72864J-3336D01*
G01*
X6108700Y-9852025D02*
X5981700Y-9852025D01*
X5981700Y-10550525D02*
X5981700Y-10715625D01*
X9791700Y-4835525D02*
X9791700Y-5000625D01*
X11303000Y-4759325D02*
X11303000Y-4632325D01*
D11*
D12*
X4336100Y-4040825D02*
X4376100Y-4080825D01*
X4376100Y-4040825D02*
X4336100Y-4080825D01*
X4336100Y-5945825D02*
X4376100Y-5985825D01*
X4376100Y-5945825D02*
X4336100Y-5985825D01*
X4336100Y-7850825D02*
X4376100Y-7890825D01*
X4376100Y-7850825D02*
X4336100Y-7890825D01*
X4336100Y-9755825D02*
X4376100Y-9795825D01*
X4376100Y-9755825D02*
X4336100Y-9795825D01*
X4336100Y-11660825D02*
X4376100Y-11700825D01*
X4376100Y-11660825D02*
X4336100Y-11700825D01*
X4704400Y-3596325D02*
X4744400Y-3636325D01*
X4744400Y-3596325D02*
X4704400Y-3636325D01*
X4704400Y-5501325D02*
X4744400Y-5541325D01*
X4744400Y-5501325D02*
X4704400Y-5541325D01*
X4704400Y-7406325D02*
X4744400Y-7446325D01*
X4744400Y-7406325D02*
X4704400Y-7446325D01*
X4704400Y-9311325D02*
X4744400Y-9351325D01*
X4744400Y-9311325D02*
X4704400Y-9351325D01*
X4704400Y-11216325D02*
X4744400Y-11256325D01*
X4744400Y-11216325D02*
X4704400Y-11256325D01*
X4806000Y-3189925D02*
X4846000Y-3229925D01*
X4846000Y-3189925D02*
X4806000Y-3229925D01*
X4806000Y-3342325D02*
X4846000Y-3382325D01*
X4846000Y-3342325D02*
X4806000Y-3382325D01*
X4806000Y-5094925D02*
X4846000Y-5134925D01*
X4846000Y-5094925D02*
X4806000Y-5134925D01*
X4806000Y-5247325D02*
X4846000Y-5287325D01*
X4846000Y-5247325D02*
X4806000Y-5287325D01*
X4806000Y-6999925D02*
X4846000Y-7039925D01*
X4846000Y-6999925D02*
X4806000Y-7039925D01*
X4806000Y-7152325D02*
X4846000Y-7192325D01*
X4846000Y-7152325D02*
X4806000Y-7192325D01*
X4806000Y-8904925D02*
X4846000Y-8944925D01*
X4846000Y-8904925D02*
X4806000Y-8944925D01*
X4806000Y-9057325D02*
X4846000Y-9097325D01*
X4846000Y-9057325D02*
X4806000Y-9097325D01*
X4806000Y-10809925D02*
X4846000Y-10849925D01*
X4846000Y-10809925D02*
X4806000Y-10849925D01*
X4806000Y-10962325D02*
X4846000Y-11002325D01*
X4846000Y-10962325D02*
X4806000Y-11002325D01*
X5339400Y-3189925D02*
X5379400Y-3229925D01*
X5379400Y-3189925D02*
X5339400Y-3229925D01*
X5339400Y-3342325D02*
X5379400Y-3382325D01*
X5379400Y-3342325D02*
X5339400Y-3382325D01*
X5339400Y-5094925D02*
X5379400Y-5134925D01*
X5379400Y-5094925D02*
X5339400Y-5134925D01*
X5339400Y-5247325D02*
X5379400Y-5287325D01*
X5379400Y-5247325D02*
X5339400Y-5287325D01*
X5339400Y-6999925D02*
X5379400Y-7039925D01*
X5379400Y-6999925D02*
X5339400Y-7039925D01*
X5339400Y-7152325D02*
X5379400Y-7192325D01*
X5379400Y-7152325D02*
X5339400Y-7192325D01*
X5339400Y-8904925D02*
X5379400Y-8944925D01*
X5379400Y-8904925D02*
X5339400Y-8944925D01*
X5339400Y-9057325D02*
X5379400Y-9097325D01*
X5379400Y-9057325D02*
X5339400Y-9097325D01*
X5339400Y-10809925D02*
X5379400Y-10849925D01*
X5379400Y-10809925D02*
X5339400Y-10849925D01*
X5339400Y-10962325D02*
X5379400Y-11002325D01*
X5379400Y-10962325D02*
X5339400Y-11002325D01*
X5364800Y-4294825D02*
X5404800Y-4334825D01*
X5404800Y-4294825D02*
X5364800Y-4334825D01*
X5364800Y-6199825D02*
X5404800Y-6239825D01*
X5404800Y-6199825D02*
X5364800Y-6239825D01*
X5364800Y-8104825D02*
X5404800Y-8144825D01*
X5404800Y-8104825D02*
X5364800Y-8144825D01*
X5364800Y-10009825D02*
X5404800Y-10049825D01*
X5404800Y-10009825D02*
X5364800Y-10049825D01*
X5364800Y-11914825D02*
X5404800Y-11954825D01*
X5404800Y-11914825D02*
X5364800Y-11954825D01*
X5428300Y-3596325D02*
X5468300Y-3636325D01*
X5468300Y-3596325D02*
X5428300Y-3636325D01*
X5428300Y-5501325D02*
X5468300Y-5541325D01*
X5468300Y-5501325D02*
X5428300Y-5541325D01*
X5428300Y-7406325D02*
X5468300Y-7446325D01*
X5468300Y-7406325D02*
X5428300Y-7446325D01*
X5428300Y-9311325D02*
X5468300Y-9351325D01*
X5468300Y-9311325D02*
X5428300Y-9351325D01*
X5428300Y-11216325D02*
X5468300Y-11256325D01*
X5468300Y-11216325D02*
X5428300Y-11256325D01*
X5580700Y-3228025D02*
X5620700Y-3268025D01*
X5620700Y-3228025D02*
X5580700Y-3268025D01*
X5580700Y-5133025D02*
X5620700Y-5173025D01*
X5620700Y-5133025D02*
X5580700Y-5173025D01*
X5580700Y-7038025D02*
X5620700Y-7078025D01*
X5620700Y-7038025D02*
X5580700Y-7078025D01*
X5580700Y-8943025D02*
X5620700Y-8983025D01*
X5620700Y-8943025D02*
X5580700Y-8983025D01*
X5580700Y-10848025D02*
X5620700Y-10888025D01*
X5620700Y-10848025D02*
X5580700Y-10888025D01*
X5783900Y-3151825D02*
X5823900Y-3191825D01*
X5823900Y-3151825D02*
X5783900Y-3191825D01*
X5783900Y-5056825D02*
X5823900Y-5096825D01*
X5823900Y-5056825D02*
X5783900Y-5096825D01*
X5783900Y-6961825D02*
X5823900Y-7001825D01*
X5823900Y-6961825D02*
X5783900Y-7001825D01*
X5783900Y-8866825D02*
X5823900Y-8906825D01*
X5823900Y-8866825D02*
X5783900Y-8906825D01*
X5783900Y-10771825D02*
X5823900Y-10811825D01*
X5823900Y-10771825D02*
X5783900Y-10811825D01*
X6241100Y-4040825D02*
X6281100Y-4080825D01*
X6281100Y-4040825D02*
X6241100Y-4080825D01*
X6241100Y-5945825D02*
X6281100Y-5985825D01*
X6281100Y-5945825D02*
X6241100Y-5985825D01*
X6241100Y-7850825D02*
X6281100Y-7890825D01*
X6281100Y-7850825D02*
X6241100Y-7890825D01*
X6241100Y-9755825D02*
X6281100Y-9795825D01*
X6281100Y-9755825D02*
X6241100Y-9795825D01*
X6241100Y-11660825D02*
X6281100Y-11700825D01*
X6281100Y-11660825D02*
X6241100Y-11700825D01*
X6609400Y-3596325D02*
X6649400Y-3636325D01*
X6649400Y-3596325D02*
X6609400Y-3636325D01*
X6609400Y-5501325D02*
X6649400Y-5541325D01*
X6649400Y-5501325D02*
X6609400Y-5541325D01*
X6609400Y-7406325D02*
X6649400Y-7446325D01*
X6649400Y-7406325D02*
X6609400Y-7446325D01*
X6609400Y-9311325D02*
X6649400Y-9351325D01*
X6649400Y-9311325D02*
X6609400Y-9351325D01*
X6609400Y-11216325D02*
X6649400Y-11256325D01*
X6649400Y-11216325D02*
X6609400Y-11256325D01*
X6711000Y-3189925D02*
X6751000Y-3229925D01*
X6751000Y-3189925D02*
X6711000Y-3229925D01*
X6711000Y-3342325D02*
X6751000Y-3382325D01*
X6751000Y-3342325D02*
X6711000Y-3382325D01*
X6711000Y-5094925D02*
X6751000Y-5134925D01*
X6751000Y-5094925D02*
X6711000Y-5134925D01*
X6711000Y-5247325D02*
X6751000Y-5287325D01*
X6751000Y-5247325D02*
X6711000Y-5287325D01*
X6711000Y-6999925D02*
X6751000Y-7039925D01*
X6751000Y-6999925D02*
X6711000Y-7039925D01*
X6711000Y-7152325D02*
X6751000Y-7192325D01*
X6751000Y-7152325D02*
X6711000Y-7192325D01*
X6711000Y-8904925D02*
X6751000Y-8944925D01*
X6751000Y-8904925D02*
X6711000Y-8944925D01*
X6711000Y-9057325D02*
X6751000Y-9097325D01*
X6751000Y-9057325D02*
X6711000Y-9097325D01*
X6711000Y-10809925D02*
X6751000Y-10849925D01*
X6751000Y-10809925D02*
X6711000Y-10849925D01*
X6711000Y-10962325D02*
X6751000Y-11002325D01*
X6751000Y-10962325D02*
X6711000Y-11002325D01*
X7244400Y-3189925D02*
X7284400Y-3229925D01*
X7284400Y-3189925D02*
X7244400Y-3229925D01*
X7244400Y-3342325D02*
X7284400Y-3382325D01*
X7284400Y-3342325D02*
X7244400Y-3382325D01*
X7244400Y-5094925D02*
X7284400Y-5134925D01*
X7284400Y-5094925D02*
X7244400Y-5134925D01*
X7244400Y-5247325D02*
X7284400Y-5287325D01*
X7284400Y-5247325D02*
X7244400Y-5287325D01*
X7244400Y-6999925D02*
X7284400Y-7039925D01*
X7284400Y-6999925D02*
X7244400Y-7039925D01*
X7244400Y-7152325D02*
X7284400Y-7192325D01*
X7284400Y-7152325D02*
X7244400Y-7192325D01*
X7244400Y-8904925D02*
X7284400Y-8944925D01*
X7284400Y-8904925D02*
X7244400Y-8944925D01*
X7244400Y-9057325D02*
X7284400Y-9097325D01*
X7284400Y-9057325D02*
X7244400Y-9097325D01*
X7244400Y-10809925D02*
X7284400Y-10849925D01*
X7284400Y-10809925D02*
X7244400Y-10849925D01*
X7244400Y-10962325D02*
X7284400Y-11002325D01*
X7284400Y-10962325D02*
X7244400Y-11002325D01*
X7269800Y-4294825D02*
X7309800Y-4334825D01*
X7309800Y-4294825D02*
X7269800Y-4334825D01*
X7269800Y-6199825D02*
X7309800Y-6239825D01*
X7309800Y-6199825D02*
X7269800Y-6239825D01*
X7269800Y-8104825D02*
X7309800Y-8144825D01*
X7309800Y-8104825D02*
X7269800Y-8144825D01*
X7269800Y-10009825D02*
X7309800Y-10049825D01*
X7309800Y-10009825D02*
X7269800Y-10049825D01*
X7269800Y-11914825D02*
X7309800Y-11954825D01*
X7309800Y-11914825D02*
X7269800Y-11954825D01*
X7333300Y-3596325D02*
X7373300Y-3636325D01*
X7373300Y-3596325D02*
X7333300Y-3636325D01*
X7333300Y-5501325D02*
X7373300Y-5541325D01*
X7373300Y-5501325D02*
X7333300Y-5541325D01*
X7333300Y-7406325D02*
X7373300Y-7446325D01*
X7373300Y-7406325D02*
X7333300Y-7446325D01*
X7333300Y-9311325D02*
X7373300Y-9351325D01*
X7373300Y-9311325D02*
X7333300Y-9351325D01*
X7333300Y-11216325D02*
X7373300Y-11256325D01*
X7373300Y-11216325D02*
X7333300Y-11256325D01*
X7485700Y-3228025D02*
X7525700Y-3268025D01*
X7525700Y-3228025D02*
X7485700Y-3268025D01*
X7485700Y-5133025D02*
X7525700Y-5173025D01*
X7525700Y-5133025D02*
X7485700Y-5173025D01*
X7485700Y-7038025D02*
X7525700Y-7078025D01*
X7525700Y-7038025D02*
X7485700Y-7078025D01*
X7485700Y-8943025D02*
X7525700Y-8983025D01*
X7525700Y-8943025D02*
X7485700Y-8983025D01*
X7485700Y-10848025D02*
X7525700Y-10888025D01*
X7525700Y-10848025D02*
X7485700Y-10888025D01*
X7688900Y-3151825D02*
X7728900Y-3191825D01*
X7728900Y-3151825D02*
X7688900Y-3191825D01*
X7688900Y-5056825D02*
X7728900Y-5096825D01*
X7728900Y-5056825D02*
X7688900Y-5096825D01*
X7688900Y-6961825D02*
X7728900Y-7001825D01*
X7728900Y-6961825D02*
X7688900Y-7001825D01*
X7688900Y-8866825D02*
X7728900Y-8906825D01*
X7728900Y-8866825D02*
X7688900Y-8906825D01*
X7688900Y-10771825D02*
X7728900Y-10811825D01*
X7728900Y-10771825D02*
X7688900Y-10811825D01*
X8146100Y-4040825D02*
X8186100Y-4080825D01*
X8186100Y-4040825D02*
X8146100Y-4080825D01*
X8146100Y-5945825D02*
X8186100Y-5985825D01*
X8186100Y-5945825D02*
X8146100Y-5985825D01*
X8146100Y-7850825D02*
X8186100Y-7890825D01*
X8186100Y-7850825D02*
X8146100Y-7890825D01*
X8146100Y-9755825D02*
X8186100Y-9795825D01*
X8186100Y-9755825D02*
X8146100Y-9795825D01*
X8146100Y-11660825D02*
X8186100Y-11700825D01*
X8186100Y-11660825D02*
X8146100Y-11700825D01*
X8514400Y-3596325D02*
X8554400Y-3636325D01*
X8554400Y-3596325D02*
X8514400Y-3636325D01*
X8514400Y-5501325D02*
X8554400Y-5541325D01*
X8554400Y-5501325D02*
X8514400Y-5541325D01*
X8514400Y-7406325D02*
X8554400Y-7446325D01*
X8554400Y-7406325D02*
X8514400Y-7446325D01*
X8514400Y-9311325D02*
X8554400Y-9351325D01*
X8554400Y-9311325D02*
X8514400Y-9351325D01*
X8514400Y-11216325D02*
X8554400Y-11256325D01*
X8554400Y-11216325D02*
X8514400Y-11256325D01*
X8616000Y-3189925D02*
X8656000Y-3229925D01*
X8656000Y-3189925D02*
X8616000Y-3229925D01*
X8616000Y-3342325D02*
X8656000Y-3382325D01*
X8656000Y-3342325D02*
X8616000Y-3382325D01*
X8616000Y-5094925D02*
X8656000Y-5134925D01*
X8656000Y-5094925D02*
X8616000Y-5134925D01*
X8616000Y-5247325D02*
X8656000Y-5287325D01*
X8656000Y-5247325D02*
X8616000Y-5287325D01*
X8616000Y-6999925D02*
X8656000Y-7039925D01*
X8656000Y-6999925D02*
X8616000Y-7039925D01*
X8616000Y-7152325D02*
X8656000Y-7192325D01*
X8656000Y-7152325D02*
X8616000Y-7192325D01*
X8616000Y-8904925D02*
X8656000Y-8944925D01*
X8656000Y-8904925D02*
X8616000Y-8944925D01*
X8616000Y-9057325D02*
X8656000Y-9097325D01*
X8656000Y-9057325D02*
X8616000Y-9097325D01*
X8616000Y-10809925D02*
X8656000Y-10849925D01*
X8656000Y-10809925D02*
X8616000Y-10849925D01*
X8616000Y-10962325D02*
X8656000Y-11002325D01*
X8656000Y-10962325D02*
X8616000Y-11002325D01*
X9149400Y-3189925D02*
X9189400Y-3229925D01*
X9189400Y-3189925D02*
X9149400Y-3229925D01*
X9149400Y-3342325D02*
X9189400Y-3382325D01*
X9189400Y-3342325D02*
X9149400Y-3382325D01*
X9149400Y-5094925D02*
X9189400Y-5134925D01*
X9189400Y-5094925D02*
X9149400Y-5134925D01*
X9149400Y-5247325D02*
X9189400Y-5287325D01*
X9189400Y-5247325D02*
X9149400Y-5287325D01*
X9149400Y-6999925D02*
X9189400Y-7039925D01*
X9189400Y-6999925D02*
X9149400Y-7039925D01*
X9149400Y-7152325D02*
X9189400Y-7192325D01*
X9189400Y-7152325D02*
X9149400Y-7192325D01*
X9149400Y-8904925D02*
X9189400Y-8944925D01*
X9189400Y-8904925D02*
X9149400Y-8944925D01*
X9149400Y-9057325D02*
X9189400Y-9097325D01*
X9189400Y-9057325D02*
X9149400Y-9097325D01*
X9149400Y-10809925D02*
X9189400Y-10849925D01*
X9189400Y-10809925D02*
X9149400Y-10849925D01*
X9149400Y-10962325D02*
X9189400Y-11002325D01*
X9189400Y-10962325D02*
X9149400Y-11002325D01*
X9174800Y-4294825D02*
X9214800Y-4334825D01*
X9214800Y-4294825D02*
X9174800Y-4334825D01*
X9174800Y-6199825D02*
X9214800Y-6239825D01*
X9214800Y-6199825D02*
X9174800Y-6239825D01*
X9174800Y-8104825D02*
X9214800Y-8144825D01*
X9214800Y-8104825D02*
X9174800Y-8144825D01*
X9174800Y-10009825D02*
X9214800Y-10049825D01*
X9214800Y-10009825D02*
X9174800Y-10049825D01*
X9174800Y-11914825D02*
X9214800Y-11954825D01*
X9214800Y-11914825D02*
X9174800Y-11954825D01*
X9238300Y-3596325D02*
X9278300Y-3636325D01*
X9278300Y-3596325D02*
X9238300Y-3636325D01*
X9238300Y-5501325D02*
X9278300Y-5541325D01*
X9278300Y-5501325D02*
X9238300Y-5541325D01*
X9238300Y-7406325D02*
X9278300Y-7446325D01*
X9278300Y-7406325D02*
X9238300Y-7446325D01*
X9238300Y-9311325D02*
X9278300Y-9351325D01*
X9278300Y-9311325D02*
X9238300Y-9351325D01*
X9238300Y-11216325D02*
X9278300Y-11256325D01*
X9278300Y-11216325D02*
X9238300Y-11256325D01*
X9390700Y-3228025D02*
X9430700Y-3268025D01*
X9430700Y-3228025D02*
X9390700Y-3268025D01*
X9390700Y-5133025D02*
X9430700Y-5173025D01*
X9430700Y-5133025D02*
X9390700Y-5173025D01*
X9390700Y-7038025D02*
X9430700Y-7078025D01*
X9430700Y-7038025D02*
X9390700Y-7078025D01*
X9390700Y-8943025D02*
X9430700Y-8983025D01*
X9430700Y-8943025D02*
X9390700Y-8983025D01*
X9390700Y-10848025D02*
X9430700Y-10888025D01*
X9430700Y-10848025D02*
X9390700Y-10888025D01*
X9593900Y-3151825D02*
X9633900Y-3191825D01*
X9633900Y-3151825D02*
X9593900Y-3191825D01*
X9593900Y-5056825D02*
X9633900Y-5096825D01*
X9633900Y-5056825D02*
X9593900Y-5096825D01*
X9593900Y-6961825D02*
X9633900Y-7001825D01*
X9633900Y-6961825D02*
X9593900Y-7001825D01*
X9593900Y-8866825D02*
X9633900Y-8906825D01*
X9633900Y-8866825D02*
X9593900Y-8906825D01*
X9593900Y-10771825D02*
X9633900Y-10811825D01*
X9633900Y-10771825D02*
X9593900Y-10811825D01*
X10051100Y-4040825D02*
X10091100Y-4080825D01*
X10091100Y-4040825D02*
X10051100Y-4080825D01*
X10051100Y-5945825D02*
X10091100Y-5985825D01*
X10091100Y-5945825D02*
X10051100Y-5985825D01*
X10051100Y-7850825D02*
X10091100Y-7890825D01*
X10091100Y-7850825D02*
X10051100Y-7890825D01*
X10051100Y-9755825D02*
X10091100Y-9795825D01*
X10091100Y-9755825D02*
X10051100Y-9795825D01*
X10051100Y-11660825D02*
X10091100Y-11700825D01*
X10091100Y-11660825D02*
X10051100Y-11700825D01*
X10419400Y-3596325D02*
X10459400Y-3636325D01*
X10459400Y-3596325D02*
X10419400Y-3636325D01*
X10419400Y-5501325D02*
X10459400Y-5541325D01*
X10459400Y-5501325D02*
X10419400Y-5541325D01*
X10419400Y-7406325D02*
X10459400Y-7446325D01*
X10459400Y-7406325D02*
X10419400Y-7446325D01*
X10419400Y-9311325D02*
X10459400Y-9351325D01*
X10459400Y-9311325D02*
X10419400Y-9351325D01*
X10419400Y-11216325D02*
X10459400Y-11256325D01*
X10459400Y-11216325D02*
X10419400Y-11256325D01*
X10521000Y-3189925D02*
X10561000Y-3229925D01*
X10561000Y-3189925D02*
X10521000Y-3229925D01*
X10521000Y-3342325D02*
X10561000Y-3382325D01*
X10561000Y-3342325D02*
X10521000Y-3382325D01*
X10521000Y-5094925D02*
X10561000Y-5134925D01*
X10561000Y-5094925D02*
X10521000Y-5134925D01*
X10521000Y-5247325D02*
X10561000Y-5287325D01*
X10561000Y-5247325D02*
X10521000Y-5287325D01*
X10521000Y-6999925D02*
X10561000Y-7039925D01*
X10561000Y-6999925D02*
X10521000Y-7039925D01*
X10521000Y-7152325D02*
X10561000Y-7192325D01*
X10561000Y-7152325D02*
X10521000Y-7192325D01*
X10521000Y-8904925D02*
X10561000Y-8944925D01*
X10561000Y-8904925D02*
X10521000Y-8944925D01*
X10521000Y-9057325D02*
X10561000Y-9097325D01*
X10561000Y-9057325D02*
X10521000Y-9097325D01*
X10521000Y-10809925D02*
X10561000Y-10849925D01*
X10561000Y-10809925D02*
X10521000Y-10849925D01*
X10521000Y-10962325D02*
X10561000Y-11002325D01*
X10561000Y-10962325D02*
X10521000Y-11002325D01*
X11054400Y-3189925D02*
X11094400Y-3229925D01*
X11094400Y-3189925D02*
X11054400Y-3229925D01*
X11054400Y-3342325D02*
X11094400Y-3382325D01*
X11094400Y-3342325D02*
X11054400Y-3382325D01*
X11054400Y-5094925D02*
X11094400Y-5134925D01*
X11094400Y-5094925D02*
X11054400Y-5134925D01*
X11054400Y-5247325D02*
X11094400Y-5287325D01*
X11094400Y-5247325D02*
X11054400Y-5287325D01*
X11054400Y-6999925D02*
X11094400Y-7039925D01*
X11094400Y-6999925D02*
X11054400Y-7039925D01*
X11054400Y-7152325D02*
X11094400Y-7192325D01*
X11094400Y-7152325D02*
X11054400Y-7192325D01*
X11054400Y-8904925D02*
X11094400Y-8944925D01*
X11094400Y-8904925D02*
X11054400Y-8944925D01*
X11054400Y-9057325D02*
X11094400Y-9097325D01*
X11094400Y-9057325D02*
X11054400Y-9097325D01*
X11054400Y-10809925D02*
X11094400Y-10849925D01*
X11094400Y-10809925D02*
X11054400Y-10849925D01*
X11054400Y-10962325D02*
X11094400Y-11002325D01*
X11094400Y-10962325D02*
X11054400Y-11002325D01*
X11079800Y-4294825D02*
X11119800Y-4334825D01*
X11119800Y-4294825D02*
X11079800Y-4334825D01*
X11079800Y-6199825D02*
X11119800Y-6239825D01*
X11119800Y-6199825D02*
X11079800Y-6239825D01*
X11079800Y-8104825D02*
X11119800Y-8144825D01*
X11119800Y-8104825D02*
X11079800Y-8144825D01*
X11079800Y-10009825D02*
X11119800Y-10049825D01*
X11119800Y-10009825D02*
X11079800Y-10049825D01*
X11079800Y-11914825D02*
X11119800Y-11954825D01*
X11119800Y-11914825D02*
X11079800Y-11954825D01*
X11143300Y-3596325D02*
X11183300Y-3636325D01*
X11183300Y-3596325D02*
X11143300Y-3636325D01*
X11143300Y-5501325D02*
X11183300Y-5541325D01*
X11183300Y-5501325D02*
X11143300Y-5541325D01*
X11143300Y-7406325D02*
X11183300Y-7446325D01*
X11183300Y-7406325D02*
X11143300Y-7446325D01*
X11143300Y-9311325D02*
X11183300Y-9351325D01*
X11183300Y-9311325D02*
X11143300Y-9351325D01*
X11143300Y-11216325D02*
X11183300Y-11256325D01*
X11183300Y-11216325D02*
X11143300Y-11256325D01*
X11295700Y-3228025D02*
X11335700Y-3268025D01*
X11335700Y-3228025D02*
X11295700Y-3268025D01*
X11295700Y-5133025D02*
X11335700Y-5173025D01*
X11335700Y-5133025D02*
X11295700Y-5173025D01*
X11295700Y-7038025D02*
X11335700Y-7078025D01*
X11335700Y-7038025D02*
X11295700Y-7078025D01*
X11295700Y-8943025D02*
X11335700Y-8983025D01*
X11335700Y-8943025D02*
X11295700Y-8983025D01*
X11295700Y-10848025D02*
X11335700Y-10888025D01*
X11335700Y-10848025D02*
X11295700Y-10888025D01*
X11498900Y-3151825D02*
X11538900Y-3191825D01*
X11538900Y-3151825D02*
X11498900Y-3191825D01*
X11498900Y-5056825D02*
X11538900Y-5096825D01*
X11538900Y-5056825D02*
X11498900Y-5096825D01*
X11498900Y-6961825D02*
X11538900Y-7001825D01*
X11538900Y-6961825D02*
X11498900Y-7001825D01*
X11498900Y-8866825D02*
X11538900Y-8906825D01*
X11538900Y-8866825D02*
X11498900Y-8906825D01*
X11498900Y-10771825D02*
X11538900Y-10811825D01*
X11538900Y-10771825D02*
X11498900Y-10811825D01*
X11956100Y-4040825D02*
X11996100Y-4080825D01*
X11996100Y-4040825D02*
X11956100Y-4080825D01*
X11956100Y-5945825D02*
X11996100Y-5985825D01*
X11996100Y-5945825D02*
X11956100Y-5985825D01*
X11956100Y-7850825D02*
X11996100Y-7890825D01*
X11996100Y-7850825D02*
X11956100Y-7890825D01*
X11956100Y-9755825D02*
X11996100Y-9795825D01*
X11996100Y-9755825D02*
X11956100Y-9795825D01*
X11956100Y-11660825D02*
X11996100Y-11700825D01*
X11996100Y-11660825D02*
X11956100Y-11700825D01*
X12324400Y-3596325D02*
X12364400Y-3636325D01*
X12364400Y-3596325D02*
X12324400Y-3636325D01*
X12324400Y-5501325D02*
X12364400Y-5541325D01*
X12364400Y-5501325D02*
X12324400Y-5541325D01*
X12324400Y-7406325D02*
X12364400Y-7446325D01*
X12364400Y-7406325D02*
X12324400Y-7446325D01*
X12324400Y-9311325D02*
X12364400Y-9351325D01*
X12364400Y-9311325D02*
X12324400Y-9351325D01*
X12324400Y-11216325D02*
X12364400Y-11256325D01*
X12364400Y-11216325D02*
X12324400Y-11256325D01*
X12426000Y-3189925D02*
X12466000Y-3229925D01*
X12466000Y-3189925D02*
X12426000Y-3229925D01*
X12426000Y-3342325D02*
X12466000Y-3382325D01*
X12466000Y-3342325D02*
X12426000Y-3382325D01*
X12426000Y-5094925D02*
X12466000Y-5134925D01*
X12466000Y-5094925D02*
X12426000Y-5134925D01*
X12426000Y-5247325D02*
X12466000Y-5287325D01*
X12466000Y-5247325D02*
X12426000Y-5287325D01*
X12426000Y-6999925D02*
X12466000Y-7039925D01*
X12466000Y-6999925D02*
X12426000Y-7039925D01*
X12426000Y-7152325D02*
X12466000Y-7192325D01*
X12466000Y-7152325D02*
X12426000Y-7192325D01*
X12426000Y-8904925D02*
X12466000Y-8944925D01*
X12466000Y-8904925D02*
X12426000Y-8944925D01*
X12426000Y-9057325D02*
X12466000Y-9097325D01*
X12466000Y-9057325D02*
X12426000Y-9097325D01*
X12426000Y-10809925D02*
X12466000Y-10849925D01*
X12466000Y-10809925D02*
X12426000Y-10849925D01*
X12426000Y-10962325D02*
X12466000Y-11002325D01*
X12466000Y-10962325D02*
X12426000Y-11002325D01*
X12959400Y-3189925D02*
X12999400Y-3229925D01*
X12999400Y-3189925D02*
X12959400Y-3229925D01*
X12959400Y-3342325D02*
X12999400Y-3382325D01*
X12999400Y-3342325D02*
X12959400Y-3382325D01*
X12959400Y-5094925D02*
X12999400Y-5134925D01*
X12999400Y-5094925D02*
X12959400Y-5134925D01*
X12959400Y-5247325D02*
X12999400Y-5287325D01*
X12999400Y-5247325D02*
X12959400Y-5287325D01*
X12959400Y-6999925D02*
X12999400Y-7039925D01*
X12999400Y-6999925D02*
X12959400Y-7039925D01*
X12959400Y-7152325D02*
X12999400Y-7192325D01*
X12999400Y-7152325D02*
X12959400Y-7192325D01*
X12959400Y-8904925D02*
X12999400Y-8944925D01*
X12999400Y-8904925D02*
X12959400Y-8944925D01*
X12959400Y-9057325D02*
X12999400Y-9097325D01*
X12999400Y-9057325D02*
X12959400Y-9097325D01*
X12959400Y-10809925D02*
X12999400Y-10849925D01*
X12999400Y-10809925D02*
X12959400Y-10849925D01*
X12959400Y-10962325D02*
X12999400Y-11002325D01*
X12999400Y-10962325D02*
X12959400Y-11002325D01*
X12984800Y-4294825D02*
X13024800Y-4334825D01*
X13024800Y-4294825D02*
X12984800Y-4334825D01*
X12984800Y-6199825D02*
X13024800Y-6239825D01*
X13024800Y-6199825D02*
X12984800Y-6239825D01*
X12984800Y-8104825D02*
X13024800Y-8144825D01*
X13024800Y-8104825D02*
X12984800Y-8144825D01*
X12984800Y-10009825D02*
X13024800Y-10049825D01*
X13024800Y-10009825D02*
X12984800Y-10049825D01*
X12984800Y-11914825D02*
X13024800Y-11954825D01*
X13024800Y-11914825D02*
X12984800Y-11954825D01*
X13048300Y-3596325D02*
X13088300Y-3636325D01*
X13088300Y-3596325D02*
X13048300Y-3636325D01*
X13048300Y-5501325D02*
X13088300Y-5541325D01*
X13088300Y-5501325D02*
X13048300Y-5541325D01*
X13048300Y-7406325D02*
X13088300Y-7446325D01*
X13088300Y-7406325D02*
X13048300Y-7446325D01*
X13048300Y-9311325D02*
X13088300Y-9351325D01*
X13088300Y-9311325D02*
X13048300Y-9351325D01*
X13048300Y-11216325D02*
X13088300Y-11256325D01*
X13088300Y-11216325D02*
X13048300Y-11256325D01*
D13*
X4370700Y-2981325D02*
G75*
G03*
X4370700Y-2981325I-40000J0D01*
G01*
X4370700Y-3362325D02*
G75*
G03*
X4370700Y-3362325I-40000J0D01*
G01*
X4370700Y-3616325D02*
G75*
G03*
X4370700Y-3616325I-40000J0D01*
G01*
X4370700Y-3870325D02*
G75*
G03*
X4370700Y-3870325I-40000J0D01*
G01*
X4370700Y-4505325D02*
G75*
G03*
X4370700Y-4505325I-40000J0D01*
G01*
X4370700Y-4886325D02*
G75*
G03*
X4370700Y-4886325I-40000J0D01*
G01*
X4370700Y-5267325D02*
G75*
G03*
X4370700Y-5267325I-40000J0D01*
G01*
X4370700Y-5521325D02*
G75*
G03*
X4370700Y-5521325I-40000J0D01*
G01*
X4370700Y-5775325D02*
G75*
G03*
X4370700Y-5775325I-40000J0D01*
G01*
X4370700Y-6410325D02*
G75*
G03*
X4370700Y-6410325I-40000J0D01*
G01*
X4370700Y-6791325D02*
G75*
G03*
X4370700Y-6791325I-40000J0D01*
G01*
X4370700Y-7172325D02*
G75*
G03*
X4370700Y-7172325I-40000J0D01*
G01*
X4370700Y-7426325D02*
G75*
G03*
X4370700Y-7426325I-40000J0D01*
G01*
X4370700Y-7680325D02*
G75*
G03*
X4370700Y-7680325I-40000J0D01*
G01*
X4370700Y-8315325D02*
G75*
G03*
X4370700Y-8315325I-40000J0D01*
G01*
X4370700Y-8696325D02*
G75*
G03*
X4370700Y-8696325I-40000J0D01*
G01*
X4370700Y-9077325D02*
G75*
G03*
X4370700Y-9077325I-40000J0D01*
G01*
X4370700Y-9331325D02*
G75*
G03*
X4370700Y-9331325I-40000J0D01*
G01*
X4370700Y-9585325D02*
G75*
G03*
X4370700Y-9585325I-40000J0D01*
G01*
X4370700Y-10220325D02*
G75*
G03*
X4370700Y-10220325I-40000J0D01*
G01*
X4370700Y-10601325D02*
G75*
G03*
X4370700Y-10601325I-40000J0D01*
G01*
X4370700Y-10982325D02*
G75*
G03*
X4370700Y-10982325I-40000J0D01*
G01*
X4370700Y-11236325D02*
G75*
G03*
X4370700Y-11236325I-40000J0D01*
G01*
X4370700Y-11490325D02*
G75*
G03*
X4370700Y-11490325I-40000J0D01*
G01*
X4370700Y-12125325D02*
G75*
G03*
X4370700Y-12125325I-40000J0D01*
G01*
X4686500Y-4518025D02*
G75*
G03*
X4686500Y-4518025I-40000J0D01*
G01*
X4686500Y-6423025D02*
G75*
G03*
X4686500Y-6423025I-40000J0D01*
G01*
X4686500Y-8328025D02*
G75*
G03*
X4686500Y-8328025I-40000J0D01*
G01*
X4686500Y-10233025D02*
G75*
G03*
X4686500Y-10233025I-40000J0D01*
G01*
X4686500Y-12138025D02*
G75*
G03*
X4686500Y-12138025I-40000J0D01*
G01*
X5321500Y-4518025D02*
G75*
G03*
X5321500Y-4518025I-40000J0D01*
G01*
X5321500Y-6423025D02*
G75*
G03*
X5321500Y-6423025I-40000J0D01*
G01*
X5321500Y-8328025D02*
G75*
G03*
X5321500Y-8328025I-40000J0D01*
G01*
X5321500Y-10233025D02*
G75*
G03*
X5321500Y-10233025I-40000J0D01*
G01*
X5321500Y-12138025D02*
G75*
G03*
X5321500Y-12138025I-40000J0D01*
G01*
X5513700Y-2981325D02*
G75*
G03*
X5513700Y-2981325I-40000J0D01*
G01*
X5513700Y-4886325D02*
G75*
G03*
X5513700Y-4886325I-40000J0D01*
G01*
X5513700Y-6791325D02*
G75*
G03*
X5513700Y-6791325I-40000J0D01*
G01*
X5513700Y-8696325D02*
G75*
G03*
X5513700Y-8696325I-40000J0D01*
G01*
X5513700Y-10601325D02*
G75*
G03*
X5513700Y-10601325I-40000J0D01*
G01*
X5526400Y-4505325D02*
G75*
G03*
X5526400Y-4505325I-40000J0D01*
G01*
X5526400Y-6410325D02*
G75*
G03*
X5526400Y-6410325I-40000J0D01*
G01*
X5526400Y-8315325D02*
G75*
G03*
X5526400Y-8315325I-40000J0D01*
G01*
X5526400Y-10220325D02*
G75*
G03*
X5526400Y-10220325I-40000J0D01*
G01*
X5526400Y-12125325D02*
G75*
G03*
X5526400Y-12125325I-40000J0D01*
G01*
X5894700Y-2981325D02*
G75*
G03*
X5894700Y-2981325I-40000J0D01*
G01*
X5894700Y-3362325D02*
G75*
G03*
X5894700Y-3362325I-40000J0D01*
G01*
X5894700Y-3616325D02*
G75*
G03*
X5894700Y-3616325I-40000J0D01*
G01*
X5894700Y-4238625D02*
G75*
G03*
X5894700Y-4238625I-40000J0D01*
G01*
X5894700Y-4505325D02*
G75*
G03*
X5894700Y-4505325I-40000J0D01*
G01*
X5894700Y-4886325D02*
G75*
G03*
X5894700Y-4886325I-40000J0D01*
G01*
X5894700Y-5267325D02*
G75*
G03*
X5894700Y-5267325I-40000J0D01*
G01*
X5894700Y-5521325D02*
G75*
G03*
X5894700Y-5521325I-40000J0D01*
G01*
X5894700Y-6143625D02*
G75*
G03*
X5894700Y-6143625I-40000J0D01*
G01*
X5894700Y-6410325D02*
G75*
G03*
X5894700Y-6410325I-40000J0D01*
G01*
X5894700Y-6791325D02*
G75*
G03*
X5894700Y-6791325I-40000J0D01*
G01*
X5894700Y-7172325D02*
G75*
G03*
X5894700Y-7172325I-40000J0D01*
G01*
X5894700Y-7426325D02*
G75*
G03*
X5894700Y-7426325I-40000J0D01*
G01*
X5894700Y-8048625D02*
G75*
G03*
X5894700Y-8048625I-40000J0D01*
G01*
X5894700Y-8315325D02*
G75*
G03*
X5894700Y-8315325I-40000J0D01*
G01*
X5894700Y-8696325D02*
G75*
G03*
X5894700Y-8696325I-40000J0D01*
G01*
X5894700Y-9077325D02*
G75*
G03*
X5894700Y-9077325I-40000J0D01*
G01*
X5894700Y-9331325D02*
G75*
G03*
X5894700Y-9331325I-40000J0D01*
G01*
X5894700Y-9953625D02*
G75*
G03*
X5894700Y-9953625I-40000J0D01*
G01*
X5894700Y-10220325D02*
G75*
G03*
X5894700Y-10220325I-40000J0D01*
G01*
X5894700Y-10601325D02*
G75*
G03*
X5894700Y-10601325I-40000J0D01*
G01*
X5894700Y-10982325D02*
G75*
G03*
X5894700Y-10982325I-40000J0D01*
G01*
X5894700Y-11236325D02*
G75*
G03*
X5894700Y-11236325I-40000J0D01*
G01*
X5894700Y-11858625D02*
G75*
G03*
X5894700Y-11858625I-40000J0D01*
G01*
X5894700Y-12125325D02*
G75*
G03*
X5894700Y-12125325I-40000J0D01*
G01*
X6275700Y-2981325D02*
G75*
G03*
X6275700Y-2981325I-40000J0D01*
G01*
X6275700Y-3362325D02*
G75*
G03*
X6275700Y-3362325I-40000J0D01*
G01*
X6275700Y-3616325D02*
G75*
G03*
X6275700Y-3616325I-40000J0D01*
G01*
X6275700Y-3870325D02*
G75*
G03*
X6275700Y-3870325I-40000J0D01*
G01*
X6275700Y-4505325D02*
G75*
G03*
X6275700Y-4505325I-40000J0D01*
G01*
X6275700Y-4886325D02*
G75*
G03*
X6275700Y-4886325I-40000J0D01*
G01*
X6275700Y-5267325D02*
G75*
G03*
X6275700Y-5267325I-40000J0D01*
G01*
X6275700Y-5521325D02*
G75*
G03*
X6275700Y-5521325I-40000J0D01*
G01*
X6275700Y-5775325D02*
G75*
G03*
X6275700Y-5775325I-40000J0D01*
G01*
X6275700Y-6410325D02*
G75*
G03*
X6275700Y-6410325I-40000J0D01*
G01*
X6275700Y-6791325D02*
G75*
G03*
X6275700Y-6791325I-40000J0D01*
G01*
X6275700Y-7172325D02*
G75*
G03*
X6275700Y-7172325I-40000J0D01*
G01*
X6275700Y-7426325D02*
G75*
G03*
X6275700Y-7426325I-40000J0D01*
G01*
X6275700Y-7680325D02*
G75*
G03*
X6275700Y-7680325I-40000J0D01*
G01*
X6275700Y-8315325D02*
G75*
G03*
X6275700Y-8315325I-40000J0D01*
G01*
X6275700Y-8696325D02*
G75*
G03*
X6275700Y-8696325I-40000J0D01*
G01*
X6275700Y-9077325D02*
G75*
G03*
X6275700Y-9077325I-40000J0D01*
G01*
X6275700Y-9331325D02*
G75*
G03*
X6275700Y-9331325I-40000J0D01*
G01*
X6275700Y-9585325D02*
G75*
G03*
X6275700Y-9585325I-40000J0D01*
G01*
X6275700Y-10220325D02*
G75*
G03*
X6275700Y-10220325I-40000J0D01*
G01*
X6275700Y-10601325D02*
G75*
G03*
X6275700Y-10601325I-40000J0D01*
G01*
X6275700Y-10982325D02*
G75*
G03*
X6275700Y-10982325I-40000J0D01*
G01*
X6275700Y-11236325D02*
G75*
G03*
X6275700Y-11236325I-40000J0D01*
G01*
X6275700Y-11490325D02*
G75*
G03*
X6275700Y-11490325I-40000J0D01*
G01*
X6275700Y-12125325D02*
G75*
G03*
X6275700Y-12125325I-40000J0D01*
G01*
X6591500Y-4518025D02*
G75*
G03*
X6591500Y-4518025I-40000J0D01*
G01*
X6591500Y-6423025D02*
G75*
G03*
X6591500Y-6423025I-40000J0D01*
G01*
X6591500Y-8328025D02*
G75*
G03*
X6591500Y-8328025I-40000J0D01*
G01*
X6591500Y-10233025D02*
G75*
G03*
X6591500Y-10233025I-40000J0D01*
G01*
X6591500Y-12138025D02*
G75*
G03*
X6591500Y-12138025I-40000J0D01*
G01*
X7226500Y-4518025D02*
G75*
G03*
X7226500Y-4518025I-40000J0D01*
G01*
X7226500Y-6423025D02*
G75*
G03*
X7226500Y-6423025I-40000J0D01*
G01*
X7226500Y-8328025D02*
G75*
G03*
X7226500Y-8328025I-40000J0D01*
G01*
X7226500Y-10233025D02*
G75*
G03*
X7226500Y-10233025I-40000J0D01*
G01*
X7226500Y-12138025D02*
G75*
G03*
X7226500Y-12138025I-40000J0D01*
G01*
X7418700Y-2981325D02*
G75*
G03*
X7418700Y-2981325I-40000J0D01*
G01*
X7418700Y-4886325D02*
G75*
G03*
X7418700Y-4886325I-40000J0D01*
G01*
X7418700Y-6791325D02*
G75*
G03*
X7418700Y-6791325I-40000J0D01*
G01*
X7418700Y-8696325D02*
G75*
G03*
X7418700Y-8696325I-40000J0D01*
G01*
X7418700Y-10601325D02*
G75*
G03*
X7418700Y-10601325I-40000J0D01*
G01*
X7431400Y-4505325D02*
G75*
G03*
X7431400Y-4505325I-40000J0D01*
G01*
X7431400Y-6410325D02*
G75*
G03*
X7431400Y-6410325I-40000J0D01*
G01*
X7431400Y-8315325D02*
G75*
G03*
X7431400Y-8315325I-40000J0D01*
G01*
X7431400Y-10220325D02*
G75*
G03*
X7431400Y-10220325I-40000J0D01*
G01*
X7431400Y-12125325D02*
G75*
G03*
X7431400Y-12125325I-40000J0D01*
G01*
X7799700Y-2981325D02*
G75*
G03*
X7799700Y-2981325I-40000J0D01*
G01*
X7799700Y-3362325D02*
G75*
G03*
X7799700Y-3362325I-40000J0D01*
G01*
X7799700Y-3616325D02*
G75*
G03*
X7799700Y-3616325I-40000J0D01*
G01*
X7799700Y-4238625D02*
G75*
G03*
X7799700Y-4238625I-40000J0D01*
G01*
X7799700Y-4505325D02*
G75*
G03*
X7799700Y-4505325I-40000J0D01*
G01*
X7799700Y-4886325D02*
G75*
G03*
X7799700Y-4886325I-40000J0D01*
G01*
X7799700Y-5267325D02*
G75*
G03*
X7799700Y-5267325I-40000J0D01*
G01*
X7799700Y-5521325D02*
G75*
G03*
X7799700Y-5521325I-40000J0D01*
G01*
X7799700Y-6143625D02*
G75*
G03*
X7799700Y-6143625I-40000J0D01*
G01*
X7799700Y-6410325D02*
G75*
G03*
X7799700Y-6410325I-40000J0D01*
G01*
X7799700Y-6791325D02*
G75*
G03*
X7799700Y-6791325I-40000J0D01*
G01*
X7799700Y-7172325D02*
G75*
G03*
X7799700Y-7172325I-40000J0D01*
G01*
X7799700Y-7426325D02*
G75*
G03*
X7799700Y-7426325I-40000J0D01*
G01*
X7799700Y-8048625D02*
G75*
G03*
X7799700Y-8048625I-40000J0D01*
G01*
X7799700Y-8315325D02*
G75*
G03*
X7799700Y-8315325I-40000J0D01*
G01*
X7799700Y-8696325D02*
G75*
G03*
X7799700Y-8696325I-40000J0D01*
G01*
X7799700Y-9077325D02*
G75*
G03*
X7799700Y-9077325I-40000J0D01*
G01*
X7799700Y-9331325D02*
G75*
G03*
X7799700Y-9331325I-40000J0D01*
G01*
X7799700Y-9953625D02*
G75*
G03*
X7799700Y-9953625I-40000J0D01*
G01*
X7799700Y-10220325D02*
G75*
G03*
X7799700Y-10220325I-40000J0D01*
G01*
X7799700Y-10601325D02*
G75*
G03*
X7799700Y-10601325I-40000J0D01*
G01*
X7799700Y-10982325D02*
G75*
G03*
X7799700Y-10982325I-40000J0D01*
G01*
X7799700Y-11236325D02*
G75*
G03*
X7799700Y-11236325I-40000J0D01*
G01*
X7799700Y-11858625D02*
G75*
G03*
X7799700Y-11858625I-40000J0D01*
G01*
X7799700Y-12125325D02*
G75*
G03*
X7799700Y-12125325I-40000J0D01*
G01*
X8180700Y-2981325D02*
G75*
G03*
X8180700Y-2981325I-40000J0D01*
G01*
X8180700Y-3362325D02*
G75*
G03*
X8180700Y-3362325I-40000J0D01*
G01*
X8180700Y-3616325D02*
G75*
G03*
X8180700Y-3616325I-40000J0D01*
G01*
X8180700Y-3870325D02*
G75*
G03*
X8180700Y-3870325I-40000J0D01*
G01*
X8180700Y-4505325D02*
G75*
G03*
X8180700Y-4505325I-40000J0D01*
G01*
X8180700Y-4886325D02*
G75*
G03*
X8180700Y-4886325I-40000J0D01*
G01*
X8180700Y-5267325D02*
G75*
G03*
X8180700Y-5267325I-40000J0D01*
G01*
X8180700Y-5521325D02*
G75*
G03*
X8180700Y-5521325I-40000J0D01*
G01*
X8180700Y-5775325D02*
G75*
G03*
X8180700Y-5775325I-40000J0D01*
G01*
X8180700Y-6410325D02*
G75*
G03*
X8180700Y-6410325I-40000J0D01*
G01*
X8180700Y-6791325D02*
G75*
G03*
X8180700Y-6791325I-40000J0D01*
G01*
X8180700Y-7172325D02*
G75*
G03*
X8180700Y-7172325I-40000J0D01*
G01*
X8180700Y-7426325D02*
G75*
G03*
X8180700Y-7426325I-40000J0D01*
G01*
X8180700Y-7680325D02*
G75*
G03*
X8180700Y-7680325I-40000J0D01*
G01*
X8180700Y-8315325D02*
G75*
G03*
X8180700Y-8315325I-40000J0D01*
G01*
X8180700Y-8696325D02*
G75*
G03*
X8180700Y-8696325I-40000J0D01*
G01*
X8180700Y-9077325D02*
G75*
G03*
X8180700Y-9077325I-40000J0D01*
G01*
X8180700Y-9331325D02*
G75*
G03*
X8180700Y-9331325I-40000J0D01*
G01*
X8180700Y-9585325D02*
G75*
G03*
X8180700Y-9585325I-40000J0D01*
G01*
X8180700Y-10220325D02*
G75*
G03*
X8180700Y-10220325I-40000J0D01*
G01*
X8180700Y-10601325D02*
G75*
G03*
X8180700Y-10601325I-40000J0D01*
G01*
X8180700Y-10982325D02*
G75*
G03*
X8180700Y-10982325I-40000J0D01*
G01*
X8180700Y-11236325D02*
G75*
G03*
X8180700Y-11236325I-40000J0D01*
G01*
X8180700Y-11490325D02*
G75*
G03*
X8180700Y-11490325I-40000J0D01*
G01*
X8180700Y-12125325D02*
G75*
G03*
X8180700Y-12125325I-40000J0D01*
G01*
X8496500Y-4518025D02*
G75*
G03*
X8496500Y-4518025I-40000J0D01*
G01*
X8496500Y-6423025D02*
G75*
G03*
X8496500Y-6423025I-40000J0D01*
G01*
X8496500Y-8328025D02*
G75*
G03*
X8496500Y-8328025I-40000J0D01*
G01*
X8496500Y-10233025D02*
G75*
G03*
X8496500Y-10233025I-40000J0D01*
G01*
X8496500Y-12138025D02*
G75*
G03*
X8496500Y-12138025I-40000J0D01*
G01*
X9131500Y-4518025D02*
G75*
G03*
X9131500Y-4518025I-40000J0D01*
G01*
X9131500Y-6423025D02*
G75*
G03*
X9131500Y-6423025I-40000J0D01*
G01*
X9131500Y-8328025D02*
G75*
G03*
X9131500Y-8328025I-40000J0D01*
G01*
X9131500Y-10233025D02*
G75*
G03*
X9131500Y-10233025I-40000J0D01*
G01*
X9131500Y-12138025D02*
G75*
G03*
X9131500Y-12138025I-40000J0D01*
G01*
X9323700Y-2981325D02*
G75*
G03*
X9323700Y-2981325I-40000J0D01*
G01*
X9323700Y-4886325D02*
G75*
G03*
X9323700Y-4886325I-40000J0D01*
G01*
X9323700Y-6791325D02*
G75*
G03*
X9323700Y-6791325I-40000J0D01*
G01*
X9323700Y-8696325D02*
G75*
G03*
X9323700Y-8696325I-40000J0D01*
G01*
X9323700Y-10601325D02*
G75*
G03*
X9323700Y-10601325I-40000J0D01*
G01*
X9336400Y-4505325D02*
G75*
G03*
X9336400Y-4505325I-40000J0D01*
G01*
X9336400Y-6410325D02*
G75*
G03*
X9336400Y-6410325I-40000J0D01*
G01*
X9336400Y-8315325D02*
G75*
G03*
X9336400Y-8315325I-40000J0D01*
G01*
X9336400Y-10220325D02*
G75*
G03*
X9336400Y-10220325I-40000J0D01*
G01*
X9336400Y-12125325D02*
G75*
G03*
X9336400Y-12125325I-40000J0D01*
G01*
X9704700Y-2981325D02*
G75*
G03*
X9704700Y-2981325I-40000J0D01*
G01*
X9704700Y-3362325D02*
G75*
G03*
X9704700Y-3362325I-40000J0D01*
G01*
X9704700Y-3616325D02*
G75*
G03*
X9704700Y-3616325I-40000J0D01*
G01*
X9704700Y-4238625D02*
G75*
G03*
X9704700Y-4238625I-40000J0D01*
G01*
X9704700Y-4505325D02*
G75*
G03*
X9704700Y-4505325I-40000J0D01*
G01*
X9704700Y-4886325D02*
G75*
G03*
X9704700Y-4886325I-40000J0D01*
G01*
X9704700Y-5267325D02*
G75*
G03*
X9704700Y-5267325I-40000J0D01*
G01*
X9704700Y-5521325D02*
G75*
G03*
X9704700Y-5521325I-40000J0D01*
G01*
X9704700Y-6143625D02*
G75*
G03*
X9704700Y-6143625I-40000J0D01*
G01*
X9704700Y-6410325D02*
G75*
G03*
X9704700Y-6410325I-40000J0D01*
G01*
X9704700Y-6791325D02*
G75*
G03*
X9704700Y-6791325I-40000J0D01*
G01*
X9704700Y-7172325D02*
G75*
G03*
X9704700Y-7172325I-40000J0D01*
G01*
X9704700Y-7426325D02*
G75*
G03*
X9704700Y-7426325I-40000J0D01*
G01*
X9704700Y-8048625D02*
G75*
G03*
X9704700Y-8048625I-40000J0D01*
G01*
X9704700Y-8315325D02*
G75*
G03*
X9704700Y-8315325I-40000J0D01*
G01*
X9704700Y-8696325D02*
G75*
G03*
X9704700Y-8696325I-40000J0D01*
G01*
X9704700Y-9077325D02*
G75*
G03*
X9704700Y-9077325I-40000J0D01*
G01*
X9704700Y-9331325D02*
G75*
G03*
X9704700Y-9331325I-40000J0D01*
G01*
X9704700Y-9953625D02*
G75*
G03*
X9704700Y-9953625I-40000J0D01*
G01*
X9704700Y-10220325D02*
G75*
G03*
X9704700Y-10220325I-40000J0D01*
G01*
X9704700Y-10601325D02*
G75*
G03*
X9704700Y-10601325I-40000J0D01*
G01*
X9704700Y-10982325D02*
G75*
G03*
X9704700Y-10982325I-40000J0D01*
G01*
X9704700Y-11236325D02*
G75*
G03*
X9704700Y-11236325I-40000J0D01*
G01*
X9704700Y-11858625D02*
G75*
G03*
X9704700Y-11858625I-40000J0D01*
G01*
X9704700Y-12125325D02*
G75*
G03*
X9704700Y-12125325I-40000J0D01*
G01*
X10085700Y-2981325D02*
G75*
G03*
X10085700Y-2981325I-40000J0D01*
G01*
X10085700Y-3362325D02*
G75*
G03*
X10085700Y-3362325I-40000J0D01*
G01*
X10085700Y-3616325D02*
G75*
G03*
X10085700Y-3616325I-40000J0D01*
G01*
X10085700Y-3870325D02*
G75*
G03*
X10085700Y-3870325I-40000J0D01*
G01*
X10085700Y-4505325D02*
G75*
G03*
X10085700Y-4505325I-40000J0D01*
G01*
X10085700Y-4886325D02*
G75*
G03*
X10085700Y-4886325I-40000J0D01*
G01*
X10085700Y-5267325D02*
G75*
G03*
X10085700Y-5267325I-40000J0D01*
G01*
X10085700Y-5521325D02*
G75*
G03*
X10085700Y-5521325I-40000J0D01*
G01*
X10085700Y-5775325D02*
G75*
G03*
X10085700Y-5775325I-40000J0D01*
G01*
X10085700Y-6410325D02*
G75*
G03*
X10085700Y-6410325I-40000J0D01*
G01*
X10085700Y-6791325D02*
G75*
G03*
X10085700Y-6791325I-40000J0D01*
G01*
X10085700Y-7172325D02*
G75*
G03*
X10085700Y-7172325I-40000J0D01*
G01*
X10085700Y-7426325D02*
G75*
G03*
X10085700Y-7426325I-40000J0D01*
G01*
X10085700Y-7680325D02*
G75*
G03*
X10085700Y-7680325I-40000J0D01*
G01*
X10085700Y-8315325D02*
G75*
G03*
X10085700Y-8315325I-40000J0D01*
G01*
X10085700Y-8696325D02*
G75*
G03*
X10085700Y-8696325I-40000J0D01*
G01*
X10085700Y-9077325D02*
G75*
G03*
X10085700Y-9077325I-40000J0D01*
G01*
X10085700Y-9331325D02*
G75*
G03*
X10085700Y-9331325I-40000J0D01*
G01*
X10085700Y-9585325D02*
G75*
G03*
X10085700Y-9585325I-40000J0D01*
G01*
X10085700Y-10220325D02*
G75*
G03*
X10085700Y-10220325I-40000J0D01*
G01*
X10085700Y-10601325D02*
G75*
G03*
X10085700Y-10601325I-40000J0D01*
G01*
X10085700Y-10982325D02*
G75*
G03*
X10085700Y-10982325I-40000J0D01*
G01*
X10085700Y-11236325D02*
G75*
G03*
X10085700Y-11236325I-40000J0D01*
G01*
X10085700Y-11490325D02*
G75*
G03*
X10085700Y-11490325I-40000J0D01*
G01*
X10085700Y-12125325D02*
G75*
G03*
X10085700Y-12125325I-40000J0D01*
G01*
X10401500Y-4518025D02*
G75*
G03*
X10401500Y-4518025I-40000J0D01*
G01*
X10401500Y-6423025D02*
G75*
G03*
X10401500Y-6423025I-40000J0D01*
G01*
X10401500Y-8328025D02*
G75*
G03*
X10401500Y-8328025I-40000J0D01*
G01*
X10401500Y-10233025D02*
G75*
G03*
X10401500Y-10233025I-40000J0D01*
G01*
X10401500Y-12138025D02*
G75*
G03*
X10401500Y-12138025I-40000J0D01*
G01*
X11036500Y-4518025D02*
G75*
G03*
X11036500Y-4518025I-40000J0D01*
G01*
X11036500Y-6423025D02*
G75*
G03*
X11036500Y-6423025I-40000J0D01*
G01*
X11036500Y-8328025D02*
G75*
G03*
X11036500Y-8328025I-40000J0D01*
G01*
X11036500Y-10233025D02*
G75*
G03*
X11036500Y-10233025I-40000J0D01*
G01*
X11036500Y-12138025D02*
G75*
G03*
X11036500Y-12138025I-40000J0D01*
G01*
X11228700Y-2981325D02*
G75*
G03*
X11228700Y-2981325I-40000J0D01*
G01*
X11228700Y-4886325D02*
G75*
G03*
X11228700Y-4886325I-40000J0D01*
G01*
X11228700Y-6791325D02*
G75*
G03*
X11228700Y-6791325I-40000J0D01*
G01*
X11228700Y-8696325D02*
G75*
G03*
X11228700Y-8696325I-40000J0D01*
G01*
X11228700Y-10601325D02*
G75*
G03*
X11228700Y-10601325I-40000J0D01*
G01*
X11241400Y-4505325D02*
G75*
G03*
X11241400Y-4505325I-40000J0D01*
G01*
X11241400Y-6410325D02*
G75*
G03*
X11241400Y-6410325I-40000J0D01*
G01*
X11241400Y-8315325D02*
G75*
G03*
X11241400Y-8315325I-40000J0D01*
G01*
X11241400Y-10220325D02*
G75*
G03*
X11241400Y-10220325I-40000J0D01*
G01*
X11241400Y-12125325D02*
G75*
G03*
X11241400Y-12125325I-40000J0D01*
G01*
X11609700Y-2981325D02*
G75*
G03*
X11609700Y-2981325I-40000J0D01*
G01*
X11609700Y-3362325D02*
G75*
G03*
X11609700Y-3362325I-40000J0D01*
G01*
X11609700Y-3616325D02*
G75*
G03*
X11609700Y-3616325I-40000J0D01*
G01*
X11609700Y-4238625D02*
G75*
G03*
X11609700Y-4238625I-40000J0D01*
G01*
X11609700Y-4505325D02*
G75*
G03*
X11609700Y-4505325I-40000J0D01*
G01*
X11609700Y-4886325D02*
G75*
G03*
X11609700Y-4886325I-40000J0D01*
G01*
X11609700Y-5267325D02*
G75*
G03*
X11609700Y-5267325I-40000J0D01*
G01*
X11609700Y-5521325D02*
G75*
G03*
X11609700Y-5521325I-40000J0D01*
G01*
X11609700Y-6143625D02*
G75*
G03*
X11609700Y-6143625I-40000J0D01*
G01*
X11609700Y-6410325D02*
G75*
G03*
X11609700Y-6410325I-40000J0D01*
G01*
X11609700Y-6791325D02*
G75*
G03*
X11609700Y-6791325I-40000J0D01*
G01*
X11609700Y-7172325D02*
G75*
G03*
X11609700Y-7172325I-40000J0D01*
G01*
X11609700Y-7426325D02*
G75*
G03*
X11609700Y-7426325I-40000J0D01*
G01*
X11609700Y-8048625D02*
G75*
G03*
X11609700Y-8048625I-40000J0D01*
G01*
X11609700Y-8315325D02*
G75*
G03*
X11609700Y-8315325I-40000J0D01*
G01*
X11609700Y-8696325D02*
G75*
G03*
X11609700Y-8696325I-40000J0D01*
G01*
X11609700Y-9077325D02*
G75*
G03*
X11609700Y-9077325I-40000J0D01*
G01*
X11609700Y-9331325D02*
G75*
G03*
X11609700Y-9331325I-40000J0D01*
G01*
X11609700Y-9953625D02*
G75*
G03*
X11609700Y-9953625I-40000J0D01*
G01*
X11609700Y-10220325D02*
G75*
G03*
X11609700Y-10220325I-40000J0D01*
G01*
X11609700Y-10601325D02*
G75*
G03*
X11609700Y-10601325I-40000J0D01*
G01*
X11609700Y-10982325D02*
G75*
G03*
X11609700Y-10982325I-40000J0D01*
G01*
X11609700Y-11236325D02*
G75*
G03*
X11609700Y-11236325I-40000J0D01*
G01*
X11609700Y-11858625D02*
G75*
G03*
X11609700Y-11858625I-40000J0D01*
G01*
X11609700Y-12125325D02*
G75*
G03*
X11609700Y-12125325I-40000J0D01*
G01*
X11990700Y-2981325D02*
G75*
G03*
X11990700Y-2981325I-40000J0D01*
G01*
X11990700Y-3362325D02*
G75*
G03*
X11990700Y-3362325I-40000J0D01*
G01*
X11990700Y-3616325D02*
G75*
G03*
X11990700Y-3616325I-40000J0D01*
G01*
X11990700Y-3870325D02*
G75*
G03*
X11990700Y-3870325I-40000J0D01*
G01*
X11990700Y-4505325D02*
G75*
G03*
X11990700Y-4505325I-40000J0D01*
G01*
X11990700Y-4886325D02*
G75*
G03*
X11990700Y-4886325I-40000J0D01*
G01*
X11990700Y-5267325D02*
G75*
G03*
X11990700Y-5267325I-40000J0D01*
G01*
X11990700Y-5521325D02*
G75*
G03*
X11990700Y-5521325I-40000J0D01*
G01*
X11990700Y-5775325D02*
G75*
G03*
X11990700Y-5775325I-40000J0D01*
G01*
X11990700Y-6410325D02*
G75*
G03*
X11990700Y-6410325I-40000J0D01*
G01*
X11990700Y-6791325D02*
G75*
G03*
X11990700Y-6791325I-40000J0D01*
G01*
X11990700Y-7172325D02*
G75*
G03*
X11990700Y-7172325I-40000J0D01*
G01*
X11990700Y-7426325D02*
G75*
G03*
X11990700Y-7426325I-40000J0D01*
G01*
X11990700Y-7680325D02*
G75*
G03*
X11990700Y-7680325I-40000J0D01*
G01*
X11990700Y-8315325D02*
G75*
G03*
X11990700Y-8315325I-40000J0D01*
G01*
X11990700Y-8696325D02*
G75*
G03*
X11990700Y-8696325I-40000J0D01*
G01*
X11990700Y-9077325D02*
G75*
G03*
X11990700Y-9077325I-40000J0D01*
G01*
X11990700Y-9331325D02*
G75*
G03*
X11990700Y-9331325I-40000J0D01*
G01*
X11990700Y-9585325D02*
G75*
G03*
X11990700Y-9585325I-40000J0D01*
G01*
X11990700Y-10220325D02*
G75*
G03*
X11990700Y-10220325I-40000J0D01*
G01*
X11990700Y-10601325D02*
G75*
G03*
X11990700Y-10601325I-40000J0D01*
G01*
X11990700Y-10982325D02*
G75*
G03*
X11990700Y-10982325I-40000J0D01*
G01*
X11990700Y-11236325D02*
G75*
G03*
X11990700Y-11236325I-40000J0D01*
G01*
X11990700Y-11490325D02*
G75*
G03*
X11990700Y-11490325I-40000J0D01*
G01*
X11990700Y-12125325D02*
G75*
G03*
X11990700Y-12125325I-40000J0D01*
G01*
X12306500Y-4518025D02*
G75*
G03*
X12306500Y-4518025I-40000J0D01*
G01*
X12306500Y-6423025D02*
G75*
G03*
X12306500Y-6423025I-40000J0D01*
G01*
X12306500Y-8328025D02*
G75*
G03*
X12306500Y-8328025I-40000J0D01*
G01*
X12306500Y-10233025D02*
G75*
G03*
X12306500Y-10233025I-40000J0D01*
G01*
X12306500Y-12138025D02*
G75*
G03*
X12306500Y-12138025I-40000J0D01*
G01*
X12941500Y-4518025D02*
G75*
G03*
X12941500Y-4518025I-40000J0D01*
G01*
X12941500Y-6423025D02*
G75*
G03*
X12941500Y-6423025I-40000J0D01*
G01*
X12941500Y-8328025D02*
G75*
G03*
X12941500Y-8328025I-40000J0D01*
G01*
X12941500Y-10233025D02*
G75*
G03*
X12941500Y-10233025I-40000J0D01*
G01*
X12941500Y-12138025D02*
G75*
G03*
X12941500Y-12138025I-40000J0D01*
G01*
X13133700Y-2981325D02*
G75*
G03*
X13133700Y-2981325I-40000J0D01*
G01*
X13133700Y-4886325D02*
G75*
G03*
X13133700Y-4886325I-40000J0D01*
G01*
X13133700Y-6791325D02*
G75*
G03*
X13133700Y-6791325I-40000J0D01*
G01*
X13133700Y-8696325D02*
G75*
G03*
X13133700Y-8696325I-40000J0D01*
G01*
X13133700Y-10601325D02*
G75*
G03*
X13133700Y-10601325I-40000J0D01*
G01*
X13146400Y-4505325D02*
G75*
G03*
X13146400Y-4505325I-40000J0D01*
G01*
X13146400Y-6410325D02*
G75*
G03*
X13146400Y-6410325I-40000J0D01*
G01*
X13146400Y-8315325D02*
G75*
G03*
X13146400Y-8315325I-40000J0D01*
G01*
X13146400Y-10220325D02*
G75*
G03*
X13146400Y-10220325I-40000J0D01*
G01*
X13146400Y-12125325D02*
G75*
G03*
X13146400Y-12125325I-40000J0D01*
G01*
X13514700Y-2981325D02*
G75*
G03*
X13514700Y-2981325I-40000J0D01*
G01*
X13514700Y-3362325D02*
G75*
G03*
X13514700Y-3362325I-40000J0D01*
G01*
X13514700Y-3616325D02*
G75*
G03*
X13514700Y-3616325I-40000J0D01*
G01*
X13514700Y-4238625D02*
G75*
G03*
X13514700Y-4238625I-40000J0D01*
G01*
X13514700Y-4505325D02*
G75*
G03*
X13514700Y-4505325I-40000J0D01*
G01*
X13514700Y-4886325D02*
G75*
G03*
X13514700Y-4886325I-40000J0D01*
G01*
X13514700Y-5267325D02*
G75*
G03*
X13514700Y-5267325I-40000J0D01*
G01*
X13514700Y-5521325D02*
G75*
G03*
X13514700Y-5521325I-40000J0D01*
G01*
X13514700Y-6143625D02*
G75*
G03*
X13514700Y-6143625I-40000J0D01*
G01*
X13514700Y-6410325D02*
G75*
G03*
X13514700Y-6410325I-40000J0D01*
G01*
X13514700Y-6791325D02*
G75*
G03*
X13514700Y-6791325I-40000J0D01*
G01*
X13514700Y-7172325D02*
G75*
G03*
X13514700Y-7172325I-40000J0D01*
G01*
X13514700Y-7426325D02*
G75*
G03*
X13514700Y-7426325I-40000J0D01*
G01*
X13514700Y-8048625D02*
G75*
G03*
X13514700Y-8048625I-40000J0D01*
G01*
X13514700Y-8315325D02*
G75*
G03*
X13514700Y-8315325I-40000J0D01*
G01*
X13514700Y-8696325D02*
G75*
G03*
X13514700Y-8696325I-40000J0D01*
G01*
X13514700Y-9077325D02*
G75*
G03*
X13514700Y-9077325I-40000J0D01*
G01*
X13514700Y-9331325D02*
G75*
G03*
X13514700Y-9331325I-40000J0D01*
G01*
X13514700Y-9953625D02*
G75*
G03*
X13514700Y-9953625I-40000J0D01*
G01*
X13514700Y-10220325D02*
G75*
G03*
X13514700Y-10220325I-40000J0D01*
G01*
X13514700Y-10601325D02*
G75*
G03*
X13514700Y-10601325I-40000J0D01*
G01*
X13514700Y-10982325D02*
G75*
G03*
X13514700Y-10982325I-40000J0D01*
G01*
X13514700Y-11236325D02*
G75*
G03*
X13514700Y-11236325I-40000J0D01*
G01*
X13514700Y-11858625D02*
G75*
G03*
X13514700Y-11858625I-40000J0D01*
G01*
X13514700Y-12125325D02*
G75*
G03*
X13514700Y-12125325I-40000J0D01*
G01*
D11*
X4456243Y-12567877D02*
X4456243Y-12367877D01*
X4503862Y-12367877D01*
X4532433Y-12377401D01*
X4551481Y-12396449D01*
X4561005Y-12415496D01*
X4570528Y-12453592D01*
X4570528Y-12482163D01*
X4561005Y-12520258D01*
X4551481Y-12539306D01*
X4532433Y-12558354D01*
X4503862Y-12567877D01*
X4456243Y-12567877D01*
X4656243Y-12567877D02*
X4656243Y-12434544D01*
X4656243Y-12472639D02*
X4665767Y-12453592D01*
X4675290Y-12444068D01*
X4694338Y-12434544D01*
X4713386Y-12434544D01*
X4780052Y-12567877D02*
X4780052Y-12434544D01*
X4780052Y-12367877D02*
X4770528Y-12377401D01*
X4780052Y-12386925D01*
X4789576Y-12377401D01*
X4780052Y-12367877D01*
X4780052Y-12386925D01*
X4903862Y-12567877D02*
X4884814Y-12558354D01*
X4875290Y-12539306D01*
X4875290Y-12367877D01*
X5008624Y-12567877D02*
X4989576Y-12558354D01*
X4980052Y-12539306D01*
X4980052Y-12367877D01*
X5237195Y-12567877D02*
X5237195Y-12367877D01*
X5303862Y-12510735D01*
X5370528Y-12367877D01*
X5370528Y-12567877D01*
X5551481Y-12567877D02*
X5551481Y-12463115D01*
X5541957Y-12444068D01*
X5522909Y-12434544D01*
X5484814Y-12434544D01*
X5465767Y-12444068D01*
X5551481Y-12558354D02*
X5532433Y-12567877D01*
X5484814Y-12567877D01*
X5465767Y-12558354D01*
X5456243Y-12539306D01*
X5456243Y-12520258D01*
X5465767Y-12501211D01*
X5484814Y-12491687D01*
X5532433Y-12491687D01*
X5551481Y-12482163D01*
X5646719Y-12434544D02*
X5646719Y-12634544D01*
X5646719Y-12444068D02*
X5665766Y-12434544D01*
X5703862Y-12434544D01*
X5722909Y-12444068D01*
X5732433Y-12453592D01*
X5741957Y-12472639D01*
X5741957Y-12529782D01*
X5732433Y-12548830D01*
X5722909Y-12558354D01*
X5703862Y-12567877D01*
X5665766Y-12567877D01*
X5646719Y-12558354D01*
X5827671Y-12548830D02*
X5837195Y-12558354D01*
X5827671Y-12567877D01*
X5818147Y-12558354D01*
X5827671Y-12548830D01*
X5827671Y-12567877D01*
X5827671Y-12444068D02*
X5837195Y-12453592D01*
X5827671Y-12463115D01*
X5818147Y-12453592D01*
X5827671Y-12444068D01*
X5827671Y-12463115D01*
D12*
X4158624Y-12877401D02*
X4198624Y-12917401D01*
X4198624Y-12877401D02*
X4158624Y-12917401D01*
D11*
X4494338Y-12787877D02*
X4513386Y-12787877D01*
X4532433Y-12797401D01*
X4541957Y-12806925D01*
X4551481Y-12825973D01*
X4561005Y-12864068D01*
X4561005Y-12911687D01*
X4551481Y-12949782D01*
X4541957Y-12968830D01*
X4532433Y-12978354D01*
X4513386Y-12987877D01*
X4494338Y-12987877D01*
X4475290Y-12978354D01*
X4465767Y-12968830D01*
X4456243Y-12949782D01*
X4446719Y-12911687D01*
X4446719Y-12864068D01*
X4456243Y-12825973D01*
X4465767Y-12806925D01*
X4475290Y-12797401D01*
X4494338Y-12787877D01*
X4646719Y-12968830D02*
X4656243Y-12978354D01*
X4646719Y-12987877D01*
X4637195Y-12978354D01*
X4646719Y-12968830D01*
X4646719Y-12987877D01*
X4827671Y-12854544D02*
X4827671Y-12987877D01*
X4780052Y-12778354D02*
X4732433Y-12921211D01*
X4856243Y-12921211D01*
X4970528Y-12787877D02*
X4989576Y-12787877D01*
X5008624Y-12797401D01*
X5018148Y-12806925D01*
X5027671Y-12825973D01*
X5037195Y-12864068D01*
X5037195Y-12911687D01*
X5027671Y-12949782D01*
X5018148Y-12968830D01*
X5008624Y-12978354D01*
X4989576Y-12987877D01*
X4970528Y-12987877D01*
X4951481Y-12978354D01*
X4941957Y-12968830D01*
X4932433Y-12949782D01*
X4922909Y-12911687D01*
X4922909Y-12864068D01*
X4932433Y-12825973D01*
X4941957Y-12806925D01*
X4951481Y-12797401D01*
X4970528Y-12787877D01*
X5161005Y-12787877D02*
X5180052Y-12787877D01*
X5199100Y-12797401D01*
X5208624Y-12806925D01*
X5218148Y-12825973D01*
X5227671Y-12864068D01*
X5227671Y-12911687D01*
X5218148Y-12949782D01*
X5208624Y-12968830D01*
X5199100Y-12978354D01*
X5180052Y-12987877D01*
X5161005Y-12987877D01*
X5141957Y-12978354D01*
X5132433Y-12968830D01*
X5122909Y-12949782D01*
X5113386Y-12911687D01*
X5113386Y-12864068D01*
X5122909Y-12825973D01*
X5132433Y-12806925D01*
X5141957Y-12797401D01*
X5161005Y-12787877D01*
X5313386Y-12987877D02*
X5313386Y-12854544D01*
X5313386Y-12873592D02*
X5322909Y-12864068D01*
X5341957Y-12854544D01*
X5370528Y-12854544D01*
X5389576Y-12864068D01*
X5399100Y-12883115D01*
X5399100Y-12987877D01*
X5399100Y-12883115D02*
X5408624Y-12864068D01*
X5427671Y-12854544D01*
X5456243Y-12854544D01*
X5475290Y-12864068D01*
X5484814Y-12883115D01*
X5484814Y-12987877D01*
X5580052Y-12987877D02*
X5580052Y-12854544D01*
X5580052Y-12873592D02*
X5589576Y-12864068D01*
X5608624Y-12854544D01*
X5637195Y-12854544D01*
X5656243Y-12864068D01*
X5665766Y-12883115D01*
X5665766Y-12987877D01*
X5665766Y-12883115D02*
X5675290Y-12864068D01*
X5694338Y-12854544D01*
X5722909Y-12854544D01*
X5741957Y-12864068D01*
X5751481Y-12883115D01*
X5751481Y-12987877D01*
X6141957Y-12778354D02*
X5970528Y-13035496D01*
X6399100Y-12787877D02*
X6418147Y-12787877D01*
X6437195Y-12797401D01*
X6446719Y-12806925D01*
X6456243Y-12825973D01*
X6465766Y-12864068D01*
X6465766Y-12911687D01*
X6456243Y-12949782D01*
X6446719Y-12968830D01*
X6437195Y-12978354D01*
X6418147Y-12987877D01*
X6399100Y-12987877D01*
X6380052Y-12978354D01*
X6370528Y-12968830D01*
X6361005Y-12949782D01*
X6351481Y-12911687D01*
X6351481Y-12864068D01*
X6361005Y-12825973D01*
X6370528Y-12806925D01*
X6380052Y-12797401D01*
X6399100Y-12787877D01*
X6551481Y-12968830D02*
X6561005Y-12978354D01*
X6551481Y-12987877D01*
X6541957Y-12978354D01*
X6551481Y-12968830D01*
X6551481Y-12987877D01*
X6684814Y-12787877D02*
X6703862Y-12787877D01*
X6722909Y-12797401D01*
X6732433Y-12806925D01*
X6741957Y-12825973D01*
X6751481Y-12864068D01*
X6751481Y-12911687D01*
X6741957Y-12949782D01*
X6732433Y-12968830D01*
X6722909Y-12978354D01*
X6703862Y-12987877D01*
X6684814Y-12987877D01*
X6665766Y-12978354D01*
X6656243Y-12968830D01*
X6646719Y-12949782D01*
X6637195Y-12911687D01*
X6637195Y-12864068D01*
X6646719Y-12825973D01*
X6656243Y-12806925D01*
X6665766Y-12797401D01*
X6684814Y-12787877D01*
X6941957Y-12987877D02*
X6827671Y-12987877D01*
X6884814Y-12987877D02*
X6884814Y-12787877D01*
X6865766Y-12816449D01*
X6846719Y-12835496D01*
X6827671Y-12845020D01*
X7122909Y-12787877D02*
X7027671Y-12787877D01*
X7018147Y-12883115D01*
X7027671Y-12873592D01*
X7046719Y-12864068D01*
X7094338Y-12864068D01*
X7113386Y-12873592D01*
X7122909Y-12883115D01*
X7132433Y-12902163D01*
X7132433Y-12949782D01*
X7122909Y-12968830D01*
X7113386Y-12978354D01*
X7094338Y-12987877D01*
X7046719Y-12987877D01*
X7027671Y-12978354D01*
X7018147Y-12968830D01*
X7199100Y-12787877D02*
X7332433Y-12787877D01*
X7246719Y-12987877D01*
X7399100Y-12787877D02*
X7399100Y-12825973D01*
X7475290Y-12787877D02*
X7475290Y-12825973D01*
X7770528Y-13064068D02*
X7761005Y-13054544D01*
X7741957Y-13025973D01*
X7732433Y-13006925D01*
X7722909Y-12978354D01*
X7713386Y-12930735D01*
X7713386Y-12892639D01*
X7722909Y-12845020D01*
X7732433Y-12816449D01*
X7741957Y-12797401D01*
X7761005Y-12768830D01*
X7770528Y-12759306D01*
X7837195Y-12806925D02*
X7846719Y-12797401D01*
X7865766Y-12787877D01*
X7913386Y-12787877D01*
X7932433Y-12797401D01*
X7941957Y-12806925D01*
X7951481Y-12825973D01*
X7951481Y-12845020D01*
X7941957Y-12873592D01*
X7827671Y-12987877D01*
X7951481Y-12987877D01*
X8122909Y-12854544D02*
X8122909Y-12987877D01*
X8075290Y-12778354D02*
X8027671Y-12921211D01*
X8151481Y-12921211D01*
X8265766Y-12787877D02*
X8284814Y-12787877D01*
X8303862Y-12797401D01*
X8313386Y-12806925D01*
X8322909Y-12825973D01*
X8332433Y-12864068D01*
X8332433Y-12911687D01*
X8322909Y-12949782D01*
X8313386Y-12968830D01*
X8303862Y-12978354D01*
X8284814Y-12987877D01*
X8265766Y-12987877D01*
X8246719Y-12978354D01*
X8237195Y-12968830D01*
X8227671Y-12949782D01*
X8218147Y-12911687D01*
X8218147Y-12864068D01*
X8227671Y-12825973D01*
X8237195Y-12806925D01*
X8246719Y-12797401D01*
X8265766Y-12787877D01*
X8570528Y-12987877D02*
X8570528Y-12787877D01*
X8656243Y-12987877D02*
X8656243Y-12883115D01*
X8646719Y-12864068D01*
X8627671Y-12854544D01*
X8599100Y-12854544D01*
X8580052Y-12864068D01*
X8570528Y-12873592D01*
X8780052Y-12987877D02*
X8761005Y-12978354D01*
X8751481Y-12968830D01*
X8741957Y-12949782D01*
X8741957Y-12892639D01*
X8751481Y-12873592D01*
X8761005Y-12864068D01*
X8780052Y-12854544D01*
X8808624Y-12854544D01*
X8827671Y-12864068D01*
X8837195Y-12873592D01*
X8846719Y-12892639D01*
X8846719Y-12949782D01*
X8837195Y-12968830D01*
X8827671Y-12978354D01*
X8808624Y-12987877D01*
X8780052Y-12987877D01*
X8961005Y-12987877D02*
X8941957Y-12978354D01*
X8932433Y-12959306D01*
X8932433Y-12787877D01*
X9113386Y-12978354D02*
X9094338Y-12987877D01*
X9056243Y-12987877D01*
X9037195Y-12978354D01*
X9027671Y-12959306D01*
X9027671Y-12883115D01*
X9037195Y-12864068D01*
X9056243Y-12854544D01*
X9094338Y-12854544D01*
X9113386Y-12864068D01*
X9122909Y-12883115D01*
X9122909Y-12902163D01*
X9027671Y-12921211D01*
X9199100Y-12978354D02*
X9218148Y-12987877D01*
X9256243Y-12987877D01*
X9275290Y-12978354D01*
X9284814Y-12959306D01*
X9284814Y-12949782D01*
X9275290Y-12930735D01*
X9256243Y-12921211D01*
X9227671Y-12921211D01*
X9208624Y-12911687D01*
X9199100Y-12892639D01*
X9199100Y-12883115D01*
X9208624Y-12864068D01*
X9227671Y-12854544D01*
X9256243Y-12854544D01*
X9275290Y-12864068D01*
X9351481Y-13064068D02*
X9361005Y-13054544D01*
X9380052Y-13025973D01*
X9389576Y-13006925D01*
X9399100Y-12978354D01*
X9408624Y-12930735D01*
X9408624Y-12892639D01*
X9399100Y-12845020D01*
X9389576Y-12816449D01*
X9380052Y-12797401D01*
X9361005Y-12768830D01*
X9351481Y-12759306D01*
D13*
X4198624Y-13161401D02*
G75*
G03*
X4198624Y-13161401I-40000J0D01*
G01*
D11*
X4494338Y-13051877D02*
X4513386Y-13051877D01*
X4532433Y-13061401D01*
X4541957Y-13070925D01*
X4551481Y-13089973D01*
X4561005Y-13128068D01*
X4561005Y-13175687D01*
X4551481Y-13213782D01*
X4541957Y-13232830D01*
X4532433Y-13242354D01*
X4513386Y-13251877D01*
X4494338Y-13251877D01*
X4475290Y-13242354D01*
X4465767Y-13232830D01*
X4456243Y-13213782D01*
X4446719Y-13175687D01*
X4446719Y-13128068D01*
X4456243Y-13089973D01*
X4465767Y-13070925D01*
X4475290Y-13061401D01*
X4494338Y-13051877D01*
X4646719Y-13232830D02*
X4656243Y-13242354D01*
X4646719Y-13251877D01*
X4637195Y-13242354D01*
X4646719Y-13232830D01*
X4646719Y-13251877D01*
X4770528Y-13137592D02*
X4751481Y-13128068D01*
X4741957Y-13118544D01*
X4732433Y-13099496D01*
X4732433Y-13089973D01*
X4741957Y-13070925D01*
X4751481Y-13061401D01*
X4770528Y-13051877D01*
X4808624Y-13051877D01*
X4827671Y-13061401D01*
X4837195Y-13070925D01*
X4846719Y-13089973D01*
X4846719Y-13099496D01*
X4837195Y-13118544D01*
X4827671Y-13128068D01*
X4808624Y-13137592D01*
X4770528Y-13137592D01*
X4751481Y-13147115D01*
X4741957Y-13156639D01*
X4732433Y-13175687D01*
X4732433Y-13213782D01*
X4741957Y-13232830D01*
X4751481Y-13242354D01*
X4770528Y-13251877D01*
X4808624Y-13251877D01*
X4827671Y-13242354D01*
X4837195Y-13232830D01*
X4846719Y-13213782D01*
X4846719Y-13175687D01*
X4837195Y-13156639D01*
X4827671Y-13147115D01*
X4808624Y-13137592D01*
X4970528Y-13051877D02*
X4989576Y-13051877D01*
X5008624Y-13061401D01*
X5018148Y-13070925D01*
X5027671Y-13089973D01*
X5037195Y-13128068D01*
X5037195Y-13175687D01*
X5027671Y-13213782D01*
X5018148Y-13232830D01*
X5008624Y-13242354D01*
X4989576Y-13251877D01*
X4970528Y-13251877D01*
X4951481Y-13242354D01*
X4941957Y-13232830D01*
X4932433Y-13213782D01*
X4922909Y-13175687D01*
X4922909Y-13128068D01*
X4932433Y-13089973D01*
X4941957Y-13070925D01*
X4951481Y-13061401D01*
X4970528Y-13051877D01*
X5161005Y-13051877D02*
X5180052Y-13051877D01*
X5199100Y-13061401D01*
X5208624Y-13070925D01*
X5218148Y-13089973D01*
X5227671Y-13128068D01*
X5227671Y-13175687D01*
X5218148Y-13213782D01*
X5208624Y-13232830D01*
X5199100Y-13242354D01*
X5180052Y-13251877D01*
X5161005Y-13251877D01*
X5141957Y-13242354D01*
X5132433Y-13232830D01*
X5122909Y-13213782D01*
X5113386Y-13175687D01*
X5113386Y-13128068D01*
X5122909Y-13089973D01*
X5132433Y-13070925D01*
X5141957Y-13061401D01*
X5161005Y-13051877D01*
X5313386Y-13251877D02*
X5313386Y-13118544D01*
X5313386Y-13137592D02*
X5322909Y-13128068D01*
X5341957Y-13118544D01*
X5370528Y-13118544D01*
X5389576Y-13128068D01*
X5399100Y-13147115D01*
X5399100Y-13251877D01*
X5399100Y-13147115D02*
X5408624Y-13128068D01*
X5427671Y-13118544D01*
X5456243Y-13118544D01*
X5475290Y-13128068D01*
X5484814Y-13147115D01*
X5484814Y-13251877D01*
X5580052Y-13251877D02*
X5580052Y-13118544D01*
X5580052Y-13137592D02*
X5589576Y-13128068D01*
X5608624Y-13118544D01*
X5637195Y-13118544D01*
X5656243Y-13128068D01*
X5665766Y-13147115D01*
X5665766Y-13251877D01*
X5665766Y-13147115D02*
X5675290Y-13128068D01*
X5694338Y-13118544D01*
X5722909Y-13118544D01*
X5741957Y-13128068D01*
X5751481Y-13147115D01*
X5751481Y-13251877D01*
X6141957Y-13042354D02*
X5970528Y-13299496D01*
X6399100Y-13051877D02*
X6418147Y-13051877D01*
X6437195Y-13061401D01*
X6446719Y-13070925D01*
X6456243Y-13089973D01*
X6465766Y-13128068D01*
X6465766Y-13175687D01*
X6456243Y-13213782D01*
X6446719Y-13232830D01*
X6437195Y-13242354D01*
X6418147Y-13251877D01*
X6399100Y-13251877D01*
X6380052Y-13242354D01*
X6370528Y-13232830D01*
X6361005Y-13213782D01*
X6351481Y-13175687D01*
X6351481Y-13128068D01*
X6361005Y-13089973D01*
X6370528Y-13070925D01*
X6380052Y-13061401D01*
X6399100Y-13051877D01*
X6551481Y-13232830D02*
X6561005Y-13242354D01*
X6551481Y-13251877D01*
X6541957Y-13242354D01*
X6551481Y-13232830D01*
X6551481Y-13251877D01*
X6684814Y-13051877D02*
X6703862Y-13051877D01*
X6722909Y-13061401D01*
X6732433Y-13070925D01*
X6741957Y-13089973D01*
X6751481Y-13128068D01*
X6751481Y-13175687D01*
X6741957Y-13213782D01*
X6732433Y-13232830D01*
X6722909Y-13242354D01*
X6703862Y-13251877D01*
X6684814Y-13251877D01*
X6665766Y-13242354D01*
X6656243Y-13232830D01*
X6646719Y-13213782D01*
X6637195Y-13175687D01*
X6637195Y-13128068D01*
X6646719Y-13089973D01*
X6656243Y-13070925D01*
X6665766Y-13061401D01*
X6684814Y-13051877D01*
X6818147Y-13051877D02*
X6941957Y-13051877D01*
X6875290Y-13128068D01*
X6903862Y-13128068D01*
X6922909Y-13137592D01*
X6932433Y-13147115D01*
X6941957Y-13166163D01*
X6941957Y-13213782D01*
X6932433Y-13232830D01*
X6922909Y-13242354D01*
X6903862Y-13251877D01*
X6846719Y-13251877D01*
X6827671Y-13242354D01*
X6818147Y-13232830D01*
X7132433Y-13251877D02*
X7018147Y-13251877D01*
X7075290Y-13251877D02*
X7075290Y-13051877D01*
X7056243Y-13080449D01*
X7037195Y-13099496D01*
X7018147Y-13109020D01*
X7313386Y-13051877D02*
X7218147Y-13051877D01*
X7208624Y-13147115D01*
X7218147Y-13137592D01*
X7237195Y-13128068D01*
X7284814Y-13128068D01*
X7303862Y-13137592D01*
X7313386Y-13147115D01*
X7322909Y-13166163D01*
X7322909Y-13213782D01*
X7313386Y-13232830D01*
X7303862Y-13242354D01*
X7284814Y-13251877D01*
X7237195Y-13251877D01*
X7218147Y-13242354D01*
X7208624Y-13232830D01*
X7399100Y-13051877D02*
X7399100Y-13089973D01*
X7475290Y-13051877D02*
X7475290Y-13089973D01*
X7770528Y-13328068D02*
X7761005Y-13318544D01*
X7741957Y-13289973D01*
X7732433Y-13270925D01*
X7722909Y-13242354D01*
X7713386Y-13194735D01*
X7713386Y-13156639D01*
X7722909Y-13109020D01*
X7732433Y-13080449D01*
X7741957Y-13061401D01*
X7761005Y-13032830D01*
X7770528Y-13023306D01*
X7827671Y-13051877D02*
X7951481Y-13051877D01*
X7884814Y-13128068D01*
X7913386Y-13128068D01*
X7932433Y-13137592D01*
X7941957Y-13147115D01*
X7951481Y-13166163D01*
X7951481Y-13213782D01*
X7941957Y-13232830D01*
X7932433Y-13242354D01*
X7913386Y-13251877D01*
X7856243Y-13251877D01*
X7837195Y-13242354D01*
X7827671Y-13232830D01*
X8132433Y-13051877D02*
X8037195Y-13051877D01*
X8027671Y-13147115D01*
X8037195Y-13137592D01*
X8056243Y-13128068D01*
X8103862Y-13128068D01*
X8122909Y-13137592D01*
X8132433Y-13147115D01*
X8141957Y-13166163D01*
X8141957Y-13213782D01*
X8132433Y-13232830D01*
X8122909Y-13242354D01*
X8103862Y-13251877D01*
X8056243Y-13251877D01*
X8037195Y-13242354D01*
X8027671Y-13232830D01*
X8265766Y-13051877D02*
X8284814Y-13051877D01*
X8303862Y-13061401D01*
X8313386Y-13070925D01*
X8322909Y-13089973D01*
X8332433Y-13128068D01*
X8332433Y-13175687D01*
X8322909Y-13213782D01*
X8313386Y-13232830D01*
X8303862Y-13242354D01*
X8284814Y-13251877D01*
X8265766Y-13251877D01*
X8246719Y-13242354D01*
X8237195Y-13232830D01*
X8227671Y-13213782D01*
X8218147Y-13175687D01*
X8218147Y-13128068D01*
X8227671Y-13089973D01*
X8237195Y-13070925D01*
X8246719Y-13061401D01*
X8265766Y-13051877D01*
X8570528Y-13251877D02*
X8570528Y-13051877D01*
X8656243Y-13251877D02*
X8656243Y-13147115D01*
X8646719Y-13128068D01*
X8627671Y-13118544D01*
X8599100Y-13118544D01*
X8580052Y-13128068D01*
X8570528Y-13137592D01*
X8780052Y-13251877D02*
X8761005Y-13242354D01*
X8751481Y-13232830D01*
X8741957Y-13213782D01*
X8741957Y-13156639D01*
X8751481Y-13137592D01*
X8761005Y-13128068D01*
X8780052Y-13118544D01*
X8808624Y-13118544D01*
X8827671Y-13128068D01*
X8837195Y-13137592D01*
X8846719Y-13156639D01*
X8846719Y-13213782D01*
X8837195Y-13232830D01*
X8827671Y-13242354D01*
X8808624Y-13251877D01*
X8780052Y-13251877D01*
X8961005Y-13251877D02*
X8941957Y-13242354D01*
X8932433Y-13223306D01*
X8932433Y-13051877D01*
X9113386Y-13242354D02*
X9094338Y-13251877D01*
X9056243Y-13251877D01*
X9037195Y-13242354D01*
X9027671Y-13223306D01*
X9027671Y-13147115D01*
X9037195Y-13128068D01*
X9056243Y-13118544D01*
X9094338Y-13118544D01*
X9113386Y-13128068D01*
X9122909Y-13147115D01*
X9122909Y-13166163D01*
X9027671Y-13185211D01*
X9199100Y-13242354D02*
X9218148Y-13251877D01*
X9256243Y-13251877D01*
X9275290Y-13242354D01*
X9284814Y-13223306D01*
X9284814Y-13213782D01*
X9275290Y-13194735D01*
X9256243Y-13185211D01*
X9227671Y-13185211D01*
X9208624Y-13175687D01*
X9199100Y-13156639D01*
X9199100Y-13147115D01*
X9208624Y-13128068D01*
X9227671Y-13118544D01*
X9256243Y-13118544D01*
X9275290Y-13128068D01*
X9351481Y-13328068D02*
X9361005Y-13318544D01*
X9380052Y-13289973D01*
X9389576Y-13270925D01*
X9399100Y-13242354D01*
X9408624Y-13194735D01*
X9408624Y-13156639D01*
X9399100Y-13109020D01*
X9389576Y-13080449D01*
X9380052Y-13061401D01*
X9361005Y-13032830D01*
X9351481Y-13023306D01*
M02*
