M48
; DRILL file {KiCad (6.0.0-0)} date Saturday, January 01, 2022 at 10:49:54 AM
; FORMAT={-:-/ absolute / metric / decimal}
; #@! TF.CreationDate,2022-01-01T10:49:54+00:00
; #@! TF.GenerationSoftware,Kicad,Pcbnew,(6.0.0-0)
; #@! TF.FileFunction,NonPlated,1,2,NPTH
FMAT,2
METRIC
; #@! TA.AperFunction,NonPlated,NPTH,ComponentDrill
T1C1.900
; #@! TA.AperFunction,NonPlated,NPTH,ComponentDrill
T2C3.000
; #@! TA.AperFunction,NonPlated,NPTH,ComponentDrill
T3C4.100
%
G90
G05
T1
X55.372Y-35.052
X55.372Y-54.102
X55.372Y-73.152
X55.372Y-92.202
X55.372Y-111.252
X65.532Y-35.052
X65.532Y-54.102
X65.532Y-73.152
X65.532Y-92.202
X65.532Y-111.252
X74.422Y-35.052
X74.422Y-54.102
X74.422Y-73.152
X74.422Y-92.202
X74.422Y-111.252
X84.582Y-35.052
X84.582Y-54.102
X84.582Y-73.152
X84.582Y-92.202
X84.582Y-111.252
X93.472Y-35.052
X93.472Y-54.102
X93.472Y-73.152
X93.472Y-92.202
X93.472Y-111.252
X103.632Y-35.052
X103.632Y-54.102
X103.632Y-73.152
X103.632Y-92.202
X103.632Y-111.252
X112.522Y-35.052
X112.522Y-54.102
X112.522Y-73.152
X112.522Y-92.202
X112.522Y-111.252
X122.682Y-35.052
X122.682Y-54.102
X122.682Y-73.152
X122.682Y-92.202
X122.682Y-111.252
X131.572Y-35.052
X131.572Y-54.102
X131.572Y-73.152
X131.572Y-92.202
X131.572Y-111.252
X141.732Y-35.052
X141.732Y-54.102
X141.732Y-73.152
X141.732Y-92.202
X141.732Y-111.252
T2
X57.912Y-40.132
X57.912Y-59.182
X57.912Y-78.232
X57.912Y-97.282
X57.912Y-116.332
X64.262Y-37.592
X64.262Y-56.642
X64.262Y-75.692
X64.262Y-94.742
X64.262Y-113.792
X76.962Y-40.132
X76.962Y-59.182
X76.962Y-78.232
X76.962Y-97.282
X76.962Y-116.332
X83.312Y-37.592
X83.312Y-56.642
X83.312Y-75.692
X83.312Y-94.742
X83.312Y-113.792
X96.012Y-40.132
X96.012Y-59.182
X96.012Y-78.232
X96.012Y-97.282
X96.012Y-116.332
X102.362Y-37.592
X102.362Y-56.642
X102.362Y-75.692
X102.362Y-94.742
X102.362Y-113.792
X115.062Y-40.132
X115.062Y-59.182
X115.062Y-78.232
X115.062Y-97.282
X115.062Y-116.332
X121.412Y-37.592
X121.412Y-56.642
X121.412Y-75.692
X121.412Y-94.742
X121.412Y-113.792
X134.112Y-40.132
X134.112Y-59.182
X134.112Y-78.232
X134.112Y-97.282
X134.112Y-116.332
X140.462Y-37.592
X140.462Y-56.642
X140.462Y-75.692
X140.462Y-94.742
X140.462Y-113.792
T3
X60.452Y-35.052
X60.452Y-54.102
X60.452Y-73.152
X60.452Y-92.202
X60.452Y-111.252
X79.502Y-35.052
X79.502Y-54.102
X79.502Y-73.152
X79.502Y-92.202
X79.502Y-111.252
X98.552Y-35.052
X98.552Y-54.102
X98.552Y-73.152
X98.552Y-92.202
X98.552Y-111.252
X117.602Y-35.052
X117.602Y-54.102
X117.602Y-73.152
X117.602Y-92.202
X117.602Y-111.252
X136.652Y-35.052
X136.652Y-54.102
X136.652Y-73.152
X136.652Y-92.202
X136.652Y-111.252
T0
M30
