%TF.GenerationSoftware,KiCad,Pcbnew,(6.0.0-0)*%
%TF.CreationDate,2022-01-08T22:40:35+00:00*%
%TF.ProjectId,Sarcodina,53617263-6f64-4696-9e61-2e6b69636164,rev?*%
%TF.SameCoordinates,Original*%
%TF.FileFunction,Soldermask,Top*%
%TF.FilePolarity,Negative*%
%FSLAX46Y46*%
G04 Gerber Fmt 4.6, Leading zero omitted, Abs format (unit mm)*
G04 Created by KiCad (PCBNEW (6.0.0-0)) date 2022-01-08 22:40:35*
%MOMM*%
%LPD*%
G01*
G04 APERTURE LIST*
%ADD10C,3.000000*%
%ADD11C,1.900000*%
%ADD12C,4.100000*%
%ADD13C,1.800000*%
%ADD14R,1.400000X1.400000*%
%ADD15C,1.400000*%
G04 APERTURE END LIST*
D10*
%TO.C,SW7*%
X67437000Y-118713250D03*
D11*
X75057000Y-113633250D03*
X64897000Y-113633250D03*
D10*
X73787000Y-116173250D03*
D12*
X69977000Y-113633250D03*
%TD*%
D10*
%TO.C,SW7*%
X67437000Y-61563250D03*
D11*
X64897000Y-56483250D03*
D12*
X69977000Y-56483250D03*
D10*
X73787000Y-59023250D03*
D11*
X75057000Y-56483250D03*
%TD*%
D13*
%TO.C,*%
X119507000Y-74263250D03*
%TD*%
%TO.C,*%
X100457000Y-76803250D03*
%TD*%
%TO.C,*%
X43307000Y-102203250D03*
%TD*%
D10*
%TO.C,SW7*%
X92837000Y-97123250D03*
D11*
X83947000Y-94583250D03*
D10*
X86487000Y-99663250D03*
D11*
X94107000Y-94583250D03*
D12*
X89027000Y-94583250D03*
%TD*%
D13*
%TO.C,*%
X100457000Y-33623250D03*
%TD*%
%TO.C,*%
X77597000Y-45053250D03*
%TD*%
%TO.C,*%
X96647000Y-55213250D03*
%TD*%
D11*
%TO.C,SW7*%
X113157000Y-75533250D03*
D10*
X105537000Y-80613250D03*
X111887000Y-78073250D03*
D12*
X108077000Y-75533250D03*
D11*
X102997000Y-75533250D03*
%TD*%
D13*
%TO.C,*%
X92964000Y-102203250D03*
%TD*%
%TO.C,*%
X134747000Y-106013250D03*
%TD*%
%TO.C,*%
X134747000Y-80486250D03*
%TD*%
%TO.C,*%
X77597000Y-90773250D03*
%TD*%
%TO.C,*%
X62357000Y-121253250D03*
%TD*%
%TO.C,*%
X96647000Y-80486250D03*
%TD*%
%TO.C,*%
X96647000Y-106013250D03*
%TD*%
%TO.C,*%
X77597000Y-80486250D03*
%TD*%
%TO.C,*%
X100457000Y-95853250D03*
%TD*%
%TO.C,*%
X100457000Y-67913250D03*
%TD*%
%TO.C,*%
X77597000Y-112363250D03*
%TD*%
%TO.C,*%
X119507000Y-36163250D03*
%TD*%
%TO.C,*%
X115697000Y-99536250D03*
%TD*%
%TO.C,*%
X77597000Y-52673250D03*
%TD*%
%TO.C,*%
X81407000Y-102203250D03*
%TD*%
%TO.C,*%
X96647000Y-99536250D03*
%TD*%
%TO.C,*%
X134747000Y-86963250D03*
%TD*%
%TO.C,*%
X81407000Y-45053250D03*
%TD*%
%TO.C,*%
X73787000Y-48863250D03*
%TD*%
%TO.C,*%
X134747000Y-112363250D03*
%TD*%
%TO.C,*%
X43307000Y-114903250D03*
%TD*%
%TO.C,*%
X100457000Y-29813250D03*
%TD*%
%TO.C,*%
X92837000Y-29813250D03*
%TD*%
%TO.C,*%
X100457000Y-38703250D03*
%TD*%
%TO.C,*%
X54737000Y-29813250D03*
%TD*%
%TO.C,*%
X81407000Y-33623250D03*
%TD*%
%TO.C,*%
X115697000Y-106013250D03*
%TD*%
D14*
%TO.C,D*%
X103615000Y-64230250D03*
D15*
X109965000Y-64230250D03*
%TD*%
D14*
%TO.C,D*%
X46465000Y-121380250D03*
D15*
X52815000Y-121380250D03*
%TD*%
D13*
%TO.C,*%
X115697000Y-52673250D03*
%TD*%
%TO.C,*%
X43307000Y-71723250D03*
%TD*%
D14*
%TO.C,D*%
X84565000Y-121380250D03*
D15*
X90915000Y-121380250D03*
%TD*%
D13*
%TO.C,*%
X81407000Y-36163250D03*
%TD*%
%TO.C,*%
X96647000Y-86963250D03*
%TD*%
%TO.C,*%
X43307000Y-93313250D03*
%TD*%
%TO.C,*%
X62357000Y-86963250D03*
%TD*%
%TO.C,*%
X100457000Y-48863250D03*
%TD*%
%TO.C,*%
X130937000Y-48863250D03*
%TD*%
%TO.C,*%
X62357000Y-33623250D03*
%TD*%
%TO.C,*%
X96647000Y-112363250D03*
%TD*%
%TO.C,*%
X43307000Y-109823250D03*
%TD*%
%TO.C,*%
X58547000Y-55213250D03*
%TD*%
%TO.C,*%
X96647000Y-109823250D03*
%TD*%
%TO.C,*%
X54737000Y-86963250D03*
%TD*%
%TO.C,*%
X96647000Y-90773250D03*
%TD*%
%TO.C,*%
X43307000Y-90773250D03*
%TD*%
%TO.C,*%
X119507000Y-121253250D03*
%TD*%
%TO.C,*%
X119507000Y-64103250D03*
%TD*%
%TO.C,*%
X96647000Y-118586250D03*
%TD*%
%TO.C,*%
X115697000Y-90773250D03*
%TD*%
%TO.C,*%
X96647000Y-71723250D03*
%TD*%
%TO.C,*%
X81407000Y-86963250D03*
%TD*%
%TO.C,*%
X134747000Y-61436250D03*
%TD*%
%TO.C,*%
X134747000Y-90773250D03*
%TD*%
D14*
%TO.C,D*%
X103615000Y-102330250D03*
D15*
X109965000Y-102330250D03*
%TD*%
D13*
%TO.C,*%
X115697000Y-80486250D03*
%TD*%
%TO.C,*%
X100457000Y-52673250D03*
%TD*%
%TO.C,*%
X96647000Y-48863250D03*
%TD*%
%TO.C,*%
X54864000Y-121253250D03*
%TD*%
%TO.C,*%
X92837000Y-67913250D03*
%TD*%
%TO.C,*%
X96647000Y-102203250D03*
%TD*%
D14*
%TO.C,D*%
X122665000Y-45180250D03*
D15*
X129015000Y-45180250D03*
%TD*%
D13*
%TO.C,*%
X77597000Y-86963250D03*
%TD*%
%TO.C,*%
X119507000Y-93313250D03*
%TD*%
%TO.C,*%
X77597000Y-67913250D03*
%TD*%
%TO.C,*%
X119507000Y-29813250D03*
%TD*%
%TO.C,*%
X96647000Y-64103250D03*
%TD*%
%TO.C,*%
X62357000Y-74263250D03*
%TD*%
%TO.C,*%
X77597000Y-93313250D03*
%TD*%
%TO.C,*%
X119507000Y-95853250D03*
%TD*%
D14*
%TO.C,D*%
X84565000Y-45180250D03*
D15*
X90915000Y-45180250D03*
%TD*%
D13*
%TO.C,*%
X77597000Y-106013250D03*
%TD*%
%TO.C,*%
X54864000Y-45053250D03*
%TD*%
%TO.C,*%
X112014000Y-64103250D03*
%TD*%
D11*
%TO.C,SW7*%
X75057000Y-94583250D03*
D10*
X73787000Y-97123250D03*
D11*
X64897000Y-94583250D03*
D10*
X67437000Y-99663250D03*
D12*
X69977000Y-94583250D03*
%TD*%
D13*
%TO.C,*%
X62357000Y-109823250D03*
%TD*%
%TO.C,*%
X119507000Y-48863250D03*
%TD*%
%TO.C,*%
X58547000Y-90773250D03*
%TD*%
%TO.C,*%
X62357000Y-95853250D03*
%TD*%
%TO.C,*%
X73914000Y-102203250D03*
%TD*%
%TO.C,*%
X77597000Y-121253250D03*
%TD*%
D14*
%TO.C,D*%
X103615000Y-83280250D03*
D15*
X109965000Y-83280250D03*
%TD*%
D13*
%TO.C,*%
X62357000Y-93313250D03*
%TD*%
%TO.C,*%
X100457000Y-106013250D03*
%TD*%
%TO.C,*%
X73787000Y-67913250D03*
%TD*%
%TO.C,*%
X134747000Y-45053250D03*
%TD*%
D14*
%TO.C,D*%
X46465000Y-102330250D03*
D15*
X52815000Y-102330250D03*
%TD*%
D10*
%TO.C,SW7*%
X111887000Y-116173250D03*
X105537000Y-118713250D03*
D11*
X113157000Y-113633250D03*
D12*
X108077000Y-113633250D03*
D11*
X102997000Y-113633250D03*
%TD*%
D13*
%TO.C,*%
X58547000Y-42386250D03*
%TD*%
%TO.C,*%
X119507000Y-106013250D03*
%TD*%
%TO.C,*%
X77597000Y-61436250D03*
%TD*%
%TO.C,*%
X73914000Y-64103250D03*
%TD*%
D14*
%TO.C,D*%
X65515000Y-121380250D03*
D15*
X71865000Y-121380250D03*
%TD*%
D13*
%TO.C,*%
X62357000Y-48863250D03*
%TD*%
%TO.C,*%
X100457000Y-109823250D03*
%TD*%
D11*
%TO.C,SW7*%
X64897000Y-37433250D03*
D10*
X67437000Y-42513250D03*
X73787000Y-39973250D03*
D11*
X75057000Y-37433250D03*
D12*
X69977000Y-37433250D03*
%TD*%
D13*
%TO.C,*%
X119507000Y-109823250D03*
%TD*%
%TO.C,*%
X115697000Y-121253250D03*
%TD*%
%TO.C,*%
X96647000Y-93313250D03*
%TD*%
%TO.C,*%
X81407000Y-71723250D03*
%TD*%
%TO.C,*%
X100457000Y-74263250D03*
%TD*%
%TO.C,*%
X134747000Y-64103250D03*
%TD*%
%TO.C,*%
X43307000Y-95853250D03*
%TD*%
%TO.C,*%
X43307000Y-48863250D03*
%TD*%
%TO.C,*%
X134747000Y-52673250D03*
%TD*%
%TO.C,*%
X54864000Y-83153250D03*
%TD*%
%TO.C,*%
X73787000Y-106013250D03*
%TD*%
%TO.C,*%
X115697000Y-112363250D03*
%TD*%
%TO.C,*%
X115697000Y-102203250D03*
%TD*%
%TO.C,*%
X77597000Y-64103250D03*
%TD*%
%TO.C,*%
X134747000Y-42386250D03*
%TD*%
%TO.C,*%
X81407000Y-106013250D03*
%TD*%
D12*
%TO.C,SW7*%
X50927000Y-113633250D03*
D11*
X45847000Y-113633250D03*
D10*
X48387000Y-118713250D03*
D11*
X56007000Y-113633250D03*
D10*
X54737000Y-116173250D03*
%TD*%
D13*
%TO.C,*%
X96647000Y-36163250D03*
%TD*%
%TO.C,*%
X58547000Y-83153250D03*
%TD*%
%TO.C,*%
X119507000Y-71723250D03*
%TD*%
%TO.C,*%
X92964000Y-83153250D03*
%TD*%
%TO.C,*%
X81407000Y-52673250D03*
%TD*%
%TO.C,*%
X100457000Y-36163250D03*
%TD*%
%TO.C,*%
X81407000Y-95853250D03*
%TD*%
%TO.C,*%
X115697000Y-29813250D03*
%TD*%
%TO.C,*%
X111887000Y-48863250D03*
%TD*%
%TO.C,*%
X112014000Y-45053250D03*
%TD*%
%TO.C,*%
X96647000Y-42386250D03*
%TD*%
%TO.C,*%
X100457000Y-90773250D03*
%TD*%
D10*
%TO.C,SW7*%
X130937000Y-97123250D03*
D11*
X122047000Y-94583250D03*
X132207000Y-94583250D03*
D12*
X127127000Y-94583250D03*
D10*
X124587000Y-99663250D03*
%TD*%
D13*
%TO.C,*%
X119507000Y-83153250D03*
%TD*%
D11*
%TO.C,SW7*%
X45847000Y-56483250D03*
D10*
X54737000Y-59023250D03*
D11*
X56007000Y-56483250D03*
D12*
X50927000Y-56483250D03*
D10*
X48387000Y-61563250D03*
%TD*%
D13*
%TO.C,*%
X100457000Y-71723250D03*
%TD*%
%TO.C,*%
X115697000Y-36163250D03*
%TD*%
%TO.C,*%
X81407000Y-48863250D03*
%TD*%
D14*
%TO.C,D*%
X65515000Y-83280250D03*
D15*
X71865000Y-83280250D03*
%TD*%
D13*
%TO.C,*%
X112014000Y-83153250D03*
%TD*%
%TO.C,*%
X58547000Y-109823250D03*
%TD*%
%TO.C,*%
X43307000Y-86963250D03*
%TD*%
%TO.C,*%
X96647000Y-33623250D03*
%TD*%
D14*
%TO.C,D*%
X122665000Y-64230250D03*
D15*
X129015000Y-64230250D03*
%TD*%
D13*
%TO.C,*%
X58547000Y-71723250D03*
%TD*%
%TO.C,*%
X92964000Y-121253250D03*
%TD*%
%TO.C,*%
X58547000Y-64103250D03*
%TD*%
%TO.C,*%
X73914000Y-83153250D03*
%TD*%
%TO.C,*%
X77597000Y-109823250D03*
%TD*%
%TO.C,*%
X62357000Y-55213250D03*
%TD*%
%TO.C,*%
X73787000Y-29813250D03*
%TD*%
D14*
%TO.C,D*%
X103615000Y-121380250D03*
D15*
X109965000Y-121380250D03*
%TD*%
D13*
%TO.C,*%
X43307000Y-57753250D03*
%TD*%
%TO.C,*%
X92964000Y-45053250D03*
%TD*%
%TO.C,*%
X54737000Y-48863250D03*
%TD*%
%TO.C,*%
X134747000Y-55213250D03*
%TD*%
%TO.C,*%
X77597000Y-55213250D03*
%TD*%
D14*
%TO.C,D*%
X46465000Y-64230250D03*
D15*
X52815000Y-64230250D03*
%TD*%
D13*
%TO.C,*%
X73914000Y-121253250D03*
%TD*%
D12*
%TO.C,SW7*%
X69977000Y-75533250D03*
D11*
X64897000Y-75533250D03*
D10*
X67437000Y-80613250D03*
X73787000Y-78073250D03*
D11*
X75057000Y-75533250D03*
%TD*%
D13*
%TO.C,*%
X92964000Y-64103250D03*
%TD*%
%TO.C,*%
X43307000Y-121253250D03*
%TD*%
%TO.C,*%
X131064000Y-64103250D03*
%TD*%
%TO.C,*%
X134747000Y-109823250D03*
%TD*%
%TO.C,*%
X119507000Y-45053250D03*
%TD*%
%TO.C,*%
X130937000Y-29813250D03*
%TD*%
%TO.C,*%
X96647000Y-29813250D03*
%TD*%
%TO.C,*%
X115697000Y-86963250D03*
%TD*%
%TO.C,*%
X131064000Y-83153250D03*
%TD*%
%TO.C,*%
X134747000Y-99536250D03*
%TD*%
%TO.C,*%
X134747000Y-36163250D03*
%TD*%
%TO.C,*%
X62357000Y-106013250D03*
%TD*%
%TO.C,*%
X134747000Y-93313250D03*
%TD*%
%TO.C,*%
X81407000Y-83153250D03*
%TD*%
D14*
%TO.C,D*%
X122665000Y-121380250D03*
D15*
X129015000Y-121380250D03*
%TD*%
D13*
%TO.C,*%
X77597000Y-99536250D03*
%TD*%
%TO.C,*%
X115697000Y-109823250D03*
%TD*%
%TO.C,*%
X92837000Y-106013250D03*
%TD*%
D14*
%TO.C,D*%
X46465000Y-83280250D03*
D15*
X52815000Y-83280250D03*
%TD*%
D13*
%TO.C,*%
X62357000Y-36163250D03*
%TD*%
D14*
%TO.C,D*%
X84565000Y-64230250D03*
D15*
X90915000Y-64230250D03*
%TD*%
D13*
%TO.C,*%
X134747000Y-33623250D03*
%TD*%
%TO.C,*%
X100457000Y-83153250D03*
%TD*%
%TO.C,*%
X100457000Y-114903250D03*
%TD*%
%TO.C,*%
X81407000Y-76803250D03*
%TD*%
%TO.C,*%
X62357000Y-57753250D03*
%TD*%
%TO.C,*%
X81407000Y-38703250D03*
%TD*%
%TO.C,*%
X81407000Y-29813250D03*
%TD*%
%TO.C,*%
X77597000Y-33623250D03*
%TD*%
%TO.C,*%
X62357000Y-71723250D03*
%TD*%
%TO.C,*%
X58547000Y-106013250D03*
%TD*%
%TO.C,*%
X96647000Y-74263250D03*
%TD*%
%TO.C,*%
X92837000Y-86963250D03*
%TD*%
%TO.C,*%
X119507000Y-67913250D03*
%TD*%
%TO.C,*%
X115697000Y-45053250D03*
%TD*%
%TO.C,*%
X58547000Y-29813250D03*
%TD*%
%TO.C,*%
X100457000Y-64103250D03*
%TD*%
%TO.C,*%
X77597000Y-36163250D03*
%TD*%
%TO.C,*%
X43307000Y-106013250D03*
%TD*%
%TO.C,*%
X43307000Y-76803250D03*
%TD*%
%TO.C,*%
X100457000Y-45053250D03*
%TD*%
%TO.C,*%
X54864000Y-64103250D03*
%TD*%
D12*
%TO.C,SW7*%
X127127000Y-113633250D03*
D10*
X124587000Y-118713250D03*
D11*
X122047000Y-113633250D03*
X132207000Y-113633250D03*
D10*
X130937000Y-116173250D03*
%TD*%
D14*
%TO.C,D*%
X122665000Y-83280250D03*
D15*
X129015000Y-83280250D03*
%TD*%
D14*
%TO.C,D*%
X103615000Y-45180250D03*
D15*
X109965000Y-45180250D03*
%TD*%
D13*
%TO.C,*%
X100457000Y-102203250D03*
%TD*%
%TO.C,*%
X58547000Y-102203250D03*
%TD*%
%TO.C,*%
X62357000Y-29813250D03*
%TD*%
%TO.C,*%
X96647000Y-83153250D03*
%TD*%
%TO.C,*%
X100457000Y-121253250D03*
%TD*%
D14*
%TO.C,D*%
X84565000Y-83280250D03*
D15*
X90915000Y-83280250D03*
%TD*%
D13*
%TO.C,*%
X115697000Y-93313250D03*
%TD*%
%TO.C,*%
X43307000Y-45053250D03*
%TD*%
%TO.C,*%
X81407000Y-57753250D03*
%TD*%
%TO.C,*%
X134747000Y-102203250D03*
%TD*%
%TO.C,*%
X100457000Y-57753250D03*
%TD*%
%TO.C,*%
X43307000Y-36163250D03*
%TD*%
%TO.C,*%
X96647000Y-67913250D03*
%TD*%
D12*
%TO.C,SW7*%
X89027000Y-37433250D03*
D11*
X94107000Y-37433250D03*
D10*
X92837000Y-39973250D03*
D11*
X83947000Y-37433250D03*
D10*
X86487000Y-42513250D03*
%TD*%
D13*
%TO.C,*%
X58547000Y-86963250D03*
%TD*%
D10*
%TO.C,SW7*%
X130937000Y-59023250D03*
D12*
X127127000Y-56483250D03*
D10*
X124587000Y-61563250D03*
D11*
X122047000Y-56483250D03*
X132207000Y-56483250D03*
%TD*%
D13*
%TO.C,*%
X81407000Y-67913250D03*
%TD*%
%TO.C,*%
X119507000Y-86963250D03*
%TD*%
%TO.C,*%
X134747000Y-71723250D03*
%TD*%
%TO.C,*%
X112014000Y-102203250D03*
%TD*%
%TO.C,*%
X131064000Y-121253250D03*
%TD*%
%TO.C,*%
X62357000Y-114903250D03*
%TD*%
%TO.C,*%
X62357000Y-76803250D03*
%TD*%
%TO.C,*%
X58547000Y-74263250D03*
%TD*%
%TO.C,*%
X115697000Y-61436250D03*
%TD*%
%TO.C,*%
X58547000Y-36163250D03*
%TD*%
%TO.C,*%
X81407000Y-90773250D03*
%TD*%
%TO.C,*%
X111887000Y-106013250D03*
%TD*%
%TO.C,*%
X58547000Y-80486250D03*
%TD*%
%TO.C,*%
X134747000Y-118586250D03*
%TD*%
%TO.C,*%
X115697000Y-48863250D03*
%TD*%
%TO.C,*%
X58547000Y-52673250D03*
%TD*%
%TO.C,*%
X43307000Y-38703250D03*
%TD*%
%TO.C,*%
X119507000Y-52673250D03*
%TD*%
%TO.C,*%
X62357000Y-45053250D03*
%TD*%
%TO.C,*%
X43307000Y-55213250D03*
%TD*%
D14*
%TO.C,D*%
X65515000Y-102330250D03*
D15*
X71865000Y-102330250D03*
%TD*%
D13*
%TO.C,*%
X77597000Y-29813250D03*
%TD*%
%TO.C,*%
X111887000Y-86963250D03*
%TD*%
%TO.C,*%
X100457000Y-86963250D03*
%TD*%
%TO.C,*%
X58547000Y-99536250D03*
%TD*%
%TO.C,*%
X73914000Y-45053250D03*
%TD*%
%TO.C,*%
X119507000Y-57753250D03*
%TD*%
%TO.C,*%
X96647000Y-52673250D03*
%TD*%
%TO.C,*%
X134747000Y-83153250D03*
%TD*%
D10*
%TO.C,SW7*%
X130937000Y-78073250D03*
D12*
X127127000Y-75533250D03*
D10*
X124587000Y-80613250D03*
D11*
X122047000Y-75533250D03*
X132207000Y-75533250D03*
%TD*%
D10*
%TO.C,SW7*%
X111887000Y-39973250D03*
D11*
X113157000Y-37433250D03*
X102997000Y-37433250D03*
D10*
X105537000Y-42513250D03*
D12*
X108077000Y-37433250D03*
%TD*%
D13*
%TO.C,*%
X43307000Y-33623250D03*
%TD*%
%TO.C,*%
X54737000Y-67913250D03*
%TD*%
%TO.C,*%
X115697000Y-33623250D03*
%TD*%
%TO.C,*%
X115697000Y-74263250D03*
%TD*%
%TO.C,*%
X119507000Y-33623250D03*
%TD*%
%TO.C,*%
X96647000Y-45053250D03*
%TD*%
%TO.C,*%
X92837000Y-48863250D03*
%TD*%
%TO.C,*%
X100457000Y-93313250D03*
%TD*%
%TO.C,*%
X130937000Y-106013250D03*
%TD*%
%TO.C,*%
X100457000Y-112363250D03*
%TD*%
%TO.C,*%
X62357000Y-83153250D03*
%TD*%
%TO.C,*%
X43307000Y-83153250D03*
%TD*%
%TO.C,*%
X96647000Y-121253250D03*
%TD*%
%TO.C,*%
X81407000Y-112363250D03*
%TD*%
%TO.C,*%
X81407000Y-114903250D03*
%TD*%
D11*
%TO.C,SW7*%
X45847000Y-94583250D03*
X56007000Y-94583250D03*
D10*
X54737000Y-97123250D03*
D12*
X50927000Y-94583250D03*
D10*
X48387000Y-99663250D03*
%TD*%
D13*
%TO.C,*%
X134747000Y-121253250D03*
%TD*%
%TO.C,*%
X43307000Y-52673250D03*
%TD*%
%TO.C,*%
X119507000Y-114903250D03*
%TD*%
%TO.C,*%
X134747000Y-29813250D03*
%TD*%
D12*
%TO.C,SW7*%
X89027000Y-75533250D03*
D10*
X92837000Y-78073250D03*
X86487000Y-80613250D03*
D11*
X94107000Y-75533250D03*
X83947000Y-75533250D03*
%TD*%
D13*
%TO.C,*%
X58547000Y-118586250D03*
%TD*%
%TO.C,*%
X77597000Y-74263250D03*
%TD*%
%TO.C,*%
X43307000Y-67913250D03*
%TD*%
%TO.C,*%
X58547000Y-45053250D03*
%TD*%
%TO.C,*%
X119507000Y-112363250D03*
%TD*%
%TO.C,*%
X81407000Y-55213250D03*
%TD*%
%TO.C,*%
X119507000Y-90773250D03*
%TD*%
D12*
%TO.C,SW7*%
X108077000Y-94583250D03*
D11*
X113157000Y-94583250D03*
X102997000Y-94583250D03*
D10*
X111887000Y-97123250D03*
X105537000Y-99663250D03*
%TD*%
D13*
%TO.C,*%
X77597000Y-48863250D03*
%TD*%
%TO.C,*%
X111887000Y-29813250D03*
%TD*%
%TO.C,*%
X58547000Y-121253250D03*
%TD*%
%TO.C,*%
X43307000Y-74263250D03*
%TD*%
D14*
%TO.C,D*%
X46465000Y-45180250D03*
D15*
X52815000Y-45180250D03*
%TD*%
D13*
%TO.C,*%
X115697000Y-118586250D03*
%TD*%
%TO.C,*%
X96647000Y-61436250D03*
%TD*%
%TO.C,*%
X115697000Y-42386250D03*
%TD*%
%TO.C,*%
X62357000Y-38703250D03*
%TD*%
%TO.C,*%
X62357000Y-90773250D03*
%TD*%
%TO.C,*%
X62357000Y-52673250D03*
%TD*%
%TO.C,*%
X81407000Y-74263250D03*
%TD*%
%TO.C,*%
X131064000Y-102203250D03*
%TD*%
%TO.C,*%
X134747000Y-67913250D03*
%TD*%
%TO.C,*%
X43307000Y-64103250D03*
%TD*%
D10*
%TO.C,SW7*%
X105537000Y-61563250D03*
D12*
X108077000Y-56483250D03*
D10*
X111887000Y-59023250D03*
D11*
X113157000Y-56483250D03*
X102997000Y-56483250D03*
%TD*%
D12*
%TO.C,SW7*%
X50927000Y-37433250D03*
D10*
X48387000Y-42513250D03*
D11*
X56007000Y-37433250D03*
D10*
X54737000Y-39973250D03*
D11*
X45847000Y-37433250D03*
%TD*%
D13*
%TO.C,*%
X115697000Y-64103250D03*
%TD*%
%TO.C,*%
X77597000Y-42386250D03*
%TD*%
%TO.C,*%
X58547000Y-93313250D03*
%TD*%
%TO.C,*%
X62357000Y-102203250D03*
%TD*%
%TO.C,*%
X58547000Y-33623250D03*
%TD*%
%TO.C,*%
X77597000Y-118586250D03*
%TD*%
D14*
%TO.C,D*%
X65515000Y-45180250D03*
D15*
X71865000Y-45180250D03*
%TD*%
D11*
%TO.C,SW7*%
X56007000Y-75533250D03*
D12*
X50927000Y-75533250D03*
D10*
X54737000Y-78073250D03*
X48387000Y-80613250D03*
D11*
X45847000Y-75533250D03*
%TD*%
D13*
%TO.C,*%
X131064000Y-45053250D03*
%TD*%
%TO.C,*%
X134747000Y-74263250D03*
%TD*%
D10*
%TO.C,SW7*%
X86487000Y-118713250D03*
X92837000Y-116173250D03*
D11*
X83947000Y-113633250D03*
D12*
X89027000Y-113633250D03*
D11*
X94107000Y-113633250D03*
%TD*%
D13*
%TO.C,*%
X100457000Y-55213250D03*
%TD*%
%TO.C,*%
X111887000Y-67913250D03*
%TD*%
D12*
%TO.C,SW7*%
X127127000Y-37433250D03*
D10*
X124587000Y-42513250D03*
D11*
X122047000Y-37433250D03*
D10*
X130937000Y-39973250D03*
D11*
X132207000Y-37433250D03*
%TD*%
D13*
%TO.C,*%
X77597000Y-83153250D03*
%TD*%
%TO.C,*%
X58547000Y-112363250D03*
%TD*%
%TO.C,*%
X54737000Y-106013250D03*
%TD*%
D14*
%TO.C,D*%
X84565000Y-102330250D03*
D15*
X90915000Y-102330250D03*
%TD*%
D13*
%TO.C,*%
X119507000Y-76803250D03*
%TD*%
%TO.C,*%
X77597000Y-102203250D03*
%TD*%
D14*
%TO.C,D*%
X65515000Y-64230250D03*
D15*
X71865000Y-64230250D03*
%TD*%
D13*
%TO.C,*%
X130937000Y-67913250D03*
%TD*%
%TO.C,*%
X134747000Y-48863250D03*
%TD*%
%TO.C,*%
X58547000Y-67913250D03*
%TD*%
%TO.C,*%
X115697000Y-55213250D03*
%TD*%
%TO.C,*%
X119507000Y-102203250D03*
%TD*%
%TO.C,*%
X58547000Y-48863250D03*
%TD*%
%TO.C,*%
X119507000Y-38703250D03*
%TD*%
%TO.C,*%
X115697000Y-83153250D03*
%TD*%
%TO.C,*%
X77597000Y-71723250D03*
%TD*%
%TO.C,*%
X115697000Y-67913250D03*
%TD*%
%TO.C,*%
X81407000Y-109823250D03*
%TD*%
D11*
%TO.C,SW7*%
X94107000Y-56483250D03*
X83947000Y-56483250D03*
D10*
X86487000Y-61563250D03*
X92837000Y-59023250D03*
D12*
X89027000Y-56483250D03*
%TD*%
D13*
%TO.C,*%
X54864000Y-102203250D03*
%TD*%
%TO.C,*%
X73787000Y-86963250D03*
%TD*%
%TO.C,*%
X58547000Y-61436250D03*
%TD*%
%TO.C,*%
X81407000Y-121253250D03*
%TD*%
%TO.C,*%
X112014000Y-121253250D03*
%TD*%
%TO.C,*%
X62357000Y-112363250D03*
%TD*%
%TO.C,*%
X119507000Y-55213250D03*
%TD*%
%TO.C,*%
X81407000Y-64103250D03*
%TD*%
%TO.C,*%
X43307000Y-112363250D03*
%TD*%
D14*
%TO.C,D*%
X122665000Y-102330250D03*
D15*
X129015000Y-102330250D03*
%TD*%
D13*
%TO.C,*%
X62357000Y-64103250D03*
%TD*%
%TO.C,*%
X43307000Y-29813250D03*
%TD*%
%TO.C,*%
X130937000Y-86963250D03*
%TD*%
%TO.C,*%
X115697000Y-71723250D03*
%TD*%
%TO.C,*%
X81407000Y-93313250D03*
%TD*%
%TO.C,*%
X62357000Y-67913250D03*
%TD*%
M02*
