%TF.GenerationSoftware,KiCad,Pcbnew,(6.0.0-0)*%
%TF.CreationDate,2022-01-01T10:49:49+00:00*%
%TF.ProjectId,Sarcodina,53617263-6f64-4696-9e61-2e6b69636164,rev?*%
%TF.SameCoordinates,Original*%
%TF.FileFunction,Copper,L1,Top*%
%TF.FilePolarity,Positive*%
%FSLAX46Y46*%
G04 Gerber Fmt 4.6, Leading zero omitted, Abs format (unit mm)*
G04 Created by KiCad (PCBNEW (6.0.0-0)) date 2022-01-01 10:49:49*
%MOMM*%
%LPD*%
G01*
G04 APERTURE LIST*
%TA.AperFunction,ComponentPad*%
%ADD10C,1.397000*%
%TD*%
%TA.AperFunction,ComponentPad*%
%ADD11R,1.400000X1.400000*%
%TD*%
%TA.AperFunction,ComponentPad*%
%ADD12C,1.400000*%
%TD*%
%TA.AperFunction,ViaPad*%
%ADD13C,0.600000*%
%TD*%
%TA.AperFunction,Conductor*%
%ADD14C,0.250000*%
%TD*%
G04 APERTURE END LIST*
D10*
%TO.P,65,1*%
%TO.N,unconnected-(L1-Pad2)*%
X90678000Y-95504000D03*
%TD*%
%TO.P,,1*%
%TO.N,unconnected-(L1-Pad4)*%
X109728000Y-49276000D03*
%TD*%
%TO.P,\u002A\u002A81,1*%
%TO.N,unconnected-(L1-Pad4)*%
X106426000Y-77978000D03*
%TD*%
%TO.P,\u002A\u002A48,1*%
%TO.N,VCC*%
X90678000Y-46228000D03*
%TD*%
%TO.P,\u002A\u002A11,1*%
%TO.N,unconnected-(L1-Pad4)*%
X106426000Y-39878000D03*
%TD*%
%TO.P,\u002A\u002A37,1*%
%TO.N,col1*%
X84328000Y-61976000D03*
%TD*%
%TO.P,\u002A\u002A23,1*%
%TO.N,col4*%
X141478000Y-42926000D03*
%TD*%
%TO.P,\u002A\u002A50,1*%
%TO.N,VCC*%
X109728000Y-61976000D03*
%TD*%
%TO.P,\u002A\u002A114,1*%
%TO.N,col2*%
X103378000Y-100076000D03*
%TD*%
%TO.P,\u002A\u002A156,1*%
%TO.N,col3*%
X122428000Y-119126000D03*
%TD*%
%TO.P,62,1*%
%TO.N,row3*%
X71628000Y-92583000D03*
%TD*%
%TO.P,\u002A\u002A62,1*%
%TO.N,VCC*%
X128778000Y-46228000D03*
%TD*%
%TO.P,\u002A\u002A5,1*%
%TO.N,unconnected-(L1-Pad2)*%
X87376000Y-30226000D03*
%TD*%
%TO.P,\u002A\u002A140,1*%
%TO.N,GND*%
X68326000Y-103378000D03*
%TD*%
%TO.P,\u002A\u002A153,1*%
%TO.N,VCC*%
X90678000Y-103378000D03*
%TD*%
%TO.P,\u002A\u002A,1*%
%TO.N,unconnected-(L1-Pad2)*%
X68326000Y-30226000D03*
%TD*%
%TO.P,\u002A\u002A167,1*%
%TO.N,VCC*%
X128778000Y-103378000D03*
%TD*%
%TO.P,\u002A\u002A88,1*%
%TO.N,unconnected-(L1-Pad4)*%
X125476000Y-77978000D03*
%TD*%
%TO.P,,1*%
%TO.N,unconnected-(L1-Pad4)*%
X52578000Y-49276000D03*
%TD*%
%TO.P,\u002A\u002A109,1*%
%TO.N,unconnected-(L1-Pad4)*%
X87376000Y-97028000D03*
%TD*%
%TO.P,\u002A\u002A19,1*%
%TO.N,unconnected-(L1-Pad2)*%
X125476000Y-30226000D03*
%TD*%
%TO.P,\u002A\u002A123,1*%
%TO.N,unconnected-(L1-Pad4)*%
X125476000Y-97028000D03*
%TD*%
%TO.P,96,1*%
%TO.N,col4*%
X141478000Y-103378000D03*
%TD*%
%TO.P,\u002A\u002A166,1*%
%TO.N,unconnected-(L1-Pad2)*%
X144526000Y-106426000D03*
%TD*%
%TO.P,\u002A\u002A69,1*%
%TO.N,VCC*%
X52578000Y-65278000D03*
%TD*%
%TO.P,\u002A\u002A38,1*%
%TO.N,GND*%
X87376000Y-61976000D03*
%TD*%
%TO.P,\u002A\u002A47,1*%
%TO.N,unconnected-(L1-Pad2)*%
X106426000Y-49276000D03*
%TD*%
%TO.P,33,1*%
%TO.N,unconnected-(L1-Pad2)*%
X128778000Y-57404000D03*
%TD*%
%TO.P,91,1*%
%TO.N,row4*%
X125476000Y-111633000D03*
%TD*%
%TO.P,\u002A\u002A157,1*%
%TO.N,GND*%
X125476000Y-119126000D03*
%TD*%
%TO.P,\u002A\u002A144,1*%
%TO.N,unconnected-(L1-Pad4)*%
X87376000Y-116078000D03*
%TD*%
%TO.P,\u002A\u002A129,1*%
%TO.N,GND*%
X144526000Y-100076000D03*
%TD*%
%TO.P,\u002A\u002A82,1*%
%TO.N,unconnected-(L1-Pad2)*%
X106426000Y-68326000D03*
%TD*%
%TO.P,,1*%
%TO.N,unconnected-(L1-Pad4)*%
X128778000Y-106426000D03*
%TD*%
%TO.P,,1*%
%TO.N,unconnected-(L1-Pad2)*%
X52578000Y-38354000D03*
%TD*%
%TO.P,\u002A\u002A2,1*%
%TO.N,col1*%
X84328000Y-42926000D03*
%TD*%
%TO.P,\u002A\u002A91,1*%
%TO.N,GND*%
X125476000Y-65278000D03*
%TD*%
%TO.P,\u002A\u002A147,1*%
%TO.N,GND*%
X87376000Y-103378000D03*
%TD*%
%TO.P,\u002A\u002A52,1*%
%TO.N,GND*%
X125476000Y-61976000D03*
%TD*%
%TO.P,63,1*%
%TO.N,row3*%
X87376000Y-92583000D03*
%TD*%
%TO.P,\u002A\u002A71,1*%
%TO.N,VCC*%
X71628000Y-81026000D03*
%TD*%
%TO.P,,1*%
%TO.N,unconnected-(L1-Pad4)*%
X90678000Y-49276000D03*
%TD*%
%TO.P,87,1*%
%TO.N,row4*%
X106426000Y-111633000D03*
%TD*%
%TO.P,\u002A\u002A143,1*%
%TO.N,GND*%
X87376000Y-119126000D03*
%TD*%
D11*
%TO.P,D,1*%
%TO.N,row4*%
X131826000Y-118999000D03*
D12*
%TO.P,D,2*%
%TO.N,Net-(D1-Pad2)*%
X138176000Y-118999000D03*
%TD*%
D10*
%TO.P,49,1*%
%TO.N,unconnected-(L1-Pad2)*%
X109728000Y-76454000D03*
%TD*%
%TO.P,\u002A\u002A,1*%
%TO.N,GND*%
X68326000Y-27178000D03*
%TD*%
%TO.P,71,1*%
%TO.N,row3*%
X125476000Y-92583000D03*
%TD*%
%TO.P,54,1*%
%TO.N,row2*%
X128778000Y-73533000D03*
%TD*%
D11*
%TO.P,D,1*%
%TO.N,row4*%
X93726000Y-118999000D03*
D12*
%TO.P,D,2*%
%TO.N,Net-(D1-Pad2)*%
X100076000Y-118999000D03*
%TD*%
D11*
%TO.P,D,1*%
%TO.N,row4*%
X55626000Y-118999000D03*
D12*
%TO.P,D,2*%
%TO.N,Net-(D1-Pad2)*%
X61976000Y-118999000D03*
%TD*%
D10*
%TO.P,43,1*%
%TO.N,row2*%
X87376000Y-73533000D03*
%TD*%
%TO.P,\u002A\u002A148,1*%
%TO.N,VCC*%
X90678000Y-119126000D03*
%TD*%
%TO.P,\u002A\u002A89,1*%
%TO.N,unconnected-(L1-Pad2)*%
X125476000Y-68326000D03*
%TD*%
%TO.P,,1*%
%TO.N,col0*%
X65278000Y-27178000D03*
%TD*%
%TO.P,\u002A\u002A43,1*%
%TO.N,VCC*%
X90678000Y-61976000D03*
%TD*%
%TO.P,\u002A\u002A139,1*%
%TO.N,VCC*%
X52578000Y-103378000D03*
%TD*%
%TO.P,\u002A\u002A54,1*%
%TO.N,unconnected-(L1-Pad2)*%
X125476000Y-49276000D03*
%TD*%
%TO.P,\u002A\u002A90,1*%
%TO.N,VCC*%
X109728000Y-65278000D03*
%TD*%
%TO.P,47,1*%
%TO.N,row2*%
X106426000Y-73533000D03*
%TD*%
%TO.P,79,1*%
%TO.N,row4*%
X68326000Y-111633000D03*
%TD*%
%TO.P,\u002A\u002A146,1*%
%TO.N,VCC*%
X71628000Y-103378000D03*
%TD*%
D11*
%TO.P,D,1*%
%TO.N,row0*%
X74676000Y-42799000D03*
D12*
%TO.P,D,2*%
%TO.N,Net-(D1-Pad2)*%
X81026000Y-42799000D03*
%TD*%
D10*
%TO.P,10,1*%
%TO.N,row0*%
X109728000Y-35433000D03*
%TD*%
%TO.P,\u002A\u002A68,1*%
%TO.N,unconnected-(L1-Pad2)*%
X68326000Y-68326000D03*
%TD*%
%TO.P,\u002A\u002A67,1*%
%TO.N,unconnected-(L1-Pad4)*%
X68326000Y-77978000D03*
%TD*%
%TO.P,80,1*%
%TO.N,col0*%
X65278000Y-103378000D03*
%TD*%
%TO.P,\u002A\u002A29,1*%
%TO.N,VCC*%
X52578000Y-61976000D03*
%TD*%
%TO.P,\u002A\u002A,1*%
%TO.N,GND*%
X68326000Y-42926000D03*
%TD*%
%TO.P,\u002A\u002A15,1*%
%TO.N,VCC*%
X109728000Y-42926000D03*
%TD*%
%TO.P,\u002A\u002A25,1*%
%TO.N,unconnected-(L1-Pad4)*%
X144526000Y-39878000D03*
%TD*%
%TO.P,\u002A\u002A45,1*%
%TO.N,GND*%
X106426000Y-61976000D03*
%TD*%
D11*
%TO.P,D,1*%
%TO.N,row1*%
X131826000Y-61849000D03*
D12*
%TO.P,D,2*%
%TO.N,Net-(D1-Pad2)*%
X138176000Y-61849000D03*
%TD*%
D10*
%TO.P,74,1*%
%TO.N,row3*%
X128778000Y-92583000D03*
%TD*%
%TO.P,8,1*%
%TO.N,col2*%
X103378000Y-27178000D03*
%TD*%
%TO.P,\u002A\u002A,1*%
%TO.N,VCC*%
X52578000Y-27178000D03*
%TD*%
%TO.P,\u002A\u002A53,1*%
%TO.N,unconnected-(L1-Pad4)*%
X125476000Y-58928000D03*
%TD*%
%TO.P,\u002A\u002A159,1*%
%TO.N,unconnected-(L1-Pad2)*%
X125476000Y-106426000D03*
%TD*%
%TO.P,,1*%
%TO.N,unconnected-(L1-Pad4)*%
X52578000Y-106426000D03*
%TD*%
%TO.P,77,1*%
%TO.N,unconnected-(L1-Pad2)*%
X52578000Y-114554000D03*
%TD*%
%TO.P,22,1*%
%TO.N,row1*%
X71628000Y-54483000D03*
%TD*%
%TO.P,11,1*%
%TO.N,row0*%
X125476000Y-35433000D03*
%TD*%
%TO.P,\u002A\u002A165,1*%
%TO.N,unconnected-(L1-Pad4)*%
X144526000Y-116078000D03*
%TD*%
%TO.P,\u002A\u002A39,1*%
%TO.N,unconnected-(L1-Pad4)*%
X87376000Y-58928000D03*
%TD*%
%TO.P,\u002A\u002A17,1*%
%TO.N,GND*%
X125476000Y-42926000D03*
%TD*%
%TO.P,\u002A\u002A127,1*%
%TO.N,VCC*%
X128778000Y-100076000D03*
%TD*%
%TO.P,18,1*%
%TO.N,row1*%
X52578000Y-54483000D03*
%TD*%
%TO.P,\u002A\u002A57,1*%
%TO.N,VCC*%
X128778000Y-61976000D03*
%TD*%
%TO.P,\u002A\u002A130,1*%
%TO.N,unconnected-(L1-Pad4)*%
X144526000Y-97028000D03*
%TD*%
%TO.P,\u002A\u002A162,1*%
%TO.N,VCC*%
X128778000Y-119126000D03*
%TD*%
%TO.P,\u002A\u002A138,1*%
%TO.N,unconnected-(L1-Pad2)*%
X68326000Y-106426000D03*
%TD*%
%TO.P,72,1*%
%TO.N,col3*%
X122428000Y-84328000D03*
%TD*%
%TO.P,81,1*%
%TO.N,unconnected-(L1-Pad2)*%
X71628000Y-114554000D03*
%TD*%
%TO.P,\u002A\u002A160,1*%
%TO.N,VCC*%
X109728000Y-103378000D03*
%TD*%
%TO.P,\u002A\u002A59,1*%
%TO.N,GND*%
X144526000Y-61976000D03*
%TD*%
%TO.P,\u002A\u002A101,1*%
%TO.N,GND*%
X68326000Y-100076000D03*
%TD*%
%TO.P,\u002A\u002A33,1*%
%TO.N,unconnected-(L1-Pad2)*%
X68326000Y-49276000D03*
%TD*%
%TO.P,\u002A\u002A97,1*%
%TO.N,VCC*%
X128778000Y-65278000D03*
%TD*%
%TO.P,\u002A\u002A60,1*%
%TO.N,unconnected-(L1-Pad4)*%
X144526000Y-58928000D03*
%TD*%
D11*
%TO.P,D,1*%
%TO.N,row2*%
X112776000Y-80899000D03*
D12*
%TO.P,D,2*%
%TO.N,Net-(D1-Pad2)*%
X119126000Y-80899000D03*
%TD*%
D10*
%TO.P,68,1*%
%TO.N,col2*%
X103378000Y-84328000D03*
%TD*%
%TO.P,94,1*%
%TO.N,row4*%
X128778000Y-111633000D03*
%TD*%
%TO.P,,1*%
%TO.N,unconnected-(L1-Pad4)*%
X52578000Y-30226000D03*
%TD*%
%TO.P,46,1*%
%TO.N,row2*%
X90678000Y-73533000D03*
%TD*%
%TO.P,60,1*%
%TO.N,col0*%
X65278000Y-84328000D03*
%TD*%
%TO.P,9,1*%
%TO.N,unconnected-(L1-Pad2)*%
X109728000Y-38354000D03*
%TD*%
%TO.P,89,1*%
%TO.N,unconnected-(L1-Pad2)*%
X109728000Y-114554000D03*
%TD*%
%TO.P,14,1*%
%TO.N,row0*%
X128778000Y-35433000D03*
%TD*%
%TO.P,,1*%
%TO.N,unconnected-(L1-Pad4)*%
X71628000Y-106426000D03*
%TD*%
%TO.P,\u002A\u002A149,1*%
%TO.N,col2*%
X103378000Y-119126000D03*
%TD*%
%TO.P,\u002A\u002A56,1*%
%TO.N,GND*%
X125476000Y-46228000D03*
%TD*%
%TO.P,\u002A\u002A63,1*%
%TO.N,GND*%
X144526000Y-46228000D03*
%TD*%
%TO.P,\u002A\u002A76,1*%
%TO.N,VCC*%
X71628000Y-65278000D03*
%TD*%
%TO.P,\u002A\u002A151,1*%
%TO.N,unconnected-(L1-Pad4)*%
X106426000Y-116078000D03*
%TD*%
D11*
%TO.P,D,1*%
%TO.N,row0*%
X55626000Y-42799000D03*
D12*
%TO.P,D,2*%
%TO.N,Net-(D1-Pad2)*%
X61976000Y-42799000D03*
%TD*%
D10*
%TO.P,\u002A\u002A95,1*%
%TO.N,unconnected-(L1-Pad4)*%
X144526000Y-77978000D03*
%TD*%
%TO.P,\u002A\u002A8,1*%
%TO.N,VCC*%
X90678000Y-42926000D03*
%TD*%
%TO.P,32,1*%
%TO.N,col3*%
X122428000Y-46228000D03*
%TD*%
%TO.P,\u002A\u002A112,1*%
%TO.N,GND*%
X87376000Y-84328000D03*
%TD*%
%TO.P,\u002A\u002A84,1*%
%TO.N,GND*%
X106426000Y-65278000D03*
%TD*%
%TO.P,\u002A\u002A6,1*%
%TO.N,VCC*%
X71628000Y-27178000D03*
%TD*%
%TO.P,\u002A\u002A110,1*%
%TO.N,unconnected-(L1-Pad2)*%
X87376000Y-87376000D03*
%TD*%
%TO.P,26,1*%
%TO.N,row1*%
X90678000Y-54483000D03*
%TD*%
%TO.P,\u002A\u002A152,1*%
%TO.N,unconnected-(L1-Pad2)*%
X106426000Y-106426000D03*
%TD*%
%TO.P,,1*%
%TO.N,unconnected-(L1-Pad4)*%
X109728000Y-30226000D03*
%TD*%
%TO.P,\u002A\u002A94,1*%
%TO.N,GND*%
X144526000Y-81026000D03*
%TD*%
%TO.P,,1*%
%TO.N,unconnected-(L1-Pad4)*%
X71628000Y-30226000D03*
%TD*%
%TO.P,,1*%
%TO.N,unconnected-(L1-Pad4)*%
X71628000Y-49276000D03*
%TD*%
%TO.P,\u002A\u002A161,1*%
%TO.N,GND*%
X125476000Y-103378000D03*
%TD*%
%TO.P,\u002A\u002A77,1*%
%TO.N,GND*%
X87376000Y-65278000D03*
%TD*%
%TO.P,12,1*%
%TO.N,col3*%
X122428000Y-27178000D03*
%TD*%
%TO.P,\u002A\u002A74,1*%
%TO.N,unconnected-(L1-Pad4)*%
X87376000Y-77978000D03*
%TD*%
%TO.P,\u002A\u002A4,1*%
%TO.N,unconnected-(L1-Pad4)*%
X87376000Y-39878000D03*
%TD*%
%TO.P,64,1*%
%TO.N,col1*%
X84328000Y-84328000D03*
%TD*%
%TO.P,20,1*%
%TO.N,col0*%
X65278000Y-46228000D03*
%TD*%
%TO.P,,1*%
%TO.N,unconnected-(L1-Pad4)*%
X109728000Y-106426000D03*
%TD*%
%TO.P,\u002A\u002A28,1*%
%TO.N,GND*%
X144526000Y-27178000D03*
%TD*%
D11*
%TO.P,D,1*%
%TO.N,row3*%
X93726000Y-99949000D03*
D12*
%TO.P,D,2*%
%TO.N,Net-(D1-Pad2)*%
X100076000Y-99949000D03*
%TD*%
D10*
%TO.P,\u002A\u002A121,1*%
%TO.N,col3*%
X122428000Y-100076000D03*
%TD*%
%TO.P,\u002A\u002A16,1*%
%TO.N,col3*%
X122428000Y-42926000D03*
%TD*%
%TO.P,\u002A\u002A92,1*%
%TO.N,VCC*%
X128778000Y-81026000D03*
%TD*%
%TO.P,57,1*%
%TO.N,unconnected-(L1-Pad2)*%
X52578000Y-95504000D03*
%TD*%
%TO.P,59,1*%
%TO.N,row3*%
X68326000Y-92583000D03*
%TD*%
%TO.P,\u002A\u002A136,1*%
%TO.N,GND*%
X68326000Y-119126000D03*
%TD*%
%TO.P,\u002A\u002A119,1*%
%TO.N,GND*%
X106426000Y-84328000D03*
%TD*%
%TO.P,82,1*%
%TO.N,row4*%
X71628000Y-111633000D03*
%TD*%
%TO.P,\u002A\u002A132,1*%
%TO.N,VCC*%
X128778000Y-84328000D03*
%TD*%
%TO.P,78,1*%
%TO.N,row4*%
X52578000Y-111633000D03*
%TD*%
%TO.P,,1*%
%TO.N,unconnected-(L1-Pad4)*%
X128778000Y-49276000D03*
%TD*%
%TO.P,\u002A\u002A49,1*%
%TO.N,GND*%
X106426000Y-46228000D03*
%TD*%
%TO.P,\u002A\u002A34,1*%
%TO.N,VCC*%
X52578000Y-46228000D03*
%TD*%
%TO.P,67,1*%
%TO.N,row3*%
X106426000Y-92583000D03*
%TD*%
%TO.P,75,1*%
%TO.N,row3*%
X144526000Y-92583000D03*
%TD*%
%TO.P,\u002A\u002A154,1*%
%TO.N,GND*%
X106426000Y-103378000D03*
%TD*%
D11*
%TO.P,D,1*%
%TO.N,row3*%
X131826000Y-99949000D03*
D12*
%TO.P,D,2*%
%TO.N,Net-(D1-Pad2)*%
X138176000Y-99949000D03*
%TD*%
D10*
%TO.P,\u002A\u002A65,1*%
%TO.N,col0*%
X65278000Y-81026000D03*
%TD*%
%TO.P,\u002A\u002A85,1*%
%TO.N,VCC*%
X109728000Y-81026000D03*
%TD*%
D11*
%TO.P,D,1*%
%TO.N,row1*%
X55626000Y-61849000D03*
D12*
%TO.P,D,2*%
%TO.N,Net-(D1-Pad2)*%
X61976000Y-61849000D03*
%TD*%
D10*
%TO.P,1,1*%
%TO.N,unconnected-(L1-Pad2)*%
X71628000Y-38354000D03*
%TD*%
D11*
%TO.P,D,1*%
%TO.N,row4*%
X74676000Y-118999000D03*
D12*
%TO.P,D,2*%
%TO.N,Net-(D1-Pad2)*%
X81026000Y-118999000D03*
%TD*%
D10*
%TO.P,\u002A\u002A51,1*%
%TO.N,col3*%
X122428000Y-61976000D03*
%TD*%
%TO.P,,1*%
%TO.N,unconnected-(L1-Pad4)*%
X71628000Y-68326000D03*
%TD*%
%TO.P,\u002A\u002A58,1*%
%TO.N,col4*%
X141478000Y-61976000D03*
%TD*%
%TO.P,23,1*%
%TO.N,row1*%
X87376000Y-54483000D03*
%TD*%
%TO.P,\u002A\u002A61,1*%
%TO.N,unconnected-(L1-Pad2)*%
X144526000Y-49276000D03*
%TD*%
%TO.P,\u002A\u002A128,1*%
%TO.N,col4*%
X141478000Y-100076000D03*
%TD*%
%TO.P,85,1*%
%TO.N,unconnected-(L1-Pad2)*%
X90678000Y-114554000D03*
%TD*%
%TO.P,\u002A\u002A72,1*%
%TO.N,col1*%
X84328000Y-81026000D03*
%TD*%
%TO.P,\u002A\u002A46,1*%
%TO.N,unconnected-(L1-Pad4)*%
X106426000Y-58928000D03*
%TD*%
%TO.P,\u002A\u002A,1*%
%TO.N,VCC*%
X52578000Y-42926000D03*
%TD*%
%TO.P,19,1*%
%TO.N,row1*%
X68326000Y-54483000D03*
%TD*%
%TO.P,44,1*%
%TO.N,col1*%
X84328000Y-65278000D03*
%TD*%
%TO.P,\u002A\u002A118,1*%
%TO.N,VCC*%
X90678000Y-84328000D03*
%TD*%
%TO.P,\u002A\u002A10,1*%
%TO.N,GND*%
X106426000Y-42926000D03*
%TD*%
%TO.P,\u002A\u002A78,1*%
%TO.N,VCC*%
X90678000Y-81026000D03*
%TD*%
%TO.P,\u002A\u002A80,1*%
%TO.N,GND*%
X106426000Y-81026000D03*
%TD*%
D11*
%TO.P,D,1*%
%TO.N,row2*%
X93726000Y-80899000D03*
D12*
%TO.P,D,2*%
%TO.N,Net-(D1-Pad2)*%
X100076000Y-80899000D03*
%TD*%
D10*
%TO.P,\u002A\u002A168,1*%
%TO.N,GND*%
X144526000Y-103378000D03*
%TD*%
%TO.P,16,1*%
%TO.N,col4*%
X141478000Y-27178000D03*
%TD*%
%TO.P,\u002A\u002A93,1*%
%TO.N,col4*%
X141478000Y-81026000D03*
%TD*%
%TO.P,,1*%
%TO.N,unconnected-(L1-Pad4)*%
X109728000Y-87376000D03*
%TD*%
%TO.P,\u002A\u002A131,1*%
%TO.N,unconnected-(L1-Pad2)*%
X144526000Y-87376000D03*
%TD*%
%TO.P,13,1*%
%TO.N,unconnected-(L1-Pad2)*%
X128778000Y-38354000D03*
%TD*%
%TO.P,\u002A\u002A30,1*%
%TO.N,col0*%
X65278000Y-61976000D03*
%TD*%
%TO.P,,1*%
%TO.N,unconnected-(L1-Pad4)*%
X128778000Y-30226000D03*
%TD*%
%TO.P,52,1*%
%TO.N,col3*%
X122428000Y-65278000D03*
%TD*%
%TO.P,\u002A\u002A26,1*%
%TO.N,unconnected-(L1-Pad2)*%
X144526000Y-30226000D03*
%TD*%
%TO.P,41,1*%
%TO.N,unconnected-(L1-Pad2)*%
X71628000Y-76454000D03*
%TD*%
%TO.P,\u002A\u002A20,1*%
%TO.N,VCC*%
X109728000Y-27178000D03*
%TD*%
%TO.P,48,1*%
%TO.N,col2*%
X103378000Y-65278000D03*
%TD*%
%TO.P,\u002A\u002A100,1*%
%TO.N,col0*%
X65278000Y-100076000D03*
%TD*%
%TO.P,30,1*%
%TO.N,row1*%
X109728000Y-54483000D03*
%TD*%
%TO.P,55,1*%
%TO.N,row2*%
X144526000Y-73533000D03*
%TD*%
%TO.P,\u002A\u002A18,1*%
%TO.N,unconnected-(L1-Pad4)*%
X125476000Y-39878000D03*
%TD*%
D11*
%TO.P,D,1*%
%TO.N,row0*%
X112776000Y-42799000D03*
D12*
%TO.P,D,2*%
%TO.N,Net-(D1-Pad2)*%
X119126000Y-42799000D03*
%TD*%
D10*
%TO.P,\u002A\u002A99,1*%
%TO.N,VCC*%
X52578000Y-100076000D03*
%TD*%
%TO.P,\u002A\u002A1,1*%
%TO.N,VCC*%
X71628000Y-42926000D03*
%TD*%
%TO.P,\u002A\u002A96,1*%
%TO.N,unconnected-(L1-Pad2)*%
X144526000Y-68326000D03*
%TD*%
%TO.P,\u002A\u002A135,1*%
%TO.N,col0*%
X65278000Y-119126000D03*
%TD*%
%TO.P,,1*%
%TO.N,unconnected-(L1-Pad4)*%
X90678000Y-106426000D03*
%TD*%
%TO.P,34,1*%
%TO.N,row1*%
X128778000Y-54483000D03*
%TD*%
%TO.P,\u002A\u002A31,1*%
%TO.N,GND*%
X68326000Y-61976000D03*
%TD*%
D11*
%TO.P,D,1*%
%TO.N,row2*%
X74676000Y-80899000D03*
D12*
%TO.P,D,2*%
%TO.N,Net-(D1-Pad2)*%
X81026000Y-80899000D03*
%TD*%
D10*
%TO.P,29,1*%
%TO.N,unconnected-(L1-Pad2)*%
X109728000Y-57404000D03*
%TD*%
%TO.P,,1*%
%TO.N,unconnected-(L1-Pad4)*%
X90678000Y-30226000D03*
%TD*%
%TO.P,21,1*%
%TO.N,unconnected-(L1-Pad2)*%
X71628000Y-57404000D03*
%TD*%
%TO.P,\u002A\u002A7,1*%
%TO.N,GND*%
X87376000Y-27178000D03*
%TD*%
%TO.P,\u002A\u002A142,1*%
%TO.N,col1*%
X84328000Y-119126000D03*
%TD*%
%TO.P,\u002A\u002A141,1*%
%TO.N,VCC*%
X71628000Y-119126000D03*
%TD*%
%TO.P,\u002A\u002A70,1*%
%TO.N,GND*%
X68326000Y-65278000D03*
%TD*%
D11*
%TO.P,D,1*%
%TO.N,row3*%
X74676000Y-99949000D03*
D12*
%TO.P,D,2*%
%TO.N,Net-(D1-Pad2)*%
X81026000Y-99949000D03*
%TD*%
D10*
%TO.P,2,1*%
%TO.N,row0*%
X71628000Y-35433000D03*
%TD*%
%TO.P,,1*%
%TO.N,unconnected-(L1-Pad4)*%
X71628000Y-87376000D03*
%TD*%
%TO.P,28,1*%
%TO.N,col2*%
X103378000Y-46228000D03*
%TD*%
D11*
%TO.P,D,1*%
%TO.N,row1*%
X93726000Y-61849000D03*
D12*
%TO.P,D,2*%
%TO.N,Net-(D1-Pad2)*%
X100076000Y-61849000D03*
%TD*%
D10*
%TO.P,88,1*%
%TO.N,col2*%
X103378000Y-103378000D03*
%TD*%
%TO.P,\u002A\u002A32,1*%
%TO.N,unconnected-(L1-Pad4)*%
X68326000Y-58928000D03*
%TD*%
%TO.P,90,1*%
%TO.N,row4*%
X109728000Y-111633000D03*
%TD*%
%TO.P,\u002A\u002A133,1*%
%TO.N,GND*%
X144526000Y-84328000D03*
%TD*%
%TO.P,\u002A\u002A36,1*%
%TO.N,VCC*%
X71628000Y-61976000D03*
%TD*%
%TO.P,6,1*%
%TO.N,row0*%
X90678000Y-35433000D03*
%TD*%
%TO.P,25,1*%
%TO.N,unconnected-(L1-Pad2)*%
X90678000Y-57404000D03*
%TD*%
D11*
%TO.P,D,1*%
%TO.N,row0*%
X131826000Y-42799000D03*
D12*
%TO.P,D,2*%
%TO.N,Net-(D1-Pad2)*%
X138176000Y-42799000D03*
%TD*%
D10*
%TO.P,37,1*%
%TO.N,unconnected-(L1-Pad2)*%
X52578000Y-76454000D03*
%TD*%
%TO.P,,1*%
%TO.N,unconnected-(L1-Pad4)*%
X128778000Y-87376000D03*
%TD*%
%TO.P,\u002A\u002A64,1*%
%TO.N,VCC*%
X52578000Y-81026000D03*
%TD*%
%TO.P,\u002A\u002A86,1*%
%TO.N,col3*%
X122428000Y-81026000D03*
%TD*%
%TO.P,27,1*%
%TO.N,row1*%
X106426000Y-54483000D03*
%TD*%
%TO.P,\u002A\u002A,1*%
%TO.N,col0*%
X65278000Y-42926000D03*
%TD*%
%TO.P,38,1*%
%TO.N,row2*%
X52578000Y-73533000D03*
%TD*%
%TO.P,5,1*%
%TO.N,unconnected-(L1-Pad2)*%
X90678000Y-38354000D03*
%TD*%
%TO.P,\u002A\u002A134,1*%
%TO.N,VCC*%
X52578000Y-119126000D03*
%TD*%
%TO.P,15,1*%
%TO.N,row0*%
X144526000Y-35433000D03*
%TD*%
%TO.P,36,1*%
%TO.N,col4*%
X141478000Y-46228000D03*
%TD*%
%TO.P,40,1*%
%TO.N,col0*%
X65278000Y-65278000D03*
%TD*%
%TO.P,\u002A\u002A41,1*%
%TO.N,VCC*%
X71628000Y-46228000D03*
%TD*%
%TO.P,,1*%
%TO.N,unconnected-(L1-Pad4)*%
X52578000Y-87376000D03*
%TD*%
%TO.P,\u002A\u002A105,1*%
%TO.N,GND*%
X68326000Y-84328000D03*
%TD*%
%TO.P,\u002A\u002A107,1*%
%TO.N,col1*%
X84328000Y-100076000D03*
%TD*%
%TO.P,\u002A\u002A155,1*%
%TO.N,VCC*%
X109728000Y-119126000D03*
%TD*%
%TO.P,7,1*%
%TO.N,row0*%
X106426000Y-35433000D03*
%TD*%
%TO.P,,1*%
%TO.N,row0*%
X52578000Y-35433000D03*
%TD*%
%TO.P,92,1*%
%TO.N,col3*%
X122428000Y-103378000D03*
%TD*%
%TO.P,\u002A\u002A137,1*%
%TO.N,unconnected-(L1-Pad4)*%
X68326000Y-116078000D03*
%TD*%
%TO.P,17,1*%
%TO.N,unconnected-(L1-Pad2)*%
X52578000Y-57404000D03*
%TD*%
%TO.P,\u002A\u002A111,1*%
%TO.N,VCC*%
X71628000Y-84328000D03*
%TD*%
%TO.P,45,1*%
%TO.N,unconnected-(L1-Pad2)*%
X90678000Y-76454000D03*
%TD*%
%TO.P,42,1*%
%TO.N,row2*%
X71628000Y-73533000D03*
%TD*%
%TO.P,\u002A\u002A75,1*%
%TO.N,unconnected-(L1-Pad2)*%
X87376000Y-68326000D03*
%TD*%
%TO.P,\u002A\u002A55,1*%
%TO.N,VCC*%
X109728000Y-46228000D03*
%TD*%
%TO.P,\u002A\u002A163,1*%
%TO.N,col4*%
X141478000Y-119126000D03*
%TD*%
%TO.P,\u002A\u002A120,1*%
%TO.N,VCC*%
X109728000Y-100076000D03*
%TD*%
%TO.P,\u002A\u002A,1*%
%TO.N,unconnected-(L1-Pad4)*%
X68326000Y-39878000D03*
%TD*%
%TO.P,,1*%
%TO.N,unconnected-(L1-Pad4)*%
X52578000Y-68326000D03*
%TD*%
%TO.P,84,1*%
%TO.N,col1*%
X84328000Y-103378000D03*
%TD*%
%TO.P,\u002A\u002A42,1*%
%TO.N,GND*%
X87376000Y-46228000D03*
%TD*%
%TO.P,\u002A\u002A122,1*%
%TO.N,GND*%
X125476000Y-100076000D03*
%TD*%
%TO.P,86,1*%
%TO.N,row4*%
X90678000Y-111633000D03*
%TD*%
%TO.P,24,1*%
%TO.N,col1*%
X84328000Y-46228000D03*
%TD*%
%TO.P,61,1*%
%TO.N,unconnected-(L1-Pad2)*%
X71628000Y-95504000D03*
%TD*%
%TO.P,\u002A\u002A145,1*%
%TO.N,unconnected-(L1-Pad2)*%
X87376000Y-106426000D03*
%TD*%
%TO.P,\u002A\u002A158,1*%
%TO.N,unconnected-(L1-Pad4)*%
X125476000Y-116078000D03*
%TD*%
%TO.P,83,1*%
%TO.N,row4*%
X87376000Y-111633000D03*
%TD*%
%TO.P,35,1*%
%TO.N,row1*%
X144526000Y-54483000D03*
%TD*%
%TO.P,\u002A\u002A116,1*%
%TO.N,unconnected-(L1-Pad4)*%
X106426000Y-97028000D03*
%TD*%
%TO.P,\u002A\u002A115,1*%
%TO.N,GND*%
X106426000Y-100076000D03*
%TD*%
%TO.P,\u002A\u002A150,1*%
%TO.N,GND*%
X106426000Y-119126000D03*
%TD*%
%TO.P,56,1*%
%TO.N,col4*%
X141478000Y-65278000D03*
%TD*%
%TO.P,\u002A\u002A108,1*%
%TO.N,GND*%
X87376000Y-100076000D03*
%TD*%
%TO.P,53,1*%
%TO.N,unconnected-(L1-Pad2)*%
X128778000Y-76454000D03*
%TD*%
%TO.P,66,1*%
%TO.N,row3*%
X90678000Y-92583000D03*
%TD*%
%TO.P,,1*%
%TO.N,unconnected-(L1-Pad4)*%
X90678000Y-68326000D03*
%TD*%
%TO.P,\u002A\u002A113,1*%
%TO.N,VCC*%
X90678000Y-100076000D03*
%TD*%
%TO.P,\u002A\u002A117,1*%
%TO.N,unconnected-(L1-Pad2)*%
X106426000Y-87376000D03*
%TD*%
%TO.P,\u002A\u002A21,1*%
%TO.N,GND*%
X125476000Y-27178000D03*
%TD*%
%TO.P,31,1*%
%TO.N,row1*%
X125476000Y-54483000D03*
%TD*%
D11*
%TO.P,D,1*%
%TO.N,row3*%
X112776000Y-99949000D03*
D12*
%TO.P,D,2*%
%TO.N,Net-(D1-Pad2)*%
X119126000Y-99949000D03*
%TD*%
D11*
%TO.P,D,1*%
%TO.N,row1*%
X112776000Y-61849000D03*
D12*
%TO.P,D,2*%
%TO.N,Net-(D1-Pad2)*%
X119126000Y-61849000D03*
%TD*%
D10*
%TO.P,51,1*%
%TO.N,row2*%
X125476000Y-73533000D03*
%TD*%
%TO.P,\u002A\u002A106,1*%
%TO.N,VCC*%
X71628000Y-100076000D03*
%TD*%
%TO.P,73,1*%
%TO.N,unconnected-(L1-Pad2)*%
X128778000Y-95504000D03*
%TD*%
%TO.P,\u002A\u002A98,1*%
%TO.N,GND*%
X144526000Y-65278000D03*
%TD*%
D11*
%TO.P,D,1*%
%TO.N,row2*%
X55626000Y-80899000D03*
D12*
%TO.P,D,2*%
%TO.N,Net-(D1-Pad2)*%
X61976000Y-80899000D03*
%TD*%
D10*
%TO.P,\u002A\u002A24,1*%
%TO.N,GND*%
X144526000Y-42926000D03*
%TD*%
%TO.P,\u002A\u002A12,1*%
%TO.N,unconnected-(L1-Pad2)*%
X106426000Y-30226000D03*
%TD*%
%TO.P,\u002A\u002A102,1*%
%TO.N,unconnected-(L1-Pad4)*%
X68326000Y-97028000D03*
%TD*%
%TO.P,50,1*%
%TO.N,row2*%
X109728000Y-73533000D03*
%TD*%
%TO.P,\u002A\u002A14,1*%
%TO.N,GND*%
X106426000Y-27178000D03*
%TD*%
%TO.P,\u002A\u002A3,1*%
%TO.N,GND*%
X87376000Y-42926000D03*
%TD*%
%TO.P,\u002A\u002A66,1*%
%TO.N,GND*%
X68326000Y-81026000D03*
%TD*%
%TO.P,\u002A\u002A104,1*%
%TO.N,VCC*%
X52578000Y-84328000D03*
%TD*%
%TO.P,\u002A\u002A164,1*%
%TO.N,GND*%
X144526000Y-119126000D03*
%TD*%
%TO.P,58,1*%
%TO.N,row3*%
X52578000Y-92583000D03*
%TD*%
D11*
%TO.P,D,1*%
%TO.N,row3*%
X55626000Y-99949000D03*
D12*
%TO.P,D,2*%
%TO.N,Net-(D1-Pad2)*%
X61976000Y-99949000D03*
%TD*%
D10*
%TO.P,\u002A\u002A73,1*%
%TO.N,GND*%
X87376000Y-81026000D03*
%TD*%
%TO.P,\u002A\u002A44,1*%
%TO.N,col2*%
X103378000Y-61976000D03*
%TD*%
%TO.P,\u002A\u002A40,1*%
%TO.N,unconnected-(L1-Pad2)*%
X87376000Y-49276000D03*
%TD*%
%TO.P,,1*%
%TO.N,row0*%
X68326000Y-35433000D03*
%TD*%
%TO.P,\u002A\u002A83,1*%
%TO.N,VCC*%
X90678000Y-65278000D03*
%TD*%
%TO.P,39,1*%
%TO.N,row2*%
X68326000Y-73533000D03*
%TD*%
%TO.P,\u002A\u002A126,1*%
%TO.N,GND*%
X125476000Y-84328000D03*
%TD*%
%TO.P,\u002A\u002A79,1*%
%TO.N,col2*%
X103378000Y-81026000D03*
%TD*%
%TO.P,\u002A\u002A9,1*%
%TO.N,col2*%
X103378000Y-42926000D03*
%TD*%
%TO.P,\u002A\u002A13,1*%
%TO.N,VCC*%
X90678000Y-27178000D03*
%TD*%
%TO.P,,1*%
%TO.N,unconnected-(L1-Pad4)*%
X109728000Y-68326000D03*
%TD*%
D11*
%TO.P,D,1*%
%TO.N,row4*%
X112776000Y-118999000D03*
D12*
%TO.P,D,2*%
%TO.N,Net-(D1-Pad2)*%
X119126000Y-118999000D03*
%TD*%
D10*
%TO.P,3,1*%
%TO.N,row0*%
X87376000Y-35433000D03*
%TD*%
%TO.P,70,1*%
%TO.N,row3*%
X109728000Y-92583000D03*
%TD*%
%TO.P,95,1*%
%TO.N,row4*%
X144526000Y-111633000D03*
%TD*%
%TO.P,93,1*%
%TO.N,unconnected-(L1-Pad2)*%
X128778000Y-114554000D03*
%TD*%
%TO.P,,1*%
%TO.N,unconnected-(L1-Pad4)*%
X128778000Y-68326000D03*
%TD*%
%TO.P,76,1*%
%TO.N,col4*%
X141478000Y-84328000D03*
%TD*%
%TO.P,\u002A\u002A22,1*%
%TO.N,VCC*%
X128778000Y-42926000D03*
%TD*%
%TO.P,69,1*%
%TO.N,unconnected-(L1-Pad2)*%
X109728000Y-95504000D03*
%TD*%
%TO.P,\u002A\u002A87,1*%
%TO.N,GND*%
X125476000Y-81026000D03*
%TD*%
%TO.P,\u002A\u002A27,1*%
%TO.N,VCC*%
X128778000Y-27178000D03*
%TD*%
D11*
%TO.P,D,1*%
%TO.N,row0*%
X93726000Y-42799000D03*
D12*
%TO.P,D,2*%
%TO.N,Net-(D1-Pad2)*%
X100076000Y-42799000D03*
%TD*%
D10*
%TO.P,4,1*%
%TO.N,col1*%
X84328000Y-27178000D03*
%TD*%
%TO.P,\u002A\u002A35,1*%
%TO.N,GND*%
X68326000Y-46228000D03*
%TD*%
%TO.P,\u002A\u002A103,1*%
%TO.N,unconnected-(L1-Pad2)*%
X68326000Y-87376000D03*
%TD*%
D11*
%TO.P,D,1*%
%TO.N,row1*%
X74676000Y-61849000D03*
D12*
%TO.P,D,2*%
%TO.N,Net-(D1-Pad2)*%
X81026000Y-61849000D03*
%TD*%
D11*
%TO.P,D,1*%
%TO.N,row2*%
X131826000Y-80899000D03*
D12*
%TO.P,D,2*%
%TO.N,Net-(D1-Pad2)*%
X138176000Y-80899000D03*
%TD*%
D10*
%TO.P,\u002A\u002A124,1*%
%TO.N,unconnected-(L1-Pad2)*%
X125476000Y-87376000D03*
%TD*%
%TO.P,\u002A\u002A125,1*%
%TO.N,VCC*%
X109728000Y-84328000D03*
%TD*%
%TO.P,,1*%
%TO.N,unconnected-(L1-Pad4)*%
X90678000Y-87376000D03*
%TD*%
D13*
%TO.N,row0*%
X109855000Y-40513000D03*
X52705000Y-40513000D03*
X90805000Y-40513000D03*
X67056000Y-39243000D03*
X128905000Y-40513000D03*
X86106000Y-39243000D03*
X124206000Y-39243000D03*
X105156000Y-39243000D03*
X71755000Y-40513000D03*
%TO.N,row1*%
X71755000Y-59563000D03*
X86106000Y-58293000D03*
X124206000Y-58293000D03*
X105156000Y-58293000D03*
X67056000Y-58293000D03*
X52705000Y-59563000D03*
X109855000Y-59563000D03*
X90805000Y-59563000D03*
X128905000Y-59563000D03*
%TO.N,row2*%
X52705000Y-78613000D03*
X71755000Y-78613000D03*
X128905000Y-78613000D03*
X124206000Y-77343000D03*
X109855000Y-78613000D03*
X67056000Y-77343000D03*
X105156000Y-77343000D03*
X90805000Y-78613000D03*
X86106000Y-77343000D03*
%TO.N,row3*%
X124206000Y-96393000D03*
X109855000Y-97663000D03*
X86106000Y-96393000D03*
X52705000Y-97663000D03*
X128905000Y-97663000D03*
X105156000Y-96393000D03*
X67056000Y-96393000D03*
X90805000Y-97663000D03*
X71755000Y-97663000D03*
%TO.N,row4*%
X67056000Y-115443000D03*
X105156000Y-115443000D03*
X128905000Y-116713000D03*
X86106000Y-115443000D03*
X71755000Y-116713000D03*
X124206000Y-115443000D03*
X90805000Y-116713000D03*
X52705000Y-116713000D03*
X109855000Y-116713000D03*
%TO.N,GND*%
X121793000Y-117094000D03*
X120102000Y-31115000D03*
X102743000Y-117094000D03*
X139152000Y-69215000D03*
X62952000Y-88265000D03*
X64643000Y-98044000D03*
X120102000Y-69215000D03*
X101052000Y-50165000D03*
X120102000Y-50165000D03*
X120102000Y-88265000D03*
X83693000Y-40894000D03*
X64643000Y-59944000D03*
X101052000Y-88265000D03*
X83693000Y-78994000D03*
X82002000Y-69215000D03*
X139152000Y-88265000D03*
X101052000Y-69215000D03*
X64643000Y-40894000D03*
X62952000Y-50165000D03*
X82002000Y-88265000D03*
X64643000Y-117094000D03*
X140843000Y-40894000D03*
X140843000Y-78994000D03*
X102743000Y-59944000D03*
X121793000Y-78994000D03*
X82002000Y-50165000D03*
X140843000Y-98044000D03*
X62952000Y-107315000D03*
X64643000Y-78994000D03*
X101052000Y-31115000D03*
X140843000Y-59944000D03*
X102743000Y-40894000D03*
X82002000Y-31115000D03*
X121793000Y-98044000D03*
X62952000Y-69215000D03*
X83693000Y-98044000D03*
X139152000Y-50165000D03*
X121793000Y-40894000D03*
X102743000Y-78994000D03*
X139152000Y-31115000D03*
X62952000Y-31115000D03*
X83693000Y-117094000D03*
X102743000Y-98044000D03*
X101052000Y-107315000D03*
X139152000Y-107315000D03*
X120102000Y-107315000D03*
X140843000Y-117094000D03*
X83693000Y-59944000D03*
X82002000Y-107315000D03*
X121793000Y-59944000D03*
%TO.N,VCC*%
X96052000Y-86756480D03*
X57952000Y-48656480D03*
X125476000Y-66675000D03*
X123190000Y-87503000D03*
X77002000Y-29606480D03*
X66040000Y-87503000D03*
X132969000Y-52705000D03*
X94869000Y-90805000D03*
X66040000Y-68453000D03*
X87376000Y-66675000D03*
X56769000Y-33655000D03*
X94869000Y-52705000D03*
X96052000Y-67706480D03*
X123190000Y-106553000D03*
X75819000Y-71755000D03*
X115102000Y-48656480D03*
X106426000Y-85725000D03*
X85090000Y-30353000D03*
X94869000Y-71755000D03*
X113919000Y-90805000D03*
X77002000Y-86756480D03*
X134152000Y-48656480D03*
X77002000Y-67706480D03*
X125476000Y-85725000D03*
X106426000Y-66675000D03*
X106426000Y-104775000D03*
X132969000Y-109855000D03*
X115102000Y-67706480D03*
X115102000Y-29606480D03*
X104140000Y-106553000D03*
X125476000Y-104775000D03*
X113919000Y-52705000D03*
X56769000Y-52705000D03*
X56769000Y-71755000D03*
X85090000Y-49403000D03*
X85090000Y-68453000D03*
X57952000Y-29606480D03*
X94869000Y-109855000D03*
X87376000Y-104775000D03*
X115102000Y-86756480D03*
X57952000Y-105806480D03*
X68326000Y-104775000D03*
X68326000Y-47625000D03*
X106426000Y-47625000D03*
X66040000Y-106553000D03*
X87376000Y-28575000D03*
X132969000Y-90805000D03*
X123190000Y-49403000D03*
X134152000Y-67706480D03*
X66040000Y-49403000D03*
X57952000Y-67706480D03*
X104140000Y-49403000D03*
X75819000Y-52705000D03*
X75819000Y-33655000D03*
X85090000Y-87503000D03*
X132969000Y-71755000D03*
X96052000Y-48656480D03*
X113919000Y-71755000D03*
X134152000Y-105806480D03*
X115102000Y-105806480D03*
X134152000Y-86756480D03*
X104140000Y-87503000D03*
X77002000Y-48656480D03*
X56769000Y-90805000D03*
X123190000Y-30353000D03*
X68326000Y-66675000D03*
X68326000Y-28575000D03*
X106426000Y-28575000D03*
X125476000Y-28575000D03*
X75819000Y-109855000D03*
X96052000Y-105806480D03*
X77002000Y-105806480D03*
X85090000Y-106553000D03*
X56769000Y-109855000D03*
X125476000Y-47625000D03*
X104140000Y-30353000D03*
X68326000Y-85725000D03*
X75819000Y-90805000D03*
X87376000Y-47625000D03*
X57952000Y-86756480D03*
X123190000Y-68453000D03*
X134152000Y-29606480D03*
X96052000Y-29606480D03*
X113919000Y-33655000D03*
X66040000Y-30353000D03*
X132969000Y-33655000D03*
X104140000Y-68453000D03*
X113919000Y-109855000D03*
X94869000Y-33655000D03*
X87376000Y-85725000D03*
%TO.N,unconnected-(L1-Pad4)*%
X120777000Y-33401000D03*
X62952000Y-67691000D03*
X120777000Y-90551000D03*
X101052000Y-29591000D03*
X82002000Y-86741000D03*
X139152000Y-105791000D03*
X120102000Y-86741000D03*
X62952000Y-105791000D03*
X139152000Y-29591000D03*
X101727000Y-90551000D03*
X139827000Y-90551000D03*
X82677000Y-90551000D03*
X82677000Y-33401000D03*
X62952000Y-86741000D03*
X120777000Y-52451000D03*
X63627000Y-52451000D03*
X101727000Y-33401000D03*
X62952000Y-29591000D03*
X82002000Y-48641000D03*
X101727000Y-71501000D03*
X139152000Y-86741000D03*
X82677000Y-52451000D03*
X101727000Y-109601000D03*
X63627000Y-90551000D03*
X63627000Y-33401000D03*
X139152000Y-48641000D03*
X139827000Y-52451000D03*
X120102000Y-67691000D03*
X101052000Y-86741000D03*
X62952000Y-48641000D03*
X120777000Y-71501000D03*
X101052000Y-105791000D03*
X101727000Y-52451000D03*
X101052000Y-67691000D03*
X63627000Y-71501000D03*
X139827000Y-33401000D03*
X82677000Y-71501000D03*
X101052000Y-48641000D03*
X82002000Y-67691000D03*
X82677000Y-109601000D03*
X139152000Y-67691000D03*
X82002000Y-105791000D03*
X63627000Y-109601000D03*
X120102000Y-48641000D03*
X82002000Y-29591000D03*
X120102000Y-29591000D03*
X120777000Y-109601000D03*
X139827000Y-71501000D03*
X120102000Y-105791000D03*
X139827000Y-109601000D03*
%TO.N,unconnected-(L1-Pad2)*%
X77002000Y-31115000D03*
X134152000Y-31115000D03*
X115102000Y-88265000D03*
X115102000Y-50165000D03*
X57952000Y-50165000D03*
X96052000Y-107315000D03*
X96052000Y-69215000D03*
X77002000Y-69215000D03*
X134152000Y-107315000D03*
X57952000Y-31115000D03*
X57952000Y-88265000D03*
X77002000Y-88265000D03*
X77002000Y-50165000D03*
X77002000Y-107315000D03*
X115102000Y-69215000D03*
X96052000Y-31115000D03*
X134152000Y-69215000D03*
X115102000Y-107315000D03*
X134152000Y-50165000D03*
X134152000Y-88265000D03*
X96052000Y-50165000D03*
X115102000Y-31115000D03*
X57952000Y-69215000D03*
X96052000Y-88265000D03*
X57952000Y-107315000D03*
%TD*%
D14*
%TO.N,row0*%
X141720479Y-32627479D02*
X131583521Y-32627479D01*
X53721000Y-36576000D02*
X53721000Y-39497000D01*
X55383521Y-32627479D02*
X52578000Y-35433000D01*
X74433521Y-32627479D02*
X71628000Y-35433000D01*
X122670479Y-32627479D02*
X112533521Y-32627479D01*
X129921000Y-39497000D02*
X128905000Y-40513000D01*
X71628000Y-35433000D02*
X72771000Y-36576000D01*
X91821000Y-39497000D02*
X90805000Y-40513000D01*
X124206000Y-36703000D02*
X124206000Y-39243000D01*
X125476000Y-35433000D02*
X124206000Y-36703000D01*
X86106000Y-36703000D02*
X86106000Y-39243000D01*
X112533521Y-32627479D02*
X109728000Y-35433000D01*
X72771000Y-39497000D02*
X71755000Y-40513000D01*
X93483521Y-32627479D02*
X90678000Y-35433000D01*
X128778000Y-35433000D02*
X129921000Y-36576000D01*
X109728000Y-35433000D02*
X110871000Y-36576000D01*
X52578000Y-35433000D02*
X53721000Y-36576000D01*
X84570479Y-32627479D02*
X74433521Y-32627479D01*
X129921000Y-36576000D02*
X129921000Y-39497000D01*
X105156000Y-36703000D02*
X105156000Y-39243000D01*
X110871000Y-36576000D02*
X110871000Y-39497000D01*
X87376000Y-35433000D02*
X84570479Y-32627479D01*
X53721000Y-39497000D02*
X52705000Y-40513000D01*
X106426000Y-35433000D02*
X103620479Y-32627479D01*
X67056000Y-36703000D02*
X67056000Y-39243000D01*
X68326000Y-35433000D02*
X65520479Y-32627479D01*
X65520479Y-32627479D02*
X55383521Y-32627479D01*
X144526000Y-35433000D02*
X141720479Y-32627479D01*
X125476000Y-35433000D02*
X122670479Y-32627479D01*
X68326000Y-35433000D02*
X67056000Y-36703000D01*
X110871000Y-39497000D02*
X109855000Y-40513000D01*
X106426000Y-35433000D02*
X105156000Y-36703000D01*
X87376000Y-35433000D02*
X86106000Y-36703000D01*
X131583521Y-32627479D02*
X128778000Y-35433000D01*
X90678000Y-35433000D02*
X91821000Y-36576000D01*
X91821000Y-36576000D02*
X91821000Y-39497000D01*
X72771000Y-36576000D02*
X72771000Y-39497000D01*
X103620479Y-32627479D02*
X93483521Y-32627479D01*
%TO.N,row1*%
X74433521Y-51677479D02*
X71628000Y-54483000D01*
X141720479Y-51677479D02*
X131583521Y-51677479D01*
X103620479Y-51677479D02*
X93483521Y-51677479D01*
X52578000Y-54483000D02*
X53721000Y-55626000D01*
X125476000Y-54483000D02*
X122670479Y-51677479D01*
X90678000Y-54483000D02*
X91821000Y-55626000D01*
X110871000Y-58547000D02*
X109855000Y-59563000D01*
X109728000Y-54483000D02*
X110871000Y-55626000D01*
X91821000Y-58547000D02*
X90805000Y-59563000D01*
X87376000Y-54483000D02*
X84570479Y-51677479D01*
X129921000Y-55626000D02*
X129921000Y-58547000D01*
X112533521Y-51677479D02*
X109728000Y-54483000D01*
X144526000Y-54483000D02*
X141720479Y-51677479D01*
X129921000Y-58547000D02*
X128905000Y-59563000D01*
X93483521Y-51677479D02*
X90678000Y-54483000D01*
X128778000Y-54483000D02*
X129921000Y-55626000D01*
X129921000Y-58547000D02*
X128905000Y-59563000D01*
X86106000Y-55753000D02*
X86106000Y-58293000D01*
X65520479Y-51677479D02*
X55383521Y-51677479D01*
X125476000Y-54483000D02*
X124206000Y-55753000D01*
X55383521Y-51677479D02*
X52578000Y-54483000D01*
X68326000Y-54483000D02*
X67056000Y-55753000D01*
X67056000Y-55753000D02*
X67056000Y-58293000D01*
X106426000Y-54483000D02*
X105156000Y-55753000D01*
X53721000Y-58547000D02*
X52705000Y-59563000D01*
X106426000Y-54483000D02*
X103620479Y-51677479D01*
X53721000Y-55626000D02*
X53721000Y-58547000D01*
X128778000Y-54483000D02*
X129921000Y-55626000D01*
X131583521Y-51677479D02*
X128778000Y-54483000D01*
X84570479Y-51677479D02*
X74433521Y-51677479D01*
X87376000Y-54483000D02*
X86106000Y-55753000D01*
X72771000Y-58547000D02*
X71755000Y-59563000D01*
X71628000Y-54483000D02*
X72771000Y-55626000D01*
X105156000Y-55753000D02*
X105156000Y-58293000D01*
X129921000Y-55626000D02*
X129921000Y-58547000D01*
X122670479Y-51677479D02*
X112533521Y-51677479D01*
X68326000Y-54483000D02*
X65520479Y-51677479D01*
X124206000Y-55753000D02*
X124206000Y-58293000D01*
X110871000Y-55626000D02*
X110871000Y-58547000D01*
X72771000Y-55626000D02*
X72771000Y-58547000D01*
X91821000Y-55626000D02*
X91821000Y-58547000D01*
%TO.N,row2*%
X72771000Y-77597000D02*
X71755000Y-78613000D01*
X144526000Y-73533000D02*
X141720479Y-70727479D01*
X52578000Y-73533000D02*
X53721000Y-74676000D01*
X129921000Y-77597000D02*
X128905000Y-78613000D01*
X67056000Y-74803000D02*
X67056000Y-77343000D01*
X129921000Y-74676000D02*
X129921000Y-77597000D01*
X91821000Y-74676000D02*
X91821000Y-77597000D01*
X71628000Y-73533000D02*
X72771000Y-74676000D01*
X93483521Y-70727479D02*
X90678000Y-73533000D01*
X68326000Y-73533000D02*
X65520479Y-70727479D01*
X53721000Y-77597000D02*
X52705000Y-78613000D01*
X125476000Y-73533000D02*
X124206000Y-74803000D01*
X86106000Y-74803000D02*
X86106000Y-77343000D01*
X110871000Y-74676000D02*
X110871000Y-77597000D01*
X90678000Y-73533000D02*
X91821000Y-74676000D01*
X106426000Y-73533000D02*
X105156000Y-74803000D01*
X122670479Y-70727479D02*
X112533521Y-70727479D01*
X141720479Y-70727479D02*
X131583521Y-70727479D01*
X110871000Y-77597000D02*
X109855000Y-78613000D01*
X128778000Y-73533000D02*
X129921000Y-74676000D01*
X91821000Y-77597000D02*
X90805000Y-78613000D01*
X87376000Y-73533000D02*
X86106000Y-74803000D01*
X55383521Y-70727479D02*
X52578000Y-73533000D01*
X68326000Y-73533000D02*
X67056000Y-74803000D01*
X105156000Y-74803000D02*
X105156000Y-77343000D01*
X65520479Y-70727479D02*
X55383521Y-70727479D01*
X124206000Y-74803000D02*
X124206000Y-77343000D01*
X87376000Y-73533000D02*
X84570479Y-70727479D01*
X131583521Y-70727479D02*
X128778000Y-73533000D01*
X109728000Y-73533000D02*
X110871000Y-74676000D01*
X112533521Y-70727479D02*
X109728000Y-73533000D01*
X125476000Y-73533000D02*
X122670479Y-70727479D01*
X106426000Y-73533000D02*
X103620479Y-70727479D01*
X53721000Y-74676000D02*
X53721000Y-77597000D01*
X72771000Y-74676000D02*
X72771000Y-77597000D01*
X103620479Y-70727479D02*
X93483521Y-70727479D01*
X84570479Y-70727479D02*
X74433521Y-70727479D01*
X74433521Y-70727479D02*
X71628000Y-73533000D01*
%TO.N,row3*%
X109728000Y-92583000D02*
X110871000Y-93726000D01*
X52578000Y-92583000D02*
X53721000Y-93726000D01*
X87376000Y-92583000D02*
X84570479Y-89777479D01*
X72771000Y-93726000D02*
X72771000Y-96647000D01*
X105156000Y-93853000D02*
X105156000Y-96393000D01*
X86106000Y-93853000D02*
X86106000Y-96393000D01*
X106426000Y-92583000D02*
X105156000Y-93853000D01*
X90678000Y-92583000D02*
X91821000Y-93726000D01*
X141720479Y-89777479D02*
X131583521Y-89777479D01*
X93483521Y-89777479D02*
X90678000Y-92583000D01*
X129921000Y-96647000D02*
X128905000Y-97663000D01*
X106426000Y-92583000D02*
X103620479Y-89777479D01*
X68326000Y-92583000D02*
X65520479Y-89777479D01*
X110871000Y-93726000D02*
X110871000Y-96647000D01*
X129921000Y-93726000D02*
X129921000Y-96647000D01*
X74433521Y-89777479D02*
X71628000Y-92583000D01*
X72771000Y-96647000D02*
X71755000Y-97663000D01*
X112533521Y-89777479D02*
X109728000Y-92583000D01*
X125476000Y-92583000D02*
X124206000Y-93853000D01*
X125476000Y-92583000D02*
X122670479Y-89777479D01*
X131583521Y-89777479D02*
X128778000Y-92583000D01*
X68326000Y-92583000D02*
X67056000Y-93853000D01*
X91821000Y-93726000D02*
X91821000Y-96647000D01*
X87376000Y-92583000D02*
X86106000Y-93853000D01*
X53721000Y-96647000D02*
X52705000Y-97663000D01*
X53721000Y-93726000D02*
X53721000Y-96647000D01*
X103620479Y-89777479D02*
X93483521Y-89777479D01*
X122670479Y-89777479D02*
X112533521Y-89777479D01*
X55383521Y-89777479D02*
X52578000Y-92583000D01*
X84570479Y-89777479D02*
X74433521Y-89777479D01*
X71628000Y-92583000D02*
X72771000Y-93726000D01*
X144526000Y-92583000D02*
X141720479Y-89777479D01*
X91821000Y-96647000D02*
X90805000Y-97663000D01*
X110871000Y-96647000D02*
X109855000Y-97663000D01*
X124206000Y-93853000D02*
X124206000Y-96393000D01*
X128778000Y-92583000D02*
X129921000Y-93726000D01*
X67056000Y-93853000D02*
X67056000Y-96393000D01*
X65520479Y-89777479D02*
X55383521Y-89777479D01*
%TO.N,row4*%
X128778000Y-111633000D02*
X129921000Y-112776000D01*
X128778000Y-111633000D02*
X129921000Y-112776000D01*
X67056000Y-112903000D02*
X67056000Y-115443000D01*
X110871000Y-115697000D02*
X109855000Y-116713000D01*
X53721000Y-112776000D02*
X53721000Y-115697000D01*
X124206000Y-112903000D02*
X124206000Y-115443000D01*
X106426000Y-111633000D02*
X103620479Y-108827479D01*
X55383521Y-108827479D02*
X52578000Y-111633000D01*
X86106000Y-112903000D02*
X86106000Y-115443000D01*
X103620479Y-108827479D02*
X93483521Y-108827479D01*
X106426000Y-111633000D02*
X105156000Y-112903000D01*
X122670479Y-108827479D02*
X112533521Y-108827479D01*
X87376000Y-111633000D02*
X86106000Y-112903000D01*
X87376000Y-111633000D02*
X84570479Y-108827479D01*
X129921000Y-112776000D02*
X129921000Y-115697000D01*
X74433521Y-108827479D02*
X71628000Y-111633000D01*
X131583521Y-108827479D02*
X128778000Y-111633000D01*
X52578000Y-111633000D02*
X53721000Y-112776000D01*
X141720479Y-108827479D02*
X131583521Y-108827479D01*
X91821000Y-115697000D02*
X90805000Y-116713000D01*
X72771000Y-115697000D02*
X71755000Y-116713000D01*
X68326000Y-111633000D02*
X67056000Y-112903000D01*
X105156000Y-112903000D02*
X105156000Y-115443000D01*
X65520479Y-108827479D02*
X55383521Y-108827479D01*
X112533521Y-108827479D02*
X109728000Y-111633000D01*
X71628000Y-111633000D02*
X72771000Y-112776000D01*
X93483521Y-108827479D02*
X90678000Y-111633000D01*
X129921000Y-115697000D02*
X128905000Y-116713000D01*
X53721000Y-115697000D02*
X52705000Y-116713000D01*
X109728000Y-111633000D02*
X110871000Y-112776000D01*
X144526000Y-111633000D02*
X141720479Y-108827479D01*
X125476000Y-111633000D02*
X122670479Y-108827479D01*
X91821000Y-112776000D02*
X91821000Y-115697000D01*
X68326000Y-111633000D02*
X65520479Y-108827479D01*
X84570479Y-108827479D02*
X74433521Y-108827479D01*
X125476000Y-111633000D02*
X124206000Y-112903000D01*
X90678000Y-111633000D02*
X91821000Y-112776000D01*
X72771000Y-112776000D02*
X72771000Y-115697000D01*
X110871000Y-112776000D02*
X110871000Y-115697000D01*
%TO.N,GND*%
X87376000Y-61976000D02*
X86487000Y-61976000D01*
X129286000Y-28575000D02*
X130683000Y-27178000D01*
X66802000Y-100711000D02*
X66802000Y-102743000D01*
X72136000Y-66675000D02*
X73533000Y-65278000D01*
X85852000Y-81661000D02*
X85852000Y-83693000D01*
X143256000Y-104648000D02*
X144526000Y-103378000D01*
X140335000Y-66548000D02*
X143256000Y-66548000D01*
X81915000Y-84328000D02*
X83185000Y-85598000D01*
X91186000Y-85725000D02*
X92583000Y-84328000D01*
X81915000Y-27178000D02*
X83185000Y-28448000D01*
X140589000Y-69215000D02*
X144526000Y-65278000D01*
X105537000Y-100076000D02*
X104902000Y-100711000D01*
X125476000Y-100076000D02*
X124587000Y-100076000D01*
X111633000Y-103378000D02*
X120015000Y-103378000D01*
X102743000Y-40894000D02*
X104394000Y-40894000D01*
X144526000Y-42926000D02*
X143637000Y-42926000D01*
X139152000Y-50165000D02*
X140589000Y-50165000D01*
X92583000Y-46228000D02*
X100965000Y-46228000D01*
X102489000Y-69215000D02*
X106426000Y-65278000D01*
X68326000Y-84709000D02*
X69342000Y-85725000D01*
X91186000Y-66675000D02*
X92583000Y-65278000D01*
X66294000Y-78994000D02*
X68326000Y-81026000D01*
X88392000Y-85725000D02*
X91186000Y-85725000D01*
X105156000Y-66548000D02*
X106426000Y-65278000D01*
X92583000Y-84328000D02*
X100965000Y-84328000D01*
X106426000Y-61976000D02*
X105537000Y-61976000D01*
X62952000Y-31115000D02*
X64389000Y-31115000D01*
X143637000Y-42926000D02*
X143002000Y-43561000D01*
X123952000Y-43561000D02*
X123952000Y-45593000D01*
X107442000Y-28575000D02*
X110236000Y-28575000D01*
X123952000Y-81661000D02*
X123952000Y-83693000D01*
X64389000Y-107315000D02*
X68326000Y-103378000D01*
X142494000Y-117094000D02*
X144526000Y-119126000D01*
X125476000Y-103378000D02*
X124587000Y-103378000D01*
X87376000Y-81026000D02*
X86487000Y-81026000D01*
X123444000Y-117094000D02*
X125476000Y-119126000D01*
X82002000Y-107315000D02*
X83439000Y-107315000D01*
X105156000Y-28448000D02*
X106426000Y-27178000D01*
X82002000Y-50165000D02*
X83439000Y-50165000D01*
X92583000Y-27178000D02*
X100965000Y-27178000D01*
X83185000Y-47498000D02*
X86106000Y-47498000D01*
X143637000Y-46228000D02*
X143002000Y-45593000D01*
X83185000Y-85598000D02*
X86106000Y-85598000D01*
X69342000Y-104775000D02*
X72136000Y-104775000D01*
X121793000Y-40894000D02*
X123444000Y-40894000D01*
X125476000Y-27559000D02*
X126492000Y-28575000D01*
X64643000Y-98044000D02*
X66294000Y-98044000D01*
X111633000Y-46228000D02*
X120015000Y-46228000D01*
X68326000Y-81026000D02*
X67437000Y-81026000D01*
X140335000Y-85598000D02*
X143256000Y-85598000D01*
X73533000Y-27178000D02*
X81915000Y-27178000D01*
X143637000Y-103378000D02*
X143002000Y-102743000D01*
X102235000Y-104648000D02*
X105156000Y-104648000D01*
X104394000Y-40894000D02*
X106426000Y-42926000D01*
X101052000Y-69215000D02*
X102489000Y-69215000D01*
X144526000Y-103378000D02*
X143637000Y-103378000D01*
X125476000Y-65659000D02*
X126492000Y-66675000D01*
X124587000Y-84328000D02*
X123952000Y-83693000D01*
X68326000Y-103759000D02*
X69342000Y-104775000D01*
X140589000Y-31115000D02*
X144526000Y-27178000D01*
X102743000Y-98044000D02*
X104394000Y-98044000D01*
X101052000Y-50165000D02*
X102489000Y-50165000D01*
X64643000Y-59944000D02*
X66294000Y-59944000D01*
X130683000Y-46228000D02*
X139065000Y-46228000D01*
X68326000Y-84328000D02*
X67437000Y-84328000D01*
X121539000Y-31115000D02*
X125476000Y-27178000D01*
X143002000Y-62611000D02*
X143002000Y-64643000D01*
X106426000Y-100076000D02*
X105537000Y-100076000D01*
X106426000Y-27559000D02*
X107442000Y-28575000D01*
X85852000Y-100711000D02*
X85852000Y-102743000D01*
X88392000Y-28575000D02*
X91186000Y-28575000D01*
X86106000Y-66548000D02*
X87376000Y-65278000D01*
X139065000Y-84328000D02*
X140335000Y-85598000D01*
X121793000Y-78994000D02*
X123444000Y-78994000D01*
X68326000Y-61976000D02*
X67437000Y-61976000D01*
X106426000Y-81026000D02*
X105537000Y-81026000D01*
X129286000Y-47625000D02*
X130683000Y-46228000D01*
X130683000Y-103378000D02*
X139065000Y-103378000D01*
X102743000Y-78994000D02*
X104394000Y-78994000D01*
X140589000Y-88265000D02*
X144526000Y-84328000D01*
X126492000Y-104775000D02*
X129286000Y-104775000D01*
X126492000Y-47625000D02*
X129286000Y-47625000D01*
X102489000Y-31115000D02*
X106426000Y-27178000D01*
X100965000Y-46228000D02*
X102235000Y-47498000D01*
X121793000Y-117094000D02*
X123444000Y-117094000D01*
X64643000Y-78994000D02*
X66294000Y-78994000D01*
X139065000Y-27178000D02*
X140335000Y-28448000D01*
X100965000Y-103378000D02*
X102235000Y-104648000D01*
X68326000Y-46228000D02*
X67437000Y-46228000D01*
X101052000Y-107315000D02*
X102489000Y-107315000D01*
X104902000Y-81661000D02*
X104902000Y-83693000D01*
X64389000Y-31115000D02*
X68326000Y-27178000D01*
X104902000Y-62611000D02*
X104902000Y-64643000D01*
X68326000Y-42926000D02*
X67437000Y-42926000D01*
X106426000Y-65278000D02*
X105537000Y-65278000D01*
X105537000Y-46228000D02*
X104902000Y-45593000D01*
X91186000Y-104775000D02*
X92583000Y-103378000D01*
X125476000Y-46228000D02*
X124587000Y-46228000D01*
X124206000Y-104648000D02*
X125476000Y-103378000D01*
X102235000Y-28448000D02*
X105156000Y-28448000D01*
X125476000Y-61976000D02*
X124587000Y-61976000D01*
X140589000Y-50165000D02*
X144526000Y-46228000D01*
X67437000Y-61976000D02*
X66802000Y-62611000D01*
X123952000Y-62611000D02*
X123952000Y-64643000D01*
X86487000Y-46228000D02*
X85852000Y-45593000D01*
X107442000Y-47625000D02*
X110236000Y-47625000D01*
X124587000Y-46228000D02*
X123952000Y-45593000D01*
X143256000Y-85598000D02*
X144526000Y-84328000D01*
X68326000Y-100076000D02*
X67437000Y-100076000D01*
X87376000Y-27559000D02*
X88392000Y-28575000D01*
X73533000Y-103378000D02*
X81915000Y-103378000D01*
X81915000Y-46228000D02*
X83185000Y-47498000D01*
X100965000Y-65278000D02*
X102235000Y-66548000D01*
X125476000Y-42926000D02*
X124587000Y-42926000D01*
X144526000Y-65278000D02*
X143637000Y-65278000D01*
X100965000Y-84328000D02*
X102235000Y-85598000D01*
X67437000Y-65278000D02*
X66802000Y-64643000D01*
X69342000Y-85725000D02*
X72136000Y-85725000D01*
X104394000Y-117094000D02*
X106426000Y-119126000D01*
X67437000Y-100076000D02*
X66802000Y-100711000D01*
X68326000Y-27178000D02*
X68326000Y-27559000D01*
X66294000Y-117094000D02*
X68326000Y-119126000D01*
X86106000Y-28448000D02*
X87376000Y-27178000D01*
X123444000Y-40894000D02*
X125476000Y-42926000D01*
X121539000Y-88265000D02*
X125476000Y-84328000D01*
X83439000Y-50165000D02*
X87376000Y-46228000D01*
X85344000Y-78994000D02*
X87376000Y-81026000D01*
X67437000Y-84328000D02*
X66802000Y-83693000D01*
X87376000Y-103759000D02*
X88392000Y-104775000D01*
X106426000Y-84328000D02*
X105537000Y-84328000D01*
X86487000Y-84328000D02*
X85852000Y-83693000D01*
X130683000Y-27178000D02*
X139065000Y-27178000D01*
X121285000Y-47498000D02*
X124206000Y-47498000D01*
X120102000Y-31115000D02*
X121539000Y-31115000D01*
X143256000Y-66548000D02*
X144526000Y-65278000D01*
X140843000Y-40894000D02*
X142494000Y-40894000D01*
X73533000Y-84328000D02*
X81915000Y-84328000D01*
X111633000Y-27178000D02*
X120015000Y-27178000D01*
X140335000Y-47498000D02*
X143256000Y-47498000D01*
X144526000Y-81026000D02*
X143637000Y-81026000D01*
X86106000Y-104648000D02*
X87376000Y-103378000D01*
X66294000Y-40894000D02*
X68326000Y-42926000D01*
X81915000Y-65278000D02*
X83185000Y-66548000D01*
X105537000Y-42926000D02*
X104902000Y-43561000D01*
X104394000Y-98044000D02*
X106426000Y-100076000D01*
X72136000Y-28575000D02*
X73533000Y-27178000D01*
X124587000Y-42926000D02*
X123952000Y-43561000D01*
X68326000Y-65659000D02*
X69342000Y-66675000D01*
X124587000Y-103378000D02*
X123952000Y-102743000D01*
X83439000Y-69215000D02*
X87376000Y-65278000D01*
X67437000Y-81026000D02*
X66802000Y-81661000D01*
X82002000Y-69215000D02*
X83439000Y-69215000D01*
X129286000Y-104775000D02*
X130683000Y-103378000D01*
X73533000Y-46228000D02*
X81915000Y-46228000D01*
X62952000Y-88265000D02*
X64389000Y-88265000D01*
X87376000Y-100076000D02*
X86487000Y-100076000D01*
X106426000Y-42926000D02*
X105537000Y-42926000D01*
X126492000Y-85725000D02*
X129286000Y-85725000D01*
X83693000Y-117094000D02*
X85344000Y-117094000D01*
X82002000Y-31115000D02*
X83439000Y-31115000D01*
X142494000Y-98044000D02*
X144526000Y-100076000D01*
X87376000Y-84328000D02*
X86487000Y-84328000D01*
X125476000Y-84328000D02*
X124587000Y-84328000D01*
X143256000Y-47498000D02*
X144526000Y-46228000D01*
X87376000Y-46228000D02*
X86487000Y-46228000D01*
X126492000Y-28575000D02*
X129286000Y-28575000D01*
X121285000Y-28448000D02*
X124206000Y-28448000D01*
X111633000Y-65278000D02*
X120015000Y-65278000D01*
X66294000Y-98044000D02*
X68326000Y-100076000D01*
X85344000Y-40894000D02*
X87376000Y-42926000D01*
X110236000Y-28575000D02*
X111633000Y-27178000D01*
X121539000Y-107315000D02*
X125476000Y-103378000D01*
X102235000Y-66548000D02*
X105156000Y-66548000D01*
X83693000Y-98044000D02*
X85344000Y-98044000D01*
X87376000Y-42926000D02*
X86487000Y-42926000D01*
X105537000Y-61976000D02*
X104902000Y-62611000D01*
X68326000Y-65278000D02*
X67437000Y-65278000D01*
X66802000Y-62611000D02*
X66802000Y-64643000D01*
X81915000Y-103378000D02*
X83185000Y-104648000D01*
X142494000Y-78994000D02*
X144526000Y-81026000D01*
X88392000Y-66675000D02*
X91186000Y-66675000D01*
X129286000Y-66675000D02*
X130683000Y-65278000D01*
X72136000Y-47625000D02*
X73533000Y-46228000D01*
X121285000Y-85598000D02*
X124206000Y-85598000D01*
X91186000Y-28575000D02*
X92583000Y-27178000D01*
X87376000Y-65278000D02*
X86487000Y-65278000D01*
X144526000Y-84328000D02*
X143637000Y-84328000D01*
X107442000Y-104775000D02*
X110236000Y-104775000D01*
X120102000Y-88265000D02*
X121539000Y-88265000D01*
X124587000Y-100076000D02*
X123952000Y-100711000D01*
X120015000Y-27178000D02*
X121285000Y-28448000D01*
X68326000Y-27559000D02*
X69342000Y-28575000D01*
X67437000Y-42926000D02*
X66802000Y-43561000D01*
X120102000Y-50165000D02*
X121539000Y-50165000D01*
X121285000Y-104648000D02*
X124206000Y-104648000D01*
X83185000Y-104648000D02*
X86106000Y-104648000D01*
X139152000Y-69215000D02*
X140589000Y-69215000D01*
X86487000Y-61976000D02*
X85852000Y-62611000D01*
X107442000Y-85725000D02*
X110236000Y-85725000D01*
X124206000Y-85598000D02*
X125476000Y-84328000D01*
X66802000Y-81661000D02*
X66802000Y-83693000D01*
X143637000Y-61976000D02*
X143002000Y-62611000D01*
X102235000Y-47498000D02*
X105156000Y-47498000D01*
X144526000Y-46228000D02*
X143637000Y-46228000D01*
X125476000Y-81026000D02*
X124587000Y-81026000D01*
X111633000Y-84328000D02*
X120015000Y-84328000D01*
X125476000Y-84709000D02*
X126492000Y-85725000D01*
X144526000Y-61976000D02*
X143637000Y-61976000D01*
X140843000Y-117094000D02*
X142494000Y-117094000D01*
X129286000Y-85725000D02*
X130683000Y-84328000D01*
X124587000Y-61976000D02*
X123952000Y-62611000D01*
X144526000Y-100076000D02*
X143637000Y-100076000D01*
X142494000Y-40894000D02*
X144526000Y-42926000D01*
X64389000Y-50165000D02*
X68326000Y-46228000D01*
X106426000Y-46609000D02*
X107442000Y-47625000D01*
X105156000Y-104648000D02*
X106426000Y-103378000D01*
X85852000Y-62611000D02*
X85852000Y-64643000D01*
X68326000Y-103378000D02*
X67437000Y-103378000D01*
X102489000Y-88265000D02*
X106426000Y-84328000D01*
X92583000Y-103378000D02*
X100965000Y-103378000D01*
X120015000Y-84328000D02*
X121285000Y-85598000D01*
X83439000Y-31115000D02*
X87376000Y-27178000D01*
X139152000Y-107315000D02*
X140589000Y-107315000D01*
X106426000Y-103378000D02*
X105537000Y-103378000D01*
X130683000Y-65278000D02*
X139065000Y-65278000D01*
X123444000Y-78994000D02*
X125476000Y-81026000D01*
X126492000Y-66675000D02*
X129286000Y-66675000D01*
X124587000Y-81026000D02*
X123952000Y-81661000D01*
X106426000Y-84709000D02*
X107442000Y-85725000D01*
X72136000Y-85725000D02*
X73533000Y-84328000D01*
X64389000Y-88265000D02*
X68326000Y-84328000D01*
X64389000Y-69215000D02*
X68326000Y-65278000D01*
X120015000Y-46228000D02*
X121285000Y-47498000D01*
X110236000Y-85725000D02*
X111633000Y-84328000D01*
X125476000Y-65278000D02*
X124587000Y-65278000D01*
X100965000Y-27178000D02*
X102235000Y-28448000D01*
X106426000Y-103759000D02*
X107442000Y-104775000D01*
X140335000Y-28448000D02*
X143256000Y-28448000D01*
X143637000Y-81026000D02*
X143002000Y-81661000D01*
X123952000Y-100711000D02*
X123952000Y-102743000D01*
X143637000Y-84328000D02*
X143002000Y-83693000D01*
X83439000Y-88265000D02*
X87376000Y-84328000D01*
X86487000Y-81026000D02*
X85852000Y-81661000D01*
X102743000Y-117094000D02*
X104394000Y-117094000D01*
X104902000Y-100711000D02*
X104902000Y-102743000D01*
X105537000Y-103378000D02*
X104902000Y-102743000D01*
X62952000Y-50165000D02*
X64389000Y-50165000D01*
X130683000Y-84328000D02*
X139065000Y-84328000D01*
X140843000Y-59944000D02*
X142494000Y-59944000D01*
X143002000Y-43561000D02*
X143002000Y-45593000D01*
X139065000Y-65278000D02*
X140335000Y-66548000D01*
X102743000Y-59944000D02*
X104394000Y-59944000D01*
X124206000Y-66548000D02*
X125476000Y-65278000D01*
X143002000Y-81661000D02*
X143002000Y-83693000D01*
X88392000Y-104775000D02*
X91186000Y-104775000D01*
X121285000Y-66548000D02*
X124206000Y-66548000D01*
X124206000Y-47498000D02*
X125476000Y-46228000D01*
X140843000Y-98044000D02*
X142494000Y-98044000D01*
X140589000Y-107315000D02*
X144526000Y-103378000D01*
X73533000Y-65278000D02*
X81915000Y-65278000D01*
X85344000Y-117094000D02*
X87376000Y-119126000D01*
X86487000Y-65278000D02*
X85852000Y-64643000D01*
X87376000Y-65659000D02*
X88392000Y-66675000D01*
X120015000Y-103378000D02*
X121285000Y-104648000D01*
X86487000Y-100076000D02*
X85852000Y-100711000D01*
X66294000Y-59944000D02*
X68326000Y-61976000D01*
X105537000Y-65278000D02*
X104902000Y-64643000D01*
X62952000Y-107315000D02*
X64389000Y-107315000D01*
X104394000Y-78994000D02*
X106426000Y-81026000D01*
X121793000Y-98044000D02*
X123444000Y-98044000D01*
X83185000Y-28448000D02*
X86106000Y-28448000D01*
X142494000Y-59944000D02*
X144526000Y-61976000D01*
X69342000Y-47625000D02*
X72136000Y-47625000D01*
X139065000Y-103378000D02*
X140335000Y-104648000D01*
X105537000Y-84328000D02*
X104902000Y-83693000D01*
X124206000Y-28448000D02*
X125476000Y-27178000D01*
X125476000Y-103759000D02*
X126492000Y-104775000D01*
X143256000Y-28448000D02*
X144526000Y-27178000D01*
X83185000Y-66548000D02*
X86106000Y-66548000D01*
X121539000Y-69215000D02*
X125476000Y-65278000D01*
X121539000Y-50165000D02*
X125476000Y-46228000D01*
X102489000Y-107315000D02*
X106426000Y-103378000D01*
X87376000Y-84709000D02*
X88392000Y-85725000D01*
X120015000Y-65278000D02*
X121285000Y-66548000D01*
X139152000Y-88265000D02*
X140589000Y-88265000D01*
X66802000Y-43561000D02*
X66802000Y-45593000D01*
X105156000Y-47498000D02*
X106426000Y-46228000D01*
X88392000Y-47625000D02*
X91186000Y-47625000D01*
X62952000Y-69215000D02*
X64389000Y-69215000D01*
X104902000Y-43561000D02*
X104902000Y-45593000D01*
X86487000Y-42926000D02*
X85852000Y-43561000D01*
X107442000Y-66675000D02*
X110236000Y-66675000D01*
X82002000Y-88265000D02*
X83439000Y-88265000D01*
X125476000Y-46609000D02*
X126492000Y-47625000D01*
X110236000Y-104775000D02*
X111633000Y-103378000D01*
X106426000Y-46228000D02*
X105537000Y-46228000D01*
X85344000Y-59944000D02*
X87376000Y-61976000D01*
X104394000Y-59944000D02*
X106426000Y-61976000D01*
X67437000Y-103378000D02*
X66802000Y-102743000D01*
X67437000Y-46228000D02*
X66802000Y-45593000D01*
X92583000Y-65278000D02*
X100965000Y-65278000D01*
X143637000Y-65278000D02*
X143002000Y-64643000D01*
X86106000Y-47498000D02*
X87376000Y-46228000D01*
X83693000Y-40894000D02*
X85344000Y-40894000D01*
X139065000Y-46228000D02*
X140335000Y-47498000D01*
X110236000Y-47625000D02*
X111633000Y-46228000D01*
X140335000Y-104648000D02*
X143256000Y-104648000D01*
X68326000Y-46609000D02*
X69342000Y-47625000D01*
X143002000Y-100711000D02*
X143002000Y-102743000D01*
X139152000Y-31115000D02*
X140589000Y-31115000D01*
X85344000Y-98044000D02*
X87376000Y-100076000D01*
X140843000Y-78994000D02*
X142494000Y-78994000D01*
X91186000Y-47625000D02*
X92583000Y-46228000D01*
X120102000Y-69215000D02*
X121539000Y-69215000D01*
X101052000Y-31115000D02*
X102489000Y-31115000D01*
X143637000Y-100076000D02*
X143002000Y-100711000D01*
X72136000Y-104775000D02*
X73533000Y-103378000D01*
X64643000Y-40894000D02*
X66294000Y-40894000D01*
X110236000Y-66675000D02*
X111633000Y-65278000D01*
X83693000Y-78994000D02*
X85344000Y-78994000D01*
X87376000Y-46609000D02*
X88392000Y-47625000D01*
X64643000Y-117094000D02*
X66294000Y-117094000D01*
X123444000Y-59944000D02*
X125476000Y-61976000D01*
X124587000Y-65278000D02*
X123952000Y-64643000D01*
X102235000Y-85598000D02*
X105156000Y-85598000D01*
X102489000Y-50165000D02*
X106426000Y-46228000D01*
X69342000Y-28575000D02*
X72136000Y-28575000D01*
X101052000Y-88265000D02*
X102489000Y-88265000D01*
X87376000Y-103378000D02*
X86487000Y-103378000D01*
X105537000Y-81026000D02*
X104902000Y-81661000D01*
X121793000Y-59944000D02*
X123444000Y-59944000D01*
X85852000Y-43561000D02*
X85852000Y-45593000D01*
X120102000Y-107315000D02*
X121539000Y-107315000D01*
X83439000Y-107315000D02*
X87376000Y-103378000D01*
X105156000Y-85598000D02*
X106426000Y-84328000D01*
X86106000Y-85598000D02*
X87376000Y-84328000D01*
X86487000Y-103378000D02*
X85852000Y-102743000D01*
X69342000Y-66675000D02*
X72136000Y-66675000D01*
X123444000Y-98044000D02*
X125476000Y-100076000D01*
X83693000Y-59944000D02*
X85344000Y-59944000D01*
X106426000Y-65659000D02*
X107442000Y-66675000D01*
%TO.N,VCC*%
X75819000Y-33655000D02*
X75819000Y-38624026D01*
X111252000Y-45847000D02*
X110871000Y-46228000D01*
X130302000Y-62357000D02*
X130302000Y-64897000D01*
X90678000Y-61976000D02*
X91821000Y-61976000D01*
X86868000Y-85725000D02*
X85090000Y-87503000D01*
X53721000Y-103378000D02*
X52578000Y-103378000D01*
X68326000Y-104775000D02*
X67818000Y-104775000D01*
X94869000Y-52705000D02*
X94869000Y-57674026D01*
X75819000Y-52705000D02*
X75819000Y-57674026D01*
X132969000Y-95774026D02*
X128778000Y-99965026D01*
X91821000Y-65278000D02*
X90678000Y-65278000D01*
X132969000Y-90805000D02*
X132969000Y-95774026D01*
X110871000Y-103378000D02*
X109728000Y-103378000D01*
X132969000Y-38624026D02*
X128778000Y-42815026D01*
X110871000Y-81026000D02*
X111252000Y-81407000D01*
X67818000Y-66675000D02*
X66040000Y-68453000D01*
X53721000Y-100076000D02*
X54102000Y-100457000D01*
X110871000Y-42926000D02*
X111252000Y-43307000D01*
X124968000Y-28575000D02*
X123190000Y-30353000D01*
X110871000Y-100076000D02*
X111252000Y-100457000D01*
X92202000Y-83947000D02*
X91821000Y-84328000D01*
X113919000Y-38624026D02*
X109728000Y-42815026D01*
X106426000Y-66675000D02*
X105918000Y-66675000D01*
X130302000Y-64897000D02*
X129921000Y-65278000D01*
X87376000Y-47625000D02*
X86868000Y-47625000D01*
X130302000Y-100457000D02*
X130302000Y-102997000D01*
X94869000Y-76724026D02*
X90678000Y-80915026D01*
X124968000Y-47625000D02*
X123190000Y-49403000D01*
X113919000Y-57674026D02*
X109728000Y-61865026D01*
X53721000Y-61976000D02*
X54102000Y-62357000D01*
X87376000Y-66675000D02*
X86868000Y-66675000D01*
X111252000Y-83947000D02*
X110871000Y-84328000D01*
X94869000Y-95774026D02*
X90678000Y-99965026D01*
X56769000Y-33655000D02*
X56769000Y-38624026D01*
X132969000Y-33655000D02*
X132969000Y-38624026D01*
X52578000Y-42815026D02*
X52578000Y-42926000D01*
X86868000Y-47625000D02*
X85090000Y-49403000D01*
X94869000Y-114824026D02*
X90678000Y-119015026D01*
X73152000Y-62357000D02*
X73152000Y-64897000D01*
X56769000Y-76724026D02*
X52578000Y-80915026D01*
X106426000Y-104775000D02*
X105918000Y-104775000D01*
X90678000Y-42926000D02*
X91821000Y-42926000D01*
X132969000Y-114824026D02*
X128778000Y-119015026D01*
X128778000Y-100076000D02*
X129921000Y-100076000D01*
X94869000Y-71755000D02*
X94869000Y-76724026D01*
X111252000Y-43307000D02*
X111252000Y-45847000D01*
X56769000Y-114824026D02*
X52578000Y-119015026D01*
X72771000Y-103378000D02*
X71628000Y-103378000D01*
X94869000Y-90805000D02*
X94869000Y-95774026D01*
X113919000Y-76724026D02*
X109728000Y-80915026D01*
X52578000Y-42926000D02*
X53721000Y-42926000D01*
X75819000Y-90805000D02*
X75819000Y-95774026D01*
X105918000Y-85725000D02*
X104140000Y-87503000D01*
X124968000Y-66675000D02*
X123190000Y-68453000D01*
X129921000Y-61976000D02*
X130302000Y-62357000D01*
X109728000Y-81026000D02*
X110871000Y-81026000D01*
X72771000Y-61976000D02*
X73152000Y-62357000D01*
X113919000Y-52705000D02*
X113919000Y-57674026D01*
X54102000Y-81407000D02*
X54102000Y-83947000D01*
X94869000Y-109855000D02*
X94869000Y-114824026D01*
X105918000Y-47625000D02*
X104140000Y-49403000D01*
X129921000Y-81026000D02*
X130302000Y-81407000D01*
X54102000Y-83947000D02*
X53721000Y-84328000D01*
X110871000Y-84328000D02*
X109728000Y-84328000D01*
X86868000Y-28575000D02*
X85090000Y-30353000D01*
X111252000Y-64897000D02*
X110871000Y-65278000D01*
X52578000Y-81026000D02*
X53721000Y-81026000D01*
X91821000Y-84328000D02*
X90678000Y-84328000D01*
X54102000Y-102997000D02*
X53721000Y-103378000D01*
X53721000Y-81026000D02*
X54102000Y-81407000D01*
X132969000Y-57674026D02*
X128778000Y-61865026D01*
X56769000Y-71755000D02*
X56769000Y-76724026D01*
X125476000Y-28575000D02*
X124968000Y-28575000D01*
X52578000Y-100076000D02*
X53721000Y-100076000D01*
X56769000Y-95774026D02*
X52578000Y-99965026D01*
X106426000Y-28575000D02*
X105918000Y-28575000D01*
X75819000Y-71755000D02*
X75819000Y-76724026D01*
X92202000Y-81407000D02*
X92202000Y-83947000D01*
X91821000Y-61976000D02*
X92202000Y-62357000D01*
X132969000Y-52705000D02*
X132969000Y-57674026D01*
X124968000Y-85725000D02*
X123190000Y-87503000D01*
X130302000Y-102997000D02*
X129921000Y-103378000D01*
X91821000Y-81026000D02*
X92202000Y-81407000D01*
X110871000Y-46228000D02*
X109728000Y-46228000D01*
X113919000Y-109855000D02*
X113919000Y-114824026D01*
X67818000Y-104775000D02*
X66040000Y-106553000D01*
X94869000Y-38624026D02*
X90678000Y-42815026D01*
X132969000Y-109855000D02*
X132969000Y-114824026D01*
X132969000Y-71755000D02*
X132969000Y-76724026D01*
X56769000Y-90805000D02*
X56769000Y-95774026D01*
X109728000Y-61976000D02*
X110871000Y-61976000D01*
X53721000Y-84328000D02*
X52578000Y-84328000D01*
X91821000Y-103378000D02*
X90678000Y-103378000D01*
X75819000Y-38624026D02*
X71628000Y-42815026D01*
X75819000Y-109855000D02*
X75819000Y-114824026D01*
X54102000Y-43307000D02*
X54102000Y-45847000D01*
X92202000Y-43307000D02*
X92202000Y-45847000D01*
X67818000Y-28575000D02*
X66040000Y-30353000D01*
X53721000Y-65278000D02*
X52578000Y-65278000D01*
X73152000Y-83947000D02*
X72771000Y-84328000D01*
X128778000Y-61976000D02*
X129921000Y-61976000D01*
X56769000Y-57674026D02*
X52578000Y-61865026D01*
X75819000Y-114824026D02*
X71628000Y-119015026D01*
X105918000Y-66675000D02*
X104140000Y-68453000D01*
X75819000Y-95774026D02*
X71628000Y-99965026D01*
X72771000Y-42926000D02*
X73152000Y-43307000D01*
X92202000Y-64897000D02*
X91821000Y-65278000D01*
X113919000Y-71755000D02*
X113919000Y-76724026D01*
X71628000Y-42926000D02*
X72771000Y-42926000D01*
X72771000Y-84328000D02*
X71628000Y-84328000D01*
X90678000Y-81026000D02*
X91821000Y-81026000D01*
X73152000Y-43307000D02*
X73152000Y-45847000D01*
X130302000Y-83947000D02*
X129921000Y-84328000D01*
X129921000Y-84328000D02*
X128778000Y-84328000D01*
X73152000Y-45847000D02*
X72771000Y-46228000D01*
X92202000Y-100457000D02*
X92202000Y-102997000D01*
X72771000Y-100076000D02*
X73152000Y-100457000D01*
X56769000Y-38624026D02*
X52578000Y-42815026D01*
X92202000Y-102997000D02*
X91821000Y-103378000D01*
X125476000Y-104775000D02*
X124968000Y-104775000D01*
X73152000Y-100457000D02*
X73152000Y-102997000D01*
X113919000Y-95774026D02*
X109728000Y-99965026D01*
X125476000Y-47625000D02*
X124968000Y-47625000D01*
X54102000Y-62357000D02*
X54102000Y-64897000D01*
X130302000Y-43307000D02*
X130302000Y-45847000D01*
X72771000Y-46228000D02*
X71628000Y-46228000D01*
X94869000Y-33655000D02*
X94869000Y-38624026D01*
X109728000Y-100076000D02*
X110871000Y-100076000D01*
X111252000Y-81407000D02*
X111252000Y-83947000D01*
X87376000Y-104775000D02*
X86868000Y-104775000D01*
X113919000Y-114824026D02*
X109728000Y-119015026D01*
X129921000Y-100076000D02*
X130302000Y-100457000D01*
X105918000Y-104775000D02*
X104140000Y-106553000D01*
X86868000Y-104775000D02*
X85090000Y-106553000D01*
X52578000Y-61976000D02*
X53721000Y-61976000D01*
X105918000Y-28575000D02*
X104140000Y-30353000D01*
X132969000Y-76724026D02*
X128778000Y-80915026D01*
X54102000Y-100457000D02*
X54102000Y-102997000D01*
X56769000Y-52705000D02*
X56769000Y-57674026D01*
X71628000Y-61976000D02*
X72771000Y-61976000D01*
X73152000Y-64897000D02*
X72771000Y-65278000D01*
X125476000Y-85725000D02*
X124968000Y-85725000D01*
X129921000Y-65278000D02*
X128778000Y-65278000D01*
X129921000Y-103378000D02*
X128778000Y-103378000D01*
X91821000Y-42926000D02*
X92202000Y-43307000D01*
X91821000Y-46228000D02*
X90678000Y-46228000D01*
X106426000Y-85725000D02*
X105918000Y-85725000D01*
X128778000Y-81026000D02*
X129921000Y-81026000D01*
X71628000Y-81026000D02*
X72771000Y-81026000D01*
X68326000Y-28575000D02*
X67818000Y-28575000D01*
X87376000Y-85725000D02*
X86868000Y-85725000D01*
X110871000Y-61976000D02*
X111252000Y-62357000D01*
X128778000Y-42926000D02*
X129921000Y-42926000D01*
X72771000Y-81026000D02*
X73152000Y-81407000D01*
X94869000Y-57674026D02*
X90678000Y-61865026D01*
X130302000Y-45847000D02*
X129921000Y-46228000D01*
X73152000Y-81407000D02*
X73152000Y-83947000D01*
X113919000Y-90805000D02*
X113919000Y-95774026D01*
X111252000Y-102997000D02*
X110871000Y-103378000D01*
X124968000Y-104775000D02*
X123190000Y-106553000D01*
X54102000Y-45847000D02*
X53721000Y-46228000D01*
X68326000Y-85725000D02*
X67818000Y-85725000D01*
X73152000Y-102997000D02*
X72771000Y-103378000D01*
X111252000Y-100457000D02*
X111252000Y-102997000D01*
X54102000Y-64897000D02*
X53721000Y-65278000D01*
X68326000Y-66675000D02*
X67818000Y-66675000D01*
X92202000Y-62357000D02*
X92202000Y-64897000D01*
X72771000Y-65278000D02*
X71628000Y-65278000D01*
X53721000Y-42926000D02*
X54102000Y-43307000D01*
X106426000Y-47625000D02*
X105918000Y-47625000D01*
X91821000Y-100076000D02*
X92202000Y-100457000D01*
X53721000Y-46228000D02*
X52578000Y-46228000D01*
X75819000Y-76724026D02*
X71628000Y-80915026D01*
X129921000Y-46228000D02*
X128778000Y-46228000D01*
X129921000Y-42926000D02*
X130302000Y-43307000D01*
X90678000Y-100076000D02*
X91821000Y-100076000D01*
X110871000Y-65278000D02*
X109728000Y-65278000D01*
X71628000Y-100076000D02*
X72771000Y-100076000D01*
X67818000Y-85725000D02*
X66040000Y-87503000D01*
X111252000Y-62357000D02*
X111252000Y-64897000D01*
X113919000Y-33655000D02*
X113919000Y-38624026D01*
X130302000Y-81407000D02*
X130302000Y-83947000D01*
X87376000Y-28575000D02*
X86868000Y-28575000D01*
X75819000Y-57674026D02*
X71628000Y-61865026D01*
X56769000Y-109855000D02*
X56769000Y-114824026D01*
X125476000Y-66675000D02*
X124968000Y-66675000D01*
X68326000Y-47625000D02*
X67818000Y-47625000D01*
X86868000Y-66675000D02*
X85090000Y-68453000D01*
X92202000Y-45847000D02*
X91821000Y-46228000D01*
X109728000Y-42926000D02*
X110871000Y-42926000D01*
X67818000Y-47625000D02*
X66040000Y-49403000D01*
%TO.N,unconnected-(L1-Pad4)*%
X128778000Y-87376000D02*
X130556000Y-85598000D01*
X101727000Y-54626026D02*
X101727000Y-52451000D01*
X73406000Y-66548000D02*
X80973804Y-66548000D01*
X138587479Y-57688479D02*
X138587479Y-55865547D01*
X54356000Y-28448000D02*
X61923804Y-28448000D01*
X73406000Y-28448000D02*
X80973804Y-28448000D01*
X139827000Y-97028000D02*
X138587479Y-95788479D01*
X119537479Y-76738479D02*
X119537479Y-74915547D01*
X138587479Y-55865547D02*
X139827000Y-54626026D01*
X52578000Y-87376000D02*
X54356000Y-85598000D01*
X81437479Y-38638479D02*
X81437479Y-36815547D01*
X68326000Y-116078000D02*
X63627000Y-116078000D01*
X73406000Y-47498000D02*
X80973804Y-47498000D01*
X138587479Y-74915547D02*
X139827000Y-73676026D01*
X111506000Y-47498000D02*
X119073804Y-47498000D01*
X90678000Y-30226000D02*
X92456000Y-28448000D01*
X138123804Y-66548000D02*
X139152000Y-67576196D01*
X54356000Y-47498000D02*
X61923804Y-47498000D01*
X130556000Y-28448000D02*
X138123804Y-28448000D01*
X62387479Y-36815547D02*
X63627000Y-35576026D01*
X92456000Y-85598000D02*
X100023804Y-85598000D01*
X120777000Y-39878000D02*
X119537479Y-38638479D01*
X119537479Y-113015547D02*
X120777000Y-111776026D01*
X128778000Y-49276000D02*
X130556000Y-47498000D01*
X71628000Y-87376000D02*
X73406000Y-85598000D01*
X125476000Y-116078000D02*
X120777000Y-116078000D01*
X52578000Y-106426000D02*
X54356000Y-104648000D01*
X82677000Y-39878000D02*
X81437479Y-38638479D01*
X100487479Y-74915547D02*
X101727000Y-73676026D01*
X120777000Y-92726026D02*
X120777000Y-90551000D01*
X100487479Y-76738479D02*
X100487479Y-74915547D01*
X120777000Y-111776026D02*
X120777000Y-109601000D01*
X81437479Y-74915547D02*
X82677000Y-73676026D01*
X87376000Y-116078000D02*
X82677000Y-116078000D01*
X120777000Y-35576026D02*
X120777000Y-33401000D01*
X100023804Y-85598000D02*
X101052000Y-86626196D01*
X100487479Y-93965547D02*
X101727000Y-92726026D01*
X80973804Y-66548000D02*
X82002000Y-67576196D01*
X100487479Y-38638479D02*
X100487479Y-36815547D01*
X90678000Y-49276000D02*
X92456000Y-47498000D01*
X82677000Y-111776026D02*
X82677000Y-109601000D01*
X68326000Y-58928000D02*
X63627000Y-58928000D01*
X144526000Y-116078000D02*
X139827000Y-116078000D01*
X62387479Y-55865547D02*
X63627000Y-54626026D01*
X120777000Y-77978000D02*
X119537479Y-76738479D01*
X100487479Y-57688479D02*
X100487479Y-55865547D01*
X138587479Y-95788479D02*
X138587479Y-93965547D01*
X144526000Y-97028000D02*
X139827000Y-97028000D01*
X111506000Y-104648000D02*
X119073804Y-104648000D01*
X139827000Y-111776026D02*
X139827000Y-109601000D01*
X71628000Y-30226000D02*
X73406000Y-28448000D01*
X109728000Y-49276000D02*
X111506000Y-47498000D01*
X82677000Y-97028000D02*
X81437479Y-95788479D01*
X82677000Y-58928000D02*
X81437479Y-57688479D01*
X63627000Y-39878000D02*
X62387479Y-38638479D01*
X100023804Y-66548000D02*
X101052000Y-67576196D01*
X144526000Y-58928000D02*
X139827000Y-58928000D01*
X68326000Y-97028000D02*
X63627000Y-97028000D01*
X61923804Y-85598000D02*
X62952000Y-86626196D01*
X130556000Y-47498000D02*
X138123804Y-47498000D01*
X100023804Y-28448000D02*
X101052000Y-29476196D01*
X130556000Y-66548000D02*
X138123804Y-66548000D01*
X138123804Y-104648000D02*
X139152000Y-105676196D01*
X92456000Y-66548000D02*
X100023804Y-66548000D01*
X81437479Y-114838479D02*
X81437479Y-113015547D01*
X81437479Y-57688479D02*
X81437479Y-55865547D01*
X62387479Y-76738479D02*
X62387479Y-74915547D01*
X139827000Y-35576026D02*
X139827000Y-33401000D01*
X62952000Y-29476196D02*
X62952000Y-29591000D01*
X101727000Y-73676026D02*
X101727000Y-71501000D01*
X54356000Y-104648000D02*
X61923804Y-104648000D01*
X119073804Y-85598000D02*
X120102000Y-86626196D01*
X101727000Y-92726026D02*
X101727000Y-90551000D01*
X130556000Y-85598000D02*
X138123804Y-85598000D01*
X119537479Y-57688479D02*
X119537479Y-55865547D01*
X81437479Y-36815547D02*
X82677000Y-35576026D01*
X90678000Y-106426000D02*
X92456000Y-104648000D01*
X80973804Y-104648000D02*
X82002000Y-105676196D01*
X100487479Y-114838479D02*
X100487479Y-113015547D01*
X119073804Y-47498000D02*
X120102000Y-48526196D01*
X63627000Y-35576026D02*
X63627000Y-33401000D01*
X119537479Y-36815547D02*
X120777000Y-35576026D01*
X68326000Y-39878000D02*
X63627000Y-39878000D01*
X100023804Y-47498000D02*
X101052000Y-48526196D01*
X71628000Y-68326000D02*
X73406000Y-66548000D01*
X109728000Y-68326000D02*
X111506000Y-66548000D01*
X82677000Y-54626026D02*
X82677000Y-52451000D01*
X61923804Y-47498000D02*
X62952000Y-48526196D01*
X111506000Y-66548000D02*
X119073804Y-66548000D01*
X138123804Y-47498000D02*
X139152000Y-48526196D01*
X138123804Y-85598000D02*
X139152000Y-86626196D01*
X139827000Y-77978000D02*
X138587479Y-76738479D01*
X62387479Y-57688479D02*
X62387479Y-55865547D01*
X90678000Y-68326000D02*
X92456000Y-66548000D01*
X62387479Y-93965547D02*
X63627000Y-92726026D01*
X81437479Y-76738479D02*
X81437479Y-74915547D01*
X61923804Y-104648000D02*
X62952000Y-105676196D01*
X52578000Y-49276000D02*
X54356000Y-47498000D01*
X101727000Y-77978000D02*
X100487479Y-76738479D01*
X63627000Y-97028000D02*
X62387479Y-95788479D01*
X119537479Y-55865547D02*
X120777000Y-54626026D01*
X54356000Y-85598000D02*
X61923804Y-85598000D01*
X101727000Y-58928000D02*
X100487479Y-57688479D01*
X139827000Y-116078000D02*
X138587479Y-114838479D01*
X82677000Y-73676026D02*
X82677000Y-71501000D01*
X100487479Y-95788479D02*
X100487479Y-93965547D01*
X120777000Y-116078000D02*
X119537479Y-114838479D01*
X109728000Y-106426000D02*
X111506000Y-104648000D01*
X100487479Y-55865547D02*
X101727000Y-54626026D01*
X111506000Y-85598000D02*
X119073804Y-85598000D01*
X130556000Y-104648000D02*
X138123804Y-104648000D01*
X82677000Y-116078000D02*
X81437479Y-114838479D01*
X101727000Y-39878000D02*
X100487479Y-38638479D01*
X87376000Y-97028000D02*
X82677000Y-97028000D01*
X138587479Y-36815547D02*
X139827000Y-35576026D01*
X101727000Y-116078000D02*
X100487479Y-114838479D01*
X128778000Y-106426000D02*
X130556000Y-104648000D01*
X87376000Y-58928000D02*
X82677000Y-58928000D01*
X138587479Y-93965547D02*
X139827000Y-92726026D01*
X92456000Y-104648000D02*
X100023804Y-104648000D01*
X138587479Y-113015547D02*
X139827000Y-111776026D01*
X120777000Y-73676026D02*
X120777000Y-71501000D01*
X139827000Y-73676026D02*
X139827000Y-71501000D01*
X106426000Y-39878000D02*
X101727000Y-39878000D01*
X81437479Y-55865547D02*
X82677000Y-54626026D01*
X87376000Y-77978000D02*
X82677000Y-77978000D01*
X82677000Y-35576026D02*
X82677000Y-33401000D01*
X71628000Y-106426000D02*
X73406000Y-104648000D01*
X81437479Y-95788479D02*
X81437479Y-93965547D01*
X120777000Y-97028000D02*
X119537479Y-95788479D01*
X92456000Y-28448000D02*
X100023804Y-28448000D01*
X63627000Y-54626026D02*
X63627000Y-52451000D01*
X52578000Y-30226000D02*
X54356000Y-28448000D01*
X100023804Y-104648000D02*
X101052000Y-105676196D01*
X61923804Y-28448000D02*
X62952000Y-29476196D01*
X52578000Y-68326000D02*
X54356000Y-66548000D01*
X73406000Y-85598000D02*
X80973804Y-85598000D01*
X68326000Y-77978000D02*
X63627000Y-77978000D01*
X120777000Y-58928000D02*
X119537479Y-57688479D01*
X54356000Y-66548000D02*
X61923804Y-66548000D01*
X125476000Y-39878000D02*
X120777000Y-39878000D01*
X63627000Y-77978000D02*
X62387479Y-76738479D01*
X138587479Y-38638479D02*
X138587479Y-36815547D01*
X139827000Y-92726026D02*
X139827000Y-90551000D01*
X106426000Y-97028000D02*
X101727000Y-97028000D01*
X80973804Y-85598000D02*
X82002000Y-86626196D01*
X82677000Y-77978000D02*
X81437479Y-76738479D01*
X63627000Y-116078000D02*
X62387479Y-114838479D01*
X81437479Y-93965547D02*
X82677000Y-92726026D01*
X82677000Y-92726026D02*
X82677000Y-90551000D01*
X106426000Y-116078000D02*
X101727000Y-116078000D01*
X138587479Y-76738479D02*
X138587479Y-74915547D01*
X106426000Y-77978000D02*
X101727000Y-77978000D01*
X139827000Y-58928000D02*
X138587479Y-57688479D01*
X73406000Y-104648000D02*
X80973804Y-104648000D01*
X125476000Y-58928000D02*
X120777000Y-58928000D01*
X101727000Y-35576026D02*
X101727000Y-33401000D01*
X128778000Y-30226000D02*
X130556000Y-28448000D01*
X138123804Y-28448000D02*
X139152000Y-29476196D01*
X63627000Y-92726026D02*
X63627000Y-90551000D01*
X63627000Y-58928000D02*
X62387479Y-57688479D01*
X101727000Y-111776026D02*
X101727000Y-109601000D01*
X138587479Y-114838479D02*
X138587479Y-113015547D01*
X139827000Y-54626026D02*
X139827000Y-52451000D01*
X119537479Y-114838479D02*
X119537479Y-113015547D01*
X61923804Y-66548000D02*
X62952000Y-67576196D01*
X80973804Y-28448000D02*
X82002000Y-29476196D01*
X63627000Y-73676026D02*
X63627000Y-71501000D01*
X125476000Y-97028000D02*
X120777000Y-97028000D01*
X101727000Y-97028000D02*
X100487479Y-95788479D01*
X119537479Y-93965547D02*
X120777000Y-92726026D01*
X119537479Y-95788479D02*
X119537479Y-93965547D01*
X144526000Y-39878000D02*
X139827000Y-39878000D01*
X62387479Y-38638479D02*
X62387479Y-36815547D01*
X139827000Y-39878000D02*
X138587479Y-38638479D01*
X106426000Y-58928000D02*
X101727000Y-58928000D01*
X63627000Y-111776026D02*
X63627000Y-109601000D01*
X125476000Y-77978000D02*
X120777000Y-77978000D01*
X119073804Y-66548000D02*
X120102000Y-67576196D01*
X144526000Y-77978000D02*
X139827000Y-77978000D01*
X92456000Y-47498000D02*
X100023804Y-47498000D01*
X80973804Y-47498000D02*
X82002000Y-48526196D01*
X71628000Y-49276000D02*
X73406000Y-47498000D01*
X62387479Y-113015547D02*
X63627000Y-111776026D01*
X111506000Y-28448000D02*
X119073804Y-28448000D01*
X81437479Y-113015547D02*
X82677000Y-111776026D01*
X119537479Y-74915547D02*
X120777000Y-73676026D01*
X119073804Y-104648000D02*
X120102000Y-105676196D01*
X62387479Y-114838479D02*
X62387479Y-113015547D01*
X109728000Y-87376000D02*
X111506000Y-85598000D01*
X119537479Y-38638479D02*
X119537479Y-36815547D01*
X90678000Y-87376000D02*
X92456000Y-85598000D01*
X87376000Y-39878000D02*
X82677000Y-39878000D01*
X109728000Y-30226000D02*
X111506000Y-28448000D01*
X128778000Y-68326000D02*
X130556000Y-66548000D01*
X119073804Y-28448000D02*
X120102000Y-29476196D01*
X120777000Y-54626026D02*
X120777000Y-52451000D01*
X100487479Y-113015547D02*
X101727000Y-111776026D01*
X62387479Y-95788479D02*
X62387479Y-93965547D01*
X100487479Y-36815547D02*
X101727000Y-35576026D01*
X62387479Y-74915547D02*
X63627000Y-73676026D01*
%TO.N,unconnected-(L1-Pad2)*%
X85424041Y-70277959D02*
X87376000Y-68326000D01*
X116050155Y-32177959D02*
X123524041Y-32177959D01*
X77950155Y-32177959D02*
X85424041Y-32177959D01*
X116050155Y-89327959D02*
X123524041Y-89327959D01*
X135100155Y-51227959D02*
X142574041Y-51227959D01*
X57952000Y-107429804D02*
X58900155Y-108377959D01*
X116050155Y-108377959D02*
X123524041Y-108377959D01*
X77002000Y-107429804D02*
X77950155Y-108377959D01*
X134152000Y-31229804D02*
X135100155Y-32177959D01*
X77950155Y-108377959D02*
X85424041Y-108377959D01*
X96052000Y-88379804D02*
X97000155Y-89327959D01*
X96052000Y-69329804D02*
X97000155Y-70277959D01*
X77002000Y-50279804D02*
X77950155Y-51227959D01*
X96052000Y-31229804D02*
X97000155Y-32177959D01*
X66374041Y-89327959D02*
X68326000Y-87376000D01*
X115102000Y-31229804D02*
X116050155Y-32177959D01*
X142574041Y-32177959D02*
X144526000Y-30226000D01*
X66374041Y-108377959D02*
X68326000Y-106426000D01*
X104474041Y-89327959D02*
X106426000Y-87376000D01*
X134152000Y-69329804D02*
X135100155Y-70277959D01*
X116050155Y-70277959D02*
X123524041Y-70277959D01*
X104474041Y-32177959D02*
X106426000Y-30226000D01*
X66374041Y-51227959D02*
X68326000Y-49276000D01*
X135100155Y-89327959D02*
X142574041Y-89327959D01*
X66374041Y-32177959D02*
X68326000Y-30226000D01*
X77002000Y-31229804D02*
X77950155Y-32177959D01*
X123524041Y-51227959D02*
X125476000Y-49276000D01*
X85424041Y-32177959D02*
X87376000Y-30226000D01*
X123524041Y-89327959D02*
X125476000Y-87376000D01*
X57952000Y-88379804D02*
X58900155Y-89327959D01*
X77002000Y-88379804D02*
X77950155Y-89327959D01*
X115102000Y-107429804D02*
X116050155Y-108377959D01*
X58900155Y-32177959D02*
X66374041Y-32177959D01*
X58900155Y-108377959D02*
X66374041Y-108377959D01*
X123524041Y-32177959D02*
X125476000Y-30226000D01*
X97000155Y-32177959D02*
X104474041Y-32177959D01*
X134152000Y-107429804D02*
X135100155Y-108377959D01*
X104474041Y-108377959D02*
X106426000Y-106426000D01*
X134152000Y-88379804D02*
X135100155Y-89327959D01*
X116050155Y-51227959D02*
X123524041Y-51227959D01*
X57952000Y-31229804D02*
X58900155Y-32177959D01*
X104474041Y-70277959D02*
X106426000Y-68326000D01*
X57952000Y-31115000D02*
X57952000Y-31229804D01*
X97000155Y-70277959D02*
X104474041Y-70277959D01*
X66374041Y-70277959D02*
X68326000Y-68326000D01*
X135100155Y-70277959D02*
X142574041Y-70277959D01*
X123524041Y-70277959D02*
X125476000Y-68326000D01*
X135100155Y-32177959D02*
X142574041Y-32177959D01*
X97000155Y-51227959D02*
X104474041Y-51227959D01*
X123524041Y-108377959D02*
X125476000Y-106426000D01*
X85424041Y-108377959D02*
X87376000Y-106426000D01*
X104474041Y-51227959D02*
X106426000Y-49276000D01*
X77950155Y-70277959D02*
X85424041Y-70277959D01*
X142574041Y-108377959D02*
X144526000Y-106426000D01*
X57952000Y-50279804D02*
X58900155Y-51227959D01*
X58900155Y-51227959D02*
X66374041Y-51227959D01*
X97000155Y-89327959D02*
X104474041Y-89327959D01*
X135100155Y-108377959D02*
X142574041Y-108377959D01*
X85424041Y-89327959D02*
X87376000Y-87376000D01*
X115102000Y-69329804D02*
X116050155Y-70277959D01*
X57952000Y-69329804D02*
X58900155Y-70277959D01*
X58900155Y-70277959D02*
X66374041Y-70277959D01*
X115102000Y-50279804D02*
X116050155Y-51227959D01*
X58900155Y-89327959D02*
X66374041Y-89327959D01*
X96052000Y-107429804D02*
X97000155Y-108377959D01*
X77002000Y-69329804D02*
X77950155Y-70277959D01*
X77950155Y-51227959D02*
X85424041Y-51227959D01*
X97000155Y-108377959D02*
X104474041Y-108377959D01*
X142574041Y-70277959D02*
X144526000Y-68326000D01*
X142574041Y-51227959D02*
X144526000Y-49276000D01*
X142574041Y-89327959D02*
X144526000Y-87376000D01*
X134152000Y-50279804D02*
X135100155Y-51227959D01*
X85424041Y-51227959D02*
X87376000Y-49276000D01*
X115102000Y-88379804D02*
X116050155Y-89327959D01*
X77950155Y-89327959D02*
X85424041Y-89327959D01*
X96052000Y-50279804D02*
X97000155Y-51227959D01*
%TD*%
M02*
