%FSLAX45Y45*%
G04 Gerber Fmt 4.5, Leading zero omitted, Abs format (unit mm)*
G04 Created by KiCad (PCBNEW (6.0.0-0)) date 2022-01-01 10:49:53*
%MOMM*%
%LPD*%
G01*
G04 APERTURE LIST*
%TA.AperFunction,Profile*%
%ADD10C,0.100000*%
%TD*%
%ADD11C,0.200000*%
%ADD12C,0.190000*%
%ADD13C,0.300000*%
%ADD14C,0.410000*%
G04 APERTURE END LIST*
D10*
X5156200Y-11963400D02*
G75*
G03*
X5207000Y-12014200I50800J0D01*
G01*
X10553700Y-10109200D02*
X10693400Y-10109200D01*
X12331700Y-10236200D02*
X11188700Y-10236200D01*
X14236700Y-6426200D02*
X13093700Y-6426200D01*
X7112000Y-8331200D02*
G75*
G03*
X7061200Y-8382000I0J-50800D01*
G01*
X14503400Y-4521200D02*
X14363700Y-4521200D01*
X14554200Y-4572000D02*
G75*
G03*
X14503400Y-4521200I-50800J0D01*
G01*
X6934200Y-4572000D02*
G75*
G03*
X6883400Y-4521200I-50800J0D01*
G01*
X5473700Y-6426200D02*
X5473700Y-6299200D01*
X10744200Y-6604000D02*
X10871200Y-6604000D01*
X12649200Y-4826000D02*
X12776200Y-4826000D01*
X12776200Y-11823700D02*
X12776200Y-11963400D01*
X5473700Y-10236200D02*
X5473700Y-10109200D01*
X9017000Y-8204200D02*
X9156700Y-8204200D01*
X12649200Y-10541000D02*
X12776200Y-10541000D01*
X6934200Y-4076700D02*
X6934200Y-2921000D01*
X10426700Y-10236200D02*
X9283700Y-10236200D01*
X12598400Y-8331200D02*
X12458700Y-8331200D01*
X10693400Y-12014200D02*
G75*
G03*
X10744200Y-11963400I0J50800D01*
G01*
X12649200Y-10414000D02*
X12649200Y-10287000D01*
X10922000Y-8204200D02*
X11061700Y-8204200D01*
X14363700Y-8204200D02*
X14363700Y-8331200D01*
X7061200Y-8382000D02*
X7061200Y-8509000D01*
X11061700Y-6299200D02*
X11061700Y-6426200D01*
X12649200Y-4343400D02*
X12649200Y-4203700D01*
X8966200Y-9918700D02*
X8966200Y-10058400D01*
X14554200Y-6248400D02*
X14554200Y-4572000D01*
X6934200Y-4699000D02*
X6934200Y-4572000D01*
X10744200Y-6248400D02*
X10744200Y-6108700D01*
X10744200Y-2794000D02*
X10744200Y-2667000D01*
X12458700Y-4394200D02*
X12458700Y-4521200D01*
X8839200Y-6108700D02*
X8966200Y-6108700D01*
X12649200Y-10287000D02*
G75*
G03*
X12598400Y-10236200I-50800J0D01*
G01*
X5156200Y-2667000D02*
X5156200Y-4343400D01*
X7061200Y-6108700D02*
X7061200Y-6248400D01*
X12827000Y-4521200D02*
G75*
G03*
X12776200Y-4572000I0J-50800D01*
G01*
X8966200Y-2667000D02*
X8966200Y-2794000D01*
X8839200Y-8153400D02*
X8839200Y-8013700D01*
X10744200Y-7886700D02*
X10744200Y-6731000D01*
X6616700Y-8331200D02*
X5473700Y-8331200D01*
X8521700Y-6426200D02*
X7378700Y-6426200D01*
X9017000Y-4394200D02*
X9156700Y-4394200D01*
X12776200Y-4572000D02*
X12776200Y-4699000D01*
X12649200Y-8013700D02*
X12776200Y-8013700D01*
X9156700Y-6299200D02*
X9156700Y-6426200D01*
X12598400Y-6426200D02*
X12458700Y-6426200D01*
X10744200Y-4826000D02*
X10871200Y-4826000D01*
X10744200Y-4699000D02*
X10744200Y-4572000D01*
X11188700Y-8204200D02*
X12331700Y-8204200D01*
X9283700Y-10109200D02*
X10426700Y-10109200D01*
X14503400Y-8331200D02*
X14363700Y-8331200D01*
X8648700Y-8204200D02*
X8648700Y-8331200D01*
X8966200Y-6248400D02*
G75*
G03*
X9017000Y-6299200I50800J0D01*
G01*
X10871200Y-8153400D02*
G75*
G03*
X10922000Y-8204200I50800J0D01*
G01*
X10744200Y-4343400D02*
X10744200Y-4203700D01*
X12649200Y-2921000D02*
X12776200Y-2921000D01*
X10744200Y-9918700D02*
X10871200Y-9918700D01*
X5473700Y-4521200D02*
X5473700Y-4394200D01*
X5207000Y-10236200D02*
G75*
G03*
X5156200Y-10287000I0J-50800D01*
G01*
X11188700Y-4521200D02*
X11188700Y-4394200D01*
X8648700Y-6299200D02*
X8788400Y-6299200D01*
X12649200Y-2667000D02*
G75*
G03*
X12598400Y-2616200I-50800J0D01*
G01*
X6743700Y-8204200D02*
X6883400Y-8204200D01*
X12649200Y-8636000D02*
X12776200Y-8636000D01*
X10744200Y-10414000D02*
X10744200Y-10287000D01*
X11188700Y-6299200D02*
X12331700Y-6299200D01*
X7112000Y-12014200D02*
X8788400Y-12014200D01*
X6883400Y-10236200D02*
X6743700Y-10236200D01*
X5156200Y-6477000D02*
X5156200Y-8153400D01*
X10871200Y-2921000D02*
X10871200Y-4076700D01*
X10744200Y-2667000D02*
G75*
G03*
X10693400Y-2616200I-50800J0D01*
G01*
X12649200Y-4572000D02*
G75*
G03*
X12598400Y-4521200I-50800J0D01*
G01*
X10871200Y-11823700D02*
X10871200Y-11963400D01*
X6934200Y-6604000D02*
X7061200Y-6604000D01*
X5473700Y-6299200D02*
X6616700Y-6299200D01*
X9017000Y-8331200D02*
G75*
G03*
X8966200Y-8382000I0J-50800D01*
G01*
X10922000Y-4394200D02*
X11061700Y-4394200D01*
X6934200Y-6604000D02*
X6934200Y-6477000D01*
X14503400Y-10109200D02*
G75*
G03*
X14554200Y-10058400I0J50800D01*
G01*
X7061200Y-4203700D02*
X7061200Y-4343400D01*
X8839200Y-11823700D02*
X8966200Y-11823700D01*
X6934200Y-5981700D02*
X7061200Y-5981700D01*
X8648700Y-6299200D02*
X8648700Y-6426200D01*
X8788400Y-4394200D02*
G75*
G03*
X8839200Y-4343400I0J50800D01*
G01*
X10871200Y-10287000D02*
X10871200Y-10414000D01*
X12649200Y-9791700D02*
X12649200Y-8636000D01*
X8788400Y-12014200D02*
G75*
G03*
X8839200Y-11963400I0J50800D01*
G01*
X12458700Y-8204200D02*
X12598400Y-8204200D01*
X8839200Y-4076700D02*
X8966200Y-4076700D01*
X10871200Y-2667000D02*
X10871200Y-2794000D01*
X8839200Y-4699000D02*
X8839200Y-4572000D01*
X12966700Y-8331200D02*
X12827000Y-8331200D01*
X6743700Y-10109200D02*
X6883400Y-10109200D01*
X8839200Y-2667000D02*
G75*
G03*
X8788400Y-2616200I-50800J0D01*
G01*
X6616700Y-6426200D02*
X5473700Y-6426200D01*
X8839200Y-8509000D02*
X8966200Y-8509000D01*
X7378700Y-8204200D02*
X8521700Y-8204200D01*
X8966200Y-2921000D02*
X8966200Y-4076700D01*
X9283700Y-4394200D02*
X10426700Y-4394200D01*
X12827000Y-2616200D02*
G75*
G03*
X12776200Y-2667000I0J-50800D01*
G01*
X9283700Y-6426200D02*
X9283700Y-6299200D01*
X12827000Y-6426200D02*
G75*
G03*
X12776200Y-6477000I0J-50800D01*
G01*
X13093700Y-6426200D02*
X13093700Y-6299200D01*
X10871200Y-9918700D02*
X10871200Y-10058400D01*
X5473700Y-8204200D02*
X6616700Y-8204200D01*
X8839200Y-5981700D02*
X8839200Y-4826000D01*
X12649200Y-11696700D02*
X12649200Y-10541000D01*
X12776200Y-10058400D02*
G75*
G03*
X12827000Y-10109200I50800J0D01*
G01*
X14503400Y-10236200D02*
X14363700Y-10236200D01*
X7061200Y-4572000D02*
X7061200Y-4699000D01*
X13093700Y-4521200D02*
X13093700Y-4394200D01*
X12649200Y-2794000D02*
X12776200Y-2794000D01*
X6934200Y-4826000D02*
X7061200Y-4826000D01*
X8839200Y-4203700D02*
X8966200Y-4203700D01*
X6883400Y-6299200D02*
G75*
G03*
X6934200Y-6248400I0J50800D01*
G01*
X9017000Y-10236200D02*
G75*
G03*
X8966200Y-10287000I0J-50800D01*
G01*
X7061200Y-4343400D02*
G75*
G03*
X7112000Y-4394200I50800J0D01*
G01*
X8839200Y-10287000D02*
G75*
G03*
X8788400Y-10236200I-50800J0D01*
G01*
X8966200Y-6731000D02*
X8966200Y-7886700D01*
X8966200Y-8382000D02*
X8966200Y-8509000D01*
X6934200Y-10414000D02*
X7061200Y-10414000D01*
X12776200Y-8153400D02*
G75*
G03*
X12827000Y-8204200I50800J0D01*
G01*
X12598400Y-4394200D02*
G75*
G03*
X12649200Y-4343400I0J50800D01*
G01*
X10871200Y-6731000D02*
X10871200Y-7886700D01*
X11061700Y-10109200D02*
X11061700Y-10236200D01*
X6616700Y-4521200D02*
X5473700Y-4521200D01*
X12649200Y-6731000D02*
X12776200Y-6731000D01*
X13093700Y-8204200D02*
X14236700Y-8204200D01*
X8839200Y-8382000D02*
G75*
G03*
X8788400Y-8331200I-50800J0D01*
G01*
X12649200Y-10414000D02*
X12776200Y-10414000D01*
X6934200Y-4343400D02*
X6934200Y-4203700D01*
X7061200Y-6731000D02*
X7061200Y-7886700D01*
X10744200Y-11963400D02*
X10744200Y-11823700D01*
X10871200Y-4826000D02*
X10871200Y-5981700D01*
X7061200Y-11963400D02*
G75*
G03*
X7112000Y-12014200I50800J0D01*
G01*
X10553700Y-8204200D02*
X10693400Y-8204200D01*
X7251700Y-8331200D02*
X7112000Y-8331200D01*
X10744200Y-2921000D02*
X10871200Y-2921000D01*
X10426700Y-8331200D02*
X9283700Y-8331200D01*
X8966200Y-10541000D02*
X8966200Y-11696700D01*
X6883400Y-10109200D02*
G75*
G03*
X6934200Y-10058400I0J50800D01*
G01*
X9156700Y-8204200D02*
X9156700Y-8331200D01*
X8839200Y-6604000D02*
X8966200Y-6604000D01*
X6934200Y-8636000D02*
X7061200Y-8636000D01*
X14554200Y-10287000D02*
G75*
G03*
X14503400Y-10236200I-50800J0D01*
G01*
X10871200Y-8013700D02*
X10871200Y-8153400D01*
X14503400Y-8204200D02*
G75*
G03*
X14554200Y-8153400I0J50800D01*
G01*
X10871200Y-10541000D02*
X10871200Y-11696700D01*
X14236700Y-6426200D02*
X14236700Y-6299200D01*
X6934200Y-6731000D02*
X7061200Y-6731000D01*
X6934200Y-7886700D02*
X7061200Y-7886700D01*
X12649200Y-8509000D02*
X12776200Y-8509000D01*
X14236700Y-10236200D02*
X14236700Y-10109200D01*
X6883400Y-8204200D02*
G75*
G03*
X6934200Y-8153400I0J50800D01*
G01*
X10744200Y-10287000D02*
G75*
G03*
X10693400Y-10236200I-50800J0D01*
G01*
X12649200Y-11823700D02*
X12776200Y-11823700D01*
X8839200Y-11696700D02*
X8839200Y-10541000D01*
X10744200Y-10414000D02*
X10871200Y-10414000D01*
X12649200Y-6604000D02*
X12776200Y-6604000D01*
X9156700Y-10109200D02*
X9156700Y-10236200D01*
X14554200Y-8382000D02*
G75*
G03*
X14503400Y-8331200I-50800J0D01*
G01*
X10871200Y-10058400D02*
G75*
G03*
X10922000Y-10109200I50800J0D01*
G01*
X9283700Y-10236200D02*
X9283700Y-10109200D01*
X6883400Y-8331200D02*
X6743700Y-8331200D01*
X5156200Y-4572000D02*
X5156200Y-6248400D01*
X10744200Y-7886700D02*
X10871200Y-7886700D01*
X7251700Y-10109200D02*
X7251700Y-10236200D01*
X5473700Y-8331200D02*
X5473700Y-8204200D01*
X6883400Y-4521200D02*
X6743700Y-4521200D01*
X8648700Y-10109200D02*
X8648700Y-10236200D01*
X5156200Y-6248400D02*
G75*
G03*
X5207000Y-6299200I50800J0D01*
G01*
X6883400Y-2616200D02*
X5207000Y-2616200D01*
X5346700Y-4394200D02*
X5346700Y-4521200D01*
X12598400Y-6299200D02*
G75*
G03*
X12649200Y-6248400I0J50800D01*
G01*
X12649200Y-9791700D02*
X12776200Y-9791700D01*
X10744200Y-6604000D02*
X10744200Y-6477000D01*
X14363700Y-4394200D02*
X14363700Y-4521200D01*
X7112000Y-10236200D02*
G75*
G03*
X7061200Y-10287000I0J-50800D01*
G01*
X12966700Y-6299200D02*
X12966700Y-6426200D01*
X12649200Y-4203700D02*
X12776200Y-4203700D01*
X7112000Y-2616200D02*
G75*
G03*
X7061200Y-2667000I0J-50800D01*
G01*
X7061200Y-6477000D02*
X7061200Y-6604000D01*
X10744200Y-6477000D02*
G75*
G03*
X10693400Y-6426200I-50800J0D01*
G01*
X6934200Y-8509000D02*
X7061200Y-8509000D01*
X10744200Y-10541000D02*
X10871200Y-10541000D01*
X12598400Y-8204200D02*
G75*
G03*
X12649200Y-8153400I0J50800D01*
G01*
X8966200Y-11963400D02*
G75*
G03*
X9017000Y-12014200I50800J0D01*
G01*
X10693400Y-8331200D02*
X10553700Y-8331200D01*
X11061700Y-6426200D02*
X10922000Y-6426200D01*
X14363700Y-6299200D02*
X14363700Y-6426200D01*
X12458700Y-6299200D02*
X12458700Y-6426200D01*
X12458700Y-4394200D02*
X12598400Y-4394200D01*
X10744200Y-8509000D02*
X10871200Y-8509000D01*
X10922000Y-4521200D02*
G75*
G03*
X10871200Y-4572000I0J-50800D01*
G01*
X6934200Y-11963400D02*
X6934200Y-11823700D01*
X6934200Y-5981700D02*
X6934200Y-4826000D01*
X11061700Y-4394200D02*
X11061700Y-4521200D01*
X12649200Y-11963400D02*
X12649200Y-11823700D01*
X7061200Y-2667000D02*
X7061200Y-2794000D01*
X5346700Y-8204200D02*
X5346700Y-8331200D01*
X7251700Y-10236200D02*
X7112000Y-10236200D01*
X10553700Y-4394200D02*
X10693400Y-4394200D01*
X7061200Y-4826000D02*
X7061200Y-5981700D01*
X8966200Y-8013700D02*
X8966200Y-8153400D01*
X7251700Y-4521200D02*
X7112000Y-4521200D01*
X12458700Y-6299200D02*
X12598400Y-6299200D01*
X12649200Y-8382000D02*
G75*
G03*
X12598400Y-8331200I-50800J0D01*
G01*
X10744200Y-8636000D02*
X10871200Y-8636000D01*
X6883400Y-4394200D02*
G75*
G03*
X6934200Y-4343400I0J50800D01*
G01*
X5346700Y-4521200D02*
X5207000Y-4521200D01*
X10744200Y-6731000D02*
X10871200Y-6731000D01*
X8839200Y-9918700D02*
X8966200Y-9918700D01*
X8839200Y-4572000D02*
G75*
G03*
X8788400Y-4521200I-50800J0D01*
G01*
X10922000Y-2616200D02*
G75*
G03*
X10871200Y-2667000I0J-50800D01*
G01*
X7378700Y-6426200D02*
X7378700Y-6299200D01*
X12776200Y-8013700D02*
X12776200Y-8153400D01*
X6934200Y-10058400D02*
X6934200Y-9918700D01*
X7378700Y-4394200D02*
X8521700Y-4394200D01*
X8966200Y-10287000D02*
X8966200Y-10414000D01*
X8839200Y-4343400D02*
X8839200Y-4203700D01*
X12649200Y-8153400D02*
X12649200Y-8013700D01*
X9283700Y-8331200D02*
X9283700Y-8204200D01*
X7061200Y-10058400D02*
G75*
G03*
X7112000Y-10109200I50800J0D01*
G01*
X10744200Y-4203700D02*
X10871200Y-4203700D01*
X10693400Y-2616200D02*
X9017000Y-2616200D01*
X8788400Y-8331200D02*
X8648700Y-8331200D01*
X5207000Y-10109200D02*
X5346700Y-10109200D01*
X7112000Y-6299200D02*
X7251700Y-6299200D01*
X9017000Y-4521200D02*
G75*
G03*
X8966200Y-4572000I0J-50800D01*
G01*
X10553700Y-4394200D02*
X10553700Y-4521200D01*
X6934200Y-2794000D02*
X6934200Y-2667000D01*
X12649200Y-7886700D02*
X12776200Y-7886700D01*
X8839200Y-6477000D02*
G75*
G03*
X8788400Y-6426200I-50800J0D01*
G01*
X6934200Y-4203700D02*
X7061200Y-4203700D01*
X13093700Y-8331200D02*
X13093700Y-8204200D01*
X8648700Y-4394200D02*
X8788400Y-4394200D01*
X6743700Y-6299200D02*
X6883400Y-6299200D01*
X14503400Y-12014200D02*
G75*
G03*
X14554200Y-11963400I0J50800D01*
G01*
X12776200Y-6731000D02*
X12776200Y-7886700D01*
X14363700Y-10109200D02*
X14363700Y-10236200D01*
X7061200Y-6248400D02*
G75*
G03*
X7112000Y-6299200I50800J0D01*
G01*
X12776200Y-10287000D02*
X12776200Y-10414000D01*
X7061200Y-8636000D02*
X7061200Y-9791700D01*
X10744200Y-11823700D02*
X10871200Y-11823700D01*
X12827000Y-6299200D02*
X12966700Y-6299200D01*
X12331700Y-8331200D02*
X11188700Y-8331200D01*
X14503400Y-6426200D02*
X14363700Y-6426200D01*
X8788400Y-4521200D02*
X8648700Y-4521200D01*
X14554200Y-8153400D02*
X14554200Y-6477000D01*
X12966700Y-10236200D02*
X12827000Y-10236200D01*
X10871200Y-8636000D02*
X10871200Y-9791700D01*
X6743700Y-4394200D02*
X6883400Y-4394200D01*
X12598400Y-2616200D02*
X10922000Y-2616200D01*
X12649200Y-7886700D02*
X12649200Y-6731000D01*
X10693400Y-4521200D02*
X10553700Y-4521200D01*
X14503400Y-6299200D02*
G75*
G03*
X14554200Y-6248400I0J50800D01*
G01*
X12649200Y-11696700D02*
X12776200Y-11696700D01*
X12649200Y-4076700D02*
X12649200Y-2921000D01*
X7378700Y-4521200D02*
X7378700Y-4394200D01*
X11188700Y-8331200D02*
X11188700Y-8204200D01*
X5207000Y-6426200D02*
G75*
G03*
X5156200Y-6477000I0J-50800D01*
G01*
X5346700Y-10236200D02*
X5207000Y-10236200D01*
X12598400Y-4521200D02*
X12458700Y-4521200D01*
X10744200Y-11696700D02*
X10871200Y-11696700D01*
X10744200Y-9791700D02*
X10871200Y-9791700D01*
X6934200Y-6108700D02*
X7061200Y-6108700D01*
X8648700Y-4394200D02*
X8648700Y-4521200D01*
X10744200Y-4572000D02*
G75*
G03*
X10693400Y-4521200I-50800J0D01*
G01*
X10693400Y-8204200D02*
G75*
G03*
X10744200Y-8153400I0J50800D01*
G01*
X6883400Y-6426200D02*
X6743700Y-6426200D01*
X8788400Y-6299200D02*
G75*
G03*
X8839200Y-6248400I0J50800D01*
G01*
X6934200Y-8013700D02*
X7061200Y-8013700D01*
X6934200Y-4076700D02*
X7061200Y-4076700D01*
X8966200Y-4572000D02*
X8966200Y-4699000D01*
X14236700Y-10236200D02*
X13093700Y-10236200D01*
X8839200Y-11696700D02*
X8966200Y-11696700D01*
X5346700Y-10109200D02*
X5346700Y-10236200D01*
X12649200Y-4076700D02*
X12776200Y-4076700D01*
X8839200Y-10414000D02*
X8966200Y-10414000D01*
X6934200Y-7886700D02*
X6934200Y-6731000D01*
X7061200Y-10287000D02*
X7061200Y-10414000D01*
X7378700Y-6299200D02*
X8521700Y-6299200D01*
X5156200Y-4343400D02*
G75*
G03*
X5207000Y-4394200I50800J0D01*
G01*
X8839200Y-7886700D02*
X8839200Y-6731000D01*
X8966200Y-6108700D02*
X8966200Y-6248400D01*
X6934200Y-2794000D02*
X7061200Y-2794000D01*
X5346700Y-6426200D02*
X5207000Y-6426200D01*
X6934200Y-9791700D02*
X7061200Y-9791700D01*
X14236700Y-4521200D02*
X13093700Y-4521200D01*
X5156200Y-8153400D02*
G75*
G03*
X5207000Y-8204200I50800J0D01*
G01*
X9156700Y-4394200D02*
X9156700Y-4521200D01*
X12966700Y-6426200D02*
X12827000Y-6426200D01*
X8839200Y-2921000D02*
X8966200Y-2921000D01*
X12966700Y-4394200D02*
X12966700Y-4521200D01*
X10426700Y-8331200D02*
X10426700Y-8204200D01*
X10693400Y-10236200D02*
X10553700Y-10236200D01*
X7378700Y-10236200D02*
X7378700Y-10109200D01*
X12649200Y-6248400D02*
X12649200Y-6108700D01*
X8788400Y-6426200D02*
X8648700Y-6426200D01*
X10922000Y-10236200D02*
G75*
G03*
X10871200Y-10287000I0J-50800D01*
G01*
X12331700Y-4521200D02*
X11188700Y-4521200D01*
X9283700Y-6299200D02*
X10426700Y-6299200D01*
X7061200Y-2921000D02*
X7061200Y-4076700D01*
X12776200Y-9918700D02*
X12776200Y-10058400D01*
X6616700Y-8331200D02*
X6616700Y-8204200D01*
X9017000Y-6299200D02*
X9156700Y-6299200D01*
X13093700Y-10236200D02*
X13093700Y-10109200D01*
X7061200Y-8153400D02*
G75*
G03*
X7112000Y-8204200I50800J0D01*
G01*
X8839200Y-10058400D02*
X8839200Y-9918700D01*
X10871200Y-6108700D02*
X10871200Y-6248400D01*
X12776200Y-11963400D02*
G75*
G03*
X12827000Y-12014200I50800J0D01*
G01*
X12827000Y-8331200D02*
G75*
G03*
X12776200Y-8382000I0J-50800D01*
G01*
X8839200Y-2794000D02*
X8839200Y-2667000D01*
X9017000Y-10109200D02*
X9156700Y-10109200D01*
X8839200Y-6604000D02*
X8839200Y-6477000D01*
X12966700Y-10109200D02*
X12966700Y-10236200D01*
X10693400Y-6426200D02*
X10553700Y-6426200D01*
X12776200Y-4826000D02*
X12776200Y-5981700D01*
X11188700Y-10109200D02*
X12331700Y-10109200D01*
X10744200Y-8153400D02*
X10744200Y-8013700D01*
X8966200Y-6477000D02*
X8966200Y-6604000D01*
X14503400Y-2616200D02*
X12827000Y-2616200D01*
X7112000Y-10109200D02*
X7251700Y-10109200D01*
X6616700Y-4521200D02*
X6616700Y-4394200D01*
X5207000Y-8204200D02*
X5346700Y-8204200D01*
X6934200Y-8153400D02*
X6934200Y-8013700D01*
X8839200Y-9791700D02*
X8839200Y-8636000D01*
X8521700Y-8331200D02*
X8521700Y-8204200D01*
X5207000Y-8331200D02*
G75*
G03*
X5156200Y-8382000I0J-50800D01*
G01*
X12649200Y-6477000D02*
G75*
G03*
X12598400Y-6426200I-50800J0D01*
G01*
X11061700Y-8331200D02*
X10922000Y-8331200D01*
X6934200Y-10287000D02*
G75*
G03*
X6883400Y-10236200I-50800J0D01*
G01*
X14554200Y-6477000D02*
G75*
G03*
X14503400Y-6426200I-50800J0D01*
G01*
X12331700Y-8331200D02*
X12331700Y-8204200D01*
X10871200Y-4572000D02*
X10871200Y-4699000D01*
X8788400Y-8204200D02*
G75*
G03*
X8839200Y-8153400I0J50800D01*
G01*
X7061200Y-10541000D02*
X7061200Y-11696700D01*
X10744200Y-8382000D02*
G75*
G03*
X10693400Y-8331200I-50800J0D01*
G01*
X12827000Y-12014200D02*
X14503400Y-12014200D01*
X11061700Y-8204200D02*
X11061700Y-8331200D01*
X7251700Y-8204200D02*
X7251700Y-8331200D01*
X7112000Y-4394200D02*
X7251700Y-4394200D01*
X10871200Y-4343400D02*
G75*
G03*
X10922000Y-4394200I50800J0D01*
G01*
X8966200Y-4826000D02*
X8966200Y-5981700D01*
X12827000Y-8204200D02*
X12966700Y-8204200D01*
X10744200Y-11696700D02*
X10744200Y-10541000D01*
X10744200Y-10058400D02*
X10744200Y-9918700D01*
X7251700Y-4394200D02*
X7251700Y-4521200D01*
X12776200Y-2667000D02*
X12776200Y-2794000D01*
X6616700Y-10236200D02*
X6616700Y-10109200D01*
X9283700Y-8204200D02*
X10426700Y-8204200D01*
X8966200Y-10058400D02*
G75*
G03*
X9017000Y-10109200I50800J0D01*
G01*
X10922000Y-6426200D02*
G75*
G03*
X10871200Y-6477000I0J-50800D01*
G01*
X11061700Y-4521200D02*
X10922000Y-4521200D01*
X8839200Y-4699000D02*
X8966200Y-4699000D01*
X8839200Y-5981700D02*
X8966200Y-5981700D01*
X12649200Y-4699000D02*
X12776200Y-4699000D01*
X8521700Y-4521200D02*
X8521700Y-4394200D01*
X8839200Y-4076700D02*
X8839200Y-2921000D01*
X12649200Y-4699000D02*
X12649200Y-4572000D01*
X10871200Y-6248400D02*
G75*
G03*
X10922000Y-6299200I50800J0D01*
G01*
X9156700Y-8331200D02*
X9017000Y-8331200D01*
X10426700Y-10236200D02*
X10426700Y-10109200D01*
X5207000Y-4521200D02*
G75*
G03*
X5156200Y-4572000I0J-50800D01*
G01*
X5473700Y-10109200D02*
X6616700Y-10109200D01*
X8839200Y-8013700D02*
X8966200Y-8013700D01*
X10744200Y-4076700D02*
X10744200Y-2921000D01*
X10426700Y-6426200D02*
X10426700Y-6299200D01*
X10744200Y-9791700D02*
X10744200Y-8636000D01*
X12649200Y-8509000D02*
X12649200Y-8382000D01*
X14363700Y-10109200D02*
X14503400Y-10109200D01*
X12776200Y-10541000D02*
X12776200Y-11696700D01*
X10426700Y-4521200D02*
X10426700Y-4394200D01*
X5207000Y-4394200D02*
X5346700Y-4394200D01*
X12649200Y-5981700D02*
X12649200Y-4826000D01*
X6743700Y-10109200D02*
X6743700Y-10236200D01*
X6934200Y-6248400D02*
X6934200Y-6108700D01*
X6934200Y-2667000D02*
G75*
G03*
X6883400Y-2616200I-50800J0D01*
G01*
X8839200Y-7886700D02*
X8966200Y-7886700D01*
X5156200Y-10287000D02*
X5156200Y-11963400D01*
X12649200Y-6604000D02*
X12649200Y-6477000D01*
X8839200Y-10541000D02*
X8966200Y-10541000D01*
X12331700Y-10236200D02*
X12331700Y-10109200D01*
X7061200Y-11823700D02*
X7061200Y-11963400D01*
X9156700Y-6426200D02*
X9017000Y-6426200D01*
X11188700Y-10236200D02*
X11188700Y-10109200D01*
X10871200Y-8382000D02*
X10871200Y-8509000D01*
X10693400Y-10109200D02*
G75*
G03*
X10744200Y-10058400I0J50800D01*
G01*
X12776200Y-4343400D02*
G75*
G03*
X12827000Y-4394200I50800J0D01*
G01*
X8839200Y-11963400D02*
X8839200Y-11823700D01*
X9017000Y-2616200D02*
G75*
G03*
X8966200Y-2667000I0J-50800D01*
G01*
X12649200Y-2794000D02*
X12649200Y-2667000D01*
X5156200Y-8382000D02*
X5156200Y-10058400D01*
X10553700Y-6299200D02*
X10553700Y-6426200D01*
X10553700Y-8204200D02*
X10553700Y-8331200D01*
X12776200Y-8382000D02*
X12776200Y-8509000D01*
X14554200Y-2667000D02*
G75*
G03*
X14503400Y-2616200I-50800J0D01*
G01*
X12827000Y-4394200D02*
X12966700Y-4394200D01*
X12331700Y-6426200D02*
X12331700Y-6299200D01*
X10744200Y-6108700D02*
X10871200Y-6108700D01*
X8839200Y-6731000D02*
X8966200Y-6731000D01*
X12649200Y-9918700D02*
X12776200Y-9918700D01*
X12776200Y-8636000D02*
X12776200Y-9791700D01*
X12966700Y-4521200D02*
X12827000Y-4521200D01*
X7112000Y-4521200D02*
G75*
G03*
X7061200Y-4572000I0J-50800D01*
G01*
X8521700Y-10236200D02*
X8521700Y-10109200D01*
X10922000Y-12014200D02*
X12598400Y-12014200D01*
X12598400Y-10236200D02*
X12458700Y-10236200D01*
X11188700Y-6426200D02*
X11188700Y-6299200D01*
X5346700Y-8331200D02*
X5207000Y-8331200D01*
X8839200Y-8636000D02*
X8966200Y-8636000D01*
X12776200Y-4203700D02*
X12776200Y-4343400D01*
X8521700Y-10236200D02*
X7378700Y-10236200D01*
X12966700Y-8204200D02*
X12966700Y-8331200D01*
X12598400Y-12014200D02*
G75*
G03*
X12649200Y-11963400I0J50800D01*
G01*
X8788400Y-10236200D02*
X8648700Y-10236200D01*
X8966200Y-4203700D02*
X8966200Y-4343400D01*
X7061200Y-8013700D02*
X7061200Y-8153400D01*
X6934200Y-10541000D02*
X7061200Y-10541000D01*
X8648700Y-10109200D02*
X8788400Y-10109200D01*
X6934200Y-8509000D02*
X6934200Y-8382000D01*
X10922000Y-8331200D02*
G75*
G03*
X10871200Y-8382000I0J-50800D01*
G01*
X10744200Y-5981700D02*
X10871200Y-5981700D01*
X8966200Y-8636000D02*
X8966200Y-9791700D01*
X13093700Y-4394200D02*
X14236700Y-4394200D01*
X10693400Y-4394200D02*
G75*
G03*
X10744200Y-4343400I0J50800D01*
G01*
X11061700Y-10236200D02*
X10922000Y-10236200D01*
X10426700Y-4521200D02*
X9283700Y-4521200D01*
X7112000Y-8204200D02*
X7251700Y-8204200D01*
X8966200Y-11823700D02*
X8966200Y-11963400D01*
X7112000Y-6426200D02*
G75*
G03*
X7061200Y-6477000I0J-50800D01*
G01*
X6743700Y-8204200D02*
X6743700Y-8331200D01*
X8521700Y-6426200D02*
X8521700Y-6299200D01*
X5346700Y-6299200D02*
X5346700Y-6426200D01*
X12776200Y-6477000D02*
X12776200Y-6604000D01*
X7378700Y-10109200D02*
X8521700Y-10109200D01*
X8839200Y-4826000D02*
X8966200Y-4826000D01*
X8788400Y-2616200D02*
X7112000Y-2616200D01*
X12649200Y-10058400D02*
X12649200Y-9918700D01*
X12776200Y-6248400D02*
G75*
G03*
X12827000Y-6299200I50800J0D01*
G01*
X12649200Y-6108700D02*
X12776200Y-6108700D01*
X14554200Y-11963400D02*
X14554200Y-10287000D01*
X12458700Y-10109200D02*
X12458700Y-10236200D01*
X14554200Y-10058400D02*
X14554200Y-8382000D01*
X5156200Y-10058400D02*
G75*
G03*
X5207000Y-10109200I50800J0D01*
G01*
X14363700Y-4394200D02*
X14503400Y-4394200D01*
X7061200Y-9918700D02*
X7061200Y-10058400D01*
X6743700Y-4394200D02*
X6743700Y-4521200D01*
X10744200Y-8013700D02*
X10871200Y-8013700D01*
X8966200Y-4343400D02*
G75*
G03*
X9017000Y-4394200I50800J0D01*
G01*
X6934200Y-8382000D02*
G75*
G03*
X6883400Y-8331200I-50800J0D01*
G01*
X9283700Y-4521200D02*
X9283700Y-4394200D01*
X14236700Y-8331200D02*
X13093700Y-8331200D01*
X10426700Y-6426200D02*
X9283700Y-6426200D01*
X10744200Y-4076700D02*
X10871200Y-4076700D01*
X6934200Y-10414000D02*
X6934200Y-10287000D01*
X14503400Y-4394200D02*
G75*
G03*
X14554200Y-4343400I0J50800D01*
G01*
X12458700Y-10109200D02*
X12598400Y-10109200D01*
X5207000Y-2616200D02*
G75*
G03*
X5156200Y-2667000I0J-50800D01*
G01*
X12649200Y-5981700D02*
X12776200Y-5981700D01*
X5207000Y-6299200D02*
X5346700Y-6299200D01*
X8839200Y-10414000D02*
X8839200Y-10287000D01*
X14236700Y-8331200D02*
X14236700Y-8204200D01*
X13093700Y-10109200D02*
X14236700Y-10109200D01*
X9017000Y-12014200D02*
X10693400Y-12014200D01*
X10744200Y-4699000D02*
X10871200Y-4699000D01*
X6934200Y-11823700D02*
X7061200Y-11823700D01*
X8648700Y-8204200D02*
X8788400Y-8204200D01*
X13093700Y-6299200D02*
X14236700Y-6299200D01*
X10693400Y-6299200D02*
G75*
G03*
X10744200Y-6248400I0J50800D01*
G01*
X6934200Y-9918700D02*
X7061200Y-9918700D01*
X8839200Y-2794000D02*
X8966200Y-2794000D01*
X5207000Y-12014200D02*
X6883400Y-12014200D01*
X9017000Y-6426200D02*
G75*
G03*
X8966200Y-6477000I0J-50800D01*
G01*
X12331700Y-6426200D02*
X11188700Y-6426200D01*
X6743700Y-6299200D02*
X6743700Y-6426200D01*
X7251700Y-6299200D02*
X7251700Y-6426200D01*
X10871200Y-11963400D02*
G75*
G03*
X10922000Y-12014200I50800J0D01*
G01*
X14236700Y-4521200D02*
X14236700Y-4394200D01*
X6616700Y-6426200D02*
X6616700Y-6299200D01*
X9156700Y-4521200D02*
X9017000Y-4521200D01*
X10922000Y-10109200D02*
X11061700Y-10109200D01*
X12331700Y-4521200D02*
X12331700Y-4394200D01*
X9156700Y-10236200D02*
X9017000Y-10236200D01*
X11188700Y-4394200D02*
X12331700Y-4394200D01*
X6934200Y-11696700D02*
X6934200Y-10541000D01*
X8839200Y-8509000D02*
X8839200Y-8382000D01*
X7378700Y-8331200D02*
X7378700Y-8204200D01*
X5473700Y-4394200D02*
X6616700Y-4394200D01*
X10744200Y-2794000D02*
X10871200Y-2794000D01*
X7251700Y-6426200D02*
X7112000Y-6426200D01*
X10871200Y-4203700D02*
X10871200Y-4343400D01*
X10553700Y-10109200D02*
X10553700Y-10236200D01*
X12598400Y-10109200D02*
G75*
G03*
X12649200Y-10058400I0J50800D01*
G01*
X10553700Y-6299200D02*
X10693400Y-6299200D01*
X14554200Y-4343400D02*
X14554200Y-2667000D01*
X8839200Y-6248400D02*
X8839200Y-6108700D01*
X6934200Y-4699000D02*
X7061200Y-4699000D01*
X6883400Y-12014200D02*
G75*
G03*
X6934200Y-11963400I0J50800D01*
G01*
X10744200Y-5981700D02*
X10744200Y-4826000D01*
X10744200Y-8509000D02*
X10744200Y-8382000D01*
X8521700Y-8331200D02*
X7378700Y-8331200D01*
X10922000Y-6299200D02*
X11061700Y-6299200D01*
X14363700Y-8204200D02*
X14503400Y-8204200D01*
X14363700Y-6299200D02*
X14503400Y-6299200D01*
X6934200Y-2921000D02*
X7061200Y-2921000D01*
X8788400Y-10109200D02*
G75*
G03*
X8839200Y-10058400I0J50800D01*
G01*
X10871200Y-6477000D02*
X10871200Y-6604000D01*
X12827000Y-10236200D02*
G75*
G03*
X12776200Y-10287000I0J-50800D01*
G01*
X8839200Y-9791700D02*
X8966200Y-9791700D01*
X12776200Y-6108700D02*
X12776200Y-6248400D01*
X6934200Y-9791700D02*
X6934200Y-8636000D01*
X12827000Y-10109200D02*
X12966700Y-10109200D01*
X6934200Y-6477000D02*
G75*
G03*
X6883400Y-6426200I-50800J0D01*
G01*
X8521700Y-4521200D02*
X7378700Y-4521200D01*
X12458700Y-8204200D02*
X12458700Y-8331200D01*
X6934200Y-11696700D02*
X7061200Y-11696700D01*
X8966200Y-8153400D02*
G75*
G03*
X9017000Y-8204200I50800J0D01*
G01*
X12776200Y-2921000D02*
X12776200Y-4076700D01*
X6616700Y-10236200D02*
X5473700Y-10236200D01*
D11*
D12*
X5442200Y-3410200D02*
X5632200Y-3600200D01*
X5632200Y-3410200D02*
X5442200Y-3600200D01*
X5442200Y-5315200D02*
X5632200Y-5505200D01*
X5632200Y-5315200D02*
X5442200Y-5505200D01*
X5442200Y-7220200D02*
X5632200Y-7410200D01*
X5632200Y-7220200D02*
X5442200Y-7410200D01*
X5442200Y-9125200D02*
X5632200Y-9315200D01*
X5632200Y-9125200D02*
X5442200Y-9315200D01*
X5442200Y-11030200D02*
X5632200Y-11220200D01*
X5632200Y-11030200D02*
X5442200Y-11220200D01*
X6458200Y-3410200D02*
X6648200Y-3600200D01*
X6648200Y-3410200D02*
X6458200Y-3600200D01*
X6458200Y-5315200D02*
X6648200Y-5505200D01*
X6648200Y-5315200D02*
X6458200Y-5505200D01*
X6458200Y-7220200D02*
X6648200Y-7410200D01*
X6648200Y-7220200D02*
X6458200Y-7410200D01*
X6458200Y-9125200D02*
X6648200Y-9315200D01*
X6648200Y-9125200D02*
X6458200Y-9315200D01*
X6458200Y-11030200D02*
X6648200Y-11220200D01*
X6648200Y-11030200D02*
X6458200Y-11220200D01*
X7347200Y-3410200D02*
X7537200Y-3600200D01*
X7537200Y-3410200D02*
X7347200Y-3600200D01*
X7347200Y-5315200D02*
X7537200Y-5505200D01*
X7537200Y-5315200D02*
X7347200Y-5505200D01*
X7347200Y-7220200D02*
X7537200Y-7410200D01*
X7537200Y-7220200D02*
X7347200Y-7410200D01*
X7347200Y-9125200D02*
X7537200Y-9315200D01*
X7537200Y-9125200D02*
X7347200Y-9315200D01*
X7347200Y-11030200D02*
X7537200Y-11220200D01*
X7537200Y-11030200D02*
X7347200Y-11220200D01*
X8363200Y-3410200D02*
X8553200Y-3600200D01*
X8553200Y-3410200D02*
X8363200Y-3600200D01*
X8363200Y-5315200D02*
X8553200Y-5505200D01*
X8553200Y-5315200D02*
X8363200Y-5505200D01*
X8363200Y-7220200D02*
X8553200Y-7410200D01*
X8553200Y-7220200D02*
X8363200Y-7410200D01*
X8363200Y-9125200D02*
X8553200Y-9315200D01*
X8553200Y-9125200D02*
X8363200Y-9315200D01*
X8363200Y-11030200D02*
X8553200Y-11220200D01*
X8553200Y-11030200D02*
X8363200Y-11220200D01*
X9252200Y-3410200D02*
X9442200Y-3600200D01*
X9442200Y-3410200D02*
X9252200Y-3600200D01*
X9252200Y-5315200D02*
X9442200Y-5505200D01*
X9442200Y-5315200D02*
X9252200Y-5505200D01*
X9252200Y-7220200D02*
X9442200Y-7410200D01*
X9442200Y-7220200D02*
X9252200Y-7410200D01*
X9252200Y-9125200D02*
X9442200Y-9315200D01*
X9442200Y-9125200D02*
X9252200Y-9315200D01*
X9252200Y-11030200D02*
X9442200Y-11220200D01*
X9442200Y-11030200D02*
X9252200Y-11220200D01*
X10268200Y-3410200D02*
X10458200Y-3600200D01*
X10458200Y-3410200D02*
X10268200Y-3600200D01*
X10268200Y-5315200D02*
X10458200Y-5505200D01*
X10458200Y-5315200D02*
X10268200Y-5505200D01*
X10268200Y-7220200D02*
X10458200Y-7410200D01*
X10458200Y-7220200D02*
X10268200Y-7410200D01*
X10268200Y-9125200D02*
X10458200Y-9315200D01*
X10458200Y-9125200D02*
X10268200Y-9315200D01*
X10268200Y-11030200D02*
X10458200Y-11220200D01*
X10458200Y-11030200D02*
X10268200Y-11220200D01*
X11157200Y-3410200D02*
X11347200Y-3600200D01*
X11347200Y-3410200D02*
X11157200Y-3600200D01*
X11157200Y-5315200D02*
X11347200Y-5505200D01*
X11347200Y-5315200D02*
X11157200Y-5505200D01*
X11157200Y-7220200D02*
X11347200Y-7410200D01*
X11347200Y-7220200D02*
X11157200Y-7410200D01*
X11157200Y-9125200D02*
X11347200Y-9315200D01*
X11347200Y-9125200D02*
X11157200Y-9315200D01*
X11157200Y-11030200D02*
X11347200Y-11220200D01*
X11347200Y-11030200D02*
X11157200Y-11220200D01*
X12173200Y-3410200D02*
X12363200Y-3600200D01*
X12363200Y-3410200D02*
X12173200Y-3600200D01*
X12173200Y-5315200D02*
X12363200Y-5505200D01*
X12363200Y-5315200D02*
X12173200Y-5505200D01*
X12173200Y-7220200D02*
X12363200Y-7410200D01*
X12363200Y-7220200D02*
X12173200Y-7410200D01*
X12173200Y-9125200D02*
X12363200Y-9315200D01*
X12363200Y-9125200D02*
X12173200Y-9315200D01*
X12173200Y-11030200D02*
X12363200Y-11220200D01*
X12363200Y-11030200D02*
X12173200Y-11220200D01*
X13062200Y-3410200D02*
X13252200Y-3600200D01*
X13252200Y-3410200D02*
X13062200Y-3600200D01*
X13062200Y-5315200D02*
X13252200Y-5505200D01*
X13252200Y-5315200D02*
X13062200Y-5505200D01*
X13062200Y-7220200D02*
X13252200Y-7410200D01*
X13252200Y-7220200D02*
X13062200Y-7410200D01*
X13062200Y-9125200D02*
X13252200Y-9315200D01*
X13252200Y-9125200D02*
X13062200Y-9315200D01*
X13062200Y-11030200D02*
X13252200Y-11220200D01*
X13252200Y-11030200D02*
X13062200Y-11220200D01*
X14078200Y-3410200D02*
X14268200Y-3600200D01*
X14268200Y-3410200D02*
X14078200Y-3600200D01*
X14078200Y-5315200D02*
X14268200Y-5505200D01*
X14268200Y-5315200D02*
X14078200Y-5505200D01*
X14078200Y-7220200D02*
X14268200Y-7410200D01*
X14268200Y-7220200D02*
X14078200Y-7410200D01*
X14078200Y-9125200D02*
X14268200Y-9315200D01*
X14268200Y-9125200D02*
X14078200Y-9315200D01*
X14078200Y-11030200D02*
X14268200Y-11220200D01*
X14268200Y-11030200D02*
X14078200Y-11220200D01*
D13*
X5941200Y-4013200D02*
G75*
G03*
X5941200Y-4013200I-150000J0D01*
G01*
X5941200Y-5918200D02*
G75*
G03*
X5941200Y-5918200I-150000J0D01*
G01*
X5941200Y-7823200D02*
G75*
G03*
X5941200Y-7823200I-150000J0D01*
G01*
X5941200Y-9728200D02*
G75*
G03*
X5941200Y-9728200I-150000J0D01*
G01*
X5941200Y-11633200D02*
G75*
G03*
X5941200Y-11633200I-150000J0D01*
G01*
X6576200Y-3759200D02*
G75*
G03*
X6576200Y-3759200I-150000J0D01*
G01*
X6576200Y-5664200D02*
G75*
G03*
X6576200Y-5664200I-150000J0D01*
G01*
X6576200Y-7569200D02*
G75*
G03*
X6576200Y-7569200I-150000J0D01*
G01*
X6576200Y-9474200D02*
G75*
G03*
X6576200Y-9474200I-150000J0D01*
G01*
X6576200Y-11379200D02*
G75*
G03*
X6576200Y-11379200I-150000J0D01*
G01*
X7846200Y-4013200D02*
G75*
G03*
X7846200Y-4013200I-150000J0D01*
G01*
X7846200Y-5918200D02*
G75*
G03*
X7846200Y-5918200I-150000J0D01*
G01*
X7846200Y-7823200D02*
G75*
G03*
X7846200Y-7823200I-150000J0D01*
G01*
X7846200Y-9728200D02*
G75*
G03*
X7846200Y-9728200I-150000J0D01*
G01*
X7846200Y-11633200D02*
G75*
G03*
X7846200Y-11633200I-150000J0D01*
G01*
X8481200Y-3759200D02*
G75*
G03*
X8481200Y-3759200I-150000J0D01*
G01*
X8481200Y-5664200D02*
G75*
G03*
X8481200Y-5664200I-150000J0D01*
G01*
X8481200Y-7569200D02*
G75*
G03*
X8481200Y-7569200I-150000J0D01*
G01*
X8481200Y-9474200D02*
G75*
G03*
X8481200Y-9474200I-150000J0D01*
G01*
X8481200Y-11379200D02*
G75*
G03*
X8481200Y-11379200I-150000J0D01*
G01*
X9751200Y-4013200D02*
G75*
G03*
X9751200Y-4013200I-150000J0D01*
G01*
X9751200Y-5918200D02*
G75*
G03*
X9751200Y-5918200I-150000J0D01*
G01*
X9751200Y-7823200D02*
G75*
G03*
X9751200Y-7823200I-150000J0D01*
G01*
X9751200Y-9728200D02*
G75*
G03*
X9751200Y-9728200I-150000J0D01*
G01*
X9751200Y-11633200D02*
G75*
G03*
X9751200Y-11633200I-150000J0D01*
G01*
X10386200Y-3759200D02*
G75*
G03*
X10386200Y-3759200I-150000J0D01*
G01*
X10386200Y-5664200D02*
G75*
G03*
X10386200Y-5664200I-150000J0D01*
G01*
X10386200Y-7569200D02*
G75*
G03*
X10386200Y-7569200I-150000J0D01*
G01*
X10386200Y-9474200D02*
G75*
G03*
X10386200Y-9474200I-150000J0D01*
G01*
X10386200Y-11379200D02*
G75*
G03*
X10386200Y-11379200I-150000J0D01*
G01*
X11656200Y-4013200D02*
G75*
G03*
X11656200Y-4013200I-150000J0D01*
G01*
X11656200Y-5918200D02*
G75*
G03*
X11656200Y-5918200I-150000J0D01*
G01*
X11656200Y-7823200D02*
G75*
G03*
X11656200Y-7823200I-150000J0D01*
G01*
X11656200Y-9728200D02*
G75*
G03*
X11656200Y-9728200I-150000J0D01*
G01*
X11656200Y-11633200D02*
G75*
G03*
X11656200Y-11633200I-150000J0D01*
G01*
X12291200Y-3759200D02*
G75*
G03*
X12291200Y-3759200I-150000J0D01*
G01*
X12291200Y-5664200D02*
G75*
G03*
X12291200Y-5664200I-150000J0D01*
G01*
X12291200Y-7569200D02*
G75*
G03*
X12291200Y-7569200I-150000J0D01*
G01*
X12291200Y-9474200D02*
G75*
G03*
X12291200Y-9474200I-150000J0D01*
G01*
X12291200Y-11379200D02*
G75*
G03*
X12291200Y-11379200I-150000J0D01*
G01*
X13561200Y-4013200D02*
G75*
G03*
X13561200Y-4013200I-150000J0D01*
G01*
X13561200Y-5918200D02*
G75*
G03*
X13561200Y-5918200I-150000J0D01*
G01*
X13561200Y-7823200D02*
G75*
G03*
X13561200Y-7823200I-150000J0D01*
G01*
X13561200Y-9728200D02*
G75*
G03*
X13561200Y-9728200I-150000J0D01*
G01*
X13561200Y-11633200D02*
G75*
G03*
X13561200Y-11633200I-150000J0D01*
G01*
X14196200Y-3759200D02*
G75*
G03*
X14196200Y-3759200I-150000J0D01*
G01*
X14196200Y-5664200D02*
G75*
G03*
X14196200Y-5664200I-150000J0D01*
G01*
X14196200Y-7569200D02*
G75*
G03*
X14196200Y-7569200I-150000J0D01*
G01*
X14196200Y-9474200D02*
G75*
G03*
X14196200Y-9474200I-150000J0D01*
G01*
X14196200Y-11379200D02*
G75*
G03*
X14196200Y-11379200I-150000J0D01*
G01*
D14*
X6045200Y-3300200D02*
X6045200Y-3710200D01*
X5840200Y-3505200D02*
X6250200Y-3505200D01*
X6045200Y-5205200D02*
X6045200Y-5615200D01*
X5840200Y-5410200D02*
X6250200Y-5410200D01*
X6045200Y-7110200D02*
X6045200Y-7520200D01*
X5840200Y-7315200D02*
X6250200Y-7315200D01*
X6045200Y-9015200D02*
X6045200Y-9425200D01*
X5840200Y-9220200D02*
X6250200Y-9220200D01*
X6045200Y-10920200D02*
X6045200Y-11330200D01*
X5840200Y-11125200D02*
X6250200Y-11125200D01*
X7950200Y-3300200D02*
X7950200Y-3710200D01*
X7745200Y-3505200D02*
X8155200Y-3505200D01*
X7950200Y-5205200D02*
X7950200Y-5615200D01*
X7745200Y-5410200D02*
X8155200Y-5410200D01*
X7950200Y-7110200D02*
X7950200Y-7520200D01*
X7745200Y-7315200D02*
X8155200Y-7315200D01*
X7950200Y-9015200D02*
X7950200Y-9425200D01*
X7745200Y-9220200D02*
X8155200Y-9220200D01*
X7950200Y-10920200D02*
X7950200Y-11330200D01*
X7745200Y-11125200D02*
X8155200Y-11125200D01*
X9855200Y-3300200D02*
X9855200Y-3710200D01*
X9650200Y-3505200D02*
X10060200Y-3505200D01*
X9855200Y-5205200D02*
X9855200Y-5615200D01*
X9650200Y-5410200D02*
X10060200Y-5410200D01*
X9855200Y-7110200D02*
X9855200Y-7520200D01*
X9650200Y-7315200D02*
X10060200Y-7315200D01*
X9855200Y-9015200D02*
X9855200Y-9425200D01*
X9650200Y-9220200D02*
X10060200Y-9220200D01*
X9855200Y-10920200D02*
X9855200Y-11330200D01*
X9650200Y-11125200D02*
X10060200Y-11125200D01*
X11760200Y-3300200D02*
X11760200Y-3710200D01*
X11555200Y-3505200D02*
X11965200Y-3505200D01*
X11760200Y-5205200D02*
X11760200Y-5615200D01*
X11555200Y-5410200D02*
X11965200Y-5410200D01*
X11760200Y-7110200D02*
X11760200Y-7520200D01*
X11555200Y-7315200D02*
X11965200Y-7315200D01*
X11760200Y-9015200D02*
X11760200Y-9425200D01*
X11555200Y-9220200D02*
X11965200Y-9220200D01*
X11760200Y-10920200D02*
X11760200Y-11330200D01*
X11555200Y-11125200D02*
X11965200Y-11125200D01*
X13665200Y-3300200D02*
X13665200Y-3710200D01*
X13460200Y-3505200D02*
X13870200Y-3505200D01*
X13665200Y-5205200D02*
X13665200Y-5615200D01*
X13460200Y-5410200D02*
X13870200Y-5410200D01*
X13665200Y-7110200D02*
X13665200Y-7520200D01*
X13460200Y-7315200D02*
X13870200Y-7315200D01*
X13665200Y-9015200D02*
X13665200Y-9425200D01*
X13460200Y-9220200D02*
X13870200Y-9220200D01*
X13665200Y-10920200D02*
X13665200Y-11330200D01*
X13460200Y-11125200D02*
X13870200Y-11125200D01*
D11*
X5408819Y-12329676D02*
X5408819Y-12129676D01*
X5456438Y-12129676D01*
X5485010Y-12139200D01*
X5504057Y-12158248D01*
X5513581Y-12177295D01*
X5523105Y-12215390D01*
X5523105Y-12243962D01*
X5513581Y-12282057D01*
X5504057Y-12301105D01*
X5485010Y-12320152D01*
X5456438Y-12329676D01*
X5408819Y-12329676D01*
X5608819Y-12329676D02*
X5608819Y-12196343D01*
X5608819Y-12234438D02*
X5618343Y-12215390D01*
X5627867Y-12205867D01*
X5646914Y-12196343D01*
X5665962Y-12196343D01*
X5732628Y-12329676D02*
X5732628Y-12196343D01*
X5732628Y-12129676D02*
X5723105Y-12139200D01*
X5732628Y-12148724D01*
X5742152Y-12139200D01*
X5732628Y-12129676D01*
X5732628Y-12148724D01*
X5856438Y-12329676D02*
X5837390Y-12320152D01*
X5827867Y-12301105D01*
X5827867Y-12129676D01*
X5961200Y-12329676D02*
X5942152Y-12320152D01*
X5932628Y-12301105D01*
X5932628Y-12129676D01*
X6189771Y-12329676D02*
X6189771Y-12129676D01*
X6256438Y-12272533D01*
X6323105Y-12129676D01*
X6323105Y-12329676D01*
X6504057Y-12329676D02*
X6504057Y-12224914D01*
X6494533Y-12205867D01*
X6475486Y-12196343D01*
X6437390Y-12196343D01*
X6418343Y-12205867D01*
X6504057Y-12320152D02*
X6485009Y-12329676D01*
X6437390Y-12329676D01*
X6418343Y-12320152D01*
X6408819Y-12301105D01*
X6408819Y-12282057D01*
X6418343Y-12263009D01*
X6437390Y-12253486D01*
X6485009Y-12253486D01*
X6504057Y-12243962D01*
X6599295Y-12196343D02*
X6599295Y-12396343D01*
X6599295Y-12205867D02*
X6618343Y-12196343D01*
X6656438Y-12196343D01*
X6675486Y-12205867D01*
X6685009Y-12215390D01*
X6694533Y-12234438D01*
X6694533Y-12291581D01*
X6685009Y-12310628D01*
X6675486Y-12320152D01*
X6656438Y-12329676D01*
X6618343Y-12329676D01*
X6599295Y-12320152D01*
X6780248Y-12310628D02*
X6789771Y-12320152D01*
X6780248Y-12329676D01*
X6770724Y-12320152D01*
X6780248Y-12310628D01*
X6780248Y-12329676D01*
X6780248Y-12205867D02*
X6789771Y-12215390D01*
X6780248Y-12224914D01*
X6770724Y-12215390D01*
X6780248Y-12205867D01*
X6780248Y-12224914D01*
D12*
X4961200Y-12564200D02*
X5151200Y-12754200D01*
X5151200Y-12564200D02*
X4961200Y-12754200D01*
D11*
X5513581Y-12749676D02*
X5399295Y-12749676D01*
X5456438Y-12749676D02*
X5456438Y-12549676D01*
X5437390Y-12578248D01*
X5418343Y-12597295D01*
X5399295Y-12606819D01*
X5599295Y-12730628D02*
X5608819Y-12740152D01*
X5599295Y-12749676D01*
X5589771Y-12740152D01*
X5599295Y-12730628D01*
X5599295Y-12749676D01*
X5704057Y-12749676D02*
X5742152Y-12749676D01*
X5761200Y-12740152D01*
X5770724Y-12730628D01*
X5789771Y-12702057D01*
X5799295Y-12663962D01*
X5799295Y-12587771D01*
X5789771Y-12568724D01*
X5780248Y-12559200D01*
X5761200Y-12549676D01*
X5723105Y-12549676D01*
X5704057Y-12559200D01*
X5694533Y-12568724D01*
X5685009Y-12587771D01*
X5685009Y-12635390D01*
X5694533Y-12654438D01*
X5704057Y-12663962D01*
X5723105Y-12673486D01*
X5761200Y-12673486D01*
X5780248Y-12663962D01*
X5789771Y-12654438D01*
X5799295Y-12635390D01*
X5923105Y-12549676D02*
X5942152Y-12549676D01*
X5961200Y-12559200D01*
X5970724Y-12568724D01*
X5980248Y-12587771D01*
X5989771Y-12625867D01*
X5989771Y-12673486D01*
X5980248Y-12711581D01*
X5970724Y-12730628D01*
X5961200Y-12740152D01*
X5942152Y-12749676D01*
X5923105Y-12749676D01*
X5904057Y-12740152D01*
X5894533Y-12730628D01*
X5885009Y-12711581D01*
X5875486Y-12673486D01*
X5875486Y-12625867D01*
X5885009Y-12587771D01*
X5894533Y-12568724D01*
X5904057Y-12559200D01*
X5923105Y-12549676D01*
X6113581Y-12549676D02*
X6132628Y-12549676D01*
X6151676Y-12559200D01*
X6161200Y-12568724D01*
X6170724Y-12587771D01*
X6180248Y-12625867D01*
X6180248Y-12673486D01*
X6170724Y-12711581D01*
X6161200Y-12730628D01*
X6151676Y-12740152D01*
X6132628Y-12749676D01*
X6113581Y-12749676D01*
X6094533Y-12740152D01*
X6085009Y-12730628D01*
X6075486Y-12711581D01*
X6065962Y-12673486D01*
X6065962Y-12625867D01*
X6075486Y-12587771D01*
X6085009Y-12568724D01*
X6094533Y-12559200D01*
X6113581Y-12549676D01*
X6265962Y-12749676D02*
X6265962Y-12616343D01*
X6265962Y-12635390D02*
X6275486Y-12625867D01*
X6294533Y-12616343D01*
X6323105Y-12616343D01*
X6342152Y-12625867D01*
X6351676Y-12644914D01*
X6351676Y-12749676D01*
X6351676Y-12644914D02*
X6361200Y-12625867D01*
X6380248Y-12616343D01*
X6408819Y-12616343D01*
X6427867Y-12625867D01*
X6437390Y-12644914D01*
X6437390Y-12749676D01*
X6532628Y-12749676D02*
X6532628Y-12616343D01*
X6532628Y-12635390D02*
X6542152Y-12625867D01*
X6561200Y-12616343D01*
X6589771Y-12616343D01*
X6608819Y-12625867D01*
X6618343Y-12644914D01*
X6618343Y-12749676D01*
X6618343Y-12644914D02*
X6627867Y-12625867D01*
X6646914Y-12616343D01*
X6675486Y-12616343D01*
X6694533Y-12625867D01*
X6704057Y-12644914D01*
X6704057Y-12749676D01*
X7094533Y-12540152D02*
X6923105Y-12797295D01*
X7351676Y-12549676D02*
X7370724Y-12549676D01*
X7389771Y-12559200D01*
X7399295Y-12568724D01*
X7408819Y-12587771D01*
X7418343Y-12625867D01*
X7418343Y-12673486D01*
X7408819Y-12711581D01*
X7399295Y-12730628D01*
X7389771Y-12740152D01*
X7370724Y-12749676D01*
X7351676Y-12749676D01*
X7332628Y-12740152D01*
X7323105Y-12730628D01*
X7313581Y-12711581D01*
X7304057Y-12673486D01*
X7304057Y-12625867D01*
X7313581Y-12587771D01*
X7323105Y-12568724D01*
X7332628Y-12559200D01*
X7351676Y-12549676D01*
X7504057Y-12730628D02*
X7513581Y-12740152D01*
X7504057Y-12749676D01*
X7494533Y-12740152D01*
X7504057Y-12730628D01*
X7504057Y-12749676D01*
X7637390Y-12549676D02*
X7656438Y-12549676D01*
X7675486Y-12559200D01*
X7685009Y-12568724D01*
X7694533Y-12587771D01*
X7704057Y-12625867D01*
X7704057Y-12673486D01*
X7694533Y-12711581D01*
X7685009Y-12730628D01*
X7675486Y-12740152D01*
X7656438Y-12749676D01*
X7637390Y-12749676D01*
X7618343Y-12740152D01*
X7608819Y-12730628D01*
X7599295Y-12711581D01*
X7589771Y-12673486D01*
X7589771Y-12625867D01*
X7599295Y-12587771D01*
X7608819Y-12568724D01*
X7618343Y-12559200D01*
X7637390Y-12549676D01*
X7770724Y-12549676D02*
X7904057Y-12549676D01*
X7818343Y-12749676D01*
X8065962Y-12616343D02*
X8065962Y-12749676D01*
X8018343Y-12540152D02*
X7970724Y-12683009D01*
X8094533Y-12683009D01*
X8199295Y-12635390D02*
X8180248Y-12625867D01*
X8170724Y-12616343D01*
X8161200Y-12597295D01*
X8161200Y-12587771D01*
X8170724Y-12568724D01*
X8180248Y-12559200D01*
X8199295Y-12549676D01*
X8237390Y-12549676D01*
X8256438Y-12559200D01*
X8265962Y-12568724D01*
X8275486Y-12587771D01*
X8275486Y-12597295D01*
X8265962Y-12616343D01*
X8256438Y-12625867D01*
X8237390Y-12635390D01*
X8199295Y-12635390D01*
X8180248Y-12644914D01*
X8170724Y-12654438D01*
X8161200Y-12673486D01*
X8161200Y-12711581D01*
X8170724Y-12730628D01*
X8180248Y-12740152D01*
X8199295Y-12749676D01*
X8237390Y-12749676D01*
X8256438Y-12740152D01*
X8265962Y-12730628D01*
X8275486Y-12711581D01*
X8275486Y-12673486D01*
X8265962Y-12654438D01*
X8256438Y-12644914D01*
X8237390Y-12635390D01*
X8351676Y-12549676D02*
X8351676Y-12587771D01*
X8427867Y-12549676D02*
X8427867Y-12587771D01*
X8723105Y-12825867D02*
X8713581Y-12816343D01*
X8694533Y-12787771D01*
X8685010Y-12768724D01*
X8675486Y-12740152D01*
X8665962Y-12692533D01*
X8665962Y-12654438D01*
X8675486Y-12606819D01*
X8685010Y-12578248D01*
X8694533Y-12559200D01*
X8713581Y-12530628D01*
X8723105Y-12521105D01*
X8894533Y-12549676D02*
X8799295Y-12549676D01*
X8789771Y-12644914D01*
X8799295Y-12635390D01*
X8818343Y-12625867D01*
X8865962Y-12625867D01*
X8885010Y-12635390D01*
X8894533Y-12644914D01*
X8904057Y-12663962D01*
X8904057Y-12711581D01*
X8894533Y-12730628D01*
X8885010Y-12740152D01*
X8865962Y-12749676D01*
X8818343Y-12749676D01*
X8799295Y-12740152D01*
X8789771Y-12730628D01*
X9027867Y-12549676D02*
X9046914Y-12549676D01*
X9065962Y-12559200D01*
X9075486Y-12568724D01*
X9085010Y-12587771D01*
X9094533Y-12625867D01*
X9094533Y-12673486D01*
X9085010Y-12711581D01*
X9075486Y-12730628D01*
X9065962Y-12740152D01*
X9046914Y-12749676D01*
X9027867Y-12749676D01*
X9008819Y-12740152D01*
X8999295Y-12730628D01*
X8989771Y-12711581D01*
X8980248Y-12673486D01*
X8980248Y-12625867D01*
X8989771Y-12587771D01*
X8999295Y-12568724D01*
X9008819Y-12559200D01*
X9027867Y-12549676D01*
X9332629Y-12749676D02*
X9332629Y-12549676D01*
X9418343Y-12749676D02*
X9418343Y-12644914D01*
X9408819Y-12625867D01*
X9389771Y-12616343D01*
X9361200Y-12616343D01*
X9342152Y-12625867D01*
X9332629Y-12635390D01*
X9542152Y-12749676D02*
X9523105Y-12740152D01*
X9513581Y-12730628D01*
X9504057Y-12711581D01*
X9504057Y-12654438D01*
X9513581Y-12635390D01*
X9523105Y-12625867D01*
X9542152Y-12616343D01*
X9570724Y-12616343D01*
X9589771Y-12625867D01*
X9599295Y-12635390D01*
X9608819Y-12654438D01*
X9608819Y-12711581D01*
X9599295Y-12730628D01*
X9589771Y-12740152D01*
X9570724Y-12749676D01*
X9542152Y-12749676D01*
X9723105Y-12749676D02*
X9704057Y-12740152D01*
X9694533Y-12721105D01*
X9694533Y-12549676D01*
X9875486Y-12740152D02*
X9856438Y-12749676D01*
X9818343Y-12749676D01*
X9799295Y-12740152D01*
X9789771Y-12721105D01*
X9789771Y-12644914D01*
X9799295Y-12625867D01*
X9818343Y-12616343D01*
X9856438Y-12616343D01*
X9875486Y-12625867D01*
X9885010Y-12644914D01*
X9885010Y-12663962D01*
X9789771Y-12683009D01*
X9961200Y-12740152D02*
X9980248Y-12749676D01*
X10018343Y-12749676D01*
X10037390Y-12740152D01*
X10046914Y-12721105D01*
X10046914Y-12711581D01*
X10037390Y-12692533D01*
X10018343Y-12683009D01*
X9989771Y-12683009D01*
X9970724Y-12673486D01*
X9961200Y-12654438D01*
X9961200Y-12644914D01*
X9970724Y-12625867D01*
X9989771Y-12616343D01*
X10018343Y-12616343D01*
X10037390Y-12625867D01*
X10113581Y-12825867D02*
X10123105Y-12816343D01*
X10142152Y-12787771D01*
X10151676Y-12768724D01*
X10161200Y-12740152D01*
X10170724Y-12692533D01*
X10170724Y-12654438D01*
X10161200Y-12606819D01*
X10151676Y-12578248D01*
X10142152Y-12559200D01*
X10123105Y-12530628D01*
X10113581Y-12521105D01*
X10475486Y-12825867D02*
X10465962Y-12816343D01*
X10446914Y-12787771D01*
X10437390Y-12768724D01*
X10427867Y-12740152D01*
X10418343Y-12692533D01*
X10418343Y-12654438D01*
X10427867Y-12606819D01*
X10437390Y-12578248D01*
X10446914Y-12559200D01*
X10465962Y-12530628D01*
X10475486Y-12521105D01*
X10551676Y-12616343D02*
X10551676Y-12749676D01*
X10551676Y-12635390D02*
X10561200Y-12625867D01*
X10580248Y-12616343D01*
X10608819Y-12616343D01*
X10627867Y-12625867D01*
X10637390Y-12644914D01*
X10637390Y-12749676D01*
X10761200Y-12749676D02*
X10742152Y-12740152D01*
X10732629Y-12730628D01*
X10723105Y-12711581D01*
X10723105Y-12654438D01*
X10732629Y-12635390D01*
X10742152Y-12625867D01*
X10761200Y-12616343D01*
X10789771Y-12616343D01*
X10808819Y-12625867D01*
X10818343Y-12635390D01*
X10827867Y-12654438D01*
X10827867Y-12711581D01*
X10818343Y-12730628D01*
X10808819Y-12740152D01*
X10789771Y-12749676D01*
X10761200Y-12749676D01*
X10885010Y-12616343D02*
X10961200Y-12616343D01*
X10913581Y-12549676D02*
X10913581Y-12721105D01*
X10923105Y-12740152D01*
X10942152Y-12749676D01*
X10961200Y-12749676D01*
X11180248Y-12616343D02*
X11180248Y-12816343D01*
X11180248Y-12625867D02*
X11199295Y-12616343D01*
X11237390Y-12616343D01*
X11256438Y-12625867D01*
X11265962Y-12635390D01*
X11275486Y-12654438D01*
X11275486Y-12711581D01*
X11265962Y-12730628D01*
X11256438Y-12740152D01*
X11237390Y-12749676D01*
X11199295Y-12749676D01*
X11180248Y-12740152D01*
X11389771Y-12749676D02*
X11370724Y-12740152D01*
X11361200Y-12721105D01*
X11361200Y-12549676D01*
X11551676Y-12749676D02*
X11551676Y-12644914D01*
X11542152Y-12625867D01*
X11523105Y-12616343D01*
X11485009Y-12616343D01*
X11465962Y-12625867D01*
X11551676Y-12740152D02*
X11532628Y-12749676D01*
X11485009Y-12749676D01*
X11465962Y-12740152D01*
X11456438Y-12721105D01*
X11456438Y-12702057D01*
X11465962Y-12683009D01*
X11485009Y-12673486D01*
X11532628Y-12673486D01*
X11551676Y-12663962D01*
X11618343Y-12616343D02*
X11694533Y-12616343D01*
X11646914Y-12549676D02*
X11646914Y-12721105D01*
X11656438Y-12740152D01*
X11675486Y-12749676D01*
X11694533Y-12749676D01*
X11837390Y-12740152D02*
X11818343Y-12749676D01*
X11780248Y-12749676D01*
X11761200Y-12740152D01*
X11751676Y-12721105D01*
X11751676Y-12644914D01*
X11761200Y-12625867D01*
X11780248Y-12616343D01*
X11818343Y-12616343D01*
X11837390Y-12625867D01*
X11846914Y-12644914D01*
X11846914Y-12663962D01*
X11751676Y-12683009D01*
X12018343Y-12749676D02*
X12018343Y-12549676D01*
X12018343Y-12740152D02*
X11999295Y-12749676D01*
X11961200Y-12749676D01*
X11942152Y-12740152D01*
X11932628Y-12730628D01*
X11923105Y-12711581D01*
X11923105Y-12654438D01*
X11932628Y-12635390D01*
X11942152Y-12625867D01*
X11961200Y-12616343D01*
X11999295Y-12616343D01*
X12018343Y-12625867D01*
X12094533Y-12825867D02*
X12104057Y-12816343D01*
X12123105Y-12787771D01*
X12132628Y-12768724D01*
X12142152Y-12740152D01*
X12151676Y-12692533D01*
X12151676Y-12654438D01*
X12142152Y-12606819D01*
X12132628Y-12578248D01*
X12123105Y-12559200D01*
X12104057Y-12530628D01*
X12094533Y-12521105D01*
X5151200Y-12969200D02*
G75*
G03*
X5151200Y-12969200I-100000J0D01*
G01*
X5389771Y-12859676D02*
X5513581Y-12859676D01*
X5446914Y-12935867D01*
X5475486Y-12935867D01*
X5494533Y-12945390D01*
X5504057Y-12954914D01*
X5513581Y-12973962D01*
X5513581Y-13021581D01*
X5504057Y-13040628D01*
X5494533Y-13050152D01*
X5475486Y-13059676D01*
X5418343Y-13059676D01*
X5399295Y-13050152D01*
X5389771Y-13040628D01*
X5599295Y-13040628D02*
X5608819Y-13050152D01*
X5599295Y-13059676D01*
X5589771Y-13050152D01*
X5599295Y-13040628D01*
X5599295Y-13059676D01*
X5732628Y-12859676D02*
X5751676Y-12859676D01*
X5770724Y-12869200D01*
X5780248Y-12878724D01*
X5789771Y-12897771D01*
X5799295Y-12935867D01*
X5799295Y-12983486D01*
X5789771Y-13021581D01*
X5780248Y-13040628D01*
X5770724Y-13050152D01*
X5751676Y-13059676D01*
X5732628Y-13059676D01*
X5713581Y-13050152D01*
X5704057Y-13040628D01*
X5694533Y-13021581D01*
X5685009Y-12983486D01*
X5685009Y-12935867D01*
X5694533Y-12897771D01*
X5704057Y-12878724D01*
X5713581Y-12869200D01*
X5732628Y-12859676D01*
X5923105Y-12859676D02*
X5942152Y-12859676D01*
X5961200Y-12869200D01*
X5970724Y-12878724D01*
X5980248Y-12897771D01*
X5989771Y-12935867D01*
X5989771Y-12983486D01*
X5980248Y-13021581D01*
X5970724Y-13040628D01*
X5961200Y-13050152D01*
X5942152Y-13059676D01*
X5923105Y-13059676D01*
X5904057Y-13050152D01*
X5894533Y-13040628D01*
X5885009Y-13021581D01*
X5875486Y-12983486D01*
X5875486Y-12935867D01*
X5885009Y-12897771D01*
X5894533Y-12878724D01*
X5904057Y-12869200D01*
X5923105Y-12859676D01*
X6113581Y-12859676D02*
X6132628Y-12859676D01*
X6151676Y-12869200D01*
X6161200Y-12878724D01*
X6170724Y-12897771D01*
X6180248Y-12935867D01*
X6180248Y-12983486D01*
X6170724Y-13021581D01*
X6161200Y-13040628D01*
X6151676Y-13050152D01*
X6132628Y-13059676D01*
X6113581Y-13059676D01*
X6094533Y-13050152D01*
X6085009Y-13040628D01*
X6075486Y-13021581D01*
X6065962Y-12983486D01*
X6065962Y-12935867D01*
X6075486Y-12897771D01*
X6085009Y-12878724D01*
X6094533Y-12869200D01*
X6113581Y-12859676D01*
X6265962Y-13059676D02*
X6265962Y-12926343D01*
X6265962Y-12945390D02*
X6275486Y-12935867D01*
X6294533Y-12926343D01*
X6323105Y-12926343D01*
X6342152Y-12935867D01*
X6351676Y-12954914D01*
X6351676Y-13059676D01*
X6351676Y-12954914D02*
X6361200Y-12935867D01*
X6380248Y-12926343D01*
X6408819Y-12926343D01*
X6427867Y-12935867D01*
X6437390Y-12954914D01*
X6437390Y-13059676D01*
X6532628Y-13059676D02*
X6532628Y-12926343D01*
X6532628Y-12945390D02*
X6542152Y-12935867D01*
X6561200Y-12926343D01*
X6589771Y-12926343D01*
X6608819Y-12935867D01*
X6618343Y-12954914D01*
X6618343Y-13059676D01*
X6618343Y-12954914D02*
X6627867Y-12935867D01*
X6646914Y-12926343D01*
X6675486Y-12926343D01*
X6694533Y-12935867D01*
X6704057Y-12954914D01*
X6704057Y-13059676D01*
X7094533Y-12850152D02*
X6923105Y-13107295D01*
X7351676Y-12859676D02*
X7370724Y-12859676D01*
X7389771Y-12869200D01*
X7399295Y-12878724D01*
X7408819Y-12897771D01*
X7418343Y-12935867D01*
X7418343Y-12983486D01*
X7408819Y-13021581D01*
X7399295Y-13040628D01*
X7389771Y-13050152D01*
X7370724Y-13059676D01*
X7351676Y-13059676D01*
X7332628Y-13050152D01*
X7323105Y-13040628D01*
X7313581Y-13021581D01*
X7304057Y-12983486D01*
X7304057Y-12935867D01*
X7313581Y-12897771D01*
X7323105Y-12878724D01*
X7332628Y-12869200D01*
X7351676Y-12859676D01*
X7504057Y-13040628D02*
X7513581Y-13050152D01*
X7504057Y-13059676D01*
X7494533Y-13050152D01*
X7504057Y-13040628D01*
X7504057Y-13059676D01*
X7704057Y-13059676D02*
X7589771Y-13059676D01*
X7646914Y-13059676D02*
X7646914Y-12859676D01*
X7627867Y-12888248D01*
X7608819Y-12907295D01*
X7589771Y-12916819D01*
X7894533Y-13059676D02*
X7780248Y-13059676D01*
X7837390Y-13059676D02*
X7837390Y-12859676D01*
X7818343Y-12888248D01*
X7799295Y-12907295D01*
X7780248Y-12916819D01*
X8008819Y-12945390D02*
X7989771Y-12935867D01*
X7980248Y-12926343D01*
X7970724Y-12907295D01*
X7970724Y-12897771D01*
X7980248Y-12878724D01*
X7989771Y-12869200D01*
X8008819Y-12859676D01*
X8046914Y-12859676D01*
X8065962Y-12869200D01*
X8075486Y-12878724D01*
X8085009Y-12897771D01*
X8085009Y-12907295D01*
X8075486Y-12926343D01*
X8065962Y-12935867D01*
X8046914Y-12945390D01*
X8008819Y-12945390D01*
X7989771Y-12954914D01*
X7980248Y-12964438D01*
X7970724Y-12983486D01*
X7970724Y-13021581D01*
X7980248Y-13040628D01*
X7989771Y-13050152D01*
X8008819Y-13059676D01*
X8046914Y-13059676D01*
X8065962Y-13050152D01*
X8075486Y-13040628D01*
X8085009Y-13021581D01*
X8085009Y-12983486D01*
X8075486Y-12964438D01*
X8065962Y-12954914D01*
X8046914Y-12945390D01*
X8275486Y-13059676D02*
X8161200Y-13059676D01*
X8218343Y-13059676D02*
X8218343Y-12859676D01*
X8199295Y-12888248D01*
X8180248Y-12907295D01*
X8161200Y-12916819D01*
X8351676Y-12859676D02*
X8351676Y-12897771D01*
X8427867Y-12859676D02*
X8427867Y-12897771D01*
X8723105Y-13135867D02*
X8713581Y-13126343D01*
X8694533Y-13097771D01*
X8685010Y-13078724D01*
X8675486Y-13050152D01*
X8665962Y-13002533D01*
X8665962Y-12964438D01*
X8675486Y-12916819D01*
X8685010Y-12888248D01*
X8694533Y-12869200D01*
X8713581Y-12840628D01*
X8723105Y-12831105D01*
X8894533Y-12859676D02*
X8799295Y-12859676D01*
X8789771Y-12954914D01*
X8799295Y-12945390D01*
X8818343Y-12935867D01*
X8865962Y-12935867D01*
X8885010Y-12945390D01*
X8894533Y-12954914D01*
X8904057Y-12973962D01*
X8904057Y-13021581D01*
X8894533Y-13040628D01*
X8885010Y-13050152D01*
X8865962Y-13059676D01*
X8818343Y-13059676D01*
X8799295Y-13050152D01*
X8789771Y-13040628D01*
X9027867Y-12859676D02*
X9046914Y-12859676D01*
X9065962Y-12869200D01*
X9075486Y-12878724D01*
X9085010Y-12897771D01*
X9094533Y-12935867D01*
X9094533Y-12983486D01*
X9085010Y-13021581D01*
X9075486Y-13040628D01*
X9065962Y-13050152D01*
X9046914Y-13059676D01*
X9027867Y-13059676D01*
X9008819Y-13050152D01*
X8999295Y-13040628D01*
X8989771Y-13021581D01*
X8980248Y-12983486D01*
X8980248Y-12935867D01*
X8989771Y-12897771D01*
X8999295Y-12878724D01*
X9008819Y-12869200D01*
X9027867Y-12859676D01*
X9332629Y-13059676D02*
X9332629Y-12859676D01*
X9418343Y-13059676D02*
X9418343Y-12954914D01*
X9408819Y-12935867D01*
X9389771Y-12926343D01*
X9361200Y-12926343D01*
X9342152Y-12935867D01*
X9332629Y-12945390D01*
X9542152Y-13059676D02*
X9523105Y-13050152D01*
X9513581Y-13040628D01*
X9504057Y-13021581D01*
X9504057Y-12964438D01*
X9513581Y-12945390D01*
X9523105Y-12935867D01*
X9542152Y-12926343D01*
X9570724Y-12926343D01*
X9589771Y-12935867D01*
X9599295Y-12945390D01*
X9608819Y-12964438D01*
X9608819Y-13021581D01*
X9599295Y-13040628D01*
X9589771Y-13050152D01*
X9570724Y-13059676D01*
X9542152Y-13059676D01*
X9723105Y-13059676D02*
X9704057Y-13050152D01*
X9694533Y-13031105D01*
X9694533Y-12859676D01*
X9875486Y-13050152D02*
X9856438Y-13059676D01*
X9818343Y-13059676D01*
X9799295Y-13050152D01*
X9789771Y-13031105D01*
X9789771Y-12954914D01*
X9799295Y-12935867D01*
X9818343Y-12926343D01*
X9856438Y-12926343D01*
X9875486Y-12935867D01*
X9885010Y-12954914D01*
X9885010Y-12973962D01*
X9789771Y-12993009D01*
X9961200Y-13050152D02*
X9980248Y-13059676D01*
X10018343Y-13059676D01*
X10037390Y-13050152D01*
X10046914Y-13031105D01*
X10046914Y-13021581D01*
X10037390Y-13002533D01*
X10018343Y-12993009D01*
X9989771Y-12993009D01*
X9970724Y-12983486D01*
X9961200Y-12964438D01*
X9961200Y-12954914D01*
X9970724Y-12935867D01*
X9989771Y-12926343D01*
X10018343Y-12926343D01*
X10037390Y-12935867D01*
X10113581Y-13135867D02*
X10123105Y-13126343D01*
X10142152Y-13097771D01*
X10151676Y-13078724D01*
X10161200Y-13050152D01*
X10170724Y-13002533D01*
X10170724Y-12964438D01*
X10161200Y-12916819D01*
X10151676Y-12888248D01*
X10142152Y-12869200D01*
X10123105Y-12840628D01*
X10113581Y-12831105D01*
X10475486Y-13135867D02*
X10465962Y-13126343D01*
X10446914Y-13097771D01*
X10437390Y-13078724D01*
X10427867Y-13050152D01*
X10418343Y-13002533D01*
X10418343Y-12964438D01*
X10427867Y-12916819D01*
X10437390Y-12888248D01*
X10446914Y-12869200D01*
X10465962Y-12840628D01*
X10475486Y-12831105D01*
X10551676Y-12926343D02*
X10551676Y-13059676D01*
X10551676Y-12945390D02*
X10561200Y-12935867D01*
X10580248Y-12926343D01*
X10608819Y-12926343D01*
X10627867Y-12935867D01*
X10637390Y-12954914D01*
X10637390Y-13059676D01*
X10761200Y-13059676D02*
X10742152Y-13050152D01*
X10732629Y-13040628D01*
X10723105Y-13021581D01*
X10723105Y-12964438D01*
X10732629Y-12945390D01*
X10742152Y-12935867D01*
X10761200Y-12926343D01*
X10789771Y-12926343D01*
X10808819Y-12935867D01*
X10818343Y-12945390D01*
X10827867Y-12964438D01*
X10827867Y-13021581D01*
X10818343Y-13040628D01*
X10808819Y-13050152D01*
X10789771Y-13059676D01*
X10761200Y-13059676D01*
X10885010Y-12926343D02*
X10961200Y-12926343D01*
X10913581Y-12859676D02*
X10913581Y-13031105D01*
X10923105Y-13050152D01*
X10942152Y-13059676D01*
X10961200Y-13059676D01*
X11180248Y-12926343D02*
X11180248Y-13126343D01*
X11180248Y-12935867D02*
X11199295Y-12926343D01*
X11237390Y-12926343D01*
X11256438Y-12935867D01*
X11265962Y-12945390D01*
X11275486Y-12964438D01*
X11275486Y-13021581D01*
X11265962Y-13040628D01*
X11256438Y-13050152D01*
X11237390Y-13059676D01*
X11199295Y-13059676D01*
X11180248Y-13050152D01*
X11389771Y-13059676D02*
X11370724Y-13050152D01*
X11361200Y-13031105D01*
X11361200Y-12859676D01*
X11551676Y-13059676D02*
X11551676Y-12954914D01*
X11542152Y-12935867D01*
X11523105Y-12926343D01*
X11485009Y-12926343D01*
X11465962Y-12935867D01*
X11551676Y-13050152D02*
X11532628Y-13059676D01*
X11485009Y-13059676D01*
X11465962Y-13050152D01*
X11456438Y-13031105D01*
X11456438Y-13012057D01*
X11465962Y-12993009D01*
X11485009Y-12983486D01*
X11532628Y-12983486D01*
X11551676Y-12973962D01*
X11618343Y-12926343D02*
X11694533Y-12926343D01*
X11646914Y-12859676D02*
X11646914Y-13031105D01*
X11656438Y-13050152D01*
X11675486Y-13059676D01*
X11694533Y-13059676D01*
X11837390Y-13050152D02*
X11818343Y-13059676D01*
X11780248Y-13059676D01*
X11761200Y-13050152D01*
X11751676Y-13031105D01*
X11751676Y-12954914D01*
X11761200Y-12935867D01*
X11780248Y-12926343D01*
X11818343Y-12926343D01*
X11837390Y-12935867D01*
X11846914Y-12954914D01*
X11846914Y-12973962D01*
X11751676Y-12993009D01*
X12018343Y-13059676D02*
X12018343Y-12859676D01*
X12018343Y-13050152D02*
X11999295Y-13059676D01*
X11961200Y-13059676D01*
X11942152Y-13050152D01*
X11932628Y-13040628D01*
X11923105Y-13021581D01*
X11923105Y-12964438D01*
X11932628Y-12945390D01*
X11942152Y-12935867D01*
X11961200Y-12926343D01*
X11999295Y-12926343D01*
X12018343Y-12935867D01*
X12094533Y-13135867D02*
X12104057Y-13126343D01*
X12123105Y-13097771D01*
X12132628Y-13078724D01*
X12142152Y-13050152D01*
X12151676Y-13002533D01*
X12151676Y-12964438D01*
X12142152Y-12916819D01*
X12132628Y-12888248D01*
X12123105Y-12869200D01*
X12104057Y-12840628D01*
X12094533Y-12831105D01*
X5051200Y-13189200D02*
X5051200Y-13389200D01*
X4951200Y-13289200D02*
X5151200Y-13289200D01*
X5494533Y-13246343D02*
X5494533Y-13379676D01*
X5446914Y-13170152D02*
X5399295Y-13313009D01*
X5523105Y-13313009D01*
X5599295Y-13360628D02*
X5608819Y-13370152D01*
X5599295Y-13379676D01*
X5589771Y-13370152D01*
X5599295Y-13360628D01*
X5599295Y-13379676D01*
X5799295Y-13379676D02*
X5685009Y-13379676D01*
X5742152Y-13379676D02*
X5742152Y-13179676D01*
X5723105Y-13208248D01*
X5704057Y-13227295D01*
X5685009Y-13236819D01*
X5923105Y-13179676D02*
X5942152Y-13179676D01*
X5961200Y-13189200D01*
X5970724Y-13198724D01*
X5980248Y-13217771D01*
X5989771Y-13255867D01*
X5989771Y-13303486D01*
X5980248Y-13341581D01*
X5970724Y-13360628D01*
X5961200Y-13370152D01*
X5942152Y-13379676D01*
X5923105Y-13379676D01*
X5904057Y-13370152D01*
X5894533Y-13360628D01*
X5885009Y-13341581D01*
X5875486Y-13303486D01*
X5875486Y-13255867D01*
X5885009Y-13217771D01*
X5894533Y-13198724D01*
X5904057Y-13189200D01*
X5923105Y-13179676D01*
X6113581Y-13179676D02*
X6132628Y-13179676D01*
X6151676Y-13189200D01*
X6161200Y-13198724D01*
X6170724Y-13217771D01*
X6180248Y-13255867D01*
X6180248Y-13303486D01*
X6170724Y-13341581D01*
X6161200Y-13360628D01*
X6151676Y-13370152D01*
X6132628Y-13379676D01*
X6113581Y-13379676D01*
X6094533Y-13370152D01*
X6085009Y-13360628D01*
X6075486Y-13341581D01*
X6065962Y-13303486D01*
X6065962Y-13255867D01*
X6075486Y-13217771D01*
X6085009Y-13198724D01*
X6094533Y-13189200D01*
X6113581Y-13179676D01*
X6265962Y-13379676D02*
X6265962Y-13246343D01*
X6265962Y-13265390D02*
X6275486Y-13255867D01*
X6294533Y-13246343D01*
X6323105Y-13246343D01*
X6342152Y-13255867D01*
X6351676Y-13274914D01*
X6351676Y-13379676D01*
X6351676Y-13274914D02*
X6361200Y-13255867D01*
X6380248Y-13246343D01*
X6408819Y-13246343D01*
X6427867Y-13255867D01*
X6437390Y-13274914D01*
X6437390Y-13379676D01*
X6532628Y-13379676D02*
X6532628Y-13246343D01*
X6532628Y-13265390D02*
X6542152Y-13255867D01*
X6561200Y-13246343D01*
X6589771Y-13246343D01*
X6608819Y-13255867D01*
X6618343Y-13274914D01*
X6618343Y-13379676D01*
X6618343Y-13274914D02*
X6627867Y-13255867D01*
X6646914Y-13246343D01*
X6675486Y-13246343D01*
X6694533Y-13255867D01*
X6704057Y-13274914D01*
X6704057Y-13379676D01*
X7094533Y-13170152D02*
X6923105Y-13427295D01*
X7351676Y-13179676D02*
X7370724Y-13179676D01*
X7389771Y-13189200D01*
X7399295Y-13198724D01*
X7408819Y-13217771D01*
X7418343Y-13255867D01*
X7418343Y-13303486D01*
X7408819Y-13341581D01*
X7399295Y-13360628D01*
X7389771Y-13370152D01*
X7370724Y-13379676D01*
X7351676Y-13379676D01*
X7332628Y-13370152D01*
X7323105Y-13360628D01*
X7313581Y-13341581D01*
X7304057Y-13303486D01*
X7304057Y-13255867D01*
X7313581Y-13217771D01*
X7323105Y-13198724D01*
X7332628Y-13189200D01*
X7351676Y-13179676D01*
X7504057Y-13360628D02*
X7513581Y-13370152D01*
X7504057Y-13379676D01*
X7494533Y-13370152D01*
X7504057Y-13360628D01*
X7504057Y-13379676D01*
X7704057Y-13379676D02*
X7589771Y-13379676D01*
X7646914Y-13379676D02*
X7646914Y-13179676D01*
X7627867Y-13208248D01*
X7608819Y-13227295D01*
X7589771Y-13236819D01*
X7875486Y-13179676D02*
X7837390Y-13179676D01*
X7818343Y-13189200D01*
X7808819Y-13198724D01*
X7789771Y-13227295D01*
X7780248Y-13265390D01*
X7780248Y-13341581D01*
X7789771Y-13360628D01*
X7799295Y-13370152D01*
X7818343Y-13379676D01*
X7856438Y-13379676D01*
X7875486Y-13370152D01*
X7885009Y-13360628D01*
X7894533Y-13341581D01*
X7894533Y-13293962D01*
X7885009Y-13274914D01*
X7875486Y-13265390D01*
X7856438Y-13255867D01*
X7818343Y-13255867D01*
X7799295Y-13265390D01*
X7789771Y-13274914D01*
X7780248Y-13293962D01*
X8085009Y-13379676D02*
X7970724Y-13379676D01*
X8027867Y-13379676D02*
X8027867Y-13179676D01*
X8008819Y-13208248D01*
X7989771Y-13227295D01*
X7970724Y-13236819D01*
X8256438Y-13246343D02*
X8256438Y-13379676D01*
X8208819Y-13170152D02*
X8161200Y-13313009D01*
X8285009Y-13313009D01*
X8351676Y-13179676D02*
X8351676Y-13217771D01*
X8427867Y-13179676D02*
X8427867Y-13217771D01*
X8723105Y-13455867D02*
X8713581Y-13446343D01*
X8694533Y-13417771D01*
X8685010Y-13398724D01*
X8675486Y-13370152D01*
X8665962Y-13322533D01*
X8665962Y-13284438D01*
X8675486Y-13236819D01*
X8685010Y-13208248D01*
X8694533Y-13189200D01*
X8713581Y-13160628D01*
X8723105Y-13151105D01*
X8789771Y-13198724D02*
X8799295Y-13189200D01*
X8818343Y-13179676D01*
X8865962Y-13179676D01*
X8885010Y-13189200D01*
X8894533Y-13198724D01*
X8904057Y-13217771D01*
X8904057Y-13236819D01*
X8894533Y-13265390D01*
X8780248Y-13379676D01*
X8904057Y-13379676D01*
X9085010Y-13179676D02*
X8989771Y-13179676D01*
X8980248Y-13274914D01*
X8989771Y-13265390D01*
X9008819Y-13255867D01*
X9056438Y-13255867D01*
X9075486Y-13265390D01*
X9085010Y-13274914D01*
X9094533Y-13293962D01*
X9094533Y-13341581D01*
X9085010Y-13360628D01*
X9075486Y-13370152D01*
X9056438Y-13379676D01*
X9008819Y-13379676D01*
X8989771Y-13370152D01*
X8980248Y-13360628D01*
X9332629Y-13379676D02*
X9332629Y-13179676D01*
X9418343Y-13379676D02*
X9418343Y-13274914D01*
X9408819Y-13255867D01*
X9389771Y-13246343D01*
X9361200Y-13246343D01*
X9342152Y-13255867D01*
X9332629Y-13265390D01*
X9542152Y-13379676D02*
X9523105Y-13370152D01*
X9513581Y-13360628D01*
X9504057Y-13341581D01*
X9504057Y-13284438D01*
X9513581Y-13265390D01*
X9523105Y-13255867D01*
X9542152Y-13246343D01*
X9570724Y-13246343D01*
X9589771Y-13255867D01*
X9599295Y-13265390D01*
X9608819Y-13284438D01*
X9608819Y-13341581D01*
X9599295Y-13360628D01*
X9589771Y-13370152D01*
X9570724Y-13379676D01*
X9542152Y-13379676D01*
X9723105Y-13379676D02*
X9704057Y-13370152D01*
X9694533Y-13351105D01*
X9694533Y-13179676D01*
X9875486Y-13370152D02*
X9856438Y-13379676D01*
X9818343Y-13379676D01*
X9799295Y-13370152D01*
X9789771Y-13351105D01*
X9789771Y-13274914D01*
X9799295Y-13255867D01*
X9818343Y-13246343D01*
X9856438Y-13246343D01*
X9875486Y-13255867D01*
X9885010Y-13274914D01*
X9885010Y-13293962D01*
X9789771Y-13313009D01*
X9961200Y-13370152D02*
X9980248Y-13379676D01*
X10018343Y-13379676D01*
X10037390Y-13370152D01*
X10046914Y-13351105D01*
X10046914Y-13341581D01*
X10037390Y-13322533D01*
X10018343Y-13313009D01*
X9989771Y-13313009D01*
X9970724Y-13303486D01*
X9961200Y-13284438D01*
X9961200Y-13274914D01*
X9970724Y-13255867D01*
X9989771Y-13246343D01*
X10018343Y-13246343D01*
X10037390Y-13255867D01*
X10113581Y-13455867D02*
X10123105Y-13446343D01*
X10142152Y-13417771D01*
X10151676Y-13398724D01*
X10161200Y-13370152D01*
X10170724Y-13322533D01*
X10170724Y-13284438D01*
X10161200Y-13236819D01*
X10151676Y-13208248D01*
X10142152Y-13189200D01*
X10123105Y-13160628D01*
X10113581Y-13151105D01*
X10475486Y-13455867D02*
X10465962Y-13446343D01*
X10446914Y-13417771D01*
X10437390Y-13398724D01*
X10427867Y-13370152D01*
X10418343Y-13322533D01*
X10418343Y-13284438D01*
X10427867Y-13236819D01*
X10437390Y-13208248D01*
X10446914Y-13189200D01*
X10465962Y-13160628D01*
X10475486Y-13151105D01*
X10551676Y-13246343D02*
X10551676Y-13379676D01*
X10551676Y-13265390D02*
X10561200Y-13255867D01*
X10580248Y-13246343D01*
X10608819Y-13246343D01*
X10627867Y-13255867D01*
X10637390Y-13274914D01*
X10637390Y-13379676D01*
X10761200Y-13379676D02*
X10742152Y-13370152D01*
X10732629Y-13360628D01*
X10723105Y-13341581D01*
X10723105Y-13284438D01*
X10732629Y-13265390D01*
X10742152Y-13255867D01*
X10761200Y-13246343D01*
X10789771Y-13246343D01*
X10808819Y-13255867D01*
X10818343Y-13265390D01*
X10827867Y-13284438D01*
X10827867Y-13341581D01*
X10818343Y-13360628D01*
X10808819Y-13370152D01*
X10789771Y-13379676D01*
X10761200Y-13379676D01*
X10885010Y-13246343D02*
X10961200Y-13246343D01*
X10913581Y-13179676D02*
X10913581Y-13351105D01*
X10923105Y-13370152D01*
X10942152Y-13379676D01*
X10961200Y-13379676D01*
X11180248Y-13246343D02*
X11180248Y-13446343D01*
X11180248Y-13255867D02*
X11199295Y-13246343D01*
X11237390Y-13246343D01*
X11256438Y-13255867D01*
X11265962Y-13265390D01*
X11275486Y-13284438D01*
X11275486Y-13341581D01*
X11265962Y-13360628D01*
X11256438Y-13370152D01*
X11237390Y-13379676D01*
X11199295Y-13379676D01*
X11180248Y-13370152D01*
X11389771Y-13379676D02*
X11370724Y-13370152D01*
X11361200Y-13351105D01*
X11361200Y-13179676D01*
X11551676Y-13379676D02*
X11551676Y-13274914D01*
X11542152Y-13255867D01*
X11523105Y-13246343D01*
X11485009Y-13246343D01*
X11465962Y-13255867D01*
X11551676Y-13370152D02*
X11532628Y-13379676D01*
X11485009Y-13379676D01*
X11465962Y-13370152D01*
X11456438Y-13351105D01*
X11456438Y-13332057D01*
X11465962Y-13313009D01*
X11485009Y-13303486D01*
X11532628Y-13303486D01*
X11551676Y-13293962D01*
X11618343Y-13246343D02*
X11694533Y-13246343D01*
X11646914Y-13179676D02*
X11646914Y-13351105D01*
X11656438Y-13370152D01*
X11675486Y-13379676D01*
X11694533Y-13379676D01*
X11837390Y-13370152D02*
X11818343Y-13379676D01*
X11780248Y-13379676D01*
X11761200Y-13370152D01*
X11751676Y-13351105D01*
X11751676Y-13274914D01*
X11761200Y-13255867D01*
X11780248Y-13246343D01*
X11818343Y-13246343D01*
X11837390Y-13255867D01*
X11846914Y-13274914D01*
X11846914Y-13293962D01*
X11751676Y-13313009D01*
X12018343Y-13379676D02*
X12018343Y-13179676D01*
X12018343Y-13370152D02*
X11999295Y-13379676D01*
X11961200Y-13379676D01*
X11942152Y-13370152D01*
X11932628Y-13360628D01*
X11923105Y-13341581D01*
X11923105Y-13284438D01*
X11932628Y-13265390D01*
X11942152Y-13255867D01*
X11961200Y-13246343D01*
X11999295Y-13246343D01*
X12018343Y-13255867D01*
X12094533Y-13455867D02*
X12104057Y-13446343D01*
X12123105Y-13417771D01*
X12132628Y-13398724D01*
X12142152Y-13370152D01*
X12151676Y-13322533D01*
X12151676Y-13284438D01*
X12142152Y-13236819D01*
X12132628Y-13208248D01*
X12123105Y-13189200D01*
X12104057Y-13160628D01*
X12094533Y-13151105D01*
M02*
