%TF.GenerationSoftware,KiCad,Pcbnew,(6.0.0-0)*%
%TF.CreationDate,2022-01-08T22:40:34+00:00*%
%TF.ProjectId,Sarcodina,53617263-6f64-4696-9e61-2e6b69636164,rev?*%
%TF.SameCoordinates,Original*%
%TF.FileFunction,Paste,Bot*%
%TF.FilePolarity,Positive*%
%FSLAX46Y46*%
G04 Gerber Fmt 4.6, Leading zero omitted, Abs format (unit mm)*
G04 Created by KiCad (PCBNEW (6.0.0-0)) date 2022-01-08 22:40:34*
%MOMM*%
%LPD*%
G01*
G04 APERTURE LIST*
%ADD10R,2.300000X2.000000*%
%ADD11R,1.600000X1.200000*%
%ADD12R,1.800000X0.820000*%
G04 APERTURE END LIST*
D10*
%TO.C,SW7*%
X76977000Y-116213250D03*
X64277000Y-118753250D03*
%TD*%
%TO.C,SW7*%
X76977000Y-59063250D03*
X64277000Y-61603250D03*
%TD*%
%TO.C,SW7*%
X96027000Y-97163250D03*
X83327000Y-99703250D03*
%TD*%
%TO.C,SW7*%
X115077000Y-78113250D03*
X102377000Y-80653250D03*
%TD*%
D11*
%TO.C,D*%
X107315000Y-64230250D03*
%TD*%
%TO.C,D*%
X50165000Y-121380250D03*
%TD*%
%TO.C,D*%
X88265000Y-121380250D03*
%TD*%
%TO.C,D*%
X107315000Y-102330250D03*
%TD*%
%TO.C,D*%
X126365000Y-45180250D03*
%TD*%
%TO.C,D*%
X88265000Y-45180250D03*
%TD*%
D10*
%TO.C,SW7*%
X76977000Y-97163250D03*
X64277000Y-99703250D03*
%TD*%
D11*
%TO.C,D*%
X107315000Y-83280250D03*
%TD*%
%TO.C,D*%
X50165000Y-102330250D03*
%TD*%
D10*
%TO.C,SW7*%
X115077000Y-116213250D03*
X102377000Y-118753250D03*
%TD*%
D11*
%TO.C,D*%
X69215000Y-121380250D03*
%TD*%
D10*
%TO.C,SW7*%
X76977000Y-40013250D03*
X64277000Y-42553250D03*
%TD*%
%TO.C,SW7*%
X57927000Y-116213250D03*
X45227000Y-118753250D03*
%TD*%
%TO.C,SW7*%
X134127000Y-97163250D03*
X121427000Y-99703250D03*
%TD*%
%TO.C,SW7*%
X57927000Y-59063250D03*
X45227000Y-61603250D03*
%TD*%
D11*
%TO.C,D*%
X69215000Y-83280250D03*
%TD*%
%TO.C,D*%
X126365000Y-64230250D03*
%TD*%
%TO.C,D*%
X107315000Y-121380250D03*
%TD*%
%TO.C,D*%
X50165000Y-64230250D03*
%TD*%
D10*
%TO.C,SW7*%
X76977000Y-78113250D03*
X64277000Y-80653250D03*
%TD*%
D11*
%TO.C,D*%
X126365000Y-121380250D03*
%TD*%
%TO.C,D*%
X50165000Y-83280250D03*
%TD*%
%TO.C,D*%
X88265000Y-64230250D03*
%TD*%
D10*
%TO.C,SW7*%
X134127000Y-116213250D03*
X121427000Y-118753250D03*
%TD*%
D11*
%TO.C,D*%
X126365000Y-83280250D03*
%TD*%
%TO.C,D*%
X107315000Y-45180250D03*
%TD*%
%TO.C,D*%
X88265000Y-83280250D03*
%TD*%
D10*
%TO.C,SW7*%
X96027000Y-40013250D03*
X83327000Y-42553250D03*
%TD*%
%TO.C,SW7*%
X134127000Y-59063250D03*
X121427000Y-61603250D03*
%TD*%
D11*
%TO.C,D*%
X69215000Y-102330250D03*
%TD*%
D10*
%TO.C,SW7*%
X134127000Y-78113250D03*
X121427000Y-80653250D03*
%TD*%
%TO.C,SW7*%
X115077000Y-40013250D03*
X102377000Y-42553250D03*
%TD*%
%TO.C,SW7*%
X57927000Y-97163250D03*
X45227000Y-99703250D03*
%TD*%
%TO.C,SW7*%
X96027000Y-78113250D03*
X83327000Y-80653250D03*
%TD*%
%TO.C,SW7*%
X115077000Y-97163250D03*
X102377000Y-99703250D03*
%TD*%
D11*
%TO.C,D*%
X50165000Y-45180250D03*
%TD*%
D10*
%TO.C,SW7*%
X115077000Y-59063250D03*
X102377000Y-61603250D03*
%TD*%
%TO.C,SW7*%
X57927000Y-40013250D03*
X45227000Y-42553250D03*
%TD*%
D11*
%TO.C,D*%
X69215000Y-45180250D03*
%TD*%
D10*
%TO.C,SW7*%
X57927000Y-78113250D03*
X45227000Y-80653250D03*
%TD*%
%TO.C,SW7*%
X96027000Y-116213250D03*
X83327000Y-118753250D03*
%TD*%
%TO.C,SW7*%
X134127000Y-40013250D03*
X121427000Y-42553250D03*
%TD*%
D11*
%TO.C,D*%
X88265000Y-102330250D03*
%TD*%
%TO.C,D*%
X69215000Y-64230250D03*
%TD*%
D10*
%TO.C,SW7*%
X96027000Y-59063250D03*
X83327000Y-61603250D03*
%TD*%
D11*
%TO.C,D*%
X126365000Y-102330250D03*
%TD*%
D12*
%TO.C,L1*%
X67477000Y-51161250D03*
X67477000Y-52661250D03*
X72477000Y-52661250D03*
X72477000Y-51161250D03*
%TD*%
%TO.C,L1*%
X86527000Y-108311250D03*
X86527000Y-109811250D03*
X91527000Y-109811250D03*
X91527000Y-108311250D03*
%TD*%
%TO.C,L1*%
X105577000Y-70211250D03*
X105577000Y-71711250D03*
X110577000Y-71711250D03*
X110577000Y-70211250D03*
%TD*%
%TO.C,L1*%
X48427000Y-70211250D03*
X48427000Y-71711250D03*
X53427000Y-71711250D03*
X53427000Y-70211250D03*
%TD*%
%TO.C,L1*%
X124627000Y-89261250D03*
X124627000Y-90761250D03*
X129627000Y-90761250D03*
X129627000Y-89261250D03*
%TD*%
%TO.C,L1*%
X67477000Y-89261250D03*
X67477000Y-90761250D03*
X72477000Y-90761250D03*
X72477000Y-89261250D03*
%TD*%
%TO.C,L1*%
X105577000Y-108311250D03*
X105577000Y-109811250D03*
X110577000Y-109811250D03*
X110577000Y-108311250D03*
%TD*%
%TO.C,L1*%
X86527000Y-70211250D03*
X86527000Y-71711250D03*
X91527000Y-71711250D03*
X91527000Y-70211250D03*
%TD*%
%TO.C,L1*%
X67477000Y-32111250D03*
X67477000Y-33611250D03*
X72477000Y-33611250D03*
X72477000Y-32111250D03*
%TD*%
%TO.C,L1*%
X124627000Y-32111250D03*
X124627000Y-33611250D03*
X129627000Y-33611250D03*
X129627000Y-32111250D03*
%TD*%
%TO.C,L1*%
X105577000Y-89261250D03*
X105577000Y-90761250D03*
X110577000Y-90761250D03*
X110577000Y-89261250D03*
%TD*%
%TO.C,L1*%
X67477000Y-108311250D03*
X67477000Y-109811250D03*
X72477000Y-109811250D03*
X72477000Y-108311250D03*
%TD*%
%TO.C,L1*%
X105577000Y-32111250D03*
X105577000Y-33611250D03*
X110577000Y-33611250D03*
X110577000Y-32111250D03*
%TD*%
%TO.C,L1*%
X105577000Y-51161250D03*
X105577000Y-52661250D03*
X110577000Y-52661250D03*
X110577000Y-51161250D03*
%TD*%
%TO.C,L1*%
X48427000Y-51161250D03*
X48427000Y-52661250D03*
X53427000Y-52661250D03*
X53427000Y-51161250D03*
%TD*%
%TO.C,L1*%
X48427000Y-108311250D03*
X48427000Y-109811250D03*
X53427000Y-109811250D03*
X53427000Y-108311250D03*
%TD*%
%TO.C,L1*%
X86527000Y-51161250D03*
X86527000Y-52661250D03*
X91527000Y-52661250D03*
X91527000Y-51161250D03*
%TD*%
%TO.C,L1*%
X67477000Y-70211250D03*
X67477000Y-71711250D03*
X72477000Y-71711250D03*
X72477000Y-70211250D03*
%TD*%
%TO.C,L1*%
X124627000Y-108311250D03*
X124627000Y-109811250D03*
X129627000Y-109811250D03*
X129627000Y-108311250D03*
%TD*%
%TO.C,L1*%
X48427000Y-89261250D03*
X48427000Y-90761250D03*
X53427000Y-90761250D03*
X53427000Y-89261250D03*
%TD*%
%TO.C,L1*%
X86527000Y-32111250D03*
X86527000Y-33611250D03*
X91527000Y-33611250D03*
X91527000Y-32111250D03*
%TD*%
%TO.C,L1*%
X124627000Y-70211250D03*
X124627000Y-71711250D03*
X129627000Y-71711250D03*
X129627000Y-70211250D03*
%TD*%
%TO.C,L1*%
X48427000Y-32111250D03*
X48427000Y-33611250D03*
X53427000Y-33611250D03*
X53427000Y-32111250D03*
%TD*%
%TO.C,L1*%
X86527000Y-89261250D03*
X86527000Y-90761250D03*
X91527000Y-90761250D03*
X91527000Y-89261250D03*
%TD*%
%TO.C,L1*%
X124627000Y-51161250D03*
X124627000Y-52661250D03*
X129627000Y-52661250D03*
X129627000Y-51161250D03*
%TD*%
M02*
