M48
; DRILL file {KiCad (6.0.0-0)} date Saturday, January 08, 2022 at 10:40:46 PM
; FORMAT={-:-/ absolute / metric / decimal}
; #@! TF.CreationDate,2022-01-08T22:40:46+00:00
; #@! TF.GenerationSoftware,Kicad,Pcbnew,(6.0.0-0)
; #@! TF.FileFunction,NonPlated,1,2,NPTH
FMAT,2
METRIC
; #@! TA.AperFunction,NonPlated,NPTH,ComponentDrill
T1C1.900
; #@! TA.AperFunction,NonPlated,NPTH,ComponentDrill
T2C3.000
; #@! TA.AperFunction,NonPlated,NPTH,ComponentDrill
T3C4.100
%
G90
G05
T1
X45.847Y-37.433
X45.847Y-56.483
X45.847Y-75.533
X45.847Y-94.583
X45.847Y-113.633
X56.007Y-37.433
X56.007Y-56.483
X56.007Y-75.533
X56.007Y-94.583
X56.007Y-113.633
X64.897Y-37.433
X64.897Y-56.483
X64.897Y-75.533
X64.897Y-94.583
X64.897Y-113.633
X75.057Y-37.433
X75.057Y-56.483
X75.057Y-75.533
X75.057Y-94.583
X75.057Y-113.633
X83.947Y-37.433
X83.947Y-56.483
X83.947Y-75.533
X83.947Y-94.583
X83.947Y-113.633
X94.107Y-37.433
X94.107Y-56.483
X94.107Y-75.533
X94.107Y-94.583
X94.107Y-113.633
X102.997Y-37.433
X102.997Y-56.483
X102.997Y-75.533
X102.997Y-94.583
X102.997Y-113.633
X113.157Y-37.433
X113.157Y-56.483
X113.157Y-75.533
X113.157Y-94.583
X113.157Y-113.633
X122.047Y-37.433
X122.047Y-56.483
X122.047Y-75.533
X122.047Y-94.583
X122.047Y-113.633
X132.207Y-37.433
X132.207Y-56.483
X132.207Y-75.533
X132.207Y-94.583
X132.207Y-113.633
T2
X48.387Y-42.513
X48.387Y-61.563
X48.387Y-80.613
X48.387Y-99.663
X48.387Y-118.713
X54.737Y-39.973
X54.737Y-59.023
X54.737Y-78.073
X54.737Y-97.123
X54.737Y-116.173
X67.437Y-42.513
X67.437Y-61.563
X67.437Y-80.613
X67.437Y-99.663
X67.437Y-118.713
X73.787Y-39.973
X73.787Y-59.023
X73.787Y-78.073
X73.787Y-97.123
X73.787Y-116.173
X86.487Y-42.513
X86.487Y-61.563
X86.487Y-80.613
X86.487Y-99.663
X86.487Y-118.713
X92.837Y-39.973
X92.837Y-59.023
X92.837Y-78.073
X92.837Y-97.123
X92.837Y-116.173
X105.537Y-42.513
X105.537Y-61.563
X105.537Y-80.613
X105.537Y-99.663
X105.537Y-118.713
X111.887Y-39.973
X111.887Y-59.023
X111.887Y-78.073
X111.887Y-97.123
X111.887Y-116.173
X124.587Y-42.513
X124.587Y-61.563
X124.587Y-80.613
X124.587Y-99.663
X124.587Y-118.713
X130.937Y-39.973
X130.937Y-59.023
X130.937Y-78.073
X130.937Y-97.123
X130.937Y-116.173
T3
X50.927Y-37.433
X50.927Y-56.483
X50.927Y-75.533
X50.927Y-94.583
X50.927Y-113.633
X69.977Y-37.433
X69.977Y-56.483
X69.977Y-75.533
X69.977Y-94.583
X69.977Y-113.633
X89.027Y-37.433
X89.027Y-56.483
X89.027Y-75.533
X89.027Y-94.583
X89.027Y-113.633
X108.077Y-37.433
X108.077Y-56.483
X108.077Y-75.533
X108.077Y-94.583
X108.077Y-113.633
X127.127Y-37.433
X127.127Y-56.483
X127.127Y-75.533
X127.127Y-94.583
X127.127Y-113.633
T0
M30
