%TF.GenerationSoftware,KiCad,Pcbnew,(6.0.0-0)*%
%TF.CreationDate,2022-01-08T22:40:35+00:00*%
%TF.ProjectId,Sarcodina,53617263-6f64-4696-9e61-2e6b69636164,rev?*%
%TF.SameCoordinates,Original*%
%TF.FileFunction,Profile,NP*%
%FSLAX46Y46*%
G04 Gerber Fmt 4.6, Leading zero omitted, Abs format (unit mm)*
G04 Created by KiCad (PCBNEW (6.0.0-0)) date 2022-01-08 22:40:35*
%MOMM*%
%LPD*%
G01*
G04 APERTURE LIST*
%TA.AperFunction,Profile*%
%ADD10C,0.100000*%
%TD*%
%TA.AperFunction,Profile*%
%ADD11C,0.120000*%
%TD*%
G04 APERTURE END LIST*
D10*
X42037000Y-88106250D02*
X42037000Y-102711250D01*
X59055000Y-122523250D02*
G75*
G03*
X59817000Y-121761250I33357J728643D01*
G01*
X101600000Y-65373250D02*
X99949000Y-65373250D01*
X65024000Y-85693250D02*
X74930000Y-85693250D01*
X42037000Y-41370250D02*
X42037000Y-39846250D01*
X113030000Y-84423250D02*
X103124000Y-84423250D01*
X80137000Y-41370250D02*
X80137000Y-45561250D01*
X122174000Y-66643250D02*
X132080000Y-66643250D01*
X59817000Y-86455250D02*
X59817000Y-88106250D01*
X42037000Y-41370250D02*
X42037000Y-45561250D01*
X45974000Y-47593250D02*
X55880000Y-47593250D01*
X80137000Y-70580250D02*
X78867000Y-70580250D01*
X97155000Y-103473250D02*
X95504000Y-103473250D01*
X61087000Y-117570250D02*
X61087000Y-121761250D01*
X42037000Y-69056250D02*
X42037000Y-83661250D01*
X61087000Y-60420250D02*
X61087000Y-64611250D01*
X44450000Y-84423250D02*
X42799000Y-84423250D01*
X93980000Y-84423250D02*
X84074000Y-84423250D01*
X135255000Y-65373250D02*
G75*
G03*
X136017000Y-64611250I33357J728643D01*
G01*
X118237000Y-51530250D02*
X118237000Y-58896250D01*
X136017000Y-29305250D02*
X136017000Y-45561250D01*
X116205000Y-46323250D02*
X114554000Y-46323250D01*
X74930000Y-65373250D02*
X65024000Y-65373250D01*
X97155000Y-103473250D02*
G75*
G03*
X97917000Y-102711250I33357J728643D01*
G01*
X97917000Y-117570250D02*
X97917000Y-121761250D01*
X80899000Y-85693250D02*
X82550000Y-85693250D01*
X116205000Y-46323250D02*
G75*
G03*
X116967000Y-45561250I33357J728643D01*
G01*
X118237000Y-48355250D02*
X118237000Y-50006250D01*
X99187000Y-64611250D02*
G75*
G03*
X99949000Y-65373250I728643J-33357D01*
G01*
X61087000Y-117570250D02*
X59817000Y-117570250D01*
X118237000Y-121761250D02*
G75*
G03*
X118999000Y-122523250I728643J-33357D01*
G01*
X61087000Y-83661250D02*
G75*
G03*
X61849000Y-84423250I728643J-33357D01*
G01*
X118237000Y-117570250D02*
X118237000Y-121761250D01*
X99187000Y-32480250D02*
X99187000Y-39846250D01*
X78867000Y-67405250D02*
X78867000Y-69056250D01*
X135255000Y-84423250D02*
X133604000Y-84423250D01*
X59817000Y-29305250D02*
G75*
G03*
X59055000Y-28543250I-728643J33357D01*
G01*
X118999000Y-47593250D02*
G75*
G03*
X118237000Y-48355250I-33357J-728643D01*
G01*
X97917000Y-51530250D02*
X97917000Y-58896250D01*
X118237000Y-89630250D02*
X118237000Y-96996250D01*
X135255000Y-103473250D02*
X133604000Y-103473250D01*
X97917000Y-79470250D02*
X97917000Y-83661250D01*
X95504000Y-47593250D02*
X97155000Y-47593250D01*
X97917000Y-29305250D02*
X97917000Y-30956250D01*
X116205000Y-122523250D02*
X99949000Y-122523250D01*
X61849000Y-85693250D02*
G75*
G03*
X61087000Y-86455250I-33357J-728643D01*
G01*
X116967000Y-79470250D02*
X116967000Y-83661250D01*
X59817000Y-98520250D02*
X59817000Y-102711250D01*
X101600000Y-46323250D02*
X99949000Y-46323250D01*
X63500000Y-47593250D02*
X63500000Y-46323250D01*
X45974000Y-66643250D02*
X55880000Y-66643250D01*
X82550000Y-65373250D02*
X80899000Y-65373250D01*
X93980000Y-65373250D02*
X84074000Y-65373250D01*
X59817000Y-86455250D02*
G75*
G03*
X59055000Y-85693250I-728643J33357D01*
G01*
X80137000Y-96996250D02*
X78867000Y-96996250D01*
X116205000Y-84423250D02*
X114554000Y-84423250D01*
X57404000Y-104743250D02*
X59055000Y-104743250D01*
X120650000Y-46323250D02*
X118999000Y-46323250D01*
X118237000Y-70580250D02*
X118237000Y-77946250D01*
X61087000Y-45561250D02*
G75*
G03*
X61849000Y-46323250I728643J-33357D01*
G01*
X122174000Y-85693250D02*
X132080000Y-85693250D01*
X61087000Y-121761250D02*
G75*
G03*
X61849000Y-122523250I728643J-33357D01*
G01*
X82550000Y-46323250D02*
X80899000Y-46323250D01*
X61087000Y-41370250D02*
X61087000Y-45561250D01*
X74930000Y-103473250D02*
X65024000Y-103473250D01*
X97917000Y-48355250D02*
G75*
G03*
X97155000Y-47593250I-728643J33357D01*
G01*
X116967000Y-89630250D02*
X116967000Y-96996250D01*
X99187000Y-51530250D02*
X97917000Y-51530250D01*
X61087000Y-29305250D02*
X61087000Y-30956250D01*
X45974000Y-104743250D02*
X55880000Y-104743250D01*
X116967000Y-108680250D02*
X116967000Y-116046250D01*
X61849000Y-104743250D02*
X63500000Y-104743250D01*
X82550000Y-103473250D02*
X80899000Y-103473250D01*
X42799000Y-85693250D02*
X44450000Y-85693250D01*
X97917000Y-29305250D02*
G75*
G03*
X97155000Y-28543250I-728643J33357D01*
G01*
X78867000Y-41370250D02*
X78867000Y-45561250D01*
X120650000Y-65373250D02*
X118999000Y-65373250D01*
X57404000Y-104743250D02*
X57404000Y-103473250D01*
X136017000Y-29305250D02*
G75*
G03*
X135255000Y-28543250I-728643J33357D01*
G01*
X99949000Y-66643250D02*
G75*
G03*
X99187000Y-67405250I-33357J-728643D01*
G01*
X82550000Y-104743250D02*
X82550000Y-103473250D01*
X59055000Y-103473250D02*
G75*
G03*
X59817000Y-102711250I33357J728643D01*
G01*
X99187000Y-98520250D02*
X97917000Y-98520250D01*
X57404000Y-66643250D02*
X57404000Y-65373250D01*
X63500000Y-85693250D02*
X63500000Y-84423250D01*
X133604000Y-66643250D02*
X133604000Y-65373250D01*
X63500000Y-103473250D02*
X61849000Y-103473250D01*
X97155000Y-84423250D02*
G75*
G03*
X97917000Y-83661250I33357J728643D01*
G01*
X78867000Y-105505250D02*
G75*
G03*
X78105000Y-104743250I-728643J33357D01*
G01*
X61087000Y-108680250D02*
X61087000Y-116046250D01*
X61849000Y-47593250D02*
G75*
G03*
X61087000Y-48355250I-33357J-728643D01*
G01*
X74930000Y-84423250D02*
X65024000Y-84423250D01*
X118999000Y-28543250D02*
X135255000Y-28543250D01*
X42037000Y-107156250D02*
X42037000Y-121761250D01*
X63500000Y-104743250D02*
X63500000Y-103473250D01*
X99187000Y-105505250D02*
X99187000Y-107156250D01*
X95504000Y-66643250D02*
X97155000Y-66643250D01*
X61087000Y-32480250D02*
X59817000Y-32480250D01*
X42037000Y-30956250D02*
X42037000Y-32480250D01*
X59055000Y-103473250D02*
X57404000Y-103473250D01*
X118999000Y-104743250D02*
G75*
G03*
X118237000Y-105505250I-33357J-728643D01*
G01*
X59817000Y-70580250D02*
X59817000Y-77946250D01*
X61087000Y-30956250D02*
X59817000Y-30956250D01*
X42037000Y-50006250D02*
X42037000Y-64611250D01*
X116205000Y-103473250D02*
G75*
G03*
X116967000Y-102711250I33357J728643D01*
G01*
X55880000Y-84423250D02*
X45974000Y-84423250D01*
X116205000Y-122523250D02*
G75*
G03*
X116967000Y-121761250I33357J728643D01*
G01*
X99187000Y-89630250D02*
X99187000Y-96996250D01*
X61087000Y-116046250D02*
X59817000Y-116046250D01*
X97917000Y-98520250D02*
X97917000Y-102711250D01*
X122174000Y-47593250D02*
X132080000Y-47593250D01*
X133604000Y-66643250D02*
X135255000Y-66643250D01*
X42799000Y-47593250D02*
X44450000Y-47593250D01*
X116967000Y-117570250D02*
X116967000Y-121761250D01*
X80137000Y-121761250D02*
G75*
G03*
X80899000Y-122523250I728643J-33357D01*
G01*
X59817000Y-79470250D02*
X59817000Y-83661250D01*
X42799000Y-66643250D02*
X44450000Y-66643250D01*
X103124000Y-85693250D02*
X113030000Y-85693250D01*
X78867000Y-29305250D02*
G75*
G03*
X78105000Y-28543250I-728643J33357D01*
G01*
X78867000Y-108680250D02*
X78867000Y-116046250D01*
X114554000Y-104743250D02*
X114554000Y-103473250D01*
X59055000Y-65373250D02*
X57404000Y-65373250D01*
X42799000Y-28543250D02*
G75*
G03*
X42037000Y-29305250I-33357J-728643D01*
G01*
X99949000Y-28543250D02*
X116205000Y-28543250D01*
X116967000Y-67405250D02*
X116967000Y-69056250D01*
X93980000Y-47593250D02*
X93980000Y-46323250D01*
X118237000Y-50006250D02*
X116967000Y-50006250D01*
X118237000Y-83661250D02*
G75*
G03*
X118999000Y-84423250I728643J-33357D01*
G01*
X78867000Y-117570250D02*
X78867000Y-121761250D01*
X93980000Y-85693250D02*
X93980000Y-84423250D01*
X113030000Y-46323250D02*
X103124000Y-46323250D01*
X116967000Y-41370250D02*
X116967000Y-45561250D01*
X84074000Y-47593250D02*
X93980000Y-47593250D01*
X57404000Y-85693250D02*
X59055000Y-85693250D01*
X80137000Y-83661250D02*
G75*
G03*
X80899000Y-84423250I728643J-33357D01*
G01*
X136017000Y-67405250D02*
G75*
G03*
X135255000Y-66643250I-728643J33357D01*
G01*
X103124000Y-66643250D02*
X113030000Y-66643250D01*
X42037000Y-102711250D02*
G75*
G03*
X42799000Y-103473250I728643J-33357D01*
G01*
X44450000Y-46323250D02*
X42799000Y-46323250D01*
X132080000Y-46323250D02*
X122174000Y-46323250D01*
X59817000Y-67405250D02*
G75*
G03*
X59055000Y-66643250I-728643J33357D01*
G01*
X135255000Y-103473250D02*
G75*
G03*
X136017000Y-102711250I33357J728643D01*
G01*
X82550000Y-85693250D02*
X82550000Y-84423250D01*
X133604000Y-47593250D02*
X133604000Y-46323250D01*
X59055000Y-46323250D02*
X57404000Y-46323250D01*
X61849000Y-28543250D02*
X78105000Y-28543250D01*
X99187000Y-79470250D02*
X97917000Y-79470250D01*
X80899000Y-47593250D02*
X82550000Y-47593250D01*
X101600000Y-103473250D02*
X99949000Y-103473250D01*
X93980000Y-46323250D02*
X84074000Y-46323250D01*
X116967000Y-29305250D02*
G75*
G03*
X116205000Y-28543250I-728643J33357D01*
G01*
X63500000Y-46323250D02*
X61849000Y-46323250D01*
X136017000Y-105505250D02*
G75*
G03*
X135255000Y-104743250I-728643J33357D01*
G01*
X97917000Y-41370250D02*
X97917000Y-45561250D01*
X103124000Y-104743250D02*
X113030000Y-104743250D01*
X136017000Y-48355250D02*
G75*
G03*
X135255000Y-47593250I-728643J33357D01*
G01*
X120650000Y-47593250D02*
X120650000Y-46323250D01*
X116967000Y-51530250D02*
X116967000Y-58896250D01*
X42037000Y-64611250D02*
G75*
G03*
X42799000Y-65373250I728643J-33357D01*
G01*
X80899000Y-66643250D02*
X82550000Y-66643250D01*
X118237000Y-105505250D02*
X118237000Y-107156250D01*
X61087000Y-50006250D02*
X59817000Y-50006250D01*
X116967000Y-98520250D02*
X116967000Y-102711250D01*
X80137000Y-86455250D02*
X80137000Y-88106250D01*
X118237000Y-96996250D02*
X116967000Y-96996250D01*
X97917000Y-60420250D02*
X97917000Y-64611250D01*
X118999000Y-104743250D02*
X120650000Y-104743250D01*
X99187000Y-107156250D02*
X97917000Y-107156250D01*
X116967000Y-48355250D02*
G75*
G03*
X116205000Y-47593250I-728643J33357D01*
G01*
X97917000Y-105505250D02*
G75*
G03*
X97155000Y-104743250I-728643J33357D01*
G01*
X42037000Y-29305250D02*
X42037000Y-30956250D01*
X101600000Y-104743250D02*
X101600000Y-103473250D01*
X113030000Y-103473250D02*
X103124000Y-103473250D01*
X99949000Y-85693250D02*
X101600000Y-85693250D01*
X82550000Y-84423250D02*
X80899000Y-84423250D01*
X135255000Y-46323250D02*
X133604000Y-46323250D01*
X99187000Y-50006250D02*
X97917000Y-50006250D01*
X42037000Y-83661250D02*
G75*
G03*
X42799000Y-84423250I728643J-33357D01*
G01*
X78867000Y-98520250D02*
X78867000Y-102711250D01*
X59817000Y-29305250D02*
X59817000Y-30956250D01*
X135255000Y-65373250D02*
X133604000Y-65373250D01*
X61087000Y-96996250D02*
X59817000Y-96996250D01*
X59055000Y-122523250D02*
X42799000Y-122523250D01*
X97917000Y-86455250D02*
X97917000Y-88106250D01*
X61087000Y-88106250D02*
X59817000Y-88106250D01*
X78105000Y-84423250D02*
G75*
G03*
X78867000Y-83661250I33357J728643D01*
G01*
X80899000Y-28543250D02*
G75*
G03*
X80137000Y-29305250I-33357J-728643D01*
G01*
X45974000Y-66643250D02*
X45974000Y-65373250D01*
X118237000Y-60420250D02*
X118237000Y-64611250D01*
X44450000Y-65373250D02*
X42799000Y-65373250D01*
X76454000Y-66643250D02*
X78105000Y-66643250D01*
X80137000Y-108680250D02*
X80137000Y-116046250D01*
X57404000Y-47593250D02*
X57404000Y-46323250D01*
X113030000Y-66643250D02*
X113030000Y-65373250D01*
X65024000Y-104743250D02*
X74930000Y-104743250D01*
X80137000Y-116046250D02*
X78867000Y-116046250D01*
X97155000Y-65373250D02*
X95504000Y-65373250D01*
X61849000Y-28543250D02*
G75*
G03*
X61087000Y-29305250I-33357J-728643D01*
G01*
X44450000Y-104743250D02*
X44450000Y-103473250D01*
X80899000Y-104743250D02*
G75*
G03*
X80137000Y-105505250I-33357J-728643D01*
G01*
X63500000Y-65373250D02*
X61849000Y-65373250D01*
X80137000Y-51530250D02*
X80137000Y-58896250D01*
X61087000Y-107156250D02*
X59817000Y-107156250D01*
X42037000Y-45561250D02*
G75*
G03*
X42799000Y-46323250I728643J-33357D01*
G01*
X116205000Y-65373250D02*
X114554000Y-65373250D01*
X61087000Y-41370250D02*
X59817000Y-41370250D01*
X99187000Y-67405250D02*
X99187000Y-69056250D01*
X118237000Y-102711250D02*
G75*
G03*
X118999000Y-103473250I728643J-33357D01*
G01*
X132080000Y-84423250D02*
X122174000Y-84423250D01*
X133604000Y-85693250D02*
X133604000Y-84423250D01*
X42037000Y-86455250D02*
X42037000Y-88106250D01*
X80899000Y-28543250D02*
X97155000Y-28543250D01*
X78105000Y-65373250D02*
G75*
G03*
X78867000Y-64611250I33357J728643D01*
G01*
X61087000Y-58896250D02*
X59817000Y-58896250D01*
X59817000Y-105505250D02*
G75*
G03*
X59055000Y-104743250I-728643J33357D01*
G01*
X116967000Y-105505250D02*
G75*
G03*
X116205000Y-104743250I-728643J33357D01*
G01*
X61087000Y-67405250D02*
X61087000Y-69056250D01*
X82550000Y-66643250D02*
X82550000Y-65373250D01*
X78867000Y-48355250D02*
X78867000Y-50006250D01*
X61087000Y-64611250D02*
G75*
G03*
X61849000Y-65373250I728643J-33357D01*
G01*
X45974000Y-85693250D02*
X45974000Y-84423250D01*
X114554000Y-66643250D02*
X116205000Y-66643250D01*
X44450000Y-103473250D02*
X42799000Y-103473250D01*
X65024000Y-47593250D02*
X65024000Y-46323250D01*
X132080000Y-104743250D02*
X132080000Y-103473250D01*
X118237000Y-29305250D02*
X118237000Y-30956250D01*
X80137000Y-60420250D02*
X80137000Y-64611250D01*
X80137000Y-117570250D02*
X80137000Y-121761250D01*
X55880000Y-46323250D02*
X45974000Y-46323250D01*
X118237000Y-98520250D02*
X118237000Y-102711250D01*
X80137000Y-45561250D02*
G75*
G03*
X80899000Y-46323250I728643J-33357D01*
G01*
X84074000Y-104743250D02*
X84074000Y-103473250D01*
X78867000Y-29305250D02*
X78867000Y-30956250D01*
X61087000Y-77946250D02*
X59817000Y-77946250D01*
X132080000Y-85693250D02*
X132080000Y-84423250D01*
X133604000Y-47593250D02*
X135255000Y-47593250D01*
X59817000Y-41370250D02*
X59817000Y-45561250D01*
X61087000Y-69056250D02*
X59817000Y-69056250D01*
X42037000Y-67405250D02*
X42037000Y-69056250D01*
X55880000Y-65373250D02*
X45974000Y-65373250D01*
X57404000Y-47593250D02*
X59055000Y-47593250D01*
X118237000Y-116046250D02*
X116967000Y-116046250D01*
X97155000Y-122523250D02*
X80899000Y-122523250D01*
X80899000Y-104743250D02*
X82550000Y-104743250D01*
X118237000Y-70580250D02*
X116967000Y-70580250D01*
X97155000Y-46323250D02*
G75*
G03*
X97917000Y-45561250I33357J728643D01*
G01*
X84074000Y-85693250D02*
X84074000Y-84423250D01*
X45974000Y-47593250D02*
X45974000Y-46323250D01*
X61849000Y-104743250D02*
G75*
G03*
X61087000Y-105505250I-33357J-728643D01*
G01*
X80137000Y-79470250D02*
X80137000Y-83661250D01*
X97155000Y-65373250D02*
G75*
G03*
X97917000Y-64611250I33357J728643D01*
G01*
X65024000Y-85693250D02*
X65024000Y-84423250D01*
X99187000Y-116046250D02*
X97917000Y-116046250D01*
X78105000Y-103473250D02*
X76454000Y-103473250D01*
X63500000Y-66643250D02*
X63500000Y-65373250D01*
X80137000Y-69056250D02*
X78867000Y-69056250D01*
X65024000Y-47593250D02*
X74930000Y-47593250D01*
X114554000Y-104743250D02*
X116205000Y-104743250D01*
X80137000Y-102711250D02*
G75*
G03*
X80899000Y-103473250I728643J-33357D01*
G01*
X99187000Y-41370250D02*
X99187000Y-45561250D01*
X55880000Y-85693250D02*
X55880000Y-84423250D01*
X84074000Y-104743250D02*
X93980000Y-104743250D01*
X42037000Y-105505250D02*
X42037000Y-107156250D01*
X97155000Y-122523250D02*
G75*
G03*
X97917000Y-121761250I33357J728643D01*
G01*
X65024000Y-66643250D02*
X74930000Y-66643250D01*
X99187000Y-41370250D02*
X97917000Y-41370250D01*
X99187000Y-117570250D02*
X99187000Y-121761250D01*
X84074000Y-66643250D02*
X93980000Y-66643250D01*
X78867000Y-86455250D02*
X78867000Y-88106250D01*
X97917000Y-67405250D02*
X97917000Y-69056250D01*
X99949000Y-47593250D02*
G75*
G03*
X99187000Y-48355250I-33357J-728643D01*
G01*
X55880000Y-47593250D02*
X55880000Y-46323250D01*
X61087000Y-98520250D02*
X61087000Y-102711250D01*
X80137000Y-108680250D02*
X78867000Y-108680250D01*
X59817000Y-60420250D02*
X59817000Y-64611250D01*
X132080000Y-47593250D02*
X132080000Y-46323250D01*
X84074000Y-85693250D02*
X93980000Y-85693250D01*
X116967000Y-60420250D02*
X116967000Y-64611250D01*
X78105000Y-122523250D02*
X61849000Y-122523250D01*
X78867000Y-67405250D02*
G75*
G03*
X78105000Y-66643250I-728643J33357D01*
G01*
X59817000Y-48355250D02*
G75*
G03*
X59055000Y-47593250I-728643J33357D01*
G01*
X99187000Y-102711250D02*
G75*
G03*
X99949000Y-103473250I728643J-33357D01*
G01*
X78867000Y-86455250D02*
G75*
G03*
X78105000Y-85693250I-728643J33357D01*
G01*
X45974000Y-104743250D02*
X45974000Y-103473250D01*
X97917000Y-67405250D02*
G75*
G03*
X97155000Y-66643250I-728643J33357D01*
G01*
X132080000Y-65373250D02*
X122174000Y-65373250D01*
X97917000Y-86455250D02*
G75*
G03*
X97155000Y-85693250I-728643J33357D01*
G01*
X80899000Y-66643250D02*
G75*
G03*
X80137000Y-67405250I-33357J-728643D01*
G01*
X113030000Y-65373250D02*
X103124000Y-65373250D01*
X116967000Y-86455250D02*
X116967000Y-88106250D01*
X99187000Y-70580250D02*
X99187000Y-77946250D01*
X118237000Y-108680250D02*
X118237000Y-116046250D01*
X80899000Y-47593250D02*
G75*
G03*
X80137000Y-48355250I-33357J-728643D01*
G01*
X118237000Y-107156250D02*
X116967000Y-107156250D01*
X118237000Y-89630250D02*
X116967000Y-89630250D01*
X99187000Y-32480250D02*
X97917000Y-32480250D01*
X120650000Y-66643250D02*
X120650000Y-65373250D01*
X42799000Y-85693250D02*
G75*
G03*
X42037000Y-86455250I-33357J-728643D01*
G01*
X118237000Y-39846250D02*
X116967000Y-39846250D01*
X118237000Y-67405250D02*
X118237000Y-69056250D01*
X42799000Y-47593250D02*
G75*
G03*
X42037000Y-48355250I-33357J-728643D01*
G01*
X61849000Y-66643250D02*
G75*
G03*
X61087000Y-67405250I-33357J-728643D01*
G01*
X80137000Y-48355250D02*
X80137000Y-50006250D01*
X61087000Y-79470250D02*
X59817000Y-79470250D01*
X99949000Y-85693250D02*
G75*
G03*
X99187000Y-86455250I-33357J-728643D01*
G01*
X61849000Y-66643250D02*
X63500000Y-66643250D01*
X57404000Y-66643250D02*
X59055000Y-66643250D01*
X95504000Y-85693250D02*
X95504000Y-84423250D01*
X61087000Y-39846250D02*
X59817000Y-39846250D01*
X61849000Y-47593250D02*
X63500000Y-47593250D01*
X95504000Y-85693250D02*
X97155000Y-85693250D01*
X78867000Y-70580250D02*
X78867000Y-77946250D01*
X99187000Y-96996250D02*
X97917000Y-96996250D01*
X99187000Y-39846250D02*
X97917000Y-39846250D01*
X136017000Y-67405250D02*
X136017000Y-83661250D01*
X61087000Y-86455250D02*
X61087000Y-88106250D01*
X78105000Y-46323250D02*
X76454000Y-46323250D01*
X116967000Y-70580250D02*
X116967000Y-77946250D01*
X99949000Y-104743250D02*
G75*
G03*
X99187000Y-105505250I-33357J-728643D01*
G01*
X80137000Y-60420250D02*
X78867000Y-60420250D01*
X57404000Y-85693250D02*
X57404000Y-84423250D01*
X59055000Y-84423250D02*
X57404000Y-84423250D01*
X42799000Y-104743250D02*
G75*
G03*
X42037000Y-105505250I-33357J-728643D01*
G01*
X135255000Y-46323250D02*
G75*
G03*
X136017000Y-45561250I33357J728643D01*
G01*
X99949000Y-104743250D02*
X101600000Y-104743250D01*
X99187000Y-29305250D02*
X99187000Y-30956250D01*
X136017000Y-105505250D02*
X136017000Y-121761250D01*
X118237000Y-77946250D02*
X116967000Y-77946250D01*
X99187000Y-45561250D02*
G75*
G03*
X99949000Y-46323250I728643J-33357D01*
G01*
X74930000Y-85693250D02*
X74930000Y-84423250D01*
X116967000Y-29305250D02*
X116967000Y-30956250D01*
X84074000Y-66643250D02*
X84074000Y-65373250D01*
X59055000Y-84423250D02*
G75*
G03*
X59817000Y-83661250I33357J728643D01*
G01*
X97917000Y-70580250D02*
X97917000Y-77946250D01*
X118237000Y-64611250D02*
G75*
G03*
X118999000Y-65373250I728643J-33357D01*
G01*
X80137000Y-51530250D02*
X78867000Y-51530250D01*
X135255000Y-122523250D02*
G75*
G03*
X136017000Y-121761250I33357J728643D01*
G01*
X80137000Y-50006250D02*
X78867000Y-50006250D01*
X42037000Y-48355250D02*
X42037000Y-50006250D01*
X78105000Y-103473250D02*
G75*
G03*
X78867000Y-102711250I33357J728643D01*
G01*
X101600000Y-47593250D02*
X101600000Y-46323250D01*
X99949000Y-47593250D02*
X101600000Y-47593250D01*
X114554000Y-66643250D02*
X114554000Y-65373250D01*
X78867000Y-79470250D02*
X78867000Y-83661250D01*
X99187000Y-88106250D02*
X97917000Y-88106250D01*
X118237000Y-88106250D02*
X116967000Y-88106250D01*
X118237000Y-79470250D02*
X116967000Y-79470250D01*
X78105000Y-65373250D02*
X76454000Y-65373250D01*
X120650000Y-84423250D02*
X118999000Y-84423250D01*
X97917000Y-108680250D02*
X97917000Y-116046250D01*
X59817000Y-117570250D02*
X59817000Y-121761250D01*
X84074000Y-47593250D02*
X84074000Y-46323250D01*
X78105000Y-122523250D02*
G75*
G03*
X78867000Y-121761250I33357J728643D01*
G01*
X118237000Y-60420250D02*
X116967000Y-60420250D01*
X118999000Y-85693250D02*
G75*
G03*
X118237000Y-86455250I-33357J-728643D01*
G01*
X74930000Y-46323250D02*
X65024000Y-46323250D01*
X76454000Y-85693250D02*
X78105000Y-85693250D01*
X118237000Y-108680250D02*
X116967000Y-108680250D01*
X45974000Y-85693250D02*
X55880000Y-85693250D01*
X76454000Y-47593250D02*
X78105000Y-47593250D01*
X101600000Y-85693250D02*
X101600000Y-84423250D01*
X80137000Y-105505250D02*
X80137000Y-107156250D01*
X44450000Y-85693250D02*
X44450000Y-84423250D01*
X95504000Y-47593250D02*
X95504000Y-46323250D01*
X118237000Y-41370250D02*
X118237000Y-45561250D01*
X59817000Y-89630250D02*
X59817000Y-96996250D01*
X61087000Y-48355250D02*
X61087000Y-50006250D01*
X65024000Y-66643250D02*
X65024000Y-65373250D01*
X80899000Y-85693250D02*
G75*
G03*
X80137000Y-86455250I-33357J-728643D01*
G01*
X95504000Y-104743250D02*
X95504000Y-103473250D01*
X80137000Y-88106250D02*
X78867000Y-88106250D01*
X103124000Y-104743250D02*
X103124000Y-103473250D01*
X59817000Y-51530250D02*
X59817000Y-58896250D01*
X113030000Y-85693250D02*
X113030000Y-84423250D01*
X99187000Y-70580250D02*
X97917000Y-70580250D01*
X42799000Y-28543250D02*
X59055000Y-28543250D01*
X44450000Y-66643250D02*
X44450000Y-65373250D01*
X116205000Y-84423250D02*
G75*
G03*
X116967000Y-83661250I33357J728643D01*
G01*
X97155000Y-46323250D02*
X95504000Y-46323250D01*
X65024000Y-104743250D02*
X65024000Y-103473250D01*
X118237000Y-41370250D02*
X116967000Y-41370250D01*
X80137000Y-89630250D02*
X78867000Y-89630250D01*
X55880000Y-66643250D02*
X55880000Y-65373250D01*
X61849000Y-85693250D02*
X63500000Y-85693250D01*
X118999000Y-85693250D02*
X120650000Y-85693250D01*
X135255000Y-84423250D02*
G75*
G03*
X136017000Y-83661250I33357J728643D01*
G01*
X118237000Y-86455250D02*
X118237000Y-88106250D01*
X80137000Y-70580250D02*
X80137000Y-77946250D01*
X133604000Y-85693250D02*
X135255000Y-85693250D01*
X80137000Y-89630250D02*
X80137000Y-96996250D01*
X55880000Y-103473250D02*
X45974000Y-103473250D01*
X114554000Y-85693250D02*
X116205000Y-85693250D01*
X97917000Y-105505250D02*
X97917000Y-107156250D01*
X120650000Y-104743250D02*
X120650000Y-103473250D01*
X99187000Y-69056250D02*
X97917000Y-69056250D01*
X99187000Y-108680250D02*
X97917000Y-108680250D01*
X99187000Y-89630250D02*
X97917000Y-89630250D01*
X118237000Y-51530250D02*
X116967000Y-51530250D01*
X93980000Y-103473250D02*
X84074000Y-103473250D01*
X103124000Y-47593250D02*
X103124000Y-46323250D01*
X103124000Y-66643250D02*
X103124000Y-65373250D01*
X59055000Y-65373250D02*
G75*
G03*
X59817000Y-64611250I33357J728643D01*
G01*
X118237000Y-98520250D02*
X116967000Y-98520250D01*
X93980000Y-104743250D02*
X93980000Y-103473250D01*
X116967000Y-86455250D02*
G75*
G03*
X116205000Y-85693250I-728643J33357D01*
G01*
X99187000Y-121761250D02*
G75*
G03*
X99949000Y-122523250I728643J-33357D01*
G01*
X118237000Y-45561250D02*
G75*
G03*
X118999000Y-46323250I728643J-33357D01*
G01*
X122174000Y-104743250D02*
X132080000Y-104743250D01*
X99187000Y-86455250D02*
X99187000Y-88106250D01*
X44450000Y-47593250D02*
X44450000Y-46323250D01*
X61087000Y-32480250D02*
X61087000Y-39846250D01*
X114554000Y-47593250D02*
X114554000Y-46323250D01*
X80137000Y-32480250D02*
X78867000Y-32480250D01*
X116967000Y-32480250D02*
X116967000Y-39846250D01*
X122174000Y-85693250D02*
X122174000Y-84423250D01*
X136017000Y-86455250D02*
X136017000Y-102711250D01*
X80137000Y-67405250D02*
X80137000Y-69056250D01*
X136017000Y-48355250D02*
X136017000Y-64611250D01*
X132080000Y-66643250D02*
X132080000Y-65373250D01*
X99187000Y-60420250D02*
X99187000Y-64611250D01*
X63500000Y-84423250D02*
X61849000Y-84423250D01*
X118237000Y-32480250D02*
X118237000Y-39846250D01*
X74930000Y-66643250D02*
X74930000Y-65373250D01*
X118999000Y-66643250D02*
X120650000Y-66643250D01*
X99187000Y-77946250D02*
X97917000Y-77946250D01*
X78867000Y-48355250D02*
G75*
G03*
X78105000Y-47593250I-728643J33357D01*
G01*
X99949000Y-66643250D02*
X101600000Y-66643250D01*
X76454000Y-85693250D02*
X76454000Y-84423250D01*
X99949000Y-28543250D02*
G75*
G03*
X99187000Y-29305250I-33357J-728643D01*
G01*
X80137000Y-58896250D02*
X78867000Y-58896250D01*
X114554000Y-85693250D02*
X114554000Y-84423250D01*
X120650000Y-103473250D02*
X118999000Y-103473250D01*
X78105000Y-46323250D02*
G75*
G03*
X78867000Y-45561250I33357J728643D01*
G01*
X132080000Y-103473250D02*
X122174000Y-103473250D01*
X61087000Y-108680250D02*
X59817000Y-108680250D01*
X80137000Y-30956250D02*
X78867000Y-30956250D01*
X78867000Y-51530250D02*
X78867000Y-58896250D01*
X80137000Y-64611250D02*
G75*
G03*
X80899000Y-65373250I728643J-33357D01*
G01*
X82550000Y-47593250D02*
X82550000Y-46323250D01*
X80137000Y-32480250D02*
X80137000Y-39846250D01*
X116205000Y-65373250D02*
G75*
G03*
X116967000Y-64611250I33357J728643D01*
G01*
X59817000Y-32480250D02*
X59817000Y-39846250D01*
X78867000Y-32480250D02*
X78867000Y-39846250D01*
X122174000Y-104743250D02*
X122174000Y-103473250D01*
X135255000Y-122523250D02*
X118999000Y-122523250D01*
X76454000Y-66643250D02*
X76454000Y-65373250D01*
X42799000Y-66643250D02*
G75*
G03*
X42037000Y-67405250I-33357J-728643D01*
G01*
X99187000Y-79470250D02*
X99187000Y-83661250D01*
X99187000Y-51530250D02*
X99187000Y-58896250D01*
X133604000Y-104743250D02*
X135255000Y-104743250D01*
X80137000Y-107156250D02*
X78867000Y-107156250D01*
X118237000Y-69056250D02*
X116967000Y-69056250D01*
X61087000Y-89630250D02*
X59817000Y-89630250D01*
X61087000Y-70580250D02*
X59817000Y-70580250D01*
X80137000Y-79470250D02*
X78867000Y-79470250D01*
X103124000Y-85693250D02*
X103124000Y-84423250D01*
X122174000Y-47593250D02*
X122174000Y-46323250D01*
X118237000Y-117570250D02*
X116967000Y-117570250D01*
X101600000Y-84423250D02*
X99949000Y-84423250D01*
X80137000Y-98520250D02*
X80137000Y-102711250D01*
X78867000Y-89630250D02*
X78867000Y-96996250D01*
X116967000Y-48355250D02*
X116967000Y-50006250D01*
X80137000Y-98520250D02*
X78867000Y-98520250D01*
X76454000Y-47593250D02*
X76454000Y-46323250D01*
X78867000Y-60420250D02*
X78867000Y-64611250D01*
X61087000Y-60420250D02*
X59817000Y-60420250D01*
X59817000Y-67405250D02*
X59817000Y-69056250D01*
X78867000Y-105505250D02*
X78867000Y-107156250D01*
X120650000Y-85693250D02*
X120650000Y-84423250D01*
X116967000Y-105505250D02*
X116967000Y-107156250D01*
X61087000Y-105505250D02*
X61087000Y-107156250D01*
X116205000Y-103473250D02*
X114554000Y-103473250D01*
X74930000Y-104743250D02*
X74930000Y-103473250D01*
X118999000Y-66643250D02*
G75*
G03*
X118237000Y-67405250I-33357J-728643D01*
G01*
X99187000Y-83661250D02*
G75*
G03*
X99949000Y-84423250I728643J-33357D01*
G01*
X97155000Y-84423250D02*
X95504000Y-84423250D01*
X61087000Y-89630250D02*
X61087000Y-96996250D01*
X95504000Y-66643250D02*
X95504000Y-65373250D01*
X99187000Y-58896250D02*
X97917000Y-58896250D01*
X99187000Y-98520250D02*
X99187000Y-102711250D01*
X133604000Y-104743250D02*
X133604000Y-103473250D01*
X61087000Y-79470250D02*
X61087000Y-83661250D01*
X95504000Y-104743250D02*
X97155000Y-104743250D01*
X76454000Y-104743250D02*
X76454000Y-103473250D01*
X113030000Y-104743250D02*
X113030000Y-103473250D01*
X59817000Y-48355250D02*
X59817000Y-50006250D01*
X76454000Y-104743250D02*
X78105000Y-104743250D01*
X97917000Y-32480250D02*
X97917000Y-39846250D01*
X99187000Y-30956250D02*
X97917000Y-30956250D01*
X97917000Y-89630250D02*
X97917000Y-96996250D01*
X61087000Y-51530250D02*
X59817000Y-51530250D01*
X80137000Y-39846250D02*
X78867000Y-39846250D01*
X118999000Y-28543250D02*
G75*
G03*
X118237000Y-29305250I-33357J-728643D01*
G01*
X74930000Y-47593250D02*
X74930000Y-46323250D01*
X55880000Y-104743250D02*
X55880000Y-103473250D01*
X80137000Y-41370250D02*
X78867000Y-41370250D01*
X116967000Y-67405250D02*
G75*
G03*
X116205000Y-66643250I-728643J33357D01*
G01*
X59055000Y-46323250D02*
G75*
G03*
X59817000Y-45561250I33357J728643D01*
G01*
X118999000Y-47593250D02*
X120650000Y-47593250D01*
X99187000Y-108680250D02*
X99187000Y-116046250D01*
X61087000Y-51530250D02*
X61087000Y-58896250D01*
X118237000Y-32480250D02*
X116967000Y-32480250D01*
X80137000Y-29305250D02*
X80137000Y-30956250D01*
X118237000Y-30956250D02*
X116967000Y-30956250D01*
X80137000Y-77946250D02*
X78867000Y-77946250D01*
X118237000Y-79470250D02*
X118237000Y-83661250D01*
X99187000Y-60420250D02*
X97917000Y-60420250D01*
X42799000Y-104743250D02*
X44450000Y-104743250D01*
X103124000Y-47593250D02*
X113030000Y-47593250D01*
X93980000Y-66643250D02*
X93980000Y-65373250D01*
X122174000Y-66643250D02*
X122174000Y-65373250D01*
X42037000Y-32480250D02*
X42037000Y-39846250D01*
X101600000Y-66643250D02*
X101600000Y-65373250D01*
X136017000Y-86455250D02*
G75*
G03*
X135255000Y-85693250I-728643J33357D01*
G01*
X99187000Y-48355250D02*
X99187000Y-50006250D01*
X118237000Y-58896250D02*
X116967000Y-58896250D01*
X80137000Y-117570250D02*
X78867000Y-117570250D01*
X61087000Y-70580250D02*
X61087000Y-77946250D01*
X114554000Y-47593250D02*
X116205000Y-47593250D01*
X78105000Y-84423250D02*
X76454000Y-84423250D01*
X59817000Y-108680250D02*
X59817000Y-116046250D01*
X99187000Y-117570250D02*
X97917000Y-117570250D01*
X42037000Y-121761250D02*
G75*
G03*
X42799000Y-122523250I728643J-33357D01*
G01*
X61087000Y-102711250D02*
G75*
G03*
X61849000Y-103473250I728643J-33357D01*
G01*
X61087000Y-98520250D02*
X59817000Y-98520250D01*
X59817000Y-105505250D02*
X59817000Y-107156250D01*
X97917000Y-48355250D02*
X97917000Y-50006250D01*
X113030000Y-47593250D02*
X113030000Y-46323250D01*
X43068666Y-27908250D02*
G75*
G03*
X43068666Y-27908250I-1666666J0D01*
G01*
X38902000Y-27908250D02*
X43902000Y-27908250D01*
X41402000Y-25408250D02*
X41402000Y-30408250D01*
D11*
%TO.C,L1*%
X71677000Y-50411250D02*
X71677000Y-53411250D01*
X68277000Y-50411250D02*
X71677000Y-50411250D01*
X68277000Y-53411250D02*
X68277000Y-50411250D01*
X71677000Y-53411250D02*
X68277000Y-53411250D01*
X87327000Y-107561250D02*
X90727000Y-107561250D01*
X90727000Y-110561250D02*
X87327000Y-110561250D01*
X90727000Y-107561250D02*
X90727000Y-110561250D01*
X87327000Y-110561250D02*
X87327000Y-107561250D01*
X106377000Y-72461250D02*
X106377000Y-69461250D01*
X109777000Y-69461250D02*
X109777000Y-72461250D01*
X106377000Y-69461250D02*
X109777000Y-69461250D01*
X109777000Y-72461250D02*
X106377000Y-72461250D01*
X52627000Y-72461250D02*
X49227000Y-72461250D01*
X49227000Y-69461250D02*
X52627000Y-69461250D01*
X52627000Y-69461250D02*
X52627000Y-72461250D01*
X49227000Y-72461250D02*
X49227000Y-69461250D01*
X128827000Y-88511250D02*
X128827000Y-91511250D01*
X125427000Y-88511250D02*
X128827000Y-88511250D01*
X128827000Y-91511250D02*
X125427000Y-91511250D01*
X125427000Y-91511250D02*
X125427000Y-88511250D01*
X71677000Y-88511250D02*
X71677000Y-91511250D01*
X68277000Y-91511250D02*
X68277000Y-88511250D01*
X68277000Y-88511250D02*
X71677000Y-88511250D01*
X71677000Y-91511250D02*
X68277000Y-91511250D01*
X109777000Y-110561250D02*
X106377000Y-110561250D01*
X106377000Y-110561250D02*
X106377000Y-107561250D01*
X106377000Y-107561250D02*
X109777000Y-107561250D01*
X109777000Y-107561250D02*
X109777000Y-110561250D01*
X90727000Y-72461250D02*
X87327000Y-72461250D01*
X90727000Y-69461250D02*
X90727000Y-72461250D01*
X87327000Y-72461250D02*
X87327000Y-69461250D01*
X87327000Y-69461250D02*
X90727000Y-69461250D01*
X68277000Y-34361250D02*
X68277000Y-31361250D01*
X68277000Y-31361250D02*
X71677000Y-31361250D01*
X71677000Y-31361250D02*
X71677000Y-34361250D01*
X71677000Y-34361250D02*
X68277000Y-34361250D01*
X125427000Y-34361250D02*
X125427000Y-31361250D01*
X128827000Y-31361250D02*
X128827000Y-34361250D01*
X128827000Y-34361250D02*
X125427000Y-34361250D01*
X125427000Y-31361250D02*
X128827000Y-31361250D01*
X106377000Y-91511250D02*
X106377000Y-88511250D01*
X109777000Y-88511250D02*
X109777000Y-91511250D01*
X106377000Y-88511250D02*
X109777000Y-88511250D01*
X109777000Y-91511250D02*
X106377000Y-91511250D01*
X68277000Y-107561250D02*
X71677000Y-107561250D01*
X71677000Y-110561250D02*
X68277000Y-110561250D01*
X71677000Y-107561250D02*
X71677000Y-110561250D01*
X68277000Y-110561250D02*
X68277000Y-107561250D01*
X106377000Y-34361250D02*
X106377000Y-31361250D01*
X109777000Y-31361250D02*
X109777000Y-34361250D01*
X109777000Y-34361250D02*
X106377000Y-34361250D01*
X106377000Y-31361250D02*
X109777000Y-31361250D01*
X109777000Y-50411250D02*
X109777000Y-53411250D01*
X109777000Y-53411250D02*
X106377000Y-53411250D01*
X106377000Y-53411250D02*
X106377000Y-50411250D01*
X106377000Y-50411250D02*
X109777000Y-50411250D01*
X52627000Y-50411250D02*
X52627000Y-53411250D01*
X49227000Y-53411250D02*
X49227000Y-50411250D01*
X52627000Y-53411250D02*
X49227000Y-53411250D01*
X49227000Y-50411250D02*
X52627000Y-50411250D01*
X49227000Y-107561250D02*
X52627000Y-107561250D01*
X52627000Y-107561250D02*
X52627000Y-110561250D01*
X49227000Y-110561250D02*
X49227000Y-107561250D01*
X52627000Y-110561250D02*
X49227000Y-110561250D01*
X87327000Y-53411250D02*
X87327000Y-50411250D01*
X87327000Y-50411250D02*
X90727000Y-50411250D01*
X90727000Y-53411250D02*
X87327000Y-53411250D01*
X90727000Y-50411250D02*
X90727000Y-53411250D01*
X68277000Y-69461250D02*
X71677000Y-69461250D01*
X71677000Y-69461250D02*
X71677000Y-72461250D01*
X71677000Y-72461250D02*
X68277000Y-72461250D01*
X68277000Y-72461250D02*
X68277000Y-69461250D01*
X125427000Y-110561250D02*
X125427000Y-107561250D01*
X128827000Y-110561250D02*
X125427000Y-110561250D01*
X128827000Y-107561250D02*
X128827000Y-110561250D01*
X125427000Y-107561250D02*
X128827000Y-107561250D01*
X49227000Y-88511250D02*
X52627000Y-88511250D01*
X49227000Y-91511250D02*
X49227000Y-88511250D01*
X52627000Y-91511250D02*
X49227000Y-91511250D01*
X52627000Y-88511250D02*
X52627000Y-91511250D01*
X87327000Y-34361250D02*
X87327000Y-31361250D01*
X87327000Y-31361250D02*
X90727000Y-31361250D01*
X90727000Y-34361250D02*
X87327000Y-34361250D01*
X90727000Y-31361250D02*
X90727000Y-34361250D01*
X128827000Y-69461250D02*
X128827000Y-72461250D01*
X125427000Y-72461250D02*
X125427000Y-69461250D01*
X125427000Y-69461250D02*
X128827000Y-69461250D01*
X128827000Y-72461250D02*
X125427000Y-72461250D01*
X49227000Y-34361250D02*
X49227000Y-31361250D01*
X52627000Y-31361250D02*
X52627000Y-34361250D01*
X49227000Y-31361250D02*
X52627000Y-31361250D01*
X52627000Y-34361250D02*
X49227000Y-34361250D01*
X90727000Y-88511250D02*
X90727000Y-91511250D01*
X87327000Y-91511250D02*
X87327000Y-88511250D01*
X90727000Y-91511250D02*
X87327000Y-91511250D01*
X87327000Y-88511250D02*
X90727000Y-88511250D01*
X125427000Y-53411250D02*
X125427000Y-50411250D01*
X128827000Y-50411250D02*
X128827000Y-53411250D01*
X128827000Y-53411250D02*
X125427000Y-53411250D01*
X125427000Y-50411250D02*
X128827000Y-50411250D01*
%TD*%
M02*
