M48
; DRILL file {KiCad (6.0.0-0)} date Saturday, January 01, 2022 at 10:49:54 AM
; FORMAT={-:-/ absolute / metric / decimal}
; #@! TF.CreationDate,2022-01-01T10:49:54+00:00
; #@! TF.GenerationSoftware,Kicad,Pcbnew,(6.0.0-0)
; #@! TF.FileFunction,Plated,1,2,PTH
FMAT,2
METRIC
; #@! TA.AperFunction,Plated,PTH,ViaDrill
T1C0.400
; #@! TA.AperFunction,Plated,PTH,ComponentDrill
T2C0.800
; #@! TA.AperFunction,Plated,PTH,ComponentDrill
T3C0.813
%
G90
G05
T1
X52.705Y-40.513
X52.705Y-59.563
X52.705Y-78.613
X52.705Y-97.663
X52.705Y-116.713
X56.769Y-33.655
X56.769Y-52.705
X56.769Y-71.755
X56.769Y-90.805
X56.769Y-109.855
X57.952Y-29.606
X57.952Y-31.115
X57.952Y-48.656
X57.952Y-50.165
X57.952Y-67.706
X57.952Y-69.215
X57.952Y-86.756
X57.952Y-88.265
X57.952Y-105.806
X57.952Y-107.315
X62.952Y-29.591
X62.952Y-31.115
X62.952Y-48.641
X62.952Y-50.165
X62.952Y-67.691
X62.952Y-69.215
X62.952Y-86.741
X62.952Y-88.265
X62.952Y-105.791
X62.952Y-107.315
X63.627Y-33.401
X63.627Y-52.451
X63.627Y-71.501
X63.627Y-90.551
X63.627Y-109.601
X64.643Y-40.894
X64.643Y-59.944
X64.643Y-78.994
X64.643Y-98.044
X64.643Y-117.094
X66.04Y-30.353
X66.04Y-49.403
X66.04Y-68.453
X66.04Y-87.503
X66.04Y-106.553
X67.056Y-39.243
X67.056Y-58.293
X67.056Y-77.343
X67.056Y-96.393
X67.056Y-115.443
X68.326Y-28.575
X68.326Y-47.625
X68.326Y-66.675
X68.326Y-85.725
X68.326Y-104.775
X71.755Y-40.513
X71.755Y-59.563
X71.755Y-78.613
X71.755Y-97.663
X71.755Y-116.713
X75.819Y-33.655
X75.819Y-52.705
X75.819Y-71.755
X75.819Y-90.805
X75.819Y-109.855
X77.002Y-29.606
X77.002Y-31.115
X77.002Y-48.656
X77.002Y-50.165
X77.002Y-67.706
X77.002Y-69.215
X77.002Y-86.756
X77.002Y-88.265
X77.002Y-105.806
X77.002Y-107.315
X82.002Y-29.591
X82.002Y-31.115
X82.002Y-48.641
X82.002Y-50.165
X82.002Y-67.691
X82.002Y-69.215
X82.002Y-86.741
X82.002Y-88.265
X82.002Y-105.791
X82.002Y-107.315
X82.677Y-33.401
X82.677Y-52.451
X82.677Y-71.501
X82.677Y-90.551
X82.677Y-109.601
X83.693Y-40.894
X83.693Y-59.944
X83.693Y-78.994
X83.693Y-98.044
X83.693Y-117.094
X85.09Y-30.353
X85.09Y-49.403
X85.09Y-68.453
X85.09Y-87.503
X85.09Y-106.553
X86.106Y-39.243
X86.106Y-58.293
X86.106Y-77.343
X86.106Y-96.393
X86.106Y-115.443
X87.376Y-28.575
X87.376Y-47.625
X87.376Y-66.675
X87.376Y-85.725
X87.376Y-104.775
X90.805Y-40.513
X90.805Y-59.563
X90.805Y-78.613
X90.805Y-97.663
X90.805Y-116.713
X94.869Y-33.655
X94.869Y-52.705
X94.869Y-71.755
X94.869Y-90.805
X94.869Y-109.855
X96.052Y-29.606
X96.052Y-31.115
X96.052Y-48.656
X96.052Y-50.165
X96.052Y-67.706
X96.052Y-69.215
X96.052Y-86.756
X96.052Y-88.265
X96.052Y-105.806
X96.052Y-107.315
X101.052Y-29.591
X101.052Y-31.115
X101.052Y-48.641
X101.052Y-50.165
X101.052Y-67.691
X101.052Y-69.215
X101.052Y-86.741
X101.052Y-88.265
X101.052Y-105.791
X101.052Y-107.315
X101.727Y-33.401
X101.727Y-52.451
X101.727Y-71.501
X101.727Y-90.551
X101.727Y-109.601
X102.743Y-40.894
X102.743Y-59.944
X102.743Y-78.994
X102.743Y-98.044
X102.743Y-117.094
X104.14Y-30.353
X104.14Y-49.403
X104.14Y-68.453
X104.14Y-87.503
X104.14Y-106.553
X105.156Y-39.243
X105.156Y-58.293
X105.156Y-77.343
X105.156Y-96.393
X105.156Y-115.443
X106.426Y-28.575
X106.426Y-47.625
X106.426Y-66.675
X106.426Y-85.725
X106.426Y-104.775
X109.855Y-40.513
X109.855Y-59.563
X109.855Y-78.613
X109.855Y-97.663
X109.855Y-116.713
X113.919Y-33.655
X113.919Y-52.705
X113.919Y-71.755
X113.919Y-90.805
X113.919Y-109.855
X115.102Y-29.606
X115.102Y-31.115
X115.102Y-48.656
X115.102Y-50.165
X115.102Y-67.706
X115.102Y-69.215
X115.102Y-86.756
X115.102Y-88.265
X115.102Y-105.806
X115.102Y-107.315
X120.102Y-29.591
X120.102Y-31.115
X120.102Y-48.641
X120.102Y-50.165
X120.102Y-67.691
X120.102Y-69.215
X120.102Y-86.741
X120.102Y-88.265
X120.102Y-105.791
X120.102Y-107.315
X120.777Y-33.401
X120.777Y-52.451
X120.777Y-71.501
X120.777Y-90.551
X120.777Y-109.601
X121.793Y-40.894
X121.793Y-59.944
X121.793Y-78.994
X121.793Y-98.044
X121.793Y-117.094
X123.19Y-30.353
X123.19Y-49.403
X123.19Y-68.453
X123.19Y-87.503
X123.19Y-106.553
X124.206Y-39.243
X124.206Y-58.293
X124.206Y-77.343
X124.206Y-96.393
X124.206Y-115.443
X125.476Y-28.575
X125.476Y-47.625
X125.476Y-66.675
X125.476Y-85.725
X125.476Y-104.775
X128.905Y-40.513
X128.905Y-59.563
X128.905Y-78.613
X128.905Y-97.663
X128.905Y-116.713
X132.969Y-33.655
X132.969Y-52.705
X132.969Y-71.755
X132.969Y-90.805
X132.969Y-109.855
X134.152Y-29.606
X134.152Y-31.115
X134.152Y-48.656
X134.152Y-50.165
X134.152Y-67.706
X134.152Y-69.215
X134.152Y-86.756
X134.152Y-88.265
X134.152Y-105.806
X134.152Y-107.315
X139.152Y-29.591
X139.152Y-31.115
X139.152Y-48.641
X139.152Y-50.165
X139.152Y-67.691
X139.152Y-69.215
X139.152Y-86.741
X139.152Y-88.265
X139.152Y-105.791
X139.152Y-107.315
X139.827Y-33.401
X139.827Y-52.451
X139.827Y-71.501
X139.827Y-90.551
X139.827Y-109.601
X140.843Y-40.894
X140.843Y-59.944
X140.843Y-78.994
X140.843Y-98.044
X140.843Y-117.094
T2
X55.626Y-42.799
X55.626Y-61.849
X55.626Y-80.899
X55.626Y-99.949
X55.626Y-118.999
X61.976Y-42.799
X61.976Y-61.849
X61.976Y-80.899
X61.976Y-99.949
X61.976Y-118.999
X74.676Y-42.799
X74.676Y-61.849
X74.676Y-80.899
X74.676Y-99.949
X74.676Y-118.999
X81.026Y-42.799
X81.026Y-61.849
X81.026Y-80.899
X81.026Y-99.949
X81.026Y-118.999
X93.726Y-42.799
X93.726Y-61.849
X93.726Y-80.899
X93.726Y-99.949
X93.726Y-118.999
X100.076Y-42.799
X100.076Y-61.849
X100.076Y-80.899
X100.076Y-99.949
X100.076Y-118.999
X112.776Y-42.799
X112.776Y-61.849
X112.776Y-80.899
X112.776Y-99.949
X112.776Y-118.999
X119.126Y-42.799
X119.126Y-61.849
X119.126Y-80.899
X119.126Y-99.949
X119.126Y-118.999
X131.826Y-42.799
X131.826Y-61.849
X131.826Y-80.899
X131.826Y-99.949
X131.826Y-118.999
X138.176Y-42.799
X138.176Y-61.849
X138.176Y-80.899
X138.176Y-99.949
X138.176Y-118.999
T3
X52.578Y-27.178
X52.578Y-30.226
X52.578Y-35.433
X52.578Y-38.354
X52.578Y-42.926
X52.578Y-46.228
X52.578Y-49.276
X52.578Y-54.483
X52.578Y-57.404
X52.578Y-61.976
X52.578Y-65.278
X52.578Y-68.326
X52.578Y-73.533
X52.578Y-76.454
X52.578Y-81.026
X52.578Y-84.328
X52.578Y-87.376
X52.578Y-92.583
X52.578Y-95.504
X52.578Y-100.076
X52.578Y-103.378
X52.578Y-106.426
X52.578Y-111.633
X52.578Y-114.554
X52.578Y-119.126
X65.278Y-27.178
X65.278Y-42.926
X65.278Y-46.228
X65.278Y-61.976
X65.278Y-65.278
X65.278Y-81.026
X65.278Y-84.328
X65.278Y-100.076
X65.278Y-103.378
X65.278Y-119.126
X68.326Y-27.178
X68.326Y-30.226
X68.326Y-35.433
X68.326Y-39.878
X68.326Y-42.926
X68.326Y-46.228
X68.326Y-49.276
X68.326Y-54.483
X68.326Y-58.928
X68.326Y-61.976
X68.326Y-65.278
X68.326Y-68.326
X68.326Y-73.533
X68.326Y-77.978
X68.326Y-81.026
X68.326Y-84.328
X68.326Y-87.376
X68.326Y-92.583
X68.326Y-97.028
X68.326Y-100.076
X68.326Y-103.378
X68.326Y-106.426
X68.326Y-111.633
X68.326Y-116.078
X68.326Y-119.126
X71.628Y-27.178
X71.628Y-30.226
X71.628Y-35.433
X71.628Y-38.354
X71.628Y-42.926
X71.628Y-46.228
X71.628Y-49.276
X71.628Y-54.483
X71.628Y-57.404
X71.628Y-61.976
X71.628Y-65.278
X71.628Y-68.326
X71.628Y-73.533
X71.628Y-76.454
X71.628Y-81.026
X71.628Y-84.328
X71.628Y-87.376
X71.628Y-92.583
X71.628Y-95.504
X71.628Y-100.076
X71.628Y-103.378
X71.628Y-106.426
X71.628Y-111.633
X71.628Y-114.554
X71.628Y-119.126
X84.328Y-27.178
X84.328Y-42.926
X84.328Y-46.228
X84.328Y-61.976
X84.328Y-65.278
X84.328Y-81.026
X84.328Y-84.328
X84.328Y-100.076
X84.328Y-103.378
X84.328Y-119.126
X87.376Y-27.178
X87.376Y-30.226
X87.376Y-35.433
X87.376Y-39.878
X87.376Y-42.926
X87.376Y-46.228
X87.376Y-49.276
X87.376Y-54.483
X87.376Y-58.928
X87.376Y-61.976
X87.376Y-65.278
X87.376Y-68.326
X87.376Y-73.533
X87.376Y-77.978
X87.376Y-81.026
X87.376Y-84.328
X87.376Y-87.376
X87.376Y-92.583
X87.376Y-97.028
X87.376Y-100.076
X87.376Y-103.378
X87.376Y-106.426
X87.376Y-111.633
X87.376Y-116.078
X87.376Y-119.126
X90.678Y-27.178
X90.678Y-30.226
X90.678Y-35.433
X90.678Y-38.354
X90.678Y-42.926
X90.678Y-46.228
X90.678Y-49.276
X90.678Y-54.483
X90.678Y-57.404
X90.678Y-61.976
X90.678Y-65.278
X90.678Y-68.326
X90.678Y-73.533
X90.678Y-76.454
X90.678Y-81.026
X90.678Y-84.328
X90.678Y-87.376
X90.678Y-92.583
X90.678Y-95.504
X90.678Y-100.076
X90.678Y-103.378
X90.678Y-106.426
X90.678Y-111.633
X90.678Y-114.554
X90.678Y-119.126
X103.378Y-27.178
X103.378Y-42.926
X103.378Y-46.228
X103.378Y-61.976
X103.378Y-65.278
X103.378Y-81.026
X103.378Y-84.328
X103.378Y-100.076
X103.378Y-103.378
X103.378Y-119.126
X106.426Y-27.178
X106.426Y-30.226
X106.426Y-35.433
X106.426Y-39.878
X106.426Y-42.926
X106.426Y-46.228
X106.426Y-49.276
X106.426Y-54.483
X106.426Y-58.928
X106.426Y-61.976
X106.426Y-65.278
X106.426Y-68.326
X106.426Y-73.533
X106.426Y-77.978
X106.426Y-81.026
X106.426Y-84.328
X106.426Y-87.376
X106.426Y-92.583
X106.426Y-97.028
X106.426Y-100.076
X106.426Y-103.378
X106.426Y-106.426
X106.426Y-111.633
X106.426Y-116.078
X106.426Y-119.126
X109.728Y-27.178
X109.728Y-30.226
X109.728Y-35.433
X109.728Y-38.354
X109.728Y-42.926
X109.728Y-46.228
X109.728Y-49.276
X109.728Y-54.483
X109.728Y-57.404
X109.728Y-61.976
X109.728Y-65.278
X109.728Y-68.326
X109.728Y-73.533
X109.728Y-76.454
X109.728Y-81.026
X109.728Y-84.328
X109.728Y-87.376
X109.728Y-92.583
X109.728Y-95.504
X109.728Y-100.076
X109.728Y-103.378
X109.728Y-106.426
X109.728Y-111.633
X109.728Y-114.554
X109.728Y-119.126
X122.428Y-27.178
X122.428Y-42.926
X122.428Y-46.228
X122.428Y-61.976
X122.428Y-65.278
X122.428Y-81.026
X122.428Y-84.328
X122.428Y-100.076
X122.428Y-103.378
X122.428Y-119.126
X125.476Y-27.178
X125.476Y-30.226
X125.476Y-35.433
X125.476Y-39.878
X125.476Y-42.926
X125.476Y-46.228
X125.476Y-49.276
X125.476Y-54.483
X125.476Y-58.928
X125.476Y-61.976
X125.476Y-65.278
X125.476Y-68.326
X125.476Y-73.533
X125.476Y-77.978
X125.476Y-81.026
X125.476Y-84.328
X125.476Y-87.376
X125.476Y-92.583
X125.476Y-97.028
X125.476Y-100.076
X125.476Y-103.378
X125.476Y-106.426
X125.476Y-111.633
X125.476Y-116.078
X125.476Y-119.126
X128.778Y-27.178
X128.778Y-30.226
X128.778Y-35.433
X128.778Y-38.354
X128.778Y-42.926
X128.778Y-46.228
X128.778Y-49.276
X128.778Y-54.483
X128.778Y-57.404
X128.778Y-61.976
X128.778Y-65.278
X128.778Y-68.326
X128.778Y-73.533
X128.778Y-76.454
X128.778Y-81.026
X128.778Y-84.328
X128.778Y-87.376
X128.778Y-92.583
X128.778Y-95.504
X128.778Y-100.076
X128.778Y-103.378
X128.778Y-106.426
X128.778Y-111.633
X128.778Y-114.554
X128.778Y-119.126
X141.478Y-27.178
X141.478Y-42.926
X141.478Y-46.228
X141.478Y-61.976
X141.478Y-65.278
X141.478Y-81.026
X141.478Y-84.328
X141.478Y-100.076
X141.478Y-103.378
X141.478Y-119.126
X144.526Y-27.178
X144.526Y-30.226
X144.526Y-35.433
X144.526Y-39.878
X144.526Y-42.926
X144.526Y-46.228
X144.526Y-49.276
X144.526Y-54.483
X144.526Y-58.928
X144.526Y-61.976
X144.526Y-65.278
X144.526Y-68.326
X144.526Y-73.533
X144.526Y-77.978
X144.526Y-81.026
X144.526Y-84.328
X144.526Y-87.376
X144.526Y-92.583
X144.526Y-97.028
X144.526Y-100.076
X144.526Y-103.378
X144.526Y-106.426
X144.526Y-111.633
X144.526Y-116.078
X144.526Y-119.126
T0
M30
