%TF.GenerationSoftware,KiCad,Pcbnew,(6.0.0-0)*%
%TF.CreationDate,2022-01-01T10:49:50+00:00*%
%TF.ProjectId,Sarcodina,53617263-6f64-4696-9e61-2e6b69636164,rev?*%
%TF.SameCoordinates,Original*%
%TF.FileFunction,Legend,Top*%
%TF.FilePolarity,Positive*%
%FSLAX46Y46*%
G04 Gerber Fmt 4.6, Leading zero omitted, Abs format (unit mm)*
G04 Created by KiCad (PCBNEW (6.0.0-0)) date 2022-01-01 10:49:50*
%MOMM*%
%LPD*%
G01*
G04 APERTURE LIST*
%ADD10C,0.150000*%
%ADD11C,0.200000*%
%ADD12C,1.397000*%
%ADD13C,1.900000*%
%ADD14C,4.100000*%
%ADD15R,1.400000X1.400000*%
%ADD16C,1.400000*%
%ADD17C,3.000000*%
G04 APERTURE END LIST*
D10*
X143644904Y-60460000D02*
X143549666Y-60412380D01*
X143406809Y-60412380D01*
X143263952Y-60460000D01*
X143168714Y-60555238D01*
X143121095Y-60650476D01*
X143073476Y-60840952D01*
X143073476Y-60983809D01*
X143121095Y-61174285D01*
X143168714Y-61269523D01*
X143263952Y-61364761D01*
X143406809Y-61412380D01*
X143502047Y-61412380D01*
X143644904Y-61364761D01*
X143692523Y-61317142D01*
X143692523Y-60983809D01*
X143502047Y-60983809D01*
X102290523Y-65635142D02*
X102242904Y-65682761D01*
X102100047Y-65730380D01*
X102004809Y-65730380D01*
X101861952Y-65682761D01*
X101766714Y-65587523D01*
X101719095Y-65492285D01*
X101671476Y-65301809D01*
X101671476Y-65158952D01*
X101719095Y-64968476D01*
X101766714Y-64873238D01*
X101861952Y-64778000D01*
X102004809Y-64730380D01*
X102100047Y-64730380D01*
X102242904Y-64778000D01*
X102290523Y-64825619D01*
X129921047Y-46299428D02*
X130682952Y-46299428D01*
X130302000Y-46680380D02*
X130302000Y-45918476D01*
X129976523Y-34615380D02*
X129643190Y-34139190D01*
X129405095Y-34615380D02*
X129405095Y-33615380D01*
X129786047Y-33615380D01*
X129881285Y-33663000D01*
X129928904Y-33710619D01*
X129976523Y-33805857D01*
X129976523Y-33948714D01*
X129928904Y-34043952D01*
X129881285Y-34091571D01*
X129786047Y-34139190D01*
X129405095Y-34139190D01*
X86494904Y-41410000D02*
X86399666Y-41362380D01*
X86256809Y-41362380D01*
X86113952Y-41410000D01*
X86018714Y-41505238D01*
X85971095Y-41600476D01*
X85923476Y-41790952D01*
X85923476Y-41933809D01*
X85971095Y-42124285D01*
X86018714Y-42219523D01*
X86113952Y-42314761D01*
X86256809Y-42362380D01*
X86352047Y-42362380D01*
X86494904Y-42314761D01*
X86542523Y-42267142D01*
X86542523Y-41933809D01*
X86352047Y-41933809D01*
X102290523Y-103735142D02*
X102242904Y-103782761D01*
X102100047Y-103830380D01*
X102004809Y-103830380D01*
X101861952Y-103782761D01*
X101766714Y-103687523D01*
X101719095Y-103592285D01*
X101671476Y-103401809D01*
X101671476Y-103258952D01*
X101719095Y-103068476D01*
X101766714Y-102973238D01*
X101861952Y-102878000D01*
X102004809Y-102830380D01*
X102100047Y-102830380D01*
X102242904Y-102878000D01*
X102290523Y-102925619D01*
X86876000Y-76906380D02*
X86876000Y-75906380D01*
X87114095Y-75906380D01*
X87256952Y-75954000D01*
X87352190Y-76049238D01*
X87399809Y-76144476D01*
X87447428Y-76334952D01*
X87447428Y-76477809D01*
X87399809Y-76668285D01*
X87352190Y-76763523D01*
X87256952Y-76858761D01*
X87114095Y-76906380D01*
X86876000Y-76906380D01*
X87876000Y-76906380D02*
X87876000Y-75906380D01*
X121340523Y-27535142D02*
X121292904Y-27582761D01*
X121150047Y-27630380D01*
X121054809Y-27630380D01*
X120911952Y-27582761D01*
X120816714Y-27487523D01*
X120769095Y-27392285D01*
X120721476Y-27201809D01*
X120721476Y-27058952D01*
X120769095Y-26868476D01*
X120816714Y-26773238D01*
X120911952Y-26678000D01*
X121054809Y-26630380D01*
X121150047Y-26630380D01*
X121292904Y-26678000D01*
X121340523Y-26725619D01*
X140390523Y-119483142D02*
X140342904Y-119530761D01*
X140200047Y-119578380D01*
X140104809Y-119578380D01*
X139961952Y-119530761D01*
X139866714Y-119435523D01*
X139819095Y-119340285D01*
X139771476Y-119149809D01*
X139771476Y-119006952D01*
X139819095Y-118816476D01*
X139866714Y-118721238D01*
X139961952Y-118626000D01*
X140104809Y-118578380D01*
X140200047Y-118578380D01*
X140342904Y-118626000D01*
X140390523Y-118673619D01*
X72826523Y-91765380D02*
X72493190Y-91289190D01*
X72255095Y-91765380D02*
X72255095Y-90765380D01*
X72636047Y-90765380D01*
X72731285Y-90813000D01*
X72778904Y-90860619D01*
X72826523Y-90955857D01*
X72826523Y-91098714D01*
X72778904Y-91193952D01*
X72731285Y-91241571D01*
X72636047Y-91289190D01*
X72255095Y-91289190D01*
X105513285Y-70429380D02*
X105513285Y-69429380D01*
X105751380Y-69429380D01*
X105894238Y-69477000D01*
X105989476Y-69572238D01*
X106037095Y-69667476D01*
X106084714Y-69857952D01*
X106084714Y-70000809D01*
X106037095Y-70191285D01*
X105989476Y-70286523D01*
X105894238Y-70381761D01*
X105751380Y-70429380D01*
X105513285Y-70429380D01*
X106703761Y-69429380D02*
X106894238Y-69429380D01*
X106989476Y-69477000D01*
X107084714Y-69572238D01*
X107132333Y-69762714D01*
X107132333Y-70096047D01*
X107084714Y-70286523D01*
X106989476Y-70381761D01*
X106894238Y-70429380D01*
X106703761Y-70429380D01*
X106608523Y-70381761D01*
X106513285Y-70286523D01*
X106465666Y-70096047D01*
X106465666Y-69762714D01*
X106513285Y-69572238D01*
X106608523Y-69477000D01*
X106703761Y-69429380D01*
X105926000Y-115006380D02*
X105926000Y-114006380D01*
X106164095Y-114006380D01*
X106306952Y-114054000D01*
X106402190Y-114149238D01*
X106449809Y-114244476D01*
X106497428Y-114434952D01*
X106497428Y-114577809D01*
X106449809Y-114768285D01*
X106402190Y-114863523D01*
X106306952Y-114958761D01*
X106164095Y-115006380D01*
X105926000Y-115006380D01*
X106926000Y-115006380D02*
X106926000Y-114006380D01*
X72826523Y-72715380D02*
X72493190Y-72239190D01*
X72255095Y-72715380D02*
X72255095Y-71715380D01*
X72636047Y-71715380D01*
X72731285Y-71763000D01*
X72778904Y-71810619D01*
X72826523Y-71905857D01*
X72826523Y-72048714D01*
X72778904Y-72143952D01*
X72731285Y-72191571D01*
X72636047Y-72239190D01*
X72255095Y-72239190D01*
X124213904Y-45728000D02*
X124118666Y-45680380D01*
X123975809Y-45680380D01*
X123832952Y-45728000D01*
X123737714Y-45823238D01*
X123690095Y-45918476D01*
X123642476Y-46108952D01*
X123642476Y-46251809D01*
X123690095Y-46442285D01*
X123737714Y-46537523D01*
X123832952Y-46632761D01*
X123975809Y-46680380D01*
X124071047Y-46680380D01*
X124213904Y-46632761D01*
X124261523Y-46585142D01*
X124261523Y-46251809D01*
X124071047Y-46251809D01*
X110498000Y-108148380D02*
X110498000Y-107148380D01*
X110736095Y-107148380D01*
X110878952Y-107196000D01*
X110974190Y-107291238D01*
X111021809Y-107386476D01*
X111069428Y-107576952D01*
X111069428Y-107719809D01*
X111021809Y-107910285D01*
X110974190Y-108005523D01*
X110878952Y-108100761D01*
X110736095Y-108148380D01*
X110498000Y-108148380D01*
X111498000Y-108148380D02*
X111498000Y-107148380D01*
X86876000Y-115006380D02*
X86876000Y-114006380D01*
X87114095Y-114006380D01*
X87256952Y-114054000D01*
X87352190Y-114149238D01*
X87399809Y-114244476D01*
X87447428Y-114434952D01*
X87447428Y-114577809D01*
X87399809Y-114768285D01*
X87352190Y-114863523D01*
X87256952Y-114958761D01*
X87114095Y-115006380D01*
X86876000Y-115006380D01*
X87876000Y-115006380D02*
X87876000Y-114006380D01*
X143613285Y-51379380D02*
X143613285Y-50379380D01*
X143851380Y-50379380D01*
X143994238Y-50427000D01*
X144089476Y-50522238D01*
X144137095Y-50617476D01*
X144184714Y-50807952D01*
X144184714Y-50950809D01*
X144137095Y-51141285D01*
X144089476Y-51236523D01*
X143994238Y-51331761D01*
X143851380Y-51379380D01*
X143613285Y-51379380D01*
X144803761Y-50379380D02*
X144994238Y-50379380D01*
X145089476Y-50427000D01*
X145184714Y-50522238D01*
X145232333Y-50712714D01*
X145232333Y-51046047D01*
X145184714Y-51236523D01*
X145089476Y-51331761D01*
X144994238Y-51379380D01*
X144803761Y-51379380D01*
X144708523Y-51331761D01*
X144613285Y-51236523D01*
X144565666Y-51046047D01*
X144565666Y-50712714D01*
X144613285Y-50522238D01*
X144708523Y-50427000D01*
X144803761Y-50379380D01*
X124642523Y-53792380D02*
X124309190Y-53316190D01*
X124071095Y-53792380D02*
X124071095Y-52792380D01*
X124452047Y-52792380D01*
X124547285Y-52840000D01*
X124594904Y-52887619D01*
X124642523Y-52982857D01*
X124642523Y-53125714D01*
X124594904Y-53220952D01*
X124547285Y-53268571D01*
X124452047Y-53316190D01*
X124071095Y-53316190D01*
X67826000Y-76906380D02*
X67826000Y-75906380D01*
X68064095Y-75906380D01*
X68206952Y-75954000D01*
X68302190Y-76049238D01*
X68349809Y-76144476D01*
X68397428Y-76334952D01*
X68397428Y-76477809D01*
X68349809Y-76668285D01*
X68302190Y-76763523D01*
X68206952Y-76858761D01*
X68064095Y-76906380D01*
X67826000Y-76906380D01*
X68826000Y-76906380D02*
X68826000Y-75906380D01*
X86113904Y-26678000D02*
X86018666Y-26630380D01*
X85875809Y-26630380D01*
X85732952Y-26678000D01*
X85637714Y-26773238D01*
X85590095Y-26868476D01*
X85542476Y-27058952D01*
X85542476Y-27201809D01*
X85590095Y-27392285D01*
X85637714Y-27487523D01*
X85732952Y-27582761D01*
X85875809Y-27630380D01*
X85971047Y-27630380D01*
X86113904Y-27582761D01*
X86161523Y-27535142D01*
X86161523Y-27201809D01*
X85971047Y-27201809D01*
X105926000Y-95956380D02*
X105926000Y-94956380D01*
X106164095Y-94956380D01*
X106306952Y-95004000D01*
X106402190Y-95099238D01*
X106449809Y-95194476D01*
X106497428Y-95384952D01*
X106497428Y-95527809D01*
X106449809Y-95718285D01*
X106402190Y-95813523D01*
X106306952Y-95908761D01*
X106164095Y-95956380D01*
X105926000Y-95956380D01*
X106926000Y-95956380D02*
X106926000Y-94956380D01*
X143692523Y-110942380D02*
X143359190Y-110466190D01*
X143121095Y-110942380D02*
X143121095Y-109942380D01*
X143502047Y-109942380D01*
X143597285Y-109990000D01*
X143644904Y-110037619D01*
X143692523Y-110132857D01*
X143692523Y-110275714D01*
X143644904Y-110370952D01*
X143597285Y-110418571D01*
X143502047Y-110466190D01*
X143121095Y-110466190D01*
X91448000Y-70048380D02*
X91448000Y-69048380D01*
X91686095Y-69048380D01*
X91828952Y-69096000D01*
X91924190Y-69191238D01*
X91971809Y-69286476D01*
X92019428Y-69476952D01*
X92019428Y-69619809D01*
X91971809Y-69810285D01*
X91924190Y-69905523D01*
X91828952Y-70000761D01*
X91686095Y-70048380D01*
X91448000Y-70048380D01*
X92448000Y-70048380D02*
X92448000Y-69048380D01*
X53697285Y-76271380D02*
X53697285Y-75271380D01*
X53935380Y-75271380D01*
X54078238Y-75319000D01*
X54173476Y-75414238D01*
X54221095Y-75509476D01*
X54268714Y-75699952D01*
X54268714Y-75842809D01*
X54221095Y-76033285D01*
X54173476Y-76128523D01*
X54078238Y-76223761D01*
X53935380Y-76271380D01*
X53697285Y-76271380D01*
X54887761Y-75271380D02*
X55078238Y-75271380D01*
X55173476Y-75319000D01*
X55268714Y-75414238D01*
X55316333Y-75604714D01*
X55316333Y-75938047D01*
X55268714Y-76128523D01*
X55173476Y-76223761D01*
X55078238Y-76271380D01*
X54887761Y-76271380D01*
X54792523Y-76223761D01*
X54697285Y-76128523D01*
X54649666Y-75938047D01*
X54649666Y-75604714D01*
X54697285Y-75414238D01*
X54792523Y-75319000D01*
X54887761Y-75271380D01*
X72771047Y-46299428D02*
X73532952Y-46299428D01*
X73152000Y-46680380D02*
X73152000Y-45918476D01*
X91876523Y-72715380D02*
X91543190Y-72239190D01*
X91305095Y-72715380D02*
X91305095Y-71715380D01*
X91686047Y-71715380D01*
X91781285Y-71763000D01*
X91828904Y-71810619D01*
X91876523Y-71905857D01*
X91876523Y-72048714D01*
X91828904Y-72143952D01*
X91781285Y-72191571D01*
X91686047Y-72239190D01*
X91305095Y-72239190D01*
X72747285Y-38171380D02*
X72747285Y-37171380D01*
X72985380Y-37171380D01*
X73128238Y-37219000D01*
X73223476Y-37314238D01*
X73271095Y-37409476D01*
X73318714Y-37599952D01*
X73318714Y-37742809D01*
X73271095Y-37933285D01*
X73223476Y-38028523D01*
X73128238Y-38123761D01*
X72985380Y-38171380D01*
X72747285Y-38171380D01*
X73937761Y-37171380D02*
X74128238Y-37171380D01*
X74223476Y-37219000D01*
X74318714Y-37314238D01*
X74366333Y-37504714D01*
X74366333Y-37838047D01*
X74318714Y-38028523D01*
X74223476Y-38123761D01*
X74128238Y-38171380D01*
X73937761Y-38171380D01*
X73842523Y-38123761D01*
X73747285Y-38028523D01*
X73699666Y-37838047D01*
X73699666Y-37504714D01*
X73747285Y-37314238D01*
X73842523Y-37219000D01*
X73937761Y-37171380D01*
X91821047Y-84399428D02*
X92582952Y-84399428D01*
X92202000Y-84780380D02*
X92202000Y-84018476D01*
X67826000Y-95956380D02*
X67826000Y-94956380D01*
X68064095Y-94956380D01*
X68206952Y-95004000D01*
X68302190Y-95099238D01*
X68349809Y-95194476D01*
X68397428Y-95384952D01*
X68397428Y-95527809D01*
X68349809Y-95718285D01*
X68302190Y-95813523D01*
X68206952Y-95908761D01*
X68064095Y-95956380D01*
X67826000Y-95956380D01*
X68826000Y-95956380D02*
X68826000Y-94956380D01*
X72826523Y-34615380D02*
X72493190Y-34139190D01*
X72255095Y-34615380D02*
X72255095Y-33615380D01*
X72636047Y-33615380D01*
X72731285Y-33663000D01*
X72778904Y-33710619D01*
X72826523Y-33805857D01*
X72826523Y-33948714D01*
X72778904Y-34043952D01*
X72731285Y-34091571D01*
X72636047Y-34139190D01*
X72255095Y-34139190D01*
X124642523Y-91892380D02*
X124309190Y-91416190D01*
X124071095Y-91892380D02*
X124071095Y-90892380D01*
X124452047Y-90892380D01*
X124547285Y-90940000D01*
X124594904Y-90987619D01*
X124642523Y-91082857D01*
X124642523Y-91225714D01*
X124594904Y-91320952D01*
X124547285Y-91368571D01*
X124452047Y-91416190D01*
X124071095Y-91416190D01*
X72771047Y-103449428D02*
X73532952Y-103449428D01*
X73152000Y-103830380D02*
X73152000Y-103068476D01*
X102290523Y-84685142D02*
X102242904Y-84732761D01*
X102100047Y-84780380D01*
X102004809Y-84780380D01*
X101861952Y-84732761D01*
X101766714Y-84637523D01*
X101719095Y-84542285D01*
X101671476Y-84351809D01*
X101671476Y-84208952D01*
X101719095Y-84018476D01*
X101766714Y-83923238D01*
X101861952Y-83828000D01*
X102004809Y-83780380D01*
X102100047Y-83780380D01*
X102242904Y-83828000D01*
X102290523Y-83875619D01*
X53776523Y-34615380D02*
X53443190Y-34139190D01*
X53205095Y-34615380D02*
X53205095Y-33615380D01*
X53586047Y-33615380D01*
X53681285Y-33663000D01*
X53728904Y-33710619D01*
X53776523Y-33805857D01*
X53776523Y-33948714D01*
X53728904Y-34043952D01*
X53681285Y-34091571D01*
X53586047Y-34139190D01*
X53205095Y-34139190D01*
X129548000Y-50998380D02*
X129548000Y-49998380D01*
X129786095Y-49998380D01*
X129928952Y-50046000D01*
X130024190Y-50141238D01*
X130071809Y-50236476D01*
X130119428Y-50426952D01*
X130119428Y-50569809D01*
X130071809Y-50760285D01*
X130024190Y-50855523D01*
X129928952Y-50950761D01*
X129786095Y-50998380D01*
X129548000Y-50998380D01*
X130548000Y-50998380D02*
X130548000Y-49998380D01*
X129548000Y-89098380D02*
X129548000Y-88098380D01*
X129786095Y-88098380D01*
X129928952Y-88146000D01*
X130024190Y-88241238D01*
X130071809Y-88336476D01*
X130119428Y-88526952D01*
X130119428Y-88669809D01*
X130071809Y-88860285D01*
X130024190Y-88955523D01*
X129928952Y-89050761D01*
X129786095Y-89098380D01*
X129548000Y-89098380D01*
X130548000Y-89098380D02*
X130548000Y-88098380D01*
X67826000Y-38806380D02*
X67826000Y-37806380D01*
X68064095Y-37806380D01*
X68206952Y-37854000D01*
X68302190Y-37949238D01*
X68349809Y-38044476D01*
X68397428Y-38234952D01*
X68397428Y-38377809D01*
X68349809Y-38568285D01*
X68302190Y-38663523D01*
X68206952Y-38758761D01*
X68064095Y-38806380D01*
X67826000Y-38806380D01*
X68826000Y-38806380D02*
X68826000Y-37806380D01*
X67444904Y-41410000D02*
X67349666Y-41362380D01*
X67206809Y-41362380D01*
X67063952Y-41410000D01*
X66968714Y-41505238D01*
X66921095Y-41600476D01*
X66873476Y-41790952D01*
X66873476Y-41933809D01*
X66921095Y-42124285D01*
X66968714Y-42219523D01*
X67063952Y-42314761D01*
X67206809Y-42362380D01*
X67302047Y-42362380D01*
X67444904Y-42314761D01*
X67492523Y-42267142D01*
X67492523Y-41933809D01*
X67302047Y-41933809D01*
X110847285Y-38171380D02*
X110847285Y-37171380D01*
X111085380Y-37171380D01*
X111228238Y-37219000D01*
X111323476Y-37314238D01*
X111371095Y-37409476D01*
X111418714Y-37599952D01*
X111418714Y-37742809D01*
X111371095Y-37933285D01*
X111323476Y-38028523D01*
X111228238Y-38123761D01*
X111085380Y-38171380D01*
X110847285Y-38171380D01*
X112037761Y-37171380D02*
X112228238Y-37171380D01*
X112323476Y-37219000D01*
X112418714Y-37314238D01*
X112466333Y-37504714D01*
X112466333Y-37838047D01*
X112418714Y-38028523D01*
X112323476Y-38123761D01*
X112228238Y-38171380D01*
X112037761Y-38171380D01*
X111942523Y-38123761D01*
X111847285Y-38028523D01*
X111799666Y-37838047D01*
X111799666Y-37504714D01*
X111847285Y-37314238D01*
X111942523Y-37219000D01*
X112037761Y-37171380D01*
X53348000Y-50998380D02*
X53348000Y-49998380D01*
X53586095Y-49998380D01*
X53728952Y-50046000D01*
X53824190Y-50141238D01*
X53871809Y-50236476D01*
X53919428Y-50426952D01*
X53919428Y-50569809D01*
X53871809Y-50760285D01*
X53824190Y-50855523D01*
X53728952Y-50950761D01*
X53586095Y-50998380D01*
X53348000Y-50998380D01*
X54348000Y-50998380D02*
X54348000Y-49998380D01*
X91313047Y-61031428D02*
X92074952Y-61031428D01*
X91694000Y-61412380D02*
X91694000Y-60650476D01*
X67413285Y-70429380D02*
X67413285Y-69429380D01*
X67651380Y-69429380D01*
X67794238Y-69477000D01*
X67889476Y-69572238D01*
X67937095Y-69667476D01*
X67984714Y-69857952D01*
X67984714Y-70000809D01*
X67937095Y-70191285D01*
X67889476Y-70286523D01*
X67794238Y-70381761D01*
X67651380Y-70429380D01*
X67413285Y-70429380D01*
X68603761Y-69429380D02*
X68794238Y-69429380D01*
X68889476Y-69477000D01*
X68984714Y-69572238D01*
X69032333Y-69762714D01*
X69032333Y-70096047D01*
X68984714Y-70286523D01*
X68889476Y-70381761D01*
X68794238Y-70429380D01*
X68603761Y-70429380D01*
X68508523Y-70381761D01*
X68413285Y-70286523D01*
X68365666Y-70096047D01*
X68365666Y-69762714D01*
X68413285Y-69572238D01*
X68508523Y-69477000D01*
X68603761Y-69429380D01*
X86876000Y-57856380D02*
X86876000Y-56856380D01*
X87114095Y-56856380D01*
X87256952Y-56904000D01*
X87352190Y-56999238D01*
X87399809Y-57094476D01*
X87447428Y-57284952D01*
X87447428Y-57427809D01*
X87399809Y-57618285D01*
X87352190Y-57713523D01*
X87256952Y-57808761D01*
X87114095Y-57856380D01*
X86876000Y-57856380D01*
X87876000Y-57856380D02*
X87876000Y-56856380D01*
X124213904Y-102878000D02*
X124118666Y-102830380D01*
X123975809Y-102830380D01*
X123832952Y-102878000D01*
X123737714Y-102973238D01*
X123690095Y-103068476D01*
X123642476Y-103258952D01*
X123642476Y-103401809D01*
X123690095Y-103592285D01*
X123737714Y-103687523D01*
X123832952Y-103782761D01*
X123975809Y-103830380D01*
X124071047Y-103830380D01*
X124213904Y-103782761D01*
X124261523Y-103735142D01*
X124261523Y-103401809D01*
X124071047Y-103401809D01*
X124213904Y-83828000D02*
X124118666Y-83780380D01*
X123975809Y-83780380D01*
X123832952Y-83828000D01*
X123737714Y-83923238D01*
X123690095Y-84018476D01*
X123642476Y-84208952D01*
X123642476Y-84351809D01*
X123690095Y-84542285D01*
X123737714Y-84637523D01*
X123832952Y-84732761D01*
X123975809Y-84780380D01*
X124071047Y-84780380D01*
X124213904Y-84732761D01*
X124261523Y-84685142D01*
X124261523Y-84351809D01*
X124071047Y-84351809D01*
X67063904Y-64778000D02*
X66968666Y-64730380D01*
X66825809Y-64730380D01*
X66682952Y-64778000D01*
X66587714Y-64873238D01*
X66540095Y-64968476D01*
X66492476Y-65158952D01*
X66492476Y-65301809D01*
X66540095Y-65492285D01*
X66587714Y-65587523D01*
X66682952Y-65682761D01*
X66825809Y-65730380D01*
X66921047Y-65730380D01*
X67063904Y-65682761D01*
X67111523Y-65635142D01*
X67111523Y-65301809D01*
X66921047Y-65301809D01*
X53348000Y-89098380D02*
X53348000Y-88098380D01*
X53586095Y-88098380D01*
X53728952Y-88146000D01*
X53824190Y-88241238D01*
X53871809Y-88336476D01*
X53919428Y-88526952D01*
X53919428Y-88669809D01*
X53871809Y-88860285D01*
X53824190Y-88955523D01*
X53728952Y-89050761D01*
X53586095Y-89098380D01*
X53348000Y-89098380D01*
X54348000Y-89098380D02*
X54348000Y-88098380D01*
X72771047Y-65349428D02*
X73532952Y-65349428D01*
X73152000Y-65730380D02*
X73152000Y-64968476D01*
X64190523Y-103735142D02*
X64142904Y-103782761D01*
X64000047Y-103830380D01*
X63904809Y-103830380D01*
X63761952Y-103782761D01*
X63666714Y-103687523D01*
X63619095Y-103592285D01*
X63571476Y-103401809D01*
X63571476Y-103258952D01*
X63619095Y-103068476D01*
X63666714Y-102973238D01*
X63761952Y-102878000D01*
X63904809Y-102830380D01*
X64000047Y-102830380D01*
X64142904Y-102878000D01*
X64190523Y-102925619D01*
X105513285Y-108529380D02*
X105513285Y-107529380D01*
X105751380Y-107529380D01*
X105894238Y-107577000D01*
X105989476Y-107672238D01*
X106037095Y-107767476D01*
X106084714Y-107957952D01*
X106084714Y-108100809D01*
X106037095Y-108291285D01*
X105989476Y-108386523D01*
X105894238Y-108481761D01*
X105751380Y-108529380D01*
X105513285Y-108529380D01*
X106703761Y-107529380D02*
X106894238Y-107529380D01*
X106989476Y-107577000D01*
X107084714Y-107672238D01*
X107132333Y-107862714D01*
X107132333Y-108196047D01*
X107084714Y-108386523D01*
X106989476Y-108481761D01*
X106894238Y-108529380D01*
X106703761Y-108529380D01*
X106608523Y-108481761D01*
X106513285Y-108386523D01*
X106465666Y-108196047D01*
X106465666Y-107862714D01*
X106513285Y-107672238D01*
X106608523Y-107577000D01*
X106703761Y-107529380D01*
X129921047Y-84399428D02*
X130682952Y-84399428D01*
X130302000Y-84780380D02*
X130302000Y-84018476D01*
X86542523Y-53792380D02*
X86209190Y-53316190D01*
X85971095Y-53792380D02*
X85971095Y-52792380D01*
X86352047Y-52792380D01*
X86447285Y-52840000D01*
X86494904Y-52887619D01*
X86542523Y-52982857D01*
X86542523Y-53125714D01*
X86494904Y-53220952D01*
X86447285Y-53268571D01*
X86352047Y-53316190D01*
X85971095Y-53316190D01*
X67492523Y-53792380D02*
X67159190Y-53316190D01*
X66921095Y-53792380D02*
X66921095Y-52792380D01*
X67302047Y-52792380D01*
X67397285Y-52840000D01*
X67444904Y-52887619D01*
X67492523Y-52982857D01*
X67492523Y-53125714D01*
X67444904Y-53220952D01*
X67397285Y-53268571D01*
X67302047Y-53316190D01*
X66921095Y-53316190D01*
X86494904Y-98560000D02*
X86399666Y-98512380D01*
X86256809Y-98512380D01*
X86113952Y-98560000D01*
X86018714Y-98655238D01*
X85971095Y-98750476D01*
X85923476Y-98940952D01*
X85923476Y-99083809D01*
X85971095Y-99274285D01*
X86018714Y-99369523D01*
X86113952Y-99464761D01*
X86256809Y-99512380D01*
X86352047Y-99512380D01*
X86494904Y-99464761D01*
X86542523Y-99417142D01*
X86542523Y-99083809D01*
X86352047Y-99083809D01*
X83240523Y-46585142D02*
X83192904Y-46632761D01*
X83050047Y-46680380D01*
X82954809Y-46680380D01*
X82811952Y-46632761D01*
X82716714Y-46537523D01*
X82669095Y-46442285D01*
X82621476Y-46251809D01*
X82621476Y-46108952D01*
X82669095Y-45918476D01*
X82716714Y-45823238D01*
X82811952Y-45728000D01*
X82954809Y-45680380D01*
X83050047Y-45680380D01*
X83192904Y-45728000D01*
X83240523Y-45775619D01*
X72263047Y-99131428D02*
X73024952Y-99131428D01*
X72644000Y-99512380D02*
X72644000Y-98750476D01*
X64190523Y-119483142D02*
X64142904Y-119530761D01*
X64000047Y-119578380D01*
X63904809Y-119578380D01*
X63761952Y-119530761D01*
X63666714Y-119435523D01*
X63619095Y-119340285D01*
X63571476Y-119149809D01*
X63571476Y-119006952D01*
X63619095Y-118816476D01*
X63666714Y-118721238D01*
X63761952Y-118626000D01*
X63904809Y-118578380D01*
X64000047Y-118578380D01*
X64142904Y-118626000D01*
X64190523Y-118673619D01*
X91876523Y-34615380D02*
X91543190Y-34139190D01*
X91305095Y-34615380D02*
X91305095Y-33615380D01*
X91686047Y-33615380D01*
X91781285Y-33663000D01*
X91828904Y-33710619D01*
X91876523Y-33805857D01*
X91876523Y-33948714D01*
X91828904Y-34043952D01*
X91781285Y-34091571D01*
X91686047Y-34139190D01*
X91305095Y-34139190D01*
X86494904Y-79510000D02*
X86399666Y-79462380D01*
X86256809Y-79462380D01*
X86113952Y-79510000D01*
X86018714Y-79605238D01*
X85971095Y-79700476D01*
X85923476Y-79890952D01*
X85923476Y-80033809D01*
X85971095Y-80224285D01*
X86018714Y-80319523D01*
X86113952Y-80414761D01*
X86256809Y-80462380D01*
X86352047Y-80462380D01*
X86494904Y-80414761D01*
X86542523Y-80367142D01*
X86542523Y-80033809D01*
X86352047Y-80033809D01*
X53776523Y-110815380D02*
X53443190Y-110339190D01*
X53205095Y-110815380D02*
X53205095Y-109815380D01*
X53586047Y-109815380D01*
X53681285Y-109863000D01*
X53728904Y-109910619D01*
X53776523Y-110005857D01*
X53776523Y-110148714D01*
X53728904Y-110243952D01*
X53681285Y-110291571D01*
X53586047Y-110339190D01*
X53205095Y-110339190D01*
X91821047Y-103449428D02*
X92582952Y-103449428D01*
X92202000Y-103830380D02*
X92202000Y-103068476D01*
X105544904Y-117610000D02*
X105449666Y-117562380D01*
X105306809Y-117562380D01*
X105163952Y-117610000D01*
X105068714Y-117705238D01*
X105021095Y-117800476D01*
X104973476Y-117990952D01*
X104973476Y-118133809D01*
X105021095Y-118324285D01*
X105068714Y-118419523D01*
X105163952Y-118514761D01*
X105306809Y-118562380D01*
X105402047Y-118562380D01*
X105544904Y-118514761D01*
X105592523Y-118467142D01*
X105592523Y-118133809D01*
X105402047Y-118133809D01*
X86113904Y-64778000D02*
X86018666Y-64730380D01*
X85875809Y-64730380D01*
X85732952Y-64778000D01*
X85637714Y-64873238D01*
X85590095Y-64968476D01*
X85542476Y-65158952D01*
X85542476Y-65301809D01*
X85590095Y-65492285D01*
X85637714Y-65587523D01*
X85732952Y-65682761D01*
X85875809Y-65730380D01*
X85971047Y-65730380D01*
X86113904Y-65682761D01*
X86161523Y-65635142D01*
X86161523Y-65301809D01*
X85971047Y-65301809D01*
X143613285Y-32329380D02*
X143613285Y-31329380D01*
X143851380Y-31329380D01*
X143994238Y-31377000D01*
X144089476Y-31472238D01*
X144137095Y-31567476D01*
X144184714Y-31757952D01*
X144184714Y-31900809D01*
X144137095Y-32091285D01*
X144089476Y-32186523D01*
X143994238Y-32281761D01*
X143851380Y-32329380D01*
X143613285Y-32329380D01*
X144803761Y-31329380D02*
X144994238Y-31329380D01*
X145089476Y-31377000D01*
X145184714Y-31472238D01*
X145232333Y-31662714D01*
X145232333Y-31996047D01*
X145184714Y-32186523D01*
X145089476Y-32281761D01*
X144994238Y-32329380D01*
X144803761Y-32329380D01*
X144708523Y-32281761D01*
X144613285Y-32186523D01*
X144565666Y-31996047D01*
X144565666Y-31662714D01*
X144613285Y-31472238D01*
X144708523Y-31377000D01*
X144803761Y-31329380D01*
X110498000Y-89098380D02*
X110498000Y-88098380D01*
X110736095Y-88098380D01*
X110878952Y-88146000D01*
X110974190Y-88241238D01*
X111021809Y-88336476D01*
X111069428Y-88526952D01*
X111069428Y-88669809D01*
X111021809Y-88860285D01*
X110974190Y-88955523D01*
X110878952Y-89050761D01*
X110736095Y-89098380D01*
X110498000Y-89098380D01*
X111498000Y-89098380D02*
X111498000Y-88098380D01*
X124976000Y-95956380D02*
X124976000Y-94956380D01*
X125214095Y-94956380D01*
X125356952Y-95004000D01*
X125452190Y-95099238D01*
X125499809Y-95194476D01*
X125547428Y-95384952D01*
X125547428Y-95527809D01*
X125499809Y-95718285D01*
X125452190Y-95813523D01*
X125356952Y-95908761D01*
X125214095Y-95956380D01*
X124976000Y-95956380D01*
X125976000Y-95956380D02*
X125976000Y-94956380D01*
X91876523Y-110815380D02*
X91543190Y-110339190D01*
X91305095Y-110815380D02*
X91305095Y-109815380D01*
X91686047Y-109815380D01*
X91781285Y-109863000D01*
X91828904Y-109910619D01*
X91876523Y-110005857D01*
X91876523Y-110148714D01*
X91828904Y-110243952D01*
X91781285Y-110291571D01*
X91686047Y-110339190D01*
X91305095Y-110339190D01*
X129548000Y-70048380D02*
X129548000Y-69048380D01*
X129786095Y-69048380D01*
X129928952Y-69096000D01*
X130024190Y-69191238D01*
X130071809Y-69286476D01*
X130119428Y-69476952D01*
X130119428Y-69619809D01*
X130071809Y-69810285D01*
X130024190Y-69905523D01*
X129928952Y-70000761D01*
X129786095Y-70048380D01*
X129548000Y-70048380D01*
X130548000Y-70048380D02*
X130548000Y-69048380D01*
X121340523Y-65635142D02*
X121292904Y-65682761D01*
X121150047Y-65730380D01*
X121054809Y-65730380D01*
X120911952Y-65682761D01*
X120816714Y-65587523D01*
X120769095Y-65492285D01*
X120721476Y-65301809D01*
X120721476Y-65158952D01*
X120769095Y-64968476D01*
X120816714Y-64873238D01*
X120911952Y-64778000D01*
X121054809Y-64730380D01*
X121150047Y-64730380D01*
X121292904Y-64778000D01*
X121340523Y-64825619D01*
X83240523Y-103735142D02*
X83192904Y-103782761D01*
X83050047Y-103830380D01*
X82954809Y-103830380D01*
X82811952Y-103782761D01*
X82716714Y-103687523D01*
X82669095Y-103592285D01*
X82621476Y-103401809D01*
X82621476Y-103258952D01*
X82669095Y-103068476D01*
X82716714Y-102973238D01*
X82811952Y-102878000D01*
X82954809Y-102830380D01*
X83050047Y-102830380D01*
X83192904Y-102878000D01*
X83240523Y-102925619D01*
X110498000Y-50998380D02*
X110498000Y-49998380D01*
X110736095Y-49998380D01*
X110878952Y-50046000D01*
X110974190Y-50141238D01*
X111021809Y-50236476D01*
X111069428Y-50426952D01*
X111069428Y-50569809D01*
X111021809Y-50760285D01*
X110974190Y-50855523D01*
X110878952Y-50950761D01*
X110736095Y-50998380D01*
X110498000Y-50998380D01*
X111498000Y-50998380D02*
X111498000Y-49998380D01*
X124642523Y-34742380D02*
X124309190Y-34266190D01*
X124071095Y-34742380D02*
X124071095Y-33742380D01*
X124452047Y-33742380D01*
X124547285Y-33790000D01*
X124594904Y-33837619D01*
X124642523Y-33932857D01*
X124642523Y-34075714D01*
X124594904Y-34170952D01*
X124547285Y-34218571D01*
X124452047Y-34266190D01*
X124071095Y-34266190D01*
X129897285Y-57221380D02*
X129897285Y-56221380D01*
X130135380Y-56221380D01*
X130278238Y-56269000D01*
X130373476Y-56364238D01*
X130421095Y-56459476D01*
X130468714Y-56649952D01*
X130468714Y-56792809D01*
X130421095Y-56983285D01*
X130373476Y-57078523D01*
X130278238Y-57173761D01*
X130135380Y-57221380D01*
X129897285Y-57221380D01*
X131087761Y-56221380D02*
X131278238Y-56221380D01*
X131373476Y-56269000D01*
X131468714Y-56364238D01*
X131516333Y-56554714D01*
X131516333Y-56888047D01*
X131468714Y-57078523D01*
X131373476Y-57173761D01*
X131278238Y-57221380D01*
X131087761Y-57221380D01*
X130992523Y-57173761D01*
X130897285Y-57078523D01*
X130849666Y-56888047D01*
X130849666Y-56554714D01*
X130897285Y-56364238D01*
X130992523Y-56269000D01*
X131087761Y-56221380D01*
X105163904Y-64778000D02*
X105068666Y-64730380D01*
X104925809Y-64730380D01*
X104782952Y-64778000D01*
X104687714Y-64873238D01*
X104640095Y-64968476D01*
X104592476Y-65158952D01*
X104592476Y-65301809D01*
X104640095Y-65492285D01*
X104687714Y-65587523D01*
X104782952Y-65682761D01*
X104925809Y-65730380D01*
X105021047Y-65730380D01*
X105163904Y-65682761D01*
X105211523Y-65635142D01*
X105211523Y-65301809D01*
X105021047Y-65301809D01*
X110498000Y-31948380D02*
X110498000Y-30948380D01*
X110736095Y-30948380D01*
X110878952Y-30996000D01*
X110974190Y-31091238D01*
X111021809Y-31186476D01*
X111069428Y-31376952D01*
X111069428Y-31519809D01*
X111021809Y-31710285D01*
X110974190Y-31805523D01*
X110878952Y-31900761D01*
X110736095Y-31948380D01*
X110498000Y-31948380D01*
X111498000Y-31948380D02*
X111498000Y-30948380D01*
X72826523Y-110815380D02*
X72493190Y-110339190D01*
X72255095Y-110815380D02*
X72255095Y-109815380D01*
X72636047Y-109815380D01*
X72731285Y-109863000D01*
X72778904Y-109910619D01*
X72826523Y-110005857D01*
X72826523Y-110148714D01*
X72778904Y-110243952D01*
X72731285Y-110291571D01*
X72636047Y-110339190D01*
X72255095Y-110339190D01*
X64190523Y-84685142D02*
X64142904Y-84732761D01*
X64000047Y-84780380D01*
X63904809Y-84780380D01*
X63761952Y-84732761D01*
X63666714Y-84637523D01*
X63619095Y-84542285D01*
X63571476Y-84351809D01*
X63571476Y-84208952D01*
X63619095Y-84018476D01*
X63666714Y-83923238D01*
X63761952Y-83828000D01*
X63904809Y-83780380D01*
X64000047Y-83780380D01*
X64142904Y-83828000D01*
X64190523Y-83875619D01*
X72263047Y-80081428D02*
X73024952Y-80081428D01*
X72644000Y-80462380D02*
X72644000Y-79700476D01*
X53213047Y-118181428D02*
X53974952Y-118181428D01*
X53594000Y-118562380D02*
X53594000Y-117800476D01*
X110871047Y-84399428D02*
X111632952Y-84399428D01*
X111252000Y-84780380D02*
X111252000Y-84018476D01*
X129548000Y-108148380D02*
X129548000Y-107148380D01*
X129786095Y-107148380D01*
X129928952Y-107196000D01*
X130024190Y-107291238D01*
X130071809Y-107386476D01*
X130119428Y-107576952D01*
X130119428Y-107719809D01*
X130071809Y-107910285D01*
X130024190Y-108005523D01*
X129928952Y-108100761D01*
X129786095Y-108148380D01*
X129548000Y-108148380D01*
X130548000Y-108148380D02*
X130548000Y-107148380D01*
X86494904Y-60460000D02*
X86399666Y-60412380D01*
X86256809Y-60412380D01*
X86113952Y-60460000D01*
X86018714Y-60555238D01*
X85971095Y-60650476D01*
X85923476Y-60840952D01*
X85923476Y-60983809D01*
X85971095Y-61174285D01*
X86018714Y-61269523D01*
X86113952Y-61364761D01*
X86256809Y-61412380D01*
X86352047Y-61412380D01*
X86494904Y-61364761D01*
X86542523Y-61317142D01*
X86542523Y-60983809D01*
X86352047Y-60983809D01*
X102290523Y-100433142D02*
X102242904Y-100480761D01*
X102100047Y-100528380D01*
X102004809Y-100528380D01*
X101861952Y-100480761D01*
X101766714Y-100385523D01*
X101719095Y-100290285D01*
X101671476Y-100099809D01*
X101671476Y-99956952D01*
X101719095Y-99766476D01*
X101766714Y-99671238D01*
X101861952Y-99576000D01*
X102004809Y-99528380D01*
X102100047Y-99528380D01*
X102242904Y-99576000D01*
X102290523Y-99623619D01*
X53721047Y-46299428D02*
X54482952Y-46299428D01*
X54102000Y-46680380D02*
X54102000Y-45918476D01*
X105544904Y-41410000D02*
X105449666Y-41362380D01*
X105306809Y-41362380D01*
X105163952Y-41410000D01*
X105068714Y-41505238D01*
X105021095Y-41600476D01*
X104973476Y-41790952D01*
X104973476Y-41933809D01*
X105021095Y-42124285D01*
X105068714Y-42219523D01*
X105163952Y-42314761D01*
X105306809Y-42362380D01*
X105402047Y-42362380D01*
X105544904Y-42314761D01*
X105592523Y-42267142D01*
X105592523Y-41933809D01*
X105402047Y-41933809D01*
X102290523Y-81383142D02*
X102242904Y-81430761D01*
X102100047Y-81478380D01*
X102004809Y-81478380D01*
X101861952Y-81430761D01*
X101766714Y-81335523D01*
X101719095Y-81240285D01*
X101671476Y-81049809D01*
X101671476Y-80906952D01*
X101719095Y-80716476D01*
X101766714Y-80621238D01*
X101861952Y-80526000D01*
X102004809Y-80478380D01*
X102100047Y-80478380D01*
X102242904Y-80526000D01*
X102290523Y-80573619D01*
X86113904Y-102878000D02*
X86018666Y-102830380D01*
X85875809Y-102830380D01*
X85732952Y-102878000D01*
X85637714Y-102973238D01*
X85590095Y-103068476D01*
X85542476Y-103258952D01*
X85542476Y-103401809D01*
X85590095Y-103592285D01*
X85637714Y-103687523D01*
X85732952Y-103782761D01*
X85875809Y-103830380D01*
X85971047Y-103830380D01*
X86113904Y-103782761D01*
X86161523Y-103735142D01*
X86161523Y-103401809D01*
X85971047Y-103401809D01*
X67063904Y-26678000D02*
X66968666Y-26630380D01*
X66825809Y-26630380D01*
X66682952Y-26678000D01*
X66587714Y-26773238D01*
X66540095Y-26868476D01*
X66492476Y-27058952D01*
X66492476Y-27201809D01*
X66540095Y-27392285D01*
X66587714Y-27487523D01*
X66682952Y-27582761D01*
X66825809Y-27630380D01*
X66921047Y-27630380D01*
X67063904Y-27582761D01*
X67111523Y-27535142D01*
X67111523Y-27201809D01*
X66921047Y-27201809D01*
X105592523Y-91892380D02*
X105259190Y-91416190D01*
X105021095Y-91892380D02*
X105021095Y-90892380D01*
X105402047Y-90892380D01*
X105497285Y-90940000D01*
X105544904Y-90987619D01*
X105592523Y-91082857D01*
X105592523Y-91225714D01*
X105544904Y-91320952D01*
X105497285Y-91368571D01*
X105402047Y-91416190D01*
X105021095Y-91416190D01*
X129413047Y-80081428D02*
X130174952Y-80081428D01*
X129794000Y-80462380D02*
X129794000Y-79700476D01*
X110363047Y-99131428D02*
X111124952Y-99131428D01*
X110744000Y-99512380D02*
X110744000Y-98750476D01*
X124594904Y-117610000D02*
X124499666Y-117562380D01*
X124356809Y-117562380D01*
X124213952Y-117610000D01*
X124118714Y-117705238D01*
X124071095Y-117800476D01*
X124023476Y-117990952D01*
X124023476Y-118133809D01*
X124071095Y-118324285D01*
X124118714Y-118419523D01*
X124213952Y-118514761D01*
X124356809Y-118562380D01*
X124452047Y-118562380D01*
X124594904Y-118514761D01*
X124642523Y-118467142D01*
X124642523Y-118133809D01*
X124452047Y-118133809D01*
X144026000Y-115006380D02*
X144026000Y-114006380D01*
X144264095Y-114006380D01*
X144406952Y-114054000D01*
X144502190Y-114149238D01*
X144549809Y-114244476D01*
X144597428Y-114434952D01*
X144597428Y-114577809D01*
X144549809Y-114768285D01*
X144502190Y-114863523D01*
X144406952Y-114958761D01*
X144264095Y-115006380D01*
X144026000Y-115006380D01*
X145026000Y-115006380D02*
X145026000Y-114006380D01*
X72263047Y-118181428D02*
X73024952Y-118181428D01*
X72644000Y-118562380D02*
X72644000Y-117800476D01*
X124976000Y-76906380D02*
X124976000Y-75906380D01*
X125214095Y-75906380D01*
X125356952Y-75954000D01*
X125452190Y-76049238D01*
X125499809Y-76144476D01*
X125547428Y-76334952D01*
X125547428Y-76477809D01*
X125499809Y-76668285D01*
X125452190Y-76763523D01*
X125356952Y-76858761D01*
X125214095Y-76906380D01*
X124976000Y-76906380D01*
X125976000Y-76906380D02*
X125976000Y-75906380D01*
X53721047Y-84399428D02*
X54482952Y-84399428D01*
X54102000Y-84780380D02*
X54102000Y-84018476D01*
X91313047Y-80081428D02*
X92074952Y-80081428D01*
X91694000Y-80462380D02*
X91694000Y-79700476D01*
X91797285Y-114371380D02*
X91797285Y-113371380D01*
X92035380Y-113371380D01*
X92178238Y-113419000D01*
X92273476Y-113514238D01*
X92321095Y-113609476D01*
X92368714Y-113799952D01*
X92368714Y-113942809D01*
X92321095Y-114133285D01*
X92273476Y-114228523D01*
X92178238Y-114323761D01*
X92035380Y-114371380D01*
X91797285Y-114371380D01*
X92987761Y-113371380D02*
X93178238Y-113371380D01*
X93273476Y-113419000D01*
X93368714Y-113514238D01*
X93416333Y-113704714D01*
X93416333Y-114038047D01*
X93368714Y-114228523D01*
X93273476Y-114323761D01*
X93178238Y-114371380D01*
X92987761Y-114371380D01*
X92892523Y-114323761D01*
X92797285Y-114228523D01*
X92749666Y-114038047D01*
X92749666Y-113704714D01*
X92797285Y-113514238D01*
X92892523Y-113419000D01*
X92987761Y-113371380D01*
X86542523Y-91892380D02*
X86209190Y-91416190D01*
X85971095Y-91892380D02*
X85971095Y-90892380D01*
X86352047Y-90892380D01*
X86447285Y-90940000D01*
X86494904Y-90987619D01*
X86542523Y-91082857D01*
X86542523Y-91225714D01*
X86494904Y-91320952D01*
X86447285Y-91368571D01*
X86352047Y-91416190D01*
X85971095Y-91416190D01*
X110871047Y-103449428D02*
X111632952Y-103449428D01*
X111252000Y-103830380D02*
X111252000Y-103068476D01*
X144026000Y-57856380D02*
X144026000Y-56856380D01*
X144264095Y-56856380D01*
X144406952Y-56904000D01*
X144502190Y-56999238D01*
X144549809Y-57094476D01*
X144597428Y-57284952D01*
X144597428Y-57427809D01*
X144549809Y-57618285D01*
X144502190Y-57713523D01*
X144406952Y-57808761D01*
X144264095Y-57856380D01*
X144026000Y-57856380D01*
X145026000Y-57856380D02*
X145026000Y-56856380D01*
X67063904Y-83828000D02*
X66968666Y-83780380D01*
X66825809Y-83780380D01*
X66682952Y-83828000D01*
X66587714Y-83923238D01*
X66540095Y-84018476D01*
X66492476Y-84208952D01*
X66492476Y-84351809D01*
X66540095Y-84542285D01*
X66587714Y-84637523D01*
X66682952Y-84732761D01*
X66825809Y-84780380D01*
X66921047Y-84780380D01*
X67063904Y-84732761D01*
X67111523Y-84685142D01*
X67111523Y-84351809D01*
X66921047Y-84351809D01*
X124642523Y-110942380D02*
X124309190Y-110466190D01*
X124071095Y-110942380D02*
X124071095Y-109942380D01*
X124452047Y-109942380D01*
X124547285Y-109990000D01*
X124594904Y-110037619D01*
X124642523Y-110132857D01*
X124642523Y-110275714D01*
X124594904Y-110370952D01*
X124547285Y-110418571D01*
X124452047Y-110466190D01*
X124071095Y-110466190D01*
X121340523Y-103735142D02*
X121292904Y-103782761D01*
X121150047Y-103830380D01*
X121054809Y-103830380D01*
X120911952Y-103782761D01*
X120816714Y-103687523D01*
X120769095Y-103592285D01*
X120721476Y-103401809D01*
X120721476Y-103258952D01*
X120769095Y-103068476D01*
X120816714Y-102973238D01*
X120911952Y-102878000D01*
X121054809Y-102830380D01*
X121150047Y-102830380D01*
X121292904Y-102878000D01*
X121340523Y-102925619D01*
X72747285Y-95321380D02*
X72747285Y-94321380D01*
X72985380Y-94321380D01*
X73128238Y-94369000D01*
X73223476Y-94464238D01*
X73271095Y-94559476D01*
X73318714Y-94749952D01*
X73318714Y-94892809D01*
X73271095Y-95083285D01*
X73223476Y-95178523D01*
X73128238Y-95273761D01*
X72985380Y-95321380D01*
X72747285Y-95321380D01*
X73937761Y-94321380D02*
X74128238Y-94321380D01*
X74223476Y-94369000D01*
X74318714Y-94464238D01*
X74366333Y-94654714D01*
X74366333Y-94988047D01*
X74318714Y-95178523D01*
X74223476Y-95273761D01*
X74128238Y-95321380D01*
X73937761Y-95321380D01*
X73842523Y-95273761D01*
X73747285Y-95178523D01*
X73699666Y-94988047D01*
X73699666Y-94654714D01*
X73747285Y-94464238D01*
X73842523Y-94369000D01*
X73937761Y-94321380D01*
X121340523Y-62333142D02*
X121292904Y-62380761D01*
X121150047Y-62428380D01*
X121054809Y-62428380D01*
X120911952Y-62380761D01*
X120816714Y-62285523D01*
X120769095Y-62190285D01*
X120721476Y-61999809D01*
X120721476Y-61856952D01*
X120769095Y-61666476D01*
X120816714Y-61571238D01*
X120911952Y-61476000D01*
X121054809Y-61428380D01*
X121150047Y-61428380D01*
X121292904Y-61476000D01*
X121340523Y-61523619D01*
X129976523Y-72715380D02*
X129643190Y-72239190D01*
X129405095Y-72715380D02*
X129405095Y-71715380D01*
X129786047Y-71715380D01*
X129881285Y-71763000D01*
X129928904Y-71810619D01*
X129976523Y-71905857D01*
X129976523Y-72048714D01*
X129928904Y-72143952D01*
X129881285Y-72191571D01*
X129786047Y-72239190D01*
X129405095Y-72239190D01*
X124976000Y-38806380D02*
X124976000Y-37806380D01*
X125214095Y-37806380D01*
X125356952Y-37854000D01*
X125452190Y-37949238D01*
X125499809Y-38044476D01*
X125547428Y-38234952D01*
X125547428Y-38377809D01*
X125499809Y-38568285D01*
X125452190Y-38663523D01*
X125356952Y-38758761D01*
X125214095Y-38806380D01*
X124976000Y-38806380D01*
X125976000Y-38806380D02*
X125976000Y-37806380D01*
X67492523Y-34742380D02*
X67159190Y-34266190D01*
X66921095Y-34742380D02*
X66921095Y-33742380D01*
X67302047Y-33742380D01*
X67397285Y-33790000D01*
X67444904Y-33837619D01*
X67492523Y-33932857D01*
X67492523Y-34075714D01*
X67444904Y-34170952D01*
X67397285Y-34218571D01*
X67302047Y-34266190D01*
X66921095Y-34266190D01*
X143692523Y-72842380D02*
X143359190Y-72366190D01*
X143121095Y-72842380D02*
X143121095Y-71842380D01*
X143502047Y-71842380D01*
X143597285Y-71890000D01*
X143644904Y-71937619D01*
X143692523Y-72032857D01*
X143692523Y-72175714D01*
X143644904Y-72270952D01*
X143597285Y-72318571D01*
X143502047Y-72366190D01*
X143121095Y-72366190D01*
X143613285Y-89479380D02*
X143613285Y-88479380D01*
X143851380Y-88479380D01*
X143994238Y-88527000D01*
X144089476Y-88622238D01*
X144137095Y-88717476D01*
X144184714Y-88907952D01*
X144184714Y-89050809D01*
X144137095Y-89241285D01*
X144089476Y-89336523D01*
X143994238Y-89431761D01*
X143851380Y-89479380D01*
X143613285Y-89479380D01*
X144803761Y-88479380D02*
X144994238Y-88479380D01*
X145089476Y-88527000D01*
X145184714Y-88622238D01*
X145232333Y-88812714D01*
X145232333Y-89146047D01*
X145184714Y-89336523D01*
X145089476Y-89431761D01*
X144994238Y-89479380D01*
X144803761Y-89479380D01*
X144708523Y-89431761D01*
X144613285Y-89336523D01*
X144565666Y-89146047D01*
X144565666Y-88812714D01*
X144613285Y-88622238D01*
X144708523Y-88527000D01*
X144803761Y-88479380D01*
X129413047Y-118181428D02*
X130174952Y-118181428D01*
X129794000Y-118562380D02*
X129794000Y-117800476D01*
X110498000Y-70048380D02*
X110498000Y-69048380D01*
X110736095Y-69048380D01*
X110878952Y-69096000D01*
X110974190Y-69191238D01*
X111021809Y-69286476D01*
X111069428Y-69476952D01*
X111069428Y-69619809D01*
X111021809Y-69810285D01*
X110974190Y-69905523D01*
X110878952Y-70000761D01*
X110736095Y-70048380D01*
X110498000Y-70048380D01*
X111498000Y-70048380D02*
X111498000Y-69048380D01*
X144026000Y-95956380D02*
X144026000Y-94956380D01*
X144264095Y-94956380D01*
X144406952Y-95004000D01*
X144502190Y-95099238D01*
X144549809Y-95194476D01*
X144597428Y-95384952D01*
X144597428Y-95527809D01*
X144549809Y-95718285D01*
X144502190Y-95813523D01*
X144406952Y-95908761D01*
X144264095Y-95956380D01*
X144026000Y-95956380D01*
X145026000Y-95956380D02*
X145026000Y-94956380D01*
X53776523Y-53665380D02*
X53443190Y-53189190D01*
X53205095Y-53665380D02*
X53205095Y-52665380D01*
X53586047Y-52665380D01*
X53681285Y-52713000D01*
X53728904Y-52760619D01*
X53776523Y-52855857D01*
X53776523Y-52998714D01*
X53728904Y-53093952D01*
X53681285Y-53141571D01*
X53586047Y-53189190D01*
X53205095Y-53189190D01*
X72398000Y-70048380D02*
X72398000Y-69048380D01*
X72636095Y-69048380D01*
X72778952Y-69096000D01*
X72874190Y-69191238D01*
X72921809Y-69286476D01*
X72969428Y-69476952D01*
X72969428Y-69619809D01*
X72921809Y-69810285D01*
X72874190Y-69905523D01*
X72778952Y-70000761D01*
X72636095Y-70048380D01*
X72398000Y-70048380D01*
X73398000Y-70048380D02*
X73398000Y-69048380D01*
X140390523Y-62333142D02*
X140342904Y-62380761D01*
X140200047Y-62428380D01*
X140104809Y-62428380D01*
X139961952Y-62380761D01*
X139866714Y-62285523D01*
X139819095Y-62190285D01*
X139771476Y-61999809D01*
X139771476Y-61856952D01*
X139819095Y-61666476D01*
X139866714Y-61571238D01*
X139961952Y-61476000D01*
X140104809Y-61428380D01*
X140200047Y-61428380D01*
X140342904Y-61476000D01*
X140390523Y-61523619D01*
X129976523Y-110815380D02*
X129643190Y-110339190D01*
X129405095Y-110815380D02*
X129405095Y-109815380D01*
X129786047Y-109815380D01*
X129881285Y-109863000D01*
X129928904Y-109910619D01*
X129976523Y-110005857D01*
X129976523Y-110148714D01*
X129928904Y-110243952D01*
X129881285Y-110291571D01*
X129786047Y-110339190D01*
X129405095Y-110339190D01*
X72747285Y-76271380D02*
X72747285Y-75271380D01*
X72985380Y-75271380D01*
X73128238Y-75319000D01*
X73223476Y-75414238D01*
X73271095Y-75509476D01*
X73318714Y-75699952D01*
X73318714Y-75842809D01*
X73271095Y-76033285D01*
X73223476Y-76128523D01*
X73128238Y-76223761D01*
X72985380Y-76271380D01*
X72747285Y-76271380D01*
X73937761Y-75271380D02*
X74128238Y-75271380D01*
X74223476Y-75319000D01*
X74318714Y-75414238D01*
X74366333Y-75604714D01*
X74366333Y-75938047D01*
X74318714Y-76128523D01*
X74223476Y-76223761D01*
X74128238Y-76271380D01*
X73937761Y-76271380D01*
X73842523Y-76223761D01*
X73747285Y-76128523D01*
X73699666Y-75938047D01*
X73699666Y-75604714D01*
X73747285Y-75414238D01*
X73842523Y-75319000D01*
X73937761Y-75271380D01*
X91448000Y-50998380D02*
X91448000Y-49998380D01*
X91686095Y-49998380D01*
X91828952Y-50046000D01*
X91924190Y-50141238D01*
X91971809Y-50236476D01*
X92019428Y-50426952D01*
X92019428Y-50569809D01*
X91971809Y-50760285D01*
X91924190Y-50855523D01*
X91828952Y-50950761D01*
X91686095Y-50998380D01*
X91448000Y-50998380D01*
X92448000Y-50998380D02*
X92448000Y-49998380D01*
X72263047Y-41981428D02*
X73024952Y-41981428D01*
X72644000Y-42362380D02*
X72644000Y-41600476D01*
X67492523Y-91892380D02*
X67159190Y-91416190D01*
X66921095Y-91892380D02*
X66921095Y-90892380D01*
X67302047Y-90892380D01*
X67397285Y-90940000D01*
X67444904Y-90987619D01*
X67492523Y-91082857D01*
X67492523Y-91225714D01*
X67444904Y-91320952D01*
X67397285Y-91368571D01*
X67302047Y-91416190D01*
X66921095Y-91416190D01*
X102290523Y-62333142D02*
X102242904Y-62380761D01*
X102100047Y-62428380D01*
X102004809Y-62428380D01*
X101861952Y-62380761D01*
X101766714Y-62285523D01*
X101719095Y-62190285D01*
X101671476Y-61999809D01*
X101671476Y-61856952D01*
X101719095Y-61666476D01*
X101766714Y-61571238D01*
X101861952Y-61476000D01*
X102004809Y-61428380D01*
X102100047Y-61428380D01*
X102242904Y-61476000D01*
X102290523Y-61523619D01*
X102290523Y-119483142D02*
X102242904Y-119530761D01*
X102100047Y-119578380D01*
X102004809Y-119578380D01*
X101861952Y-119530761D01*
X101766714Y-119435523D01*
X101719095Y-119340285D01*
X101671476Y-119149809D01*
X101671476Y-119006952D01*
X101719095Y-118816476D01*
X101766714Y-118721238D01*
X101861952Y-118626000D01*
X102004809Y-118578380D01*
X102100047Y-118578380D01*
X102242904Y-118626000D01*
X102290523Y-118673619D01*
X86542523Y-110942380D02*
X86209190Y-110466190D01*
X85971095Y-110942380D02*
X85971095Y-109942380D01*
X86352047Y-109942380D01*
X86447285Y-109990000D01*
X86494904Y-110037619D01*
X86542523Y-110132857D01*
X86542523Y-110275714D01*
X86494904Y-110370952D01*
X86447285Y-110418571D01*
X86352047Y-110466190D01*
X85971095Y-110466190D01*
X124563285Y-89479380D02*
X124563285Y-88479380D01*
X124801380Y-88479380D01*
X124944238Y-88527000D01*
X125039476Y-88622238D01*
X125087095Y-88717476D01*
X125134714Y-88907952D01*
X125134714Y-89050809D01*
X125087095Y-89241285D01*
X125039476Y-89336523D01*
X124944238Y-89431761D01*
X124801380Y-89479380D01*
X124563285Y-89479380D01*
X125753761Y-88479380D02*
X125944238Y-88479380D01*
X126039476Y-88527000D01*
X126134714Y-88622238D01*
X126182333Y-88812714D01*
X126182333Y-89146047D01*
X126134714Y-89336523D01*
X126039476Y-89431761D01*
X125944238Y-89479380D01*
X125753761Y-89479380D01*
X125658523Y-89431761D01*
X125563285Y-89336523D01*
X125515666Y-89146047D01*
X125515666Y-88812714D01*
X125563285Y-88622238D01*
X125658523Y-88527000D01*
X125753761Y-88479380D01*
X53697285Y-38171380D02*
X53697285Y-37171380D01*
X53935380Y-37171380D01*
X54078238Y-37219000D01*
X54173476Y-37314238D01*
X54221095Y-37409476D01*
X54268714Y-37599952D01*
X54268714Y-37742809D01*
X54221095Y-37933285D01*
X54173476Y-38028523D01*
X54078238Y-38123761D01*
X53935380Y-38171380D01*
X53697285Y-38171380D01*
X54887761Y-37171380D02*
X55078238Y-37171380D01*
X55173476Y-37219000D01*
X55268714Y-37314238D01*
X55316333Y-37504714D01*
X55316333Y-37838047D01*
X55268714Y-38028523D01*
X55173476Y-38123761D01*
X55078238Y-38171380D01*
X54887761Y-38171380D01*
X54792523Y-38123761D01*
X54697285Y-38028523D01*
X54649666Y-37838047D01*
X54649666Y-37504714D01*
X54697285Y-37314238D01*
X54792523Y-37219000D01*
X54887761Y-37171380D01*
X72398000Y-89098380D02*
X72398000Y-88098380D01*
X72636095Y-88098380D01*
X72778952Y-88146000D01*
X72874190Y-88241238D01*
X72921809Y-88336476D01*
X72969428Y-88526952D01*
X72969428Y-88669809D01*
X72921809Y-88860285D01*
X72874190Y-88955523D01*
X72778952Y-89050761D01*
X72636095Y-89098380D01*
X72398000Y-89098380D01*
X73398000Y-89098380D02*
X73398000Y-88098380D01*
X105513285Y-32329380D02*
X105513285Y-31329380D01*
X105751380Y-31329380D01*
X105894238Y-31377000D01*
X105989476Y-31472238D01*
X106037095Y-31567476D01*
X106084714Y-31757952D01*
X106084714Y-31900809D01*
X106037095Y-32091285D01*
X105989476Y-32186523D01*
X105894238Y-32281761D01*
X105751380Y-32329380D01*
X105513285Y-32329380D01*
X106703761Y-31329380D02*
X106894238Y-31329380D01*
X106989476Y-31377000D01*
X107084714Y-31472238D01*
X107132333Y-31662714D01*
X107132333Y-31996047D01*
X107084714Y-32186523D01*
X106989476Y-32281761D01*
X106894238Y-32329380D01*
X106703761Y-32329380D01*
X106608523Y-32281761D01*
X106513285Y-32186523D01*
X106465666Y-31996047D01*
X106465666Y-31662714D01*
X106513285Y-31472238D01*
X106608523Y-31377000D01*
X106703761Y-31329380D01*
X102290523Y-27535142D02*
X102242904Y-27582761D01*
X102100047Y-27630380D01*
X102004809Y-27630380D01*
X101861952Y-27582761D01*
X101766714Y-27487523D01*
X101719095Y-27392285D01*
X101671476Y-27201809D01*
X101671476Y-27058952D01*
X101719095Y-26868476D01*
X101766714Y-26773238D01*
X101861952Y-26678000D01*
X102004809Y-26630380D01*
X102100047Y-26630380D01*
X102242904Y-26678000D01*
X102290523Y-26725619D01*
X91821047Y-65349428D02*
X92582952Y-65349428D01*
X92202000Y-65730380D02*
X92202000Y-64968476D01*
X72747285Y-114371380D02*
X72747285Y-113371380D01*
X72985380Y-113371380D01*
X73128238Y-113419000D01*
X73223476Y-113514238D01*
X73271095Y-113609476D01*
X73318714Y-113799952D01*
X73318714Y-113942809D01*
X73271095Y-114133285D01*
X73223476Y-114228523D01*
X73128238Y-114323761D01*
X72985380Y-114371380D01*
X72747285Y-114371380D01*
X73937761Y-113371380D02*
X74128238Y-113371380D01*
X74223476Y-113419000D01*
X74318714Y-113514238D01*
X74366333Y-113704714D01*
X74366333Y-114038047D01*
X74318714Y-114228523D01*
X74223476Y-114323761D01*
X74128238Y-114371380D01*
X73937761Y-114371380D01*
X73842523Y-114323761D01*
X73747285Y-114228523D01*
X73699666Y-114038047D01*
X73699666Y-113704714D01*
X73747285Y-113514238D01*
X73842523Y-113419000D01*
X73937761Y-113371380D01*
X83240523Y-27535142D02*
X83192904Y-27582761D01*
X83050047Y-27630380D01*
X82954809Y-27630380D01*
X82811952Y-27582761D01*
X82716714Y-27487523D01*
X82669095Y-27392285D01*
X82621476Y-27201809D01*
X82621476Y-27058952D01*
X82669095Y-26868476D01*
X82716714Y-26773238D01*
X82811952Y-26678000D01*
X82954809Y-26630380D01*
X83050047Y-26630380D01*
X83192904Y-26678000D01*
X83240523Y-26725619D01*
X86463285Y-51379380D02*
X86463285Y-50379380D01*
X86701380Y-50379380D01*
X86844238Y-50427000D01*
X86939476Y-50522238D01*
X86987095Y-50617476D01*
X87034714Y-50807952D01*
X87034714Y-50950809D01*
X86987095Y-51141285D01*
X86939476Y-51236523D01*
X86844238Y-51331761D01*
X86701380Y-51379380D01*
X86463285Y-51379380D01*
X87653761Y-50379380D02*
X87844238Y-50379380D01*
X87939476Y-50427000D01*
X88034714Y-50522238D01*
X88082333Y-50712714D01*
X88082333Y-51046047D01*
X88034714Y-51236523D01*
X87939476Y-51331761D01*
X87844238Y-51379380D01*
X87653761Y-51379380D01*
X87558523Y-51331761D01*
X87463285Y-51236523D01*
X87415666Y-51046047D01*
X87415666Y-50712714D01*
X87463285Y-50522238D01*
X87558523Y-50427000D01*
X87653761Y-50379380D01*
X86463285Y-108529380D02*
X86463285Y-107529380D01*
X86701380Y-107529380D01*
X86844238Y-107577000D01*
X86939476Y-107672238D01*
X86987095Y-107767476D01*
X87034714Y-107957952D01*
X87034714Y-108100809D01*
X86987095Y-108291285D01*
X86939476Y-108386523D01*
X86844238Y-108481761D01*
X86701380Y-108529380D01*
X86463285Y-108529380D01*
X87653761Y-107529380D02*
X87844238Y-107529380D01*
X87939476Y-107577000D01*
X88034714Y-107672238D01*
X88082333Y-107862714D01*
X88082333Y-108196047D01*
X88034714Y-108386523D01*
X87939476Y-108481761D01*
X87844238Y-108529380D01*
X87653761Y-108529380D01*
X87558523Y-108481761D01*
X87463285Y-108386523D01*
X87415666Y-108196047D01*
X87415666Y-107862714D01*
X87463285Y-107672238D01*
X87558523Y-107577000D01*
X87653761Y-107529380D01*
X72826523Y-53665380D02*
X72493190Y-53189190D01*
X72255095Y-53665380D02*
X72255095Y-52665380D01*
X72636047Y-52665380D01*
X72731285Y-52713000D01*
X72778904Y-52760619D01*
X72826523Y-52855857D01*
X72826523Y-52998714D01*
X72778904Y-53093952D01*
X72731285Y-53141571D01*
X72636047Y-53189190D01*
X72255095Y-53189190D01*
X72398000Y-50998380D02*
X72398000Y-49998380D01*
X72636095Y-49998380D01*
X72778952Y-50046000D01*
X72874190Y-50141238D01*
X72921809Y-50236476D01*
X72969428Y-50426952D01*
X72969428Y-50569809D01*
X72921809Y-50760285D01*
X72874190Y-50855523D01*
X72778952Y-50950761D01*
X72636095Y-50998380D01*
X72398000Y-50998380D01*
X73398000Y-50998380D02*
X73398000Y-49998380D01*
X83240523Y-65635142D02*
X83192904Y-65682761D01*
X83050047Y-65730380D01*
X82954809Y-65730380D01*
X82811952Y-65682761D01*
X82716714Y-65587523D01*
X82669095Y-65492285D01*
X82621476Y-65301809D01*
X82621476Y-65158952D01*
X82669095Y-64968476D01*
X82716714Y-64873238D01*
X82811952Y-64778000D01*
X82954809Y-64730380D01*
X83050047Y-64730380D01*
X83192904Y-64778000D01*
X83240523Y-64825619D01*
X143263904Y-83828000D02*
X143168666Y-83780380D01*
X143025809Y-83780380D01*
X142882952Y-83828000D01*
X142787714Y-83923238D01*
X142740095Y-84018476D01*
X142692476Y-84208952D01*
X142692476Y-84351809D01*
X142740095Y-84542285D01*
X142787714Y-84637523D01*
X142882952Y-84732761D01*
X143025809Y-84780380D01*
X143121047Y-84780380D01*
X143263904Y-84732761D01*
X143311523Y-84685142D01*
X143311523Y-84351809D01*
X143121047Y-84351809D01*
X129897285Y-38171380D02*
X129897285Y-37171380D01*
X130135380Y-37171380D01*
X130278238Y-37219000D01*
X130373476Y-37314238D01*
X130421095Y-37409476D01*
X130468714Y-37599952D01*
X130468714Y-37742809D01*
X130421095Y-37933285D01*
X130373476Y-38028523D01*
X130278238Y-38123761D01*
X130135380Y-38171380D01*
X129897285Y-38171380D01*
X131087761Y-37171380D02*
X131278238Y-37171380D01*
X131373476Y-37219000D01*
X131468714Y-37314238D01*
X131516333Y-37504714D01*
X131516333Y-37838047D01*
X131468714Y-38028523D01*
X131373476Y-38123761D01*
X131278238Y-38171380D01*
X131087761Y-38171380D01*
X130992523Y-38123761D01*
X130897285Y-38028523D01*
X130849666Y-37838047D01*
X130849666Y-37504714D01*
X130897285Y-37314238D01*
X130992523Y-37219000D01*
X131087761Y-37171380D01*
X110363047Y-61031428D02*
X111124952Y-61031428D01*
X110744000Y-61412380D02*
X110744000Y-60650476D01*
X83240523Y-100433142D02*
X83192904Y-100480761D01*
X83050047Y-100528380D01*
X82954809Y-100528380D01*
X82811952Y-100480761D01*
X82716714Y-100385523D01*
X82669095Y-100290285D01*
X82621476Y-100099809D01*
X82621476Y-99956952D01*
X82669095Y-99766476D01*
X82716714Y-99671238D01*
X82811952Y-99576000D01*
X82954809Y-99528380D01*
X83050047Y-99528380D01*
X83192904Y-99576000D01*
X83240523Y-99623619D01*
X129413047Y-41981428D02*
X130174952Y-41981428D01*
X129794000Y-42362380D02*
X129794000Y-41600476D01*
X143644904Y-117610000D02*
X143549666Y-117562380D01*
X143406809Y-117562380D01*
X143263952Y-117610000D01*
X143168714Y-117705238D01*
X143121095Y-117800476D01*
X143073476Y-117990952D01*
X143073476Y-118133809D01*
X143121095Y-118324285D01*
X143168714Y-118419523D01*
X143263952Y-118514761D01*
X143406809Y-118562380D01*
X143502047Y-118562380D01*
X143644904Y-118514761D01*
X143692523Y-118467142D01*
X143692523Y-118133809D01*
X143502047Y-118133809D01*
X105592523Y-110942380D02*
X105259190Y-110466190D01*
X105021095Y-110942380D02*
X105021095Y-109942380D01*
X105402047Y-109942380D01*
X105497285Y-109990000D01*
X105544904Y-110037619D01*
X105592523Y-110132857D01*
X105592523Y-110275714D01*
X105544904Y-110370952D01*
X105497285Y-110418571D01*
X105402047Y-110466190D01*
X105021095Y-110466190D01*
X53697285Y-57221380D02*
X53697285Y-56221380D01*
X53935380Y-56221380D01*
X54078238Y-56269000D01*
X54173476Y-56364238D01*
X54221095Y-56459476D01*
X54268714Y-56649952D01*
X54268714Y-56792809D01*
X54221095Y-56983285D01*
X54173476Y-57078523D01*
X54078238Y-57173761D01*
X53935380Y-57221380D01*
X53697285Y-57221380D01*
X54887761Y-56221380D02*
X55078238Y-56221380D01*
X55173476Y-56269000D01*
X55268714Y-56364238D01*
X55316333Y-56554714D01*
X55316333Y-56888047D01*
X55268714Y-57078523D01*
X55173476Y-57173761D01*
X55078238Y-57221380D01*
X54887761Y-57221380D01*
X54792523Y-57173761D01*
X54697285Y-57078523D01*
X54649666Y-56888047D01*
X54649666Y-56554714D01*
X54697285Y-56364238D01*
X54792523Y-56269000D01*
X54887761Y-56221380D01*
X83240523Y-84685142D02*
X83192904Y-84732761D01*
X83050047Y-84780380D01*
X82954809Y-84780380D01*
X82811952Y-84732761D01*
X82716714Y-84637523D01*
X82669095Y-84542285D01*
X82621476Y-84351809D01*
X82621476Y-84208952D01*
X82669095Y-84018476D01*
X82716714Y-83923238D01*
X82811952Y-83828000D01*
X82954809Y-83780380D01*
X83050047Y-83780380D01*
X83192904Y-83828000D01*
X83240523Y-83875619D01*
X105926000Y-57856380D02*
X105926000Y-56856380D01*
X106164095Y-56856380D01*
X106306952Y-56904000D01*
X106402190Y-56999238D01*
X106449809Y-57094476D01*
X106497428Y-57284952D01*
X106497428Y-57427809D01*
X106449809Y-57618285D01*
X106402190Y-57713523D01*
X106306952Y-57808761D01*
X106164095Y-57856380D01*
X105926000Y-57856380D01*
X106926000Y-57856380D02*
X106926000Y-56856380D01*
X86463285Y-70429380D02*
X86463285Y-69429380D01*
X86701380Y-69429380D01*
X86844238Y-69477000D01*
X86939476Y-69572238D01*
X86987095Y-69667476D01*
X87034714Y-69857952D01*
X87034714Y-70000809D01*
X86987095Y-70191285D01*
X86939476Y-70286523D01*
X86844238Y-70381761D01*
X86701380Y-70429380D01*
X86463285Y-70429380D01*
X87653761Y-69429380D02*
X87844238Y-69429380D01*
X87939476Y-69477000D01*
X88034714Y-69572238D01*
X88082333Y-69762714D01*
X88082333Y-70096047D01*
X88034714Y-70286523D01*
X87939476Y-70381761D01*
X87844238Y-70429380D01*
X87653761Y-70429380D01*
X87558523Y-70381761D01*
X87463285Y-70286523D01*
X87415666Y-70096047D01*
X87415666Y-69762714D01*
X87463285Y-69572238D01*
X87558523Y-69477000D01*
X87653761Y-69429380D01*
X121340523Y-43283142D02*
X121292904Y-43330761D01*
X121150047Y-43378380D01*
X121054809Y-43378380D01*
X120911952Y-43330761D01*
X120816714Y-43235523D01*
X120769095Y-43140285D01*
X120721476Y-42949809D01*
X120721476Y-42806952D01*
X120769095Y-42616476D01*
X120816714Y-42521238D01*
X120911952Y-42426000D01*
X121054809Y-42378380D01*
X121150047Y-42378380D01*
X121292904Y-42426000D01*
X121340523Y-42473619D01*
X83240523Y-81383142D02*
X83192904Y-81430761D01*
X83050047Y-81478380D01*
X82954809Y-81478380D01*
X82811952Y-81430761D01*
X82716714Y-81335523D01*
X82669095Y-81240285D01*
X82621476Y-81049809D01*
X82621476Y-80906952D01*
X82669095Y-80716476D01*
X82716714Y-80621238D01*
X82811952Y-80526000D01*
X82954809Y-80478380D01*
X83050047Y-80478380D01*
X83192904Y-80526000D01*
X83240523Y-80573619D01*
X110847285Y-114371380D02*
X110847285Y-113371380D01*
X111085380Y-113371380D01*
X111228238Y-113419000D01*
X111323476Y-113514238D01*
X111371095Y-113609476D01*
X111418714Y-113799952D01*
X111418714Y-113942809D01*
X111371095Y-114133285D01*
X111323476Y-114228523D01*
X111228238Y-114323761D01*
X111085380Y-114371380D01*
X110847285Y-114371380D01*
X112037761Y-113371380D02*
X112228238Y-113371380D01*
X112323476Y-113419000D01*
X112418714Y-113514238D01*
X112466333Y-113704714D01*
X112466333Y-114038047D01*
X112418714Y-114228523D01*
X112323476Y-114323761D01*
X112228238Y-114371380D01*
X112037761Y-114371380D01*
X111942523Y-114323761D01*
X111847285Y-114228523D01*
X111799666Y-114038047D01*
X111799666Y-113704714D01*
X111847285Y-113514238D01*
X111942523Y-113419000D01*
X112037761Y-113371380D01*
X91313047Y-99131428D02*
X92074952Y-99131428D01*
X91694000Y-99512380D02*
X91694000Y-98750476D01*
X67063904Y-45728000D02*
X66968666Y-45680380D01*
X66825809Y-45680380D01*
X66682952Y-45728000D01*
X66587714Y-45823238D01*
X66540095Y-45918476D01*
X66492476Y-46108952D01*
X66492476Y-46251809D01*
X66540095Y-46442285D01*
X66587714Y-46537523D01*
X66682952Y-46632761D01*
X66825809Y-46680380D01*
X66921047Y-46680380D01*
X67063904Y-46632761D01*
X67111523Y-46585142D01*
X67111523Y-46251809D01*
X66921047Y-46251809D01*
X143263904Y-26678000D02*
X143168666Y-26630380D01*
X143025809Y-26630380D01*
X142882952Y-26678000D01*
X142787714Y-26773238D01*
X142740095Y-26868476D01*
X142692476Y-27058952D01*
X142692476Y-27201809D01*
X142740095Y-27392285D01*
X142787714Y-27487523D01*
X142882952Y-27582761D01*
X143025809Y-27630380D01*
X143121047Y-27630380D01*
X143263904Y-27582761D01*
X143311523Y-27535142D01*
X143311523Y-27201809D01*
X143121047Y-27201809D01*
X83240523Y-62333142D02*
X83192904Y-62380761D01*
X83050047Y-62428380D01*
X82954809Y-62428380D01*
X82811952Y-62380761D01*
X82716714Y-62285523D01*
X82669095Y-62190285D01*
X82621476Y-61999809D01*
X82621476Y-61856952D01*
X82669095Y-61666476D01*
X82716714Y-61571238D01*
X82811952Y-61476000D01*
X82954809Y-61428380D01*
X83050047Y-61428380D01*
X83192904Y-61476000D01*
X83240523Y-61523619D01*
X124642523Y-72842380D02*
X124309190Y-72366190D01*
X124071095Y-72842380D02*
X124071095Y-71842380D01*
X124452047Y-71842380D01*
X124547285Y-71890000D01*
X124594904Y-71937619D01*
X124642523Y-72032857D01*
X124642523Y-72175714D01*
X124594904Y-72270952D01*
X124547285Y-72318571D01*
X124452047Y-72366190D01*
X124071095Y-72366190D01*
X105163904Y-45728000D02*
X105068666Y-45680380D01*
X104925809Y-45680380D01*
X104782952Y-45728000D01*
X104687714Y-45823238D01*
X104640095Y-45918476D01*
X104592476Y-46108952D01*
X104592476Y-46251809D01*
X104640095Y-46442285D01*
X104687714Y-46537523D01*
X104782952Y-46632761D01*
X104925809Y-46680380D01*
X105021047Y-46680380D01*
X105163904Y-46632761D01*
X105211523Y-46585142D01*
X105211523Y-46251809D01*
X105021047Y-46251809D01*
X67444904Y-98560000D02*
X67349666Y-98512380D01*
X67206809Y-98512380D01*
X67063952Y-98560000D01*
X66968714Y-98655238D01*
X66921095Y-98750476D01*
X66873476Y-98940952D01*
X66873476Y-99083809D01*
X66921095Y-99274285D01*
X66968714Y-99369523D01*
X67063952Y-99464761D01*
X67206809Y-99512380D01*
X67302047Y-99512380D01*
X67444904Y-99464761D01*
X67492523Y-99417142D01*
X67492523Y-99083809D01*
X67302047Y-99083809D01*
X105163904Y-102878000D02*
X105068666Y-102830380D01*
X104925809Y-102830380D01*
X104782952Y-102878000D01*
X104687714Y-102973238D01*
X104640095Y-103068476D01*
X104592476Y-103258952D01*
X104592476Y-103401809D01*
X104640095Y-103592285D01*
X104687714Y-103687523D01*
X104782952Y-103782761D01*
X104925809Y-103830380D01*
X105021047Y-103830380D01*
X105163904Y-103782761D01*
X105211523Y-103735142D01*
X105211523Y-103401809D01*
X105021047Y-103401809D01*
X129921047Y-65349428D02*
X130682952Y-65349428D01*
X130302000Y-65730380D02*
X130302000Y-64968476D01*
X91797285Y-95321380D02*
X91797285Y-94321380D01*
X92035380Y-94321380D01*
X92178238Y-94369000D01*
X92273476Y-94464238D01*
X92321095Y-94559476D01*
X92368714Y-94749952D01*
X92368714Y-94892809D01*
X92321095Y-95083285D01*
X92273476Y-95178523D01*
X92178238Y-95273761D01*
X92035380Y-95321380D01*
X91797285Y-95321380D01*
X92987761Y-94321380D02*
X93178238Y-94321380D01*
X93273476Y-94369000D01*
X93368714Y-94464238D01*
X93416333Y-94654714D01*
X93416333Y-94988047D01*
X93368714Y-95178523D01*
X93273476Y-95273761D01*
X93178238Y-95321380D01*
X92987761Y-95321380D01*
X92892523Y-95273761D01*
X92797285Y-95178523D01*
X92749666Y-94988047D01*
X92749666Y-94654714D01*
X92797285Y-94464238D01*
X92892523Y-94369000D01*
X92987761Y-94321380D01*
X86494904Y-117610000D02*
X86399666Y-117562380D01*
X86256809Y-117562380D01*
X86113952Y-117610000D01*
X86018714Y-117705238D01*
X85971095Y-117800476D01*
X85923476Y-117990952D01*
X85923476Y-118133809D01*
X85971095Y-118324285D01*
X86018714Y-118419523D01*
X86113952Y-118514761D01*
X86256809Y-118562380D01*
X86352047Y-118562380D01*
X86494904Y-118514761D01*
X86542523Y-118467142D01*
X86542523Y-118133809D01*
X86352047Y-118133809D01*
X53721047Y-27249428D02*
X54482952Y-27249428D01*
X54102000Y-27630380D02*
X54102000Y-26868476D01*
X105513285Y-89479380D02*
X105513285Y-88479380D01*
X105751380Y-88479380D01*
X105894238Y-88527000D01*
X105989476Y-88622238D01*
X106037095Y-88717476D01*
X106084714Y-88907952D01*
X106084714Y-89050809D01*
X106037095Y-89241285D01*
X105989476Y-89336523D01*
X105894238Y-89431761D01*
X105751380Y-89479380D01*
X105513285Y-89479380D01*
X106703761Y-88479380D02*
X106894238Y-88479380D01*
X106989476Y-88527000D01*
X107084714Y-88622238D01*
X107132333Y-88812714D01*
X107132333Y-89146047D01*
X107084714Y-89336523D01*
X106989476Y-89431761D01*
X106894238Y-89479380D01*
X106703761Y-89479380D01*
X106608523Y-89431761D01*
X106513285Y-89336523D01*
X106465666Y-89146047D01*
X106465666Y-88812714D01*
X106513285Y-88622238D01*
X106608523Y-88527000D01*
X106703761Y-88479380D01*
X67444904Y-60460000D02*
X67349666Y-60412380D01*
X67206809Y-60412380D01*
X67063952Y-60460000D01*
X66968714Y-60555238D01*
X66921095Y-60650476D01*
X66873476Y-60840952D01*
X66873476Y-60983809D01*
X66921095Y-61174285D01*
X66968714Y-61269523D01*
X67063952Y-61364761D01*
X67206809Y-61412380D01*
X67302047Y-61412380D01*
X67444904Y-61364761D01*
X67492523Y-61317142D01*
X67492523Y-60983809D01*
X67302047Y-60983809D01*
X67826000Y-57856380D02*
X67826000Y-56856380D01*
X68064095Y-56856380D01*
X68206952Y-56904000D01*
X68302190Y-56999238D01*
X68349809Y-57094476D01*
X68397428Y-57284952D01*
X68397428Y-57427809D01*
X68349809Y-57618285D01*
X68302190Y-57713523D01*
X68206952Y-57808761D01*
X68064095Y-57856380D01*
X67826000Y-57856380D01*
X68826000Y-57856380D02*
X68826000Y-56856380D01*
X143613285Y-108529380D02*
X143613285Y-107529380D01*
X143851380Y-107529380D01*
X143994238Y-107577000D01*
X144089476Y-107672238D01*
X144137095Y-107767476D01*
X144184714Y-107957952D01*
X144184714Y-108100809D01*
X144137095Y-108291285D01*
X144089476Y-108386523D01*
X143994238Y-108481761D01*
X143851380Y-108529380D01*
X143613285Y-108529380D01*
X144803761Y-107529380D02*
X144994238Y-107529380D01*
X145089476Y-107577000D01*
X145184714Y-107672238D01*
X145232333Y-107862714D01*
X145232333Y-108196047D01*
X145184714Y-108386523D01*
X145089476Y-108481761D01*
X144994238Y-108529380D01*
X144803761Y-108529380D01*
X144708523Y-108481761D01*
X144613285Y-108386523D01*
X144565666Y-108196047D01*
X144565666Y-107862714D01*
X144613285Y-107672238D01*
X144708523Y-107577000D01*
X144803761Y-107529380D01*
X91797285Y-38171380D02*
X91797285Y-37171380D01*
X92035380Y-37171380D01*
X92178238Y-37219000D01*
X92273476Y-37314238D01*
X92321095Y-37409476D01*
X92368714Y-37599952D01*
X92368714Y-37742809D01*
X92321095Y-37933285D01*
X92273476Y-38028523D01*
X92178238Y-38123761D01*
X92035380Y-38171380D01*
X91797285Y-38171380D01*
X92987761Y-37171380D02*
X93178238Y-37171380D01*
X93273476Y-37219000D01*
X93368714Y-37314238D01*
X93416333Y-37504714D01*
X93416333Y-37838047D01*
X93368714Y-38028523D01*
X93273476Y-38123761D01*
X93178238Y-38171380D01*
X92987761Y-38171380D01*
X92892523Y-38123761D01*
X92797285Y-38028523D01*
X92749666Y-37838047D01*
X92749666Y-37504714D01*
X92797285Y-37314238D01*
X92892523Y-37219000D01*
X92987761Y-37171380D01*
X124563285Y-32329380D02*
X124563285Y-31329380D01*
X124801380Y-31329380D01*
X124944238Y-31377000D01*
X125039476Y-31472238D01*
X125087095Y-31567476D01*
X125134714Y-31757952D01*
X125134714Y-31900809D01*
X125087095Y-32091285D01*
X125039476Y-32186523D01*
X124944238Y-32281761D01*
X124801380Y-32329380D01*
X124563285Y-32329380D01*
X125753761Y-31329380D02*
X125944238Y-31329380D01*
X126039476Y-31377000D01*
X126134714Y-31472238D01*
X126182333Y-31662714D01*
X126182333Y-31996047D01*
X126134714Y-32186523D01*
X126039476Y-32281761D01*
X125944238Y-32329380D01*
X125753761Y-32329380D01*
X125658523Y-32281761D01*
X125563285Y-32186523D01*
X125515666Y-31996047D01*
X125515666Y-31662714D01*
X125563285Y-31472238D01*
X125658523Y-31377000D01*
X125753761Y-31329380D01*
X72771047Y-27249428D02*
X73532952Y-27249428D01*
X73152000Y-27630380D02*
X73152000Y-26868476D01*
X140390523Y-81383142D02*
X140342904Y-81430761D01*
X140200047Y-81478380D01*
X140104809Y-81478380D01*
X139961952Y-81430761D01*
X139866714Y-81335523D01*
X139819095Y-81240285D01*
X139771476Y-81049809D01*
X139771476Y-80906952D01*
X139819095Y-80716476D01*
X139866714Y-80621238D01*
X139961952Y-80526000D01*
X140104809Y-80478380D01*
X140200047Y-80478380D01*
X140342904Y-80526000D01*
X140390523Y-80573619D01*
X110847285Y-76271380D02*
X110847285Y-75271380D01*
X111085380Y-75271380D01*
X111228238Y-75319000D01*
X111323476Y-75414238D01*
X111371095Y-75509476D01*
X111418714Y-75699952D01*
X111418714Y-75842809D01*
X111371095Y-76033285D01*
X111323476Y-76128523D01*
X111228238Y-76223761D01*
X111085380Y-76271380D01*
X110847285Y-76271380D01*
X112037761Y-75271380D02*
X112228238Y-75271380D01*
X112323476Y-75319000D01*
X112418714Y-75414238D01*
X112466333Y-75604714D01*
X112466333Y-75938047D01*
X112418714Y-76128523D01*
X112323476Y-76223761D01*
X112228238Y-76271380D01*
X112037761Y-76271380D01*
X111942523Y-76223761D01*
X111847285Y-76128523D01*
X111799666Y-75938047D01*
X111799666Y-75604714D01*
X111847285Y-75414238D01*
X111942523Y-75319000D01*
X112037761Y-75271380D01*
X105592523Y-72842380D02*
X105259190Y-72366190D01*
X105021095Y-72842380D02*
X105021095Y-71842380D01*
X105402047Y-71842380D01*
X105497285Y-71890000D01*
X105544904Y-71937619D01*
X105592523Y-72032857D01*
X105592523Y-72175714D01*
X105544904Y-72270952D01*
X105497285Y-72318571D01*
X105402047Y-72366190D01*
X105021095Y-72366190D01*
X143644904Y-98560000D02*
X143549666Y-98512380D01*
X143406809Y-98512380D01*
X143263952Y-98560000D01*
X143168714Y-98655238D01*
X143121095Y-98750476D01*
X143073476Y-98940952D01*
X143073476Y-99083809D01*
X143121095Y-99274285D01*
X143168714Y-99369523D01*
X143263952Y-99464761D01*
X143406809Y-99512380D01*
X143502047Y-99512380D01*
X143644904Y-99464761D01*
X143692523Y-99417142D01*
X143692523Y-99083809D01*
X143502047Y-99083809D01*
X140390523Y-100433142D02*
X140342904Y-100480761D01*
X140200047Y-100528380D01*
X140104809Y-100528380D01*
X139961952Y-100480761D01*
X139866714Y-100385523D01*
X139819095Y-100290285D01*
X139771476Y-100099809D01*
X139771476Y-99956952D01*
X139819095Y-99766476D01*
X139866714Y-99671238D01*
X139961952Y-99576000D01*
X140104809Y-99528380D01*
X140200047Y-99528380D01*
X140342904Y-99576000D01*
X140390523Y-99623619D01*
X53348000Y-31948380D02*
X53348000Y-30948380D01*
X53586095Y-30948380D01*
X53728952Y-30996000D01*
X53824190Y-31091238D01*
X53871809Y-31186476D01*
X53919428Y-31376952D01*
X53919428Y-31519809D01*
X53871809Y-31710285D01*
X53824190Y-31805523D01*
X53728952Y-31900761D01*
X53586095Y-31948380D01*
X53348000Y-31948380D01*
X54348000Y-31948380D02*
X54348000Y-30948380D01*
X86463285Y-32329380D02*
X86463285Y-31329380D01*
X86701380Y-31329380D01*
X86844238Y-31377000D01*
X86939476Y-31472238D01*
X86987095Y-31567476D01*
X87034714Y-31757952D01*
X87034714Y-31900809D01*
X86987095Y-32091285D01*
X86939476Y-32186523D01*
X86844238Y-32281761D01*
X86701380Y-32329380D01*
X86463285Y-32329380D01*
X87653761Y-31329380D02*
X87844238Y-31329380D01*
X87939476Y-31377000D01*
X88034714Y-31472238D01*
X88082333Y-31662714D01*
X88082333Y-31996047D01*
X88034714Y-32186523D01*
X87939476Y-32281761D01*
X87844238Y-32329380D01*
X87653761Y-32329380D01*
X87558523Y-32281761D01*
X87463285Y-32186523D01*
X87415666Y-31996047D01*
X87415666Y-31662714D01*
X87463285Y-31472238D01*
X87558523Y-31377000D01*
X87653761Y-31329380D01*
X143613285Y-70429380D02*
X143613285Y-69429380D01*
X143851380Y-69429380D01*
X143994238Y-69477000D01*
X144089476Y-69572238D01*
X144137095Y-69667476D01*
X144184714Y-69857952D01*
X144184714Y-70000809D01*
X144137095Y-70191285D01*
X144089476Y-70286523D01*
X143994238Y-70381761D01*
X143851380Y-70429380D01*
X143613285Y-70429380D01*
X144803761Y-69429380D02*
X144994238Y-69429380D01*
X145089476Y-69477000D01*
X145184714Y-69572238D01*
X145232333Y-69762714D01*
X145232333Y-70096047D01*
X145184714Y-70286523D01*
X145089476Y-70381761D01*
X144994238Y-70429380D01*
X144803761Y-70429380D01*
X144708523Y-70381761D01*
X144613285Y-70286523D01*
X144565666Y-70096047D01*
X144565666Y-69762714D01*
X144613285Y-69572238D01*
X144708523Y-69477000D01*
X144803761Y-69429380D01*
X143644904Y-79510000D02*
X143549666Y-79462380D01*
X143406809Y-79462380D01*
X143263952Y-79510000D01*
X143168714Y-79605238D01*
X143121095Y-79700476D01*
X143073476Y-79890952D01*
X143073476Y-80033809D01*
X143121095Y-80224285D01*
X143168714Y-80319523D01*
X143263952Y-80414761D01*
X143406809Y-80462380D01*
X143502047Y-80462380D01*
X143644904Y-80414761D01*
X143692523Y-80367142D01*
X143692523Y-80033809D01*
X143502047Y-80033809D01*
X110926523Y-91765380D02*
X110593190Y-91289190D01*
X110355095Y-91765380D02*
X110355095Y-90765380D01*
X110736047Y-90765380D01*
X110831285Y-90813000D01*
X110878904Y-90860619D01*
X110926523Y-90955857D01*
X110926523Y-91098714D01*
X110878904Y-91193952D01*
X110831285Y-91241571D01*
X110736047Y-91289190D01*
X110355095Y-91289190D01*
X129897285Y-114371380D02*
X129897285Y-113371380D01*
X130135380Y-113371380D01*
X130278238Y-113419000D01*
X130373476Y-113514238D01*
X130421095Y-113609476D01*
X130468714Y-113799952D01*
X130468714Y-113942809D01*
X130421095Y-114133285D01*
X130373476Y-114228523D01*
X130278238Y-114323761D01*
X130135380Y-114371380D01*
X129897285Y-114371380D01*
X131087761Y-113371380D02*
X131278238Y-113371380D01*
X131373476Y-113419000D01*
X131468714Y-113514238D01*
X131516333Y-113704714D01*
X131516333Y-114038047D01*
X131468714Y-114228523D01*
X131373476Y-114323761D01*
X131278238Y-114371380D01*
X131087761Y-114371380D01*
X130992523Y-114323761D01*
X130897285Y-114228523D01*
X130849666Y-114038047D01*
X130849666Y-113704714D01*
X130897285Y-113514238D01*
X130992523Y-113419000D01*
X131087761Y-113371380D01*
X67444904Y-79510000D02*
X67349666Y-79462380D01*
X67206809Y-79462380D01*
X67063952Y-79510000D01*
X66968714Y-79605238D01*
X66921095Y-79700476D01*
X66873476Y-79890952D01*
X66873476Y-80033809D01*
X66921095Y-80224285D01*
X66968714Y-80319523D01*
X67063952Y-80414761D01*
X67206809Y-80462380D01*
X67302047Y-80462380D01*
X67444904Y-80414761D01*
X67492523Y-80367142D01*
X67492523Y-80033809D01*
X67302047Y-80033809D01*
X91821047Y-27249428D02*
X92582952Y-27249428D01*
X92202000Y-27630380D02*
X92202000Y-26868476D01*
X124594904Y-41410000D02*
X124499666Y-41362380D01*
X124356809Y-41362380D01*
X124213952Y-41410000D01*
X124118714Y-41505238D01*
X124071095Y-41600476D01*
X124023476Y-41790952D01*
X124023476Y-41933809D01*
X124071095Y-42124285D01*
X124118714Y-42219523D01*
X124213952Y-42314761D01*
X124356809Y-42362380D01*
X124452047Y-42362380D01*
X124594904Y-42314761D01*
X124642523Y-42267142D01*
X124642523Y-41933809D01*
X124452047Y-41933809D01*
X110926523Y-110815380D02*
X110593190Y-110339190D01*
X110355095Y-110815380D02*
X110355095Y-109815380D01*
X110736047Y-109815380D01*
X110831285Y-109863000D01*
X110878904Y-109910619D01*
X110926523Y-110005857D01*
X110926523Y-110148714D01*
X110878904Y-110243952D01*
X110831285Y-110291571D01*
X110736047Y-110339190D01*
X110355095Y-110339190D01*
X53213047Y-41981428D02*
X53974952Y-41981428D01*
X53594000Y-42362380D02*
X53594000Y-41600476D01*
X124213904Y-26678000D02*
X124118666Y-26630380D01*
X123975809Y-26630380D01*
X123832952Y-26678000D01*
X123737714Y-26773238D01*
X123690095Y-26868476D01*
X123642476Y-27058952D01*
X123642476Y-27201809D01*
X123690095Y-27392285D01*
X123737714Y-27487523D01*
X123832952Y-27582761D01*
X123975809Y-27630380D01*
X124071047Y-27630380D01*
X124213904Y-27582761D01*
X124261523Y-27535142D01*
X124261523Y-27201809D01*
X124071047Y-27201809D01*
X105926000Y-76906380D02*
X105926000Y-75906380D01*
X106164095Y-75906380D01*
X106306952Y-75954000D01*
X106402190Y-76049238D01*
X106449809Y-76144476D01*
X106497428Y-76334952D01*
X106497428Y-76477809D01*
X106449809Y-76668285D01*
X106402190Y-76763523D01*
X106306952Y-76858761D01*
X106164095Y-76906380D01*
X105926000Y-76906380D01*
X106926000Y-76906380D02*
X106926000Y-75906380D01*
X67413285Y-51379380D02*
X67413285Y-50379380D01*
X67651380Y-50379380D01*
X67794238Y-50427000D01*
X67889476Y-50522238D01*
X67937095Y-50617476D01*
X67984714Y-50807952D01*
X67984714Y-50950809D01*
X67937095Y-51141285D01*
X67889476Y-51236523D01*
X67794238Y-51331761D01*
X67651380Y-51379380D01*
X67413285Y-51379380D01*
X68603761Y-50379380D02*
X68794238Y-50379380D01*
X68889476Y-50427000D01*
X68984714Y-50522238D01*
X69032333Y-50712714D01*
X69032333Y-51046047D01*
X68984714Y-51236523D01*
X68889476Y-51331761D01*
X68794238Y-51379380D01*
X68603761Y-51379380D01*
X68508523Y-51331761D01*
X68413285Y-51236523D01*
X68365666Y-51046047D01*
X68365666Y-50712714D01*
X68413285Y-50522238D01*
X68508523Y-50427000D01*
X68603761Y-50379380D01*
X91876523Y-91765380D02*
X91543190Y-91289190D01*
X91305095Y-91765380D02*
X91305095Y-90765380D01*
X91686047Y-90765380D01*
X91781285Y-90813000D01*
X91828904Y-90860619D01*
X91876523Y-90955857D01*
X91876523Y-91098714D01*
X91828904Y-91193952D01*
X91781285Y-91241571D01*
X91686047Y-91289190D01*
X91305095Y-91289190D01*
X53721047Y-65349428D02*
X54482952Y-65349428D01*
X54102000Y-65730380D02*
X54102000Y-64968476D01*
X53697285Y-95321380D02*
X53697285Y-94321380D01*
X53935380Y-94321380D01*
X54078238Y-94369000D01*
X54173476Y-94464238D01*
X54221095Y-94559476D01*
X54268714Y-94749952D01*
X54268714Y-94892809D01*
X54221095Y-95083285D01*
X54173476Y-95178523D01*
X54078238Y-95273761D01*
X53935380Y-95321380D01*
X53697285Y-95321380D01*
X54887761Y-94321380D02*
X55078238Y-94321380D01*
X55173476Y-94369000D01*
X55268714Y-94464238D01*
X55316333Y-94654714D01*
X55316333Y-94988047D01*
X55268714Y-95178523D01*
X55173476Y-95273761D01*
X55078238Y-95321380D01*
X54887761Y-95321380D01*
X54792523Y-95273761D01*
X54697285Y-95178523D01*
X54649666Y-94988047D01*
X54649666Y-94654714D01*
X54697285Y-94464238D01*
X54792523Y-94369000D01*
X54887761Y-94321380D01*
X91876523Y-53665380D02*
X91543190Y-53189190D01*
X91305095Y-53665380D02*
X91305095Y-52665380D01*
X91686047Y-52665380D01*
X91781285Y-52713000D01*
X91828904Y-52760619D01*
X91876523Y-52855857D01*
X91876523Y-52998714D01*
X91828904Y-53093952D01*
X91781285Y-53141571D01*
X91686047Y-53189190D01*
X91305095Y-53189190D01*
X105163904Y-83828000D02*
X105068666Y-83780380D01*
X104925809Y-83780380D01*
X104782952Y-83828000D01*
X104687714Y-83923238D01*
X104640095Y-84018476D01*
X104592476Y-84208952D01*
X104592476Y-84351809D01*
X104640095Y-84542285D01*
X104687714Y-84637523D01*
X104782952Y-84732761D01*
X104925809Y-84780380D01*
X105021047Y-84780380D01*
X105163904Y-84732761D01*
X105211523Y-84685142D01*
X105211523Y-84351809D01*
X105021047Y-84351809D01*
X143644904Y-41410000D02*
X143549666Y-41362380D01*
X143406809Y-41362380D01*
X143263952Y-41410000D01*
X143168714Y-41505238D01*
X143121095Y-41600476D01*
X143073476Y-41790952D01*
X143073476Y-41933809D01*
X143121095Y-42124285D01*
X143168714Y-42219523D01*
X143263952Y-42314761D01*
X143406809Y-42362380D01*
X143502047Y-42362380D01*
X143644904Y-42314761D01*
X143692523Y-42267142D01*
X143692523Y-41933809D01*
X143502047Y-41933809D01*
X72263047Y-61031428D02*
X73024952Y-61031428D01*
X72644000Y-61412380D02*
X72644000Y-60650476D01*
X129897285Y-95321380D02*
X129897285Y-94321380D01*
X130135380Y-94321380D01*
X130278238Y-94369000D01*
X130373476Y-94464238D01*
X130421095Y-94559476D01*
X130468714Y-94749952D01*
X130468714Y-94892809D01*
X130421095Y-95083285D01*
X130373476Y-95178523D01*
X130278238Y-95273761D01*
X130135380Y-95321380D01*
X129897285Y-95321380D01*
X131087761Y-94321380D02*
X131278238Y-94321380D01*
X131373476Y-94369000D01*
X131468714Y-94464238D01*
X131516333Y-94654714D01*
X131516333Y-94988047D01*
X131468714Y-95178523D01*
X131373476Y-95273761D01*
X131278238Y-95321380D01*
X131087761Y-95321380D01*
X130992523Y-95273761D01*
X130897285Y-95178523D01*
X130849666Y-94988047D01*
X130849666Y-94654714D01*
X130897285Y-94464238D01*
X130992523Y-94369000D01*
X131087761Y-94321380D01*
X105926000Y-38806380D02*
X105926000Y-37806380D01*
X106164095Y-37806380D01*
X106306952Y-37854000D01*
X106402190Y-37949238D01*
X106449809Y-38044476D01*
X106497428Y-38234952D01*
X106497428Y-38377809D01*
X106449809Y-38568285D01*
X106402190Y-38663523D01*
X106306952Y-38758761D01*
X106164095Y-38806380D01*
X105926000Y-38806380D01*
X106926000Y-38806380D02*
X106926000Y-37806380D01*
X91448000Y-89098380D02*
X91448000Y-88098380D01*
X91686095Y-88098380D01*
X91828952Y-88146000D01*
X91924190Y-88241238D01*
X91971809Y-88336476D01*
X92019428Y-88526952D01*
X92019428Y-88669809D01*
X91971809Y-88860285D01*
X91924190Y-88955523D01*
X91828952Y-89050761D01*
X91686095Y-89098380D01*
X91448000Y-89098380D01*
X92448000Y-89098380D02*
X92448000Y-88098380D01*
X86876000Y-38806380D02*
X86876000Y-37806380D01*
X87114095Y-37806380D01*
X87256952Y-37854000D01*
X87352190Y-37949238D01*
X87399809Y-38044476D01*
X87447428Y-38234952D01*
X87447428Y-38377809D01*
X87399809Y-38568285D01*
X87352190Y-38663523D01*
X87256952Y-38758761D01*
X87114095Y-38806380D01*
X86876000Y-38806380D01*
X87876000Y-38806380D02*
X87876000Y-37806380D01*
X53348000Y-70048380D02*
X53348000Y-69048380D01*
X53586095Y-69048380D01*
X53728952Y-69096000D01*
X53824190Y-69191238D01*
X53871809Y-69286476D01*
X53919428Y-69476952D01*
X53919428Y-69619809D01*
X53871809Y-69810285D01*
X53824190Y-69905523D01*
X53728952Y-70000761D01*
X53586095Y-70048380D01*
X53348000Y-70048380D01*
X54348000Y-70048380D02*
X54348000Y-69048380D01*
X53213047Y-99131428D02*
X53974952Y-99131428D01*
X53594000Y-99512380D02*
X53594000Y-98750476D01*
X72747285Y-57221380D02*
X72747285Y-56221380D01*
X72985380Y-56221380D01*
X73128238Y-56269000D01*
X73223476Y-56364238D01*
X73271095Y-56459476D01*
X73318714Y-56649952D01*
X73318714Y-56792809D01*
X73271095Y-56983285D01*
X73223476Y-57078523D01*
X73128238Y-57173761D01*
X72985380Y-57221380D01*
X72747285Y-57221380D01*
X73937761Y-56221380D02*
X74128238Y-56221380D01*
X74223476Y-56269000D01*
X74318714Y-56364238D01*
X74366333Y-56554714D01*
X74366333Y-56888047D01*
X74318714Y-57078523D01*
X74223476Y-57173761D01*
X74128238Y-57221380D01*
X73937761Y-57221380D01*
X73842523Y-57173761D01*
X73747285Y-57078523D01*
X73699666Y-56888047D01*
X73699666Y-56554714D01*
X73747285Y-56364238D01*
X73842523Y-56269000D01*
X73937761Y-56221380D01*
X53213047Y-80081428D02*
X53974952Y-80081428D01*
X53594000Y-80462380D02*
X53594000Y-79700476D01*
X144026000Y-38806380D02*
X144026000Y-37806380D01*
X144264095Y-37806380D01*
X144406952Y-37854000D01*
X144502190Y-37949238D01*
X144549809Y-38044476D01*
X144597428Y-38234952D01*
X144597428Y-38377809D01*
X144549809Y-38568285D01*
X144502190Y-38663523D01*
X144406952Y-38758761D01*
X144264095Y-38806380D01*
X144026000Y-38806380D01*
X145026000Y-38806380D02*
X145026000Y-37806380D01*
X91313047Y-118181428D02*
X92074952Y-118181428D01*
X91694000Y-118562380D02*
X91694000Y-117800476D01*
X83240523Y-119483142D02*
X83192904Y-119530761D01*
X83050047Y-119578380D01*
X82954809Y-119578380D01*
X82811952Y-119530761D01*
X82716714Y-119435523D01*
X82669095Y-119340285D01*
X82621476Y-119149809D01*
X82621476Y-119006952D01*
X82669095Y-118816476D01*
X82716714Y-118721238D01*
X82811952Y-118626000D01*
X82954809Y-118578380D01*
X83050047Y-118578380D01*
X83192904Y-118626000D01*
X83240523Y-118673619D01*
X102290523Y-46585142D02*
X102242904Y-46632761D01*
X102100047Y-46680380D01*
X102004809Y-46680380D01*
X101861952Y-46632761D01*
X101766714Y-46537523D01*
X101719095Y-46442285D01*
X101671476Y-46251809D01*
X101671476Y-46108952D01*
X101719095Y-45918476D01*
X101766714Y-45823238D01*
X101861952Y-45728000D01*
X102004809Y-45680380D01*
X102100047Y-45680380D01*
X102242904Y-45728000D01*
X102290523Y-45775619D01*
X64190523Y-100433142D02*
X64142904Y-100480761D01*
X64000047Y-100528380D01*
X63904809Y-100528380D01*
X63761952Y-100480761D01*
X63666714Y-100385523D01*
X63619095Y-100290285D01*
X63571476Y-100099809D01*
X63571476Y-99956952D01*
X63619095Y-99766476D01*
X63666714Y-99671238D01*
X63761952Y-99576000D01*
X63904809Y-99528380D01*
X64000047Y-99528380D01*
X64142904Y-99576000D01*
X64190523Y-99623619D01*
X124976000Y-57856380D02*
X124976000Y-56856380D01*
X125214095Y-56856380D01*
X125356952Y-56904000D01*
X125452190Y-56999238D01*
X125499809Y-57094476D01*
X125547428Y-57284952D01*
X125547428Y-57427809D01*
X125499809Y-57618285D01*
X125452190Y-57713523D01*
X125356952Y-57808761D01*
X125214095Y-57856380D01*
X124976000Y-57856380D01*
X125976000Y-57856380D02*
X125976000Y-56856380D01*
X140390523Y-84685142D02*
X140342904Y-84732761D01*
X140200047Y-84780380D01*
X140104809Y-84780380D01*
X139961952Y-84732761D01*
X139866714Y-84637523D01*
X139819095Y-84542285D01*
X139771476Y-84351809D01*
X139771476Y-84208952D01*
X139819095Y-84018476D01*
X139866714Y-83923238D01*
X139961952Y-83828000D01*
X140104809Y-83780380D01*
X140200047Y-83780380D01*
X140342904Y-83828000D01*
X140390523Y-83875619D01*
X110871047Y-65349428D02*
X111632952Y-65349428D01*
X111252000Y-65730380D02*
X111252000Y-64968476D01*
X86463285Y-89479380D02*
X86463285Y-88479380D01*
X86701380Y-88479380D01*
X86844238Y-88527000D01*
X86939476Y-88622238D01*
X86987095Y-88717476D01*
X87034714Y-88907952D01*
X87034714Y-89050809D01*
X86987095Y-89241285D01*
X86939476Y-89336523D01*
X86844238Y-89431761D01*
X86701380Y-89479380D01*
X86463285Y-89479380D01*
X87653761Y-88479380D02*
X87844238Y-88479380D01*
X87939476Y-88527000D01*
X88034714Y-88622238D01*
X88082333Y-88812714D01*
X88082333Y-89146047D01*
X88034714Y-89336523D01*
X87939476Y-89431761D01*
X87844238Y-89479380D01*
X87653761Y-89479380D01*
X87558523Y-89431761D01*
X87463285Y-89336523D01*
X87415666Y-89146047D01*
X87415666Y-88812714D01*
X87463285Y-88622238D01*
X87558523Y-88527000D01*
X87653761Y-88479380D01*
X86113904Y-45728000D02*
X86018666Y-45680380D01*
X85875809Y-45680380D01*
X85732952Y-45728000D01*
X85637714Y-45823238D01*
X85590095Y-45918476D01*
X85542476Y-46108952D01*
X85542476Y-46251809D01*
X85590095Y-46442285D01*
X85637714Y-46537523D01*
X85732952Y-46632761D01*
X85875809Y-46680380D01*
X85971047Y-46680380D01*
X86113904Y-46632761D01*
X86161523Y-46585142D01*
X86161523Y-46251809D01*
X85971047Y-46251809D01*
X53776523Y-91765380D02*
X53443190Y-91289190D01*
X53205095Y-91765380D02*
X53205095Y-90765380D01*
X53586047Y-90765380D01*
X53681285Y-90813000D01*
X53728904Y-90860619D01*
X53776523Y-90955857D01*
X53776523Y-91098714D01*
X53728904Y-91193952D01*
X53681285Y-91241571D01*
X53586047Y-91289190D01*
X53205095Y-91289190D01*
X129413047Y-99131428D02*
X130174952Y-99131428D01*
X129794000Y-99512380D02*
X129794000Y-98750476D01*
X110363047Y-41981428D02*
X111124952Y-41981428D01*
X110744000Y-42362380D02*
X110744000Y-41600476D01*
X53721047Y-103449428D02*
X54482952Y-103449428D01*
X54102000Y-103830380D02*
X54102000Y-103068476D01*
X105544904Y-79510000D02*
X105449666Y-79462380D01*
X105306809Y-79462380D01*
X105163952Y-79510000D01*
X105068714Y-79605238D01*
X105021095Y-79700476D01*
X104973476Y-79890952D01*
X104973476Y-80033809D01*
X105021095Y-80224285D01*
X105068714Y-80319523D01*
X105163952Y-80414761D01*
X105306809Y-80462380D01*
X105402047Y-80462380D01*
X105544904Y-80414761D01*
X105592523Y-80367142D01*
X105592523Y-80033809D01*
X105402047Y-80033809D01*
X140390523Y-27535142D02*
X140342904Y-27582761D01*
X140200047Y-27630380D01*
X140104809Y-27630380D01*
X139961952Y-27582761D01*
X139866714Y-27487523D01*
X139819095Y-27392285D01*
X139771476Y-27201809D01*
X139771476Y-27058952D01*
X139819095Y-26868476D01*
X139866714Y-26773238D01*
X139961952Y-26678000D01*
X140104809Y-26630380D01*
X140200047Y-26630380D01*
X140342904Y-26678000D01*
X140390523Y-26725619D01*
X143263904Y-64778000D02*
X143168666Y-64730380D01*
X143025809Y-64730380D01*
X142882952Y-64778000D01*
X142787714Y-64873238D01*
X142740095Y-64968476D01*
X142692476Y-65158952D01*
X142692476Y-65301809D01*
X142740095Y-65492285D01*
X142787714Y-65587523D01*
X142882952Y-65682761D01*
X143025809Y-65730380D01*
X143121047Y-65730380D01*
X143263904Y-65682761D01*
X143311523Y-65635142D01*
X143311523Y-65301809D01*
X143121047Y-65301809D01*
X67063904Y-102878000D02*
X66968666Y-102830380D01*
X66825809Y-102830380D01*
X66682952Y-102878000D01*
X66587714Y-102973238D01*
X66540095Y-103068476D01*
X66492476Y-103258952D01*
X66492476Y-103401809D01*
X66540095Y-103592285D01*
X66587714Y-103687523D01*
X66682952Y-103782761D01*
X66825809Y-103830380D01*
X66921047Y-103830380D01*
X67063904Y-103782761D01*
X67111523Y-103735142D01*
X67111523Y-103401809D01*
X66921047Y-103401809D01*
X64190523Y-62333142D02*
X64142904Y-62380761D01*
X64000047Y-62428380D01*
X63904809Y-62428380D01*
X63761952Y-62380761D01*
X63666714Y-62285523D01*
X63619095Y-62190285D01*
X63571476Y-61999809D01*
X63571476Y-61856952D01*
X63619095Y-61666476D01*
X63666714Y-61571238D01*
X63761952Y-61476000D01*
X63904809Y-61428380D01*
X64000047Y-61428380D01*
X64142904Y-61476000D01*
X64190523Y-61523619D01*
X124563285Y-108529380D02*
X124563285Y-107529380D01*
X124801380Y-107529380D01*
X124944238Y-107577000D01*
X125039476Y-107672238D01*
X125087095Y-107767476D01*
X125134714Y-107957952D01*
X125134714Y-108100809D01*
X125087095Y-108291285D01*
X125039476Y-108386523D01*
X124944238Y-108481761D01*
X124801380Y-108529380D01*
X124563285Y-108529380D01*
X125753761Y-107529380D02*
X125944238Y-107529380D01*
X126039476Y-107577000D01*
X126134714Y-107672238D01*
X126182333Y-107862714D01*
X126182333Y-108196047D01*
X126134714Y-108386523D01*
X126039476Y-108481761D01*
X125944238Y-108529380D01*
X125753761Y-108529380D01*
X125658523Y-108481761D01*
X125563285Y-108386523D01*
X125515666Y-108196047D01*
X125515666Y-107862714D01*
X125563285Y-107672238D01*
X125658523Y-107577000D01*
X125753761Y-107529380D01*
X124563285Y-70429380D02*
X124563285Y-69429380D01*
X124801380Y-69429380D01*
X124944238Y-69477000D01*
X125039476Y-69572238D01*
X125087095Y-69667476D01*
X125134714Y-69857952D01*
X125134714Y-70000809D01*
X125087095Y-70191285D01*
X125039476Y-70286523D01*
X124944238Y-70381761D01*
X124801380Y-70429380D01*
X124563285Y-70429380D01*
X125753761Y-69429380D02*
X125944238Y-69429380D01*
X126039476Y-69477000D01*
X126134714Y-69572238D01*
X126182333Y-69762714D01*
X126182333Y-70096047D01*
X126134714Y-70286523D01*
X126039476Y-70381761D01*
X125944238Y-70429380D01*
X125753761Y-70429380D01*
X125658523Y-70381761D01*
X125563285Y-70286523D01*
X125515666Y-70096047D01*
X125515666Y-69762714D01*
X125563285Y-69572238D01*
X125658523Y-69477000D01*
X125753761Y-69429380D01*
X143263904Y-45728000D02*
X143168666Y-45680380D01*
X143025809Y-45680380D01*
X142882952Y-45728000D01*
X142787714Y-45823238D01*
X142740095Y-45918476D01*
X142692476Y-46108952D01*
X142692476Y-46251809D01*
X142740095Y-46442285D01*
X142787714Y-46537523D01*
X142882952Y-46632761D01*
X143025809Y-46680380D01*
X143121047Y-46680380D01*
X143263904Y-46632761D01*
X143311523Y-46585142D01*
X143311523Y-46251809D01*
X143121047Y-46251809D01*
X91448000Y-108148380D02*
X91448000Y-107148380D01*
X91686095Y-107148380D01*
X91828952Y-107196000D01*
X91924190Y-107291238D01*
X91971809Y-107386476D01*
X92019428Y-107576952D01*
X92019428Y-107719809D01*
X91971809Y-107910285D01*
X91924190Y-108005523D01*
X91828952Y-108100761D01*
X91686095Y-108148380D01*
X91448000Y-108148380D01*
X92448000Y-108148380D02*
X92448000Y-107148380D01*
X124976000Y-115006380D02*
X124976000Y-114006380D01*
X125214095Y-114006380D01*
X125356952Y-114054000D01*
X125452190Y-114149238D01*
X125499809Y-114244476D01*
X125547428Y-114434952D01*
X125547428Y-114577809D01*
X125499809Y-114768285D01*
X125452190Y-114863523D01*
X125356952Y-114958761D01*
X125214095Y-115006380D01*
X124976000Y-115006380D01*
X125976000Y-115006380D02*
X125976000Y-114006380D01*
X64190523Y-81383142D02*
X64142904Y-81430761D01*
X64000047Y-81478380D01*
X63904809Y-81478380D01*
X63761952Y-81430761D01*
X63666714Y-81335523D01*
X63619095Y-81240285D01*
X63571476Y-81049809D01*
X63571476Y-80906952D01*
X63619095Y-80716476D01*
X63666714Y-80621238D01*
X63761952Y-80526000D01*
X63904809Y-80478380D01*
X64000047Y-80478380D01*
X64142904Y-80526000D01*
X64190523Y-80573619D01*
X124563285Y-51379380D02*
X124563285Y-50379380D01*
X124801380Y-50379380D01*
X124944238Y-50427000D01*
X125039476Y-50522238D01*
X125087095Y-50617476D01*
X125134714Y-50807952D01*
X125134714Y-50950809D01*
X125087095Y-51141285D01*
X125039476Y-51236523D01*
X124944238Y-51331761D01*
X124801380Y-51379380D01*
X124563285Y-51379380D01*
X125753761Y-50379380D02*
X125944238Y-50379380D01*
X126039476Y-50427000D01*
X126134714Y-50522238D01*
X126182333Y-50712714D01*
X126182333Y-51046047D01*
X126134714Y-51236523D01*
X126039476Y-51331761D01*
X125944238Y-51379380D01*
X125753761Y-51379380D01*
X125658523Y-51331761D01*
X125563285Y-51236523D01*
X125515666Y-51046047D01*
X125515666Y-50712714D01*
X125563285Y-50522238D01*
X125658523Y-50427000D01*
X125753761Y-50379380D01*
X105513285Y-51379380D02*
X105513285Y-50379380D01*
X105751380Y-50379380D01*
X105894238Y-50427000D01*
X105989476Y-50522238D01*
X106037095Y-50617476D01*
X106084714Y-50807952D01*
X106084714Y-50950809D01*
X106037095Y-51141285D01*
X105989476Y-51236523D01*
X105894238Y-51331761D01*
X105751380Y-51379380D01*
X105513285Y-51379380D01*
X106703761Y-50379380D02*
X106894238Y-50379380D01*
X106989476Y-50427000D01*
X107084714Y-50522238D01*
X107132333Y-50712714D01*
X107132333Y-51046047D01*
X107084714Y-51236523D01*
X106989476Y-51331761D01*
X106894238Y-51379380D01*
X106703761Y-51379380D01*
X106608523Y-51331761D01*
X106513285Y-51236523D01*
X106465666Y-51046047D01*
X106465666Y-50712714D01*
X106513285Y-50522238D01*
X106608523Y-50427000D01*
X106703761Y-50379380D01*
X124594904Y-79510000D02*
X124499666Y-79462380D01*
X124356809Y-79462380D01*
X124213952Y-79510000D01*
X124118714Y-79605238D01*
X124071095Y-79700476D01*
X124023476Y-79890952D01*
X124023476Y-80033809D01*
X124071095Y-80224285D01*
X124118714Y-80319523D01*
X124213952Y-80414761D01*
X124356809Y-80462380D01*
X124452047Y-80462380D01*
X124594904Y-80414761D01*
X124642523Y-80367142D01*
X124642523Y-80033809D01*
X124452047Y-80033809D01*
X53697285Y-114371380D02*
X53697285Y-113371380D01*
X53935380Y-113371380D01*
X54078238Y-113419000D01*
X54173476Y-113514238D01*
X54221095Y-113609476D01*
X54268714Y-113799952D01*
X54268714Y-113942809D01*
X54221095Y-114133285D01*
X54173476Y-114228523D01*
X54078238Y-114323761D01*
X53935380Y-114371380D01*
X53697285Y-114371380D01*
X54887761Y-113371380D02*
X55078238Y-113371380D01*
X55173476Y-113419000D01*
X55268714Y-113514238D01*
X55316333Y-113704714D01*
X55316333Y-114038047D01*
X55268714Y-114228523D01*
X55173476Y-114323761D01*
X55078238Y-114371380D01*
X54887761Y-114371380D01*
X54792523Y-114323761D01*
X54697285Y-114228523D01*
X54649666Y-114038047D01*
X54649666Y-113704714D01*
X54697285Y-113514238D01*
X54792523Y-113419000D01*
X54887761Y-113371380D01*
X91797285Y-76271380D02*
X91797285Y-75271380D01*
X92035380Y-75271380D01*
X92178238Y-75319000D01*
X92273476Y-75414238D01*
X92321095Y-75509476D01*
X92368714Y-75699952D01*
X92368714Y-75842809D01*
X92321095Y-76033285D01*
X92273476Y-76128523D01*
X92178238Y-76223761D01*
X92035380Y-76271380D01*
X91797285Y-76271380D01*
X92987761Y-75271380D02*
X93178238Y-75271380D01*
X93273476Y-75319000D01*
X93368714Y-75414238D01*
X93416333Y-75604714D01*
X93416333Y-75938047D01*
X93368714Y-76128523D01*
X93273476Y-76223761D01*
X93178238Y-76271380D01*
X92987761Y-76271380D01*
X92892523Y-76223761D01*
X92797285Y-76128523D01*
X92749666Y-75938047D01*
X92749666Y-75604714D01*
X92797285Y-75414238D01*
X92892523Y-75319000D01*
X92987761Y-75271380D01*
X129897285Y-76271380D02*
X129897285Y-75271380D01*
X130135380Y-75271380D01*
X130278238Y-75319000D01*
X130373476Y-75414238D01*
X130421095Y-75509476D01*
X130468714Y-75699952D01*
X130468714Y-75842809D01*
X130421095Y-76033285D01*
X130373476Y-76128523D01*
X130278238Y-76223761D01*
X130135380Y-76271380D01*
X129897285Y-76271380D01*
X131087761Y-75271380D02*
X131278238Y-75271380D01*
X131373476Y-75319000D01*
X131468714Y-75414238D01*
X131516333Y-75604714D01*
X131516333Y-75938047D01*
X131468714Y-76128523D01*
X131373476Y-76223761D01*
X131278238Y-76271380D01*
X131087761Y-76271380D01*
X130992523Y-76223761D01*
X130897285Y-76128523D01*
X130849666Y-75938047D01*
X130849666Y-75604714D01*
X130897285Y-75414238D01*
X130992523Y-75319000D01*
X131087761Y-75271380D01*
X124213904Y-64778000D02*
X124118666Y-64730380D01*
X123975809Y-64730380D01*
X123832952Y-64778000D01*
X123737714Y-64873238D01*
X123690095Y-64968476D01*
X123642476Y-65158952D01*
X123642476Y-65301809D01*
X123690095Y-65492285D01*
X123737714Y-65587523D01*
X123832952Y-65682761D01*
X123975809Y-65730380D01*
X124071047Y-65730380D01*
X124213904Y-65682761D01*
X124261523Y-65635142D01*
X124261523Y-65301809D01*
X124071047Y-65301809D01*
X86542523Y-72842380D02*
X86209190Y-72366190D01*
X85971095Y-72842380D02*
X85971095Y-71842380D01*
X86352047Y-71842380D01*
X86447285Y-71890000D01*
X86494904Y-71937619D01*
X86542523Y-72032857D01*
X86542523Y-72175714D01*
X86494904Y-72270952D01*
X86447285Y-72318571D01*
X86352047Y-72366190D01*
X85971095Y-72366190D01*
X110871047Y-46299428D02*
X111632952Y-46299428D01*
X111252000Y-46680380D02*
X111252000Y-45918476D01*
X72398000Y-108148380D02*
X72398000Y-107148380D01*
X72636095Y-107148380D01*
X72778952Y-107196000D01*
X72874190Y-107291238D01*
X72921809Y-107386476D01*
X72969428Y-107576952D01*
X72969428Y-107719809D01*
X72921809Y-107910285D01*
X72874190Y-108005523D01*
X72778952Y-108100761D01*
X72636095Y-108148380D01*
X72398000Y-108148380D01*
X73398000Y-108148380D02*
X73398000Y-107148380D01*
X140390523Y-103735142D02*
X140342904Y-103782761D01*
X140200047Y-103830380D01*
X140104809Y-103830380D01*
X139961952Y-103782761D01*
X139866714Y-103687523D01*
X139819095Y-103592285D01*
X139771476Y-103401809D01*
X139771476Y-103258952D01*
X139819095Y-103068476D01*
X139866714Y-102973238D01*
X139961952Y-102878000D01*
X140104809Y-102830380D01*
X140200047Y-102830380D01*
X140342904Y-102878000D01*
X140390523Y-102925619D01*
X105592523Y-34742380D02*
X105259190Y-34266190D01*
X105021095Y-34742380D02*
X105021095Y-33742380D01*
X105402047Y-33742380D01*
X105497285Y-33790000D01*
X105544904Y-33837619D01*
X105592523Y-33932857D01*
X105592523Y-34075714D01*
X105544904Y-34170952D01*
X105497285Y-34218571D01*
X105402047Y-34266190D01*
X105021095Y-34266190D01*
X129976523Y-91765380D02*
X129643190Y-91289190D01*
X129405095Y-91765380D02*
X129405095Y-90765380D01*
X129786047Y-90765380D01*
X129881285Y-90813000D01*
X129928904Y-90860619D01*
X129976523Y-90955857D01*
X129976523Y-91098714D01*
X129928904Y-91193952D01*
X129881285Y-91241571D01*
X129786047Y-91289190D01*
X129405095Y-91289190D01*
X91448000Y-31948380D02*
X91448000Y-30948380D01*
X91686095Y-30948380D01*
X91828952Y-30996000D01*
X91924190Y-31091238D01*
X91971809Y-31186476D01*
X92019428Y-31376952D01*
X92019428Y-31519809D01*
X91971809Y-31710285D01*
X91924190Y-31805523D01*
X91828952Y-31900761D01*
X91686095Y-31948380D01*
X91448000Y-31948380D01*
X92448000Y-31948380D02*
X92448000Y-30948380D01*
X64190523Y-65635142D02*
X64142904Y-65682761D01*
X64000047Y-65730380D01*
X63904809Y-65730380D01*
X63761952Y-65682761D01*
X63666714Y-65587523D01*
X63619095Y-65492285D01*
X63571476Y-65301809D01*
X63571476Y-65158952D01*
X63619095Y-64968476D01*
X63666714Y-64873238D01*
X63761952Y-64778000D01*
X63904809Y-64730380D01*
X64000047Y-64730380D01*
X64142904Y-64778000D01*
X64190523Y-64825619D01*
X67413285Y-32329380D02*
X67413285Y-31329380D01*
X67651380Y-31329380D01*
X67794238Y-31377000D01*
X67889476Y-31472238D01*
X67937095Y-31567476D01*
X67984714Y-31757952D01*
X67984714Y-31900809D01*
X67937095Y-32091285D01*
X67889476Y-32186523D01*
X67794238Y-32281761D01*
X67651380Y-32329380D01*
X67413285Y-32329380D01*
X68603761Y-31329380D02*
X68794238Y-31329380D01*
X68889476Y-31377000D01*
X68984714Y-31472238D01*
X69032333Y-31662714D01*
X69032333Y-31996047D01*
X68984714Y-32186523D01*
X68889476Y-32281761D01*
X68794238Y-32329380D01*
X68603761Y-32329380D01*
X68508523Y-32281761D01*
X68413285Y-32186523D01*
X68365666Y-31996047D01*
X68365666Y-31662714D01*
X68413285Y-31472238D01*
X68508523Y-31377000D01*
X68603761Y-31329380D01*
X124594904Y-98560000D02*
X124499666Y-98512380D01*
X124356809Y-98512380D01*
X124213952Y-98560000D01*
X124118714Y-98655238D01*
X124071095Y-98750476D01*
X124023476Y-98940952D01*
X124023476Y-99083809D01*
X124071095Y-99274285D01*
X124118714Y-99369523D01*
X124213952Y-99464761D01*
X124356809Y-99512380D01*
X124452047Y-99512380D01*
X124594904Y-99464761D01*
X124642523Y-99417142D01*
X124642523Y-99083809D01*
X124452047Y-99083809D01*
X121340523Y-84685142D02*
X121292904Y-84732761D01*
X121150047Y-84780380D01*
X121054809Y-84780380D01*
X120911952Y-84732761D01*
X120816714Y-84637523D01*
X120769095Y-84542285D01*
X120721476Y-84351809D01*
X120721476Y-84208952D01*
X120769095Y-84018476D01*
X120816714Y-83923238D01*
X120911952Y-83828000D01*
X121054809Y-83780380D01*
X121150047Y-83780380D01*
X121292904Y-83828000D01*
X121340523Y-83875619D01*
X105544904Y-60460000D02*
X105449666Y-60412380D01*
X105306809Y-60412380D01*
X105163952Y-60460000D01*
X105068714Y-60555238D01*
X105021095Y-60650476D01*
X104973476Y-60840952D01*
X104973476Y-60983809D01*
X105021095Y-61174285D01*
X105068714Y-61269523D01*
X105163952Y-61364761D01*
X105306809Y-61412380D01*
X105402047Y-61412380D01*
X105544904Y-61364761D01*
X105592523Y-61317142D01*
X105592523Y-60983809D01*
X105402047Y-60983809D01*
X67444904Y-117610000D02*
X67349666Y-117562380D01*
X67206809Y-117562380D01*
X67063952Y-117610000D01*
X66968714Y-117705238D01*
X66921095Y-117800476D01*
X66873476Y-117990952D01*
X66873476Y-118133809D01*
X66921095Y-118324285D01*
X66968714Y-118419523D01*
X67063952Y-118514761D01*
X67206809Y-118562380D01*
X67302047Y-118562380D01*
X67444904Y-118514761D01*
X67492523Y-118467142D01*
X67492523Y-118133809D01*
X67302047Y-118133809D01*
X72771047Y-84399428D02*
X73532952Y-84399428D01*
X73152000Y-84780380D02*
X73152000Y-84018476D01*
X144026000Y-76906380D02*
X144026000Y-75906380D01*
X144264095Y-75906380D01*
X144406952Y-75954000D01*
X144502190Y-76049238D01*
X144549809Y-76144476D01*
X144597428Y-76334952D01*
X144597428Y-76477809D01*
X144549809Y-76668285D01*
X144502190Y-76763523D01*
X144406952Y-76858761D01*
X144264095Y-76906380D01*
X144026000Y-76906380D01*
X145026000Y-76906380D02*
X145026000Y-75906380D01*
X110363047Y-80081428D02*
X111124952Y-80081428D01*
X110744000Y-80462380D02*
X110744000Y-79700476D01*
X143692523Y-91892380D02*
X143359190Y-91416190D01*
X143121095Y-91892380D02*
X143121095Y-90892380D01*
X143502047Y-90892380D01*
X143597285Y-90940000D01*
X143644904Y-90987619D01*
X143692523Y-91082857D01*
X143692523Y-91225714D01*
X143644904Y-91320952D01*
X143597285Y-91368571D01*
X143502047Y-91416190D01*
X143121095Y-91416190D01*
X64190523Y-43283142D02*
X64142904Y-43330761D01*
X64000047Y-43378380D01*
X63904809Y-43378380D01*
X63761952Y-43330761D01*
X63666714Y-43235523D01*
X63619095Y-43140285D01*
X63571476Y-42949809D01*
X63571476Y-42806952D01*
X63619095Y-42616476D01*
X63666714Y-42521238D01*
X63761952Y-42426000D01*
X63904809Y-42378380D01*
X64000047Y-42378380D01*
X64142904Y-42426000D01*
X64190523Y-42473619D01*
X110871047Y-27249428D02*
X111632952Y-27249428D01*
X111252000Y-27630380D02*
X111252000Y-26868476D01*
X64190523Y-27535142D02*
X64142904Y-27582761D01*
X64000047Y-27630380D01*
X63904809Y-27630380D01*
X63761952Y-27582761D01*
X63666714Y-27487523D01*
X63619095Y-27392285D01*
X63571476Y-27201809D01*
X63571476Y-27058952D01*
X63619095Y-26868476D01*
X63666714Y-26773238D01*
X63761952Y-26678000D01*
X63904809Y-26630380D01*
X64000047Y-26630380D01*
X64142904Y-26678000D01*
X64190523Y-26725619D01*
X129921047Y-27249428D02*
X130682952Y-27249428D01*
X130302000Y-27630380D02*
X130302000Y-26868476D01*
X86542523Y-34742380D02*
X86209190Y-34266190D01*
X85971095Y-34742380D02*
X85971095Y-33742380D01*
X86352047Y-33742380D01*
X86447285Y-33790000D01*
X86494904Y-33837619D01*
X86542523Y-33932857D01*
X86542523Y-34075714D01*
X86494904Y-34170952D01*
X86447285Y-34218571D01*
X86352047Y-34266190D01*
X85971095Y-34266190D01*
X110926523Y-53665380D02*
X110593190Y-53189190D01*
X110355095Y-53665380D02*
X110355095Y-52665380D01*
X110736047Y-52665380D01*
X110831285Y-52713000D01*
X110878904Y-52760619D01*
X110926523Y-52855857D01*
X110926523Y-52998714D01*
X110878904Y-53093952D01*
X110831285Y-53141571D01*
X110736047Y-53189190D01*
X110355095Y-53189190D01*
X121340523Y-81383142D02*
X121292904Y-81430761D01*
X121150047Y-81478380D01*
X121054809Y-81478380D01*
X120911952Y-81430761D01*
X120816714Y-81335523D01*
X120769095Y-81240285D01*
X120721476Y-81049809D01*
X120721476Y-80906952D01*
X120769095Y-80716476D01*
X120816714Y-80621238D01*
X120911952Y-80526000D01*
X121054809Y-80478380D01*
X121150047Y-80478380D01*
X121292904Y-80526000D01*
X121340523Y-80573619D01*
X72398000Y-31948380D02*
X72398000Y-30948380D01*
X72636095Y-30948380D01*
X72778952Y-30996000D01*
X72874190Y-31091238D01*
X72921809Y-31186476D01*
X72969428Y-31376952D01*
X72969428Y-31519809D01*
X72921809Y-31710285D01*
X72874190Y-31805523D01*
X72778952Y-31900761D01*
X72636095Y-31948380D01*
X72398000Y-31948380D01*
X73398000Y-31948380D02*
X73398000Y-30948380D01*
X64190523Y-46585142D02*
X64142904Y-46632761D01*
X64000047Y-46680380D01*
X63904809Y-46680380D01*
X63761952Y-46632761D01*
X63666714Y-46537523D01*
X63619095Y-46442285D01*
X63571476Y-46251809D01*
X63571476Y-46108952D01*
X63619095Y-45918476D01*
X63666714Y-45823238D01*
X63761952Y-45728000D01*
X63904809Y-45680380D01*
X64000047Y-45680380D01*
X64142904Y-45728000D01*
X64190523Y-45775619D01*
X129976523Y-53665380D02*
X129643190Y-53189190D01*
X129405095Y-53665380D02*
X129405095Y-52665380D01*
X129786047Y-52665380D01*
X129881285Y-52713000D01*
X129928904Y-52760619D01*
X129976523Y-52855857D01*
X129976523Y-52998714D01*
X129928904Y-53093952D01*
X129881285Y-53141571D01*
X129786047Y-53189190D01*
X129405095Y-53189190D01*
X67413285Y-108529380D02*
X67413285Y-107529380D01*
X67651380Y-107529380D01*
X67794238Y-107577000D01*
X67889476Y-107672238D01*
X67937095Y-107767476D01*
X67984714Y-107957952D01*
X67984714Y-108100809D01*
X67937095Y-108291285D01*
X67889476Y-108386523D01*
X67794238Y-108481761D01*
X67651380Y-108529380D01*
X67413285Y-108529380D01*
X68603761Y-107529380D02*
X68794238Y-107529380D01*
X68889476Y-107577000D01*
X68984714Y-107672238D01*
X69032333Y-107862714D01*
X69032333Y-108196047D01*
X68984714Y-108386523D01*
X68889476Y-108481761D01*
X68794238Y-108529380D01*
X68603761Y-108529380D01*
X68508523Y-108481761D01*
X68413285Y-108386523D01*
X68365666Y-108196047D01*
X68365666Y-107862714D01*
X68413285Y-107672238D01*
X68508523Y-107577000D01*
X68603761Y-107529380D01*
X53348000Y-108148380D02*
X53348000Y-107148380D01*
X53586095Y-107148380D01*
X53728952Y-107196000D01*
X53824190Y-107291238D01*
X53871809Y-107386476D01*
X53919428Y-107576952D01*
X53919428Y-107719809D01*
X53871809Y-107910285D01*
X53824190Y-108005523D01*
X53728952Y-108100761D01*
X53586095Y-108148380D01*
X53348000Y-108148380D01*
X54348000Y-108148380D02*
X54348000Y-107148380D01*
X143692523Y-34742380D02*
X143359190Y-34266190D01*
X143121095Y-34742380D02*
X143121095Y-33742380D01*
X143502047Y-33742380D01*
X143597285Y-33790000D01*
X143644904Y-33837619D01*
X143692523Y-33932857D01*
X143692523Y-34075714D01*
X143644904Y-34170952D01*
X143597285Y-34218571D01*
X143502047Y-34266190D01*
X143121095Y-34266190D01*
X53213047Y-61031428D02*
X53974952Y-61031428D01*
X53594000Y-61412380D02*
X53594000Y-60650476D01*
X140390523Y-65635142D02*
X140342904Y-65682761D01*
X140200047Y-65730380D01*
X140104809Y-65730380D01*
X139961952Y-65682761D01*
X139866714Y-65587523D01*
X139819095Y-65492285D01*
X139771476Y-65301809D01*
X139771476Y-65158952D01*
X139819095Y-64968476D01*
X139866714Y-64873238D01*
X139961952Y-64778000D01*
X140104809Y-64730380D01*
X140200047Y-64730380D01*
X140342904Y-64778000D01*
X140390523Y-64825619D01*
X121340523Y-100433142D02*
X121292904Y-100480761D01*
X121150047Y-100528380D01*
X121054809Y-100528380D01*
X120911952Y-100480761D01*
X120816714Y-100385523D01*
X120769095Y-100290285D01*
X120721476Y-100099809D01*
X120721476Y-99956952D01*
X120769095Y-99766476D01*
X120816714Y-99671238D01*
X120911952Y-99576000D01*
X121054809Y-99528380D01*
X121150047Y-99528380D01*
X121292904Y-99576000D01*
X121340523Y-99623619D01*
X86113904Y-83828000D02*
X86018666Y-83780380D01*
X85875809Y-83780380D01*
X85732952Y-83828000D01*
X85637714Y-83923238D01*
X85590095Y-84018476D01*
X85542476Y-84208952D01*
X85542476Y-84351809D01*
X85590095Y-84542285D01*
X85637714Y-84637523D01*
X85732952Y-84732761D01*
X85875809Y-84780380D01*
X85971047Y-84780380D01*
X86113904Y-84732761D01*
X86161523Y-84685142D01*
X86161523Y-84351809D01*
X85971047Y-84351809D01*
X102290523Y-43283142D02*
X102242904Y-43330761D01*
X102100047Y-43378380D01*
X102004809Y-43378380D01*
X101861952Y-43330761D01*
X101766714Y-43235523D01*
X101719095Y-43140285D01*
X101671476Y-42949809D01*
X101671476Y-42806952D01*
X101719095Y-42616476D01*
X101766714Y-42521238D01*
X101861952Y-42426000D01*
X102004809Y-42378380D01*
X102100047Y-42378380D01*
X102242904Y-42426000D01*
X102290523Y-42473619D01*
X105592523Y-53792380D02*
X105259190Y-53316190D01*
X105021095Y-53792380D02*
X105021095Y-52792380D01*
X105402047Y-52792380D01*
X105497285Y-52840000D01*
X105544904Y-52887619D01*
X105592523Y-52982857D01*
X105592523Y-53125714D01*
X105544904Y-53220952D01*
X105497285Y-53268571D01*
X105402047Y-53316190D01*
X105021095Y-53316190D01*
X67492523Y-72842380D02*
X67159190Y-72366190D01*
X66921095Y-72842380D02*
X66921095Y-71842380D01*
X67302047Y-71842380D01*
X67397285Y-71890000D01*
X67444904Y-71937619D01*
X67492523Y-72032857D01*
X67492523Y-72175714D01*
X67444904Y-72270952D01*
X67397285Y-72318571D01*
X67302047Y-72366190D01*
X66921095Y-72366190D01*
X121340523Y-46585142D02*
X121292904Y-46632761D01*
X121150047Y-46680380D01*
X121054809Y-46680380D01*
X120911952Y-46632761D01*
X120816714Y-46537523D01*
X120769095Y-46442285D01*
X120721476Y-46251809D01*
X120721476Y-46108952D01*
X120769095Y-45918476D01*
X120816714Y-45823238D01*
X120911952Y-45728000D01*
X121054809Y-45680380D01*
X121150047Y-45680380D01*
X121292904Y-45728000D01*
X121340523Y-45775619D01*
X110363047Y-118181428D02*
X111124952Y-118181428D01*
X110744000Y-118562380D02*
X110744000Y-117800476D01*
X143263904Y-102878000D02*
X143168666Y-102830380D01*
X143025809Y-102830380D01*
X142882952Y-102878000D01*
X142787714Y-102973238D01*
X142740095Y-103068476D01*
X142692476Y-103258952D01*
X142692476Y-103401809D01*
X142740095Y-103592285D01*
X142787714Y-103687523D01*
X142882952Y-103782761D01*
X143025809Y-103830380D01*
X143121047Y-103830380D01*
X143263904Y-103782761D01*
X143311523Y-103735142D01*
X143311523Y-103401809D01*
X143121047Y-103401809D01*
X121340523Y-119483142D02*
X121292904Y-119530761D01*
X121150047Y-119578380D01*
X121054809Y-119578380D01*
X120911952Y-119530761D01*
X120816714Y-119435523D01*
X120769095Y-119340285D01*
X120721476Y-119149809D01*
X120721476Y-119006952D01*
X120769095Y-118816476D01*
X120816714Y-118721238D01*
X120911952Y-118626000D01*
X121054809Y-118578380D01*
X121150047Y-118578380D01*
X121292904Y-118626000D01*
X121340523Y-118673619D01*
X140390523Y-46585142D02*
X140342904Y-46632761D01*
X140200047Y-46680380D01*
X140104809Y-46680380D01*
X139961952Y-46632761D01*
X139866714Y-46537523D01*
X139819095Y-46442285D01*
X139771476Y-46251809D01*
X139771476Y-46108952D01*
X139819095Y-45918476D01*
X139866714Y-45823238D01*
X139961952Y-45728000D01*
X140104809Y-45680380D01*
X140200047Y-45680380D01*
X140342904Y-45728000D01*
X140390523Y-45775619D01*
X140390523Y-43283142D02*
X140342904Y-43330761D01*
X140200047Y-43378380D01*
X140104809Y-43378380D01*
X139961952Y-43330761D01*
X139866714Y-43235523D01*
X139819095Y-43140285D01*
X139771476Y-42949809D01*
X139771476Y-42806952D01*
X139819095Y-42616476D01*
X139866714Y-42521238D01*
X139961952Y-42426000D01*
X140104809Y-42378380D01*
X140200047Y-42378380D01*
X140342904Y-42426000D01*
X140390523Y-42473619D01*
X129921047Y-103449428D02*
X130682952Y-103449428D01*
X130302000Y-103830380D02*
X130302000Y-103068476D01*
X91797285Y-57221380D02*
X91797285Y-56221380D01*
X92035380Y-56221380D01*
X92178238Y-56269000D01*
X92273476Y-56364238D01*
X92321095Y-56459476D01*
X92368714Y-56649952D01*
X92368714Y-56792809D01*
X92321095Y-56983285D01*
X92273476Y-57078523D01*
X92178238Y-57173761D01*
X92035380Y-57221380D01*
X91797285Y-57221380D01*
X92987761Y-56221380D02*
X93178238Y-56221380D01*
X93273476Y-56269000D01*
X93368714Y-56364238D01*
X93416333Y-56554714D01*
X93416333Y-56888047D01*
X93368714Y-57078523D01*
X93273476Y-57173761D01*
X93178238Y-57221380D01*
X92987761Y-57221380D01*
X92892523Y-57173761D01*
X92797285Y-57078523D01*
X92749666Y-56888047D01*
X92749666Y-56554714D01*
X92797285Y-56364238D01*
X92892523Y-56269000D01*
X92987761Y-56221380D01*
X86876000Y-95956380D02*
X86876000Y-94956380D01*
X87114095Y-94956380D01*
X87256952Y-95004000D01*
X87352190Y-95099238D01*
X87399809Y-95194476D01*
X87447428Y-95384952D01*
X87447428Y-95527809D01*
X87399809Y-95718285D01*
X87352190Y-95813523D01*
X87256952Y-95908761D01*
X87114095Y-95956380D01*
X86876000Y-95956380D01*
X87876000Y-95956380D02*
X87876000Y-94956380D01*
X129548000Y-31948380D02*
X129548000Y-30948380D01*
X129786095Y-30948380D01*
X129928952Y-30996000D01*
X130024190Y-31091238D01*
X130071809Y-31186476D01*
X130119428Y-31376952D01*
X130119428Y-31519809D01*
X130071809Y-31710285D01*
X130024190Y-31805523D01*
X129928952Y-31900761D01*
X129786095Y-31948380D01*
X129548000Y-31948380D01*
X130548000Y-31948380D02*
X130548000Y-30948380D01*
X110847285Y-57221380D02*
X110847285Y-56221380D01*
X111085380Y-56221380D01*
X111228238Y-56269000D01*
X111323476Y-56364238D01*
X111371095Y-56459476D01*
X111418714Y-56649952D01*
X111418714Y-56792809D01*
X111371095Y-56983285D01*
X111323476Y-57078523D01*
X111228238Y-57173761D01*
X111085380Y-57221380D01*
X110847285Y-57221380D01*
X112037761Y-56221380D02*
X112228238Y-56221380D01*
X112323476Y-56269000D01*
X112418714Y-56364238D01*
X112466333Y-56554714D01*
X112466333Y-56888047D01*
X112418714Y-57078523D01*
X112323476Y-57173761D01*
X112228238Y-57221380D01*
X112037761Y-57221380D01*
X111942523Y-57173761D01*
X111847285Y-57078523D01*
X111799666Y-56888047D01*
X111799666Y-56554714D01*
X111847285Y-56364238D01*
X111942523Y-56269000D01*
X112037761Y-56221380D01*
X110847285Y-95321380D02*
X110847285Y-94321380D01*
X111085380Y-94321380D01*
X111228238Y-94369000D01*
X111323476Y-94464238D01*
X111371095Y-94559476D01*
X111418714Y-94749952D01*
X111418714Y-94892809D01*
X111371095Y-95083285D01*
X111323476Y-95178523D01*
X111228238Y-95273761D01*
X111085380Y-95321380D01*
X110847285Y-95321380D01*
X112037761Y-94321380D02*
X112228238Y-94321380D01*
X112323476Y-94369000D01*
X112418714Y-94464238D01*
X112466333Y-94654714D01*
X112466333Y-94988047D01*
X112418714Y-95178523D01*
X112323476Y-95273761D01*
X112228238Y-95321380D01*
X112037761Y-95321380D01*
X111942523Y-95273761D01*
X111847285Y-95178523D01*
X111799666Y-94988047D01*
X111799666Y-94654714D01*
X111847285Y-94464238D01*
X111942523Y-94369000D01*
X112037761Y-94321380D01*
X143692523Y-53792380D02*
X143359190Y-53316190D01*
X143121095Y-53792380D02*
X143121095Y-52792380D01*
X143502047Y-52792380D01*
X143597285Y-52840000D01*
X143644904Y-52887619D01*
X143692523Y-52982857D01*
X143692523Y-53125714D01*
X143644904Y-53220952D01*
X143597285Y-53268571D01*
X143502047Y-53316190D01*
X143121095Y-53316190D01*
X105544904Y-98560000D02*
X105449666Y-98512380D01*
X105306809Y-98512380D01*
X105163952Y-98560000D01*
X105068714Y-98655238D01*
X105021095Y-98750476D01*
X104973476Y-98940952D01*
X104973476Y-99083809D01*
X105021095Y-99274285D01*
X105068714Y-99369523D01*
X105163952Y-99464761D01*
X105306809Y-99512380D01*
X105402047Y-99512380D01*
X105544904Y-99464761D01*
X105592523Y-99417142D01*
X105592523Y-99083809D01*
X105402047Y-99083809D01*
X67413285Y-89479380D02*
X67413285Y-88479380D01*
X67651380Y-88479380D01*
X67794238Y-88527000D01*
X67889476Y-88622238D01*
X67937095Y-88717476D01*
X67984714Y-88907952D01*
X67984714Y-89050809D01*
X67937095Y-89241285D01*
X67889476Y-89336523D01*
X67794238Y-89431761D01*
X67651380Y-89479380D01*
X67413285Y-89479380D01*
X68603761Y-88479380D02*
X68794238Y-88479380D01*
X68889476Y-88527000D01*
X68984714Y-88622238D01*
X69032333Y-88812714D01*
X69032333Y-89146047D01*
X68984714Y-89336523D01*
X68889476Y-89431761D01*
X68794238Y-89479380D01*
X68603761Y-89479380D01*
X68508523Y-89431761D01*
X68413285Y-89336523D01*
X68365666Y-89146047D01*
X68365666Y-88812714D01*
X68413285Y-88622238D01*
X68508523Y-88527000D01*
X68603761Y-88479380D01*
X91313047Y-41981428D02*
X92074952Y-41981428D01*
X91694000Y-42362380D02*
X91694000Y-41600476D01*
X91821047Y-46299428D02*
X92582952Y-46299428D01*
X92202000Y-46680380D02*
X92202000Y-45918476D01*
X67826000Y-115006380D02*
X67826000Y-114006380D01*
X68064095Y-114006380D01*
X68206952Y-114054000D01*
X68302190Y-114149238D01*
X68349809Y-114244476D01*
X68397428Y-114434952D01*
X68397428Y-114577809D01*
X68349809Y-114768285D01*
X68302190Y-114863523D01*
X68206952Y-114958761D01*
X68064095Y-115006380D01*
X67826000Y-115006380D01*
X68826000Y-115006380D02*
X68826000Y-114006380D01*
X124594904Y-60460000D02*
X124499666Y-60412380D01*
X124356809Y-60412380D01*
X124213952Y-60460000D01*
X124118714Y-60555238D01*
X124071095Y-60650476D01*
X124023476Y-60840952D01*
X124023476Y-60983809D01*
X124071095Y-61174285D01*
X124118714Y-61269523D01*
X124213952Y-61364761D01*
X124356809Y-61412380D01*
X124452047Y-61412380D01*
X124594904Y-61364761D01*
X124642523Y-61317142D01*
X124642523Y-60983809D01*
X124452047Y-60983809D01*
X129413047Y-61031428D02*
X130174952Y-61031428D01*
X129794000Y-61412380D02*
X129794000Y-60650476D01*
X53776523Y-72715380D02*
X53443190Y-72239190D01*
X53205095Y-72715380D02*
X53205095Y-71715380D01*
X53586047Y-71715380D01*
X53681285Y-71763000D01*
X53728904Y-71810619D01*
X53776523Y-71905857D01*
X53776523Y-72048714D01*
X53728904Y-72143952D01*
X53681285Y-72191571D01*
X53586047Y-72239190D01*
X53205095Y-72239190D01*
X83240523Y-43283142D02*
X83192904Y-43330761D01*
X83050047Y-43378380D01*
X82954809Y-43378380D01*
X82811952Y-43330761D01*
X82716714Y-43235523D01*
X82669095Y-43140285D01*
X82621476Y-42949809D01*
X82621476Y-42806952D01*
X82669095Y-42616476D01*
X82716714Y-42521238D01*
X82811952Y-42426000D01*
X82954809Y-42378380D01*
X83050047Y-42378380D01*
X83192904Y-42426000D01*
X83240523Y-42473619D01*
X67492523Y-110942380D02*
X67159190Y-110466190D01*
X66921095Y-110942380D02*
X66921095Y-109942380D01*
X67302047Y-109942380D01*
X67397285Y-109990000D01*
X67444904Y-110037619D01*
X67492523Y-110132857D01*
X67492523Y-110275714D01*
X67444904Y-110370952D01*
X67397285Y-110418571D01*
X67302047Y-110466190D01*
X66921095Y-110466190D01*
X105163904Y-26678000D02*
X105068666Y-26630380D01*
X104925809Y-26630380D01*
X104782952Y-26678000D01*
X104687714Y-26773238D01*
X104640095Y-26868476D01*
X104592476Y-27058952D01*
X104592476Y-27201809D01*
X104640095Y-27392285D01*
X104687714Y-27487523D01*
X104782952Y-27582761D01*
X104925809Y-27630380D01*
X105021047Y-27630380D01*
X105163904Y-27582761D01*
X105211523Y-27535142D01*
X105211523Y-27201809D01*
X105021047Y-27201809D01*
X110926523Y-34615380D02*
X110593190Y-34139190D01*
X110355095Y-34615380D02*
X110355095Y-33615380D01*
X110736047Y-33615380D01*
X110831285Y-33663000D01*
X110878904Y-33710619D01*
X110926523Y-33805857D01*
X110926523Y-33948714D01*
X110878904Y-34043952D01*
X110831285Y-34091571D01*
X110736047Y-34139190D01*
X110355095Y-34139190D01*
X110926523Y-72715380D02*
X110593190Y-72239190D01*
X110355095Y-72715380D02*
X110355095Y-71715380D01*
X110736047Y-71715380D01*
X110831285Y-71763000D01*
X110878904Y-71810619D01*
X110926523Y-71905857D01*
X110926523Y-72048714D01*
X110878904Y-72143952D01*
X110831285Y-72191571D01*
X110736047Y-72239190D01*
X110355095Y-72239190D01*
%TO.C,65*%
%TO.C,*%
%TO.C,62*%
%TO.C,*%
%TO.C,96*%
%TO.C,33*%
%TO.C,91*%
%TO.C,*%
%TO.C,63*%
%TO.C,*%
%TO.C,87*%
%TO.C,49*%
%TO.C,71*%
%TO.C,54*%
%TO.C,43*%
%TO.C,*%
%TO.C,47*%
%TO.C,79*%
%TO.C,10*%
%TO.C,80*%
%TO.C,74*%
%TO.C,8*%
%TO.C,*%
%TO.C,77*%
%TO.C,22*%
%TO.C,11*%
%TO.C,18*%
%TO.C,72*%
%TO.C,81*%
%TO.C,68*%
%TO.C,94*%
%TO.C,*%
%TO.C,46*%
%TO.C,60*%
%TO.C,9*%
%TO.C,89*%
%TO.C,14*%
%TO.C,*%
%TO.C,32*%
%TO.C,26*%
%TO.C,*%
%TO.C,12*%
%TO.C,64*%
%TO.C,20*%
%TO.C,*%
%TO.C,57*%
%TO.C,59*%
%TO.C,82*%
%TO.C,78*%
%TO.C,*%
%TO.C,67*%
%TO.C,75*%
%TO.C,1*%
%TO.C,*%
%TO.C,23*%
%TO.C,85*%
%TO.C,19*%
%TO.C,44*%
%TO.C,16*%
%TO.C,*%
%TO.C,13*%
%TO.C,*%
%TO.C,52*%
%TO.C,41*%
%TO.C,48*%
%TO.C,30*%
%TO.C,55*%
%TO.C,*%
%TO.C,34*%
%TO.C,29*%
%TO.C,*%
%TO.C,21*%
%TO.C,2*%
%TO.C,*%
%TO.C,28*%
%TO.C,88*%
%TO.C,90*%
%TO.C,6*%
%TO.C,25*%
%TO.C,37*%
%TO.C,*%
%TO.C,27*%
%TO.C,38*%
%TO.C,5*%
%TO.C,15*%
%TO.C,36*%
%TO.C,40*%
%TO.C,*%
%TO.C,7*%
%TO.C,*%
%TO.C,92*%
%TO.C,17*%
%TO.C,45*%
%TO.C,42*%
%TO.C,*%
%TO.C,84*%
%TO.C,86*%
%TO.C,24*%
%TO.C,61*%
%TO.C,83*%
%TO.C,35*%
%TO.C,56*%
%TO.C,53*%
%TO.C,66*%
%TO.C,*%
%TO.C,31*%
%TO.C,51*%
%TO.C,73*%
%TO.C,50*%
%TO.C,58*%
%TO.C,*%
%TO.C,39*%
%TO.C,*%
%TO.C,3*%
%TO.C,70*%
%TO.C,95*%
%TO.C,93*%
%TO.C,*%
%TO.C,76*%
%TO.C,69*%
%TO.C,4*%
%TO.C,*%
D11*
%TO.C,D*%
X133226000Y-118199000D02*
X136726000Y-118199000D01*
X133726000Y-118199000D02*
X133726000Y-119799000D01*
X136726000Y-118999000D02*
X137126000Y-118999000D01*
X133226000Y-118999000D02*
X132826000Y-118999000D01*
X133226000Y-119799000D02*
X133226000Y-118199000D01*
X136726000Y-118199000D02*
X136726000Y-119799000D01*
X136726000Y-119799000D02*
X133226000Y-119799000D01*
X98626000Y-118199000D02*
X98626000Y-119799000D01*
X95126000Y-118999000D02*
X94726000Y-118999000D01*
X95626000Y-118199000D02*
X95626000Y-119799000D01*
X98626000Y-119799000D02*
X95126000Y-119799000D01*
X95126000Y-119799000D02*
X95126000Y-118199000D01*
X98626000Y-118999000D02*
X99026000Y-118999000D01*
X95126000Y-118199000D02*
X98626000Y-118199000D01*
X57026000Y-119799000D02*
X57026000Y-118199000D01*
X57026000Y-118999000D02*
X56626000Y-118999000D01*
X57026000Y-118199000D02*
X60526000Y-118199000D01*
X60526000Y-118199000D02*
X60526000Y-119799000D01*
X57526000Y-118199000D02*
X57526000Y-119799000D01*
X60526000Y-119799000D02*
X57026000Y-119799000D01*
X60526000Y-118999000D02*
X60926000Y-118999000D01*
X79576000Y-43599000D02*
X76076000Y-43599000D01*
X79576000Y-42799000D02*
X79976000Y-42799000D01*
X76076000Y-43599000D02*
X76076000Y-41999000D01*
X76576000Y-41999000D02*
X76576000Y-43599000D01*
X76076000Y-41999000D02*
X79576000Y-41999000D01*
X76076000Y-42799000D02*
X75676000Y-42799000D01*
X79576000Y-41999000D02*
X79576000Y-43599000D01*
X136726000Y-62649000D02*
X133226000Y-62649000D01*
X136726000Y-61049000D02*
X136726000Y-62649000D01*
X133726000Y-61049000D02*
X133726000Y-62649000D01*
X133226000Y-62649000D02*
X133226000Y-61049000D01*
X133226000Y-61049000D02*
X136726000Y-61049000D01*
X136726000Y-61849000D02*
X137126000Y-61849000D01*
X133226000Y-61849000D02*
X132826000Y-61849000D01*
X117676000Y-80899000D02*
X118076000Y-80899000D01*
X114176000Y-80899000D02*
X113776000Y-80899000D01*
X117676000Y-81699000D02*
X114176000Y-81699000D01*
X114676000Y-80099000D02*
X114676000Y-81699000D01*
X117676000Y-80099000D02*
X117676000Y-81699000D01*
X114176000Y-80099000D02*
X117676000Y-80099000D01*
X114176000Y-81699000D02*
X114176000Y-80099000D01*
X60526000Y-41999000D02*
X60526000Y-43599000D01*
X60526000Y-43599000D02*
X57026000Y-43599000D01*
X57526000Y-41999000D02*
X57526000Y-43599000D01*
X57026000Y-41999000D02*
X60526000Y-41999000D01*
X60526000Y-42799000D02*
X60926000Y-42799000D01*
X57026000Y-42799000D02*
X56626000Y-42799000D01*
X57026000Y-43599000D02*
X57026000Y-41999000D01*
X95626000Y-99149000D02*
X95626000Y-100749000D01*
X95126000Y-100749000D02*
X95126000Y-99149000D01*
X95126000Y-99149000D02*
X98626000Y-99149000D01*
X98626000Y-100749000D02*
X95126000Y-100749000D01*
X98626000Y-99149000D02*
X98626000Y-100749000D01*
X95126000Y-99949000D02*
X94726000Y-99949000D01*
X98626000Y-99949000D02*
X99026000Y-99949000D01*
X136726000Y-100749000D02*
X133226000Y-100749000D01*
X133726000Y-99149000D02*
X133726000Y-100749000D01*
X133226000Y-99949000D02*
X132826000Y-99949000D01*
X136726000Y-99949000D02*
X137126000Y-99949000D01*
X133226000Y-99149000D02*
X136726000Y-99149000D01*
X133226000Y-100749000D02*
X133226000Y-99149000D01*
X136726000Y-99149000D02*
X136726000Y-100749000D01*
X57526000Y-61049000D02*
X57526000Y-62649000D01*
X60526000Y-62649000D02*
X57026000Y-62649000D01*
X57026000Y-61849000D02*
X56626000Y-61849000D01*
X57026000Y-62649000D02*
X57026000Y-61049000D01*
X60526000Y-61049000D02*
X60526000Y-62649000D01*
X57026000Y-61049000D02*
X60526000Y-61049000D01*
X60526000Y-61849000D02*
X60926000Y-61849000D01*
X76076000Y-118199000D02*
X79576000Y-118199000D01*
X76076000Y-118999000D02*
X75676000Y-118999000D01*
X79576000Y-118999000D02*
X79976000Y-118999000D01*
X79576000Y-118199000D02*
X79576000Y-119799000D01*
X76576000Y-118199000D02*
X76576000Y-119799000D01*
X76076000Y-119799000D02*
X76076000Y-118199000D01*
X79576000Y-119799000D02*
X76076000Y-119799000D01*
X98626000Y-80099000D02*
X98626000Y-81699000D01*
X95126000Y-80099000D02*
X98626000Y-80099000D01*
X95126000Y-80899000D02*
X94726000Y-80899000D01*
X95126000Y-81699000D02*
X95126000Y-80099000D01*
X98626000Y-81699000D02*
X95126000Y-81699000D01*
X95626000Y-80099000D02*
X95626000Y-81699000D01*
X98626000Y-80899000D02*
X99026000Y-80899000D01*
X114676000Y-41999000D02*
X114676000Y-43599000D01*
X114176000Y-42799000D02*
X113776000Y-42799000D01*
X114176000Y-43599000D02*
X114176000Y-41999000D01*
X117676000Y-41999000D02*
X117676000Y-43599000D01*
X114176000Y-41999000D02*
X117676000Y-41999000D01*
X117676000Y-42799000D02*
X118076000Y-42799000D01*
X117676000Y-43599000D02*
X114176000Y-43599000D01*
X76076000Y-81699000D02*
X76076000Y-80099000D01*
X79576000Y-80099000D02*
X79576000Y-81699000D01*
X79576000Y-81699000D02*
X76076000Y-81699000D01*
X76076000Y-80899000D02*
X75676000Y-80899000D01*
X76576000Y-80099000D02*
X76576000Y-81699000D01*
X79576000Y-80899000D02*
X79976000Y-80899000D01*
X76076000Y-80099000D02*
X79576000Y-80099000D01*
X76076000Y-99949000D02*
X75676000Y-99949000D01*
X76076000Y-100749000D02*
X76076000Y-99149000D01*
X79576000Y-100749000D02*
X76076000Y-100749000D01*
X79576000Y-99949000D02*
X79976000Y-99949000D01*
X76576000Y-99149000D02*
X76576000Y-100749000D01*
X79576000Y-99149000D02*
X79576000Y-100749000D01*
X76076000Y-99149000D02*
X79576000Y-99149000D01*
X98626000Y-61849000D02*
X99026000Y-61849000D01*
X98626000Y-61049000D02*
X98626000Y-62649000D01*
X95626000Y-61049000D02*
X95626000Y-62649000D01*
X95126000Y-61049000D02*
X98626000Y-61049000D01*
X95126000Y-62649000D02*
X95126000Y-61049000D01*
X95126000Y-61849000D02*
X94726000Y-61849000D01*
X98626000Y-62649000D02*
X95126000Y-62649000D01*
X133226000Y-42799000D02*
X132826000Y-42799000D01*
X133226000Y-41999000D02*
X136726000Y-41999000D01*
X133226000Y-43599000D02*
X133226000Y-41999000D01*
X136726000Y-41999000D02*
X136726000Y-43599000D01*
X136726000Y-42799000D02*
X137126000Y-42799000D01*
X133726000Y-41999000D02*
X133726000Y-43599000D01*
X136726000Y-43599000D02*
X133226000Y-43599000D01*
X114176000Y-100749000D02*
X114176000Y-99149000D01*
X114176000Y-99949000D02*
X113776000Y-99949000D01*
X117676000Y-100749000D02*
X114176000Y-100749000D01*
X114176000Y-99149000D02*
X117676000Y-99149000D01*
X117676000Y-99149000D02*
X117676000Y-100749000D01*
X117676000Y-99949000D02*
X118076000Y-99949000D01*
X114676000Y-99149000D02*
X114676000Y-100749000D01*
X114176000Y-62649000D02*
X114176000Y-61049000D01*
X114176000Y-61849000D02*
X113776000Y-61849000D01*
X117676000Y-61849000D02*
X118076000Y-61849000D01*
X114676000Y-61049000D02*
X114676000Y-62649000D01*
X117676000Y-61049000D02*
X117676000Y-62649000D01*
X114176000Y-61049000D02*
X117676000Y-61049000D01*
X117676000Y-62649000D02*
X114176000Y-62649000D01*
X57526000Y-80099000D02*
X57526000Y-81699000D01*
X60526000Y-81699000D02*
X57026000Y-81699000D01*
X57026000Y-81699000D02*
X57026000Y-80099000D01*
X60526000Y-80099000D02*
X60526000Y-81699000D01*
X57026000Y-80099000D02*
X60526000Y-80099000D01*
X60526000Y-80899000D02*
X60926000Y-80899000D01*
X57026000Y-80899000D02*
X56626000Y-80899000D01*
X57026000Y-99149000D02*
X60526000Y-99149000D01*
X60526000Y-99149000D02*
X60526000Y-100749000D01*
X60526000Y-99949000D02*
X60926000Y-99949000D01*
X57526000Y-99149000D02*
X57526000Y-100749000D01*
X57026000Y-100749000D02*
X57026000Y-99149000D01*
X60526000Y-100749000D02*
X57026000Y-100749000D01*
X57026000Y-99949000D02*
X56626000Y-99949000D01*
X114176000Y-118199000D02*
X117676000Y-118199000D01*
X114176000Y-119799000D02*
X114176000Y-118199000D01*
X114176000Y-118999000D02*
X113776000Y-118999000D01*
X117676000Y-118999000D02*
X118076000Y-118999000D01*
X117676000Y-118199000D02*
X117676000Y-119799000D01*
X117676000Y-119799000D02*
X114176000Y-119799000D01*
X114676000Y-118199000D02*
X114676000Y-119799000D01*
X95126000Y-42799000D02*
X94726000Y-42799000D01*
X98626000Y-43599000D02*
X95126000Y-43599000D01*
X95126000Y-43599000D02*
X95126000Y-41999000D01*
X95626000Y-41999000D02*
X95626000Y-43599000D01*
X95126000Y-41999000D02*
X98626000Y-41999000D01*
X98626000Y-42799000D02*
X99026000Y-42799000D01*
X98626000Y-41999000D02*
X98626000Y-43599000D01*
X76076000Y-61849000D02*
X75676000Y-61849000D01*
X79576000Y-61849000D02*
X79976000Y-61849000D01*
X76576000Y-61049000D02*
X76576000Y-62649000D01*
X79576000Y-61049000D02*
X79576000Y-62649000D01*
X76076000Y-61049000D02*
X79576000Y-61049000D01*
X79576000Y-62649000D02*
X76076000Y-62649000D01*
X76076000Y-62649000D02*
X76076000Y-61049000D01*
X136726000Y-80899000D02*
X137126000Y-80899000D01*
X133226000Y-80899000D02*
X132826000Y-80899000D01*
X136726000Y-80099000D02*
X136726000Y-81699000D01*
X133726000Y-80099000D02*
X133726000Y-81699000D01*
X133226000Y-81699000D02*
X133226000Y-80099000D01*
X136726000Y-81699000D02*
X133226000Y-81699000D01*
X133226000Y-80099000D02*
X136726000Y-80099000D01*
%TD*%
D12*
%TO.C,65*%
X90678000Y-95504000D03*
%TD*%
%TO.C,*%
X109728000Y-49276000D03*
%TD*%
%TO.C,\u002A\u002A81*%
X106426000Y-77978000D03*
%TD*%
%TO.C,\u002A\u002A48*%
X90678000Y-46228000D03*
%TD*%
%TO.C,\u002A\u002A11*%
X106426000Y-39878000D03*
%TD*%
%TO.C,\u002A\u002A37*%
X84328000Y-61976000D03*
%TD*%
%TO.C,\u002A\u002A23*%
X141478000Y-42926000D03*
%TD*%
%TO.C,\u002A\u002A50*%
X109728000Y-61976000D03*
%TD*%
%TO.C,\u002A\u002A114*%
X103378000Y-100076000D03*
%TD*%
%TO.C,\u002A\u002A156*%
X122428000Y-119126000D03*
%TD*%
%TO.C,62*%
X71628000Y-92583000D03*
%TD*%
%TO.C,\u002A\u002A62*%
X128778000Y-46228000D03*
%TD*%
%TO.C,\u002A\u002A5*%
X87376000Y-30226000D03*
%TD*%
%TO.C,\u002A\u002A140*%
X68326000Y-103378000D03*
%TD*%
%TO.C,\u002A\u002A153*%
X90678000Y-103378000D03*
%TD*%
%TO.C,\u002A\u002A*%
X68326000Y-30226000D03*
%TD*%
%TO.C,\u002A\u002A167*%
X128778000Y-103378000D03*
%TD*%
%TO.C,\u002A\u002A88*%
X125476000Y-77978000D03*
%TD*%
%TO.C,*%
X52578000Y-49276000D03*
%TD*%
%TO.C,\u002A\u002A109*%
X87376000Y-97028000D03*
%TD*%
%TO.C,\u002A\u002A19*%
X125476000Y-30226000D03*
%TD*%
%TO.C,\u002A\u002A123*%
X125476000Y-97028000D03*
%TD*%
%TO.C,96*%
X141478000Y-103378000D03*
%TD*%
%TO.C,\u002A\u002A166*%
X144526000Y-106426000D03*
%TD*%
%TO.C,\u002A\u002A69*%
X52578000Y-65278000D03*
%TD*%
D13*
%TO.C,SW22*%
X84582000Y-111252000D03*
X74422000Y-111252000D03*
D14*
X79502000Y-111252000D03*
%TD*%
%TO.C,SW15*%
X136652000Y-73152000D03*
D13*
X141732000Y-73152000D03*
X131572000Y-73152000D03*
%TD*%
D12*
%TO.C,\u002A\u002A38*%
X87376000Y-61976000D03*
%TD*%
%TO.C,\u002A\u002A47*%
X106426000Y-49276000D03*
%TD*%
%TO.C,33*%
X128778000Y-57404000D03*
%TD*%
%TO.C,91*%
X125476000Y-111633000D03*
%TD*%
%TO.C,\u002A\u002A157*%
X125476000Y-119126000D03*
%TD*%
%TO.C,\u002A\u002A144*%
X87376000Y-116078000D03*
%TD*%
%TO.C,\u002A\u002A129*%
X144526000Y-100076000D03*
%TD*%
%TO.C,\u002A\u002A82*%
X106426000Y-68326000D03*
%TD*%
%TO.C,*%
X128778000Y-106426000D03*
%TD*%
%TO.C,*%
X52578000Y-38354000D03*
%TD*%
%TO.C,\u002A\u002A2*%
X84328000Y-42926000D03*
%TD*%
%TO.C,\u002A\u002A91*%
X125476000Y-65278000D03*
%TD*%
%TO.C,\u002A\u002A147*%
X87376000Y-103378000D03*
%TD*%
%TO.C,\u002A\u002A52*%
X125476000Y-61976000D03*
%TD*%
%TO.C,63*%
X87376000Y-92583000D03*
%TD*%
%TO.C,\u002A\u002A71*%
X71628000Y-81026000D03*
%TD*%
%TO.C,*%
X90678000Y-49276000D03*
%TD*%
%TO.C,87*%
X106426000Y-111633000D03*
%TD*%
%TO.C,\u002A\u002A143*%
X87376000Y-119126000D03*
%TD*%
D15*
%TO.C,D*%
X131826000Y-118999000D03*
D16*
X138176000Y-118999000D03*
%TD*%
D14*
%TO.C,SW24*%
X117602000Y-111252000D03*
D13*
X112522000Y-111252000D03*
X122682000Y-111252000D03*
%TD*%
D12*
%TO.C,49*%
X109728000Y-76454000D03*
%TD*%
%TO.C,\u002A\u002A*%
X68326000Y-27178000D03*
%TD*%
%TO.C,71*%
X125476000Y-92583000D03*
%TD*%
%TO.C,54*%
X128778000Y-73533000D03*
%TD*%
D15*
%TO.C,D*%
X93726000Y-118999000D03*
D16*
X100076000Y-118999000D03*
%TD*%
D15*
%TO.C,D*%
X55626000Y-118999000D03*
D16*
X61976000Y-118999000D03*
%TD*%
D12*
%TO.C,43*%
X87376000Y-73533000D03*
%TD*%
%TO.C,\u002A\u002A148*%
X90678000Y-119126000D03*
%TD*%
%TO.C,\u002A\u002A89*%
X125476000Y-68326000D03*
%TD*%
%TO.C,*%
X65278000Y-27178000D03*
%TD*%
%TO.C,\u002A\u002A43*%
X90678000Y-61976000D03*
%TD*%
%TO.C,\u002A\u002A139*%
X52578000Y-103378000D03*
%TD*%
%TO.C,\u002A\u002A54*%
X125476000Y-49276000D03*
%TD*%
%TO.C,\u002A\u002A90*%
X109728000Y-65278000D03*
%TD*%
%TO.C,47*%
X106426000Y-73533000D03*
%TD*%
%TO.C,79*%
X68326000Y-111633000D03*
%TD*%
%TO.C,\u002A\u002A146*%
X71628000Y-103378000D03*
%TD*%
D15*
%TO.C,D*%
X74676000Y-42799000D03*
D16*
X81026000Y-42799000D03*
%TD*%
D12*
%TO.C,10*%
X109728000Y-35433000D03*
%TD*%
%TO.C,\u002A\u002A68*%
X68326000Y-68326000D03*
%TD*%
D14*
%TO.C,SW19*%
X117602000Y-92202000D03*
D13*
X112522000Y-92202000D03*
X122682000Y-92202000D03*
%TD*%
D12*
%TO.C,\u002A\u002A67*%
X68326000Y-77978000D03*
%TD*%
D13*
%TO.C,SW10*%
X131572000Y-54102000D03*
D14*
X136652000Y-54102000D03*
D13*
X141732000Y-54102000D03*
%TD*%
D12*
%TO.C,80*%
X65278000Y-103378000D03*
%TD*%
%TO.C,\u002A\u002A29*%
X52578000Y-61976000D03*
%TD*%
%TO.C,\u002A\u002A*%
X68326000Y-42926000D03*
%TD*%
D13*
%TO.C,SW25*%
X131572000Y-111252000D03*
D14*
X136652000Y-111252000D03*
D13*
X141732000Y-111252000D03*
%TD*%
D12*
%TO.C,\u002A\u002A15*%
X109728000Y-42926000D03*
%TD*%
%TO.C,\u002A\u002A25*%
X144526000Y-39878000D03*
%TD*%
%TO.C,\u002A\u002A45*%
X106426000Y-61976000D03*
%TD*%
D15*
%TO.C,D*%
X131826000Y-61849000D03*
D16*
X138176000Y-61849000D03*
%TD*%
D12*
%TO.C,74*%
X128778000Y-92583000D03*
%TD*%
%TO.C,8*%
X103378000Y-27178000D03*
%TD*%
%TO.C,\u002A\u002A*%
X52578000Y-27178000D03*
%TD*%
%TO.C,\u002A\u002A53*%
X125476000Y-58928000D03*
%TD*%
%TO.C,\u002A\u002A159*%
X125476000Y-106426000D03*
%TD*%
%TO.C,*%
X52578000Y-106426000D03*
%TD*%
%TO.C,77*%
X52578000Y-114554000D03*
%TD*%
%TO.C,22*%
X71628000Y-54483000D03*
%TD*%
%TO.C,11*%
X125476000Y-35433000D03*
%TD*%
%TO.C,\u002A\u002A165*%
X144526000Y-116078000D03*
%TD*%
%TO.C,\u002A\u002A39*%
X87376000Y-58928000D03*
%TD*%
%TO.C,\u002A\u002A17*%
X125476000Y-42926000D03*
%TD*%
%TO.C,\u002A\u002A127*%
X128778000Y-100076000D03*
%TD*%
%TO.C,18*%
X52578000Y-54483000D03*
%TD*%
%TO.C,\u002A\u002A57*%
X128778000Y-61976000D03*
%TD*%
D13*
%TO.C,SW12*%
X74422000Y-73152000D03*
D14*
X79502000Y-73152000D03*
D13*
X84582000Y-73152000D03*
%TD*%
D12*
%TO.C,\u002A\u002A130*%
X144526000Y-97028000D03*
%TD*%
%TO.C,\u002A\u002A162*%
X128778000Y-119126000D03*
%TD*%
%TO.C,\u002A\u002A138*%
X68326000Y-106426000D03*
%TD*%
%TO.C,72*%
X122428000Y-84328000D03*
%TD*%
%TO.C,81*%
X71628000Y-114554000D03*
%TD*%
D14*
%TO.C,SW4*%
X117602000Y-35052000D03*
D13*
X112522000Y-35052000D03*
X122682000Y-35052000D03*
%TD*%
D12*
%TO.C,\u002A\u002A160*%
X109728000Y-103378000D03*
%TD*%
%TO.C,\u002A\u002A59*%
X144526000Y-61976000D03*
%TD*%
%TO.C,\u002A\u002A101*%
X68326000Y-100076000D03*
%TD*%
%TO.C,\u002A\u002A33*%
X68326000Y-49276000D03*
%TD*%
%TO.C,\u002A\u002A97*%
X128778000Y-65278000D03*
%TD*%
%TO.C,\u002A\u002A60*%
X144526000Y-58928000D03*
%TD*%
D15*
%TO.C,D*%
X112776000Y-80899000D03*
D16*
X119126000Y-80899000D03*
%TD*%
D12*
%TO.C,68*%
X103378000Y-84328000D03*
%TD*%
%TO.C,94*%
X128778000Y-111633000D03*
%TD*%
%TO.C,*%
X52578000Y-30226000D03*
%TD*%
%TO.C,46*%
X90678000Y-73533000D03*
%TD*%
%TO.C,60*%
X65278000Y-84328000D03*
%TD*%
%TO.C,9*%
X109728000Y-38354000D03*
%TD*%
%TO.C,89*%
X109728000Y-114554000D03*
%TD*%
%TO.C,14*%
X128778000Y-35433000D03*
%TD*%
%TO.C,*%
X71628000Y-106426000D03*
%TD*%
%TO.C,\u002A\u002A149*%
X103378000Y-119126000D03*
%TD*%
%TO.C,\u002A\u002A56*%
X125476000Y-46228000D03*
%TD*%
%TO.C,\u002A\u002A63*%
X144526000Y-46228000D03*
%TD*%
%TO.C,\u002A\u002A76*%
X71628000Y-65278000D03*
%TD*%
%TO.C,\u002A\u002A151*%
X106426000Y-116078000D03*
%TD*%
D15*
%TO.C,D*%
X55626000Y-42799000D03*
D16*
X61976000Y-42799000D03*
%TD*%
D12*
%TO.C,\u002A\u002A95*%
X144526000Y-77978000D03*
%TD*%
%TO.C,\u002A\u002A8*%
X90678000Y-42926000D03*
%TD*%
%TO.C,32*%
X122428000Y-46228000D03*
%TD*%
%TO.C,\u002A\u002A112*%
X87376000Y-84328000D03*
%TD*%
%TO.C,\u002A\u002A84*%
X106426000Y-65278000D03*
%TD*%
%TO.C,\u002A\u002A6*%
X71628000Y-27178000D03*
%TD*%
%TO.C,\u002A\u002A110*%
X87376000Y-87376000D03*
%TD*%
%TO.C,26*%
X90678000Y-54483000D03*
%TD*%
%TO.C,\u002A\u002A152*%
X106426000Y-106426000D03*
%TD*%
%TO.C,*%
X109728000Y-30226000D03*
%TD*%
%TO.C,\u002A\u002A94*%
X144526000Y-81026000D03*
%TD*%
%TO.C,*%
X71628000Y-30226000D03*
%TD*%
%TO.C,*%
X71628000Y-49276000D03*
%TD*%
%TO.C,\u002A\u002A161*%
X125476000Y-103378000D03*
%TD*%
%TO.C,\u002A\u002A77*%
X87376000Y-65278000D03*
%TD*%
%TO.C,12*%
X122428000Y-27178000D03*
%TD*%
%TO.C,\u002A\u002A74*%
X87376000Y-77978000D03*
%TD*%
%TO.C,\u002A\u002A4*%
X87376000Y-39878000D03*
%TD*%
D14*
%TO.C,SW20*%
X136652000Y-92202000D03*
D13*
X131572000Y-92202000D03*
X141732000Y-92202000D03*
%TD*%
D12*
%TO.C,64*%
X84328000Y-84328000D03*
%TD*%
%TO.C,20*%
X65278000Y-46228000D03*
%TD*%
%TO.C,*%
X109728000Y-106426000D03*
%TD*%
%TO.C,\u002A\u002A28*%
X144526000Y-27178000D03*
%TD*%
D13*
%TO.C,SW2*%
X84582000Y-35052000D03*
X74422000Y-35052000D03*
D14*
X79502000Y-35052000D03*
%TD*%
D15*
%TO.C,D*%
X93726000Y-99949000D03*
D16*
X100076000Y-99949000D03*
%TD*%
D12*
%TO.C,\u002A\u002A121*%
X122428000Y-100076000D03*
%TD*%
D14*
%TO.C,SW11*%
X60452000Y-73152000D03*
D13*
X65532000Y-73152000D03*
X55372000Y-73152000D03*
%TD*%
D12*
%TO.C,\u002A\u002A16*%
X122428000Y-42926000D03*
%TD*%
%TO.C,\u002A\u002A92*%
X128778000Y-81026000D03*
%TD*%
%TO.C,57*%
X52578000Y-95504000D03*
%TD*%
%TO.C,59*%
X68326000Y-92583000D03*
%TD*%
%TO.C,\u002A\u002A136*%
X68326000Y-119126000D03*
%TD*%
%TO.C,\u002A\u002A119*%
X106426000Y-84328000D03*
%TD*%
%TO.C,82*%
X71628000Y-111633000D03*
%TD*%
%TO.C,\u002A\u002A132*%
X128778000Y-84328000D03*
%TD*%
%TO.C,78*%
X52578000Y-111633000D03*
%TD*%
%TO.C,*%
X128778000Y-49276000D03*
%TD*%
%TO.C,\u002A\u002A49*%
X106426000Y-46228000D03*
%TD*%
%TO.C,\u002A\u002A34*%
X52578000Y-46228000D03*
%TD*%
%TO.C,67*%
X106426000Y-92583000D03*
%TD*%
%TO.C,75*%
X144526000Y-92583000D03*
%TD*%
D13*
%TO.C,SW9*%
X122682000Y-54102000D03*
X112522000Y-54102000D03*
D14*
X117602000Y-54102000D03*
%TD*%
D12*
%TO.C,\u002A\u002A154*%
X106426000Y-103378000D03*
%TD*%
D15*
%TO.C,D*%
X131826000Y-99949000D03*
D16*
X138176000Y-99949000D03*
%TD*%
D12*
%TO.C,\u002A\u002A65*%
X65278000Y-81026000D03*
%TD*%
%TO.C,\u002A\u002A85*%
X109728000Y-81026000D03*
%TD*%
D15*
%TO.C,D*%
X55626000Y-61849000D03*
D16*
X61976000Y-61849000D03*
%TD*%
D12*
%TO.C,1*%
X71628000Y-38354000D03*
%TD*%
D15*
%TO.C,D*%
X74676000Y-118999000D03*
D16*
X81026000Y-118999000D03*
%TD*%
D12*
%TO.C,\u002A\u002A51*%
X122428000Y-61976000D03*
%TD*%
%TO.C,*%
X71628000Y-68326000D03*
%TD*%
%TO.C,\u002A\u002A58*%
X141478000Y-61976000D03*
%TD*%
%TO.C,23*%
X87376000Y-54483000D03*
%TD*%
%TO.C,\u002A\u002A61*%
X144526000Y-49276000D03*
%TD*%
%TO.C,\u002A\u002A128*%
X141478000Y-100076000D03*
%TD*%
%TO.C,85*%
X90678000Y-114554000D03*
%TD*%
%TO.C,\u002A\u002A72*%
X84328000Y-81026000D03*
%TD*%
%TO.C,\u002A\u002A46*%
X106426000Y-58928000D03*
%TD*%
%TO.C,\u002A\u002A*%
X52578000Y-42926000D03*
%TD*%
%TO.C,19*%
X68326000Y-54483000D03*
%TD*%
%TO.C,44*%
X84328000Y-65278000D03*
%TD*%
%TO.C,\u002A\u002A118*%
X90678000Y-84328000D03*
%TD*%
%TO.C,\u002A\u002A10*%
X106426000Y-42926000D03*
%TD*%
%TO.C,\u002A\u002A78*%
X90678000Y-81026000D03*
%TD*%
%TO.C,\u002A\u002A80*%
X106426000Y-81026000D03*
%TD*%
D15*
%TO.C,D*%
X93726000Y-80899000D03*
D16*
X100076000Y-80899000D03*
%TD*%
D12*
%TO.C,\u002A\u002A168*%
X144526000Y-103378000D03*
%TD*%
%TO.C,16*%
X141478000Y-27178000D03*
%TD*%
%TO.C,\u002A\u002A93*%
X141478000Y-81026000D03*
%TD*%
%TO.C,*%
X109728000Y-87376000D03*
%TD*%
%TO.C,\u002A\u002A131*%
X144526000Y-87376000D03*
%TD*%
%TO.C,13*%
X128778000Y-38354000D03*
%TD*%
%TO.C,\u002A\u002A30*%
X65278000Y-61976000D03*
%TD*%
%TO.C,*%
X128778000Y-30226000D03*
%TD*%
%TO.C,52*%
X122428000Y-65278000D03*
%TD*%
%TO.C,\u002A\u002A26*%
X144526000Y-30226000D03*
%TD*%
%TO.C,41*%
X71628000Y-76454000D03*
%TD*%
%TO.C,\u002A\u002A20*%
X109728000Y-27178000D03*
%TD*%
%TO.C,48*%
X103378000Y-65278000D03*
%TD*%
%TO.C,\u002A\u002A100*%
X65278000Y-100076000D03*
%TD*%
%TO.C,30*%
X109728000Y-54483000D03*
%TD*%
%TO.C,55*%
X144526000Y-73533000D03*
%TD*%
%TO.C,\u002A\u002A18*%
X125476000Y-39878000D03*
%TD*%
D15*
%TO.C,D*%
X112776000Y-42799000D03*
D16*
X119126000Y-42799000D03*
%TD*%
D12*
%TO.C,\u002A\u002A99*%
X52578000Y-100076000D03*
%TD*%
%TO.C,\u002A\u002A1*%
X71628000Y-42926000D03*
%TD*%
%TO.C,\u002A\u002A96*%
X144526000Y-68326000D03*
%TD*%
%TO.C,\u002A\u002A135*%
X65278000Y-119126000D03*
%TD*%
%TO.C,*%
X90678000Y-106426000D03*
%TD*%
%TO.C,34*%
X128778000Y-54483000D03*
%TD*%
%TO.C,\u002A\u002A31*%
X68326000Y-61976000D03*
%TD*%
D15*
%TO.C,D*%
X74676000Y-80899000D03*
D16*
X81026000Y-80899000D03*
%TD*%
D12*
%TO.C,29*%
X109728000Y-57404000D03*
%TD*%
%TO.C,*%
X90678000Y-30226000D03*
%TD*%
%TO.C,21*%
X71628000Y-57404000D03*
%TD*%
%TO.C,\u002A\u002A7*%
X87376000Y-27178000D03*
%TD*%
%TO.C,\u002A\u002A142*%
X84328000Y-119126000D03*
%TD*%
%TO.C,\u002A\u002A141*%
X71628000Y-119126000D03*
%TD*%
%TO.C,\u002A\u002A70*%
X68326000Y-65278000D03*
%TD*%
D15*
%TO.C,D*%
X74676000Y-99949000D03*
D16*
X81026000Y-99949000D03*
%TD*%
D12*
%TO.C,2*%
X71628000Y-35433000D03*
%TD*%
%TO.C,*%
X71628000Y-87376000D03*
%TD*%
%TO.C,28*%
X103378000Y-46228000D03*
%TD*%
D13*
%TO.C,SW1*%
X55372000Y-35052000D03*
D14*
X60452000Y-35052000D03*
D13*
X65532000Y-35052000D03*
%TD*%
D15*
%TO.C,D*%
X93726000Y-61849000D03*
D16*
X100076000Y-61849000D03*
%TD*%
D12*
%TO.C,88*%
X103378000Y-103378000D03*
%TD*%
%TO.C,\u002A\u002A32*%
X68326000Y-58928000D03*
%TD*%
%TO.C,90*%
X109728000Y-111633000D03*
%TD*%
%TO.C,\u002A\u002A133*%
X144526000Y-84328000D03*
%TD*%
%TO.C,\u002A\u002A36*%
X71628000Y-61976000D03*
%TD*%
%TO.C,6*%
X90678000Y-35433000D03*
%TD*%
%TO.C,25*%
X90678000Y-57404000D03*
%TD*%
D15*
%TO.C,D*%
X131826000Y-42799000D03*
D16*
X138176000Y-42799000D03*
%TD*%
D12*
%TO.C,37*%
X52578000Y-76454000D03*
%TD*%
%TO.C,*%
X128778000Y-87376000D03*
%TD*%
%TO.C,\u002A\u002A64*%
X52578000Y-81026000D03*
%TD*%
%TO.C,\u002A\u002A86*%
X122428000Y-81026000D03*
%TD*%
%TO.C,27*%
X106426000Y-54483000D03*
%TD*%
%TO.C,\u002A\u002A*%
X65278000Y-42926000D03*
%TD*%
%TO.C,38*%
X52578000Y-73533000D03*
%TD*%
%TO.C,5*%
X90678000Y-38354000D03*
%TD*%
%TO.C,\u002A\u002A134*%
X52578000Y-119126000D03*
%TD*%
%TO.C,15*%
X144526000Y-35433000D03*
%TD*%
%TO.C,36*%
X141478000Y-46228000D03*
%TD*%
%TO.C,40*%
X65278000Y-65278000D03*
%TD*%
%TO.C,\u002A\u002A41*%
X71628000Y-46228000D03*
%TD*%
%TO.C,*%
X52578000Y-87376000D03*
%TD*%
%TO.C,\u002A\u002A105*%
X68326000Y-84328000D03*
%TD*%
D14*
%TO.C,SW18*%
X98552000Y-92202000D03*
D13*
X103632000Y-92202000D03*
X93472000Y-92202000D03*
%TD*%
D12*
%TO.C,\u002A\u002A107*%
X84328000Y-100076000D03*
%TD*%
%TO.C,\u002A\u002A155*%
X109728000Y-119126000D03*
%TD*%
D13*
%TO.C,SW14*%
X112522000Y-73152000D03*
D14*
X117602000Y-73152000D03*
D13*
X122682000Y-73152000D03*
%TD*%
D12*
%TO.C,7*%
X106426000Y-35433000D03*
%TD*%
D13*
%TO.C,SW5*%
X131572000Y-35052000D03*
D14*
X136652000Y-35052000D03*
D13*
X141732000Y-35052000D03*
%TD*%
D12*
%TO.C,*%
X52578000Y-35433000D03*
%TD*%
%TO.C,92*%
X122428000Y-103378000D03*
%TD*%
%TO.C,\u002A\u002A137*%
X68326000Y-116078000D03*
%TD*%
%TO.C,17*%
X52578000Y-57404000D03*
%TD*%
%TO.C,\u002A\u002A111*%
X71628000Y-84328000D03*
%TD*%
%TO.C,45*%
X90678000Y-76454000D03*
%TD*%
%TO.C,42*%
X71628000Y-73533000D03*
%TD*%
%TO.C,\u002A\u002A75*%
X87376000Y-68326000D03*
%TD*%
%TO.C,\u002A\u002A55*%
X109728000Y-46228000D03*
%TD*%
%TO.C,\u002A\u002A163*%
X141478000Y-119126000D03*
%TD*%
%TO.C,\u002A\u002A120*%
X109728000Y-100076000D03*
%TD*%
%TO.C,\u002A\u002A*%
X68326000Y-39878000D03*
%TD*%
%TO.C,*%
X52578000Y-68326000D03*
%TD*%
%TO.C,84*%
X84328000Y-103378000D03*
%TD*%
%TO.C,\u002A\u002A42*%
X87376000Y-46228000D03*
%TD*%
%TO.C,\u002A\u002A122*%
X125476000Y-100076000D03*
%TD*%
%TO.C,86*%
X90678000Y-111633000D03*
%TD*%
%TO.C,24*%
X84328000Y-46228000D03*
%TD*%
%TO.C,61*%
X71628000Y-95504000D03*
%TD*%
%TO.C,\u002A\u002A145*%
X87376000Y-106426000D03*
%TD*%
%TO.C,\u002A\u002A158*%
X125476000Y-116078000D03*
%TD*%
%TO.C,83*%
X87376000Y-111633000D03*
%TD*%
%TO.C,35*%
X144526000Y-54483000D03*
%TD*%
%TO.C,\u002A\u002A116*%
X106426000Y-97028000D03*
%TD*%
D13*
%TO.C,SW21*%
X55372000Y-111252000D03*
X65532000Y-111252000D03*
D14*
X60452000Y-111252000D03*
%TD*%
D12*
%TO.C,\u002A\u002A115*%
X106426000Y-100076000D03*
%TD*%
%TO.C,\u002A\u002A150*%
X106426000Y-119126000D03*
%TD*%
%TO.C,56*%
X141478000Y-65278000D03*
%TD*%
%TO.C,\u002A\u002A108*%
X87376000Y-100076000D03*
%TD*%
%TO.C,53*%
X128778000Y-76454000D03*
%TD*%
%TO.C,66*%
X90678000Y-92583000D03*
%TD*%
%TO.C,*%
X90678000Y-68326000D03*
%TD*%
%TO.C,\u002A\u002A113*%
X90678000Y-100076000D03*
%TD*%
%TO.C,\u002A\u002A117*%
X106426000Y-87376000D03*
%TD*%
%TO.C,\u002A\u002A21*%
X125476000Y-27178000D03*
%TD*%
%TO.C,31*%
X125476000Y-54483000D03*
%TD*%
D13*
%TO.C,SW3*%
X93472000Y-35052000D03*
X103632000Y-35052000D03*
D14*
X98552000Y-35052000D03*
%TD*%
D13*
%TO.C,SW13*%
X93472000Y-73152000D03*
X103632000Y-73152000D03*
D14*
X98552000Y-73152000D03*
%TD*%
D15*
%TO.C,D*%
X112776000Y-99949000D03*
D16*
X119126000Y-99949000D03*
%TD*%
D15*
%TO.C,D*%
X112776000Y-61849000D03*
D16*
X119126000Y-61849000D03*
%TD*%
D12*
%TO.C,51*%
X125476000Y-73533000D03*
%TD*%
%TO.C,\u002A\u002A106*%
X71628000Y-100076000D03*
%TD*%
D13*
%TO.C,SW6*%
X65532000Y-54102000D03*
D14*
X60452000Y-54102000D03*
D13*
X55372000Y-54102000D03*
%TD*%
D12*
%TO.C,73*%
X128778000Y-95504000D03*
%TD*%
%TO.C,\u002A\u002A98*%
X144526000Y-65278000D03*
%TD*%
D15*
%TO.C,D*%
X55626000Y-80899000D03*
D16*
X61976000Y-80899000D03*
%TD*%
D12*
%TO.C,\u002A\u002A24*%
X144526000Y-42926000D03*
%TD*%
%TO.C,\u002A\u002A12*%
X106426000Y-30226000D03*
%TD*%
%TO.C,\u002A\u002A102*%
X68326000Y-97028000D03*
%TD*%
%TO.C,50*%
X109728000Y-73533000D03*
%TD*%
%TO.C,\u002A\u002A14*%
X106426000Y-27178000D03*
%TD*%
%TO.C,\u002A\u002A3*%
X87376000Y-42926000D03*
%TD*%
%TO.C,\u002A\u002A66*%
X68326000Y-81026000D03*
%TD*%
%TO.C,\u002A\u002A104*%
X52578000Y-84328000D03*
%TD*%
%TO.C,\u002A\u002A164*%
X144526000Y-119126000D03*
%TD*%
D14*
%TO.C,SW16*%
X60452000Y-92202000D03*
D13*
X65532000Y-92202000D03*
X55372000Y-92202000D03*
%TD*%
D12*
%TO.C,58*%
X52578000Y-92583000D03*
%TD*%
D15*
%TO.C,D*%
X55626000Y-99949000D03*
D16*
X61976000Y-99949000D03*
%TD*%
D12*
%TO.C,\u002A\u002A73*%
X87376000Y-81026000D03*
%TD*%
%TO.C,\u002A\u002A44*%
X103378000Y-61976000D03*
%TD*%
%TO.C,\u002A\u002A40*%
X87376000Y-49276000D03*
%TD*%
%TO.C,*%
X68326000Y-35433000D03*
%TD*%
%TO.C,\u002A\u002A83*%
X90678000Y-65278000D03*
%TD*%
D13*
%TO.C,SW23*%
X103632000Y-111252000D03*
X93472000Y-111252000D03*
D14*
X98552000Y-111252000D03*
%TD*%
D12*
%TO.C,39*%
X68326000Y-73533000D03*
%TD*%
%TO.C,\u002A\u002A126*%
X125476000Y-84328000D03*
%TD*%
%TO.C,\u002A\u002A79*%
X103378000Y-81026000D03*
%TD*%
%TO.C,\u002A\u002A9*%
X103378000Y-42926000D03*
%TD*%
%TO.C,\u002A\u002A13*%
X90678000Y-27178000D03*
%TD*%
%TO.C,*%
X109728000Y-68326000D03*
%TD*%
D15*
%TO.C,D*%
X112776000Y-118999000D03*
D16*
X119126000Y-118999000D03*
%TD*%
D12*
%TO.C,3*%
X87376000Y-35433000D03*
%TD*%
%TO.C,70*%
X109728000Y-92583000D03*
%TD*%
%TO.C,95*%
X144526000Y-111633000D03*
%TD*%
%TO.C,93*%
X128778000Y-114554000D03*
%TD*%
%TO.C,*%
X128778000Y-68326000D03*
%TD*%
%TO.C,76*%
X141478000Y-84328000D03*
%TD*%
%TO.C,\u002A\u002A22*%
X128778000Y-42926000D03*
%TD*%
%TO.C,69*%
X109728000Y-95504000D03*
%TD*%
%TO.C,\u002A\u002A87*%
X125476000Y-81026000D03*
%TD*%
%TO.C,\u002A\u002A27*%
X128778000Y-27178000D03*
%TD*%
D15*
%TO.C,D*%
X93726000Y-42799000D03*
D16*
X100076000Y-42799000D03*
%TD*%
D12*
%TO.C,4*%
X84328000Y-27178000D03*
%TD*%
D13*
%TO.C,SW17*%
X84582000Y-92202000D03*
X74422000Y-92202000D03*
D14*
X79502000Y-92202000D03*
%TD*%
D12*
%TO.C,\u002A\u002A35*%
X68326000Y-46228000D03*
%TD*%
%TO.C,\u002A\u002A103*%
X68326000Y-87376000D03*
%TD*%
D14*
%TO.C,SW7*%
X79502000Y-54102000D03*
D13*
X84582000Y-54102000D03*
X74422000Y-54102000D03*
%TD*%
D15*
%TO.C,D*%
X74676000Y-61849000D03*
D16*
X81026000Y-61849000D03*
%TD*%
D15*
%TO.C,D*%
X131826000Y-80899000D03*
D16*
X138176000Y-80899000D03*
%TD*%
D12*
%TO.C,\u002A\u002A124*%
X125476000Y-87376000D03*
%TD*%
%TO.C,\u002A\u002A125*%
X109728000Y-84328000D03*
%TD*%
%TO.C,*%
X90678000Y-87376000D03*
%TD*%
D14*
%TO.C,SW8*%
X98552000Y-54102000D03*
D13*
X103632000Y-54102000D03*
X93472000Y-54102000D03*
%TD*%
%LPC*%
D12*
%TO.C,65*%
X90678000Y-95504000D03*
%TD*%
%TO.C,*%
X109728000Y-49276000D03*
%TD*%
%TO.C,\u002A\u002A81*%
X106426000Y-77978000D03*
%TD*%
%TO.C,\u002A\u002A48*%
X90678000Y-46228000D03*
%TD*%
%TO.C,\u002A\u002A11*%
X106426000Y-39878000D03*
%TD*%
%TO.C,\u002A\u002A37*%
X84328000Y-61976000D03*
%TD*%
%TO.C,\u002A\u002A23*%
X141478000Y-42926000D03*
%TD*%
%TO.C,\u002A\u002A50*%
X109728000Y-61976000D03*
%TD*%
%TO.C,\u002A\u002A114*%
X103378000Y-100076000D03*
%TD*%
%TO.C,\u002A\u002A156*%
X122428000Y-119126000D03*
%TD*%
%TO.C,62*%
X71628000Y-92583000D03*
%TD*%
%TO.C,\u002A\u002A62*%
X128778000Y-46228000D03*
%TD*%
%TO.C,\u002A\u002A5*%
X87376000Y-30226000D03*
%TD*%
%TO.C,\u002A\u002A140*%
X68326000Y-103378000D03*
%TD*%
%TO.C,\u002A\u002A153*%
X90678000Y-103378000D03*
%TD*%
%TO.C,\u002A\u002A*%
X68326000Y-30226000D03*
%TD*%
%TO.C,\u002A\u002A167*%
X128778000Y-103378000D03*
%TD*%
%TO.C,\u002A\u002A88*%
X125476000Y-77978000D03*
%TD*%
%TO.C,*%
X52578000Y-49276000D03*
%TD*%
%TO.C,\u002A\u002A109*%
X87376000Y-97028000D03*
%TD*%
%TO.C,\u002A\u002A19*%
X125476000Y-30226000D03*
%TD*%
%TO.C,\u002A\u002A123*%
X125476000Y-97028000D03*
%TD*%
%TO.C,96*%
X141478000Y-103378000D03*
%TD*%
%TO.C,\u002A\u002A166*%
X144526000Y-106426000D03*
%TD*%
%TO.C,\u002A\u002A69*%
X52578000Y-65278000D03*
%TD*%
D13*
%TO.C,SW22*%
X84582000Y-111252000D03*
X74422000Y-111252000D03*
D17*
X76962000Y-116332000D03*
X83312000Y-113792000D03*
D14*
X79502000Y-111252000D03*
%TD*%
%TO.C,SW15*%
X136652000Y-73152000D03*
D13*
X141732000Y-73152000D03*
D17*
X134112000Y-78232000D03*
X140462000Y-75692000D03*
D13*
X131572000Y-73152000D03*
%TD*%
D12*
%TO.C,\u002A\u002A38*%
X87376000Y-61976000D03*
%TD*%
%TO.C,\u002A\u002A47*%
X106426000Y-49276000D03*
%TD*%
%TO.C,33*%
X128778000Y-57404000D03*
%TD*%
%TO.C,91*%
X125476000Y-111633000D03*
%TD*%
%TO.C,\u002A\u002A157*%
X125476000Y-119126000D03*
%TD*%
%TO.C,\u002A\u002A144*%
X87376000Y-116078000D03*
%TD*%
%TO.C,\u002A\u002A129*%
X144526000Y-100076000D03*
%TD*%
%TO.C,\u002A\u002A82*%
X106426000Y-68326000D03*
%TD*%
%TO.C,*%
X128778000Y-106426000D03*
%TD*%
%TO.C,*%
X52578000Y-38354000D03*
%TD*%
%TO.C,\u002A\u002A2*%
X84328000Y-42926000D03*
%TD*%
%TO.C,\u002A\u002A91*%
X125476000Y-65278000D03*
%TD*%
%TO.C,\u002A\u002A147*%
X87376000Y-103378000D03*
%TD*%
%TO.C,\u002A\u002A52*%
X125476000Y-61976000D03*
%TD*%
%TO.C,63*%
X87376000Y-92583000D03*
%TD*%
%TO.C,\u002A\u002A71*%
X71628000Y-81026000D03*
%TD*%
%TO.C,*%
X90678000Y-49276000D03*
%TD*%
%TO.C,87*%
X106426000Y-111633000D03*
%TD*%
%TO.C,\u002A\u002A143*%
X87376000Y-119126000D03*
%TD*%
D15*
%TO.C,D*%
X131826000Y-118999000D03*
D16*
X138176000Y-118999000D03*
%TD*%
D14*
%TO.C,SW24*%
X117602000Y-111252000D03*
D17*
X121412000Y-113792000D03*
D13*
X112522000Y-111252000D03*
X122682000Y-111252000D03*
D17*
X115062000Y-116332000D03*
%TD*%
D12*
%TO.C,49*%
X109728000Y-76454000D03*
%TD*%
%TO.C,\u002A\u002A*%
X68326000Y-27178000D03*
%TD*%
%TO.C,71*%
X125476000Y-92583000D03*
%TD*%
%TO.C,54*%
X128778000Y-73533000D03*
%TD*%
D15*
%TO.C,D*%
X93726000Y-118999000D03*
D16*
X100076000Y-118999000D03*
%TD*%
D15*
%TO.C,D*%
X55626000Y-118999000D03*
D16*
X61976000Y-118999000D03*
%TD*%
D12*
%TO.C,43*%
X87376000Y-73533000D03*
%TD*%
%TO.C,\u002A\u002A148*%
X90678000Y-119126000D03*
%TD*%
%TO.C,\u002A\u002A89*%
X125476000Y-68326000D03*
%TD*%
%TO.C,*%
X65278000Y-27178000D03*
%TD*%
%TO.C,\u002A\u002A43*%
X90678000Y-61976000D03*
%TD*%
%TO.C,\u002A\u002A139*%
X52578000Y-103378000D03*
%TD*%
%TO.C,\u002A\u002A54*%
X125476000Y-49276000D03*
%TD*%
%TO.C,\u002A\u002A90*%
X109728000Y-65278000D03*
%TD*%
%TO.C,47*%
X106426000Y-73533000D03*
%TD*%
%TO.C,79*%
X68326000Y-111633000D03*
%TD*%
%TO.C,\u002A\u002A146*%
X71628000Y-103378000D03*
%TD*%
D15*
%TO.C,D*%
X74676000Y-42799000D03*
D16*
X81026000Y-42799000D03*
%TD*%
D12*
%TO.C,10*%
X109728000Y-35433000D03*
%TD*%
%TO.C,\u002A\u002A68*%
X68326000Y-68326000D03*
%TD*%
D14*
%TO.C,SW19*%
X117602000Y-92202000D03*
D13*
X112522000Y-92202000D03*
D17*
X115062000Y-97282000D03*
X121412000Y-94742000D03*
D13*
X122682000Y-92202000D03*
%TD*%
D12*
%TO.C,\u002A\u002A67*%
X68326000Y-77978000D03*
%TD*%
D17*
%TO.C,SW10*%
X140462000Y-56642000D03*
D13*
X131572000Y-54102000D03*
D17*
X134112000Y-59182000D03*
D14*
X136652000Y-54102000D03*
D13*
X141732000Y-54102000D03*
%TD*%
D12*
%TO.C,80*%
X65278000Y-103378000D03*
%TD*%
%TO.C,\u002A\u002A29*%
X52578000Y-61976000D03*
%TD*%
%TO.C,\u002A\u002A*%
X68326000Y-42926000D03*
%TD*%
D13*
%TO.C,SW25*%
X131572000Y-111252000D03*
D14*
X136652000Y-111252000D03*
D13*
X141732000Y-111252000D03*
D17*
X134112000Y-116332000D03*
X140462000Y-113792000D03*
%TD*%
D12*
%TO.C,\u002A\u002A15*%
X109728000Y-42926000D03*
%TD*%
%TO.C,\u002A\u002A25*%
X144526000Y-39878000D03*
%TD*%
%TO.C,\u002A\u002A45*%
X106426000Y-61976000D03*
%TD*%
D15*
%TO.C,D*%
X131826000Y-61849000D03*
D16*
X138176000Y-61849000D03*
%TD*%
D12*
%TO.C,74*%
X128778000Y-92583000D03*
%TD*%
%TO.C,8*%
X103378000Y-27178000D03*
%TD*%
%TO.C,\u002A\u002A*%
X52578000Y-27178000D03*
%TD*%
%TO.C,\u002A\u002A53*%
X125476000Y-58928000D03*
%TD*%
%TO.C,\u002A\u002A159*%
X125476000Y-106426000D03*
%TD*%
%TO.C,*%
X52578000Y-106426000D03*
%TD*%
%TO.C,77*%
X52578000Y-114554000D03*
%TD*%
%TO.C,22*%
X71628000Y-54483000D03*
%TD*%
%TO.C,11*%
X125476000Y-35433000D03*
%TD*%
%TO.C,\u002A\u002A165*%
X144526000Y-116078000D03*
%TD*%
%TO.C,\u002A\u002A39*%
X87376000Y-58928000D03*
%TD*%
%TO.C,\u002A\u002A17*%
X125476000Y-42926000D03*
%TD*%
%TO.C,\u002A\u002A127*%
X128778000Y-100076000D03*
%TD*%
%TO.C,18*%
X52578000Y-54483000D03*
%TD*%
%TO.C,\u002A\u002A57*%
X128778000Y-61976000D03*
%TD*%
D13*
%TO.C,SW12*%
X74422000Y-73152000D03*
D17*
X83312000Y-75692000D03*
X76962000Y-78232000D03*
D14*
X79502000Y-73152000D03*
D13*
X84582000Y-73152000D03*
%TD*%
D12*
%TO.C,\u002A\u002A130*%
X144526000Y-97028000D03*
%TD*%
%TO.C,\u002A\u002A162*%
X128778000Y-119126000D03*
%TD*%
%TO.C,\u002A\u002A138*%
X68326000Y-106426000D03*
%TD*%
%TO.C,72*%
X122428000Y-84328000D03*
%TD*%
%TO.C,81*%
X71628000Y-114554000D03*
%TD*%
D14*
%TO.C,SW4*%
X117602000Y-35052000D03*
D13*
X112522000Y-35052000D03*
D17*
X121412000Y-37592000D03*
X115062000Y-40132000D03*
D13*
X122682000Y-35052000D03*
%TD*%
D12*
%TO.C,\u002A\u002A160*%
X109728000Y-103378000D03*
%TD*%
%TO.C,\u002A\u002A59*%
X144526000Y-61976000D03*
%TD*%
%TO.C,\u002A\u002A101*%
X68326000Y-100076000D03*
%TD*%
%TO.C,\u002A\u002A33*%
X68326000Y-49276000D03*
%TD*%
%TO.C,\u002A\u002A97*%
X128778000Y-65278000D03*
%TD*%
%TO.C,\u002A\u002A60*%
X144526000Y-58928000D03*
%TD*%
D15*
%TO.C,D*%
X112776000Y-80899000D03*
D16*
X119126000Y-80899000D03*
%TD*%
D12*
%TO.C,68*%
X103378000Y-84328000D03*
%TD*%
%TO.C,94*%
X128778000Y-111633000D03*
%TD*%
%TO.C,*%
X52578000Y-30226000D03*
%TD*%
%TO.C,46*%
X90678000Y-73533000D03*
%TD*%
%TO.C,60*%
X65278000Y-84328000D03*
%TD*%
%TO.C,9*%
X109728000Y-38354000D03*
%TD*%
%TO.C,89*%
X109728000Y-114554000D03*
%TD*%
%TO.C,14*%
X128778000Y-35433000D03*
%TD*%
%TO.C,*%
X71628000Y-106426000D03*
%TD*%
%TO.C,\u002A\u002A149*%
X103378000Y-119126000D03*
%TD*%
%TO.C,\u002A\u002A56*%
X125476000Y-46228000D03*
%TD*%
%TO.C,\u002A\u002A63*%
X144526000Y-46228000D03*
%TD*%
%TO.C,\u002A\u002A76*%
X71628000Y-65278000D03*
%TD*%
%TO.C,\u002A\u002A151*%
X106426000Y-116078000D03*
%TD*%
D15*
%TO.C,D*%
X55626000Y-42799000D03*
D16*
X61976000Y-42799000D03*
%TD*%
D12*
%TO.C,\u002A\u002A95*%
X144526000Y-77978000D03*
%TD*%
%TO.C,\u002A\u002A8*%
X90678000Y-42926000D03*
%TD*%
%TO.C,32*%
X122428000Y-46228000D03*
%TD*%
%TO.C,\u002A\u002A112*%
X87376000Y-84328000D03*
%TD*%
%TO.C,\u002A\u002A84*%
X106426000Y-65278000D03*
%TD*%
%TO.C,\u002A\u002A6*%
X71628000Y-27178000D03*
%TD*%
%TO.C,\u002A\u002A110*%
X87376000Y-87376000D03*
%TD*%
%TO.C,26*%
X90678000Y-54483000D03*
%TD*%
%TO.C,\u002A\u002A152*%
X106426000Y-106426000D03*
%TD*%
%TO.C,*%
X109728000Y-30226000D03*
%TD*%
%TO.C,\u002A\u002A94*%
X144526000Y-81026000D03*
%TD*%
%TO.C,*%
X71628000Y-30226000D03*
%TD*%
%TO.C,*%
X71628000Y-49276000D03*
%TD*%
%TO.C,\u002A\u002A161*%
X125476000Y-103378000D03*
%TD*%
%TO.C,\u002A\u002A77*%
X87376000Y-65278000D03*
%TD*%
%TO.C,12*%
X122428000Y-27178000D03*
%TD*%
%TO.C,\u002A\u002A74*%
X87376000Y-77978000D03*
%TD*%
%TO.C,\u002A\u002A4*%
X87376000Y-39878000D03*
%TD*%
D17*
%TO.C,SW20*%
X140462000Y-94742000D03*
D14*
X136652000Y-92202000D03*
D13*
X131572000Y-92202000D03*
X141732000Y-92202000D03*
D17*
X134112000Y-97282000D03*
%TD*%
D12*
%TO.C,64*%
X84328000Y-84328000D03*
%TD*%
%TO.C,20*%
X65278000Y-46228000D03*
%TD*%
%TO.C,*%
X109728000Y-106426000D03*
%TD*%
%TO.C,\u002A\u002A28*%
X144526000Y-27178000D03*
%TD*%
D17*
%TO.C,SW2*%
X83312000Y-37592000D03*
D13*
X84582000Y-35052000D03*
D17*
X76962000Y-40132000D03*
D13*
X74422000Y-35052000D03*
D14*
X79502000Y-35052000D03*
%TD*%
D15*
%TO.C,D*%
X93726000Y-99949000D03*
D16*
X100076000Y-99949000D03*
%TD*%
D12*
%TO.C,\u002A\u002A121*%
X122428000Y-100076000D03*
%TD*%
D14*
%TO.C,SW11*%
X60452000Y-73152000D03*
D13*
X65532000Y-73152000D03*
D17*
X64262000Y-75692000D03*
X57912000Y-78232000D03*
D13*
X55372000Y-73152000D03*
%TD*%
D12*
%TO.C,\u002A\u002A16*%
X122428000Y-42926000D03*
%TD*%
%TO.C,\u002A\u002A92*%
X128778000Y-81026000D03*
%TD*%
%TO.C,57*%
X52578000Y-95504000D03*
%TD*%
%TO.C,59*%
X68326000Y-92583000D03*
%TD*%
%TO.C,\u002A\u002A136*%
X68326000Y-119126000D03*
%TD*%
%TO.C,\u002A\u002A119*%
X106426000Y-84328000D03*
%TD*%
%TO.C,82*%
X71628000Y-111633000D03*
%TD*%
%TO.C,\u002A\u002A132*%
X128778000Y-84328000D03*
%TD*%
%TO.C,78*%
X52578000Y-111633000D03*
%TD*%
%TO.C,*%
X128778000Y-49276000D03*
%TD*%
%TO.C,\u002A\u002A49*%
X106426000Y-46228000D03*
%TD*%
%TO.C,\u002A\u002A34*%
X52578000Y-46228000D03*
%TD*%
%TO.C,67*%
X106426000Y-92583000D03*
%TD*%
%TO.C,75*%
X144526000Y-92583000D03*
%TD*%
D13*
%TO.C,SW9*%
X122682000Y-54102000D03*
X112522000Y-54102000D03*
D17*
X115062000Y-59182000D03*
X121412000Y-56642000D03*
D14*
X117602000Y-54102000D03*
%TD*%
D12*
%TO.C,\u002A\u002A154*%
X106426000Y-103378000D03*
%TD*%
D15*
%TO.C,D*%
X131826000Y-99949000D03*
D16*
X138176000Y-99949000D03*
%TD*%
D12*
%TO.C,\u002A\u002A65*%
X65278000Y-81026000D03*
%TD*%
%TO.C,\u002A\u002A85*%
X109728000Y-81026000D03*
%TD*%
D15*
%TO.C,D*%
X55626000Y-61849000D03*
D16*
X61976000Y-61849000D03*
%TD*%
D12*
%TO.C,1*%
X71628000Y-38354000D03*
%TD*%
D15*
%TO.C,D*%
X74676000Y-118999000D03*
D16*
X81026000Y-118999000D03*
%TD*%
D12*
%TO.C,\u002A\u002A51*%
X122428000Y-61976000D03*
%TD*%
%TO.C,*%
X71628000Y-68326000D03*
%TD*%
%TO.C,\u002A\u002A58*%
X141478000Y-61976000D03*
%TD*%
%TO.C,23*%
X87376000Y-54483000D03*
%TD*%
%TO.C,\u002A\u002A61*%
X144526000Y-49276000D03*
%TD*%
%TO.C,\u002A\u002A128*%
X141478000Y-100076000D03*
%TD*%
%TO.C,85*%
X90678000Y-114554000D03*
%TD*%
%TO.C,\u002A\u002A72*%
X84328000Y-81026000D03*
%TD*%
%TO.C,\u002A\u002A46*%
X106426000Y-58928000D03*
%TD*%
%TO.C,\u002A\u002A*%
X52578000Y-42926000D03*
%TD*%
%TO.C,19*%
X68326000Y-54483000D03*
%TD*%
%TO.C,44*%
X84328000Y-65278000D03*
%TD*%
%TO.C,\u002A\u002A118*%
X90678000Y-84328000D03*
%TD*%
%TO.C,\u002A\u002A10*%
X106426000Y-42926000D03*
%TD*%
%TO.C,\u002A\u002A78*%
X90678000Y-81026000D03*
%TD*%
%TO.C,\u002A\u002A80*%
X106426000Y-81026000D03*
%TD*%
D15*
%TO.C,D*%
X93726000Y-80899000D03*
D16*
X100076000Y-80899000D03*
%TD*%
D12*
%TO.C,\u002A\u002A168*%
X144526000Y-103378000D03*
%TD*%
%TO.C,16*%
X141478000Y-27178000D03*
%TD*%
%TO.C,\u002A\u002A93*%
X141478000Y-81026000D03*
%TD*%
%TO.C,*%
X109728000Y-87376000D03*
%TD*%
%TO.C,\u002A\u002A131*%
X144526000Y-87376000D03*
%TD*%
%TO.C,13*%
X128778000Y-38354000D03*
%TD*%
%TO.C,\u002A\u002A30*%
X65278000Y-61976000D03*
%TD*%
%TO.C,*%
X128778000Y-30226000D03*
%TD*%
%TO.C,52*%
X122428000Y-65278000D03*
%TD*%
%TO.C,\u002A\u002A26*%
X144526000Y-30226000D03*
%TD*%
%TO.C,41*%
X71628000Y-76454000D03*
%TD*%
%TO.C,\u002A\u002A20*%
X109728000Y-27178000D03*
%TD*%
%TO.C,48*%
X103378000Y-65278000D03*
%TD*%
%TO.C,\u002A\u002A100*%
X65278000Y-100076000D03*
%TD*%
%TO.C,30*%
X109728000Y-54483000D03*
%TD*%
%TO.C,55*%
X144526000Y-73533000D03*
%TD*%
%TO.C,\u002A\u002A18*%
X125476000Y-39878000D03*
%TD*%
D15*
%TO.C,D*%
X112776000Y-42799000D03*
D16*
X119126000Y-42799000D03*
%TD*%
D12*
%TO.C,\u002A\u002A99*%
X52578000Y-100076000D03*
%TD*%
%TO.C,\u002A\u002A1*%
X71628000Y-42926000D03*
%TD*%
%TO.C,\u002A\u002A96*%
X144526000Y-68326000D03*
%TD*%
%TO.C,\u002A\u002A135*%
X65278000Y-119126000D03*
%TD*%
%TO.C,*%
X90678000Y-106426000D03*
%TD*%
%TO.C,34*%
X128778000Y-54483000D03*
%TD*%
%TO.C,\u002A\u002A31*%
X68326000Y-61976000D03*
%TD*%
D15*
%TO.C,D*%
X74676000Y-80899000D03*
D16*
X81026000Y-80899000D03*
%TD*%
D12*
%TO.C,29*%
X109728000Y-57404000D03*
%TD*%
%TO.C,*%
X90678000Y-30226000D03*
%TD*%
%TO.C,21*%
X71628000Y-57404000D03*
%TD*%
%TO.C,\u002A\u002A7*%
X87376000Y-27178000D03*
%TD*%
%TO.C,\u002A\u002A142*%
X84328000Y-119126000D03*
%TD*%
%TO.C,\u002A\u002A141*%
X71628000Y-119126000D03*
%TD*%
%TO.C,\u002A\u002A70*%
X68326000Y-65278000D03*
%TD*%
D15*
%TO.C,D*%
X74676000Y-99949000D03*
D16*
X81026000Y-99949000D03*
%TD*%
D12*
%TO.C,2*%
X71628000Y-35433000D03*
%TD*%
%TO.C,*%
X71628000Y-87376000D03*
%TD*%
%TO.C,28*%
X103378000Y-46228000D03*
%TD*%
D13*
%TO.C,SW1*%
X55372000Y-35052000D03*
D17*
X64262000Y-37592000D03*
D14*
X60452000Y-35052000D03*
D17*
X57912000Y-40132000D03*
D13*
X65532000Y-35052000D03*
%TD*%
D15*
%TO.C,D*%
X93726000Y-61849000D03*
D16*
X100076000Y-61849000D03*
%TD*%
D12*
%TO.C,88*%
X103378000Y-103378000D03*
%TD*%
%TO.C,\u002A\u002A32*%
X68326000Y-58928000D03*
%TD*%
%TO.C,90*%
X109728000Y-111633000D03*
%TD*%
%TO.C,\u002A\u002A133*%
X144526000Y-84328000D03*
%TD*%
%TO.C,\u002A\u002A36*%
X71628000Y-61976000D03*
%TD*%
%TO.C,6*%
X90678000Y-35433000D03*
%TD*%
%TO.C,25*%
X90678000Y-57404000D03*
%TD*%
D15*
%TO.C,D*%
X131826000Y-42799000D03*
D16*
X138176000Y-42799000D03*
%TD*%
D12*
%TO.C,37*%
X52578000Y-76454000D03*
%TD*%
%TO.C,*%
X128778000Y-87376000D03*
%TD*%
%TO.C,\u002A\u002A64*%
X52578000Y-81026000D03*
%TD*%
%TO.C,\u002A\u002A86*%
X122428000Y-81026000D03*
%TD*%
%TO.C,27*%
X106426000Y-54483000D03*
%TD*%
%TO.C,\u002A\u002A*%
X65278000Y-42926000D03*
%TD*%
%TO.C,38*%
X52578000Y-73533000D03*
%TD*%
%TO.C,5*%
X90678000Y-38354000D03*
%TD*%
%TO.C,\u002A\u002A134*%
X52578000Y-119126000D03*
%TD*%
%TO.C,15*%
X144526000Y-35433000D03*
%TD*%
%TO.C,36*%
X141478000Y-46228000D03*
%TD*%
%TO.C,40*%
X65278000Y-65278000D03*
%TD*%
%TO.C,\u002A\u002A41*%
X71628000Y-46228000D03*
%TD*%
%TO.C,*%
X52578000Y-87376000D03*
%TD*%
%TO.C,\u002A\u002A105*%
X68326000Y-84328000D03*
%TD*%
D14*
%TO.C,SW18*%
X98552000Y-92202000D03*
D17*
X96012000Y-97282000D03*
D13*
X103632000Y-92202000D03*
X93472000Y-92202000D03*
D17*
X102362000Y-94742000D03*
%TD*%
D12*
%TO.C,\u002A\u002A107*%
X84328000Y-100076000D03*
%TD*%
%TO.C,\u002A\u002A155*%
X109728000Y-119126000D03*
%TD*%
D17*
%TO.C,SW14*%
X121412000Y-75692000D03*
D13*
X112522000Y-73152000D03*
D14*
X117602000Y-73152000D03*
D13*
X122682000Y-73152000D03*
D17*
X115062000Y-78232000D03*
%TD*%
D12*
%TO.C,7*%
X106426000Y-35433000D03*
%TD*%
D17*
%TO.C,SW5*%
X140462000Y-37592000D03*
X134112000Y-40132000D03*
D13*
X131572000Y-35052000D03*
D14*
X136652000Y-35052000D03*
D13*
X141732000Y-35052000D03*
%TD*%
D12*
%TO.C,*%
X52578000Y-35433000D03*
%TD*%
%TO.C,92*%
X122428000Y-103378000D03*
%TD*%
%TO.C,\u002A\u002A137*%
X68326000Y-116078000D03*
%TD*%
%TO.C,17*%
X52578000Y-57404000D03*
%TD*%
%TO.C,\u002A\u002A111*%
X71628000Y-84328000D03*
%TD*%
%TO.C,45*%
X90678000Y-76454000D03*
%TD*%
%TO.C,42*%
X71628000Y-73533000D03*
%TD*%
%TO.C,\u002A\u002A75*%
X87376000Y-68326000D03*
%TD*%
%TO.C,\u002A\u002A55*%
X109728000Y-46228000D03*
%TD*%
%TO.C,\u002A\u002A163*%
X141478000Y-119126000D03*
%TD*%
%TO.C,\u002A\u002A120*%
X109728000Y-100076000D03*
%TD*%
%TO.C,\u002A\u002A*%
X68326000Y-39878000D03*
%TD*%
%TO.C,*%
X52578000Y-68326000D03*
%TD*%
%TO.C,84*%
X84328000Y-103378000D03*
%TD*%
%TO.C,\u002A\u002A42*%
X87376000Y-46228000D03*
%TD*%
%TO.C,\u002A\u002A122*%
X125476000Y-100076000D03*
%TD*%
%TO.C,86*%
X90678000Y-111633000D03*
%TD*%
%TO.C,24*%
X84328000Y-46228000D03*
%TD*%
%TO.C,61*%
X71628000Y-95504000D03*
%TD*%
%TO.C,\u002A\u002A145*%
X87376000Y-106426000D03*
%TD*%
%TO.C,\u002A\u002A158*%
X125476000Y-116078000D03*
%TD*%
%TO.C,83*%
X87376000Y-111633000D03*
%TD*%
%TO.C,35*%
X144526000Y-54483000D03*
%TD*%
%TO.C,\u002A\u002A116*%
X106426000Y-97028000D03*
%TD*%
D13*
%TO.C,SW21*%
X55372000Y-111252000D03*
D17*
X64262000Y-113792000D03*
D13*
X65532000Y-111252000D03*
D14*
X60452000Y-111252000D03*
D17*
X57912000Y-116332000D03*
%TD*%
D12*
%TO.C,\u002A\u002A115*%
X106426000Y-100076000D03*
%TD*%
%TO.C,\u002A\u002A150*%
X106426000Y-119126000D03*
%TD*%
%TO.C,56*%
X141478000Y-65278000D03*
%TD*%
%TO.C,\u002A\u002A108*%
X87376000Y-100076000D03*
%TD*%
%TO.C,53*%
X128778000Y-76454000D03*
%TD*%
%TO.C,66*%
X90678000Y-92583000D03*
%TD*%
%TO.C,*%
X90678000Y-68326000D03*
%TD*%
%TO.C,\u002A\u002A113*%
X90678000Y-100076000D03*
%TD*%
%TO.C,\u002A\u002A117*%
X106426000Y-87376000D03*
%TD*%
%TO.C,\u002A\u002A21*%
X125476000Y-27178000D03*
%TD*%
%TO.C,31*%
X125476000Y-54483000D03*
%TD*%
D13*
%TO.C,SW3*%
X93472000Y-35052000D03*
D17*
X96012000Y-40132000D03*
D13*
X103632000Y-35052000D03*
D14*
X98552000Y-35052000D03*
D17*
X102362000Y-37592000D03*
%TD*%
%TO.C,SW13*%
X96012000Y-78232000D03*
D13*
X93472000Y-73152000D03*
X103632000Y-73152000D03*
D14*
X98552000Y-73152000D03*
D17*
X102362000Y-75692000D03*
%TD*%
D15*
%TO.C,D*%
X112776000Y-99949000D03*
D16*
X119126000Y-99949000D03*
%TD*%
D15*
%TO.C,D*%
X112776000Y-61849000D03*
D16*
X119126000Y-61849000D03*
%TD*%
D12*
%TO.C,51*%
X125476000Y-73533000D03*
%TD*%
%TO.C,\u002A\u002A106*%
X71628000Y-100076000D03*
%TD*%
D13*
%TO.C,SW6*%
X65532000Y-54102000D03*
D17*
X64262000Y-56642000D03*
X57912000Y-59182000D03*
D14*
X60452000Y-54102000D03*
D13*
X55372000Y-54102000D03*
%TD*%
D12*
%TO.C,73*%
X128778000Y-95504000D03*
%TD*%
%TO.C,\u002A\u002A98*%
X144526000Y-65278000D03*
%TD*%
D15*
%TO.C,D*%
X55626000Y-80899000D03*
D16*
X61976000Y-80899000D03*
%TD*%
D12*
%TO.C,\u002A\u002A24*%
X144526000Y-42926000D03*
%TD*%
%TO.C,\u002A\u002A12*%
X106426000Y-30226000D03*
%TD*%
%TO.C,\u002A\u002A102*%
X68326000Y-97028000D03*
%TD*%
%TO.C,50*%
X109728000Y-73533000D03*
%TD*%
%TO.C,\u002A\u002A14*%
X106426000Y-27178000D03*
%TD*%
%TO.C,\u002A\u002A3*%
X87376000Y-42926000D03*
%TD*%
%TO.C,\u002A\u002A66*%
X68326000Y-81026000D03*
%TD*%
%TO.C,\u002A\u002A104*%
X52578000Y-84328000D03*
%TD*%
%TO.C,\u002A\u002A164*%
X144526000Y-119126000D03*
%TD*%
D14*
%TO.C,SW16*%
X60452000Y-92202000D03*
D13*
X65532000Y-92202000D03*
D17*
X64262000Y-94742000D03*
D13*
X55372000Y-92202000D03*
D17*
X57912000Y-97282000D03*
%TD*%
D12*
%TO.C,58*%
X52578000Y-92583000D03*
%TD*%
D15*
%TO.C,D*%
X55626000Y-99949000D03*
D16*
X61976000Y-99949000D03*
%TD*%
D12*
%TO.C,\u002A\u002A73*%
X87376000Y-81026000D03*
%TD*%
%TO.C,\u002A\u002A44*%
X103378000Y-61976000D03*
%TD*%
%TO.C,\u002A\u002A40*%
X87376000Y-49276000D03*
%TD*%
%TO.C,*%
X68326000Y-35433000D03*
%TD*%
%TO.C,\u002A\u002A83*%
X90678000Y-65278000D03*
%TD*%
D13*
%TO.C,SW23*%
X103632000Y-111252000D03*
X93472000Y-111252000D03*
D17*
X102362000Y-113792000D03*
X96012000Y-116332000D03*
D14*
X98552000Y-111252000D03*
%TD*%
D12*
%TO.C,39*%
X68326000Y-73533000D03*
%TD*%
%TO.C,\u002A\u002A126*%
X125476000Y-84328000D03*
%TD*%
%TO.C,\u002A\u002A79*%
X103378000Y-81026000D03*
%TD*%
%TO.C,\u002A\u002A9*%
X103378000Y-42926000D03*
%TD*%
%TO.C,\u002A\u002A13*%
X90678000Y-27178000D03*
%TD*%
%TO.C,*%
X109728000Y-68326000D03*
%TD*%
D15*
%TO.C,D*%
X112776000Y-118999000D03*
D16*
X119126000Y-118999000D03*
%TD*%
D12*
%TO.C,3*%
X87376000Y-35433000D03*
%TD*%
%TO.C,70*%
X109728000Y-92583000D03*
%TD*%
%TO.C,95*%
X144526000Y-111633000D03*
%TD*%
%TO.C,93*%
X128778000Y-114554000D03*
%TD*%
%TO.C,*%
X128778000Y-68326000D03*
%TD*%
%TO.C,76*%
X141478000Y-84328000D03*
%TD*%
%TO.C,\u002A\u002A22*%
X128778000Y-42926000D03*
%TD*%
%TO.C,69*%
X109728000Y-95504000D03*
%TD*%
%TO.C,\u002A\u002A87*%
X125476000Y-81026000D03*
%TD*%
%TO.C,\u002A\u002A27*%
X128778000Y-27178000D03*
%TD*%
D15*
%TO.C,D*%
X93726000Y-42799000D03*
D16*
X100076000Y-42799000D03*
%TD*%
D12*
%TO.C,4*%
X84328000Y-27178000D03*
%TD*%
D13*
%TO.C,SW17*%
X84582000Y-92202000D03*
D17*
X76962000Y-97282000D03*
D13*
X74422000Y-92202000D03*
D14*
X79502000Y-92202000D03*
D17*
X83312000Y-94742000D03*
%TD*%
D12*
%TO.C,\u002A\u002A35*%
X68326000Y-46228000D03*
%TD*%
%TO.C,\u002A\u002A103*%
X68326000Y-87376000D03*
%TD*%
D14*
%TO.C,SW7*%
X79502000Y-54102000D03*
D17*
X76962000Y-59182000D03*
D13*
X84582000Y-54102000D03*
D17*
X83312000Y-56642000D03*
D13*
X74422000Y-54102000D03*
%TD*%
D15*
%TO.C,D*%
X74676000Y-61849000D03*
D16*
X81026000Y-61849000D03*
%TD*%
D15*
%TO.C,D*%
X131826000Y-80899000D03*
D16*
X138176000Y-80899000D03*
%TD*%
D12*
%TO.C,\u002A\u002A124*%
X125476000Y-87376000D03*
%TD*%
%TO.C,\u002A\u002A125*%
X109728000Y-84328000D03*
%TD*%
%TO.C,*%
X90678000Y-87376000D03*
%TD*%
D14*
%TO.C,SW8*%
X98552000Y-54102000D03*
D17*
X102362000Y-56642000D03*
D13*
X103632000Y-54102000D03*
X93472000Y-54102000D03*
D17*
X96012000Y-59182000D03*
%TD*%
M02*
