%TF.GenerationSoftware,KiCad,Pcbnew,(6.0.0-0)*%
%TF.CreationDate,2022-01-01T10:49:50+00:00*%
%TF.ProjectId,Sarcodina,53617263-6f64-4696-9e61-2e6b69636164,rev?*%
%TF.SameCoordinates,Original*%
%TF.FileFunction,Soldermask,Top*%
%TF.FilePolarity,Negative*%
%FSLAX46Y46*%
G04 Gerber Fmt 4.6, Leading zero omitted, Abs format (unit mm)*
G04 Created by KiCad (PCBNEW (6.0.0-0)) date 2022-01-01 10:49:50*
%MOMM*%
%LPD*%
G01*
G04 APERTURE LIST*
%ADD10C,1.397000*%
%ADD11C,1.900000*%
%ADD12C,3.000000*%
%ADD13C,4.100000*%
%ADD14R,1.400000X1.400000*%
%ADD15C,1.400000*%
G04 APERTURE END LIST*
D10*
%TO.C,65*%
X90678000Y-95504000D03*
%TD*%
%TO.C,*%
X109728000Y-49276000D03*
%TD*%
%TO.C,\u002A\u002A81*%
X106426000Y-77978000D03*
%TD*%
%TO.C,\u002A\u002A48*%
X90678000Y-46228000D03*
%TD*%
%TO.C,\u002A\u002A11*%
X106426000Y-39878000D03*
%TD*%
%TO.C,\u002A\u002A37*%
X84328000Y-61976000D03*
%TD*%
%TO.C,\u002A\u002A23*%
X141478000Y-42926000D03*
%TD*%
%TO.C,\u002A\u002A50*%
X109728000Y-61976000D03*
%TD*%
%TO.C,\u002A\u002A114*%
X103378000Y-100076000D03*
%TD*%
%TO.C,\u002A\u002A156*%
X122428000Y-119126000D03*
%TD*%
%TO.C,62*%
X71628000Y-92583000D03*
%TD*%
%TO.C,\u002A\u002A62*%
X128778000Y-46228000D03*
%TD*%
%TO.C,\u002A\u002A5*%
X87376000Y-30226000D03*
%TD*%
%TO.C,\u002A\u002A140*%
X68326000Y-103378000D03*
%TD*%
%TO.C,\u002A\u002A153*%
X90678000Y-103378000D03*
%TD*%
%TO.C,\u002A\u002A*%
X68326000Y-30226000D03*
%TD*%
%TO.C,\u002A\u002A167*%
X128778000Y-103378000D03*
%TD*%
%TO.C,\u002A\u002A88*%
X125476000Y-77978000D03*
%TD*%
%TO.C,*%
X52578000Y-49276000D03*
%TD*%
%TO.C,\u002A\u002A109*%
X87376000Y-97028000D03*
%TD*%
%TO.C,\u002A\u002A19*%
X125476000Y-30226000D03*
%TD*%
%TO.C,\u002A\u002A123*%
X125476000Y-97028000D03*
%TD*%
%TO.C,96*%
X141478000Y-103378000D03*
%TD*%
%TO.C,\u002A\u002A166*%
X144526000Y-106426000D03*
%TD*%
%TO.C,\u002A\u002A69*%
X52578000Y-65278000D03*
%TD*%
D11*
%TO.C,SW22*%
X84582000Y-111252000D03*
X74422000Y-111252000D03*
D12*
X76962000Y-116332000D03*
X83312000Y-113792000D03*
D13*
X79502000Y-111252000D03*
%TD*%
%TO.C,SW15*%
X136652000Y-73152000D03*
D11*
X141732000Y-73152000D03*
D12*
X134112000Y-78232000D03*
X140462000Y-75692000D03*
D11*
X131572000Y-73152000D03*
%TD*%
D10*
%TO.C,\u002A\u002A38*%
X87376000Y-61976000D03*
%TD*%
%TO.C,\u002A\u002A47*%
X106426000Y-49276000D03*
%TD*%
%TO.C,33*%
X128778000Y-57404000D03*
%TD*%
%TO.C,91*%
X125476000Y-111633000D03*
%TD*%
%TO.C,\u002A\u002A157*%
X125476000Y-119126000D03*
%TD*%
%TO.C,\u002A\u002A144*%
X87376000Y-116078000D03*
%TD*%
%TO.C,\u002A\u002A129*%
X144526000Y-100076000D03*
%TD*%
%TO.C,\u002A\u002A82*%
X106426000Y-68326000D03*
%TD*%
%TO.C,*%
X128778000Y-106426000D03*
%TD*%
%TO.C,*%
X52578000Y-38354000D03*
%TD*%
%TO.C,\u002A\u002A2*%
X84328000Y-42926000D03*
%TD*%
%TO.C,\u002A\u002A91*%
X125476000Y-65278000D03*
%TD*%
%TO.C,\u002A\u002A147*%
X87376000Y-103378000D03*
%TD*%
%TO.C,\u002A\u002A52*%
X125476000Y-61976000D03*
%TD*%
%TO.C,63*%
X87376000Y-92583000D03*
%TD*%
%TO.C,\u002A\u002A71*%
X71628000Y-81026000D03*
%TD*%
%TO.C,*%
X90678000Y-49276000D03*
%TD*%
%TO.C,87*%
X106426000Y-111633000D03*
%TD*%
%TO.C,\u002A\u002A143*%
X87376000Y-119126000D03*
%TD*%
D14*
%TO.C,D*%
X131826000Y-118999000D03*
D15*
X138176000Y-118999000D03*
%TD*%
D13*
%TO.C,SW24*%
X117602000Y-111252000D03*
D12*
X121412000Y-113792000D03*
D11*
X112522000Y-111252000D03*
X122682000Y-111252000D03*
D12*
X115062000Y-116332000D03*
%TD*%
D10*
%TO.C,49*%
X109728000Y-76454000D03*
%TD*%
%TO.C,\u002A\u002A*%
X68326000Y-27178000D03*
%TD*%
%TO.C,71*%
X125476000Y-92583000D03*
%TD*%
%TO.C,54*%
X128778000Y-73533000D03*
%TD*%
D14*
%TO.C,D*%
X93726000Y-118999000D03*
D15*
X100076000Y-118999000D03*
%TD*%
D14*
%TO.C,D*%
X55626000Y-118999000D03*
D15*
X61976000Y-118999000D03*
%TD*%
D10*
%TO.C,43*%
X87376000Y-73533000D03*
%TD*%
%TO.C,\u002A\u002A148*%
X90678000Y-119126000D03*
%TD*%
%TO.C,\u002A\u002A89*%
X125476000Y-68326000D03*
%TD*%
%TO.C,*%
X65278000Y-27178000D03*
%TD*%
%TO.C,\u002A\u002A43*%
X90678000Y-61976000D03*
%TD*%
%TO.C,\u002A\u002A139*%
X52578000Y-103378000D03*
%TD*%
%TO.C,\u002A\u002A54*%
X125476000Y-49276000D03*
%TD*%
%TO.C,\u002A\u002A90*%
X109728000Y-65278000D03*
%TD*%
%TO.C,47*%
X106426000Y-73533000D03*
%TD*%
%TO.C,79*%
X68326000Y-111633000D03*
%TD*%
%TO.C,\u002A\u002A146*%
X71628000Y-103378000D03*
%TD*%
D14*
%TO.C,D*%
X74676000Y-42799000D03*
D15*
X81026000Y-42799000D03*
%TD*%
D10*
%TO.C,10*%
X109728000Y-35433000D03*
%TD*%
%TO.C,\u002A\u002A68*%
X68326000Y-68326000D03*
%TD*%
D13*
%TO.C,SW19*%
X117602000Y-92202000D03*
D11*
X112522000Y-92202000D03*
D12*
X115062000Y-97282000D03*
X121412000Y-94742000D03*
D11*
X122682000Y-92202000D03*
%TD*%
D10*
%TO.C,\u002A\u002A67*%
X68326000Y-77978000D03*
%TD*%
D12*
%TO.C,SW10*%
X140462000Y-56642000D03*
D11*
X131572000Y-54102000D03*
D12*
X134112000Y-59182000D03*
D13*
X136652000Y-54102000D03*
D11*
X141732000Y-54102000D03*
%TD*%
D10*
%TO.C,80*%
X65278000Y-103378000D03*
%TD*%
%TO.C,\u002A\u002A29*%
X52578000Y-61976000D03*
%TD*%
%TO.C,\u002A\u002A*%
X68326000Y-42926000D03*
%TD*%
D11*
%TO.C,SW25*%
X131572000Y-111252000D03*
D13*
X136652000Y-111252000D03*
D11*
X141732000Y-111252000D03*
D12*
X134112000Y-116332000D03*
X140462000Y-113792000D03*
%TD*%
D10*
%TO.C,\u002A\u002A15*%
X109728000Y-42926000D03*
%TD*%
%TO.C,\u002A\u002A25*%
X144526000Y-39878000D03*
%TD*%
%TO.C,\u002A\u002A45*%
X106426000Y-61976000D03*
%TD*%
D14*
%TO.C,D*%
X131826000Y-61849000D03*
D15*
X138176000Y-61849000D03*
%TD*%
D10*
%TO.C,74*%
X128778000Y-92583000D03*
%TD*%
%TO.C,8*%
X103378000Y-27178000D03*
%TD*%
%TO.C,\u002A\u002A*%
X52578000Y-27178000D03*
%TD*%
%TO.C,\u002A\u002A53*%
X125476000Y-58928000D03*
%TD*%
%TO.C,\u002A\u002A159*%
X125476000Y-106426000D03*
%TD*%
%TO.C,*%
X52578000Y-106426000D03*
%TD*%
%TO.C,77*%
X52578000Y-114554000D03*
%TD*%
%TO.C,22*%
X71628000Y-54483000D03*
%TD*%
%TO.C,11*%
X125476000Y-35433000D03*
%TD*%
%TO.C,\u002A\u002A165*%
X144526000Y-116078000D03*
%TD*%
%TO.C,\u002A\u002A39*%
X87376000Y-58928000D03*
%TD*%
%TO.C,\u002A\u002A17*%
X125476000Y-42926000D03*
%TD*%
%TO.C,\u002A\u002A127*%
X128778000Y-100076000D03*
%TD*%
%TO.C,18*%
X52578000Y-54483000D03*
%TD*%
%TO.C,\u002A\u002A57*%
X128778000Y-61976000D03*
%TD*%
D11*
%TO.C,SW12*%
X74422000Y-73152000D03*
D12*
X83312000Y-75692000D03*
X76962000Y-78232000D03*
D13*
X79502000Y-73152000D03*
D11*
X84582000Y-73152000D03*
%TD*%
D10*
%TO.C,\u002A\u002A130*%
X144526000Y-97028000D03*
%TD*%
%TO.C,\u002A\u002A162*%
X128778000Y-119126000D03*
%TD*%
%TO.C,\u002A\u002A138*%
X68326000Y-106426000D03*
%TD*%
%TO.C,72*%
X122428000Y-84328000D03*
%TD*%
%TO.C,81*%
X71628000Y-114554000D03*
%TD*%
D13*
%TO.C,SW4*%
X117602000Y-35052000D03*
D11*
X112522000Y-35052000D03*
D12*
X121412000Y-37592000D03*
X115062000Y-40132000D03*
D11*
X122682000Y-35052000D03*
%TD*%
D10*
%TO.C,\u002A\u002A160*%
X109728000Y-103378000D03*
%TD*%
%TO.C,\u002A\u002A59*%
X144526000Y-61976000D03*
%TD*%
%TO.C,\u002A\u002A101*%
X68326000Y-100076000D03*
%TD*%
%TO.C,\u002A\u002A33*%
X68326000Y-49276000D03*
%TD*%
%TO.C,\u002A\u002A97*%
X128778000Y-65278000D03*
%TD*%
%TO.C,\u002A\u002A60*%
X144526000Y-58928000D03*
%TD*%
D14*
%TO.C,D*%
X112776000Y-80899000D03*
D15*
X119126000Y-80899000D03*
%TD*%
D10*
%TO.C,68*%
X103378000Y-84328000D03*
%TD*%
%TO.C,94*%
X128778000Y-111633000D03*
%TD*%
%TO.C,*%
X52578000Y-30226000D03*
%TD*%
%TO.C,46*%
X90678000Y-73533000D03*
%TD*%
%TO.C,60*%
X65278000Y-84328000D03*
%TD*%
%TO.C,9*%
X109728000Y-38354000D03*
%TD*%
%TO.C,89*%
X109728000Y-114554000D03*
%TD*%
%TO.C,14*%
X128778000Y-35433000D03*
%TD*%
%TO.C,*%
X71628000Y-106426000D03*
%TD*%
%TO.C,\u002A\u002A149*%
X103378000Y-119126000D03*
%TD*%
%TO.C,\u002A\u002A56*%
X125476000Y-46228000D03*
%TD*%
%TO.C,\u002A\u002A63*%
X144526000Y-46228000D03*
%TD*%
%TO.C,\u002A\u002A76*%
X71628000Y-65278000D03*
%TD*%
%TO.C,\u002A\u002A151*%
X106426000Y-116078000D03*
%TD*%
D14*
%TO.C,D*%
X55626000Y-42799000D03*
D15*
X61976000Y-42799000D03*
%TD*%
D10*
%TO.C,\u002A\u002A95*%
X144526000Y-77978000D03*
%TD*%
%TO.C,\u002A\u002A8*%
X90678000Y-42926000D03*
%TD*%
%TO.C,32*%
X122428000Y-46228000D03*
%TD*%
%TO.C,\u002A\u002A112*%
X87376000Y-84328000D03*
%TD*%
%TO.C,\u002A\u002A84*%
X106426000Y-65278000D03*
%TD*%
%TO.C,\u002A\u002A6*%
X71628000Y-27178000D03*
%TD*%
%TO.C,\u002A\u002A110*%
X87376000Y-87376000D03*
%TD*%
%TO.C,26*%
X90678000Y-54483000D03*
%TD*%
%TO.C,\u002A\u002A152*%
X106426000Y-106426000D03*
%TD*%
%TO.C,*%
X109728000Y-30226000D03*
%TD*%
%TO.C,\u002A\u002A94*%
X144526000Y-81026000D03*
%TD*%
%TO.C,*%
X71628000Y-30226000D03*
%TD*%
%TO.C,*%
X71628000Y-49276000D03*
%TD*%
%TO.C,\u002A\u002A161*%
X125476000Y-103378000D03*
%TD*%
%TO.C,\u002A\u002A77*%
X87376000Y-65278000D03*
%TD*%
%TO.C,12*%
X122428000Y-27178000D03*
%TD*%
%TO.C,\u002A\u002A74*%
X87376000Y-77978000D03*
%TD*%
%TO.C,\u002A\u002A4*%
X87376000Y-39878000D03*
%TD*%
D12*
%TO.C,SW20*%
X140462000Y-94742000D03*
D13*
X136652000Y-92202000D03*
D11*
X131572000Y-92202000D03*
X141732000Y-92202000D03*
D12*
X134112000Y-97282000D03*
%TD*%
D10*
%TO.C,64*%
X84328000Y-84328000D03*
%TD*%
%TO.C,20*%
X65278000Y-46228000D03*
%TD*%
%TO.C,*%
X109728000Y-106426000D03*
%TD*%
%TO.C,\u002A\u002A28*%
X144526000Y-27178000D03*
%TD*%
D12*
%TO.C,SW2*%
X83312000Y-37592000D03*
D11*
X84582000Y-35052000D03*
D12*
X76962000Y-40132000D03*
D11*
X74422000Y-35052000D03*
D13*
X79502000Y-35052000D03*
%TD*%
D14*
%TO.C,D*%
X93726000Y-99949000D03*
D15*
X100076000Y-99949000D03*
%TD*%
D10*
%TO.C,\u002A\u002A121*%
X122428000Y-100076000D03*
%TD*%
D13*
%TO.C,SW11*%
X60452000Y-73152000D03*
D11*
X65532000Y-73152000D03*
D12*
X64262000Y-75692000D03*
X57912000Y-78232000D03*
D11*
X55372000Y-73152000D03*
%TD*%
D10*
%TO.C,\u002A\u002A16*%
X122428000Y-42926000D03*
%TD*%
%TO.C,\u002A\u002A92*%
X128778000Y-81026000D03*
%TD*%
%TO.C,57*%
X52578000Y-95504000D03*
%TD*%
%TO.C,59*%
X68326000Y-92583000D03*
%TD*%
%TO.C,\u002A\u002A136*%
X68326000Y-119126000D03*
%TD*%
%TO.C,\u002A\u002A119*%
X106426000Y-84328000D03*
%TD*%
%TO.C,82*%
X71628000Y-111633000D03*
%TD*%
%TO.C,\u002A\u002A132*%
X128778000Y-84328000D03*
%TD*%
%TO.C,78*%
X52578000Y-111633000D03*
%TD*%
%TO.C,*%
X128778000Y-49276000D03*
%TD*%
%TO.C,\u002A\u002A49*%
X106426000Y-46228000D03*
%TD*%
%TO.C,\u002A\u002A34*%
X52578000Y-46228000D03*
%TD*%
%TO.C,67*%
X106426000Y-92583000D03*
%TD*%
%TO.C,75*%
X144526000Y-92583000D03*
%TD*%
D11*
%TO.C,SW9*%
X122682000Y-54102000D03*
X112522000Y-54102000D03*
D12*
X115062000Y-59182000D03*
X121412000Y-56642000D03*
D13*
X117602000Y-54102000D03*
%TD*%
D10*
%TO.C,\u002A\u002A154*%
X106426000Y-103378000D03*
%TD*%
D14*
%TO.C,D*%
X131826000Y-99949000D03*
D15*
X138176000Y-99949000D03*
%TD*%
D10*
%TO.C,\u002A\u002A65*%
X65278000Y-81026000D03*
%TD*%
%TO.C,\u002A\u002A85*%
X109728000Y-81026000D03*
%TD*%
D14*
%TO.C,D*%
X55626000Y-61849000D03*
D15*
X61976000Y-61849000D03*
%TD*%
D10*
%TO.C,1*%
X71628000Y-38354000D03*
%TD*%
D14*
%TO.C,D*%
X74676000Y-118999000D03*
D15*
X81026000Y-118999000D03*
%TD*%
D10*
%TO.C,\u002A\u002A51*%
X122428000Y-61976000D03*
%TD*%
%TO.C,*%
X71628000Y-68326000D03*
%TD*%
%TO.C,\u002A\u002A58*%
X141478000Y-61976000D03*
%TD*%
%TO.C,23*%
X87376000Y-54483000D03*
%TD*%
%TO.C,\u002A\u002A61*%
X144526000Y-49276000D03*
%TD*%
%TO.C,\u002A\u002A128*%
X141478000Y-100076000D03*
%TD*%
%TO.C,85*%
X90678000Y-114554000D03*
%TD*%
%TO.C,\u002A\u002A72*%
X84328000Y-81026000D03*
%TD*%
%TO.C,\u002A\u002A46*%
X106426000Y-58928000D03*
%TD*%
%TO.C,\u002A\u002A*%
X52578000Y-42926000D03*
%TD*%
%TO.C,19*%
X68326000Y-54483000D03*
%TD*%
%TO.C,44*%
X84328000Y-65278000D03*
%TD*%
%TO.C,\u002A\u002A118*%
X90678000Y-84328000D03*
%TD*%
%TO.C,\u002A\u002A10*%
X106426000Y-42926000D03*
%TD*%
%TO.C,\u002A\u002A78*%
X90678000Y-81026000D03*
%TD*%
%TO.C,\u002A\u002A80*%
X106426000Y-81026000D03*
%TD*%
D14*
%TO.C,D*%
X93726000Y-80899000D03*
D15*
X100076000Y-80899000D03*
%TD*%
D10*
%TO.C,\u002A\u002A168*%
X144526000Y-103378000D03*
%TD*%
%TO.C,16*%
X141478000Y-27178000D03*
%TD*%
%TO.C,\u002A\u002A93*%
X141478000Y-81026000D03*
%TD*%
%TO.C,*%
X109728000Y-87376000D03*
%TD*%
%TO.C,\u002A\u002A131*%
X144526000Y-87376000D03*
%TD*%
%TO.C,13*%
X128778000Y-38354000D03*
%TD*%
%TO.C,\u002A\u002A30*%
X65278000Y-61976000D03*
%TD*%
%TO.C,*%
X128778000Y-30226000D03*
%TD*%
%TO.C,52*%
X122428000Y-65278000D03*
%TD*%
%TO.C,\u002A\u002A26*%
X144526000Y-30226000D03*
%TD*%
%TO.C,41*%
X71628000Y-76454000D03*
%TD*%
%TO.C,\u002A\u002A20*%
X109728000Y-27178000D03*
%TD*%
%TO.C,48*%
X103378000Y-65278000D03*
%TD*%
%TO.C,\u002A\u002A100*%
X65278000Y-100076000D03*
%TD*%
%TO.C,30*%
X109728000Y-54483000D03*
%TD*%
%TO.C,55*%
X144526000Y-73533000D03*
%TD*%
%TO.C,\u002A\u002A18*%
X125476000Y-39878000D03*
%TD*%
D14*
%TO.C,D*%
X112776000Y-42799000D03*
D15*
X119126000Y-42799000D03*
%TD*%
D10*
%TO.C,\u002A\u002A99*%
X52578000Y-100076000D03*
%TD*%
%TO.C,\u002A\u002A1*%
X71628000Y-42926000D03*
%TD*%
%TO.C,\u002A\u002A96*%
X144526000Y-68326000D03*
%TD*%
%TO.C,\u002A\u002A135*%
X65278000Y-119126000D03*
%TD*%
%TO.C,*%
X90678000Y-106426000D03*
%TD*%
%TO.C,34*%
X128778000Y-54483000D03*
%TD*%
%TO.C,\u002A\u002A31*%
X68326000Y-61976000D03*
%TD*%
D14*
%TO.C,D*%
X74676000Y-80899000D03*
D15*
X81026000Y-80899000D03*
%TD*%
D10*
%TO.C,29*%
X109728000Y-57404000D03*
%TD*%
%TO.C,*%
X90678000Y-30226000D03*
%TD*%
%TO.C,21*%
X71628000Y-57404000D03*
%TD*%
%TO.C,\u002A\u002A7*%
X87376000Y-27178000D03*
%TD*%
%TO.C,\u002A\u002A142*%
X84328000Y-119126000D03*
%TD*%
%TO.C,\u002A\u002A141*%
X71628000Y-119126000D03*
%TD*%
%TO.C,\u002A\u002A70*%
X68326000Y-65278000D03*
%TD*%
D14*
%TO.C,D*%
X74676000Y-99949000D03*
D15*
X81026000Y-99949000D03*
%TD*%
D10*
%TO.C,2*%
X71628000Y-35433000D03*
%TD*%
%TO.C,*%
X71628000Y-87376000D03*
%TD*%
%TO.C,28*%
X103378000Y-46228000D03*
%TD*%
D11*
%TO.C,SW1*%
X55372000Y-35052000D03*
D12*
X64262000Y-37592000D03*
D13*
X60452000Y-35052000D03*
D12*
X57912000Y-40132000D03*
D11*
X65532000Y-35052000D03*
%TD*%
D14*
%TO.C,D*%
X93726000Y-61849000D03*
D15*
X100076000Y-61849000D03*
%TD*%
D10*
%TO.C,88*%
X103378000Y-103378000D03*
%TD*%
%TO.C,\u002A\u002A32*%
X68326000Y-58928000D03*
%TD*%
%TO.C,90*%
X109728000Y-111633000D03*
%TD*%
%TO.C,\u002A\u002A133*%
X144526000Y-84328000D03*
%TD*%
%TO.C,\u002A\u002A36*%
X71628000Y-61976000D03*
%TD*%
%TO.C,6*%
X90678000Y-35433000D03*
%TD*%
%TO.C,25*%
X90678000Y-57404000D03*
%TD*%
D14*
%TO.C,D*%
X131826000Y-42799000D03*
D15*
X138176000Y-42799000D03*
%TD*%
D10*
%TO.C,37*%
X52578000Y-76454000D03*
%TD*%
%TO.C,*%
X128778000Y-87376000D03*
%TD*%
%TO.C,\u002A\u002A64*%
X52578000Y-81026000D03*
%TD*%
%TO.C,\u002A\u002A86*%
X122428000Y-81026000D03*
%TD*%
%TO.C,27*%
X106426000Y-54483000D03*
%TD*%
%TO.C,\u002A\u002A*%
X65278000Y-42926000D03*
%TD*%
%TO.C,38*%
X52578000Y-73533000D03*
%TD*%
%TO.C,5*%
X90678000Y-38354000D03*
%TD*%
%TO.C,\u002A\u002A134*%
X52578000Y-119126000D03*
%TD*%
%TO.C,15*%
X144526000Y-35433000D03*
%TD*%
%TO.C,36*%
X141478000Y-46228000D03*
%TD*%
%TO.C,40*%
X65278000Y-65278000D03*
%TD*%
%TO.C,\u002A\u002A41*%
X71628000Y-46228000D03*
%TD*%
%TO.C,*%
X52578000Y-87376000D03*
%TD*%
%TO.C,\u002A\u002A105*%
X68326000Y-84328000D03*
%TD*%
D13*
%TO.C,SW18*%
X98552000Y-92202000D03*
D12*
X96012000Y-97282000D03*
D11*
X103632000Y-92202000D03*
X93472000Y-92202000D03*
D12*
X102362000Y-94742000D03*
%TD*%
D10*
%TO.C,\u002A\u002A107*%
X84328000Y-100076000D03*
%TD*%
%TO.C,\u002A\u002A155*%
X109728000Y-119126000D03*
%TD*%
D12*
%TO.C,SW14*%
X121412000Y-75692000D03*
D11*
X112522000Y-73152000D03*
D13*
X117602000Y-73152000D03*
D11*
X122682000Y-73152000D03*
D12*
X115062000Y-78232000D03*
%TD*%
D10*
%TO.C,7*%
X106426000Y-35433000D03*
%TD*%
D12*
%TO.C,SW5*%
X140462000Y-37592000D03*
X134112000Y-40132000D03*
D11*
X131572000Y-35052000D03*
D13*
X136652000Y-35052000D03*
D11*
X141732000Y-35052000D03*
%TD*%
D10*
%TO.C,*%
X52578000Y-35433000D03*
%TD*%
%TO.C,92*%
X122428000Y-103378000D03*
%TD*%
%TO.C,\u002A\u002A137*%
X68326000Y-116078000D03*
%TD*%
%TO.C,17*%
X52578000Y-57404000D03*
%TD*%
%TO.C,\u002A\u002A111*%
X71628000Y-84328000D03*
%TD*%
%TO.C,45*%
X90678000Y-76454000D03*
%TD*%
%TO.C,42*%
X71628000Y-73533000D03*
%TD*%
%TO.C,\u002A\u002A75*%
X87376000Y-68326000D03*
%TD*%
%TO.C,\u002A\u002A55*%
X109728000Y-46228000D03*
%TD*%
%TO.C,\u002A\u002A163*%
X141478000Y-119126000D03*
%TD*%
%TO.C,\u002A\u002A120*%
X109728000Y-100076000D03*
%TD*%
%TO.C,\u002A\u002A*%
X68326000Y-39878000D03*
%TD*%
%TO.C,*%
X52578000Y-68326000D03*
%TD*%
%TO.C,84*%
X84328000Y-103378000D03*
%TD*%
%TO.C,\u002A\u002A42*%
X87376000Y-46228000D03*
%TD*%
%TO.C,\u002A\u002A122*%
X125476000Y-100076000D03*
%TD*%
%TO.C,86*%
X90678000Y-111633000D03*
%TD*%
%TO.C,24*%
X84328000Y-46228000D03*
%TD*%
%TO.C,61*%
X71628000Y-95504000D03*
%TD*%
%TO.C,\u002A\u002A145*%
X87376000Y-106426000D03*
%TD*%
%TO.C,\u002A\u002A158*%
X125476000Y-116078000D03*
%TD*%
%TO.C,83*%
X87376000Y-111633000D03*
%TD*%
%TO.C,35*%
X144526000Y-54483000D03*
%TD*%
%TO.C,\u002A\u002A116*%
X106426000Y-97028000D03*
%TD*%
D11*
%TO.C,SW21*%
X55372000Y-111252000D03*
D12*
X64262000Y-113792000D03*
D11*
X65532000Y-111252000D03*
D13*
X60452000Y-111252000D03*
D12*
X57912000Y-116332000D03*
%TD*%
D10*
%TO.C,\u002A\u002A115*%
X106426000Y-100076000D03*
%TD*%
%TO.C,\u002A\u002A150*%
X106426000Y-119126000D03*
%TD*%
%TO.C,56*%
X141478000Y-65278000D03*
%TD*%
%TO.C,\u002A\u002A108*%
X87376000Y-100076000D03*
%TD*%
%TO.C,53*%
X128778000Y-76454000D03*
%TD*%
%TO.C,66*%
X90678000Y-92583000D03*
%TD*%
%TO.C,*%
X90678000Y-68326000D03*
%TD*%
%TO.C,\u002A\u002A113*%
X90678000Y-100076000D03*
%TD*%
%TO.C,\u002A\u002A117*%
X106426000Y-87376000D03*
%TD*%
%TO.C,\u002A\u002A21*%
X125476000Y-27178000D03*
%TD*%
%TO.C,31*%
X125476000Y-54483000D03*
%TD*%
D11*
%TO.C,SW3*%
X93472000Y-35052000D03*
D12*
X96012000Y-40132000D03*
D11*
X103632000Y-35052000D03*
D13*
X98552000Y-35052000D03*
D12*
X102362000Y-37592000D03*
%TD*%
%TO.C,SW13*%
X96012000Y-78232000D03*
D11*
X93472000Y-73152000D03*
X103632000Y-73152000D03*
D13*
X98552000Y-73152000D03*
D12*
X102362000Y-75692000D03*
%TD*%
D14*
%TO.C,D*%
X112776000Y-99949000D03*
D15*
X119126000Y-99949000D03*
%TD*%
D14*
%TO.C,D*%
X112776000Y-61849000D03*
D15*
X119126000Y-61849000D03*
%TD*%
D10*
%TO.C,51*%
X125476000Y-73533000D03*
%TD*%
%TO.C,\u002A\u002A106*%
X71628000Y-100076000D03*
%TD*%
D11*
%TO.C,SW6*%
X65532000Y-54102000D03*
D12*
X64262000Y-56642000D03*
X57912000Y-59182000D03*
D13*
X60452000Y-54102000D03*
D11*
X55372000Y-54102000D03*
%TD*%
D10*
%TO.C,73*%
X128778000Y-95504000D03*
%TD*%
%TO.C,\u002A\u002A98*%
X144526000Y-65278000D03*
%TD*%
D14*
%TO.C,D*%
X55626000Y-80899000D03*
D15*
X61976000Y-80899000D03*
%TD*%
D10*
%TO.C,\u002A\u002A24*%
X144526000Y-42926000D03*
%TD*%
%TO.C,\u002A\u002A12*%
X106426000Y-30226000D03*
%TD*%
%TO.C,\u002A\u002A102*%
X68326000Y-97028000D03*
%TD*%
%TO.C,50*%
X109728000Y-73533000D03*
%TD*%
%TO.C,\u002A\u002A14*%
X106426000Y-27178000D03*
%TD*%
%TO.C,\u002A\u002A3*%
X87376000Y-42926000D03*
%TD*%
%TO.C,\u002A\u002A66*%
X68326000Y-81026000D03*
%TD*%
%TO.C,\u002A\u002A104*%
X52578000Y-84328000D03*
%TD*%
%TO.C,\u002A\u002A164*%
X144526000Y-119126000D03*
%TD*%
D13*
%TO.C,SW16*%
X60452000Y-92202000D03*
D11*
X65532000Y-92202000D03*
D12*
X64262000Y-94742000D03*
D11*
X55372000Y-92202000D03*
D12*
X57912000Y-97282000D03*
%TD*%
D10*
%TO.C,58*%
X52578000Y-92583000D03*
%TD*%
D14*
%TO.C,D*%
X55626000Y-99949000D03*
D15*
X61976000Y-99949000D03*
%TD*%
D10*
%TO.C,\u002A\u002A73*%
X87376000Y-81026000D03*
%TD*%
%TO.C,\u002A\u002A44*%
X103378000Y-61976000D03*
%TD*%
%TO.C,\u002A\u002A40*%
X87376000Y-49276000D03*
%TD*%
%TO.C,*%
X68326000Y-35433000D03*
%TD*%
%TO.C,\u002A\u002A83*%
X90678000Y-65278000D03*
%TD*%
D11*
%TO.C,SW23*%
X103632000Y-111252000D03*
X93472000Y-111252000D03*
D12*
X102362000Y-113792000D03*
X96012000Y-116332000D03*
D13*
X98552000Y-111252000D03*
%TD*%
D10*
%TO.C,39*%
X68326000Y-73533000D03*
%TD*%
%TO.C,\u002A\u002A126*%
X125476000Y-84328000D03*
%TD*%
%TO.C,\u002A\u002A79*%
X103378000Y-81026000D03*
%TD*%
%TO.C,\u002A\u002A9*%
X103378000Y-42926000D03*
%TD*%
%TO.C,\u002A\u002A13*%
X90678000Y-27178000D03*
%TD*%
%TO.C,*%
X109728000Y-68326000D03*
%TD*%
D14*
%TO.C,D*%
X112776000Y-118999000D03*
D15*
X119126000Y-118999000D03*
%TD*%
D10*
%TO.C,3*%
X87376000Y-35433000D03*
%TD*%
%TO.C,70*%
X109728000Y-92583000D03*
%TD*%
%TO.C,95*%
X144526000Y-111633000D03*
%TD*%
%TO.C,93*%
X128778000Y-114554000D03*
%TD*%
%TO.C,*%
X128778000Y-68326000D03*
%TD*%
%TO.C,76*%
X141478000Y-84328000D03*
%TD*%
%TO.C,\u002A\u002A22*%
X128778000Y-42926000D03*
%TD*%
%TO.C,69*%
X109728000Y-95504000D03*
%TD*%
%TO.C,\u002A\u002A87*%
X125476000Y-81026000D03*
%TD*%
%TO.C,\u002A\u002A27*%
X128778000Y-27178000D03*
%TD*%
D14*
%TO.C,D*%
X93726000Y-42799000D03*
D15*
X100076000Y-42799000D03*
%TD*%
D10*
%TO.C,4*%
X84328000Y-27178000D03*
%TD*%
D11*
%TO.C,SW17*%
X84582000Y-92202000D03*
D12*
X76962000Y-97282000D03*
D11*
X74422000Y-92202000D03*
D13*
X79502000Y-92202000D03*
D12*
X83312000Y-94742000D03*
%TD*%
D10*
%TO.C,\u002A\u002A35*%
X68326000Y-46228000D03*
%TD*%
%TO.C,\u002A\u002A103*%
X68326000Y-87376000D03*
%TD*%
D13*
%TO.C,SW7*%
X79502000Y-54102000D03*
D12*
X76962000Y-59182000D03*
D11*
X84582000Y-54102000D03*
D12*
X83312000Y-56642000D03*
D11*
X74422000Y-54102000D03*
%TD*%
D14*
%TO.C,D*%
X74676000Y-61849000D03*
D15*
X81026000Y-61849000D03*
%TD*%
D14*
%TO.C,D*%
X131826000Y-80899000D03*
D15*
X138176000Y-80899000D03*
%TD*%
D10*
%TO.C,\u002A\u002A124*%
X125476000Y-87376000D03*
%TD*%
%TO.C,\u002A\u002A125*%
X109728000Y-84328000D03*
%TD*%
%TO.C,*%
X90678000Y-87376000D03*
%TD*%
D13*
%TO.C,SW8*%
X98552000Y-54102000D03*
D12*
X102362000Y-56642000D03*
D11*
X103632000Y-54102000D03*
X93472000Y-54102000D03*
D12*
X96012000Y-59182000D03*
%TD*%
M02*
